G04 Layer: TopLayer*
G04 EasyEDA v6.4.19.5, 2021-05-31T22:29:23+02:00*
G04 854b63200669450aa1ca204ba71e84e5,563db0ff5b334ec4995e7372edb549dc,10*
G04 Gerber Generator version 0.2*
G04 Scale: 100 percent, Rotated: No, Reflected: No *
G04 Dimensions in millimeters *
G04 leading zeros omitted , absolute positions ,4 integer and 5 decimal *
%FSLAX45Y45*%
%MOMM*%

%ADD10C,0.2540*%
%ADD11C,0.3050*%
%ADD12C,0.3500*%
%ADD13C,0.3000*%
%ADD14C,0.6096*%
%ADD15R,1.0000X1.1000*%
%ADD17R,4.2000X4.2000*%
%ADD18C,1.8000*%
%ADD19C,1.7000*%
%ADD21C,2.4000*%

%LPD*%
G36*
X35814Y-1974342D02*
G01*
X31902Y-1973580D01*
X28651Y-1971344D01*
X26416Y-1968093D01*
X25654Y-1964182D01*
X25654Y-35814D01*
X26416Y-31902D01*
X28651Y-28651D01*
X31902Y-26416D01*
X35814Y-25654D01*
X17185386Y-25654D01*
X17189297Y-26416D01*
X17192548Y-28651D01*
X17194784Y-31902D01*
X17195546Y-35814D01*
X17195546Y-1964182D01*
X17194784Y-1968093D01*
X17192548Y-1971344D01*
X17189297Y-1973580D01*
X17185386Y-1974342D01*
G37*

%LPC*%
G36*
X317500Y-1948383D02*
G01*
X327253Y-1947519D01*
X336702Y-1945030D01*
X345541Y-1940864D01*
X353568Y-1935276D01*
X360476Y-1928368D01*
X366064Y-1920341D01*
X370230Y-1911502D01*
X372719Y-1902053D01*
X373430Y-1893976D01*
X374345Y-1890522D01*
X376377Y-1887677D01*
X402386Y-1861616D01*
X405688Y-1859432D01*
X409600Y-1858670D01*
X477520Y-1858670D01*
X483768Y-1857959D01*
X489153Y-1856079D01*
X494030Y-1853031D01*
X498093Y-1848967D01*
X499465Y-1846732D01*
X502259Y-1843786D01*
X506018Y-1842211D01*
X510082Y-1842211D01*
X513842Y-1843786D01*
X516686Y-1846732D01*
X518058Y-1848967D01*
X522122Y-1853031D01*
X526948Y-1856079D01*
X532384Y-1857959D01*
X538632Y-1858670D01*
X637489Y-1858670D01*
X643737Y-1857959D01*
X649173Y-1856079D01*
X653999Y-1853031D01*
X658063Y-1848967D01*
X661111Y-1844090D01*
X662990Y-1838706D01*
X663702Y-1832406D01*
X663702Y-1829054D01*
X664464Y-1825193D01*
X666699Y-1821891D01*
X670001Y-1819656D01*
X673862Y-1818893D01*
X1491691Y-1818893D01*
X1495602Y-1819656D01*
X1498854Y-1821891D01*
X1501089Y-1825193D01*
X1501851Y-1829054D01*
X1501851Y-1839417D01*
X1502562Y-1845716D01*
X1504442Y-1851101D01*
X1507490Y-1855978D01*
X1511554Y-1859991D01*
X1516380Y-1863039D01*
X1521815Y-1864969D01*
X1528064Y-1865630D01*
X1596085Y-1865630D01*
X1599946Y-1866442D01*
X1603248Y-1868627D01*
X1642821Y-1908149D01*
X1649374Y-1913585D01*
X1656435Y-1917344D01*
X1664106Y-1919681D01*
X1672589Y-1920493D01*
X3419601Y-1920493D01*
X3428085Y-1919681D01*
X3435756Y-1917344D01*
X3442817Y-1913585D01*
X3449370Y-1908149D01*
X3488944Y-1868627D01*
X3492246Y-1866442D01*
X3496106Y-1865630D01*
X3571900Y-1865630D01*
X3578199Y-1864969D01*
X3583584Y-1863039D01*
X3588461Y-1859991D01*
X3592474Y-1855978D01*
X3595573Y-1851101D01*
X3597452Y-1845716D01*
X3598164Y-1839417D01*
X3598164Y-1829054D01*
X3598926Y-1825193D01*
X3601110Y-1821891D01*
X3604412Y-1819656D01*
X3608324Y-1818893D01*
X4551680Y-1818893D01*
X4555591Y-1819656D01*
X4558893Y-1821891D01*
X4561078Y-1825193D01*
X4561840Y-1829054D01*
X4561840Y-1839417D01*
X4562551Y-1845716D01*
X4564430Y-1851101D01*
X4567478Y-1855978D01*
X4571542Y-1859991D01*
X4576419Y-1863039D01*
X4581804Y-1864969D01*
X4588052Y-1865630D01*
X4658410Y-1865630D01*
X4662373Y-1866493D01*
X4665726Y-1868779D01*
X4702759Y-1907489D01*
X4709210Y-1913077D01*
X4716170Y-1916988D01*
X4723790Y-1919478D01*
X4732172Y-1920493D01*
X6480302Y-1920493D01*
X6488785Y-1919681D01*
X6496456Y-1917344D01*
X6503517Y-1913585D01*
X6510070Y-1908149D01*
X6556603Y-1861616D01*
X6559905Y-1859432D01*
X6563817Y-1858670D01*
X6631838Y-1858670D01*
X6638086Y-1857959D01*
X6643471Y-1856079D01*
X6648348Y-1853031D01*
X6652412Y-1848967D01*
X6655460Y-1844090D01*
X6657340Y-1838706D01*
X6658051Y-1832406D01*
X6658051Y-1829054D01*
X6658813Y-1825193D01*
X6660997Y-1821891D01*
X6664299Y-1819656D01*
X6668211Y-1818893D01*
X7101687Y-1818893D01*
X7105599Y-1819656D01*
X7108901Y-1821891D01*
X7111085Y-1825193D01*
X7111847Y-1829054D01*
X7111847Y-1839417D01*
X7112558Y-1845716D01*
X7114438Y-1851101D01*
X7117486Y-1855978D01*
X7121550Y-1859991D01*
X7126427Y-1863039D01*
X7131812Y-1864969D01*
X7138060Y-1865630D01*
X7206081Y-1865630D01*
X7209993Y-1866442D01*
X7213295Y-1868627D01*
X7252817Y-1908149D01*
X7259421Y-1913585D01*
X7266482Y-1917344D01*
X7274153Y-1919681D01*
X7282586Y-1920493D01*
X9037421Y-1920493D01*
X9045854Y-1919681D01*
X9053525Y-1917344D01*
X9060586Y-1913585D01*
X9067190Y-1908149D01*
X9106712Y-1868627D01*
X9110014Y-1866442D01*
X9113875Y-1865630D01*
X9181896Y-1865630D01*
X9188196Y-1864969D01*
X9193580Y-1863039D01*
X9198457Y-1859991D01*
X9202521Y-1855978D01*
X9205569Y-1851101D01*
X9207449Y-1845716D01*
X9208160Y-1839417D01*
X9208160Y-1836064D01*
X9208922Y-1832152D01*
X9211106Y-1828901D01*
X9214408Y-1826666D01*
X9218320Y-1825904D01*
X9651695Y-1825904D01*
X9655606Y-1826666D01*
X9658858Y-1828901D01*
X9661093Y-1832152D01*
X9661855Y-1836064D01*
X9661855Y-1839417D01*
X9662566Y-1845716D01*
X9664446Y-1851101D01*
X9667494Y-1855978D01*
X9671558Y-1859991D01*
X9676384Y-1863039D01*
X9681819Y-1864969D01*
X9688068Y-1865630D01*
X9756089Y-1865630D01*
X9760000Y-1866442D01*
X9763302Y-1868627D01*
X9802825Y-1908149D01*
X9809378Y-1913585D01*
X9816439Y-1917344D01*
X9824110Y-1919681D01*
X9832594Y-1920493D01*
X11581892Y-1920493D01*
X11590375Y-1919681D01*
X11598046Y-1917344D01*
X11605107Y-1913585D01*
X11611660Y-1908149D01*
X11651234Y-1868627D01*
X11654536Y-1866442D01*
X11658396Y-1865630D01*
X11731904Y-1865630D01*
X11738203Y-1864969D01*
X11743588Y-1863039D01*
X11748465Y-1859991D01*
X11752478Y-1855978D01*
X11755526Y-1851101D01*
X11757456Y-1845716D01*
X11758168Y-1839417D01*
X11758168Y-1836064D01*
X11758930Y-1832152D01*
X11761114Y-1828901D01*
X11764416Y-1826666D01*
X11768328Y-1825904D01*
X12201702Y-1825904D01*
X12205563Y-1826666D01*
X12208865Y-1828901D01*
X12211100Y-1832152D01*
X12211862Y-1836064D01*
X12211862Y-1839417D01*
X12212574Y-1845716D01*
X12214453Y-1851101D01*
X12217501Y-1855978D01*
X12221565Y-1859991D01*
X12226391Y-1863039D01*
X12231827Y-1864969D01*
X12238075Y-1865630D01*
X12306096Y-1865630D01*
X12309957Y-1866442D01*
X12313259Y-1868627D01*
X12352832Y-1908149D01*
X12359386Y-1913585D01*
X12366447Y-1917344D01*
X12374118Y-1919681D01*
X12382601Y-1920493D01*
X14137386Y-1920493D01*
X14145869Y-1919681D01*
X14153540Y-1917344D01*
X14160601Y-1913585D01*
X14167154Y-1908149D01*
X14206728Y-1868627D01*
X14210030Y-1866442D01*
X14213890Y-1865630D01*
X14281912Y-1865630D01*
X14288160Y-1864969D01*
X14293596Y-1863039D01*
X14298422Y-1859991D01*
X14302486Y-1855978D01*
X14305534Y-1851101D01*
X14307464Y-1845716D01*
X14308124Y-1839417D01*
X14308124Y-1730552D01*
X14307464Y-1724304D01*
X14305534Y-1718919D01*
X14302486Y-1714042D01*
X14298422Y-1709978D01*
X14293596Y-1706930D01*
X14288160Y-1705051D01*
X14282419Y-1704390D01*
X14278914Y-1703324D01*
X14275968Y-1701088D01*
X14274088Y-1697939D01*
X14273428Y-1694332D01*
X14273428Y-1620672D01*
X14274088Y-1617065D01*
X14275968Y-1613916D01*
X14278914Y-1611680D01*
X14282419Y-1610614D01*
X14288160Y-1609953D01*
X14293596Y-1608074D01*
X14298422Y-1605026D01*
X14302486Y-1600962D01*
X14305534Y-1596085D01*
X14307464Y-1590700D01*
X14308124Y-1584452D01*
X14308124Y-1581150D01*
X14308937Y-1577289D01*
X14311122Y-1573987D01*
X14314424Y-1571752D01*
X14318284Y-1570990D01*
X14335963Y-1570990D01*
X14339824Y-1571752D01*
X14343126Y-1573987D01*
X14357908Y-1588770D01*
X14360144Y-1592072D01*
X14360906Y-1595932D01*
X14360906Y-1675892D01*
X14361718Y-1684375D01*
X14364055Y-1692046D01*
X14367814Y-1699107D01*
X14373250Y-1705660D01*
X14474139Y-1806549D01*
X14480692Y-1811985D01*
X14487753Y-1815744D01*
X14495424Y-1818081D01*
X14503907Y-1818893D01*
X15188692Y-1818893D01*
X15197175Y-1818081D01*
X15204846Y-1815744D01*
X15211907Y-1811985D01*
X15218460Y-1806549D01*
X15244673Y-1780336D01*
X15250109Y-1773783D01*
X15253868Y-1766722D01*
X15256205Y-1759051D01*
X15257018Y-1750568D01*
X15257018Y-1701800D01*
X15257475Y-1698752D01*
X15258846Y-1695957D01*
X15264688Y-1687626D01*
X15268854Y-1678787D01*
X15271343Y-1669338D01*
X15272207Y-1659585D01*
X15271343Y-1649831D01*
X15268854Y-1640382D01*
X15264688Y-1631543D01*
X15258846Y-1623212D01*
X15257475Y-1620418D01*
X15257018Y-1617370D01*
X15257018Y-1529486D01*
X15257678Y-1525879D01*
X15259608Y-1522730D01*
X15262504Y-1520444D01*
X15266060Y-1519377D01*
X15266060Y-1478838D01*
X15262504Y-1476705D01*
X15260116Y-1473352D01*
X15259304Y-1469288D01*
X15259304Y-1431899D01*
X15260116Y-1427835D01*
X15262504Y-1424482D01*
X15266060Y-1422349D01*
X15266060Y-1370025D01*
X15266822Y-1366113D01*
X15269006Y-1362811D01*
X15272308Y-1360627D01*
X15276220Y-1359865D01*
X15286075Y-1359865D01*
X15289987Y-1360627D01*
X15293289Y-1362811D01*
X15295473Y-1366113D01*
X15296235Y-1370025D01*
X15296235Y-1421790D01*
X15299842Y-1422806D01*
X15302839Y-1425041D01*
X15304820Y-1428242D01*
X15305532Y-1431899D01*
X15305532Y-1469288D01*
X15304820Y-1472946D01*
X15302839Y-1476146D01*
X15299842Y-1478381D01*
X15296235Y-1479397D01*
X15296235Y-1518259D01*
X15300350Y-1516684D01*
X15310408Y-1510334D01*
X15313964Y-1509623D01*
X15317520Y-1510182D01*
X15320670Y-1511909D01*
X15323616Y-1514348D01*
X15330627Y-1518107D01*
X15338247Y-1520444D01*
X15346172Y-1521206D01*
X15354096Y-1520444D01*
X15361716Y-1518107D01*
X15368727Y-1514348D01*
X15374874Y-1509318D01*
X15379954Y-1503172D01*
X15383306Y-1496872D01*
X15385542Y-1494028D01*
X15388691Y-1492148D01*
X15392247Y-1491488D01*
X15450261Y-1491488D01*
X15454122Y-1492250D01*
X15457424Y-1494485D01*
X15553639Y-1590649D01*
X15560192Y-1596085D01*
X15567253Y-1599844D01*
X15574924Y-1602181D01*
X15583407Y-1602994D01*
X16623792Y-1602994D01*
X16632275Y-1602181D01*
X16639946Y-1599844D01*
X16647007Y-1596085D01*
X16653560Y-1590649D01*
X16741749Y-1502460D01*
X16747185Y-1495907D01*
X16750944Y-1488846D01*
X16753281Y-1481175D01*
X16754094Y-1472692D01*
X16754094Y-1448714D01*
X16754601Y-1445514D01*
X16756126Y-1442669D01*
X16758462Y-1440383D01*
X16769486Y-1432712D01*
X16779951Y-1423162D01*
X16789146Y-1412392D01*
X16796918Y-1400505D01*
X16803065Y-1387703D01*
X16807535Y-1374241D01*
X16810228Y-1360322D01*
X16811142Y-1346200D01*
X16810228Y-1332077D01*
X16807535Y-1318158D01*
X16803065Y-1304696D01*
X16796918Y-1291894D01*
X16789146Y-1280007D01*
X16779951Y-1269238D01*
X16769486Y-1259687D01*
X16757853Y-1251610D01*
X16745305Y-1245057D01*
X16731996Y-1240129D01*
X16718178Y-1236980D01*
X16704056Y-1235608D01*
X16689882Y-1236065D01*
X16675862Y-1238351D01*
X16662298Y-1242364D01*
X16649344Y-1248105D01*
X16637203Y-1255471D01*
X16626128Y-1264310D01*
X16616273Y-1274470D01*
X16607790Y-1285849D01*
X16600830Y-1298194D01*
X16595496Y-1311351D01*
X16591889Y-1325067D01*
X16590111Y-1339088D01*
X16590111Y-1353312D01*
X16591889Y-1367332D01*
X16595496Y-1381048D01*
X16600830Y-1394206D01*
X16607790Y-1406550D01*
X16616273Y-1417929D01*
X16626128Y-1428089D01*
X16637203Y-1436928D01*
X16649344Y-1444294D01*
X16660012Y-1449019D01*
X16663212Y-1451254D01*
X16665346Y-1454556D01*
X16666057Y-1458417D01*
X16665244Y-1462227D01*
X16663060Y-1465478D01*
X16610330Y-1518208D01*
X16607028Y-1520444D01*
X16603167Y-1521206D01*
X16350284Y-1521206D01*
X16346373Y-1520444D01*
X16343071Y-1518208D01*
X16340886Y-1514906D01*
X16340124Y-1511046D01*
X16340886Y-1507134D01*
X16343071Y-1503832D01*
X16395496Y-1451457D01*
X16398849Y-1449222D01*
X16402812Y-1448511D01*
X16406774Y-1449374D01*
X16408298Y-1450035D01*
X16421862Y-1454048D01*
X16435882Y-1456334D01*
X16450056Y-1456791D01*
X16464178Y-1455420D01*
X16477996Y-1452270D01*
X16491305Y-1447342D01*
X16503853Y-1440789D01*
X16515486Y-1432712D01*
X16525951Y-1423162D01*
X16535146Y-1412392D01*
X16542918Y-1400505D01*
X16549065Y-1387703D01*
X16553535Y-1374241D01*
X16556228Y-1360322D01*
X16557142Y-1346200D01*
X16556228Y-1332077D01*
X16553535Y-1318158D01*
X16549065Y-1304696D01*
X16542918Y-1291894D01*
X16535146Y-1280007D01*
X16525951Y-1269238D01*
X16515486Y-1259687D01*
X16503853Y-1251610D01*
X16491305Y-1245057D01*
X16477996Y-1240129D01*
X16464178Y-1236980D01*
X16450056Y-1235608D01*
X16435882Y-1236065D01*
X16421862Y-1238351D01*
X16408298Y-1242364D01*
X16395344Y-1248105D01*
X16383203Y-1255471D01*
X16372128Y-1264310D01*
X16362273Y-1274470D01*
X16353790Y-1285849D01*
X16346830Y-1298194D01*
X16341496Y-1311351D01*
X16337889Y-1325067D01*
X16336111Y-1339088D01*
X16336111Y-1353312D01*
X16337889Y-1367332D01*
X16341496Y-1381048D01*
X16343579Y-1386128D01*
X16344290Y-1389989D01*
X16343528Y-1393850D01*
X16341344Y-1397152D01*
X16268496Y-1469948D01*
X16265194Y-1472184D01*
X16261283Y-1472946D01*
X16223538Y-1472946D01*
X16219424Y-1472082D01*
X16216020Y-1469593D01*
X16213886Y-1465986D01*
X16213429Y-1461820D01*
X16214648Y-1457807D01*
X16217442Y-1454658D01*
X16221252Y-1452880D01*
X16223996Y-1452270D01*
X16237305Y-1447342D01*
X16249853Y-1440789D01*
X16261486Y-1432712D01*
X16271951Y-1423162D01*
X16281146Y-1412392D01*
X16288918Y-1400505D01*
X16295065Y-1387703D01*
X16299535Y-1374241D01*
X16302228Y-1360322D01*
X16303142Y-1346200D01*
X16302228Y-1332077D01*
X16299535Y-1318158D01*
X16295065Y-1304696D01*
X16288918Y-1291894D01*
X16281146Y-1280007D01*
X16271951Y-1269238D01*
X16261486Y-1259687D01*
X16249853Y-1251610D01*
X16237305Y-1245057D01*
X16223996Y-1240129D01*
X16210178Y-1236980D01*
X16196056Y-1235608D01*
X16181882Y-1236065D01*
X16167862Y-1238351D01*
X16154298Y-1242364D01*
X16141344Y-1248105D01*
X16129203Y-1255471D01*
X16118128Y-1264310D01*
X16108273Y-1274470D01*
X16099790Y-1285849D01*
X16092830Y-1298194D01*
X16087496Y-1311351D01*
X16083889Y-1325067D01*
X16082111Y-1339088D01*
X16082111Y-1353312D01*
X16083889Y-1367332D01*
X16087496Y-1381048D01*
X16089579Y-1386128D01*
X16090290Y-1389989D01*
X16089528Y-1393850D01*
X16087344Y-1397152D01*
X16065296Y-1419148D01*
X16061994Y-1421384D01*
X16058083Y-1422146D01*
X16039541Y-1422146D01*
X16035324Y-1421231D01*
X16031819Y-1418640D01*
X16029787Y-1414830D01*
X16029482Y-1410512D01*
X16031006Y-1406448D01*
X16034918Y-1400505D01*
X16041065Y-1387703D01*
X16045535Y-1374241D01*
X16048228Y-1360322D01*
X16049142Y-1346200D01*
X16048228Y-1332077D01*
X16045535Y-1318158D01*
X16041065Y-1304696D01*
X16034918Y-1291894D01*
X16031006Y-1285951D01*
X16029482Y-1281887D01*
X16029787Y-1277569D01*
X16031819Y-1273759D01*
X16035324Y-1271168D01*
X16039541Y-1270254D01*
X16052292Y-1270254D01*
X16060267Y-1269492D01*
X16067481Y-1267307D01*
X16074085Y-1263751D01*
X16080282Y-1258671D01*
X16141496Y-1197457D01*
X16144849Y-1195222D01*
X16148812Y-1194511D01*
X16152774Y-1195374D01*
X16154298Y-1196035D01*
X16167862Y-1200048D01*
X16181882Y-1202334D01*
X16196056Y-1202791D01*
X16210178Y-1201420D01*
X16223996Y-1198270D01*
X16237305Y-1193342D01*
X16249853Y-1186789D01*
X16261486Y-1178712D01*
X16271951Y-1169162D01*
X16281146Y-1158392D01*
X16288918Y-1146505D01*
X16295065Y-1133703D01*
X16299535Y-1120241D01*
X16302228Y-1106322D01*
X16303142Y-1092200D01*
X16302228Y-1078077D01*
X16299535Y-1064158D01*
X16295319Y-1051560D01*
X16294811Y-1047851D01*
X16295674Y-1044244D01*
X16297808Y-1041146D01*
X16333571Y-1005382D01*
X16338651Y-999185D01*
X16342207Y-992581D01*
X16344392Y-985367D01*
X16345154Y-977392D01*
X16345154Y-855827D01*
X16345916Y-851916D01*
X16348151Y-848614D01*
X16351402Y-846429D01*
X16355313Y-845667D01*
X16367150Y-845667D01*
X16373398Y-844956D01*
X16378783Y-843076D01*
X16383660Y-840028D01*
X16387724Y-835964D01*
X16389096Y-833729D01*
X16391890Y-830783D01*
X16395649Y-829208D01*
X16399713Y-829208D01*
X16403472Y-830783D01*
X16406317Y-833729D01*
X16407688Y-835964D01*
X16411752Y-840028D01*
X16416578Y-843076D01*
X16422014Y-844956D01*
X16428262Y-845667D01*
X16527119Y-845667D01*
X16533368Y-844956D01*
X16538803Y-843076D01*
X16543629Y-840028D01*
X16547693Y-835964D01*
X16550741Y-831087D01*
X16552621Y-825703D01*
X16553332Y-819403D01*
X16553332Y-816051D01*
X16554145Y-812190D01*
X16556329Y-808888D01*
X16559631Y-806653D01*
X16563492Y-805891D01*
X16731894Y-805891D01*
X16735755Y-806653D01*
X16739057Y-808888D01*
X16741292Y-812190D01*
X16742054Y-816051D01*
X16742054Y-819403D01*
X16742765Y-825703D01*
X16744645Y-831087D01*
X16747693Y-835964D01*
X16751757Y-840028D01*
X16756583Y-843076D01*
X16762018Y-844956D01*
X16767657Y-845566D01*
X16771213Y-846632D01*
X16774109Y-848918D01*
X16776039Y-852068D01*
X16776700Y-855675D01*
X16776700Y-929386D01*
X16777512Y-937869D01*
X16779849Y-945540D01*
X16783608Y-952601D01*
X16789044Y-959154D01*
X16856303Y-1026464D01*
X16858640Y-1030122D01*
X16859250Y-1034440D01*
X16857980Y-1038606D01*
X16854830Y-1044194D01*
X16849496Y-1057351D01*
X16845889Y-1071067D01*
X16844111Y-1085088D01*
X16844111Y-1099312D01*
X16845889Y-1113332D01*
X16849496Y-1127048D01*
X16854830Y-1140206D01*
X16861790Y-1152550D01*
X16870273Y-1163929D01*
X16880128Y-1174089D01*
X16891203Y-1182928D01*
X16903344Y-1190294D01*
X16916298Y-1196035D01*
X16929862Y-1200048D01*
X16943882Y-1202334D01*
X16958056Y-1202791D01*
X16972178Y-1201420D01*
X16985996Y-1198270D01*
X16999305Y-1193342D01*
X17011853Y-1186789D01*
X17023486Y-1178712D01*
X17033951Y-1169162D01*
X17043146Y-1158392D01*
X17050918Y-1146505D01*
X17057065Y-1133703D01*
X17061535Y-1120241D01*
X17064228Y-1106322D01*
X17065142Y-1092200D01*
X17064228Y-1078077D01*
X17061535Y-1064158D01*
X17057065Y-1050696D01*
X17050918Y-1037894D01*
X17043146Y-1026007D01*
X17033951Y-1015237D01*
X17023486Y-1005687D01*
X17011853Y-997610D01*
X16999305Y-991057D01*
X16985996Y-986129D01*
X16972178Y-982980D01*
X16958056Y-981608D01*
X16943882Y-982065D01*
X16934992Y-983487D01*
X16931843Y-983538D01*
X16928795Y-982522D01*
X16926204Y-980643D01*
X16861485Y-915924D01*
X16859250Y-912621D01*
X16858488Y-908761D01*
X16858488Y-855726D01*
X16859148Y-852068D01*
X16861078Y-848918D01*
X16863974Y-846683D01*
X16867530Y-845616D01*
X16873372Y-844956D01*
X16878808Y-843076D01*
X16883634Y-840028D01*
X16887698Y-835964D01*
X16890746Y-831087D01*
X16892625Y-825703D01*
X16893336Y-819403D01*
X16893336Y-710590D01*
X16892625Y-704291D01*
X16890746Y-698906D01*
X16887698Y-694029D01*
X16883634Y-690016D01*
X16878808Y-686968D01*
X16873372Y-685038D01*
X16867124Y-684326D01*
X16768267Y-684326D01*
X16762018Y-685038D01*
X16756583Y-686968D01*
X16751757Y-690016D01*
X16747693Y-694029D01*
X16744645Y-698906D01*
X16742765Y-704291D01*
X16742054Y-710590D01*
X16742054Y-713943D01*
X16741292Y-717804D01*
X16739057Y-721106D01*
X16735755Y-723341D01*
X16731894Y-724103D01*
X16563492Y-724103D01*
X16559631Y-723341D01*
X16556329Y-721106D01*
X16554145Y-717804D01*
X16553332Y-713943D01*
X16553332Y-710590D01*
X16552621Y-704291D01*
X16550741Y-698906D01*
X16547693Y-694029D01*
X16543629Y-690016D01*
X16538803Y-686968D01*
X16533368Y-685038D01*
X16527119Y-684326D01*
X16428262Y-684326D01*
X16422014Y-685038D01*
X16416578Y-686968D01*
X16411752Y-690016D01*
X16407688Y-694029D01*
X16406317Y-696264D01*
X16403472Y-699211D01*
X16399713Y-700786D01*
X16395649Y-700786D01*
X16391890Y-699211D01*
X16389096Y-696264D01*
X16387724Y-694029D01*
X16383660Y-690016D01*
X16378783Y-686968D01*
X16373398Y-685038D01*
X16367150Y-684326D01*
X16268293Y-684326D01*
X16261994Y-685038D01*
X16256609Y-686968D01*
X16251732Y-690016D01*
X16247719Y-694029D01*
X16244671Y-698906D01*
X16242741Y-704291D01*
X16242030Y-710590D01*
X16242030Y-819403D01*
X16242741Y-825703D01*
X16244671Y-831087D01*
X16247719Y-835964D01*
X16251732Y-840028D01*
X16256609Y-843076D01*
X16261638Y-844803D01*
X16265194Y-846937D01*
X16267582Y-850341D01*
X16268446Y-854405D01*
X16268446Y-957783D01*
X16267684Y-961694D01*
X16265448Y-964996D01*
X16243452Y-986993D01*
X16240251Y-989177D01*
X16236543Y-989990D01*
X16232733Y-989380D01*
X16223996Y-986129D01*
X16210178Y-982980D01*
X16196056Y-981608D01*
X16181882Y-982065D01*
X16167862Y-984351D01*
X16154298Y-988364D01*
X16141344Y-994105D01*
X16129203Y-1001471D01*
X16118128Y-1010310D01*
X16108273Y-1020470D01*
X16099790Y-1031849D01*
X16092830Y-1044194D01*
X16087496Y-1057351D01*
X16083889Y-1071067D01*
X16082111Y-1085088D01*
X16082111Y-1099312D01*
X16083889Y-1113332D01*
X16087496Y-1127048D01*
X16089579Y-1132128D01*
X16090290Y-1135989D01*
X16089528Y-1139850D01*
X16087344Y-1143152D01*
X16039896Y-1190548D01*
X16036594Y-1192784D01*
X16032683Y-1193546D01*
X16017443Y-1193546D01*
X16013480Y-1192733D01*
X16010128Y-1190447D01*
X16007943Y-1187043D01*
X16007283Y-1183081D01*
X16008197Y-1179118D01*
X16010585Y-1175867D01*
X16017951Y-1169162D01*
X16027146Y-1158392D01*
X16034918Y-1146505D01*
X16041065Y-1133703D01*
X16045535Y-1120241D01*
X16048228Y-1106322D01*
X16049142Y-1092200D01*
X16048228Y-1078077D01*
X16045535Y-1064158D01*
X16041065Y-1050696D01*
X16034918Y-1037894D01*
X16027146Y-1026007D01*
X16017951Y-1015237D01*
X16007486Y-1005687D01*
X15995853Y-997610D01*
X15983305Y-991057D01*
X15969996Y-986129D01*
X15956178Y-982980D01*
X15942056Y-981608D01*
X15927882Y-982065D01*
X15913862Y-984351D01*
X15900298Y-988364D01*
X15887344Y-994105D01*
X15875203Y-1001471D01*
X15864128Y-1010310D01*
X15854273Y-1020470D01*
X15845790Y-1031849D01*
X15838830Y-1044194D01*
X15833496Y-1057351D01*
X15829889Y-1071067D01*
X15828111Y-1085088D01*
X15828111Y-1099312D01*
X15829889Y-1113332D01*
X15833496Y-1127048D01*
X15838830Y-1140206D01*
X15845790Y-1152550D01*
X15854273Y-1163929D01*
X15864128Y-1174089D01*
X15865805Y-1175461D01*
X15868446Y-1178661D01*
X15869615Y-1182624D01*
X15869056Y-1186738D01*
X15866922Y-1190294D01*
X15863519Y-1192682D01*
X15859455Y-1193546D01*
X15844316Y-1193546D01*
X15840405Y-1192784D01*
X15837103Y-1190548D01*
X15580410Y-933856D01*
X15574213Y-928776D01*
X15567609Y-925271D01*
X15560395Y-923086D01*
X15552419Y-922274D01*
X15495168Y-922274D01*
X15490647Y-921207D01*
X15489072Y-920445D01*
X15484348Y-919073D01*
X15480690Y-917194D01*
X15478099Y-913993D01*
X15477032Y-909980D01*
X15477591Y-905916D01*
X15479725Y-902360D01*
X15483128Y-900023D01*
X15487142Y-899160D01*
X15610789Y-899160D01*
X15614700Y-899921D01*
X15618002Y-902157D01*
X15625622Y-909777D01*
X15627654Y-912621D01*
X15628569Y-916076D01*
X15629280Y-924153D01*
X15631769Y-933602D01*
X15635935Y-942441D01*
X15641523Y-950468D01*
X15648432Y-957376D01*
X15656458Y-962964D01*
X15665297Y-967130D01*
X15674746Y-969619D01*
X15684500Y-970483D01*
X15694253Y-969619D01*
X15703702Y-967130D01*
X15712541Y-962964D01*
X15720568Y-957376D01*
X15727476Y-950468D01*
X15733064Y-942441D01*
X15737230Y-933602D01*
X15739719Y-924153D01*
X15740583Y-914400D01*
X15739719Y-904646D01*
X15737230Y-895197D01*
X15733064Y-886358D01*
X15727476Y-878332D01*
X15720568Y-871423D01*
X15712541Y-865835D01*
X15703702Y-861669D01*
X15694253Y-859180D01*
X15686176Y-858469D01*
X15682722Y-857554D01*
X15679877Y-855522D01*
X15658388Y-834034D01*
X15652191Y-828954D01*
X15645587Y-825398D01*
X15638373Y-823214D01*
X15630398Y-822452D01*
X15606064Y-822452D01*
X15602102Y-821639D01*
X15598749Y-819353D01*
X15596565Y-815949D01*
X15595904Y-811936D01*
X15597530Y-806602D01*
X15600019Y-797153D01*
X15600883Y-787400D01*
X15600019Y-777646D01*
X15597530Y-768197D01*
X15593364Y-759358D01*
X15587776Y-751332D01*
X15580868Y-744423D01*
X15572841Y-738835D01*
X15564002Y-734669D01*
X15554553Y-732180D01*
X15544800Y-731316D01*
X15535046Y-732180D01*
X15525597Y-734669D01*
X15516758Y-738835D01*
X15508732Y-744423D01*
X15507106Y-746048D01*
X15503804Y-748284D01*
X15499892Y-749046D01*
X15304007Y-749046D01*
X15296032Y-749808D01*
X15288818Y-751992D01*
X15282214Y-755548D01*
X15276017Y-760628D01*
X15271800Y-764844D01*
X15268549Y-767029D01*
X15264638Y-767791D01*
X15260777Y-767029D01*
X15257475Y-764844D01*
X15255240Y-761542D01*
X15254478Y-757631D01*
X15254478Y-637032D01*
X15253716Y-629056D01*
X15251531Y-621893D01*
X15247975Y-615238D01*
X15242895Y-609041D01*
X15191282Y-557428D01*
X15185085Y-552348D01*
X15178481Y-548792D01*
X15171267Y-546608D01*
X15163292Y-545846D01*
X14878507Y-545846D01*
X14874595Y-545084D01*
X14871293Y-542848D01*
X14869668Y-541223D01*
X14861641Y-535635D01*
X14852802Y-531469D01*
X14843353Y-528980D01*
X14833600Y-528116D01*
X14823846Y-528980D01*
X14814397Y-531469D01*
X14805558Y-535635D01*
X14797532Y-541223D01*
X14790623Y-548132D01*
X14785035Y-556158D01*
X14780869Y-564997D01*
X14778380Y-574446D01*
X14777669Y-582523D01*
X14776754Y-585927D01*
X14774722Y-588822D01*
X14771827Y-590854D01*
X14768423Y-591769D01*
X14760346Y-592480D01*
X14750897Y-594969D01*
X14742058Y-599135D01*
X14734032Y-604723D01*
X14727123Y-611632D01*
X14721535Y-619658D01*
X14717369Y-628497D01*
X14714880Y-637946D01*
X14714169Y-646023D01*
X14713254Y-649427D01*
X14711222Y-652322D01*
X14708327Y-654354D01*
X14704923Y-655269D01*
X14696846Y-655980D01*
X14687397Y-658469D01*
X14678558Y-662635D01*
X14670532Y-668223D01*
X14663623Y-675132D01*
X14658035Y-683158D01*
X14653869Y-691997D01*
X14651380Y-701446D01*
X14650669Y-709523D01*
X14649754Y-712927D01*
X14647722Y-715822D01*
X14644827Y-717854D01*
X14641423Y-718769D01*
X14633346Y-719480D01*
X14623897Y-721969D01*
X14615058Y-726135D01*
X14607032Y-731723D01*
X14600123Y-738632D01*
X14593874Y-747623D01*
X14591385Y-750163D01*
X14588185Y-751636D01*
X14584680Y-751992D01*
X14581276Y-751078D01*
X14573402Y-747369D01*
X14563953Y-744880D01*
X14554200Y-744016D01*
X14544446Y-744880D01*
X14534997Y-747369D01*
X14526158Y-751535D01*
X14518132Y-757123D01*
X14511223Y-764032D01*
X14505635Y-772058D01*
X14501469Y-780897D01*
X14498980Y-790346D01*
X14498116Y-800100D01*
X14498980Y-809853D01*
X14501469Y-819302D01*
X14505635Y-828141D01*
X14511223Y-836168D01*
X14518132Y-843076D01*
X14526158Y-848664D01*
X14534997Y-852830D01*
X14544446Y-855319D01*
X14552523Y-856030D01*
X14555978Y-856945D01*
X14558822Y-858977D01*
X14587423Y-887577D01*
X14593620Y-892657D01*
X14600224Y-896213D01*
X14607438Y-898398D01*
X14615413Y-899160D01*
X14815057Y-899160D01*
X14819071Y-900023D01*
X14822474Y-902360D01*
X14824608Y-905916D01*
X14825167Y-909980D01*
X14824049Y-913993D01*
X14821458Y-917194D01*
X14817801Y-919073D01*
X14813127Y-920445D01*
X14809368Y-922019D01*
X14807031Y-922274D01*
X14711680Y-922274D01*
X14703704Y-923086D01*
X14696490Y-925271D01*
X14689886Y-928776D01*
X14683689Y-933856D01*
X14546122Y-1071422D01*
X14543278Y-1073454D01*
X14539823Y-1074369D01*
X14531746Y-1075080D01*
X14522297Y-1077569D01*
X14513458Y-1081735D01*
X14505432Y-1087323D01*
X14498523Y-1094232D01*
X14492935Y-1102258D01*
X14488769Y-1111097D01*
X14486280Y-1120546D01*
X14485416Y-1130300D01*
X14486229Y-1139494D01*
X14485772Y-1143406D01*
X14483892Y-1146911D01*
X14480794Y-1149400D01*
X14476984Y-1150518D01*
X14468246Y-1151280D01*
X14458797Y-1153769D01*
X14449958Y-1157935D01*
X14441932Y-1163523D01*
X14435023Y-1170432D01*
X14429435Y-1178458D01*
X14425269Y-1187297D01*
X14422780Y-1196746D01*
X14421916Y-1206500D01*
X14422780Y-1216253D01*
X14425269Y-1225702D01*
X14429435Y-1234541D01*
X14435023Y-1242568D01*
X14441932Y-1249476D01*
X14449958Y-1255064D01*
X14458797Y-1259230D01*
X14465198Y-1260906D01*
X14468856Y-1262786D01*
X14471497Y-1265936D01*
X14472716Y-1269847D01*
X14473580Y-1279753D01*
X14476069Y-1289202D01*
X14480235Y-1298041D01*
X14485823Y-1306068D01*
X14492732Y-1312976D01*
X14500758Y-1318564D01*
X14509597Y-1322730D01*
X14519046Y-1325219D01*
X14527123Y-1325930D01*
X14530527Y-1326845D01*
X14533422Y-1328877D01*
X14535454Y-1331772D01*
X14536369Y-1335176D01*
X14537080Y-1343253D01*
X14539569Y-1352702D01*
X14543735Y-1361541D01*
X14549323Y-1369568D01*
X14556232Y-1376476D01*
X14564258Y-1382064D01*
X14573097Y-1386230D01*
X14582546Y-1388719D01*
X14590623Y-1389430D01*
X14594027Y-1390345D01*
X14596922Y-1392377D01*
X14598954Y-1395272D01*
X14599869Y-1398676D01*
X14600580Y-1406753D01*
X14603069Y-1416202D01*
X14607235Y-1425041D01*
X14612823Y-1433068D01*
X14619732Y-1439976D01*
X14627758Y-1445564D01*
X14636597Y-1449730D01*
X14646046Y-1452219D01*
X14655800Y-1453083D01*
X14665553Y-1452219D01*
X14675866Y-1449476D01*
X14679726Y-1449171D01*
X14683435Y-1450390D01*
X14686432Y-1452880D01*
X14688210Y-1456283D01*
X14689480Y-1470253D01*
X14691969Y-1479702D01*
X14696135Y-1488541D01*
X14701723Y-1496568D01*
X14708632Y-1503476D01*
X14716658Y-1509064D01*
X14722856Y-1511960D01*
X14725751Y-1513992D01*
X14727783Y-1516888D01*
X14728698Y-1520291D01*
X14728393Y-1523796D01*
X14727580Y-1526946D01*
X14726716Y-1536700D01*
X14727580Y-1546453D01*
X14730069Y-1555902D01*
X14734235Y-1564741D01*
X14739823Y-1572768D01*
X14746732Y-1579676D01*
X14754758Y-1585264D01*
X14763597Y-1589430D01*
X14773046Y-1591919D01*
X14782800Y-1592783D01*
X14792553Y-1591919D01*
X14802002Y-1589430D01*
X14810841Y-1585264D01*
X14818868Y-1579676D01*
X14825776Y-1572768D01*
X14831364Y-1564741D01*
X14835530Y-1555902D01*
X14838019Y-1546453D01*
X14838730Y-1538376D01*
X14839645Y-1534922D01*
X14841677Y-1532077D01*
X14882977Y-1490776D01*
X14888057Y-1484579D01*
X14891613Y-1477975D01*
X14892985Y-1473352D01*
X14894966Y-1469745D01*
X14898166Y-1467205D01*
X14902129Y-1466138D01*
X14906193Y-1466748D01*
X14909698Y-1468932D01*
X14912035Y-1472285D01*
X14912898Y-1477619D01*
X14913660Y-1486001D01*
X14916099Y-1494586D01*
X14916454Y-1497787D01*
X14915794Y-1500936D01*
X14912492Y-1505813D01*
X14904923Y-1513332D01*
X14899335Y-1521358D01*
X14895169Y-1530197D01*
X14892680Y-1539646D01*
X14891816Y-1549400D01*
X14892680Y-1559153D01*
X14895169Y-1568602D01*
X14899335Y-1577441D01*
X14904923Y-1585468D01*
X14911832Y-1592376D01*
X14919858Y-1597964D01*
X14928697Y-1602130D01*
X14938146Y-1604619D01*
X14953437Y-1605889D01*
X14957044Y-1608023D01*
X14959482Y-1611426D01*
X14960346Y-1615490D01*
X14960346Y-1656283D01*
X14959584Y-1660194D01*
X14957348Y-1663496D01*
X14934996Y-1685848D01*
X14931694Y-1688084D01*
X14927783Y-1688846D01*
X14548916Y-1688846D01*
X14545005Y-1688084D01*
X14541703Y-1685848D01*
X14493951Y-1638096D01*
X14491716Y-1634794D01*
X14490954Y-1630883D01*
X14490954Y-1397508D01*
X14490192Y-1389532D01*
X14488007Y-1382318D01*
X14484451Y-1375714D01*
X14479371Y-1369517D01*
X14358162Y-1248308D01*
X14351965Y-1243228D01*
X14345361Y-1239672D01*
X14338147Y-1237488D01*
X14330172Y-1236726D01*
X14318335Y-1236726D01*
X14314424Y-1235964D01*
X14311122Y-1233728D01*
X14308937Y-1230477D01*
X14308175Y-1226566D01*
X14308175Y-1220571D01*
X14307464Y-1214323D01*
X14305534Y-1208887D01*
X14302486Y-1204061D01*
X14298472Y-1199997D01*
X14293596Y-1196949D01*
X14288211Y-1195070D01*
X14281912Y-1194358D01*
X14183055Y-1194358D01*
X14176806Y-1195070D01*
X14171371Y-1196949D01*
X14166545Y-1199997D01*
X14162481Y-1204061D01*
X14161109Y-1206246D01*
X14158264Y-1209192D01*
X14154556Y-1210818D01*
X14150441Y-1210818D01*
X14146733Y-1209192D01*
X14143888Y-1206246D01*
X14142516Y-1204061D01*
X14138452Y-1199997D01*
X14133626Y-1196949D01*
X14128191Y-1195070D01*
X14121028Y-1194358D01*
X14117116Y-1193596D01*
X14113814Y-1191361D01*
X14111630Y-1188059D01*
X14110868Y-1184198D01*
X14110868Y-1109776D01*
X14111681Y-1105712D01*
X14114119Y-1102309D01*
X14117675Y-1100175D01*
X14123568Y-1098143D01*
X14128394Y-1095095D01*
X14132458Y-1091031D01*
X14135506Y-1086154D01*
X14137386Y-1080770D01*
X14138097Y-1074470D01*
X14138097Y-965657D01*
X14137386Y-959358D01*
X14135506Y-953973D01*
X14132458Y-949096D01*
X14128394Y-945032D01*
X14123568Y-941984D01*
X14118132Y-940104D01*
X14111884Y-939393D01*
X14013027Y-939393D01*
X14006779Y-940104D01*
X14001343Y-941984D01*
X13996517Y-945032D01*
X13992453Y-949096D01*
X13989405Y-953973D01*
X13987526Y-959358D01*
X13986814Y-965657D01*
X13986814Y-1074470D01*
X13987526Y-1080770D01*
X13988237Y-1082852D01*
X13988796Y-1086612D01*
X13991336Y-1089304D01*
X13992453Y-1091031D01*
X13996517Y-1095095D01*
X14001343Y-1098143D01*
X14006779Y-1100023D01*
X14013027Y-1100734D01*
X14024000Y-1100734D01*
X14027861Y-1101496D01*
X14031163Y-1103680D01*
X14033347Y-1106982D01*
X14034160Y-1110894D01*
X14034160Y-1184198D01*
X14033347Y-1188059D01*
X14031163Y-1191361D01*
X14027861Y-1193596D01*
X14016837Y-1195070D01*
X14011401Y-1196949D01*
X14006576Y-1199997D01*
X14002512Y-1204061D01*
X13999463Y-1208887D01*
X13997533Y-1214323D01*
X13996873Y-1220571D01*
X13996873Y-1329436D01*
X13997533Y-1335684D01*
X13999463Y-1341120D01*
X14002512Y-1345946D01*
X14006576Y-1350010D01*
X14011401Y-1353058D01*
X14016837Y-1354937D01*
X14023086Y-1355648D01*
X14094713Y-1355648D01*
X14098574Y-1356410D01*
X14101876Y-1358646D01*
X14111173Y-1367891D01*
X14113357Y-1371193D01*
X14114170Y-1375105D01*
X14114170Y-1439164D01*
X14113357Y-1443075D01*
X14111173Y-1446377D01*
X14107871Y-1448562D01*
X14104010Y-1449324D01*
X14023086Y-1449324D01*
X14016786Y-1450035D01*
X14011401Y-1451965D01*
X14006525Y-1455013D01*
X14002512Y-1459026D01*
X13999463Y-1463903D01*
X13997533Y-1469288D01*
X13996873Y-1475587D01*
X13996873Y-1481582D01*
X13996060Y-1485493D01*
X13993876Y-1488744D01*
X13990574Y-1490980D01*
X13986713Y-1491742D01*
X13158012Y-1491742D01*
X13154101Y-1490980D01*
X13150799Y-1488744D01*
X13046151Y-1384096D01*
X13043915Y-1380794D01*
X13043154Y-1376883D01*
X13043154Y-412902D01*
X13043966Y-408990D01*
X13046202Y-405638D01*
X13049554Y-403453D01*
X13059257Y-399643D01*
X13071957Y-392633D01*
X13083743Y-384098D01*
X13094309Y-374142D01*
X13103555Y-362966D01*
X13111327Y-350723D01*
X13117525Y-337566D01*
X13121995Y-323748D01*
X13124738Y-309524D01*
X13125653Y-294995D01*
X13124738Y-280517D01*
X13121995Y-266242D01*
X13117525Y-252425D01*
X13111327Y-239318D01*
X13103555Y-227025D01*
X13094309Y-215849D01*
X13083743Y-205892D01*
X13071957Y-197358D01*
X13059257Y-190398D01*
X13045744Y-185013D01*
X13031673Y-181406D01*
X13017296Y-179578D01*
X13002768Y-179578D01*
X12988340Y-181406D01*
X12974269Y-185013D01*
X12960756Y-190398D01*
X12948056Y-197358D01*
X12936321Y-205892D01*
X12925704Y-215849D01*
X12916458Y-227025D01*
X12908686Y-239318D01*
X12902488Y-252425D01*
X12898018Y-266242D01*
X12895275Y-280517D01*
X12894360Y-294995D01*
X12895275Y-309524D01*
X12898018Y-323748D01*
X12902488Y-337566D01*
X12908686Y-350723D01*
X12916458Y-362966D01*
X12925704Y-374142D01*
X12936321Y-384098D01*
X12948056Y-392633D01*
X12961162Y-399846D01*
X12963956Y-402132D01*
X12965785Y-405231D01*
X12966446Y-408736D01*
X12966446Y-1396492D01*
X12967208Y-1404467D01*
X12969392Y-1411681D01*
X12972948Y-1418285D01*
X12978028Y-1424482D01*
X13110413Y-1556867D01*
X13116610Y-1561947D01*
X13123214Y-1565503D01*
X13130428Y-1567688D01*
X13138404Y-1568450D01*
X13961059Y-1568450D01*
X13964970Y-1569212D01*
X13968272Y-1571447D01*
X13970457Y-1574698D01*
X13971219Y-1578610D01*
X13970457Y-1582521D01*
X13968272Y-1585772D01*
X13923822Y-1630222D01*
X13920978Y-1632254D01*
X13917523Y-1633169D01*
X13909446Y-1633880D01*
X13899997Y-1636369D01*
X13891158Y-1640535D01*
X13883132Y-1646123D01*
X13876223Y-1653032D01*
X13870635Y-1661058D01*
X13866469Y-1669897D01*
X13863980Y-1679346D01*
X13863116Y-1689100D01*
X13863980Y-1698853D01*
X13866469Y-1708302D01*
X13870635Y-1717141D01*
X13876223Y-1725168D01*
X13880490Y-1729435D01*
X13882674Y-1732686D01*
X13883436Y-1736598D01*
X13882674Y-1740509D01*
X13880490Y-1743760D01*
X13877188Y-1745996D01*
X13873276Y-1746757D01*
X13705128Y-1746757D01*
X13701217Y-1745996D01*
X13697915Y-1743760D01*
X13672362Y-1718208D01*
X13666165Y-1713128D01*
X13659561Y-1709572D01*
X13652347Y-1707388D01*
X13644372Y-1706625D01*
X13625931Y-1706625D01*
X13622223Y-1705914D01*
X13618972Y-1703882D01*
X13616736Y-1700784D01*
X13611351Y-1689303D01*
X13603579Y-1677009D01*
X13594283Y-1665833D01*
X13583716Y-1655876D01*
X13571982Y-1647342D01*
X13559231Y-1640382D01*
X13545769Y-1634998D01*
X13531697Y-1631391D01*
X13517270Y-1629562D01*
X13502741Y-1629562D01*
X13488365Y-1631391D01*
X13474293Y-1634998D01*
X13460780Y-1640382D01*
X13448030Y-1647342D01*
X13436295Y-1655876D01*
X13425728Y-1665833D01*
X13416483Y-1677009D01*
X13408660Y-1689303D01*
X13402513Y-1702409D01*
X13397992Y-1716227D01*
X13395299Y-1730502D01*
X13394385Y-1744980D01*
X13395299Y-1759508D01*
X13397992Y-1773732D01*
X13402513Y-1787550D01*
X13408660Y-1800707D01*
X13416483Y-1812950D01*
X13424001Y-1822043D01*
X13425830Y-1825396D01*
X13426287Y-1829155D01*
X13425373Y-1832864D01*
X13423138Y-1835962D01*
X13419886Y-1837994D01*
X13416178Y-1838706D01*
X13353846Y-1838706D01*
X13350087Y-1837994D01*
X13346887Y-1835962D01*
X13344651Y-1832864D01*
X13343686Y-1829155D01*
X13344194Y-1825396D01*
X13346023Y-1822043D01*
X13353542Y-1812950D01*
X13361314Y-1800707D01*
X13363397Y-1796338D01*
X13311327Y-1796338D01*
X13311327Y-1828546D01*
X13310565Y-1832406D01*
X13308380Y-1835708D01*
X13305078Y-1837943D01*
X13301167Y-1838706D01*
X13218820Y-1838706D01*
X13214908Y-1837943D01*
X13211606Y-1835708D01*
X13209422Y-1832406D01*
X13208660Y-1828546D01*
X13208660Y-1796338D01*
X13156641Y-1796338D01*
X13158673Y-1800707D01*
X13166445Y-1812950D01*
X13173963Y-1822043D01*
X13175792Y-1825396D01*
X13176300Y-1829155D01*
X13175335Y-1832864D01*
X13173100Y-1835962D01*
X13169900Y-1837994D01*
X13166140Y-1838706D01*
X13103860Y-1838706D01*
X13100100Y-1837994D01*
X13096900Y-1835962D01*
X13094665Y-1832864D01*
X13093700Y-1829155D01*
X13094208Y-1825396D01*
X13096036Y-1822043D01*
X13103555Y-1812950D01*
X13111327Y-1800707D01*
X13117525Y-1787550D01*
X13121995Y-1773732D01*
X13124738Y-1759508D01*
X13125653Y-1744980D01*
X13124738Y-1730502D01*
X13121995Y-1716227D01*
X13117525Y-1702409D01*
X13111327Y-1689303D01*
X13103555Y-1677009D01*
X13094309Y-1665833D01*
X13083743Y-1655876D01*
X13071957Y-1647342D01*
X13059257Y-1640382D01*
X13045744Y-1634998D01*
X13031673Y-1631391D01*
X13017296Y-1629562D01*
X13002768Y-1629562D01*
X12988340Y-1631391D01*
X12974269Y-1634998D01*
X12960756Y-1640382D01*
X12948056Y-1647342D01*
X12936321Y-1655876D01*
X12925704Y-1665833D01*
X12916458Y-1677009D01*
X12908686Y-1689303D01*
X12903250Y-1700784D01*
X12901015Y-1703882D01*
X12897815Y-1705914D01*
X12894056Y-1706625D01*
X12885928Y-1706625D01*
X12877952Y-1707388D01*
X12870738Y-1709572D01*
X12864134Y-1713128D01*
X12857937Y-1718208D01*
X12832384Y-1743760D01*
X12829082Y-1745996D01*
X12825171Y-1746757D01*
X12533325Y-1746757D01*
X12529413Y-1745996D01*
X12526111Y-1743760D01*
X12523927Y-1740509D01*
X12523165Y-1736598D01*
X12523165Y-1730552D01*
X12522454Y-1724304D01*
X12520574Y-1718919D01*
X12517526Y-1714042D01*
X12513462Y-1709978D01*
X12508585Y-1706930D01*
X12503200Y-1705051D01*
X12495987Y-1704339D01*
X12492126Y-1703578D01*
X12488824Y-1701342D01*
X12486640Y-1698091D01*
X12485827Y-1694180D01*
X12485827Y-1620926D01*
X12486640Y-1617014D01*
X12488824Y-1613712D01*
X12492126Y-1611528D01*
X12495987Y-1610766D01*
X12507010Y-1610766D01*
X12513310Y-1610055D01*
X12518694Y-1608175D01*
X12523571Y-1605127D01*
X12527635Y-1601063D01*
X12530683Y-1596186D01*
X12532563Y-1590802D01*
X12533274Y-1584502D01*
X12533274Y-1475689D01*
X12532563Y-1469390D01*
X12530683Y-1464005D01*
X12527635Y-1459128D01*
X12523571Y-1455064D01*
X12518694Y-1452016D01*
X12513310Y-1450136D01*
X12505994Y-1449425D01*
X12502134Y-1448663D01*
X12498832Y-1446479D01*
X12496647Y-1443177D01*
X12495834Y-1439265D01*
X12495834Y-1364742D01*
X12496698Y-1360678D01*
X12499086Y-1357274D01*
X12502642Y-1355140D01*
X12508585Y-1353058D01*
X12513462Y-1350010D01*
X12517475Y-1345946D01*
X12520523Y-1341120D01*
X12522454Y-1335684D01*
X12523165Y-1329436D01*
X12523165Y-1220571D01*
X12522454Y-1214323D01*
X12520523Y-1208887D01*
X12517475Y-1204061D01*
X12513462Y-1199997D01*
X12508585Y-1196949D01*
X12503200Y-1195070D01*
X12496901Y-1194358D01*
X12398044Y-1194358D01*
X12391796Y-1195070D01*
X12386411Y-1196949D01*
X12381534Y-1199997D01*
X12377470Y-1204061D01*
X12376099Y-1206246D01*
X12373305Y-1209192D01*
X12369546Y-1210818D01*
X12365482Y-1210818D01*
X12361722Y-1209192D01*
X12358878Y-1206246D01*
X12357506Y-1204061D01*
X12353442Y-1199997D01*
X12348616Y-1196949D01*
X12343180Y-1195070D01*
X12336932Y-1194358D01*
X12238075Y-1194358D01*
X12231827Y-1195070D01*
X12226391Y-1196949D01*
X12221565Y-1199997D01*
X12217501Y-1204061D01*
X12214453Y-1208887D01*
X12212574Y-1214323D01*
X12211862Y-1220571D01*
X12211862Y-1226515D01*
X12211050Y-1230376D01*
X12208865Y-1233678D01*
X12205563Y-1235862D01*
X12201702Y-1236675D01*
X12162078Y-1236675D01*
X12154103Y-1237437D01*
X12146940Y-1239621D01*
X12140336Y-1243177D01*
X12134138Y-1248257D01*
X12089028Y-1293317D01*
X12083948Y-1299514D01*
X12080392Y-1306169D01*
X12078208Y-1313332D01*
X12077446Y-1321308D01*
X12077446Y-1606092D01*
X12076684Y-1610004D01*
X12074448Y-1613306D01*
X12072823Y-1614932D01*
X12067235Y-1622958D01*
X12063069Y-1631797D01*
X12060580Y-1641246D01*
X12059716Y-1651000D01*
X12060580Y-1660753D01*
X12063069Y-1670202D01*
X12067235Y-1679041D01*
X12072823Y-1687068D01*
X12079732Y-1693976D01*
X12087758Y-1699564D01*
X12096597Y-1703730D01*
X12106046Y-1706219D01*
X12115800Y-1707083D01*
X12125553Y-1706219D01*
X12135002Y-1703730D01*
X12143841Y-1699564D01*
X12151868Y-1693976D01*
X12158776Y-1687068D01*
X12164364Y-1679041D01*
X12168530Y-1670202D01*
X12171019Y-1660753D01*
X12171883Y-1651000D01*
X12171019Y-1641246D01*
X12168530Y-1631797D01*
X12164364Y-1622958D01*
X12158776Y-1614932D01*
X12157151Y-1613306D01*
X12154916Y-1610004D01*
X12154154Y-1606092D01*
X12154154Y-1340916D01*
X12154916Y-1337005D01*
X12157151Y-1333703D01*
X12174524Y-1316329D01*
X12177826Y-1314145D01*
X12181687Y-1313383D01*
X12201702Y-1313383D01*
X12205563Y-1314145D01*
X12208865Y-1316329D01*
X12211050Y-1319631D01*
X12211862Y-1323543D01*
X12211862Y-1329436D01*
X12212574Y-1335684D01*
X12214453Y-1341120D01*
X12217501Y-1345946D01*
X12221565Y-1350010D01*
X12226391Y-1353058D01*
X12231827Y-1354937D01*
X12238075Y-1355648D01*
X12336932Y-1355648D01*
X12343180Y-1354937D01*
X12348616Y-1353058D01*
X12353442Y-1350010D01*
X12357506Y-1345946D01*
X12358878Y-1343761D01*
X12361722Y-1340815D01*
X12365482Y-1339189D01*
X12369546Y-1339189D01*
X12373305Y-1340815D01*
X12376099Y-1343761D01*
X12377470Y-1345946D01*
X12381534Y-1350010D01*
X12386411Y-1353058D01*
X12391796Y-1354937D01*
X12398044Y-1355648D01*
X12408966Y-1355648D01*
X12412878Y-1356410D01*
X12416180Y-1358646D01*
X12418364Y-1361948D01*
X12419126Y-1365808D01*
X12419126Y-1439265D01*
X12418466Y-1442923D01*
X12416485Y-1446123D01*
X12413538Y-1448358D01*
X12409982Y-1449374D01*
X12401854Y-1450187D01*
X12396520Y-1452016D01*
X12391644Y-1455064D01*
X12387580Y-1459128D01*
X12384532Y-1464005D01*
X12382652Y-1469390D01*
X12381941Y-1475689D01*
X12381941Y-1584502D01*
X12382652Y-1590802D01*
X12384532Y-1596186D01*
X12387580Y-1601063D01*
X12391644Y-1605127D01*
X12396520Y-1608175D01*
X12402312Y-1610207D01*
X12405868Y-1612341D01*
X12408306Y-1615744D01*
X12409119Y-1619758D01*
X12409119Y-1694180D01*
X12408357Y-1698091D01*
X12406172Y-1701342D01*
X12402870Y-1703578D01*
X12391796Y-1705051D01*
X12386411Y-1706930D01*
X12381534Y-1709978D01*
X12377470Y-1714042D01*
X12376099Y-1716227D01*
X12373305Y-1719173D01*
X12369546Y-1720799D01*
X12365482Y-1720799D01*
X12361722Y-1719173D01*
X12358878Y-1716227D01*
X12357506Y-1714042D01*
X12353442Y-1709978D01*
X12348616Y-1706930D01*
X12343180Y-1705051D01*
X12336932Y-1704339D01*
X12238075Y-1704339D01*
X12231827Y-1705051D01*
X12226391Y-1706930D01*
X12221565Y-1709978D01*
X12217501Y-1714042D01*
X12214453Y-1718919D01*
X12212574Y-1724304D01*
X12211862Y-1730552D01*
X12211862Y-1733956D01*
X12211100Y-1737817D01*
X12208865Y-1741119D01*
X12205563Y-1743303D01*
X12201702Y-1744116D01*
X11768328Y-1744116D01*
X11764416Y-1743303D01*
X11761114Y-1741119D01*
X11758930Y-1737817D01*
X11758168Y-1733956D01*
X11758168Y-1730552D01*
X11757456Y-1724304D01*
X11755526Y-1718919D01*
X11752478Y-1714042D01*
X11748465Y-1709978D01*
X11743588Y-1706930D01*
X11738203Y-1705051D01*
X11732412Y-1704390D01*
X11728907Y-1703324D01*
X11726011Y-1701088D01*
X11724081Y-1697939D01*
X11723420Y-1694281D01*
X11723420Y-1620672D01*
X11724081Y-1617065D01*
X11726011Y-1613916D01*
X11728907Y-1611680D01*
X11732412Y-1610614D01*
X11738203Y-1609953D01*
X11743588Y-1608074D01*
X11748465Y-1605026D01*
X11752478Y-1600962D01*
X11755526Y-1596085D01*
X11757456Y-1590700D01*
X11758168Y-1584452D01*
X11758168Y-1475587D01*
X11757456Y-1469288D01*
X11755526Y-1463903D01*
X11752478Y-1459026D01*
X11748465Y-1455013D01*
X11743588Y-1451965D01*
X11738203Y-1450035D01*
X11731904Y-1449324D01*
X11651030Y-1449324D01*
X11647119Y-1448562D01*
X11643817Y-1446377D01*
X11641632Y-1443075D01*
X11640870Y-1439164D01*
X11640870Y-1365808D01*
X11641632Y-1361948D01*
X11643817Y-1358646D01*
X11647119Y-1356410D01*
X11651030Y-1355648D01*
X11731904Y-1355648D01*
X11738203Y-1354937D01*
X11743588Y-1353058D01*
X11748465Y-1350010D01*
X11752529Y-1345946D01*
X11755577Y-1341120D01*
X11757456Y-1335684D01*
X11758168Y-1329436D01*
X11758168Y-1323543D01*
X11758930Y-1319631D01*
X11761114Y-1316329D01*
X11764416Y-1314145D01*
X11768328Y-1313383D01*
X11783212Y-1313383D01*
X11787073Y-1314145D01*
X11790375Y-1316329D01*
X11845848Y-1371803D01*
X11848084Y-1375105D01*
X11848846Y-1379016D01*
X11848846Y-1491792D01*
X11848084Y-1495704D01*
X11845848Y-1499006D01*
X11844223Y-1500632D01*
X11838635Y-1508658D01*
X11834469Y-1517497D01*
X11831980Y-1526946D01*
X11831116Y-1536700D01*
X11831980Y-1546453D01*
X11834469Y-1555902D01*
X11838635Y-1564741D01*
X11844223Y-1572768D01*
X11851132Y-1579676D01*
X11859158Y-1585264D01*
X11867997Y-1589430D01*
X11877446Y-1591919D01*
X11887200Y-1592783D01*
X11896953Y-1591919D01*
X11906402Y-1589430D01*
X11915241Y-1585264D01*
X11923268Y-1579676D01*
X11930176Y-1572768D01*
X11935764Y-1564741D01*
X11939930Y-1555902D01*
X11942419Y-1546453D01*
X11943283Y-1536700D01*
X11942419Y-1526946D01*
X11939930Y-1517497D01*
X11935764Y-1508658D01*
X11930176Y-1500632D01*
X11928551Y-1499006D01*
X11926316Y-1495704D01*
X11925554Y-1491792D01*
X11925554Y-1359408D01*
X11924792Y-1351432D01*
X11922607Y-1344218D01*
X11919051Y-1337614D01*
X11913971Y-1331417D01*
X11830761Y-1248257D01*
X11824563Y-1243177D01*
X11817959Y-1239621D01*
X11810796Y-1237437D01*
X11802821Y-1236675D01*
X11768328Y-1236675D01*
X11764416Y-1235862D01*
X11761114Y-1233678D01*
X11758930Y-1230376D01*
X11758168Y-1226515D01*
X11758168Y-1220571D01*
X11757456Y-1214323D01*
X11755577Y-1208887D01*
X11752529Y-1204061D01*
X11748465Y-1199997D01*
X11743588Y-1196949D01*
X11738203Y-1195070D01*
X11731904Y-1194358D01*
X11633047Y-1194358D01*
X11626799Y-1195070D01*
X11621414Y-1196949D01*
X11616537Y-1199997D01*
X11612473Y-1204061D01*
X11611102Y-1206246D01*
X11608308Y-1209192D01*
X11604548Y-1210818D01*
X11600484Y-1210818D01*
X11596725Y-1209192D01*
X11593880Y-1206246D01*
X11592509Y-1204061D01*
X11588445Y-1199997D01*
X11583619Y-1196949D01*
X11578183Y-1195070D01*
X11571020Y-1194358D01*
X11567109Y-1193596D01*
X11563807Y-1191361D01*
X11561622Y-1188059D01*
X11560860Y-1184198D01*
X11560860Y-1109827D01*
X11561724Y-1105763D01*
X11564112Y-1102360D01*
X11567668Y-1100226D01*
X11573662Y-1098143D01*
X11578488Y-1095095D01*
X11582552Y-1091031D01*
X11585600Y-1086154D01*
X11587480Y-1080770D01*
X11588191Y-1074470D01*
X11588191Y-965657D01*
X11587480Y-959358D01*
X11585600Y-953973D01*
X11582552Y-949096D01*
X11578488Y-945032D01*
X11573662Y-941984D01*
X11568226Y-940104D01*
X11561978Y-939393D01*
X11463121Y-939393D01*
X11456873Y-940104D01*
X11451437Y-941984D01*
X11446611Y-945032D01*
X11442547Y-949096D01*
X11439499Y-953973D01*
X11437620Y-959358D01*
X11436908Y-965657D01*
X11436908Y-1074470D01*
X11437620Y-1080770D01*
X11438331Y-1082852D01*
X11438890Y-1086561D01*
X11441379Y-1089152D01*
X11442547Y-1091031D01*
X11446611Y-1095095D01*
X11451437Y-1098143D01*
X11456873Y-1100023D01*
X11463121Y-1100734D01*
X11473992Y-1100734D01*
X11477853Y-1101496D01*
X11481155Y-1103680D01*
X11483390Y-1106982D01*
X11484152Y-1110894D01*
X11484152Y-1184198D01*
X11483390Y-1188059D01*
X11481155Y-1191361D01*
X11477853Y-1193596D01*
X11466830Y-1195070D01*
X11461394Y-1196949D01*
X11456568Y-1199997D01*
X11452504Y-1204061D01*
X11449456Y-1208887D01*
X11447576Y-1214323D01*
X11446865Y-1220571D01*
X11446865Y-1329436D01*
X11447576Y-1335684D01*
X11449456Y-1341120D01*
X11452504Y-1345946D01*
X11456568Y-1350010D01*
X11461394Y-1353058D01*
X11466830Y-1354937D01*
X11473078Y-1355648D01*
X11544706Y-1355648D01*
X11548567Y-1356410D01*
X11551869Y-1358646D01*
X11561165Y-1367891D01*
X11563350Y-1371193D01*
X11564162Y-1375105D01*
X11564162Y-1439164D01*
X11563350Y-1443075D01*
X11561165Y-1446377D01*
X11557863Y-1448562D01*
X11554002Y-1449324D01*
X11473078Y-1449324D01*
X11466830Y-1450035D01*
X11461394Y-1451965D01*
X11456568Y-1455013D01*
X11452504Y-1459026D01*
X11449456Y-1463903D01*
X11447576Y-1469288D01*
X11446814Y-1476552D01*
X11445748Y-1480108D01*
X11443462Y-1483055D01*
X11440312Y-1484985D01*
X11436705Y-1485646D01*
X10599216Y-1485646D01*
X10595305Y-1484884D01*
X10592003Y-1482648D01*
X10501325Y-1391970D01*
X10499090Y-1388668D01*
X10498328Y-1384757D01*
X10498328Y-410870D01*
X10499140Y-406908D01*
X10501376Y-403606D01*
X10504728Y-401421D01*
X10509250Y-399643D01*
X10521950Y-392633D01*
X10533735Y-384098D01*
X10544302Y-374142D01*
X10553547Y-362966D01*
X10561320Y-350723D01*
X10567517Y-337566D01*
X10571988Y-323748D01*
X10574731Y-309524D01*
X10575645Y-294995D01*
X10574731Y-280517D01*
X10571988Y-266242D01*
X10567517Y-252425D01*
X10561320Y-239318D01*
X10553547Y-227025D01*
X10544302Y-215849D01*
X10533735Y-205892D01*
X10521950Y-197358D01*
X10509250Y-190398D01*
X10495737Y-185013D01*
X10481665Y-181406D01*
X10467289Y-179578D01*
X10452760Y-179578D01*
X10438333Y-181406D01*
X10424261Y-185013D01*
X10410799Y-190398D01*
X10398048Y-197358D01*
X10386314Y-205892D01*
X10375696Y-215849D01*
X10366451Y-227025D01*
X10358678Y-239318D01*
X10352481Y-252425D01*
X10348010Y-266242D01*
X10345267Y-280517D01*
X10344353Y-294995D01*
X10345267Y-309524D01*
X10348010Y-323748D01*
X10352481Y-337566D01*
X10358678Y-350723D01*
X10366451Y-362966D01*
X10375696Y-374142D01*
X10386314Y-384098D01*
X10398048Y-392633D01*
X10410799Y-399643D01*
X10415219Y-401370D01*
X10418572Y-403555D01*
X10420807Y-406908D01*
X10421620Y-410819D01*
X10421620Y-1404366D01*
X10422382Y-1412341D01*
X10424566Y-1419555D01*
X10428122Y-1426159D01*
X10433202Y-1432356D01*
X10551617Y-1550771D01*
X10557814Y-1555851D01*
X10564418Y-1559407D01*
X10571632Y-1561592D01*
X10579608Y-1562354D01*
X11401755Y-1562354D01*
X11405666Y-1563116D01*
X11408968Y-1565351D01*
X11411153Y-1568602D01*
X11411915Y-1572514D01*
X11411153Y-1576425D01*
X11408968Y-1579676D01*
X11396522Y-1592122D01*
X11393678Y-1594154D01*
X11390223Y-1595069D01*
X11382146Y-1595780D01*
X11372697Y-1598269D01*
X11363858Y-1602435D01*
X11355832Y-1608023D01*
X11348923Y-1614932D01*
X11343335Y-1622958D01*
X11339169Y-1631797D01*
X11336680Y-1641246D01*
X11335816Y-1651000D01*
X11336680Y-1660753D01*
X11339169Y-1670202D01*
X11343335Y-1679041D01*
X11348923Y-1687068D01*
X11355832Y-1693976D01*
X11363858Y-1699564D01*
X11372697Y-1703730D01*
X11382146Y-1706219D01*
X11391900Y-1707083D01*
X11401653Y-1706219D01*
X11411102Y-1703730D01*
X11419941Y-1699564D01*
X11427968Y-1693976D01*
X11434876Y-1687068D01*
X11440464Y-1679041D01*
X11444630Y-1670202D01*
X11447119Y-1660753D01*
X11447830Y-1652676D01*
X11448745Y-1649222D01*
X11450777Y-1646377D01*
X11483492Y-1613611D01*
X11486794Y-1611426D01*
X11490706Y-1610664D01*
X11554002Y-1610664D01*
X11557863Y-1611426D01*
X11561165Y-1613611D01*
X11563350Y-1616913D01*
X11564162Y-1620824D01*
X11564162Y-1684934D01*
X11563350Y-1688795D01*
X11561165Y-1692097D01*
X11551869Y-1701393D01*
X11548618Y-1703578D01*
X11544706Y-1704339D01*
X11473078Y-1704339D01*
X11466830Y-1705051D01*
X11461394Y-1706930D01*
X11456568Y-1709978D01*
X11452504Y-1714042D01*
X11449456Y-1718919D01*
X11447576Y-1724304D01*
X11446865Y-1730552D01*
X11446865Y-1736598D01*
X11446052Y-1740509D01*
X11443868Y-1743760D01*
X11440566Y-1745996D01*
X11436705Y-1746757D01*
X11152428Y-1746757D01*
X11148517Y-1745996D01*
X11145215Y-1743760D01*
X11119662Y-1718208D01*
X11113465Y-1713128D01*
X11106861Y-1709572D01*
X11099647Y-1707388D01*
X11091672Y-1706625D01*
X11075924Y-1706625D01*
X11072215Y-1705914D01*
X11069015Y-1703882D01*
X11066780Y-1700784D01*
X11061344Y-1689303D01*
X11053572Y-1677009D01*
X11044326Y-1665833D01*
X11033709Y-1655876D01*
X11021974Y-1647342D01*
X11009223Y-1640382D01*
X10995761Y-1634998D01*
X10981690Y-1631391D01*
X10967262Y-1629562D01*
X10952734Y-1629562D01*
X10938357Y-1631391D01*
X10924286Y-1634998D01*
X10910773Y-1640382D01*
X10898073Y-1647342D01*
X10886287Y-1655876D01*
X10875721Y-1665833D01*
X10866475Y-1677009D01*
X10858703Y-1689303D01*
X10852505Y-1702409D01*
X10848035Y-1716227D01*
X10845292Y-1730502D01*
X10844377Y-1744980D01*
X10845292Y-1759508D01*
X10848035Y-1773732D01*
X10852505Y-1787550D01*
X10858703Y-1800707D01*
X10866475Y-1812950D01*
X10873994Y-1822043D01*
X10875822Y-1825396D01*
X10876280Y-1829155D01*
X10875365Y-1832864D01*
X10873130Y-1835962D01*
X10869879Y-1837994D01*
X10866170Y-1838706D01*
X10803839Y-1838706D01*
X10800130Y-1837994D01*
X10796879Y-1835962D01*
X10794644Y-1832864D01*
X10793730Y-1829155D01*
X10794187Y-1825396D01*
X10796016Y-1822043D01*
X10803534Y-1812950D01*
X10811306Y-1800707D01*
X10813389Y-1796338D01*
X10761370Y-1796338D01*
X10761370Y-1828546D01*
X10760557Y-1832406D01*
X10758373Y-1835708D01*
X10755071Y-1837943D01*
X10751210Y-1838706D01*
X10668812Y-1838706D01*
X10664901Y-1837943D01*
X10661650Y-1835708D01*
X10659414Y-1832406D01*
X10658652Y-1828546D01*
X10658652Y-1796338D01*
X10606633Y-1796338D01*
X10608665Y-1800707D01*
X10616438Y-1812950D01*
X10623956Y-1822043D01*
X10625836Y-1825396D01*
X10626293Y-1829155D01*
X10625328Y-1832864D01*
X10623092Y-1835962D01*
X10619892Y-1837994D01*
X10616133Y-1838706D01*
X10553852Y-1838706D01*
X10550144Y-1837994D01*
X10546892Y-1835962D01*
X10544657Y-1832864D01*
X10543743Y-1829155D01*
X10544200Y-1825396D01*
X10546029Y-1822043D01*
X10553547Y-1812950D01*
X10561320Y-1800707D01*
X10567517Y-1787550D01*
X10571988Y-1773732D01*
X10574731Y-1759508D01*
X10575645Y-1744980D01*
X10574731Y-1730502D01*
X10571988Y-1716227D01*
X10567517Y-1702409D01*
X10561320Y-1689303D01*
X10553547Y-1677009D01*
X10544302Y-1665833D01*
X10533735Y-1655876D01*
X10521950Y-1647342D01*
X10509250Y-1640382D01*
X10495737Y-1634998D01*
X10481665Y-1631391D01*
X10467289Y-1629562D01*
X10452760Y-1629562D01*
X10438333Y-1631391D01*
X10424261Y-1634998D01*
X10410799Y-1640382D01*
X10398048Y-1647342D01*
X10386314Y-1655876D01*
X10375696Y-1665833D01*
X10366451Y-1677009D01*
X10358678Y-1689303D01*
X10353243Y-1700784D01*
X10351008Y-1703882D01*
X10347807Y-1705914D01*
X10344099Y-1706625D01*
X10333228Y-1706625D01*
X10325252Y-1707388D01*
X10318038Y-1709572D01*
X10311434Y-1713128D01*
X10305237Y-1718208D01*
X10279684Y-1743760D01*
X10276382Y-1745996D01*
X10272471Y-1746757D01*
X9983317Y-1746757D01*
X9979406Y-1745996D01*
X9976104Y-1743760D01*
X9973919Y-1740509D01*
X9973157Y-1736598D01*
X9973157Y-1730552D01*
X9972446Y-1724304D01*
X9970566Y-1718919D01*
X9967518Y-1714042D01*
X9963454Y-1709978D01*
X9958578Y-1706930D01*
X9952685Y-1704848D01*
X9949129Y-1702714D01*
X9946690Y-1699361D01*
X9945878Y-1695297D01*
X9945878Y-1620926D01*
X9946538Y-1617268D01*
X9948519Y-1614068D01*
X9951466Y-1611833D01*
X9955072Y-1610817D01*
X9963200Y-1610004D01*
X9968534Y-1608175D01*
X9973411Y-1605127D01*
X9977475Y-1601063D01*
X9980523Y-1596186D01*
X9982403Y-1590802D01*
X9983114Y-1584502D01*
X9983114Y-1475689D01*
X9982403Y-1469390D01*
X9980523Y-1464005D01*
X9977475Y-1459128D01*
X9973411Y-1455064D01*
X9968534Y-1452016D01*
X9963200Y-1450187D01*
X9955072Y-1449374D01*
X9951466Y-1448358D01*
X9948519Y-1446123D01*
X9946538Y-1442923D01*
X9945878Y-1439265D01*
X9945878Y-1364742D01*
X9946690Y-1360678D01*
X9949129Y-1357274D01*
X9952685Y-1355140D01*
X9958578Y-1353058D01*
X9963454Y-1350010D01*
X9967518Y-1345946D01*
X9970566Y-1341120D01*
X9972446Y-1335684D01*
X9973157Y-1329436D01*
X9973157Y-1220571D01*
X9972446Y-1214323D01*
X9970566Y-1208887D01*
X9967518Y-1204061D01*
X9963454Y-1199997D01*
X9958578Y-1196949D01*
X9953193Y-1195070D01*
X9946944Y-1194358D01*
X9848088Y-1194358D01*
X9841788Y-1195070D01*
X9836404Y-1196949D01*
X9831527Y-1199997D01*
X9827463Y-1204061D01*
X9826091Y-1206246D01*
X9823297Y-1209192D01*
X9819538Y-1210818D01*
X9815474Y-1210818D01*
X9811715Y-1209192D01*
X9808921Y-1206246D01*
X9807498Y-1204061D01*
X9803434Y-1199997D01*
X9798608Y-1196949D01*
X9793173Y-1195070D01*
X9786924Y-1194358D01*
X9688068Y-1194358D01*
X9681819Y-1195070D01*
X9676384Y-1196949D01*
X9671558Y-1199997D01*
X9667494Y-1204061D01*
X9664446Y-1208887D01*
X9662566Y-1214323D01*
X9661855Y-1220571D01*
X9661855Y-1316024D01*
X9661093Y-1319885D01*
X9658858Y-1323187D01*
X9555022Y-1427022D01*
X9552178Y-1429054D01*
X9548723Y-1429969D01*
X9540646Y-1430680D01*
X9531197Y-1433169D01*
X9522358Y-1437335D01*
X9514332Y-1442923D01*
X9507423Y-1449832D01*
X9501835Y-1457858D01*
X9497669Y-1466697D01*
X9495180Y-1476146D01*
X9494316Y-1485900D01*
X9495180Y-1495653D01*
X9497669Y-1505102D01*
X9501835Y-1513941D01*
X9507423Y-1521968D01*
X9514332Y-1528876D01*
X9522358Y-1534464D01*
X9531197Y-1538630D01*
X9540646Y-1541119D01*
X9550400Y-1541983D01*
X9560153Y-1541119D01*
X9569602Y-1538630D01*
X9578441Y-1534464D01*
X9586468Y-1528876D01*
X9593376Y-1521968D01*
X9598964Y-1513941D01*
X9603130Y-1505102D01*
X9605619Y-1495653D01*
X9606330Y-1487576D01*
X9607245Y-1484122D01*
X9609277Y-1481277D01*
X9637877Y-1452626D01*
X9641128Y-1450492D01*
X9644938Y-1449679D01*
X9648748Y-1450340D01*
X9652050Y-1452422D01*
X9654286Y-1455572D01*
X9655251Y-1459331D01*
X9654692Y-1463192D01*
X9652508Y-1469390D01*
X9651796Y-1475689D01*
X9651796Y-1496263D01*
X9696094Y-1496263D01*
X9696094Y-1449425D01*
X9678009Y-1449425D01*
X9671761Y-1450136D01*
X9665512Y-1452321D01*
X9661702Y-1452880D01*
X9657892Y-1451965D01*
X9654743Y-1449679D01*
X9652711Y-1446377D01*
X9652000Y-1442567D01*
X9652812Y-1438757D01*
X9654997Y-1435557D01*
X9731908Y-1358646D01*
X9735210Y-1356410D01*
X9739122Y-1355648D01*
X9786924Y-1355648D01*
X9793173Y-1354937D01*
X9798608Y-1353058D01*
X9803434Y-1350010D01*
X9807498Y-1345946D01*
X9808921Y-1343761D01*
X9811715Y-1340815D01*
X9815474Y-1339189D01*
X9819538Y-1339189D01*
X9823297Y-1340815D01*
X9826091Y-1343761D01*
X9827463Y-1345946D01*
X9831527Y-1350010D01*
X9836404Y-1353058D01*
X9841788Y-1354937D01*
X9848088Y-1355648D01*
X9859010Y-1355648D01*
X9862870Y-1356410D01*
X9866172Y-1358646D01*
X9868357Y-1361948D01*
X9869170Y-1365808D01*
X9869170Y-1439265D01*
X9868357Y-1443177D01*
X9866172Y-1446479D01*
X9862870Y-1448663D01*
X9851745Y-1450136D01*
X9846360Y-1452016D01*
X9841484Y-1455064D01*
X9837420Y-1459128D01*
X9834372Y-1464005D01*
X9832492Y-1469390D01*
X9831781Y-1475689D01*
X9831781Y-1584502D01*
X9832492Y-1590802D01*
X9834372Y-1596186D01*
X9837420Y-1601063D01*
X9841484Y-1605127D01*
X9846360Y-1608175D01*
X9851745Y-1610055D01*
X9859010Y-1610766D01*
X9862870Y-1611528D01*
X9866172Y-1613712D01*
X9868357Y-1617014D01*
X9869170Y-1620926D01*
X9869170Y-1694180D01*
X9868357Y-1698091D01*
X9866172Y-1701393D01*
X9862870Y-1703578D01*
X9859010Y-1704339D01*
X9848088Y-1704339D01*
X9841788Y-1705051D01*
X9836404Y-1706930D01*
X9831527Y-1709978D01*
X9827514Y-1714042D01*
X9826091Y-1716227D01*
X9823297Y-1719173D01*
X9819538Y-1720799D01*
X9815474Y-1720799D01*
X9811715Y-1719173D01*
X9808921Y-1716227D01*
X9807498Y-1714042D01*
X9803485Y-1709978D01*
X9798608Y-1706930D01*
X9793224Y-1705051D01*
X9786924Y-1704339D01*
X9688068Y-1704339D01*
X9681819Y-1705051D01*
X9676384Y-1706930D01*
X9671558Y-1709978D01*
X9667494Y-1714042D01*
X9664446Y-1718919D01*
X9662566Y-1724304D01*
X9661855Y-1730552D01*
X9661855Y-1733956D01*
X9661093Y-1737817D01*
X9658858Y-1741119D01*
X9655606Y-1743303D01*
X9651695Y-1744116D01*
X9218320Y-1744116D01*
X9214408Y-1743303D01*
X9211106Y-1741119D01*
X9208922Y-1737817D01*
X9208160Y-1733956D01*
X9208160Y-1730552D01*
X9207449Y-1724304D01*
X9205569Y-1718919D01*
X9202521Y-1714042D01*
X9198457Y-1709978D01*
X9193580Y-1706930D01*
X9188196Y-1705051D01*
X9182404Y-1704390D01*
X9178899Y-1703324D01*
X9176004Y-1701088D01*
X9174073Y-1697939D01*
X9173413Y-1694332D01*
X9173413Y-1620672D01*
X9174073Y-1617065D01*
X9176004Y-1613916D01*
X9178899Y-1611680D01*
X9182404Y-1610614D01*
X9188196Y-1609953D01*
X9193580Y-1608074D01*
X9198457Y-1605026D01*
X9202521Y-1600962D01*
X9205569Y-1596085D01*
X9207449Y-1590700D01*
X9208160Y-1584452D01*
X9208160Y-1475587D01*
X9207449Y-1469288D01*
X9205569Y-1463903D01*
X9202521Y-1459026D01*
X9198457Y-1455013D01*
X9193580Y-1451965D01*
X9188196Y-1450035D01*
X9181896Y-1449324D01*
X9101023Y-1449324D01*
X9097111Y-1448562D01*
X9093809Y-1446377D01*
X9091625Y-1443075D01*
X9090863Y-1439164D01*
X9090863Y-1365808D01*
X9091625Y-1361948D01*
X9093809Y-1358646D01*
X9097111Y-1356410D01*
X9101023Y-1355648D01*
X9181947Y-1355648D01*
X9188196Y-1354937D01*
X9193580Y-1353058D01*
X9198457Y-1350010D01*
X9202521Y-1345946D01*
X9205569Y-1341120D01*
X9208668Y-1331315D01*
X9211005Y-1328318D01*
X9214256Y-1326438D01*
X9218015Y-1325880D01*
X9221673Y-1326743D01*
X9224822Y-1328877D01*
X9301022Y-1405077D01*
X9303054Y-1407922D01*
X9303969Y-1411376D01*
X9304680Y-1419453D01*
X9307169Y-1428902D01*
X9311335Y-1437741D01*
X9316923Y-1445768D01*
X9323832Y-1452676D01*
X9331858Y-1458264D01*
X9340697Y-1462430D01*
X9350146Y-1464919D01*
X9359900Y-1465783D01*
X9369653Y-1464919D01*
X9379102Y-1462430D01*
X9387941Y-1458264D01*
X9395968Y-1452676D01*
X9402876Y-1445768D01*
X9408464Y-1437741D01*
X9412630Y-1428902D01*
X9415119Y-1419453D01*
X9415983Y-1409700D01*
X9415119Y-1399946D01*
X9412630Y-1390497D01*
X9408464Y-1381658D01*
X9402876Y-1373632D01*
X9395968Y-1366723D01*
X9387941Y-1361135D01*
X9379102Y-1356969D01*
X9369653Y-1354480D01*
X9361576Y-1353769D01*
X9358122Y-1352854D01*
X9355277Y-1350822D01*
X9252661Y-1248257D01*
X9246463Y-1243177D01*
X9239859Y-1239621D01*
X9232696Y-1237437D01*
X9224721Y-1236675D01*
X9218320Y-1236675D01*
X9214408Y-1235862D01*
X9211106Y-1233678D01*
X9208922Y-1230376D01*
X9208160Y-1226515D01*
X9208160Y-1220571D01*
X9207449Y-1214323D01*
X9205569Y-1208887D01*
X9202521Y-1204061D01*
X9198457Y-1199997D01*
X9193580Y-1196949D01*
X9188196Y-1195070D01*
X9181947Y-1194358D01*
X9083090Y-1194358D01*
X9076791Y-1195070D01*
X9071406Y-1196949D01*
X9066530Y-1199997D01*
X9062466Y-1204061D01*
X9061094Y-1206246D01*
X9058300Y-1209192D01*
X9054541Y-1210818D01*
X9050477Y-1210818D01*
X9046718Y-1209192D01*
X9043924Y-1206246D01*
X9042501Y-1204061D01*
X9038437Y-1199997D01*
X9033611Y-1196949D01*
X9028176Y-1195070D01*
X9021013Y-1194358D01*
X9017101Y-1193596D01*
X9013850Y-1191361D01*
X9011615Y-1188059D01*
X9010853Y-1184198D01*
X9010853Y-1109776D01*
X9011716Y-1105712D01*
X9014104Y-1102309D01*
X9017660Y-1100175D01*
X9023502Y-1098143D01*
X9028328Y-1095095D01*
X9032392Y-1091031D01*
X9035440Y-1086154D01*
X9037320Y-1080770D01*
X9038031Y-1074470D01*
X9038031Y-965657D01*
X9037320Y-959358D01*
X9035440Y-953973D01*
X9032392Y-949096D01*
X9028328Y-945032D01*
X9023502Y-941984D01*
X9018066Y-940104D01*
X9011818Y-939393D01*
X8912961Y-939393D01*
X8906713Y-940104D01*
X8901277Y-941984D01*
X8896451Y-945032D01*
X8892387Y-949096D01*
X8889339Y-953973D01*
X8887460Y-959358D01*
X8886748Y-965657D01*
X8886748Y-1074470D01*
X8887460Y-1080770D01*
X8888171Y-1082852D01*
X8888730Y-1086612D01*
X8891320Y-1089355D01*
X8892387Y-1091031D01*
X8896451Y-1095095D01*
X8901277Y-1098143D01*
X8906713Y-1100023D01*
X8912961Y-1100734D01*
X8923985Y-1100734D01*
X8927896Y-1101496D01*
X8931148Y-1103680D01*
X8933383Y-1106982D01*
X8934145Y-1110894D01*
X8934145Y-1184198D01*
X8933383Y-1188059D01*
X8931148Y-1191361D01*
X8927896Y-1193596D01*
X8916822Y-1195070D01*
X8911386Y-1196949D01*
X8906560Y-1199997D01*
X8902496Y-1204061D01*
X8899448Y-1208887D01*
X8897569Y-1214323D01*
X8896858Y-1220571D01*
X8896858Y-1329436D01*
X8897569Y-1335684D01*
X8899448Y-1341120D01*
X8902496Y-1345946D01*
X8906560Y-1350010D01*
X8911386Y-1353058D01*
X8916822Y-1354937D01*
X8923070Y-1355648D01*
X8994698Y-1355648D01*
X8998610Y-1356410D01*
X9001912Y-1358646D01*
X9011158Y-1367891D01*
X9013393Y-1371193D01*
X9014155Y-1375105D01*
X9014155Y-1439164D01*
X9013393Y-1443075D01*
X9011158Y-1446377D01*
X9007856Y-1448562D01*
X9003995Y-1449324D01*
X8950299Y-1449324D01*
X8946388Y-1448562D01*
X8943136Y-1446377D01*
X8910777Y-1414018D01*
X8908745Y-1411122D01*
X8907830Y-1407718D01*
X8907119Y-1399946D01*
X8904630Y-1390497D01*
X8900464Y-1381658D01*
X8894876Y-1373632D01*
X8887968Y-1366723D01*
X8879941Y-1361135D01*
X8871102Y-1356969D01*
X8861653Y-1354480D01*
X8851900Y-1353616D01*
X8842146Y-1354480D01*
X8832697Y-1356969D01*
X8823858Y-1361135D01*
X8815832Y-1366723D01*
X8808923Y-1373632D01*
X8803335Y-1381658D01*
X8799169Y-1390497D01*
X8796680Y-1399946D01*
X8795816Y-1409700D01*
X8796680Y-1419453D01*
X8799169Y-1428902D01*
X8803335Y-1437741D01*
X8808923Y-1445768D01*
X8815832Y-1452676D01*
X8823858Y-1458264D01*
X8832697Y-1462430D01*
X8842146Y-1464919D01*
X8850579Y-1465681D01*
X8853982Y-1466596D01*
X8856878Y-1468628D01*
X8862669Y-1474419D01*
X8864854Y-1477670D01*
X8865616Y-1481582D01*
X8864854Y-1485493D01*
X8862669Y-1488744D01*
X8859367Y-1490980D01*
X8855456Y-1491742D01*
X8052612Y-1491742D01*
X8048701Y-1490980D01*
X8045399Y-1488744D01*
X7951419Y-1394764D01*
X7949184Y-1391462D01*
X7948422Y-1387551D01*
X7948422Y-410819D01*
X7949234Y-406908D01*
X7951470Y-403555D01*
X7954822Y-401370D01*
X7959242Y-399643D01*
X7971993Y-392633D01*
X7983728Y-384098D01*
X7994294Y-374142D01*
X8003540Y-362966D01*
X8011363Y-350723D01*
X8017509Y-337566D01*
X8022031Y-323748D01*
X8024723Y-309524D01*
X8025638Y-294995D01*
X8024723Y-280517D01*
X8022031Y-266242D01*
X8017509Y-252425D01*
X8011363Y-239318D01*
X8003540Y-227025D01*
X7994294Y-215849D01*
X7983728Y-205892D01*
X7971993Y-197358D01*
X7959242Y-190398D01*
X7945729Y-185013D01*
X7931658Y-181406D01*
X7917281Y-179578D01*
X7902752Y-179578D01*
X7888325Y-181406D01*
X7874304Y-185013D01*
X7860792Y-190398D01*
X7848041Y-197358D01*
X7836306Y-205892D01*
X7825740Y-215849D01*
X7816443Y-227025D01*
X7808671Y-239318D01*
X7802524Y-252425D01*
X7798003Y-266242D01*
X7795310Y-280517D01*
X7794396Y-294995D01*
X7795310Y-309524D01*
X7798003Y-323748D01*
X7802524Y-337566D01*
X7808671Y-350723D01*
X7816443Y-362966D01*
X7825740Y-374142D01*
X7836306Y-384098D01*
X7848041Y-392633D01*
X7860792Y-399643D01*
X7865313Y-401421D01*
X7868666Y-403606D01*
X7870901Y-406958D01*
X7871714Y-410870D01*
X7871714Y-1407160D01*
X7872475Y-1415135D01*
X7874660Y-1422349D01*
X7878216Y-1428953D01*
X7883296Y-1435150D01*
X8005013Y-1556867D01*
X8011210Y-1561947D01*
X8017814Y-1565503D01*
X8025028Y-1567688D01*
X8033003Y-1568450D01*
X8886698Y-1568450D01*
X8890558Y-1569212D01*
X8893860Y-1571447D01*
X8896096Y-1574698D01*
X8896858Y-1578610D01*
X8896858Y-1584452D01*
X8897569Y-1590700D01*
X8899448Y-1596085D01*
X8902496Y-1600962D01*
X8906560Y-1605026D01*
X8911386Y-1608074D01*
X8916822Y-1609953D01*
X8923070Y-1610664D01*
X9003995Y-1610664D01*
X9007856Y-1611426D01*
X9011158Y-1613611D01*
X9013393Y-1616913D01*
X9014155Y-1620824D01*
X9014155Y-1684934D01*
X9013393Y-1688795D01*
X9011158Y-1692097D01*
X9001912Y-1701393D01*
X8998610Y-1703578D01*
X8994698Y-1704339D01*
X8923070Y-1704339D01*
X8916822Y-1705051D01*
X8911386Y-1706930D01*
X8906560Y-1709978D01*
X8902496Y-1714042D01*
X8899448Y-1718919D01*
X8897569Y-1724304D01*
X8896858Y-1730552D01*
X8896858Y-1736547D01*
X8896096Y-1740407D01*
X8893860Y-1743710D01*
X8890558Y-1745945D01*
X8886698Y-1746707D01*
X8612174Y-1746504D01*
X8608263Y-1745742D01*
X8604961Y-1743557D01*
X8579662Y-1718208D01*
X8573465Y-1713128D01*
X8566861Y-1709572D01*
X8559647Y-1707388D01*
X8551672Y-1706625D01*
X8525967Y-1706625D01*
X8522208Y-1705914D01*
X8519007Y-1703882D01*
X8516772Y-1700784D01*
X8511336Y-1689303D01*
X8503564Y-1677009D01*
X8494318Y-1665833D01*
X8483701Y-1655876D01*
X8471966Y-1647342D01*
X8459266Y-1640382D01*
X8445754Y-1634998D01*
X8431682Y-1631391D01*
X8417255Y-1629562D01*
X8402777Y-1629562D01*
X8388350Y-1631391D01*
X8374278Y-1634998D01*
X8360765Y-1640382D01*
X8348065Y-1647342D01*
X8336330Y-1655876D01*
X8325713Y-1665833D01*
X8316468Y-1677009D01*
X8308695Y-1689303D01*
X8302498Y-1702409D01*
X8298027Y-1716227D01*
X8295284Y-1730502D01*
X8294370Y-1744980D01*
X8295284Y-1759508D01*
X8298027Y-1773732D01*
X8302498Y-1787550D01*
X8308695Y-1800707D01*
X8316468Y-1812950D01*
X8323986Y-1822043D01*
X8325815Y-1825396D01*
X8326323Y-1829155D01*
X8325358Y-1832864D01*
X8323122Y-1835962D01*
X8319922Y-1837994D01*
X8316163Y-1838706D01*
X8253831Y-1838706D01*
X8250123Y-1837994D01*
X8246872Y-1835962D01*
X8244636Y-1832864D01*
X8243722Y-1829155D01*
X8244179Y-1825396D01*
X8246008Y-1822043D01*
X8253526Y-1812950D01*
X8261350Y-1800707D01*
X8263381Y-1796338D01*
X8211362Y-1796338D01*
X8211362Y-1828546D01*
X8210600Y-1832406D01*
X8208365Y-1835708D01*
X8205063Y-1837943D01*
X8201202Y-1838706D01*
X8118805Y-1838706D01*
X8114944Y-1837943D01*
X8111642Y-1835708D01*
X8109407Y-1832406D01*
X8108645Y-1828546D01*
X8108645Y-1796338D01*
X8056625Y-1796338D01*
X8058658Y-1800707D01*
X8066430Y-1812950D01*
X8073999Y-1822043D01*
X8075828Y-1825396D01*
X8076285Y-1829155D01*
X8075320Y-1832864D01*
X8073085Y-1835962D01*
X8069884Y-1837994D01*
X8066125Y-1838706D01*
X8003844Y-1838706D01*
X8000136Y-1837994D01*
X7996885Y-1835962D01*
X7994650Y-1832864D01*
X7993735Y-1829155D01*
X7994192Y-1825396D01*
X7996021Y-1822043D01*
X8003540Y-1812950D01*
X8011363Y-1800707D01*
X8017509Y-1787550D01*
X8022031Y-1773732D01*
X8024723Y-1759508D01*
X8025638Y-1744980D01*
X8024723Y-1730502D01*
X8022031Y-1716227D01*
X8017509Y-1702409D01*
X8011363Y-1689303D01*
X8003540Y-1677009D01*
X7994294Y-1665833D01*
X7983728Y-1655876D01*
X7971993Y-1647342D01*
X7959242Y-1640382D01*
X7945729Y-1634998D01*
X7931658Y-1631391D01*
X7917281Y-1629562D01*
X7902752Y-1629562D01*
X7888325Y-1631391D01*
X7874304Y-1634998D01*
X7860792Y-1640382D01*
X7848041Y-1647342D01*
X7836306Y-1655876D01*
X7825740Y-1665833D01*
X7816443Y-1677009D01*
X7808671Y-1689303D01*
X7803286Y-1700784D01*
X7801051Y-1703882D01*
X7797800Y-1705914D01*
X7794091Y-1706625D01*
X7780528Y-1706625D01*
X7772552Y-1707388D01*
X7765338Y-1709572D01*
X7758734Y-1713128D01*
X7752537Y-1718208D01*
X7726984Y-1743760D01*
X7723682Y-1745996D01*
X7719771Y-1746757D01*
X7433309Y-1746757D01*
X7429398Y-1745996D01*
X7426147Y-1743760D01*
X7423912Y-1740509D01*
X7423150Y-1736598D01*
X7423150Y-1730552D01*
X7422438Y-1724304D01*
X7420559Y-1718919D01*
X7417511Y-1714042D01*
X7413447Y-1709978D01*
X7408621Y-1706930D01*
X7403185Y-1705051D01*
X7396022Y-1704339D01*
X7392111Y-1703578D01*
X7388809Y-1701393D01*
X7386624Y-1698091D01*
X7385862Y-1694180D01*
X7385862Y-1620926D01*
X7386624Y-1617014D01*
X7388809Y-1613712D01*
X7392111Y-1611528D01*
X7396022Y-1610766D01*
X7406944Y-1610766D01*
X7413244Y-1610055D01*
X7418628Y-1608175D01*
X7423505Y-1605127D01*
X7427569Y-1601063D01*
X7430617Y-1596186D01*
X7432497Y-1590802D01*
X7433208Y-1584502D01*
X7433208Y-1475689D01*
X7432497Y-1469390D01*
X7430617Y-1464005D01*
X7427569Y-1459128D01*
X7423505Y-1455064D01*
X7418628Y-1452016D01*
X7413244Y-1450136D01*
X7406030Y-1449425D01*
X7402118Y-1448663D01*
X7398816Y-1446479D01*
X7396632Y-1443177D01*
X7395870Y-1439265D01*
X7395870Y-1364742D01*
X7396683Y-1360678D01*
X7399121Y-1357274D01*
X7402677Y-1355140D01*
X7408570Y-1353058D01*
X7413447Y-1350010D01*
X7417511Y-1345946D01*
X7420559Y-1341120D01*
X7422438Y-1335684D01*
X7423150Y-1329436D01*
X7423150Y-1220571D01*
X7422438Y-1214323D01*
X7420559Y-1208887D01*
X7417511Y-1204061D01*
X7413447Y-1199997D01*
X7408570Y-1196949D01*
X7403185Y-1195070D01*
X7396937Y-1194358D01*
X7298080Y-1194358D01*
X7291781Y-1195070D01*
X7286396Y-1196949D01*
X7281519Y-1199997D01*
X7277506Y-1204061D01*
X7276084Y-1206246D01*
X7273290Y-1209192D01*
X7269530Y-1210818D01*
X7265466Y-1210818D01*
X7261707Y-1209192D01*
X7258913Y-1206246D01*
X7257491Y-1204061D01*
X7253478Y-1199997D01*
X7248601Y-1196949D01*
X7243216Y-1195070D01*
X7236917Y-1194358D01*
X7138060Y-1194358D01*
X7131812Y-1195070D01*
X7126376Y-1196949D01*
X7121550Y-1199997D01*
X7117486Y-1204061D01*
X7114438Y-1208887D01*
X7112558Y-1214323D01*
X7111847Y-1220571D01*
X7111847Y-1287881D01*
X7111085Y-1291793D01*
X7108850Y-1295095D01*
X7091222Y-1312722D01*
X7088378Y-1314754D01*
X7084923Y-1315669D01*
X7076846Y-1316380D01*
X7067397Y-1318869D01*
X7058558Y-1323035D01*
X7050531Y-1328623D01*
X7043623Y-1335532D01*
X7038035Y-1343558D01*
X7033869Y-1352397D01*
X7031380Y-1361846D01*
X7030516Y-1371600D01*
X7031380Y-1381353D01*
X7033869Y-1390802D01*
X7038035Y-1399641D01*
X7043623Y-1407668D01*
X7050531Y-1414576D01*
X7058558Y-1420164D01*
X7067397Y-1424330D01*
X7076846Y-1426819D01*
X7086600Y-1427683D01*
X7096353Y-1426819D01*
X7105802Y-1424330D01*
X7114641Y-1420164D01*
X7122668Y-1414576D01*
X7129576Y-1407668D01*
X7135164Y-1399641D01*
X7139330Y-1390802D01*
X7141819Y-1381353D01*
X7142530Y-1373276D01*
X7143445Y-1369822D01*
X7145477Y-1366977D01*
X7153808Y-1358646D01*
X7157110Y-1356410D01*
X7160971Y-1355648D01*
X7236917Y-1355648D01*
X7243216Y-1354937D01*
X7248601Y-1353058D01*
X7253478Y-1350010D01*
X7257491Y-1345946D01*
X7258913Y-1343761D01*
X7261707Y-1340815D01*
X7265466Y-1339189D01*
X7269530Y-1339189D01*
X7273290Y-1340815D01*
X7276084Y-1343761D01*
X7277506Y-1345946D01*
X7281519Y-1350010D01*
X7286396Y-1353058D01*
X7291781Y-1354937D01*
X7298080Y-1355648D01*
X7309002Y-1355648D01*
X7312863Y-1356410D01*
X7316165Y-1358646D01*
X7318400Y-1361948D01*
X7319162Y-1365808D01*
X7319162Y-1439265D01*
X7318400Y-1443177D01*
X7316165Y-1446479D01*
X7312863Y-1448663D01*
X7301839Y-1450136D01*
X7296454Y-1452016D01*
X7291578Y-1455064D01*
X7287514Y-1459128D01*
X7284466Y-1464005D01*
X7282586Y-1469390D01*
X7281875Y-1475689D01*
X7281875Y-1584502D01*
X7282586Y-1590802D01*
X7284466Y-1596186D01*
X7287514Y-1601063D01*
X7291578Y-1605127D01*
X7296454Y-1608175D01*
X7302347Y-1610207D01*
X7305903Y-1612341D01*
X7308291Y-1615744D01*
X7309154Y-1619808D01*
X7309154Y-1694180D01*
X7308342Y-1698091D01*
X7306157Y-1701393D01*
X7302855Y-1703578D01*
X7291781Y-1705051D01*
X7286396Y-1706930D01*
X7281519Y-1709978D01*
X7277506Y-1714042D01*
X7276084Y-1716227D01*
X7273290Y-1719173D01*
X7269530Y-1720799D01*
X7265466Y-1720799D01*
X7261707Y-1719173D01*
X7258913Y-1716227D01*
X7257491Y-1714042D01*
X7253478Y-1709978D01*
X7248601Y-1706930D01*
X7243216Y-1705051D01*
X7236917Y-1704339D01*
X7138060Y-1704339D01*
X7131812Y-1705051D01*
X7126427Y-1706930D01*
X7121550Y-1709978D01*
X7117486Y-1714042D01*
X7114438Y-1718919D01*
X7112558Y-1724304D01*
X7112152Y-1728063D01*
X7111085Y-1731619D01*
X7108799Y-1734515D01*
X7105650Y-1736445D01*
X7102043Y-1737106D01*
X6668211Y-1737106D01*
X6664299Y-1736343D01*
X6660997Y-1734108D01*
X6658813Y-1730806D01*
X6658051Y-1726946D01*
X6658051Y-1723593D01*
X6657340Y-1717293D01*
X6655460Y-1711909D01*
X6652412Y-1707032D01*
X6648348Y-1702968D01*
X6643471Y-1699920D01*
X6638086Y-1698040D01*
X6632346Y-1697380D01*
X6628790Y-1696313D01*
X6625894Y-1694078D01*
X6623964Y-1690928D01*
X6623303Y-1687322D01*
X6623303Y-1620723D01*
X6623964Y-1617065D01*
X6625894Y-1613916D01*
X6628790Y-1611680D01*
X6632346Y-1610614D01*
X6638188Y-1609953D01*
X6643573Y-1608074D01*
X6648450Y-1605026D01*
X6652514Y-1600962D01*
X6655562Y-1596085D01*
X6657441Y-1590700D01*
X6658152Y-1584452D01*
X6658152Y-1475587D01*
X6657441Y-1469288D01*
X6655562Y-1463903D01*
X6652514Y-1459026D01*
X6648450Y-1455013D01*
X6643573Y-1451965D01*
X6638188Y-1450035D01*
X6631940Y-1449324D01*
X6550914Y-1449324D01*
X6547002Y-1448562D01*
X6543751Y-1446377D01*
X6541516Y-1443075D01*
X6540754Y-1439164D01*
X6540754Y-1365808D01*
X6541516Y-1361948D01*
X6543751Y-1358646D01*
X6547002Y-1356410D01*
X6550914Y-1355648D01*
X6631940Y-1355648D01*
X6638188Y-1354937D01*
X6643624Y-1353058D01*
X6648450Y-1350010D01*
X6652514Y-1345946D01*
X6655562Y-1341120D01*
X6657441Y-1335684D01*
X6658152Y-1329436D01*
X6658152Y-1323543D01*
X6658914Y-1319631D01*
X6661150Y-1316329D01*
X6664401Y-1314145D01*
X6668312Y-1313383D01*
X6712813Y-1313383D01*
X6720789Y-1312570D01*
X6727952Y-1310386D01*
X6734556Y-1306830D01*
X6740753Y-1301750D01*
X6783171Y-1259382D01*
X6788251Y-1253185D01*
X6791807Y-1246581D01*
X6793992Y-1239367D01*
X6794753Y-1231392D01*
X6794753Y-1162507D01*
X6795516Y-1158595D01*
X6797751Y-1155293D01*
X6799376Y-1153668D01*
X6804964Y-1145641D01*
X6809130Y-1136802D01*
X6811619Y-1127353D01*
X6812483Y-1117600D01*
X6811619Y-1107846D01*
X6809130Y-1098397D01*
X6804964Y-1089558D01*
X6799376Y-1081532D01*
X6792468Y-1074623D01*
X6784441Y-1069035D01*
X6775602Y-1064869D01*
X6766153Y-1062380D01*
X6756400Y-1061516D01*
X6746646Y-1062380D01*
X6737197Y-1064869D01*
X6728358Y-1069035D01*
X6720331Y-1074623D01*
X6713423Y-1081532D01*
X6707835Y-1089558D01*
X6703669Y-1098397D01*
X6701180Y-1107846D01*
X6700316Y-1117600D01*
X6701180Y-1127353D01*
X6703669Y-1136802D01*
X6707835Y-1145641D01*
X6713423Y-1153668D01*
X6715048Y-1155293D01*
X6717284Y-1158595D01*
X6718046Y-1162507D01*
X6718046Y-1211783D01*
X6717284Y-1215694D01*
X6715048Y-1218996D01*
X6700367Y-1233678D01*
X6697065Y-1235862D01*
X6693204Y-1236675D01*
X6668312Y-1236675D01*
X6664401Y-1235862D01*
X6661150Y-1233678D01*
X6658914Y-1230376D01*
X6658152Y-1226515D01*
X6658152Y-1220571D01*
X6657441Y-1214323D01*
X6655562Y-1208887D01*
X6652514Y-1204061D01*
X6648450Y-1199997D01*
X6643624Y-1196949D01*
X6638188Y-1195070D01*
X6631940Y-1194358D01*
X6533083Y-1194358D01*
X6526784Y-1195070D01*
X6521399Y-1196949D01*
X6516522Y-1199997D01*
X6512509Y-1204061D01*
X6511086Y-1206246D01*
X6508292Y-1209192D01*
X6504533Y-1210818D01*
X6500469Y-1210818D01*
X6496710Y-1209192D01*
X6493916Y-1206246D01*
X6492494Y-1204061D01*
X6488480Y-1199997D01*
X6483604Y-1196949D01*
X6478219Y-1195070D01*
X6470904Y-1194358D01*
X6466992Y-1193596D01*
X6463741Y-1191361D01*
X6461506Y-1188059D01*
X6460744Y-1184198D01*
X6460744Y-1109827D01*
X6461607Y-1105763D01*
X6463995Y-1102360D01*
X6467551Y-1100226D01*
X6473596Y-1098143D01*
X6478422Y-1095095D01*
X6482486Y-1091031D01*
X6485534Y-1086154D01*
X6487414Y-1080770D01*
X6488125Y-1074470D01*
X6488125Y-965657D01*
X6487414Y-959358D01*
X6485534Y-953973D01*
X6482486Y-949096D01*
X6478422Y-945032D01*
X6473596Y-941984D01*
X6468160Y-940104D01*
X6461912Y-939393D01*
X6363055Y-939393D01*
X6356807Y-940104D01*
X6351371Y-941984D01*
X6346545Y-945032D01*
X6342481Y-949096D01*
X6339433Y-953973D01*
X6337554Y-959358D01*
X6336842Y-965657D01*
X6336842Y-1006957D01*
X6335979Y-1016000D01*
X6336842Y-1025042D01*
X6336842Y-1074470D01*
X6337554Y-1081074D01*
X6337147Y-1085291D01*
X6335776Y-1087729D01*
X6338417Y-1088186D01*
X6341922Y-1090472D01*
X6346545Y-1095095D01*
X6351371Y-1098143D01*
X6356807Y-1100023D01*
X6363055Y-1100734D01*
X6373876Y-1100734D01*
X6377787Y-1101496D01*
X6381038Y-1103680D01*
X6383274Y-1106982D01*
X6384036Y-1110894D01*
X6384036Y-1184198D01*
X6383375Y-1187856D01*
X6381394Y-1191006D01*
X6378448Y-1193292D01*
X6374841Y-1194308D01*
X6366713Y-1195070D01*
X6361379Y-1196949D01*
X6356553Y-1199997D01*
X6352489Y-1204061D01*
X6349441Y-1208887D01*
X6347561Y-1214323D01*
X6346850Y-1220571D01*
X6346850Y-1329436D01*
X6347561Y-1335684D01*
X6349441Y-1341120D01*
X6352844Y-1346504D01*
X6354318Y-1350568D01*
X6354064Y-1353515D01*
X6357874Y-1352600D01*
X6361684Y-1353159D01*
X6366814Y-1354937D01*
X6373063Y-1355648D01*
X6453428Y-1355648D01*
X6457289Y-1356410D01*
X6461048Y-1359103D01*
X6463284Y-1362405D01*
X6464046Y-1366316D01*
X6464046Y-1439164D01*
X6463284Y-1443075D01*
X6461048Y-1446377D01*
X6457797Y-1448562D01*
X6453886Y-1449324D01*
X6409994Y-1449324D01*
X6406083Y-1448562D01*
X6402832Y-1446377D01*
X6370777Y-1414322D01*
X6368745Y-1411478D01*
X6367830Y-1408023D01*
X6367119Y-1399946D01*
X6364630Y-1390497D01*
X6360464Y-1381658D01*
X6354876Y-1373632D01*
X6351168Y-1369923D01*
X6348984Y-1366723D01*
X6348171Y-1362913D01*
X6348374Y-1361186D01*
X6344158Y-1362049D01*
X6339941Y-1361135D01*
X6331102Y-1356969D01*
X6321653Y-1354480D01*
X6311900Y-1353616D01*
X6302146Y-1354480D01*
X6292697Y-1356969D01*
X6283858Y-1361135D01*
X6275832Y-1366723D01*
X6268923Y-1373632D01*
X6263335Y-1381658D01*
X6259169Y-1390497D01*
X6256680Y-1399946D01*
X6255816Y-1409700D01*
X6256680Y-1419453D01*
X6259169Y-1428902D01*
X6263335Y-1437741D01*
X6268923Y-1445768D01*
X6275832Y-1452676D01*
X6283858Y-1458264D01*
X6292697Y-1462430D01*
X6302146Y-1464919D01*
X6306972Y-1465376D01*
X6311188Y-1466697D01*
X6314440Y-1469644D01*
X6316116Y-1473708D01*
X6315913Y-1478127D01*
X6313881Y-1482039D01*
X6310376Y-1484680D01*
X6306108Y-1485646D01*
X5506516Y-1485646D01*
X5502605Y-1484884D01*
X5499303Y-1482648D01*
X5404815Y-1388160D01*
X5402580Y-1384858D01*
X5401818Y-1380947D01*
X5401818Y-406806D01*
X5402630Y-402894D01*
X5404866Y-399592D01*
X5408218Y-397357D01*
X5412638Y-395630D01*
X5425389Y-388620D01*
X5437124Y-380085D01*
X5447690Y-370179D01*
X5456986Y-358952D01*
X5464759Y-346710D01*
X5470906Y-333552D01*
X5475427Y-319786D01*
X5478119Y-305511D01*
X5479034Y-291033D01*
X5478119Y-276504D01*
X5475427Y-262229D01*
X5470906Y-248462D01*
X5464759Y-235305D01*
X5456986Y-223062D01*
X5447690Y-211836D01*
X5437124Y-201930D01*
X5425389Y-193395D01*
X5412638Y-186385D01*
X5399125Y-181051D01*
X5385104Y-177444D01*
X5370677Y-175615D01*
X5356148Y-175615D01*
X5341721Y-177444D01*
X5327700Y-181051D01*
X5314188Y-186385D01*
X5301437Y-193395D01*
X5289702Y-201930D01*
X5279136Y-211836D01*
X5269839Y-223062D01*
X5262067Y-235305D01*
X5255920Y-248462D01*
X5251399Y-262229D01*
X5248706Y-276504D01*
X5247792Y-291033D01*
X5248706Y-305511D01*
X5251399Y-319786D01*
X5255920Y-333552D01*
X5262067Y-346710D01*
X5269839Y-358952D01*
X5279136Y-370179D01*
X5289702Y-380085D01*
X5301437Y-388620D01*
X5314188Y-395630D01*
X5318709Y-397408D01*
X5322062Y-399592D01*
X5324297Y-402945D01*
X5325110Y-406857D01*
X5325110Y-1400556D01*
X5325872Y-1408531D01*
X5328056Y-1415745D01*
X5331612Y-1422349D01*
X5336692Y-1428546D01*
X5458917Y-1550771D01*
X5465114Y-1555851D01*
X5471718Y-1559407D01*
X5478932Y-1561592D01*
X5486908Y-1562354D01*
X6336690Y-1562354D01*
X6340551Y-1563116D01*
X6343853Y-1565351D01*
X6346088Y-1568602D01*
X6346850Y-1572514D01*
X6346850Y-1584452D01*
X6347561Y-1590700D01*
X6349441Y-1596085D01*
X6352489Y-1600962D01*
X6356553Y-1605026D01*
X6361379Y-1608074D01*
X6366814Y-1609953D01*
X6373063Y-1610664D01*
X6453886Y-1610664D01*
X6457797Y-1611426D01*
X6461048Y-1613611D01*
X6463284Y-1616913D01*
X6464046Y-1620824D01*
X6464046Y-1668983D01*
X6463284Y-1672894D01*
X6461048Y-1676196D01*
X6442913Y-1694383D01*
X6439611Y-1696567D01*
X6435699Y-1697329D01*
X6372961Y-1697329D01*
X6366713Y-1698040D01*
X6361277Y-1699920D01*
X6356908Y-1702257D01*
X6354064Y-1702663D01*
X5979363Y-1702663D01*
X5975604Y-1701901D01*
X5972403Y-1699869D01*
X5970168Y-1696821D01*
X5964732Y-1685289D01*
X5956960Y-1673047D01*
X5947714Y-1661820D01*
X5937097Y-1651914D01*
X5925362Y-1643380D01*
X5912662Y-1636369D01*
X5899150Y-1631035D01*
X5885078Y-1627428D01*
X5870651Y-1625600D01*
X5856173Y-1625600D01*
X5841746Y-1627428D01*
X5827674Y-1631035D01*
X5814161Y-1636369D01*
X5801461Y-1643380D01*
X5789726Y-1651914D01*
X5779109Y-1661820D01*
X5769864Y-1673047D01*
X5762091Y-1685289D01*
X5755894Y-1698447D01*
X5751423Y-1712214D01*
X5748680Y-1726488D01*
X5747766Y-1741017D01*
X5748680Y-1755495D01*
X5751423Y-1769770D01*
X5755894Y-1783537D01*
X5762091Y-1796694D01*
X5769864Y-1808937D01*
X5782513Y-1824380D01*
X5783376Y-1828342D01*
X5782665Y-1832254D01*
X5780481Y-1835657D01*
X5777128Y-1837893D01*
X5773216Y-1838706D01*
X5703620Y-1838706D01*
X5699658Y-1837893D01*
X5696356Y-1835657D01*
X5694172Y-1832254D01*
X5693460Y-1828342D01*
X5694324Y-1824380D01*
X5706973Y-1808937D01*
X5714746Y-1796694D01*
X5716778Y-1792325D01*
X5664758Y-1792325D01*
X5664758Y-1828546D01*
X5663996Y-1832406D01*
X5661761Y-1835708D01*
X5658459Y-1837943D01*
X5654598Y-1838706D01*
X5572201Y-1838706D01*
X5568340Y-1837943D01*
X5565038Y-1835708D01*
X5562803Y-1832406D01*
X5562041Y-1828546D01*
X5562041Y-1792325D01*
X5510022Y-1792325D01*
X5512054Y-1796694D01*
X5519826Y-1808937D01*
X5532475Y-1824380D01*
X5533339Y-1828342D01*
X5532628Y-1832254D01*
X5530443Y-1835657D01*
X5527141Y-1837893D01*
X5523179Y-1838706D01*
X5453634Y-1838706D01*
X5449671Y-1837893D01*
X5446369Y-1835657D01*
X5444185Y-1832254D01*
X5443474Y-1828342D01*
X5444337Y-1824380D01*
X5456986Y-1808937D01*
X5464759Y-1796694D01*
X5470906Y-1783537D01*
X5475427Y-1769770D01*
X5478119Y-1755495D01*
X5479034Y-1741017D01*
X5478119Y-1726488D01*
X5475427Y-1712214D01*
X5470906Y-1698447D01*
X5464759Y-1685289D01*
X5456986Y-1673047D01*
X5447690Y-1661820D01*
X5437124Y-1651914D01*
X5425389Y-1643380D01*
X5412638Y-1636369D01*
X5399125Y-1631035D01*
X5385104Y-1627428D01*
X5370677Y-1625600D01*
X5356148Y-1625600D01*
X5341721Y-1627428D01*
X5327700Y-1631035D01*
X5314188Y-1636369D01*
X5301437Y-1643380D01*
X5289702Y-1651914D01*
X5279136Y-1661820D01*
X5269839Y-1673047D01*
X5262067Y-1685289D01*
X5256682Y-1696821D01*
X5254447Y-1699869D01*
X5251196Y-1701901D01*
X5247487Y-1702663D01*
X5231790Y-1702663D01*
X5223814Y-1703425D01*
X5216652Y-1705610D01*
X5210048Y-1709166D01*
X5203850Y-1714246D01*
X5181396Y-1736648D01*
X5178094Y-1738884D01*
X5174183Y-1739646D01*
X4883251Y-1739646D01*
X4879644Y-1738985D01*
X4876495Y-1737055D01*
X4874209Y-1734159D01*
X4873142Y-1730603D01*
X4872431Y-1724304D01*
X4870551Y-1718919D01*
X4867503Y-1714042D01*
X4863439Y-1710029D01*
X4857546Y-1706321D01*
X4855006Y-1704035D01*
X4853330Y-1701038D01*
X4852771Y-1697685D01*
X4852771Y-1620266D01*
X4853432Y-1616659D01*
X4855362Y-1613509D01*
X4858258Y-1611274D01*
X4863084Y-1610055D01*
X4868468Y-1608175D01*
X4873345Y-1605127D01*
X4877409Y-1601063D01*
X4880457Y-1596186D01*
X4882337Y-1590802D01*
X4883048Y-1584502D01*
X4883048Y-1475689D01*
X4882337Y-1469390D01*
X4880457Y-1464005D01*
X4877409Y-1459128D01*
X4873345Y-1455064D01*
X4868468Y-1452016D01*
X4863084Y-1450136D01*
X4858258Y-1448917D01*
X4855362Y-1446682D01*
X4853432Y-1443532D01*
X4852771Y-1439926D01*
X4852771Y-1362303D01*
X4853330Y-1358950D01*
X4855006Y-1355953D01*
X4857546Y-1353667D01*
X4863439Y-1350010D01*
X4867503Y-1345946D01*
X4870551Y-1341120D01*
X4872431Y-1335684D01*
X4873142Y-1329436D01*
X4873142Y-1220571D01*
X4872431Y-1214323D01*
X4870551Y-1208887D01*
X4867503Y-1204061D01*
X4863439Y-1199997D01*
X4858613Y-1196949D01*
X4853178Y-1195070D01*
X4846929Y-1194358D01*
X4748072Y-1194358D01*
X4741773Y-1195070D01*
X4736388Y-1196949D01*
X4731512Y-1199997D01*
X4727498Y-1204061D01*
X4726076Y-1206246D01*
X4723282Y-1209192D01*
X4719523Y-1210818D01*
X4715459Y-1210818D01*
X4711700Y-1209192D01*
X4708906Y-1206246D01*
X4707483Y-1204061D01*
X4703470Y-1199997D01*
X4698593Y-1196949D01*
X4693208Y-1195070D01*
X4685334Y-1194358D01*
X4681474Y-1193596D01*
X4678172Y-1191412D01*
X4675987Y-1188110D01*
X4675174Y-1184249D01*
X4674209Y-1060602D01*
X4674971Y-1056690D01*
X4677156Y-1053338D01*
X4678476Y-1052068D01*
X4684064Y-1044041D01*
X4688230Y-1035202D01*
X4690719Y-1025753D01*
X4691583Y-1016000D01*
X4690719Y-1006246D01*
X4688230Y-996797D01*
X4684064Y-987958D01*
X4678476Y-979932D01*
X4671568Y-973023D01*
X4663541Y-967435D01*
X4654702Y-963269D01*
X4645253Y-960780D01*
X4635500Y-959916D01*
X4625746Y-960780D01*
X4616297Y-963269D01*
X4607458Y-967435D01*
X4599432Y-973023D01*
X4592523Y-979932D01*
X4586935Y-987958D01*
X4582769Y-996797D01*
X4580280Y-1006246D01*
X4579416Y-1016000D01*
X4580280Y-1025753D01*
X4582769Y-1035202D01*
X4586935Y-1044041D01*
X4592523Y-1052068D01*
X4594504Y-1054049D01*
X4596688Y-1057300D01*
X4597501Y-1061161D01*
X4598466Y-1184097D01*
X4597806Y-1187754D01*
X4595876Y-1190955D01*
X4592929Y-1193241D01*
X4589322Y-1194308D01*
X4581753Y-1195070D01*
X4576419Y-1196949D01*
X4571542Y-1199997D01*
X4567478Y-1204061D01*
X4564430Y-1208887D01*
X4562551Y-1214323D01*
X4561840Y-1220571D01*
X4561840Y-1329436D01*
X4562551Y-1335684D01*
X4564430Y-1341120D01*
X4567478Y-1345946D01*
X4571542Y-1350010D01*
X4576419Y-1353058D01*
X4581804Y-1354937D01*
X4588052Y-1355648D01*
X4686909Y-1355648D01*
X4693208Y-1354937D01*
X4698593Y-1353058D01*
X4703470Y-1350010D01*
X4707483Y-1345946D01*
X4708906Y-1343761D01*
X4711700Y-1340815D01*
X4715459Y-1339189D01*
X4719523Y-1339189D01*
X4723282Y-1340815D01*
X4726076Y-1343761D01*
X4727498Y-1345946D01*
X4731512Y-1350010D01*
X4736388Y-1353058D01*
X4741773Y-1354937D01*
X4748072Y-1355648D01*
X4765903Y-1355648D01*
X4769764Y-1356410D01*
X4773066Y-1358646D01*
X4775301Y-1361948D01*
X4776063Y-1365808D01*
X4776063Y-1439265D01*
X4775301Y-1443177D01*
X4773066Y-1446479D01*
X4769764Y-1448663D01*
X4765903Y-1449425D01*
X4757928Y-1449425D01*
X4751679Y-1450136D01*
X4746294Y-1452016D01*
X4741418Y-1455064D01*
X4737354Y-1459128D01*
X4734306Y-1464005D01*
X4732426Y-1469390D01*
X4731715Y-1475689D01*
X4731715Y-1584502D01*
X4732426Y-1590802D01*
X4734306Y-1596186D01*
X4737354Y-1601063D01*
X4741418Y-1605127D01*
X4746294Y-1608175D01*
X4751679Y-1610055D01*
X4757928Y-1610766D01*
X4765903Y-1610766D01*
X4769764Y-1611528D01*
X4773066Y-1613712D01*
X4775301Y-1617014D01*
X4776063Y-1620926D01*
X4776063Y-1694180D01*
X4775301Y-1698091D01*
X4773066Y-1701393D01*
X4769764Y-1703578D01*
X4765903Y-1704339D01*
X4748072Y-1704339D01*
X4741824Y-1705051D01*
X4736388Y-1706930D01*
X4731562Y-1709978D01*
X4727498Y-1714042D01*
X4726127Y-1716227D01*
X4723282Y-1719173D01*
X4719523Y-1720799D01*
X4715459Y-1720799D01*
X4711700Y-1719173D01*
X4708906Y-1716227D01*
X4707534Y-1714042D01*
X4703470Y-1709978D01*
X4698593Y-1706930D01*
X4693208Y-1705051D01*
X4686960Y-1704339D01*
X4588052Y-1704339D01*
X4581804Y-1705051D01*
X4576419Y-1706930D01*
X4571542Y-1709978D01*
X4567478Y-1714042D01*
X4564430Y-1718919D01*
X4562551Y-1724304D01*
X4562144Y-1728063D01*
X4561078Y-1731619D01*
X4558792Y-1734515D01*
X4555642Y-1736445D01*
X4552035Y-1737106D01*
X3607968Y-1737106D01*
X3604361Y-1736445D01*
X3601212Y-1734515D01*
X3598926Y-1731619D01*
X3597859Y-1728063D01*
X3597452Y-1724304D01*
X3595573Y-1718919D01*
X3592474Y-1714042D01*
X3588461Y-1709978D01*
X3583584Y-1706930D01*
X3578199Y-1705051D01*
X3571544Y-1704289D01*
X3568039Y-1703222D01*
X3565093Y-1700987D01*
X3563213Y-1697837D01*
X3562553Y-1694230D01*
X3562553Y-1620774D01*
X3563213Y-1617167D01*
X3565093Y-1614017D01*
X3568039Y-1611782D01*
X3571544Y-1610715D01*
X3578199Y-1609953D01*
X3583584Y-1608074D01*
X3588461Y-1605026D01*
X3592474Y-1600962D01*
X3595573Y-1596085D01*
X3597452Y-1590700D01*
X3598164Y-1584452D01*
X3598164Y-1475587D01*
X3597452Y-1469288D01*
X3595573Y-1463903D01*
X3592474Y-1459026D01*
X3588461Y-1455013D01*
X3583584Y-1451965D01*
X3578199Y-1450035D01*
X3571900Y-1449324D01*
X3490163Y-1449324D01*
X3486251Y-1448562D01*
X3482949Y-1446377D01*
X3480765Y-1443075D01*
X3480003Y-1439164D01*
X3480003Y-1365808D01*
X3480765Y-1361948D01*
X3482949Y-1358646D01*
X3486251Y-1356410D01*
X3490163Y-1355648D01*
X3571951Y-1355648D01*
X3578199Y-1354937D01*
X3583584Y-1353058D01*
X3588461Y-1350010D01*
X3592525Y-1345946D01*
X3595573Y-1341120D01*
X3597452Y-1335684D01*
X3598164Y-1329436D01*
X3598164Y-1323543D01*
X3598926Y-1319631D01*
X3601110Y-1316329D01*
X3604412Y-1314145D01*
X3608324Y-1313383D01*
X3652113Y-1313383D01*
X3660089Y-1312570D01*
X3667251Y-1310386D01*
X3673906Y-1306830D01*
X3680053Y-1301750D01*
X3811371Y-1170482D01*
X3816451Y-1164285D01*
X3820007Y-1157681D01*
X3822192Y-1150467D01*
X3822954Y-1142492D01*
X3822954Y-781507D01*
X3823715Y-777595D01*
X3825951Y-774293D01*
X3827576Y-772668D01*
X3833164Y-764641D01*
X3837330Y-755802D01*
X3839819Y-746353D01*
X3840683Y-736600D01*
X3839819Y-726846D01*
X3837330Y-717397D01*
X3833164Y-708558D01*
X3827576Y-700532D01*
X3820668Y-693623D01*
X3812641Y-688035D01*
X3803802Y-683869D01*
X3794353Y-681380D01*
X3784600Y-680516D01*
X3774846Y-681380D01*
X3765397Y-683869D01*
X3756558Y-688035D01*
X3748532Y-693623D01*
X3741623Y-700532D01*
X3736035Y-708558D01*
X3731869Y-717397D01*
X3729380Y-726846D01*
X3728516Y-736600D01*
X3729380Y-746353D01*
X3731869Y-755802D01*
X3736035Y-764641D01*
X3741623Y-772668D01*
X3743248Y-774293D01*
X3745484Y-777595D01*
X3746246Y-781507D01*
X3746246Y-1122934D01*
X3745484Y-1126794D01*
X3743248Y-1130096D01*
X3639667Y-1233678D01*
X3636416Y-1235862D01*
X3632504Y-1236675D01*
X3608324Y-1236675D01*
X3604412Y-1235862D01*
X3601110Y-1233678D01*
X3598926Y-1230376D01*
X3598164Y-1226515D01*
X3598164Y-1220571D01*
X3597452Y-1214323D01*
X3595573Y-1208887D01*
X3592525Y-1204061D01*
X3588461Y-1199997D01*
X3583584Y-1196949D01*
X3578199Y-1195070D01*
X3571951Y-1194358D01*
X3473043Y-1194358D01*
X3466795Y-1195070D01*
X3461410Y-1196949D01*
X3456533Y-1199997D01*
X3452469Y-1204061D01*
X3451098Y-1206246D01*
X3448304Y-1209192D01*
X3444544Y-1210818D01*
X3440480Y-1210818D01*
X3436721Y-1209192D01*
X3433876Y-1206246D01*
X3432505Y-1204061D01*
X3428441Y-1199997D01*
X3423615Y-1196949D01*
X3418179Y-1195070D01*
X3410204Y-1194358D01*
X3406292Y-1193596D01*
X3403041Y-1191361D01*
X3400806Y-1188059D01*
X3400044Y-1184198D01*
X3400044Y-1110030D01*
X3400907Y-1105916D01*
X3403346Y-1102512D01*
X3406952Y-1100378D01*
X3413709Y-1098092D01*
X3418484Y-1095095D01*
X3422548Y-1091031D01*
X3425596Y-1086154D01*
X3427476Y-1080770D01*
X3428187Y-1074470D01*
X3428187Y-965657D01*
X3427476Y-959358D01*
X3425596Y-953973D01*
X3422548Y-949096D01*
X3418484Y-945032D01*
X3413658Y-941984D01*
X3408222Y-940104D01*
X3401974Y-939393D01*
X3303117Y-939393D01*
X3296869Y-940104D01*
X3291433Y-941984D01*
X3286607Y-945032D01*
X3282543Y-949096D01*
X3279495Y-953973D01*
X3277615Y-959358D01*
X3276904Y-965657D01*
X3276904Y-1074470D01*
X3277615Y-1081074D01*
X3277209Y-1085291D01*
X3276142Y-1087170D01*
X3278022Y-1087475D01*
X3281527Y-1089863D01*
X3286658Y-1095095D01*
X3291433Y-1098143D01*
X3296869Y-1100023D01*
X3303117Y-1100734D01*
X3313176Y-1100734D01*
X3317087Y-1101496D01*
X3320338Y-1103680D01*
X3322574Y-1106982D01*
X3323336Y-1110894D01*
X3323336Y-1184198D01*
X3322675Y-1187856D01*
X3320745Y-1191006D01*
X3317798Y-1193241D01*
X3314242Y-1194308D01*
X3306775Y-1195070D01*
X3301390Y-1196949D01*
X3296564Y-1199997D01*
X3292500Y-1204061D01*
X3289452Y-1208887D01*
X3287572Y-1214323D01*
X3286861Y-1220571D01*
X3286861Y-1329436D01*
X3287572Y-1335684D01*
X3289452Y-1341120D01*
X3292398Y-1345844D01*
X3293872Y-1349857D01*
X3293567Y-1354124D01*
X3291535Y-1357884D01*
X3288131Y-1360424D01*
X3286658Y-1361135D01*
X3278632Y-1366723D01*
X3271723Y-1373632D01*
X3266135Y-1381658D01*
X3261969Y-1390497D01*
X3259480Y-1399946D01*
X3258616Y-1409700D01*
X3259480Y-1419453D01*
X3261969Y-1428902D01*
X3266135Y-1437741D01*
X3271723Y-1445768D01*
X3278632Y-1452676D01*
X3284169Y-1456537D01*
X3287115Y-1459738D01*
X3288436Y-1463903D01*
X3287572Y-1469288D01*
X3286810Y-1476552D01*
X3285744Y-1480108D01*
X3283458Y-1483055D01*
X3280308Y-1484985D01*
X3276701Y-1485646D01*
X2445816Y-1485646D01*
X2441905Y-1484884D01*
X2438603Y-1482648D01*
X2344115Y-1388160D01*
X2341880Y-1384858D01*
X2341118Y-1380947D01*
X2341118Y-406806D01*
X2341930Y-402894D01*
X2344166Y-399592D01*
X2347518Y-397357D01*
X2351938Y-395630D01*
X2364689Y-388620D01*
X2376424Y-380085D01*
X2386990Y-370179D01*
X2396286Y-358952D01*
X2404059Y-346710D01*
X2410206Y-333552D01*
X2414727Y-319786D01*
X2417419Y-305511D01*
X2418334Y-291033D01*
X2417419Y-276504D01*
X2414727Y-262229D01*
X2410206Y-248462D01*
X2404059Y-235305D01*
X2396286Y-223062D01*
X2386990Y-211836D01*
X2376424Y-201930D01*
X2364689Y-193395D01*
X2351938Y-186385D01*
X2338425Y-181051D01*
X2324404Y-177444D01*
X2309977Y-175615D01*
X2295448Y-175615D01*
X2281021Y-177444D01*
X2267000Y-181051D01*
X2253488Y-186385D01*
X2240737Y-193395D01*
X2229002Y-201930D01*
X2218436Y-211836D01*
X2209139Y-223062D01*
X2201367Y-235305D01*
X2195220Y-248462D01*
X2190699Y-262229D01*
X2188006Y-276504D01*
X2187092Y-291033D01*
X2188006Y-305511D01*
X2190699Y-319786D01*
X2195220Y-333552D01*
X2201367Y-346710D01*
X2209139Y-358952D01*
X2218436Y-370179D01*
X2229002Y-380085D01*
X2240737Y-388620D01*
X2253488Y-395630D01*
X2258009Y-397408D01*
X2261362Y-399592D01*
X2263597Y-402945D01*
X2264410Y-406857D01*
X2264410Y-1400556D01*
X2265172Y-1408531D01*
X2267356Y-1415745D01*
X2270912Y-1422349D01*
X2275992Y-1428546D01*
X2398217Y-1550771D01*
X2404414Y-1555851D01*
X2411018Y-1559407D01*
X2418232Y-1561592D01*
X2426208Y-1562354D01*
X3276701Y-1562354D01*
X3280562Y-1563116D01*
X3283864Y-1565351D01*
X3286099Y-1568602D01*
X3286861Y-1572514D01*
X3286861Y-1584452D01*
X3287572Y-1590700D01*
X3289452Y-1596085D01*
X3292500Y-1600962D01*
X3296564Y-1605026D01*
X3301390Y-1608074D01*
X3306826Y-1609953D01*
X3313074Y-1610664D01*
X3393135Y-1610664D01*
X3396996Y-1611426D01*
X3400298Y-1613611D01*
X3402482Y-1616913D01*
X3403295Y-1620824D01*
X3403295Y-1677924D01*
X3402482Y-1681784D01*
X3400298Y-1685086D01*
X3384042Y-1701393D01*
X3380740Y-1703578D01*
X3376828Y-1704339D01*
X3313074Y-1704339D01*
X3306826Y-1705051D01*
X3301390Y-1706930D01*
X3296564Y-1709978D01*
X3292500Y-1714042D01*
X3289452Y-1718919D01*
X3287572Y-1724304D01*
X3286861Y-1730552D01*
X3286861Y-1742186D01*
X3286099Y-1746097D01*
X3283864Y-1749348D01*
X3280562Y-1751584D01*
X3276701Y-1752346D01*
X3004616Y-1752346D01*
X3000705Y-1751584D01*
X2997403Y-1749348D01*
X2962198Y-1714144D01*
X2956001Y-1709064D01*
X2949397Y-1705508D01*
X2942183Y-1703324D01*
X2934208Y-1702562D01*
X2918612Y-1702562D01*
X2914904Y-1701850D01*
X2911652Y-1699818D01*
X2909417Y-1696720D01*
X2904032Y-1685289D01*
X2896260Y-1673047D01*
X2887014Y-1661820D01*
X2876397Y-1651914D01*
X2864662Y-1643380D01*
X2851962Y-1636369D01*
X2838450Y-1631035D01*
X2824378Y-1627428D01*
X2809951Y-1625600D01*
X2795473Y-1625600D01*
X2781046Y-1627428D01*
X2766974Y-1631035D01*
X2753461Y-1636369D01*
X2740761Y-1643380D01*
X2729026Y-1651914D01*
X2718409Y-1661820D01*
X2709164Y-1673047D01*
X2701391Y-1685289D01*
X2695194Y-1698447D01*
X2690723Y-1712214D01*
X2687980Y-1726488D01*
X2687066Y-1741017D01*
X2687980Y-1755495D01*
X2690723Y-1769770D01*
X2695194Y-1783537D01*
X2701391Y-1796694D01*
X2709164Y-1808937D01*
X2721813Y-1824380D01*
X2722676Y-1828342D01*
X2721965Y-1832254D01*
X2719781Y-1835657D01*
X2716428Y-1837893D01*
X2712516Y-1838706D01*
X2642920Y-1838706D01*
X2638958Y-1837893D01*
X2635656Y-1835657D01*
X2633472Y-1832254D01*
X2632760Y-1828342D01*
X2633624Y-1824380D01*
X2646273Y-1808937D01*
X2654046Y-1796694D01*
X2656078Y-1792325D01*
X2604058Y-1792325D01*
X2604058Y-1828546D01*
X2603296Y-1832406D01*
X2601061Y-1835708D01*
X2597759Y-1837943D01*
X2593898Y-1838706D01*
X2511501Y-1838706D01*
X2507640Y-1837943D01*
X2504338Y-1835708D01*
X2502103Y-1832406D01*
X2501341Y-1828546D01*
X2501341Y-1792325D01*
X2449322Y-1792325D01*
X2451354Y-1796694D01*
X2459126Y-1808937D01*
X2471775Y-1824380D01*
X2472639Y-1828342D01*
X2471928Y-1832254D01*
X2469743Y-1835657D01*
X2466441Y-1837893D01*
X2462479Y-1838706D01*
X2392934Y-1838706D01*
X2388971Y-1837893D01*
X2385669Y-1835657D01*
X2383485Y-1832254D01*
X2382774Y-1828342D01*
X2383637Y-1824380D01*
X2396286Y-1808937D01*
X2404059Y-1796694D01*
X2410206Y-1783537D01*
X2414727Y-1769770D01*
X2417419Y-1755495D01*
X2418334Y-1741017D01*
X2417419Y-1726488D01*
X2414727Y-1712214D01*
X2410206Y-1698447D01*
X2404059Y-1685289D01*
X2396286Y-1673047D01*
X2386990Y-1661820D01*
X2376424Y-1651914D01*
X2364689Y-1643380D01*
X2351938Y-1636369D01*
X2338425Y-1631035D01*
X2324404Y-1627428D01*
X2309977Y-1625600D01*
X2295448Y-1625600D01*
X2281021Y-1627428D01*
X2267000Y-1631035D01*
X2253488Y-1636369D01*
X2240737Y-1643380D01*
X2229002Y-1651914D01*
X2218436Y-1661820D01*
X2209139Y-1673047D01*
X2201367Y-1685289D01*
X2195982Y-1696720D01*
X2193747Y-1699818D01*
X2190546Y-1701850D01*
X2186787Y-1702562D01*
X2171192Y-1702562D01*
X2163216Y-1703324D01*
X2156002Y-1705508D01*
X2149398Y-1709064D01*
X2143201Y-1714144D01*
X2107996Y-1749348D01*
X2104694Y-1751584D01*
X2100783Y-1752346D01*
X1823313Y-1752346D01*
X1819402Y-1751584D01*
X1816150Y-1749348D01*
X1813915Y-1746097D01*
X1813153Y-1742186D01*
X1813153Y-1730552D01*
X1812442Y-1724304D01*
X1810562Y-1718919D01*
X1807514Y-1714042D01*
X1803450Y-1709978D01*
X1799386Y-1707438D01*
X1796846Y-1705152D01*
X1795170Y-1702206D01*
X1794611Y-1698853D01*
X1794611Y-1620062D01*
X1795475Y-1615948D01*
X1797964Y-1612544D01*
X1801571Y-1610461D01*
X1808632Y-1608124D01*
X1813407Y-1605127D01*
X1817471Y-1601063D01*
X1820519Y-1596186D01*
X1822399Y-1590802D01*
X1823110Y-1584502D01*
X1823110Y-1475689D01*
X1822399Y-1469390D01*
X1820519Y-1464005D01*
X1817471Y-1459128D01*
X1813407Y-1455064D01*
X1808632Y-1452067D01*
X1801571Y-1449730D01*
X1797964Y-1447647D01*
X1795475Y-1444244D01*
X1794611Y-1440129D01*
X1794611Y-1361186D01*
X1795170Y-1357833D01*
X1796846Y-1354836D01*
X1799386Y-1352550D01*
X1803450Y-1350010D01*
X1807514Y-1345946D01*
X1810562Y-1341120D01*
X1812442Y-1335684D01*
X1813153Y-1329436D01*
X1813153Y-1220571D01*
X1812442Y-1214323D01*
X1810562Y-1208887D01*
X1807514Y-1204061D01*
X1803450Y-1199997D01*
X1798574Y-1196949D01*
X1793189Y-1195070D01*
X1786940Y-1194358D01*
X1688084Y-1194358D01*
X1681784Y-1195070D01*
X1676400Y-1196949D01*
X1671523Y-1199997D01*
X1667510Y-1204061D01*
X1666087Y-1206246D01*
X1663293Y-1209192D01*
X1659534Y-1210818D01*
X1655470Y-1210818D01*
X1651711Y-1209192D01*
X1648917Y-1206246D01*
X1647494Y-1204061D01*
X1643481Y-1199997D01*
X1638604Y-1196949D01*
X1633220Y-1195070D01*
X1626006Y-1194358D01*
X1622094Y-1193596D01*
X1618843Y-1191361D01*
X1616608Y-1188059D01*
X1615846Y-1184198D01*
X1615846Y-702411D01*
X1616303Y-699363D01*
X1617675Y-696569D01*
X1623364Y-688441D01*
X1627530Y-679602D01*
X1630019Y-670153D01*
X1630883Y-660400D01*
X1630019Y-650646D01*
X1627530Y-641197D01*
X1623364Y-632358D01*
X1617776Y-624332D01*
X1610868Y-617423D01*
X1602841Y-611835D01*
X1594002Y-607669D01*
X1584553Y-605180D01*
X1574800Y-604316D01*
X1565046Y-605180D01*
X1555597Y-607669D01*
X1546758Y-611835D01*
X1538732Y-617423D01*
X1531823Y-624332D01*
X1526235Y-632358D01*
X1522069Y-641197D01*
X1519580Y-650646D01*
X1518716Y-660400D01*
X1519580Y-670153D01*
X1522069Y-679602D01*
X1526235Y-688441D01*
X1531823Y-696468D01*
X1536141Y-700786D01*
X1538376Y-704088D01*
X1539138Y-707999D01*
X1539138Y-1184198D01*
X1538376Y-1188059D01*
X1536141Y-1191361D01*
X1532890Y-1193596D01*
X1521815Y-1195070D01*
X1516380Y-1196949D01*
X1511554Y-1199997D01*
X1507490Y-1204061D01*
X1504442Y-1208887D01*
X1502562Y-1214323D01*
X1501851Y-1220571D01*
X1501851Y-1329436D01*
X1502562Y-1335684D01*
X1504442Y-1341120D01*
X1507490Y-1345946D01*
X1511554Y-1350010D01*
X1516380Y-1353058D01*
X1521815Y-1354937D01*
X1528064Y-1355648D01*
X1626920Y-1355648D01*
X1633220Y-1354937D01*
X1638604Y-1353058D01*
X1643481Y-1350010D01*
X1647494Y-1345946D01*
X1648917Y-1343761D01*
X1651711Y-1340815D01*
X1655470Y-1339189D01*
X1659534Y-1339189D01*
X1663293Y-1340815D01*
X1666087Y-1343761D01*
X1667510Y-1345946D01*
X1671523Y-1350010D01*
X1676400Y-1353058D01*
X1681784Y-1354937D01*
X1688084Y-1355648D01*
X1702663Y-1355648D01*
X1706524Y-1356410D01*
X1709826Y-1358646D01*
X1712061Y-1361948D01*
X1712823Y-1365808D01*
X1712823Y-1439265D01*
X1712061Y-1443177D01*
X1709826Y-1446479D01*
X1706524Y-1448663D01*
X1702663Y-1449425D01*
X1697989Y-1449425D01*
X1691741Y-1450136D01*
X1686356Y-1452016D01*
X1681480Y-1455064D01*
X1677416Y-1459128D01*
X1674368Y-1464005D01*
X1672488Y-1469390D01*
X1671777Y-1475689D01*
X1671777Y-1584502D01*
X1672488Y-1590802D01*
X1674368Y-1596186D01*
X1677416Y-1601063D01*
X1681480Y-1605127D01*
X1686356Y-1608175D01*
X1691741Y-1610055D01*
X1697989Y-1610766D01*
X1702663Y-1610766D01*
X1706524Y-1611528D01*
X1709826Y-1613712D01*
X1712061Y-1617014D01*
X1712823Y-1620926D01*
X1712823Y-1694180D01*
X1712061Y-1698091D01*
X1709826Y-1701393D01*
X1706524Y-1703578D01*
X1702663Y-1704339D01*
X1688084Y-1704339D01*
X1681784Y-1705051D01*
X1676400Y-1706930D01*
X1671523Y-1709978D01*
X1667510Y-1714042D01*
X1666087Y-1716227D01*
X1663293Y-1719173D01*
X1659534Y-1720799D01*
X1655470Y-1720799D01*
X1651711Y-1719173D01*
X1648917Y-1716227D01*
X1647494Y-1714042D01*
X1643481Y-1709978D01*
X1638604Y-1706930D01*
X1633220Y-1705051D01*
X1626920Y-1704339D01*
X1528064Y-1704339D01*
X1521815Y-1705051D01*
X1516380Y-1706930D01*
X1511554Y-1709978D01*
X1507490Y-1714042D01*
X1504442Y-1718919D01*
X1502562Y-1724304D01*
X1502156Y-1728063D01*
X1501089Y-1731619D01*
X1498803Y-1734515D01*
X1495653Y-1736445D01*
X1492046Y-1737106D01*
X673862Y-1737106D01*
X670001Y-1736343D01*
X666699Y-1734108D01*
X664464Y-1730806D01*
X663702Y-1726946D01*
X663702Y-1723593D01*
X662990Y-1717293D01*
X661111Y-1711909D01*
X658063Y-1707032D01*
X653999Y-1702968D01*
X649173Y-1699920D01*
X643737Y-1698040D01*
X637489Y-1697329D01*
X538632Y-1697329D01*
X532384Y-1698040D01*
X526948Y-1699920D01*
X522122Y-1702968D01*
X518058Y-1707032D01*
X516686Y-1709267D01*
X513842Y-1712214D01*
X510082Y-1713788D01*
X506018Y-1713788D01*
X502259Y-1712214D01*
X499465Y-1709267D01*
X498093Y-1707032D01*
X494030Y-1702968D01*
X489153Y-1699920D01*
X483768Y-1698040D01*
X476605Y-1697329D01*
X472693Y-1696567D01*
X469392Y-1694383D01*
X467207Y-1691081D01*
X466445Y-1687169D01*
X466445Y-1591716D01*
X465683Y-1584147D01*
X463600Y-1576882D01*
X460095Y-1570228D01*
X455066Y-1563979D01*
X360578Y-1467764D01*
X358394Y-1464513D01*
X357632Y-1460652D01*
X357632Y-1334058D01*
X356920Y-1327810D01*
X355041Y-1322374D01*
X351993Y-1317548D01*
X347929Y-1313484D01*
X343103Y-1310436D01*
X337667Y-1308557D01*
X331419Y-1307846D01*
X234543Y-1307846D01*
X228295Y-1308557D01*
X222910Y-1310436D01*
X218033Y-1313484D01*
X213969Y-1317548D01*
X210921Y-1322374D01*
X209042Y-1327810D01*
X208330Y-1334058D01*
X208330Y-1552905D01*
X209042Y-1559204D01*
X210921Y-1564589D01*
X213969Y-1569466D01*
X218033Y-1573479D01*
X222910Y-1576527D01*
X228295Y-1578457D01*
X234543Y-1579168D01*
X331419Y-1579168D01*
X337667Y-1578457D01*
X343103Y-1576527D01*
X346557Y-1574393D01*
X349707Y-1573072D01*
X353161Y-1572869D01*
X356412Y-1573834D01*
X359206Y-1575866D01*
X386791Y-1603959D01*
X388975Y-1607210D01*
X389737Y-1611071D01*
X389737Y-1687169D01*
X388924Y-1691081D01*
X386740Y-1694383D01*
X383438Y-1696567D01*
X372364Y-1698040D01*
X366979Y-1699920D01*
X362102Y-1702968D01*
X358038Y-1707032D01*
X354990Y-1711909D01*
X353110Y-1717293D01*
X352399Y-1723593D01*
X352399Y-1798929D01*
X351637Y-1802841D01*
X349453Y-1806143D01*
X322122Y-1833422D01*
X319278Y-1835454D01*
X315823Y-1836369D01*
X307746Y-1837080D01*
X298297Y-1839569D01*
X289458Y-1843735D01*
X281432Y-1849323D01*
X274523Y-1856232D01*
X268935Y-1864258D01*
X264769Y-1873097D01*
X262280Y-1882546D01*
X261416Y-1892300D01*
X262280Y-1902053D01*
X264769Y-1911502D01*
X268935Y-1920341D01*
X274523Y-1928368D01*
X281432Y-1935276D01*
X289458Y-1940864D01*
X298297Y-1945030D01*
X307746Y-1947519D01*
G37*
G36*
X13311327Y-1693621D02*
G01*
X13363397Y-1693621D01*
X13361314Y-1689303D01*
X13353542Y-1677009D01*
X13344296Y-1665833D01*
X13333730Y-1655876D01*
X13321944Y-1647342D01*
X13311327Y-1641551D01*
G37*
G36*
X8211362Y-1693621D02*
G01*
X8263381Y-1693621D01*
X8261350Y-1689303D01*
X8253526Y-1677009D01*
X8244281Y-1665833D01*
X8233714Y-1655876D01*
X8221980Y-1647342D01*
X8211362Y-1641551D01*
G37*
G36*
X10761370Y-1693621D02*
G01*
X10813389Y-1693621D01*
X10811306Y-1689303D01*
X10803534Y-1677009D01*
X10794288Y-1665833D01*
X10783722Y-1655876D01*
X10771936Y-1647342D01*
X10761370Y-1641551D01*
G37*
G36*
X10606633Y-1693621D02*
G01*
X10658652Y-1693621D01*
X10658652Y-1641551D01*
X10648035Y-1647342D01*
X10636300Y-1655876D01*
X10625683Y-1665833D01*
X10616438Y-1677009D01*
X10608665Y-1689303D01*
G37*
G36*
X13156641Y-1693621D02*
G01*
X13208660Y-1693621D01*
X13208660Y-1641551D01*
X13198043Y-1647342D01*
X13186308Y-1655876D01*
X13175691Y-1665833D01*
X13166445Y-1677009D01*
X13158673Y-1689303D01*
G37*
G36*
X8056625Y-1693621D02*
G01*
X8108645Y-1693621D01*
X8108645Y-1641551D01*
X8098028Y-1647342D01*
X8086293Y-1655876D01*
X8075726Y-1665833D01*
X8066430Y-1677009D01*
X8058658Y-1689303D01*
G37*
G36*
X2604058Y-1689658D02*
G01*
X2656078Y-1689658D01*
X2654046Y-1685289D01*
X2646273Y-1673047D01*
X2636977Y-1661820D01*
X2626410Y-1651914D01*
X2614676Y-1643380D01*
X2604058Y-1637538D01*
G37*
G36*
X5664758Y-1689658D02*
G01*
X5716778Y-1689658D01*
X5714746Y-1685289D01*
X5706973Y-1673047D01*
X5697677Y-1661820D01*
X5687110Y-1651914D01*
X5675376Y-1643380D01*
X5664758Y-1637538D01*
G37*
G36*
X5510022Y-1689658D02*
G01*
X5562041Y-1689658D01*
X5562041Y-1637538D01*
X5551424Y-1643380D01*
X5539689Y-1651914D01*
X5529122Y-1661820D01*
X5519826Y-1673047D01*
X5512054Y-1685289D01*
G37*
G36*
X2449322Y-1689658D02*
G01*
X2501341Y-1689658D01*
X2501341Y-1637538D01*
X2490724Y-1643380D01*
X2478989Y-1651914D01*
X2468422Y-1661820D01*
X2459126Y-1673047D01*
X2451354Y-1685289D01*
G37*
G36*
X1598777Y-1610766D02*
G01*
X1616862Y-1610766D01*
X1623110Y-1610055D01*
X1628546Y-1608175D01*
X1633372Y-1605127D01*
X1637436Y-1601063D01*
X1640484Y-1596186D01*
X1642414Y-1590802D01*
X1643075Y-1584502D01*
X1643075Y-1563928D01*
X1598777Y-1563928D01*
G37*
G36*
X1518005Y-1610766D02*
G01*
X1536090Y-1610766D01*
X1536090Y-1563928D01*
X1491792Y-1563928D01*
X1491792Y-1584502D01*
X1492504Y-1590802D01*
X1494383Y-1596186D01*
X1497431Y-1601063D01*
X1501495Y-1605127D01*
X1506321Y-1608175D01*
X1511757Y-1610055D01*
G37*
G36*
X4658715Y-1610766D02*
G01*
X4676800Y-1610766D01*
X4683048Y-1610055D01*
X4688484Y-1608175D01*
X4693310Y-1605127D01*
X4697374Y-1601063D01*
X4700422Y-1596186D01*
X4702352Y-1590802D01*
X4703013Y-1584502D01*
X4703013Y-1563928D01*
X4658715Y-1563928D01*
G37*
G36*
X12308941Y-1610766D02*
G01*
X12327026Y-1610766D01*
X12333274Y-1610055D01*
X12338710Y-1608175D01*
X12343536Y-1605127D01*
X12347600Y-1601063D01*
X12350648Y-1596186D01*
X12352578Y-1590802D01*
X12353239Y-1584502D01*
X12353239Y-1563928D01*
X12308941Y-1563928D01*
G37*
G36*
X7128103Y-1610766D02*
G01*
X7146188Y-1610766D01*
X7146188Y-1563928D01*
X7101890Y-1563928D01*
X7101890Y-1584502D01*
X7102602Y-1590802D01*
X7104481Y-1596186D01*
X7107529Y-1601063D01*
X7111593Y-1605127D01*
X7116419Y-1608175D01*
X7121855Y-1610055D01*
G37*
G36*
X7208875Y-1610766D02*
G01*
X7226960Y-1610766D01*
X7233208Y-1610055D01*
X7238644Y-1608175D01*
X7243470Y-1605127D01*
X7247534Y-1601063D01*
X7250582Y-1596186D01*
X7252512Y-1590802D01*
X7253173Y-1584502D01*
X7253173Y-1563928D01*
X7208875Y-1563928D01*
G37*
G36*
X9678009Y-1610766D02*
G01*
X9696094Y-1610766D01*
X9696094Y-1563928D01*
X9651796Y-1563928D01*
X9651796Y-1584502D01*
X9652508Y-1590802D01*
X9654387Y-1596186D01*
X9657435Y-1601063D01*
X9661499Y-1605127D01*
X9666325Y-1608175D01*
X9671761Y-1610055D01*
G37*
G36*
X12228169Y-1610766D02*
G01*
X12246254Y-1610766D01*
X12246254Y-1563928D01*
X12201956Y-1563928D01*
X12201956Y-1584502D01*
X12202668Y-1590802D01*
X12204547Y-1596186D01*
X12207595Y-1601063D01*
X12211659Y-1605127D01*
X12216485Y-1608175D01*
X12221921Y-1610055D01*
G37*
G36*
X9758781Y-1610766D02*
G01*
X9776866Y-1610766D01*
X9783114Y-1610055D01*
X9788550Y-1608175D01*
X9793376Y-1605127D01*
X9797440Y-1601063D01*
X9800488Y-1596186D01*
X9802418Y-1590802D01*
X9803079Y-1584502D01*
X9803079Y-1563928D01*
X9758781Y-1563928D01*
G37*
G36*
X4577943Y-1610766D02*
G01*
X4596028Y-1610766D01*
X4596028Y-1563928D01*
X4551730Y-1563928D01*
X4551730Y-1584502D01*
X4552442Y-1590802D01*
X4554321Y-1596186D01*
X4557369Y-1601063D01*
X4561433Y-1605127D01*
X4566259Y-1608175D01*
X4571695Y-1610055D01*
G37*
G36*
X763828Y-1579168D02*
G01*
X781405Y-1579168D01*
X787704Y-1578457D01*
X793089Y-1576527D01*
X797966Y-1573479D01*
X801979Y-1569466D01*
X805027Y-1564589D01*
X806958Y-1559204D01*
X807669Y-1552905D01*
X807669Y-1504848D01*
X763828Y-1504848D01*
G37*
G36*
X684580Y-1579168D02*
G01*
X702157Y-1579168D01*
X702157Y-1504848D01*
X658317Y-1504848D01*
X658317Y-1552905D01*
X659028Y-1559204D01*
X660958Y-1564589D01*
X664006Y-1569466D01*
X668020Y-1573479D01*
X672896Y-1576527D01*
X678281Y-1578457D01*
G37*
G36*
X1491792Y-1496263D02*
G01*
X1536090Y-1496263D01*
X1536090Y-1449425D01*
X1518005Y-1449425D01*
X1511757Y-1450136D01*
X1506321Y-1452016D01*
X1501495Y-1455064D01*
X1497431Y-1459128D01*
X1494383Y-1464005D01*
X1492504Y-1469390D01*
X1491792Y-1475689D01*
G37*
G36*
X1598777Y-1496263D02*
G01*
X1643075Y-1496263D01*
X1643075Y-1475689D01*
X1642414Y-1469390D01*
X1640484Y-1464005D01*
X1637436Y-1459128D01*
X1633372Y-1455064D01*
X1628546Y-1452016D01*
X1623110Y-1450136D01*
X1616862Y-1449425D01*
X1598777Y-1449425D01*
G37*
G36*
X7208875Y-1496263D02*
G01*
X7253173Y-1496263D01*
X7253173Y-1475689D01*
X7252512Y-1469390D01*
X7250582Y-1464005D01*
X7247534Y-1459128D01*
X7243470Y-1455064D01*
X7238644Y-1452016D01*
X7233208Y-1450136D01*
X7226960Y-1449425D01*
X7208875Y-1449425D01*
G37*
G36*
X4551730Y-1496263D02*
G01*
X4596028Y-1496263D01*
X4596028Y-1449425D01*
X4577943Y-1449425D01*
X4571695Y-1450136D01*
X4566259Y-1452016D01*
X4561433Y-1455064D01*
X4557369Y-1459128D01*
X4554321Y-1464005D01*
X4552442Y-1469390D01*
X4551730Y-1475689D01*
G37*
G36*
X12201956Y-1496263D02*
G01*
X12246254Y-1496263D01*
X12246254Y-1449425D01*
X12228169Y-1449425D01*
X12221921Y-1450136D01*
X12216485Y-1452016D01*
X12211659Y-1455064D01*
X12207595Y-1459128D01*
X12204547Y-1464005D01*
X12202668Y-1469390D01*
X12201956Y-1475689D01*
G37*
G36*
X4658715Y-1496263D02*
G01*
X4703013Y-1496263D01*
X4703013Y-1475689D01*
X4702352Y-1469390D01*
X4700422Y-1464005D01*
X4697374Y-1459128D01*
X4693310Y-1455064D01*
X4688484Y-1452016D01*
X4683048Y-1450136D01*
X4676800Y-1449425D01*
X4658715Y-1449425D01*
G37*
G36*
X7101890Y-1496263D02*
G01*
X7146188Y-1496263D01*
X7146188Y-1449425D01*
X7128103Y-1449425D01*
X7121855Y-1450136D01*
X7116419Y-1452016D01*
X7111593Y-1455064D01*
X7107529Y-1459128D01*
X7104481Y-1464005D01*
X7102602Y-1469390D01*
X7101890Y-1475689D01*
G37*
G36*
X9758781Y-1496263D02*
G01*
X9803079Y-1496263D01*
X9803079Y-1475689D01*
X9802418Y-1469390D01*
X9800488Y-1464005D01*
X9797440Y-1459128D01*
X9793376Y-1455064D01*
X9788550Y-1452016D01*
X9783114Y-1450136D01*
X9776866Y-1449425D01*
X9758781Y-1449425D01*
G37*
G36*
X12308941Y-1496263D02*
G01*
X12353239Y-1496263D01*
X12353239Y-1475689D01*
X12352578Y-1469390D01*
X12350648Y-1464005D01*
X12347600Y-1459128D01*
X12343536Y-1455064D01*
X12338710Y-1452016D01*
X12333274Y-1450136D01*
X12327026Y-1449425D01*
X12308941Y-1449425D01*
G37*
G36*
X16870070Y-1450594D02*
G01*
X16905630Y-1450594D01*
X16905630Y-1391920D01*
X16843857Y-1391920D01*
X16843857Y-1424381D01*
X16844568Y-1430629D01*
X16846448Y-1436065D01*
X16849496Y-1440891D01*
X16853560Y-1444955D01*
X16858386Y-1448003D01*
X16863822Y-1449882D01*
G37*
G36*
X17003369Y-1450594D02*
G01*
X17038929Y-1450594D01*
X17045178Y-1449882D01*
X17050613Y-1448003D01*
X17055439Y-1444955D01*
X17059503Y-1440891D01*
X17062551Y-1436065D01*
X17064431Y-1430629D01*
X17065142Y-1424381D01*
X17065142Y-1391920D01*
X17003369Y-1391920D01*
G37*
G36*
X763828Y-1382166D02*
G01*
X807669Y-1382166D01*
X807669Y-1334058D01*
X806958Y-1327810D01*
X805027Y-1322374D01*
X801979Y-1317548D01*
X797966Y-1313484D01*
X793089Y-1310436D01*
X787704Y-1308557D01*
X781405Y-1307846D01*
X763828Y-1307846D01*
G37*
G36*
X658317Y-1382166D02*
G01*
X702157Y-1382166D01*
X702157Y-1307846D01*
X684580Y-1307846D01*
X678281Y-1308557D01*
X672896Y-1310436D01*
X668020Y-1313484D01*
X664006Y-1317548D01*
X660958Y-1322374D01*
X659028Y-1327810D01*
X658317Y-1334058D01*
G37*
G36*
X16843857Y-1300480D02*
G01*
X16905630Y-1300480D01*
X16905630Y-1241806D01*
X16870070Y-1241806D01*
X16863822Y-1242517D01*
X16858386Y-1244396D01*
X16853560Y-1247444D01*
X16849496Y-1251508D01*
X16846448Y-1256334D01*
X16844568Y-1261770D01*
X16843857Y-1268018D01*
G37*
G36*
X17003369Y-1300480D02*
G01*
X17065142Y-1300480D01*
X17065142Y-1268018D01*
X17064431Y-1261770D01*
X17062551Y-1256334D01*
X17059503Y-1251508D01*
X17055439Y-1247444D01*
X17050613Y-1244396D01*
X17045178Y-1242517D01*
X17038929Y-1241806D01*
X17003369Y-1241806D01*
G37*
G36*
X16704056Y-1202791D02*
G01*
X16718178Y-1201420D01*
X16731996Y-1198270D01*
X16745305Y-1193342D01*
X16757853Y-1186789D01*
X16769486Y-1178712D01*
X16779951Y-1169162D01*
X16789146Y-1158392D01*
X16796918Y-1146505D01*
X16803065Y-1133703D01*
X16807535Y-1120241D01*
X16810228Y-1106322D01*
X16811142Y-1092200D01*
X16810228Y-1078077D01*
X16807535Y-1064158D01*
X16803065Y-1050696D01*
X16796918Y-1037894D01*
X16789146Y-1026007D01*
X16779951Y-1015237D01*
X16769486Y-1005687D01*
X16757853Y-997610D01*
X16745305Y-991057D01*
X16731996Y-986129D01*
X16718178Y-982980D01*
X16704056Y-981608D01*
X16689882Y-982065D01*
X16675862Y-984351D01*
X16662298Y-988364D01*
X16649344Y-994105D01*
X16637203Y-1001471D01*
X16626128Y-1010310D01*
X16616273Y-1020470D01*
X16607790Y-1031849D01*
X16600830Y-1044194D01*
X16595496Y-1057351D01*
X16591889Y-1071067D01*
X16590111Y-1085088D01*
X16590111Y-1099312D01*
X16591889Y-1113332D01*
X16595496Y-1127048D01*
X16600830Y-1140206D01*
X16607790Y-1152550D01*
X16616273Y-1163929D01*
X16626128Y-1174089D01*
X16637203Y-1182928D01*
X16649344Y-1190294D01*
X16662298Y-1196035D01*
X16675862Y-1200048D01*
X16689882Y-1202334D01*
G37*
G36*
X16450056Y-1202791D02*
G01*
X16464178Y-1201420D01*
X16477996Y-1198270D01*
X16491305Y-1193342D01*
X16503853Y-1186789D01*
X16515486Y-1178712D01*
X16525951Y-1169162D01*
X16535146Y-1158392D01*
X16542918Y-1146505D01*
X16549065Y-1133703D01*
X16553535Y-1120241D01*
X16556228Y-1106322D01*
X16557142Y-1092200D01*
X16556228Y-1078077D01*
X16553535Y-1064158D01*
X16549065Y-1050696D01*
X16542918Y-1037894D01*
X16535146Y-1026007D01*
X16525951Y-1015237D01*
X16515486Y-1005687D01*
X16503853Y-997610D01*
X16491305Y-991057D01*
X16477996Y-986129D01*
X16464178Y-982980D01*
X16450056Y-981608D01*
X16435882Y-982065D01*
X16421862Y-984351D01*
X16408298Y-988364D01*
X16395344Y-994105D01*
X16383203Y-1001471D01*
X16372128Y-1010310D01*
X16362273Y-1020470D01*
X16353790Y-1031849D01*
X16346830Y-1044194D01*
X16341496Y-1057351D01*
X16337889Y-1071067D01*
X16336111Y-1085088D01*
X16336111Y-1099312D01*
X16337889Y-1113332D01*
X16341496Y-1127048D01*
X16346830Y-1140206D01*
X16353790Y-1152550D01*
X16362273Y-1163929D01*
X16372128Y-1174089D01*
X16383203Y-1182928D01*
X16395344Y-1190294D01*
X16408298Y-1196035D01*
X16421862Y-1200048D01*
X16435882Y-1202334D01*
G37*
G36*
X10073640Y-1194460D02*
G01*
X10073640Y-1096365D01*
X9997846Y-1096365D01*
X9997998Y-1097432D01*
X10002520Y-1113129D01*
X10008768Y-1128217D01*
X10016693Y-1142492D01*
X10026142Y-1155801D01*
X10037013Y-1167993D01*
X10049205Y-1178864D01*
X10062514Y-1188313D01*
G37*
G36*
X11346332Y-1194460D02*
G01*
X11357508Y-1188313D01*
X11370818Y-1178864D01*
X11382959Y-1167993D01*
X11393881Y-1155801D01*
X11403330Y-1142492D01*
X11411204Y-1128217D01*
X11417452Y-1113129D01*
X11422176Y-1096365D01*
X11346332Y-1096365D01*
G37*
G36*
X12756337Y-1194460D02*
G01*
X12767462Y-1188313D01*
X12780822Y-1178864D01*
X12792964Y-1167993D01*
X12803886Y-1155801D01*
X12813334Y-1142492D01*
X12821208Y-1128217D01*
X12827457Y-1113129D01*
X12832181Y-1096365D01*
X12756337Y-1096365D01*
G37*
G36*
X13896340Y-1194460D02*
G01*
X13907465Y-1188313D01*
X13920825Y-1178864D01*
X13932966Y-1167993D01*
X13943888Y-1155801D01*
X13953337Y-1142492D01*
X13961211Y-1128217D01*
X13967460Y-1113129D01*
X13972184Y-1096365D01*
X13896340Y-1096365D01*
G37*
G36*
X8796375Y-1194460D02*
G01*
X8807500Y-1188313D01*
X8820810Y-1178864D01*
X8833002Y-1167993D01*
X8843873Y-1155801D01*
X8853322Y-1142492D01*
X8861196Y-1128217D01*
X8867444Y-1113129D01*
X8872169Y-1096365D01*
X8796375Y-1096365D01*
G37*
G36*
X7523632Y-1194460D02*
G01*
X7523632Y-1096365D01*
X7447838Y-1096365D01*
X7447991Y-1097432D01*
X7452512Y-1113129D01*
X7458760Y-1128217D01*
X7466685Y-1142492D01*
X7476134Y-1155801D01*
X7487005Y-1167993D01*
X7499197Y-1178864D01*
X7512507Y-1188313D01*
G37*
G36*
X10206329Y-1194460D02*
G01*
X10217505Y-1188313D01*
X10230815Y-1178864D01*
X10242956Y-1167993D01*
X10253878Y-1155801D01*
X10263327Y-1142492D01*
X10271201Y-1128217D01*
X10277449Y-1113129D01*
X10282174Y-1096365D01*
X10206329Y-1096365D01*
G37*
G36*
X7656372Y-1194460D02*
G01*
X7667498Y-1188313D01*
X7680807Y-1178864D01*
X7692999Y-1167993D01*
X7703870Y-1155801D01*
X7713319Y-1142492D01*
X7721193Y-1128217D01*
X7727442Y-1113129D01*
X7732166Y-1096365D01*
X7656372Y-1096365D01*
G37*
G36*
X12623647Y-1194460D02*
G01*
X12623647Y-1096365D01*
X12547854Y-1096365D01*
X12548006Y-1097432D01*
X12552527Y-1113129D01*
X12558776Y-1128217D01*
X12566700Y-1142492D01*
X12576149Y-1155801D01*
X12587020Y-1167993D01*
X12599212Y-1178864D01*
X12612522Y-1188313D01*
G37*
G36*
X11213642Y-1194460D02*
G01*
X11213642Y-1096365D01*
X11137849Y-1096365D01*
X11138001Y-1097432D01*
X11142522Y-1113129D01*
X11148771Y-1128217D01*
X11156696Y-1142492D01*
X11166144Y-1155801D01*
X11177016Y-1167993D01*
X11189208Y-1178864D01*
X11202517Y-1188313D01*
G37*
G36*
X13763650Y-1194460D02*
G01*
X13763650Y-1096365D01*
X13687856Y-1096365D01*
X13688009Y-1097432D01*
X13692530Y-1113129D01*
X13698778Y-1128217D01*
X13706703Y-1142492D01*
X13716152Y-1155801D01*
X13727023Y-1167993D01*
X13739215Y-1178864D01*
X13752525Y-1188313D01*
G37*
G36*
X8663635Y-1194460D02*
G01*
X8663635Y-1096365D01*
X8587841Y-1096365D01*
X8587994Y-1097432D01*
X8592515Y-1113129D01*
X8598763Y-1128217D01*
X8606688Y-1142492D01*
X8616137Y-1155801D01*
X8627008Y-1167993D01*
X8639200Y-1178864D01*
X8652510Y-1188313D01*
G37*
G36*
X1916328Y-1190498D02*
G01*
X1916328Y-1092352D01*
X1840534Y-1092352D01*
X1840687Y-1093419D01*
X1845208Y-1109116D01*
X1851507Y-1124204D01*
X1859381Y-1138478D01*
X1868830Y-1151788D01*
X1879701Y-1163980D01*
X1891893Y-1174851D01*
X1905203Y-1184300D01*
G37*
G36*
X6117031Y-1190498D02*
G01*
X6117031Y-1092352D01*
X6041237Y-1092352D01*
X6041390Y-1093419D01*
X6045911Y-1109116D01*
X6052210Y-1124204D01*
X6060084Y-1138478D01*
X6069533Y-1151788D01*
X6080404Y-1163980D01*
X6092596Y-1174851D01*
X6105906Y-1184300D01*
G37*
G36*
X2049068Y-1190498D02*
G01*
X2060193Y-1184300D01*
X2073503Y-1174851D01*
X2085695Y-1163980D01*
X2096566Y-1151788D01*
X2106015Y-1138478D01*
X2113889Y-1124204D01*
X2120188Y-1109116D01*
X2124710Y-1093419D01*
X2124862Y-1092352D01*
X2049068Y-1092352D01*
G37*
G36*
X4977028Y-1190498D02*
G01*
X4977028Y-1092352D01*
X4901234Y-1092352D01*
X4901387Y-1093419D01*
X4905908Y-1109116D01*
X4912207Y-1124204D01*
X4920081Y-1138478D01*
X4929530Y-1151788D01*
X4940401Y-1163980D01*
X4952593Y-1174851D01*
X4965903Y-1184300D01*
G37*
G36*
X5109768Y-1190498D02*
G01*
X5120894Y-1184300D01*
X5134203Y-1174851D01*
X5146395Y-1163980D01*
X5157266Y-1151788D01*
X5166715Y-1138478D01*
X5174589Y-1124204D01*
X5180888Y-1109116D01*
X5185410Y-1093419D01*
X5185562Y-1092352D01*
X5109768Y-1092352D01*
G37*
G36*
X3056331Y-1190498D02*
G01*
X3056331Y-1092352D01*
X2980537Y-1092352D01*
X2980690Y-1093419D01*
X2985211Y-1109116D01*
X2991510Y-1124204D01*
X2999384Y-1138478D01*
X3008833Y-1151788D01*
X3019704Y-1163980D01*
X3031896Y-1174851D01*
X3045206Y-1184300D01*
G37*
G36*
X3189071Y-1190498D02*
G01*
X3200196Y-1184300D01*
X3213506Y-1174851D01*
X3225698Y-1163980D01*
X3236569Y-1151788D01*
X3246018Y-1138478D01*
X3253892Y-1124204D01*
X3260191Y-1109116D01*
X3264509Y-1094130D01*
X3265424Y-1092352D01*
X3189071Y-1092352D01*
G37*
G36*
X6249771Y-1190498D02*
G01*
X6260896Y-1184300D01*
X6274206Y-1174851D01*
X6286398Y-1163980D01*
X6297269Y-1151788D01*
X6306718Y-1138478D01*
X6314592Y-1124204D01*
X6320891Y-1109116D01*
X6324955Y-1094841D01*
X6326276Y-1092352D01*
X6249771Y-1092352D01*
G37*
G36*
X9092946Y-1100734D02*
G01*
X9111030Y-1100734D01*
X9111030Y-1053896D01*
X9066733Y-1053896D01*
X9066733Y-1074470D01*
X9067444Y-1080770D01*
X9069324Y-1086154D01*
X9072372Y-1091031D01*
X9076436Y-1095095D01*
X9081312Y-1098143D01*
X9086697Y-1100023D01*
G37*
G36*
X11643106Y-1100734D02*
G01*
X11661190Y-1100734D01*
X11661190Y-1053896D01*
X11616893Y-1053896D01*
X11616893Y-1074470D01*
X11617604Y-1080770D01*
X11619484Y-1086154D01*
X11622532Y-1091031D01*
X11626596Y-1095095D01*
X11631472Y-1098143D01*
X11636857Y-1100023D01*
G37*
G36*
X3563874Y-1100734D02*
G01*
X3581958Y-1100734D01*
X3588258Y-1100023D01*
X3593642Y-1098143D01*
X3598519Y-1095095D01*
X3602532Y-1091031D01*
X3605580Y-1086154D01*
X3607511Y-1080770D01*
X3608222Y-1074470D01*
X3608222Y-1053896D01*
X3563874Y-1053896D01*
G37*
G36*
X14193012Y-1100734D02*
G01*
X14211096Y-1100734D01*
X14211096Y-1053896D01*
X14166799Y-1053896D01*
X14166799Y-1074470D01*
X14167510Y-1080770D01*
X14169390Y-1086154D01*
X14172438Y-1091031D01*
X14176501Y-1095095D01*
X14181378Y-1098143D01*
X14186763Y-1100023D01*
G37*
G36*
X9173718Y-1100734D02*
G01*
X9191802Y-1100734D01*
X9198102Y-1100023D01*
X9203486Y-1098143D01*
X9208363Y-1095095D01*
X9212376Y-1091031D01*
X9215424Y-1086154D01*
X9217355Y-1080770D01*
X9218066Y-1074470D01*
X9218066Y-1053896D01*
X9173718Y-1053896D01*
G37*
G36*
X3483101Y-1100734D02*
G01*
X3501186Y-1100734D01*
X3501186Y-1053896D01*
X3456889Y-1053896D01*
X3456889Y-1074470D01*
X3457600Y-1080770D01*
X3459479Y-1086154D01*
X3462528Y-1091031D01*
X3466592Y-1095095D01*
X3471468Y-1098143D01*
X3476853Y-1100023D01*
G37*
G36*
X11723878Y-1100734D02*
G01*
X11741962Y-1100734D01*
X11748262Y-1100023D01*
X11753646Y-1098143D01*
X11758523Y-1095095D01*
X11762536Y-1091031D01*
X11765584Y-1086154D01*
X11767515Y-1080770D01*
X11768226Y-1074470D01*
X11768226Y-1053896D01*
X11723878Y-1053896D01*
G37*
G36*
X6543040Y-1100734D02*
G01*
X6561124Y-1100734D01*
X6561124Y-1053896D01*
X6516827Y-1053896D01*
X6516827Y-1074470D01*
X6517538Y-1080770D01*
X6519418Y-1086154D01*
X6522466Y-1091031D01*
X6526530Y-1095095D01*
X6531406Y-1098143D01*
X6536791Y-1100023D01*
G37*
G36*
X14273784Y-1100734D02*
G01*
X14291868Y-1100734D01*
X14298168Y-1100023D01*
X14303552Y-1098143D01*
X14308429Y-1095095D01*
X14312442Y-1091031D01*
X14315490Y-1086154D01*
X14317421Y-1080770D01*
X14318132Y-1074470D01*
X14318132Y-1053896D01*
X14273784Y-1053896D01*
G37*
G36*
X6623812Y-1100734D02*
G01*
X6641896Y-1100734D01*
X6648196Y-1100023D01*
X6653580Y-1098143D01*
X6658457Y-1095095D01*
X6662470Y-1091031D01*
X6665518Y-1086154D01*
X6667449Y-1080770D01*
X6668160Y-1074470D01*
X6668160Y-1053896D01*
X6623812Y-1053896D01*
G37*
G36*
X14273784Y-986231D02*
G01*
X14318132Y-986231D01*
X14318132Y-965657D01*
X14317421Y-959358D01*
X14315490Y-953973D01*
X14312442Y-949096D01*
X14308429Y-945032D01*
X14303552Y-941984D01*
X14298168Y-940104D01*
X14291868Y-939393D01*
X14273784Y-939393D01*
G37*
G36*
X11723878Y-986231D02*
G01*
X11768226Y-986231D01*
X11768226Y-965657D01*
X11767515Y-959358D01*
X11765584Y-953973D01*
X11762536Y-949096D01*
X11758523Y-945032D01*
X11753646Y-941984D01*
X11748262Y-940104D01*
X11741962Y-939393D01*
X11723878Y-939393D01*
G37*
G36*
X6516827Y-986231D02*
G01*
X6561124Y-986231D01*
X6561124Y-939393D01*
X6543040Y-939393D01*
X6536791Y-940104D01*
X6531406Y-941984D01*
X6526530Y-945032D01*
X6522466Y-949096D01*
X6519418Y-953973D01*
X6517538Y-959358D01*
X6516827Y-965657D01*
G37*
G36*
X14166799Y-986231D02*
G01*
X14211096Y-986231D01*
X14211096Y-939393D01*
X14193012Y-939393D01*
X14186763Y-940104D01*
X14181378Y-941984D01*
X14176501Y-945032D01*
X14172438Y-949096D01*
X14169390Y-953973D01*
X14167510Y-959358D01*
X14166799Y-965657D01*
G37*
G36*
X11616893Y-986231D02*
G01*
X11661190Y-986231D01*
X11661190Y-939393D01*
X11643106Y-939393D01*
X11636857Y-940104D01*
X11631472Y-941984D01*
X11626596Y-945032D01*
X11622532Y-949096D01*
X11619484Y-953973D01*
X11617604Y-959358D01*
X11616893Y-965657D01*
G37*
G36*
X9173718Y-986231D02*
G01*
X9218066Y-986231D01*
X9218066Y-965657D01*
X9217355Y-959358D01*
X9215424Y-953973D01*
X9212376Y-949096D01*
X9208363Y-945032D01*
X9203486Y-941984D01*
X9198102Y-940104D01*
X9191802Y-939393D01*
X9173718Y-939393D01*
G37*
G36*
X3456889Y-986231D02*
G01*
X3501186Y-986231D01*
X3501186Y-939393D01*
X3483101Y-939393D01*
X3476853Y-940104D01*
X3471468Y-941984D01*
X3466592Y-945032D01*
X3462528Y-949096D01*
X3459479Y-953973D01*
X3457600Y-959358D01*
X3456889Y-965657D01*
G37*
G36*
X6623812Y-986231D02*
G01*
X6668160Y-986231D01*
X6668160Y-965657D01*
X6667449Y-959358D01*
X6665518Y-953973D01*
X6662470Y-949096D01*
X6658457Y-945032D01*
X6653580Y-941984D01*
X6648196Y-940104D01*
X6641896Y-939393D01*
X6623812Y-939393D01*
G37*
G36*
X9066733Y-986231D02*
G01*
X9111030Y-986231D01*
X9111030Y-939393D01*
X9092946Y-939393D01*
X9086697Y-940104D01*
X9081312Y-941984D01*
X9076436Y-945032D01*
X9072372Y-949096D01*
X9069324Y-953973D01*
X9067444Y-959358D01*
X9066733Y-965657D01*
G37*
G36*
X3563874Y-986231D02*
G01*
X3608222Y-986231D01*
X3608222Y-965657D01*
X3607511Y-959358D01*
X3605580Y-953973D01*
X3602532Y-949096D01*
X3598519Y-945032D01*
X3593642Y-941984D01*
X3588258Y-940104D01*
X3581958Y-939393D01*
X3563874Y-939393D01*
G37*
G36*
X11137849Y-893673D02*
G01*
X11213642Y-893673D01*
X11213642Y-795528D01*
X11202517Y-801674D01*
X11189208Y-811123D01*
X11177016Y-822045D01*
X11166144Y-834186D01*
X11156696Y-847547D01*
X11148771Y-861821D01*
X11142522Y-876909D01*
X11138001Y-892606D01*
G37*
G36*
X12756337Y-893673D02*
G01*
X12832181Y-893673D01*
X12827457Y-876909D01*
X12821208Y-861821D01*
X12813334Y-847547D01*
X12803886Y-834186D01*
X12792964Y-822045D01*
X12780822Y-811123D01*
X12767462Y-801674D01*
X12756337Y-795528D01*
G37*
G36*
X8587841Y-893673D02*
G01*
X8663635Y-893673D01*
X8663635Y-795528D01*
X8652510Y-801674D01*
X8639200Y-811123D01*
X8627008Y-822045D01*
X8616137Y-834186D01*
X8606688Y-847547D01*
X8598763Y-861821D01*
X8592515Y-876909D01*
X8587994Y-892606D01*
G37*
G36*
X11346332Y-893673D02*
G01*
X11422176Y-893673D01*
X11417452Y-876909D01*
X11411204Y-861821D01*
X11403330Y-847547D01*
X11393881Y-834186D01*
X11382959Y-822045D01*
X11370818Y-811123D01*
X11357508Y-801674D01*
X11346332Y-795528D01*
G37*
G36*
X13896340Y-893673D02*
G01*
X13972184Y-893673D01*
X13967460Y-876909D01*
X13961211Y-861821D01*
X13953337Y-847547D01*
X13943888Y-834186D01*
X13932966Y-822045D01*
X13920825Y-811123D01*
X13907465Y-801674D01*
X13896340Y-795528D01*
G37*
G36*
X12547854Y-893673D02*
G01*
X12623647Y-893673D01*
X12623647Y-795528D01*
X12612522Y-801674D01*
X12599212Y-811123D01*
X12587020Y-822045D01*
X12576149Y-834186D01*
X12566700Y-847547D01*
X12558776Y-861821D01*
X12552527Y-876909D01*
X12548006Y-892606D01*
G37*
G36*
X13687856Y-893673D02*
G01*
X13763650Y-893673D01*
X13763650Y-795528D01*
X13752525Y-801674D01*
X13739215Y-811123D01*
X13727023Y-822045D01*
X13716152Y-834186D01*
X13706703Y-847547D01*
X13698778Y-861821D01*
X13692530Y-876909D01*
X13688009Y-892606D01*
G37*
G36*
X10206329Y-893673D02*
G01*
X10282174Y-893673D01*
X10277449Y-876909D01*
X10271201Y-861821D01*
X10263327Y-847547D01*
X10253878Y-834186D01*
X10242956Y-822045D01*
X10230815Y-811123D01*
X10217505Y-801674D01*
X10206329Y-795528D01*
G37*
G36*
X8796375Y-893673D02*
G01*
X8872169Y-893673D01*
X8867444Y-876909D01*
X8861196Y-861821D01*
X8853322Y-847547D01*
X8843873Y-834186D01*
X8833002Y-822045D01*
X8820810Y-811123D01*
X8807500Y-801674D01*
X8796375Y-795528D01*
G37*
G36*
X7447838Y-893673D02*
G01*
X7523632Y-893673D01*
X7523632Y-795528D01*
X7512507Y-801674D01*
X7499197Y-811123D01*
X7487005Y-822045D01*
X7476134Y-834186D01*
X7466685Y-847547D01*
X7458760Y-861821D01*
X7452512Y-876909D01*
X7447991Y-892606D01*
G37*
G36*
X9997846Y-893673D02*
G01*
X10073640Y-893673D01*
X10073640Y-795528D01*
X10062514Y-801674D01*
X10049205Y-811123D01*
X10037013Y-822045D01*
X10026142Y-834186D01*
X10016693Y-847547D01*
X10008768Y-861821D01*
X10002520Y-876909D01*
X9997998Y-892606D01*
G37*
G36*
X7656372Y-893673D02*
G01*
X7732166Y-893673D01*
X7727442Y-876909D01*
X7721193Y-861821D01*
X7713319Y-847547D01*
X7703870Y-834186D01*
X7692999Y-822045D01*
X7680807Y-811123D01*
X7667498Y-801674D01*
X7656372Y-795528D01*
G37*
G36*
X1840534Y-889660D02*
G01*
X1916328Y-889660D01*
X1916328Y-791514D01*
X1905203Y-797712D01*
X1891893Y-807161D01*
X1879701Y-818032D01*
X1868830Y-830224D01*
X1859381Y-843534D01*
X1851507Y-857808D01*
X1845208Y-872896D01*
X1840687Y-888593D01*
G37*
G36*
X5109768Y-889660D02*
G01*
X5185562Y-889660D01*
X5185410Y-888593D01*
X5180888Y-872896D01*
X5174589Y-857808D01*
X5166715Y-843534D01*
X5157266Y-830224D01*
X5146395Y-818032D01*
X5134203Y-807161D01*
X5120894Y-797712D01*
X5109768Y-791514D01*
G37*
G36*
X2049068Y-889660D02*
G01*
X2124862Y-889660D01*
X2124710Y-888593D01*
X2120188Y-872896D01*
X2113889Y-857808D01*
X2106015Y-843534D01*
X2096566Y-830224D01*
X2085695Y-818032D01*
X2073503Y-807161D01*
X2060193Y-797712D01*
X2049068Y-791514D01*
G37*
G36*
X3189071Y-889660D02*
G01*
X3264865Y-889660D01*
X3264712Y-888593D01*
X3260191Y-872896D01*
X3253892Y-857808D01*
X3246018Y-843534D01*
X3236569Y-830224D01*
X3225698Y-818032D01*
X3213506Y-807161D01*
X3200196Y-797712D01*
X3189071Y-791514D01*
G37*
G36*
X6249771Y-889660D02*
G01*
X6325565Y-889660D01*
X6325412Y-888593D01*
X6320891Y-872896D01*
X6314592Y-857808D01*
X6306718Y-843534D01*
X6297269Y-830224D01*
X6286398Y-818032D01*
X6274206Y-807161D01*
X6260896Y-797712D01*
X6249771Y-791514D01*
G37*
G36*
X2980537Y-889660D02*
G01*
X3056331Y-889660D01*
X3056331Y-791514D01*
X3045206Y-797712D01*
X3031896Y-807161D01*
X3019704Y-818032D01*
X3008833Y-830224D01*
X2999384Y-843534D01*
X2991510Y-857808D01*
X2985211Y-872896D01*
X2980690Y-888593D01*
G37*
G36*
X4901234Y-889660D02*
G01*
X4977028Y-889660D01*
X4977028Y-791514D01*
X4965903Y-797712D01*
X4952593Y-807161D01*
X4940401Y-818032D01*
X4929530Y-830224D01*
X4920081Y-843534D01*
X4912207Y-857808D01*
X4905908Y-872896D01*
X4901387Y-888593D01*
G37*
G36*
X6041237Y-889660D02*
G01*
X6117031Y-889660D01*
X6117031Y-791514D01*
X6105906Y-797712D01*
X6092596Y-807161D01*
X6080404Y-818032D01*
X6069533Y-830224D01*
X6060084Y-843534D01*
X6052210Y-857808D01*
X6045911Y-872896D01*
X6041390Y-888593D01*
G37*
G36*
X17029023Y-845667D02*
G01*
X17047108Y-845667D01*
X17053407Y-844956D01*
X17058792Y-843076D01*
X17063669Y-840028D01*
X17067682Y-835964D01*
X17070730Y-831087D01*
X17072660Y-825703D01*
X17073372Y-819403D01*
X17073372Y-798830D01*
X17029023Y-798830D01*
G37*
G36*
X16948251Y-845667D02*
G01*
X16966336Y-845667D01*
X16966336Y-798830D01*
X16922038Y-798830D01*
X16922038Y-819403D01*
X16922750Y-825703D01*
X16924629Y-831087D01*
X16927677Y-835964D01*
X16931741Y-840028D01*
X16936618Y-843076D01*
X16942003Y-844956D01*
G37*
G36*
X17029023Y-731164D02*
G01*
X17073372Y-731164D01*
X17073372Y-710590D01*
X17072660Y-704291D01*
X17070730Y-698906D01*
X17067682Y-694029D01*
X17063669Y-690016D01*
X17058792Y-686968D01*
X17053407Y-685038D01*
X17047108Y-684326D01*
X17029023Y-684326D01*
G37*
G36*
X16922038Y-731164D02*
G01*
X16966336Y-731164D01*
X16966336Y-684326D01*
X16948251Y-684326D01*
X16942003Y-685038D01*
X16936618Y-686968D01*
X16931741Y-690016D01*
X16927677Y-694029D01*
X16924629Y-698906D01*
X16922750Y-704291D01*
X16922038Y-710590D01*
G37*
G36*
X684580Y-724154D02*
G01*
X781405Y-724154D01*
X787704Y-723442D01*
X793089Y-721563D01*
X797966Y-718515D01*
X801979Y-714451D01*
X805027Y-709574D01*
X806958Y-704189D01*
X807669Y-697941D01*
X807669Y-479043D01*
X806958Y-472795D01*
X805027Y-467410D01*
X801979Y-462534D01*
X797966Y-458470D01*
X793089Y-455422D01*
X787704Y-453542D01*
X781405Y-452831D01*
X684580Y-452831D01*
X678281Y-453542D01*
X672896Y-455422D01*
X668020Y-458470D01*
X664006Y-462534D01*
X660958Y-467410D01*
X659028Y-472795D01*
X658317Y-479043D01*
X658317Y-697941D01*
X659028Y-704189D01*
X660958Y-709574D01*
X664006Y-714451D01*
X668020Y-718515D01*
X672896Y-721563D01*
X678281Y-723442D01*
G37*
G36*
X234543Y-724154D02*
G01*
X331419Y-724154D01*
X337667Y-723442D01*
X343103Y-721563D01*
X347929Y-718515D01*
X351993Y-714451D01*
X355041Y-709574D01*
X356920Y-704189D01*
X357632Y-697941D01*
X357632Y-479043D01*
X356920Y-472795D01*
X355041Y-467410D01*
X351993Y-462534D01*
X347929Y-458470D01*
X343103Y-455422D01*
X337667Y-453542D01*
X331419Y-452831D01*
X234543Y-452831D01*
X228295Y-453542D01*
X222910Y-455422D01*
X218033Y-458470D01*
X213969Y-462534D01*
X210921Y-467410D01*
X209042Y-472795D01*
X208330Y-479043D01*
X208330Y-697941D01*
X209042Y-704189D01*
X210921Y-709574D01*
X213969Y-714451D01*
X218033Y-718515D01*
X222910Y-721563D01*
X228295Y-723442D01*
G37*
G36*
X8358682Y-398475D02*
G01*
X8358682Y-346354D01*
X8306612Y-346354D01*
X8308695Y-350723D01*
X8316468Y-362966D01*
X8325713Y-374142D01*
X8336330Y-384098D01*
X8348065Y-392633D01*
G37*
G36*
X13458647Y-398475D02*
G01*
X13458647Y-346354D01*
X13406628Y-346354D01*
X13408660Y-350723D01*
X13416483Y-362966D01*
X13425728Y-374142D01*
X13436295Y-384098D01*
X13448030Y-392633D01*
G37*
G36*
X11011357Y-398475D02*
G01*
X11021974Y-392633D01*
X11033709Y-384098D01*
X11044326Y-374142D01*
X11053572Y-362966D01*
X11061344Y-350723D01*
X11063376Y-346354D01*
X11011357Y-346354D01*
G37*
G36*
X10908639Y-398475D02*
G01*
X10908639Y-346354D01*
X10856620Y-346354D01*
X10858703Y-350723D01*
X10866475Y-362966D01*
X10875721Y-374142D01*
X10886287Y-384098D01*
X10898073Y-392633D01*
G37*
G36*
X8461349Y-398475D02*
G01*
X8471966Y-392633D01*
X8483701Y-384098D01*
X8494318Y-374142D01*
X8503564Y-362966D01*
X8511336Y-350723D01*
X8513419Y-346354D01*
X8461349Y-346354D01*
G37*
G36*
X13561364Y-398475D02*
G01*
X13571982Y-392633D01*
X13583716Y-384098D01*
X13594283Y-374142D01*
X13603579Y-362966D01*
X13611351Y-350723D01*
X13613384Y-346354D01*
X13561364Y-346354D01*
G37*
G36*
X2854045Y-394462D02*
G01*
X2864662Y-388620D01*
X2876397Y-380085D01*
X2887014Y-370179D01*
X2896260Y-358952D01*
X2904032Y-346710D01*
X2906115Y-342341D01*
X2854045Y-342341D01*
G37*
G36*
X5812078Y-394462D02*
G01*
X5812078Y-342341D01*
X5760008Y-342341D01*
X5762091Y-346710D01*
X5769864Y-358952D01*
X5779109Y-370179D01*
X5789726Y-380085D01*
X5801461Y-388620D01*
G37*
G36*
X5914745Y-394462D02*
G01*
X5925362Y-388620D01*
X5937097Y-380085D01*
X5947714Y-370179D01*
X5956960Y-358952D01*
X5964732Y-346710D01*
X5966815Y-342341D01*
X5914745Y-342341D01*
G37*
G36*
X2751378Y-394462D02*
G01*
X2751378Y-342341D01*
X2699308Y-342341D01*
X2701391Y-346710D01*
X2709164Y-358952D01*
X2718409Y-370179D01*
X2729026Y-380085D01*
X2740761Y-388620D01*
G37*
G36*
X13561364Y-243636D02*
G01*
X13613384Y-243636D01*
X13611351Y-239318D01*
X13603579Y-227025D01*
X13594283Y-215849D01*
X13583716Y-205892D01*
X13571982Y-197358D01*
X13561364Y-191566D01*
G37*
G36*
X11011357Y-243636D02*
G01*
X11063376Y-243636D01*
X11061344Y-239318D01*
X11053572Y-227025D01*
X11044326Y-215849D01*
X11033709Y-205892D01*
X11021974Y-197358D01*
X11011357Y-191566D01*
G37*
G36*
X8461349Y-243636D02*
G01*
X8513419Y-243636D01*
X8511336Y-239318D01*
X8503564Y-227025D01*
X8494318Y-215849D01*
X8483701Y-205892D01*
X8471966Y-197358D01*
X8461349Y-191566D01*
G37*
G36*
X8306612Y-243636D02*
G01*
X8358682Y-243636D01*
X8358682Y-191566D01*
X8348065Y-197358D01*
X8336330Y-205892D01*
X8325713Y-215849D01*
X8316468Y-227025D01*
X8308695Y-239318D01*
G37*
G36*
X13406628Y-243636D02*
G01*
X13458647Y-243636D01*
X13458647Y-191566D01*
X13448030Y-197358D01*
X13436295Y-205892D01*
X13425728Y-215849D01*
X13416483Y-227025D01*
X13408660Y-239318D01*
G37*
G36*
X10856620Y-243636D02*
G01*
X10908639Y-243636D01*
X10908639Y-191566D01*
X10898073Y-197358D01*
X10886287Y-205892D01*
X10875721Y-215849D01*
X10866475Y-227025D01*
X10858703Y-239318D01*
G37*
G36*
X2854045Y-239674D02*
G01*
X2906115Y-239674D01*
X2904032Y-235305D01*
X2896260Y-223062D01*
X2887014Y-211836D01*
X2876397Y-201930D01*
X2864662Y-193395D01*
X2854045Y-187553D01*
G37*
G36*
X5914745Y-239674D02*
G01*
X5966815Y-239674D01*
X5964732Y-235305D01*
X5956960Y-223062D01*
X5947714Y-211836D01*
X5937097Y-201930D01*
X5925362Y-193395D01*
X5914745Y-187553D01*
G37*
G36*
X5760008Y-239674D02*
G01*
X5812078Y-239674D01*
X5812078Y-187553D01*
X5801461Y-193395D01*
X5789726Y-201930D01*
X5779109Y-211836D01*
X5769864Y-223062D01*
X5762091Y-235305D01*
G37*
G36*
X2699308Y-239674D02*
G01*
X2751378Y-239674D01*
X2751378Y-187553D01*
X2740761Y-193395D01*
X2729026Y-201930D01*
X2718409Y-211836D01*
X2709164Y-223062D01*
X2701391Y-235305D01*
G37*

%LPD*%
G36*
X15252598Y-1394409D02*
G01*
X15248788Y-1393748D01*
X15245435Y-1391716D01*
X15242082Y-1388668D01*
X15235326Y-1384503D01*
X15227909Y-1381607D01*
X15220086Y-1380185D01*
X15212161Y-1380185D01*
X15204338Y-1381607D01*
X15196972Y-1384503D01*
X15189047Y-1389481D01*
X15185491Y-1390904D01*
X15181732Y-1390904D01*
X15178176Y-1389481D01*
X15170251Y-1384503D01*
X15162885Y-1381607D01*
X15155062Y-1380185D01*
X15147137Y-1380185D01*
X15139314Y-1381607D01*
X15131948Y-1384503D01*
X15124023Y-1389481D01*
X15120467Y-1390904D01*
X15116708Y-1390904D01*
X15113152Y-1389481D01*
X15105227Y-1384503D01*
X15097861Y-1381607D01*
X15090038Y-1380185D01*
X15082113Y-1380185D01*
X15074290Y-1381607D01*
X15066924Y-1384503D01*
X15058999Y-1389481D01*
X15055443Y-1390904D01*
X15051582Y-1390853D01*
X15048026Y-1389430D01*
X15044369Y-1387043D01*
X15041880Y-1384757D01*
X15040305Y-1381810D01*
X15039746Y-1378508D01*
X15039746Y-1267053D01*
X14928291Y-1267053D01*
X14924989Y-1266494D01*
X14922042Y-1264920D01*
X14919756Y-1262430D01*
X14917369Y-1258773D01*
X14915946Y-1255217D01*
X14915896Y-1251356D01*
X14917318Y-1247800D01*
X14922296Y-1239875D01*
X14925192Y-1232509D01*
X14926614Y-1224686D01*
X14926614Y-1216761D01*
X14925192Y-1208938D01*
X14922296Y-1201572D01*
X14917318Y-1193647D01*
X14915896Y-1190091D01*
X14915896Y-1186332D01*
X14917318Y-1182776D01*
X14922296Y-1174851D01*
X14925192Y-1167485D01*
X14926614Y-1159662D01*
X14926614Y-1151737D01*
X14925192Y-1143914D01*
X14922296Y-1136548D01*
X14917318Y-1128623D01*
X14915896Y-1125067D01*
X14915896Y-1121308D01*
X14917318Y-1117752D01*
X14922296Y-1109827D01*
X14925192Y-1102461D01*
X14926614Y-1094638D01*
X14926614Y-1086713D01*
X14925192Y-1078890D01*
X14922296Y-1071524D01*
X14917318Y-1063599D01*
X14915896Y-1060043D01*
X14915946Y-1056182D01*
X14917369Y-1052626D01*
X14919756Y-1048969D01*
X14922042Y-1046480D01*
X14924989Y-1044905D01*
X14928291Y-1044346D01*
X15039746Y-1044346D01*
X15039746Y-932891D01*
X15040305Y-929589D01*
X15041880Y-926642D01*
X15044369Y-924356D01*
X15048026Y-921969D01*
X15051582Y-920546D01*
X15055443Y-920496D01*
X15058999Y-921918D01*
X15066924Y-926896D01*
X15074290Y-929792D01*
X15082113Y-931214D01*
X15090038Y-931214D01*
X15097861Y-929792D01*
X15105227Y-926896D01*
X15113152Y-921918D01*
X15116708Y-920496D01*
X15120467Y-920496D01*
X15124023Y-921918D01*
X15131948Y-926896D01*
X15139314Y-929792D01*
X15147137Y-931214D01*
X15155062Y-931214D01*
X15162885Y-929792D01*
X15170251Y-926896D01*
X15178176Y-921918D01*
X15181732Y-920496D01*
X15185491Y-920496D01*
X15189047Y-921918D01*
X15196972Y-926896D01*
X15204338Y-929792D01*
X15212161Y-931214D01*
X15220086Y-931214D01*
X15227909Y-929792D01*
X15235275Y-926896D01*
X15243200Y-921918D01*
X15246756Y-920496D01*
X15250617Y-920546D01*
X15254173Y-921969D01*
X15257830Y-924356D01*
X15260319Y-926642D01*
X15261894Y-929589D01*
X15262453Y-932891D01*
X15262453Y-1044346D01*
X15396921Y-1044346D01*
X15400782Y-1045108D01*
X15404084Y-1047343D01*
X15406319Y-1050645D01*
X15407081Y-1054506D01*
X15407081Y-1075588D01*
X15417139Y-1075588D01*
X15417139Y-1040739D01*
X15365425Y-1040739D01*
X15361513Y-1039977D01*
X15358211Y-1037793D01*
X15356027Y-1034491D01*
X15355265Y-1030579D01*
X15355265Y-1020724D01*
X15356027Y-1016812D01*
X15358211Y-1013510D01*
X15361513Y-1011326D01*
X15365425Y-1010564D01*
X15417749Y-1010564D01*
X15419882Y-1007008D01*
X15423235Y-1004620D01*
X15427299Y-1003808D01*
X15464688Y-1003808D01*
X15468752Y-1004620D01*
X15472105Y-1007008D01*
X15474238Y-1010564D01*
X15514167Y-1010564D01*
X15513862Y-1008938D01*
X15514675Y-1005128D01*
X15516910Y-1001877D01*
X15520162Y-999744D01*
X15524022Y-998982D01*
X15532862Y-998982D01*
X15536722Y-999744D01*
X15540024Y-1001979D01*
X15796717Y-1258671D01*
X15802914Y-1263751D01*
X15809518Y-1267307D01*
X15816732Y-1269492D01*
X15824707Y-1270254D01*
X15837154Y-1270254D01*
X15841268Y-1271117D01*
X15844723Y-1273606D01*
X15846806Y-1277213D01*
X15847313Y-1281379D01*
X15846044Y-1285392D01*
X15838830Y-1298194D01*
X15833496Y-1311351D01*
X15829889Y-1325067D01*
X15828111Y-1339088D01*
X15828111Y-1353312D01*
X15828924Y-1359865D01*
X15828568Y-1364132D01*
X15826486Y-1367891D01*
X15823031Y-1370431D01*
X15818866Y-1371346D01*
X15717316Y-1371346D01*
X15713405Y-1370584D01*
X15710103Y-1368348D01*
X15535706Y-1193952D01*
X15529509Y-1188872D01*
X15522905Y-1185367D01*
X15520111Y-1184503D01*
X15516453Y-1182522D01*
X15513913Y-1179220D01*
X15512897Y-1175207D01*
X15513659Y-1170787D01*
X15474238Y-1170787D01*
X15472105Y-1174343D01*
X15468752Y-1176731D01*
X15464688Y-1177594D01*
X15427299Y-1177594D01*
X15423235Y-1176731D01*
X15419882Y-1174343D01*
X15417749Y-1170787D01*
X15407081Y-1170787D01*
X15406369Y-1175816D01*
X15404439Y-1179017D01*
X15401442Y-1181252D01*
X15395803Y-1184046D01*
X15389453Y-1188872D01*
X15384068Y-1194765D01*
X15379903Y-1201521D01*
X15377007Y-1208938D01*
X15375585Y-1216761D01*
X15375585Y-1224686D01*
X15377007Y-1232509D01*
X15379903Y-1239875D01*
X15384881Y-1247800D01*
X15386304Y-1251356D01*
X15386253Y-1255217D01*
X15384830Y-1258773D01*
X15382443Y-1262430D01*
X15380157Y-1264920D01*
X15377210Y-1266494D01*
X15373908Y-1267053D01*
X15262453Y-1267053D01*
X15262453Y-1384249D01*
X15261691Y-1388059D01*
X15259608Y-1391310D01*
X15256408Y-1393545D01*
G37*

%LPC*%
G36*
X15407081Y-1140612D02*
G01*
X15417139Y-1140612D01*
X15417139Y-1105763D01*
X15407081Y-1105763D01*
G37*
G36*
X15474848Y-1140612D02*
G01*
X15513659Y-1140612D01*
X15512084Y-1136548D01*
X15507106Y-1128623D01*
X15505684Y-1125067D01*
X15505684Y-1121308D01*
X15507106Y-1117752D01*
X15512084Y-1109827D01*
X15513659Y-1105763D01*
X15474848Y-1105763D01*
G37*
G36*
X15474848Y-1075588D02*
G01*
X15513659Y-1075588D01*
X15512084Y-1071524D01*
X15507106Y-1063599D01*
X15505684Y-1060043D01*
X15505684Y-1056284D01*
X15507106Y-1052728D01*
X15512084Y-1044803D01*
X15513659Y-1040739D01*
X15474848Y-1040739D01*
G37*

%LPD*%
D11*
X6451600Y-1879600D02*
G01*
X6480809Y-1879600D01*
X6582409Y-1778000D01*
X4737100Y-1879600D02*
G01*
X6455394Y-1879600D01*
D10*
X7357503Y-1529999D02*
G01*
X7347493Y-1540009D01*
X7347493Y-1785000D01*
X7347498Y-1275001D02*
G01*
X7357503Y-1285006D01*
X7357503Y-1529999D01*
X9052499Y-1529999D02*
G01*
X9052499Y-1705005D01*
X8972504Y-1785000D01*
X8972499Y-1275001D02*
G01*
X9052499Y-1355001D01*
X9052499Y-1529999D01*
X8962494Y-1020000D02*
G01*
X8972499Y-1030005D01*
X8972499Y-1275001D01*
X9897493Y-1785000D02*
G01*
X9907503Y-1774990D01*
X9907503Y-1529999D01*
X9897498Y-1275001D02*
G01*
X9907503Y-1285006D01*
X9907503Y-1529999D01*
X11602499Y-1529999D02*
G01*
X11602499Y-1705005D01*
X11522504Y-1785000D01*
X11522499Y-1275001D02*
G01*
X11602499Y-1355001D01*
X11602499Y-1529999D01*
X11512494Y-1020000D02*
G01*
X11522499Y-1030005D01*
X11522499Y-1275001D01*
X14152499Y-1529999D02*
G01*
X14152499Y-1705005D01*
X14072504Y-1785000D01*
X14072499Y-1275001D02*
G01*
X14152499Y-1355001D01*
X14152499Y-1529999D01*
X14062494Y-1020000D02*
G01*
X14072499Y-1030005D01*
X14072499Y-1275001D01*
X12457503Y-1529999D02*
G01*
X12447493Y-1540009D01*
X12447493Y-1785000D01*
X12447498Y-1275001D02*
G01*
X12457503Y-1285006D01*
X12457503Y-1529999D01*
X3361690Y-1524000D02*
G01*
X2425700Y-1524000D01*
X2302763Y-1401063D01*
X2302763Y-291084D01*
X6422390Y-1524000D02*
G01*
X5486400Y-1524000D01*
X5363463Y-1401063D01*
X5363463Y-291084D01*
X7910068Y-294894D02*
G01*
X7910068Y-1407668D01*
X8032495Y-1530095D01*
X8972550Y-1530095D01*
X11522456Y-1530095D02*
G01*
X11516613Y-1524000D01*
X10579100Y-1524000D01*
X10459974Y-1404873D01*
X10459974Y-294894D01*
X13010134Y-294894D02*
G01*
X13004800Y-300228D01*
X13004800Y-1397000D01*
X13137895Y-1530095D01*
X14072616Y-1530095D01*
X13510006Y-1744979D02*
G01*
X13644879Y-1744979D01*
X13685011Y-1785112D01*
X14072616Y-1785112D01*
X13010134Y-1744979D02*
G01*
X12885420Y-1744979D01*
X12845288Y-1785112D01*
X12447524Y-1785112D01*
X9897618Y-1785112D02*
G01*
X10292588Y-1785112D01*
X10332720Y-1744979D01*
X10459974Y-1744979D01*
X10960100Y-1744979D02*
G01*
X11092179Y-1744979D01*
X11132311Y-1785112D01*
X11522456Y-1785112D01*
X8972550Y-1785112D02*
G01*
X8592058Y-1784857D01*
X8552179Y-1744979D01*
X8409940Y-1744979D01*
X6422415Y-1778000D02*
G01*
X6385407Y-1740992D01*
X5995492Y-1740992D01*
X5863407Y-1740992D01*
X7347458Y-1785112D02*
G01*
X7739888Y-1785112D01*
X7780020Y-1744979D01*
X7910068Y-1744979D01*
D11*
X9737498Y-1785000D02*
G01*
X9832098Y-1879600D01*
X11582400Y-1879600D01*
X11676999Y-1785000D01*
X11682498Y-1785000D01*
X7187498Y-1785000D02*
G01*
X7282098Y-1879600D01*
X9037899Y-1879600D01*
X9132498Y-1785000D01*
X6582409Y-1778000D02*
G01*
X7180491Y-1778000D01*
X7187493Y-1785000D01*
X12287498Y-1785000D02*
G01*
X11682498Y-1785000D01*
X9132498Y-1785000D02*
G01*
X9737498Y-1785000D01*
X9132498Y-1529999D02*
G01*
X9132498Y-1785000D01*
X11682498Y-1529999D02*
G01*
X11682498Y-1785000D01*
D10*
X3351529Y-1016000D02*
G01*
X3361690Y-1016000D01*
X3361690Y-1270000D01*
X3361690Y-1778000D02*
G01*
X3361690Y-1790700D01*
X2984500Y-1790700D01*
X2934715Y-1740915D01*
X2802636Y-1740915D01*
X1743710Y-1778000D02*
G01*
X1743710Y-1790700D01*
X2120900Y-1790700D01*
X2170684Y-1740915D01*
X2302763Y-1740915D01*
D11*
X1577594Y-1785112D02*
G01*
X1672081Y-1879600D01*
X3420109Y-1879600D01*
X3521709Y-1778000D01*
D10*
X4804394Y-1778000D02*
G01*
X5194300Y-1778000D01*
X5231307Y-1740992D01*
X5363413Y-1740992D01*
D11*
X1743710Y-1270000D02*
G01*
X1753715Y-1280005D01*
X1753715Y-1524000D01*
X1743682Y-1778000D02*
G01*
X1753717Y-1767964D01*
X1753717Y-1524000D01*
X4635500Y-1778000D02*
G01*
X4732662Y-1879600D01*
X4732781Y-1879600D01*
D10*
X4804407Y-1270000D02*
G01*
X4814415Y-1280002D01*
X4814415Y-1524000D01*
X4804394Y-1778000D02*
G01*
X4814415Y-1767979D01*
X4814415Y-1524000D01*
X3361639Y-1778000D02*
G01*
X3441633Y-1698005D01*
X3441633Y-1346200D01*
X3365433Y-1270000D01*
X3361639Y-1270000D01*
D11*
X3521628Y-1524000D02*
G01*
X3521628Y-1778000D01*
X6582394Y-1524000D02*
G01*
X6582409Y-1524015D01*
X6582409Y-1778000D01*
D10*
X6374295Y-1016000D02*
G01*
X6422390Y-1064094D01*
X6422390Y-1270000D01*
X6422415Y-1778000D02*
G01*
X6422415Y-1769084D01*
X6502400Y-1689100D01*
X6502400Y-1346200D01*
X6426200Y-1270000D01*
X6422392Y-1270000D01*
D11*
X3521633Y-1778000D02*
G01*
X4644390Y-1778000D01*
X588002Y-1778000D02*
G01*
X1583689Y-1778000D01*
D10*
X282981Y-1443507D02*
G01*
X287807Y-1443507D01*
X282981Y-1443507D01*
X428066Y-1591233D01*
X428066Y-1778000D01*
X428066Y-1778000D02*
G01*
X428066Y-1781733D01*
X317500Y-1892300D01*
X15151100Y-1714500D02*
G01*
X15151100Y-1450596D01*
X15074900Y-1651000D02*
G01*
X15086081Y-1639818D01*
X15086081Y-1450599D01*
X12287498Y-1275003D02*
G01*
X12161601Y-1275003D01*
X12115800Y-1320805D01*
X12115800Y-1651000D01*
D11*
X14232381Y-1530095D02*
G01*
X14357095Y-1530095D01*
X14401800Y-1574800D01*
X14401800Y-1676400D01*
X14503400Y-1778000D01*
X15189200Y-1778000D01*
X15216124Y-1751076D01*
X15216124Y-1659582D01*
X15216124Y-1659582D02*
G01*
X15216124Y-1450594D01*
X12287498Y-1785000D02*
G01*
X12382098Y-1879600D01*
X14137899Y-1879600D01*
X14232498Y-1785000D01*
X14232498Y-1529999D02*
G01*
X14232498Y-1785000D01*
D10*
X14956033Y-1450599D02*
G01*
X14956033Y-1541266D01*
X14947900Y-1549400D01*
X14232381Y-1275079D02*
G01*
X14330679Y-1275079D01*
X14452600Y-1397000D01*
X14452600Y-1651000D01*
X14528800Y-1727200D01*
X14947900Y-1727200D01*
X14998700Y-1676400D01*
X14998700Y-1612900D01*
X15021052Y-1590547D01*
X15021052Y-1450594D01*
X14856208Y-1350777D02*
G01*
X14856208Y-1463291D01*
X14782800Y-1536700D01*
X11391900Y-1651000D02*
G01*
X11512905Y-1529994D01*
X11522481Y-1529994D01*
X14856208Y-1285750D02*
G01*
X14805149Y-1285750D01*
X14744700Y-1346200D01*
X14744700Y-1460500D01*
X14856211Y-1220729D02*
G01*
X14781270Y-1220729D01*
X14655800Y-1346200D01*
X14655800Y-1397000D01*
X14856211Y-1155705D02*
G01*
X14770094Y-1155705D01*
X14592300Y-1333500D01*
X11887200Y-1536700D02*
G01*
X11887200Y-1358900D01*
X11803303Y-1275003D01*
X11682501Y-1275003D01*
X14856206Y-1090676D02*
G01*
X14758924Y-1090676D01*
X14579600Y-1270000D01*
X14528800Y-1270000D01*
X14856206Y-1025652D02*
G01*
X14747747Y-1025652D01*
X14566900Y-1206500D01*
X14478000Y-1206500D01*
X9359900Y-1409700D02*
G01*
X9225203Y-1275003D01*
X9132516Y-1275003D01*
X8851900Y-1409700D02*
G01*
X8852204Y-1409700D01*
X8972499Y-1529996D01*
X9550400Y-1485900D02*
G01*
X9737501Y-1298798D01*
X9737501Y-1275003D01*
X14072494Y-1529996D02*
G01*
X14072494Y-1535805D01*
X13919200Y-1689100D01*
X7086600Y-1371600D02*
G01*
X7183196Y-1275003D01*
X7187488Y-1275003D01*
X14856208Y-960635D02*
G01*
X14711164Y-960635D01*
X14541500Y-1130300D01*
X6311900Y-1409700D02*
G01*
X6422491Y-1520291D01*
X6422491Y-1529994D01*
X14956035Y-860808D02*
G01*
X14614908Y-860808D01*
X14554200Y-800100D01*
X6756400Y-1117600D02*
G01*
X6756400Y-1231900D01*
X6713296Y-1275003D01*
X6582511Y-1275003D01*
X4635500Y-1016000D02*
G01*
X4637531Y-1275079D01*
X3314700Y-1409700D02*
G01*
X3362497Y-1457497D01*
X3362497Y-1529996D01*
X3784600Y-736600D02*
G01*
X3784600Y-1143005D01*
X3652601Y-1275003D01*
X3522502Y-1275003D01*
X1574800Y-660400D02*
G01*
X1577492Y-663092D01*
X1577492Y-1275003D01*
X15021062Y-860808D02*
G01*
X15021062Y-809754D01*
X14986005Y-774700D01*
X14643100Y-774700D01*
X15151100Y-860808D02*
G01*
X15151100Y-698505D01*
X15100300Y-647700D01*
X14757400Y-647700D01*
X14770100Y-647700D01*
X15216126Y-860808D02*
G01*
X15216126Y-636531D01*
X15163800Y-584200D01*
X14884400Y-584200D01*
X14833600Y-584200D01*
X15086075Y-860805D02*
G01*
X15086075Y-760476D01*
X15036800Y-711200D01*
X14706600Y-711200D01*
X15446004Y-1285750D02*
G01*
X15484350Y-1285750D01*
X15659100Y-1460500D01*
X15445991Y-1350769D02*
G01*
X15460477Y-1350769D01*
X15621000Y-1511300D01*
X15446004Y-1220731D02*
G01*
X15508226Y-1220731D01*
X15697200Y-1409700D01*
X15446004Y-960635D02*
G01*
X15552935Y-960635D01*
X15824200Y-1231900D01*
D11*
X15346177Y-1450596D02*
G01*
X15471391Y-1450596D01*
X15582900Y-1562100D01*
X15582900Y-1562100D02*
G01*
X16624300Y-1562100D01*
X16713200Y-1473200D01*
X16713200Y-1358900D01*
X16700500Y-1346200D01*
D10*
X15621000Y-1511300D02*
G01*
X16281400Y-1511300D01*
X16446500Y-1346200D01*
X15659100Y-1460500D02*
G01*
X16078200Y-1460500D01*
X16192500Y-1346200D01*
X15697200Y-1409700D02*
G01*
X15938500Y-1409700D01*
X15938500Y-1346200D01*
X15824200Y-1231900D02*
G01*
X16052800Y-1231900D01*
X16192500Y-1092200D01*
X15684500Y-914400D02*
G01*
X15630906Y-860805D01*
X15346172Y-860805D01*
X15544800Y-787400D02*
G01*
X15303500Y-787400D01*
X15281147Y-809752D01*
X15281147Y-860805D01*
X16192500Y-1092200D02*
G01*
X16306800Y-977900D01*
X16306800Y-850900D01*
X16306800Y-762000D01*
D11*
X16817682Y-764999D02*
G01*
X16477683Y-764999D01*
X16954500Y-1092200D02*
G01*
X16954500Y-1066800D01*
X16817593Y-929894D01*
X16817593Y-765047D01*
D12*
X14956027Y-1478094D02*
G01*
X14956027Y-1423095D01*
X15021052Y-1478094D02*
G01*
X15021052Y-1423095D01*
X15086075Y-1478094D02*
G01*
X15086075Y-1423095D01*
X15151100Y-1478094D02*
G01*
X15151100Y-1423095D01*
X15216124Y-1478094D02*
G01*
X15216124Y-1423095D01*
X15281147Y-1478094D02*
G01*
X15281147Y-1423095D01*
D13*
X15346172Y-1480593D02*
G01*
X15346172Y-1420594D01*
D12*
X15418495Y-1350771D02*
G01*
X15473492Y-1350771D01*
X15418495Y-1285747D02*
G01*
X15473492Y-1285747D01*
X15418495Y-1220723D02*
G01*
X15473492Y-1220723D01*
X15418495Y-1155700D02*
G01*
X15473492Y-1155700D01*
X15418495Y-1090676D02*
G01*
X15473492Y-1090676D01*
X15418495Y-1025652D02*
G01*
X15473492Y-1025652D01*
X15418495Y-960628D02*
G01*
X15473492Y-960628D01*
X15346172Y-888306D02*
G01*
X15346172Y-833307D01*
X15281147Y-888306D02*
G01*
X15281147Y-833307D01*
X15216124Y-888306D02*
G01*
X15216124Y-833307D01*
X15151100Y-888306D02*
G01*
X15151100Y-833307D01*
X15086075Y-888306D02*
G01*
X15086075Y-833307D01*
X15021052Y-888306D02*
G01*
X15021052Y-833307D01*
X14956027Y-888306D02*
G01*
X14956027Y-833307D01*
X14828707Y-960628D02*
G01*
X14883706Y-960628D01*
X14828707Y-1025652D02*
G01*
X14883706Y-1025652D01*
X14828707Y-1090676D02*
G01*
X14883706Y-1090676D01*
X14828707Y-1155700D02*
G01*
X14883706Y-1155700D01*
X14828707Y-1220723D02*
G01*
X14883706Y-1220723D01*
X14828707Y-1285747D02*
G01*
X14883706Y-1285747D01*
X14828707Y-1350771D02*
G01*
X14883706Y-1350771D01*
G36*
X3472507Y-1220000D02*
G01*
X3572507Y-1220000D01*
X3572507Y-1330002D01*
X3472507Y-1330002D01*
G37*
G36*
X3312507Y-1220000D02*
G01*
X3412507Y-1220000D01*
X3412507Y-1330002D01*
X3312507Y-1330002D01*
G37*
G36*
X1687507Y-1729999D02*
G01*
X1787507Y-1729999D01*
X1787507Y-1840001D01*
X1687507Y-1840001D01*
G37*
G36*
X1527507Y-1729999D02*
G01*
X1627507Y-1729999D01*
X1627507Y-1840001D01*
X1527507Y-1840001D01*
G37*
D15*
G01*
X1577492Y-1275003D03*
G01*
X1737487Y-1275003D03*
G01*
X3362502Y-1785010D03*
G01*
X3522497Y-1785010D03*
G01*
X6422390Y-1778000D03*
G01*
X6582384Y-1778000D03*
G01*
X4637481Y-1275003D03*
G01*
X4797501Y-1275003D03*
G36*
X4747506Y-1729999D02*
G01*
X4847506Y-1729999D01*
X4847506Y-1840001D01*
X4747506Y-1840001D01*
G37*
G36*
X4587506Y-1729999D02*
G01*
X4687506Y-1729999D01*
X4687506Y-1840001D01*
X4587506Y-1840001D01*
G37*
G01*
X6422491Y-1529994D03*
G01*
X6582486Y-1529994D03*
G36*
X6532506Y-1220000D02*
G01*
X6632506Y-1220000D01*
X6632506Y-1330002D01*
X6532506Y-1330002D01*
G37*
G36*
X6372506Y-1220000D02*
G01*
X6472506Y-1220000D01*
X6472506Y-1330002D01*
X6372506Y-1330002D01*
G37*
G01*
X8972499Y-1785010D03*
G01*
X9132493Y-1785010D03*
G01*
X7187488Y-1275003D03*
G01*
X7347483Y-1275003D03*
G36*
X7297506Y-1729999D02*
G01*
X7397506Y-1729999D01*
X7397506Y-1840001D01*
X7297506Y-1840001D01*
G37*
G36*
X7137506Y-1729999D02*
G01*
X7237506Y-1729999D01*
X7237506Y-1840001D01*
X7137506Y-1840001D01*
G37*
G36*
X9082506Y-1220000D02*
G01*
X9182506Y-1220000D01*
X9182506Y-1330002D01*
X9082506Y-1330002D01*
G37*
G36*
X8922506Y-1220000D02*
G01*
X9022506Y-1220000D01*
X9022506Y-1330002D01*
X8922506Y-1330002D01*
G37*
G01*
X11522481Y-1785010D03*
G01*
X11682501Y-1785010D03*
G01*
X9737496Y-1275003D03*
G01*
X9897490Y-1275003D03*
G36*
X9847506Y-1729999D02*
G01*
X9947506Y-1729999D01*
X9947506Y-1840001D01*
X9847506Y-1840001D01*
G37*
G36*
X9687506Y-1729999D02*
G01*
X9787506Y-1729999D01*
X9787506Y-1840001D01*
X9687506Y-1840001D01*
G37*
G36*
X11632506Y-1220000D02*
G01*
X11732506Y-1220000D01*
X11732506Y-1330002D01*
X11632506Y-1330002D01*
G37*
G36*
X11472506Y-1220000D02*
G01*
X11572506Y-1220000D01*
X11572506Y-1330002D01*
X11472506Y-1330002D01*
G37*
G01*
X14072488Y-1785010D03*
G01*
X14232483Y-1785010D03*
G01*
X12287504Y-1275003D03*
G01*
X12447498Y-1275003D03*
G36*
X12397506Y-1729999D02*
G01*
X12497506Y-1729999D01*
X12497506Y-1840001D01*
X12397506Y-1840001D01*
G37*
G36*
X12237506Y-1729999D02*
G01*
X12337506Y-1729999D01*
X12337506Y-1840001D01*
X12237506Y-1840001D01*
G37*
G36*
X14182506Y-1220000D02*
G01*
X14282506Y-1220000D01*
X14282506Y-1330002D01*
X14182506Y-1330002D01*
G37*
G36*
X14022506Y-1220000D02*
G01*
X14122506Y-1220000D01*
X14122506Y-1330002D01*
X14022506Y-1330002D01*
G37*
G01*
X16317696Y-764997D03*
G01*
X16477691Y-764997D03*
G36*
X684004Y-478495D02*
G01*
X782005Y-478495D01*
X782005Y-698494D01*
X684004Y-698494D01*
G37*
G36*
X233994Y-478495D02*
G01*
X331993Y-478495D01*
X331993Y-698494D01*
X233994Y-698494D01*
G37*
G36*
X684004Y-1333505D02*
G01*
X782005Y-1333505D01*
X782005Y-1553504D01*
X684004Y-1553504D01*
G37*
G36*
X233994Y-1333505D02*
G01*
X331993Y-1333505D01*
X331993Y-1553504D01*
X233994Y-1553504D01*
G37*
G01*
X16997705Y-764997D03*
G01*
X16817695Y-764997D03*
G01*
X3362502Y-1529994D03*
G01*
X3522497Y-1529994D03*
G01*
X8972499Y-1529994D03*
G01*
X9132493Y-1529994D03*
G01*
X11522481Y-1529994D03*
G01*
X11682501Y-1529994D03*
G01*
X14072488Y-1529994D03*
G01*
X14232483Y-1529994D03*
G01*
X428066Y-1778000D03*
G01*
X588060Y-1778000D03*
G36*
X1517441Y-1475094D02*
G01*
X1617441Y-1475094D01*
X1617441Y-1585097D01*
X1517441Y-1585097D01*
G37*
G36*
X1697451Y-1475094D02*
G01*
X1797451Y-1475094D01*
X1797451Y-1585097D01*
X1697451Y-1585097D01*
G37*
G01*
X3532555Y-1020063D03*
G01*
X3352545Y-1020063D03*
G01*
X6592493Y-1020063D03*
G01*
X6412484Y-1020063D03*
G36*
X4577379Y-1475094D02*
G01*
X4677379Y-1475094D01*
X4677379Y-1585097D01*
X4577379Y-1585097D01*
G37*
G36*
X4757389Y-1475094D02*
G01*
X4857389Y-1475094D01*
X4857389Y-1585097D01*
X4757389Y-1585097D01*
G37*
G01*
X9142399Y-1020063D03*
G01*
X8962390Y-1020063D03*
G36*
X7127539Y-1475094D02*
G01*
X7227539Y-1475094D01*
X7227539Y-1585097D01*
X7127539Y-1585097D01*
G37*
G36*
X7307549Y-1475094D02*
G01*
X7407549Y-1475094D01*
X7407549Y-1585097D01*
X7307549Y-1585097D01*
G37*
G01*
X11692559Y-1020063D03*
G01*
X11512550Y-1020063D03*
G36*
X9677445Y-1475094D02*
G01*
X9777445Y-1475094D01*
X9777445Y-1585097D01*
X9677445Y-1585097D01*
G37*
G36*
X9857455Y-1475094D02*
G01*
X9957455Y-1475094D01*
X9957455Y-1585097D01*
X9857455Y-1585097D01*
G37*
G01*
X14242465Y-1020063D03*
G01*
X14062456Y-1020063D03*
G36*
X12227605Y-1475094D02*
G01*
X12327605Y-1475094D01*
X12327605Y-1585097D01*
X12227605Y-1585097D01*
G37*
G36*
X12407615Y-1475094D02*
G01*
X12507615Y-1475094D01*
X12507615Y-1585097D01*
X12407615Y-1585097D01*
G37*
D17*
G01*
X15151100Y-1155700D03*
D18*
G01*
X2302713Y-291007D03*
G01*
X2802712Y-291007D03*
G01*
X2302713Y-1740992D03*
G01*
X2552700Y-1740992D03*
G01*
X2802712Y-1740992D03*
G01*
X5363413Y-291007D03*
G01*
X5863412Y-291007D03*
G01*
X5363413Y-1740992D03*
G01*
X5613400Y-1740992D03*
G01*
X5863412Y-1740992D03*
G01*
X7910017Y-295020D03*
G01*
X8410016Y-295020D03*
G01*
X7910017Y-1745005D03*
G01*
X8160004Y-1745005D03*
G01*
X8410016Y-1745005D03*
G01*
X10460024Y-295020D03*
G01*
X10960023Y-295020D03*
G01*
X10460024Y-1745005D03*
G01*
X10710011Y-1745005D03*
G01*
X10960023Y-1745005D03*
G01*
X13010006Y-295020D03*
G01*
X13510006Y-295020D03*
G01*
X13010006Y-1745005D03*
G01*
X13259993Y-1745005D03*
G01*
X13510006Y-1745005D03*
D19*
G01*
X16446500Y-1092200D03*
G01*
X15938500Y-1092200D03*
G01*
X15938500Y-1346200D03*
G01*
X16192500Y-1092200D03*
G01*
X16192500Y-1346200D03*
G01*
X16446500Y-1346200D03*
G01*
X16700500Y-1092200D03*
G01*
X16700500Y-1346200D03*
G01*
X16954500Y-1092200D03*
G36*
X17039501Y-1267460D02*
G01*
X16869498Y-1267460D01*
X16869498Y-1424939D01*
X17039501Y-1424939D01*
G37*
D14*
G01*
X11887200Y-1536700D03*
G01*
X8851900Y-1409700D03*
G01*
X9550400Y-1485900D03*
G01*
X14592300Y-1333500D03*
G01*
X14655800Y-1397000D03*
G01*
X14744700Y-1460500D03*
G01*
X11391900Y-1651000D03*
G01*
X14782800Y-1536700D03*
G01*
X15216124Y-1659585D03*
G01*
X12115800Y-1651000D03*
G01*
X14947900Y-1549400D03*
G01*
X15074900Y-1651000D03*
G01*
X15151100Y-1714500D03*
G01*
X317500Y-1892300D03*
G01*
X14528800Y-1270000D03*
G01*
X14478000Y-1206500D03*
G01*
X9359900Y-1409700D03*
G01*
X13919200Y-1689100D03*
G01*
X7086600Y-1371600D03*
G01*
X14541500Y-1130300D03*
G01*
X6311900Y-1409700D03*
G01*
X14554200Y-800100D03*
G01*
X6756400Y-1117600D03*
G01*
X14643100Y-774700D03*
G01*
X4635500Y-1016000D03*
G01*
X14706600Y-711200D03*
G01*
X3314700Y-1409700D03*
G01*
X14770100Y-647700D03*
G01*
X3784600Y-736600D03*
G01*
X14833600Y-584200D03*
G01*
X1574800Y-660400D03*
G01*
X15684500Y-914400D03*
G01*
X15544800Y-787400D03*
D21*
X1982698Y-921006D02*
G01*
X1982698Y-1061006D01*
X3122701Y-921006D02*
G01*
X3122701Y-1061006D01*
X5043398Y-921006D02*
G01*
X5043398Y-1061006D01*
X6183401Y-921006D02*
G01*
X6183401Y-1061006D01*
X7590002Y-925019D02*
G01*
X7590002Y-1065019D01*
X8730005Y-925019D02*
G01*
X8730005Y-1065019D01*
X10140010Y-925019D02*
G01*
X10140010Y-1065019D01*
X11280013Y-925019D02*
G01*
X11280013Y-1065019D01*
X12689992Y-925019D02*
G01*
X12689992Y-1065019D01*
X13829995Y-925019D02*
G01*
X13829995Y-1065019D01*
M02*
