G04 Layer: TopSolderMaskLayer*
G04 EasyEDA v6.4.19.5, 2021-05-31T22:29:23+02:00*
G04 854b63200669450aa1ca204ba71e84e5,563db0ff5b334ec4995e7372edb549dc,10*
G04 Gerber Generator version 0.2*
G04 Scale: 100 percent, Rotated: No, Reflected: No *
G04 Dimensions in millimeters *
G04 leading zeros omitted , absolute positions ,4 integer and 5 decimal *
%FSLAX45Y45*%
%MOMM*%

%ADD24C,2.5016*%
%ADD25C,0.5532*%
%ADD26C,0.5032*%
%ADD27C,1.9016*%
%ADD32C,1.8016*%

%LPD*%
D24*
X1982698Y-921006D02*
G01*
X1982698Y-1061006D01*
X3122701Y-921006D02*
G01*
X3122701Y-1061006D01*
X5043398Y-921006D02*
G01*
X5043398Y-1061006D01*
X6183401Y-921006D02*
G01*
X6183401Y-1061006D01*
X7590002Y-925019D02*
G01*
X7590002Y-1065019D01*
X8730005Y-925019D02*
G01*
X8730005Y-1065019D01*
X10140010Y-925019D02*
G01*
X10140010Y-1065019D01*
X11280013Y-925019D02*
G01*
X11280013Y-1065019D01*
X12689992Y-925019D02*
G01*
X12689992Y-1065019D01*
X13829995Y-925019D02*
G01*
X13829995Y-1065019D01*
D25*
X14956027Y-1478094D02*
G01*
X14956027Y-1423095D01*
X15021052Y-1478094D02*
G01*
X15021052Y-1423095D01*
X15086075Y-1478094D02*
G01*
X15086075Y-1423095D01*
X15151100Y-1478094D02*
G01*
X15151100Y-1423095D01*
X15216124Y-1478094D02*
G01*
X15216124Y-1423095D01*
X15281147Y-1478094D02*
G01*
X15281147Y-1423095D01*
D26*
X15346172Y-1480593D02*
G01*
X15346172Y-1420594D01*
D25*
X15418495Y-1350771D02*
G01*
X15473492Y-1350771D01*
X15418495Y-1285747D02*
G01*
X15473492Y-1285747D01*
X15418495Y-1220723D02*
G01*
X15473492Y-1220723D01*
X15418495Y-1155700D02*
G01*
X15473492Y-1155700D01*
X15418495Y-1090676D02*
G01*
X15473492Y-1090676D01*
X15418495Y-1025652D02*
G01*
X15473492Y-1025652D01*
X15418495Y-960628D02*
G01*
X15473492Y-960628D01*
X15346172Y-888306D02*
G01*
X15346172Y-833307D01*
X15281147Y-888306D02*
G01*
X15281147Y-833307D01*
X15216124Y-888306D02*
G01*
X15216124Y-833307D01*
X15151100Y-888306D02*
G01*
X15151100Y-833307D01*
X15086075Y-888306D02*
G01*
X15086075Y-833307D01*
X15021052Y-888306D02*
G01*
X15021052Y-833307D01*
X14956027Y-888306D02*
G01*
X14956027Y-833307D01*
X14828707Y-960628D02*
G01*
X14883706Y-960628D01*
X14828707Y-1025652D02*
G01*
X14883706Y-1025652D01*
X14828707Y-1090676D02*
G01*
X14883706Y-1090676D01*
X14828707Y-1155700D02*
G01*
X14883706Y-1155700D01*
X14828707Y-1220723D02*
G01*
X14883706Y-1220723D01*
X14828707Y-1285747D02*
G01*
X14883706Y-1285747D01*
X14828707Y-1350771D02*
G01*
X14883706Y-1350771D01*
D27*
G01*
X2302713Y-291007D03*
G01*
X2802712Y-291007D03*
G01*
X2302713Y-1740992D03*
G01*
X2552700Y-1740992D03*
G01*
X2802712Y-1740992D03*
G01*
X5363413Y-291007D03*
G01*
X5863412Y-291007D03*
G01*
X5363413Y-1740992D03*
G01*
X5613400Y-1740992D03*
G01*
X5863412Y-1740992D03*
G01*
X7910017Y-295020D03*
G01*
X8410016Y-295020D03*
G01*
X7910017Y-1745005D03*
G01*
X8160004Y-1745005D03*
G01*
X8410016Y-1745005D03*
G01*
X10460024Y-295020D03*
G01*
X10960023Y-295020D03*
G01*
X10460024Y-1745005D03*
G01*
X10710011Y-1745005D03*
G01*
X10960023Y-1745005D03*
G01*
X13010006Y-295020D03*
G01*
X13510006Y-295020D03*
G01*
X13010006Y-1745005D03*
G01*
X13259993Y-1745005D03*
G01*
X13510006Y-1745005D03*
G36*
X3467354Y-1335023D02*
G01*
X3467354Y-1214881D01*
X3577590Y-1214881D01*
X3577590Y-1335023D01*
G37*
G36*
X3307334Y-1335023D02*
G01*
X3307334Y-1214881D01*
X3417570Y-1214881D01*
X3417570Y-1335023D01*
G37*
G36*
X1682495Y-1845055D02*
G01*
X1682495Y-1724913D01*
X1792478Y-1724913D01*
X1792478Y-1845055D01*
G37*
G36*
X1522476Y-1845055D02*
G01*
X1522476Y-1724913D01*
X1632712Y-1724913D01*
X1632712Y-1845055D01*
G37*
G36*
X1522476Y-1335023D02*
G01*
X1522476Y-1214881D01*
X1632457Y-1214881D01*
X1632457Y-1335023D01*
G37*
G36*
X1682495Y-1335023D02*
G01*
X1682495Y-1214881D01*
X1792478Y-1214881D01*
X1792478Y-1335023D01*
G37*
G36*
X3307334Y-1845055D02*
G01*
X3307334Y-1724913D01*
X3417570Y-1724913D01*
X3417570Y-1845055D01*
G37*
G36*
X3467354Y-1845055D02*
G01*
X3467354Y-1724913D01*
X3577590Y-1724913D01*
X3577590Y-1845055D01*
G37*
G36*
X6367272Y-1838197D02*
G01*
X6367272Y-1717802D01*
X6477508Y-1717802D01*
X6477508Y-1838197D01*
G37*
G36*
X6527291Y-1838197D02*
G01*
X6527291Y-1717802D01*
X6637527Y-1717802D01*
X6637527Y-1838197D01*
G37*
G36*
X4582413Y-1335023D02*
G01*
X4582413Y-1214881D01*
X4692650Y-1214881D01*
X4692650Y-1335023D01*
G37*
G36*
X4742434Y-1335023D02*
G01*
X4742434Y-1214881D01*
X4852670Y-1214881D01*
X4852670Y-1335023D01*
G37*
G36*
X4742434Y-1845055D02*
G01*
X4742434Y-1724913D01*
X4852670Y-1724913D01*
X4852670Y-1845055D01*
G37*
G36*
X4582413Y-1845055D02*
G01*
X4582413Y-1724913D01*
X4692650Y-1724913D01*
X4692650Y-1845055D01*
G37*
G36*
X6367525Y-1590039D02*
G01*
X6367525Y-1469897D01*
X6477508Y-1469897D01*
X6477508Y-1590039D01*
G37*
G36*
X6527291Y-1590039D02*
G01*
X6527291Y-1469897D01*
X6637527Y-1469897D01*
X6637527Y-1590039D01*
G37*
G36*
X6527545Y-1335023D02*
G01*
X6527545Y-1214881D01*
X6637527Y-1214881D01*
X6637527Y-1335023D01*
G37*
G36*
X6367525Y-1335023D02*
G01*
X6367525Y-1214881D01*
X6477508Y-1214881D01*
X6477508Y-1335023D01*
G37*
G36*
X8917431Y-1845055D02*
G01*
X8917431Y-1724913D01*
X9027668Y-1724913D01*
X9027668Y-1845055D01*
G37*
G36*
X9077452Y-1845055D02*
G01*
X9077452Y-1724913D01*
X9187688Y-1724913D01*
X9187688Y-1845055D01*
G37*
G36*
X7132320Y-1335023D02*
G01*
X7132320Y-1214881D01*
X7242556Y-1214881D01*
X7242556Y-1335023D01*
G37*
G36*
X7292340Y-1335023D02*
G01*
X7292340Y-1214881D01*
X7402575Y-1214881D01*
X7402575Y-1335023D01*
G37*
G36*
X7292340Y-1845055D02*
G01*
X7292340Y-1724913D01*
X7402575Y-1724913D01*
X7402575Y-1845055D01*
G37*
G36*
X7132320Y-1845055D02*
G01*
X7132320Y-1724913D01*
X7242556Y-1724913D01*
X7242556Y-1845055D01*
G37*
G36*
X9077452Y-1335023D02*
G01*
X9077452Y-1214881D01*
X9187688Y-1214881D01*
X9187688Y-1335023D01*
G37*
G36*
X8917431Y-1335023D02*
G01*
X8917431Y-1214881D01*
X9027668Y-1214881D01*
X9027668Y-1335023D01*
G37*
G36*
X11467338Y-1845055D02*
G01*
X11467338Y-1724913D01*
X11577574Y-1724913D01*
X11577574Y-1845055D01*
G37*
G36*
X11627358Y-1845055D02*
G01*
X11627358Y-1724913D01*
X11737593Y-1724913D01*
X11737593Y-1845055D01*
G37*
G36*
X9682479Y-1335023D02*
G01*
X9682479Y-1214881D01*
X9792461Y-1214881D01*
X9792461Y-1335023D01*
G37*
G36*
X9842500Y-1335023D02*
G01*
X9842500Y-1214881D01*
X9952481Y-1214881D01*
X9952481Y-1335023D01*
G37*
G36*
X9842500Y-1845055D02*
G01*
X9842500Y-1724913D01*
X9952481Y-1724913D01*
X9952481Y-1845055D01*
G37*
G36*
X9682479Y-1845055D02*
G01*
X9682479Y-1724913D01*
X9792461Y-1724913D01*
X9792461Y-1845055D01*
G37*
G36*
X11627358Y-1335023D02*
G01*
X11627358Y-1214881D01*
X11737593Y-1214881D01*
X11737593Y-1335023D01*
G37*
G36*
X11467338Y-1335023D02*
G01*
X11467338Y-1214881D01*
X11577574Y-1214881D01*
X11577574Y-1335023D01*
G37*
G36*
X14017497Y-1845055D02*
G01*
X14017497Y-1724913D01*
X14127479Y-1724913D01*
X14127479Y-1845055D01*
G37*
G36*
X14177518Y-1845055D02*
G01*
X14177518Y-1724913D01*
X14287500Y-1724913D01*
X14287500Y-1845055D01*
G37*
G36*
X12232386Y-1335023D02*
G01*
X12232386Y-1214881D01*
X12342622Y-1214881D01*
X12342622Y-1335023D01*
G37*
G36*
X12392406Y-1335023D02*
G01*
X12392406Y-1214881D01*
X12502641Y-1214881D01*
X12502641Y-1335023D01*
G37*
G36*
X12392406Y-1845055D02*
G01*
X12392406Y-1724913D01*
X12502641Y-1724913D01*
X12502641Y-1845055D01*
G37*
G36*
X12232386Y-1845055D02*
G01*
X12232386Y-1724913D01*
X12342622Y-1724913D01*
X12342622Y-1845055D01*
G37*
G36*
X14177518Y-1335023D02*
G01*
X14177518Y-1214881D01*
X14287500Y-1214881D01*
X14287500Y-1335023D01*
G37*
G36*
X14017497Y-1335023D02*
G01*
X14017497Y-1214881D01*
X14127479Y-1214881D01*
X14127479Y-1335023D01*
G37*
G36*
X16262604Y-824992D02*
G01*
X16262604Y-704850D01*
X16372840Y-704850D01*
X16372840Y-824992D01*
G37*
G36*
X16422624Y-824992D02*
G01*
X16422624Y-704850D01*
X16532859Y-704850D01*
X16532859Y-824992D01*
G37*
G36*
X678942Y-703579D02*
G01*
X678942Y-473455D01*
X787145Y-473455D01*
X787145Y-703579D01*
G37*
G36*
X228854Y-703579D02*
G01*
X228854Y-473455D01*
X337057Y-473455D01*
X337057Y-703579D01*
G37*
G36*
X678942Y-1558544D02*
G01*
X678942Y-1328420D01*
X787145Y-1328420D01*
X787145Y-1558544D01*
G37*
G36*
X228854Y-1558544D02*
G01*
X228854Y-1328420D01*
X337057Y-1328420D01*
X337057Y-1558544D01*
G37*
G36*
X16937481Y-830071D02*
G01*
X16937481Y-699770D01*
X17057877Y-699770D01*
X17057877Y-830071D01*
G37*
G36*
X16757650Y-830071D02*
G01*
X16757650Y-699770D01*
X16877791Y-699770D01*
X16877791Y-830071D01*
G37*
G36*
X3307334Y-1590039D02*
G01*
X3307334Y-1469897D01*
X3417570Y-1469897D01*
X3417570Y-1590039D01*
G37*
G36*
X3467354Y-1590039D02*
G01*
X3467354Y-1469897D01*
X3577590Y-1469897D01*
X3577590Y-1590039D01*
G37*
G36*
X8917431Y-1590039D02*
G01*
X8917431Y-1469897D01*
X9027668Y-1469897D01*
X9027668Y-1590039D01*
G37*
G36*
X9077452Y-1590039D02*
G01*
X9077452Y-1469897D01*
X9187688Y-1469897D01*
X9187688Y-1590039D01*
G37*
G36*
X11467338Y-1590039D02*
G01*
X11467338Y-1469897D01*
X11577574Y-1469897D01*
X11577574Y-1590039D01*
G37*
G36*
X11627358Y-1590039D02*
G01*
X11627358Y-1469897D01*
X11737593Y-1469897D01*
X11737593Y-1590039D01*
G37*
G36*
X14017497Y-1590039D02*
G01*
X14017497Y-1469897D01*
X14127479Y-1469897D01*
X14127479Y-1590039D01*
G37*
G36*
X14177518Y-1590039D02*
G01*
X14177518Y-1469897D01*
X14287500Y-1469897D01*
X14287500Y-1590039D01*
G37*
G36*
X372871Y-1838197D02*
G01*
X372871Y-1717802D01*
X483107Y-1717802D01*
X483107Y-1838197D01*
G37*
G36*
X532892Y-1838197D02*
G01*
X532892Y-1717802D01*
X643128Y-1717802D01*
X643128Y-1838197D01*
G37*
G36*
X1507236Y-1595373D02*
G01*
X1507236Y-1464818D01*
X1627631Y-1464818D01*
X1627631Y-1595373D01*
G37*
G36*
X1687321Y-1595373D02*
G01*
X1687321Y-1464818D01*
X1807718Y-1464818D01*
X1807718Y-1595373D01*
G37*
G36*
X3472434Y-1085342D02*
G01*
X3472434Y-954786D01*
X3592829Y-954786D01*
X3592829Y-1085342D01*
G37*
G36*
X3292347Y-1085342D02*
G01*
X3292347Y-954786D01*
X3412743Y-954786D01*
X3412743Y-1085342D01*
G37*
G36*
X6532372Y-1085342D02*
G01*
X6532372Y-954786D01*
X6652768Y-954786D01*
X6652768Y-1085342D01*
G37*
G36*
X6352286Y-1085342D02*
G01*
X6352286Y-954786D01*
X6472681Y-954786D01*
X6472681Y-1085342D01*
G37*
G36*
X4567174Y-1595373D02*
G01*
X4567174Y-1464818D01*
X4687570Y-1464818D01*
X4687570Y-1595373D01*
G37*
G36*
X4747259Y-1595373D02*
G01*
X4747259Y-1464818D01*
X4867656Y-1464818D01*
X4867656Y-1595373D01*
G37*
G36*
X9082277Y-1085342D02*
G01*
X9082277Y-954786D01*
X9202674Y-954786D01*
X9202674Y-1085342D01*
G37*
G36*
X8902191Y-1085342D02*
G01*
X8902191Y-954786D01*
X9022588Y-954786D01*
X9022588Y-1085342D01*
G37*
G36*
X7117334Y-1595373D02*
G01*
X7117334Y-1464818D01*
X7237729Y-1464818D01*
X7237729Y-1595373D01*
G37*
G36*
X7297420Y-1595373D02*
G01*
X7297420Y-1464818D01*
X7417815Y-1464818D01*
X7417815Y-1595373D01*
G37*
G36*
X11632438Y-1085342D02*
G01*
X11632438Y-954786D01*
X11752834Y-954786D01*
X11752834Y-1085342D01*
G37*
G36*
X11452352Y-1085342D02*
G01*
X11452352Y-954786D01*
X11572747Y-954786D01*
X11572747Y-1085342D01*
G37*
G36*
X9667240Y-1595373D02*
G01*
X9667240Y-1464818D01*
X9787636Y-1464818D01*
X9787636Y-1595373D01*
G37*
G36*
X9847325Y-1595373D02*
G01*
X9847325Y-1464818D01*
X9967722Y-1464818D01*
X9967722Y-1595373D01*
G37*
G36*
X14182343Y-1085342D02*
G01*
X14182343Y-954786D01*
X14302740Y-954786D01*
X14302740Y-1085342D01*
G37*
G36*
X14002258Y-1085342D02*
G01*
X14002258Y-954786D01*
X14122654Y-954786D01*
X14122654Y-1085342D01*
G37*
G36*
X12217400Y-1595373D02*
G01*
X12217400Y-1464818D01*
X12337795Y-1464818D01*
X12337795Y-1595373D01*
G37*
G36*
X12397486Y-1595373D02*
G01*
X12397486Y-1464818D01*
X12517881Y-1464818D01*
X12517881Y-1595373D01*
G37*
G36*
X14930881Y-1375918D02*
G01*
X14930881Y-935481D01*
X15371318Y-935481D01*
X15371318Y-1375918D01*
G37*
D32*
G01*
X16446500Y-1092200D03*
G01*
X15938500Y-1092200D03*
G01*
X15938500Y-1346200D03*
G01*
X16192500Y-1092200D03*
G01*
X16192500Y-1346200D03*
G01*
X16446500Y-1346200D03*
G01*
X16700500Y-1092200D03*
G01*
X16700500Y-1346200D03*
G01*
X16954500Y-1092200D03*
G36*
X16864329Y-1430020D02*
G01*
X16864329Y-1262379D01*
X17044670Y-1262379D01*
X17044670Y-1430020D01*
G37*
M02*
