M48
METRIC,LZ,000.000
;FILE_FORMAT=3:3
;TYPE=PLATED
;Layer: Drill PTH
;EasyEDA v6.4.19.5, 2021-05-31T22:29:23+02:00
;854b63200669450aa1ca204ba71e84e5,563db0ff5b334ec4995e7372edb549dc,10
;Gerber Generator version 0.2
;Holesize 1 = 0.305 mm
T01C0.305
;Holesize 2 = 1.022 mm
T02C1.022
;Holesize 3 = 1.101 mm
T03C1.101
;Holesize 4 = 1.200 mm
T04C1.200
;Holesize 5 = 1.400 mm
T05C1.400
%
G05
G90
T01
X118872Y-015367
X088519Y-014097
X095504Y-014859
X145923Y-013335
X146558Y-013970
X147447Y-014605
X113919Y-016510
X147828Y-015367
X152161Y-016596
X121158Y-016510
X149479Y-015494
X150749Y-016510
X151511Y-017145
X003175Y-018923
X145288Y-012700
X144780Y-012065
X093599Y-014097
X139192Y-016891
X070866Y-013716
X145415Y-011303
X063119Y-014097
X145542Y-008001
X067564Y-011176
X146431Y-007747
X046355Y-010160
X147066Y-007112
X033147Y-014097
X147701Y-006477
X037846Y-007366
X148336Y-005842
X015748Y-006604
X156845Y-009144
X155448Y-007874
T02
X164465Y-010922
T03
X159385Y-010922
X159385Y-013462
X161925Y-010922
X161925Y-013462
X164465Y-013462
X167005Y-010922
X167005Y-013462
X169545Y-010922
X169545Y-013462
T04
X023027Y-002910
X028027Y-002910
X023027Y-017410
X025527Y-017410
X028027Y-017410
X053634Y-002910
X058634Y-002910
X053634Y-017410
X056134Y-017410
X058634Y-017410
X079100Y-002950
X084100Y-002950
X079100Y-017450
X081600Y-017450
X084100Y-017450
X104600Y-002950
X109600Y-002950
X104600Y-017450
X107100Y-017450
X109600Y-017450
X130100Y-002950
X135100Y-002950
X130100Y-017450
X132600Y-017450
X135100Y-017450
T05
X019827Y-010610G85X019827Y-009210
X031227Y-010610G85X031227Y-009210
X050434Y-010610G85X050434Y-009210
X061834Y-010610G85X061834Y-009210
X075900Y-010650G85X075900Y-009250
X087300Y-010650G85X087300Y-009250
X101400Y-010650G85X101400Y-009250
X112800Y-010650G85X112800Y-009250
X126900Y-010650G85X126900Y-009250
X138300Y-010650G85X138300Y-009250
M30
