G04 Layer: BottomLayer*
G04 EasyEDA v6.4.19.5, 2021-05-31T22:29:23+02:00*
G04 854b63200669450aa1ca204ba71e84e5,563db0ff5b334ec4995e7372edb549dc,10*
G04 Gerber Generator version 0.2*
G04 Scale: 100 percent, Rotated: No, Reflected: No *
G04 Dimensions in millimeters *
G04 leading zeros omitted , absolute positions ,4 integer and 5 decimal *
%FSLAX45Y45*%
%MOMM*%

%ADD10C,0.2540*%
%ADD11C,0.3050*%
%ADD14C,0.6096*%
%ADD18C,1.8000*%
%ADD19C,1.7000*%
%ADD21C,2.4000*%

%LPD*%
G36*
X35814Y-1974342D02*
G01*
X31902Y-1973580D01*
X28651Y-1971344D01*
X26416Y-1968093D01*
X25654Y-1964182D01*
X25654Y-35814D01*
X26416Y-31902D01*
X28651Y-28651D01*
X31902Y-26416D01*
X35814Y-25654D01*
X17185386Y-25654D01*
X17189297Y-26416D01*
X17192548Y-28651D01*
X17194784Y-31902D01*
X17195546Y-35814D01*
X17195546Y-1964182D01*
X17194784Y-1968093D01*
X17192548Y-1971344D01*
X17189297Y-1973580D01*
X17185386Y-1974342D01*
G37*

%LPC*%
G36*
X317500Y-1948383D02*
G01*
X327253Y-1947519D01*
X336702Y-1945030D01*
X345541Y-1940864D01*
X353568Y-1935276D01*
X355193Y-1933651D01*
X358495Y-1931416D01*
X362407Y-1930654D01*
X13550646Y-1930654D01*
X13558621Y-1929892D01*
X13565835Y-1927707D01*
X13572439Y-1924151D01*
X13578636Y-1919071D01*
X13703757Y-1793951D01*
X13707059Y-1791716D01*
X13710970Y-1790954D01*
X15112492Y-1790954D01*
X15120467Y-1790192D01*
X15127681Y-1788007D01*
X15134285Y-1784451D01*
X15140482Y-1779371D01*
X15146477Y-1773377D01*
X15149322Y-1771345D01*
X15152776Y-1770430D01*
X15160853Y-1769719D01*
X15170302Y-1767230D01*
X15179141Y-1763064D01*
X15187168Y-1757476D01*
X15194076Y-1750568D01*
X15199664Y-1742541D01*
X15203830Y-1733702D01*
X15206573Y-1723237D01*
X15208402Y-1719580D01*
X15211551Y-1716938D01*
X15215514Y-1715719D01*
X15225877Y-1714804D01*
X15235326Y-1712315D01*
X15244165Y-1708150D01*
X15252496Y-1702307D01*
X15255290Y-1700936D01*
X15258338Y-1700479D01*
X17046956Y-1700530D01*
X17055439Y-1699717D01*
X17063110Y-1697380D01*
X17070171Y-1693621D01*
X17076724Y-1688185D01*
X17148149Y-1616760D01*
X17153585Y-1610207D01*
X17157344Y-1603146D01*
X17159681Y-1595475D01*
X17160494Y-1586992D01*
X17160494Y-1257808D01*
X17159681Y-1249324D01*
X17157344Y-1241653D01*
X17153585Y-1234592D01*
X17148149Y-1228039D01*
X17060672Y-1140561D01*
X17058589Y-1137462D01*
X17057725Y-1133856D01*
X17058233Y-1130147D01*
X17061535Y-1120241D01*
X17064228Y-1106322D01*
X17065142Y-1092200D01*
X17064228Y-1078077D01*
X17061535Y-1064158D01*
X17057065Y-1050696D01*
X17050918Y-1037894D01*
X17043146Y-1026007D01*
X17033951Y-1015237D01*
X17023486Y-1005687D01*
X17011853Y-997610D01*
X16999305Y-991057D01*
X16985996Y-986129D01*
X16972178Y-982980D01*
X16958056Y-981608D01*
X16943882Y-982065D01*
X16929862Y-984351D01*
X16916298Y-988364D01*
X16903344Y-994105D01*
X16891203Y-1001471D01*
X16880128Y-1010310D01*
X16870273Y-1020470D01*
X16861790Y-1031849D01*
X16854830Y-1044194D01*
X16849496Y-1057351D01*
X16845889Y-1071067D01*
X16844111Y-1085088D01*
X16844111Y-1099312D01*
X16845889Y-1113332D01*
X16849496Y-1127048D01*
X16854830Y-1140206D01*
X16861790Y-1152550D01*
X16870273Y-1163929D01*
X16880128Y-1174089D01*
X16891203Y-1182928D01*
X16903344Y-1190294D01*
X16916298Y-1196035D01*
X16929862Y-1200048D01*
X16943882Y-1202334D01*
X16958056Y-1202791D01*
X16972178Y-1201420D01*
X16985996Y-1198270D01*
X16992092Y-1195984D01*
X16995902Y-1195374D01*
X16999610Y-1196187D01*
X17002810Y-1198372D01*
X17028922Y-1224483D01*
X17031106Y-1227734D01*
X17031868Y-1231646D01*
X17031106Y-1235557D01*
X17028922Y-1238808D01*
X17025620Y-1241044D01*
X17021708Y-1241806D01*
X17003369Y-1241806D01*
X17003369Y-1300480D01*
X17068546Y-1300480D01*
X17072406Y-1301242D01*
X17075708Y-1303477D01*
X17077944Y-1306728D01*
X17078706Y-1310640D01*
X17078706Y-1381760D01*
X17077944Y-1385671D01*
X17075708Y-1388922D01*
X17072406Y-1391158D01*
X17068546Y-1391920D01*
X17003369Y-1391920D01*
X17003369Y-1450594D01*
X17038929Y-1450594D01*
X17045178Y-1449882D01*
X17050613Y-1448003D01*
X17055439Y-1444955D01*
X17062958Y-1437132D01*
X17067022Y-1435557D01*
X17071340Y-1435862D01*
X17075150Y-1437944D01*
X17077791Y-1441399D01*
X17078706Y-1445615D01*
X17078706Y-1566367D01*
X17077944Y-1570228D01*
X17075708Y-1573530D01*
X17033494Y-1615744D01*
X17030192Y-1617980D01*
X17026331Y-1618742D01*
X15258338Y-1618691D01*
X15255290Y-1618234D01*
X15252496Y-1616862D01*
X15244165Y-1611020D01*
X15235326Y-1606854D01*
X15225877Y-1604365D01*
X15216124Y-1603502D01*
X15206370Y-1604365D01*
X15196921Y-1606854D01*
X15188082Y-1611020D01*
X15180056Y-1616608D01*
X15173147Y-1623517D01*
X15167559Y-1631543D01*
X15163393Y-1640382D01*
X15160650Y-1650847D01*
X15158821Y-1654505D01*
X15155672Y-1657146D01*
X15151709Y-1658366D01*
X15141905Y-1659229D01*
X15137993Y-1658772D01*
X15134488Y-1656892D01*
X15131999Y-1653793D01*
X15130881Y-1649984D01*
X15130119Y-1641246D01*
X15127630Y-1631797D01*
X15123464Y-1622958D01*
X15117876Y-1614932D01*
X15110968Y-1608023D01*
X15102941Y-1602435D01*
X15094102Y-1598269D01*
X15084653Y-1595780D01*
X15074900Y-1594916D01*
X15065146Y-1595780D01*
X15055697Y-1598269D01*
X15046858Y-1602435D01*
X15038832Y-1608023D01*
X15031923Y-1614932D01*
X15026335Y-1622958D01*
X15022169Y-1631797D01*
X15018613Y-1645056D01*
X15016378Y-1648053D01*
X15013178Y-1650034D01*
X15009520Y-1650746D01*
X14925344Y-1650746D01*
X14921433Y-1649984D01*
X14918131Y-1647748D01*
X14915946Y-1644497D01*
X14915184Y-1640586D01*
X14915946Y-1636674D01*
X14918131Y-1633423D01*
X14943277Y-1608277D01*
X14946122Y-1606245D01*
X14949576Y-1605330D01*
X14957653Y-1604619D01*
X14967102Y-1602130D01*
X14975941Y-1597964D01*
X14983968Y-1592376D01*
X14990876Y-1585468D01*
X14996464Y-1577441D01*
X15000630Y-1568602D01*
X15003119Y-1559153D01*
X15003983Y-1549400D01*
X15003119Y-1539646D01*
X15000630Y-1530197D01*
X14996464Y-1521358D01*
X14990876Y-1513332D01*
X14983968Y-1506423D01*
X14975941Y-1500835D01*
X14967102Y-1496669D01*
X14957653Y-1494180D01*
X14947900Y-1493316D01*
X14938146Y-1494180D01*
X14928697Y-1496669D01*
X14919858Y-1500835D01*
X14911832Y-1506423D01*
X14904923Y-1513332D01*
X14899335Y-1521358D01*
X14895169Y-1530197D01*
X14892680Y-1539646D01*
X14891969Y-1547723D01*
X14891054Y-1551178D01*
X14889022Y-1554022D01*
X14858796Y-1584248D01*
X14855494Y-1586484D01*
X14851583Y-1587246D01*
X14835124Y-1587246D01*
X14830856Y-1586280D01*
X14827351Y-1583639D01*
X14825319Y-1579727D01*
X14825116Y-1575308D01*
X14826843Y-1571244D01*
X14831364Y-1564741D01*
X14835530Y-1555902D01*
X14838019Y-1546453D01*
X14838883Y-1536700D01*
X14838019Y-1526946D01*
X14835530Y-1517497D01*
X14831364Y-1508658D01*
X14825776Y-1500632D01*
X14818868Y-1493723D01*
X14810841Y-1488135D01*
X14804644Y-1485239D01*
X14801748Y-1483207D01*
X14799716Y-1480312D01*
X14798801Y-1476908D01*
X14799106Y-1473403D01*
X14799919Y-1470253D01*
X14800783Y-1460500D01*
X14799919Y-1450746D01*
X14797430Y-1441297D01*
X14793264Y-1432458D01*
X14787676Y-1424432D01*
X14780768Y-1417523D01*
X14772741Y-1411935D01*
X14763902Y-1407769D01*
X14754453Y-1405280D01*
X14744700Y-1404416D01*
X14734946Y-1405280D01*
X14724634Y-1408023D01*
X14720773Y-1408328D01*
X14717064Y-1407109D01*
X14714118Y-1404620D01*
X14712289Y-1401216D01*
X14711019Y-1387246D01*
X14708530Y-1377797D01*
X14704364Y-1368958D01*
X14698776Y-1360932D01*
X14691868Y-1354023D01*
X14683841Y-1348435D01*
X14675002Y-1344269D01*
X14665553Y-1341780D01*
X14657476Y-1341069D01*
X14654072Y-1340154D01*
X14651177Y-1338122D01*
X14649145Y-1335227D01*
X14648230Y-1331823D01*
X14647519Y-1323746D01*
X14645030Y-1314297D01*
X14640864Y-1305458D01*
X14635276Y-1297432D01*
X14628368Y-1290523D01*
X14620341Y-1284935D01*
X14611502Y-1280769D01*
X14602053Y-1278280D01*
X14593976Y-1277569D01*
X14590572Y-1276654D01*
X14587677Y-1274622D01*
X14585645Y-1271727D01*
X14584730Y-1268323D01*
X14584019Y-1260246D01*
X14581530Y-1250797D01*
X14577364Y-1241958D01*
X14571776Y-1233932D01*
X14564868Y-1227023D01*
X14556841Y-1221435D01*
X14548002Y-1217269D01*
X14541601Y-1215593D01*
X14537944Y-1213713D01*
X14535302Y-1210564D01*
X14534083Y-1206652D01*
X14533270Y-1197305D01*
X14533727Y-1193393D01*
X14535607Y-1189888D01*
X14538706Y-1187399D01*
X14542516Y-1186281D01*
X14551253Y-1185519D01*
X14560702Y-1183030D01*
X14569541Y-1178864D01*
X14577568Y-1173276D01*
X14584476Y-1166368D01*
X14590064Y-1158341D01*
X14594230Y-1149502D01*
X14596719Y-1140053D01*
X14597583Y-1130300D01*
X14596719Y-1120546D01*
X14594230Y-1111097D01*
X14590064Y-1102258D01*
X14584476Y-1094232D01*
X14577568Y-1087323D01*
X14569541Y-1081735D01*
X14560702Y-1077569D01*
X14551253Y-1075080D01*
X14541500Y-1074216D01*
X14531746Y-1075080D01*
X14522297Y-1077569D01*
X14513458Y-1081735D01*
X14505432Y-1087323D01*
X14503806Y-1088948D01*
X14500504Y-1091184D01*
X14496592Y-1091946D01*
X14440407Y-1091946D01*
X14432432Y-1092708D01*
X14425218Y-1094892D01*
X14418614Y-1098448D01*
X14412417Y-1103528D01*
X14312696Y-1203248D01*
X14309394Y-1205484D01*
X14305483Y-1206246D01*
X13914119Y-1206246D01*
X13909954Y-1205382D01*
X13906500Y-1202842D01*
X13904417Y-1199184D01*
X13904010Y-1194968D01*
X13905331Y-1190904D01*
X13908227Y-1187805D01*
X13920825Y-1178864D01*
X13932966Y-1167993D01*
X13943888Y-1155801D01*
X13953337Y-1142492D01*
X13961211Y-1128217D01*
X13967460Y-1113129D01*
X13972184Y-1096365D01*
X13896340Y-1096365D01*
X13896340Y-1196086D01*
X13895578Y-1199997D01*
X13893393Y-1203248D01*
X13890091Y-1205484D01*
X13886180Y-1206246D01*
X13773810Y-1206246D01*
X13769898Y-1205484D01*
X13766647Y-1203248D01*
X13764412Y-1199997D01*
X13763650Y-1196086D01*
X13763650Y-1096365D01*
X13687856Y-1096365D01*
X13688009Y-1097432D01*
X13692530Y-1113129D01*
X13698778Y-1128217D01*
X13706703Y-1142492D01*
X13716152Y-1155801D01*
X13727023Y-1167993D01*
X13739215Y-1178864D01*
X13751763Y-1187805D01*
X13754658Y-1190904D01*
X13755979Y-1194968D01*
X13755573Y-1199184D01*
X13753490Y-1202842D01*
X13750036Y-1205382D01*
X13745921Y-1206246D01*
X12774117Y-1206246D01*
X12769951Y-1205382D01*
X12766497Y-1202842D01*
X12764414Y-1199184D01*
X12764008Y-1194968D01*
X12765328Y-1190904D01*
X12768224Y-1187805D01*
X12780822Y-1178864D01*
X12792964Y-1167993D01*
X12803886Y-1155801D01*
X12813334Y-1142492D01*
X12821208Y-1128217D01*
X12827457Y-1113129D01*
X12832181Y-1096365D01*
X12756337Y-1096365D01*
X12756337Y-1196086D01*
X12755575Y-1199997D01*
X12753390Y-1203248D01*
X12750088Y-1205484D01*
X12746177Y-1206246D01*
X12633807Y-1206246D01*
X12629896Y-1205484D01*
X12626644Y-1203248D01*
X12624409Y-1199997D01*
X12623647Y-1196086D01*
X12623647Y-1096365D01*
X12547854Y-1096365D01*
X12548006Y-1097432D01*
X12552527Y-1113129D01*
X12558776Y-1128217D01*
X12566700Y-1142492D01*
X12576149Y-1155801D01*
X12587020Y-1167993D01*
X12599212Y-1178864D01*
X12611760Y-1187805D01*
X12614656Y-1190904D01*
X12615976Y-1194968D01*
X12615570Y-1199184D01*
X12613487Y-1202842D01*
X12610033Y-1205382D01*
X12605918Y-1206246D01*
X11364112Y-1206246D01*
X11359946Y-1205382D01*
X11356543Y-1202842D01*
X11354409Y-1199184D01*
X11354003Y-1194968D01*
X11355324Y-1190904D01*
X11358219Y-1187805D01*
X11370818Y-1178864D01*
X11382959Y-1167993D01*
X11393881Y-1155801D01*
X11403330Y-1142492D01*
X11411204Y-1128217D01*
X11417452Y-1113129D01*
X11422176Y-1096365D01*
X11346332Y-1096365D01*
X11346332Y-1196086D01*
X11345570Y-1199997D01*
X11343386Y-1203248D01*
X11340084Y-1205484D01*
X11336172Y-1206246D01*
X11223802Y-1206246D01*
X11219942Y-1205484D01*
X11216640Y-1203248D01*
X11214404Y-1199997D01*
X11213642Y-1196086D01*
X11213642Y-1096365D01*
X11137849Y-1096365D01*
X11138001Y-1097432D01*
X11142522Y-1113129D01*
X11148771Y-1128217D01*
X11156696Y-1142492D01*
X11166144Y-1155801D01*
X11177016Y-1167993D01*
X11189208Y-1178864D01*
X11201755Y-1187805D01*
X11204651Y-1190904D01*
X11206022Y-1194968D01*
X11205565Y-1199184D01*
X11203482Y-1202842D01*
X11200028Y-1205382D01*
X11195913Y-1206246D01*
X10224109Y-1206246D01*
X10219944Y-1205382D01*
X10216540Y-1202842D01*
X10214406Y-1199184D01*
X10214000Y-1194968D01*
X10215321Y-1190904D01*
X10218216Y-1187805D01*
X10230815Y-1178864D01*
X10242956Y-1167993D01*
X10253878Y-1155801D01*
X10263327Y-1142492D01*
X10271201Y-1128217D01*
X10277449Y-1113129D01*
X10282174Y-1096365D01*
X10206329Y-1096365D01*
X10206329Y-1196086D01*
X10205567Y-1199997D01*
X10203383Y-1203248D01*
X10200081Y-1205484D01*
X10196169Y-1206246D01*
X10083800Y-1206246D01*
X10079939Y-1205484D01*
X10076637Y-1203248D01*
X10074402Y-1199997D01*
X10073640Y-1196086D01*
X10073640Y-1096365D01*
X9997846Y-1096365D01*
X9997998Y-1097432D01*
X10002520Y-1113129D01*
X10008768Y-1128217D01*
X10016693Y-1142492D01*
X10026142Y-1155801D01*
X10037013Y-1167993D01*
X10049205Y-1178864D01*
X10061752Y-1187805D01*
X10064648Y-1190904D01*
X10066020Y-1194968D01*
X10065562Y-1199184D01*
X10063480Y-1202842D01*
X10060025Y-1205382D01*
X10055910Y-1206246D01*
X8814104Y-1206246D01*
X8809939Y-1205382D01*
X8806535Y-1202842D01*
X8804402Y-1199184D01*
X8803995Y-1194968D01*
X8805367Y-1190904D01*
X8808212Y-1187805D01*
X8820810Y-1178864D01*
X8833002Y-1167993D01*
X8843873Y-1155801D01*
X8853322Y-1142492D01*
X8861196Y-1128217D01*
X8867444Y-1113129D01*
X8872169Y-1096365D01*
X8796375Y-1096365D01*
X8796375Y-1196086D01*
X8795562Y-1199997D01*
X8793378Y-1203248D01*
X8790076Y-1205484D01*
X8786215Y-1206246D01*
X8673795Y-1206246D01*
X8669934Y-1205484D01*
X8666632Y-1203248D01*
X8664448Y-1199997D01*
X8663635Y-1196086D01*
X8663635Y-1096365D01*
X8587841Y-1096365D01*
X8587994Y-1097432D01*
X8592515Y-1113129D01*
X8598763Y-1128217D01*
X8606688Y-1142492D01*
X8616137Y-1155801D01*
X8627008Y-1167993D01*
X8639200Y-1178864D01*
X8651798Y-1187805D01*
X8654643Y-1190904D01*
X8656015Y-1194968D01*
X8655558Y-1199184D01*
X8653475Y-1202842D01*
X8650071Y-1205382D01*
X8645906Y-1206246D01*
X7674102Y-1206246D01*
X7669936Y-1205382D01*
X7666532Y-1202842D01*
X7664399Y-1199184D01*
X7663992Y-1194968D01*
X7665364Y-1190904D01*
X7668209Y-1187805D01*
X7680807Y-1178864D01*
X7692999Y-1167993D01*
X7703870Y-1155801D01*
X7713319Y-1142492D01*
X7721193Y-1128217D01*
X7727442Y-1113129D01*
X7732166Y-1096365D01*
X7656372Y-1096365D01*
X7656372Y-1196086D01*
X7655559Y-1199997D01*
X7653375Y-1203248D01*
X7650073Y-1205484D01*
X7646212Y-1206246D01*
X7533792Y-1206246D01*
X7529931Y-1205484D01*
X7526629Y-1203248D01*
X7524445Y-1199997D01*
X7523632Y-1196086D01*
X7523632Y-1096365D01*
X7447838Y-1096365D01*
X7447991Y-1097432D01*
X7452512Y-1113129D01*
X7458760Y-1128217D01*
X7466685Y-1142492D01*
X7476134Y-1155801D01*
X7487005Y-1167993D01*
X7499197Y-1178864D01*
X7511796Y-1187805D01*
X7514640Y-1190904D01*
X7516012Y-1194968D01*
X7515555Y-1199184D01*
X7513472Y-1202842D01*
X7510068Y-1205382D01*
X7505903Y-1206246D01*
X6477508Y-1206246D01*
X6469532Y-1207008D01*
X6462318Y-1209192D01*
X6455714Y-1212748D01*
X6449517Y-1217828D01*
X6316522Y-1350822D01*
X6313678Y-1352854D01*
X6310223Y-1353769D01*
X6302146Y-1354480D01*
X6292697Y-1356969D01*
X6283858Y-1361135D01*
X6275832Y-1366723D01*
X6268923Y-1373632D01*
X6263335Y-1381658D01*
X6259169Y-1390497D01*
X6256680Y-1399946D01*
X6255816Y-1409700D01*
X6256680Y-1419453D01*
X6259169Y-1428902D01*
X6263335Y-1437741D01*
X6268923Y-1445768D01*
X6275832Y-1452676D01*
X6283858Y-1458264D01*
X6292697Y-1462430D01*
X6302146Y-1464919D01*
X6311900Y-1465783D01*
X6321653Y-1464919D01*
X6331102Y-1462430D01*
X6339941Y-1458264D01*
X6347968Y-1452676D01*
X6354876Y-1445768D01*
X6360464Y-1437741D01*
X6364630Y-1428902D01*
X6367119Y-1419453D01*
X6367830Y-1411376D01*
X6368745Y-1407922D01*
X6370777Y-1405077D01*
X6489903Y-1285951D01*
X6493205Y-1283716D01*
X6497116Y-1282954D01*
X7096455Y-1282954D01*
X7100366Y-1283716D01*
X7103668Y-1285951D01*
X7105853Y-1289202D01*
X7106615Y-1293114D01*
X7105853Y-1297025D01*
X7103668Y-1300276D01*
X7091222Y-1312722D01*
X7088378Y-1314754D01*
X7084923Y-1315669D01*
X7076846Y-1316380D01*
X7067397Y-1318869D01*
X7058558Y-1323035D01*
X7050531Y-1328623D01*
X7043623Y-1335532D01*
X7038035Y-1343558D01*
X7033869Y-1352397D01*
X7031380Y-1361846D01*
X7030516Y-1371600D01*
X7031380Y-1381353D01*
X7033869Y-1390802D01*
X7038035Y-1399641D01*
X7043623Y-1407668D01*
X7050531Y-1414576D01*
X7058558Y-1420164D01*
X7067397Y-1424330D01*
X7076846Y-1426819D01*
X7086600Y-1427683D01*
X7096353Y-1426819D01*
X7105802Y-1424330D01*
X7114641Y-1420164D01*
X7122668Y-1414576D01*
X7129576Y-1407668D01*
X7135164Y-1399641D01*
X7139330Y-1390802D01*
X7141819Y-1381353D01*
X7142530Y-1373276D01*
X7143445Y-1369822D01*
X7145477Y-1366977D01*
X7150303Y-1362151D01*
X7153605Y-1359916D01*
X7157516Y-1359154D01*
X8799576Y-1359154D01*
X8803843Y-1360119D01*
X8807348Y-1362760D01*
X8809380Y-1366672D01*
X8809583Y-1371092D01*
X8807856Y-1375156D01*
X8803335Y-1381658D01*
X8799169Y-1390497D01*
X8796680Y-1399946D01*
X8795816Y-1409700D01*
X8796680Y-1419453D01*
X8799169Y-1428902D01*
X8803335Y-1437741D01*
X8808923Y-1445768D01*
X8815832Y-1452676D01*
X8823858Y-1458264D01*
X8832697Y-1462430D01*
X8842146Y-1464919D01*
X8850223Y-1465630D01*
X8853678Y-1466545D01*
X8856522Y-1468577D01*
X8887917Y-1499971D01*
X8894114Y-1505051D01*
X8900718Y-1508607D01*
X8907932Y-1510792D01*
X8915908Y-1511554D01*
X9473692Y-1511554D01*
X9481667Y-1510792D01*
X9489592Y-1508353D01*
X9493199Y-1507947D01*
X9496704Y-1508810D01*
X9499650Y-1510842D01*
X9507423Y-1521968D01*
X9514332Y-1528876D01*
X9522358Y-1534464D01*
X9531197Y-1538630D01*
X9540646Y-1541119D01*
X9550400Y-1541983D01*
X9560153Y-1541119D01*
X9569602Y-1538630D01*
X9578441Y-1534464D01*
X9586468Y-1528876D01*
X9593376Y-1521968D01*
X9597644Y-1515872D01*
X9599879Y-1513586D01*
X9602724Y-1512062D01*
X9605924Y-1511554D01*
X11822836Y-1511554D01*
X11826494Y-1512214D01*
X11829643Y-1514144D01*
X11831878Y-1517091D01*
X11832945Y-1520647D01*
X11832640Y-1524355D01*
X11831980Y-1526946D01*
X11831116Y-1536700D01*
X11831980Y-1546453D01*
X11834469Y-1555902D01*
X11838635Y-1564741D01*
X11844223Y-1572768D01*
X11851132Y-1579676D01*
X11859158Y-1585264D01*
X11867997Y-1589430D01*
X11877446Y-1591919D01*
X11882272Y-1592376D01*
X11886488Y-1593697D01*
X11887911Y-1593697D01*
X11892127Y-1592376D01*
X11896953Y-1591919D01*
X11906402Y-1589430D01*
X11915241Y-1585264D01*
X11923268Y-1579676D01*
X11930176Y-1572768D01*
X11934444Y-1566672D01*
X11936679Y-1564386D01*
X11939524Y-1562862D01*
X11942724Y-1562354D01*
X11960555Y-1562354D01*
X11964466Y-1563116D01*
X11967768Y-1565351D01*
X11969953Y-1568602D01*
X11970715Y-1572514D01*
X11969953Y-1576425D01*
X11967768Y-1579676D01*
X11937796Y-1609648D01*
X11934494Y-1611884D01*
X11930583Y-1612646D01*
X11892991Y-1612646D01*
X11888724Y-1611680D01*
X11887200Y-1610512D01*
X11885676Y-1611680D01*
X11881408Y-1612646D01*
X11436807Y-1612646D01*
X11432895Y-1611884D01*
X11429593Y-1609648D01*
X11427968Y-1608023D01*
X11419941Y-1602435D01*
X11411102Y-1598269D01*
X11401653Y-1595780D01*
X11391900Y-1594916D01*
X11382146Y-1595780D01*
X11372697Y-1598269D01*
X11363858Y-1602435D01*
X11355832Y-1608023D01*
X11348923Y-1614932D01*
X11343335Y-1622958D01*
X11339169Y-1631797D01*
X11336680Y-1641246D01*
X11335816Y-1651000D01*
X11336680Y-1660753D01*
X11339169Y-1670202D01*
X11343335Y-1679041D01*
X11348923Y-1687068D01*
X11355832Y-1693976D01*
X11363858Y-1699564D01*
X11372697Y-1703730D01*
X11382146Y-1706219D01*
X11391900Y-1707083D01*
X11401653Y-1706219D01*
X11411102Y-1703730D01*
X11419941Y-1699564D01*
X11427968Y-1693976D01*
X11429593Y-1692351D01*
X11432895Y-1690116D01*
X11436807Y-1689354D01*
X11950192Y-1689354D01*
X11958167Y-1688592D01*
X11965381Y-1686407D01*
X11971985Y-1682851D01*
X11978182Y-1677771D01*
X12039803Y-1616151D01*
X12043105Y-1613916D01*
X12047016Y-1613154D01*
X12055856Y-1613154D01*
X12059818Y-1613966D01*
X12063171Y-1616252D01*
X12065304Y-1619656D01*
X12066016Y-1623669D01*
X12065050Y-1627632D01*
X12063069Y-1631797D01*
X12060580Y-1641246D01*
X12059716Y-1651000D01*
X12060580Y-1660753D01*
X12063069Y-1670202D01*
X12067235Y-1679041D01*
X12072823Y-1687068D01*
X12079732Y-1693976D01*
X12087758Y-1699564D01*
X12096597Y-1703730D01*
X12106046Y-1706219D01*
X12115800Y-1707083D01*
X12125553Y-1706219D01*
X12135002Y-1703730D01*
X12143841Y-1699564D01*
X12151868Y-1693976D01*
X12158776Y-1687068D01*
X12164364Y-1679041D01*
X12168682Y-1669796D01*
X12170918Y-1666748D01*
X12174118Y-1664665D01*
X12177877Y-1663954D01*
X12906298Y-1663954D01*
X12910464Y-1664868D01*
X12913918Y-1667459D01*
X12916001Y-1671218D01*
X12916357Y-1675536D01*
X12914833Y-1679549D01*
X12908686Y-1689303D01*
X12902488Y-1702409D01*
X12898018Y-1716227D01*
X12895275Y-1730502D01*
X12894360Y-1744980D01*
X12895275Y-1759508D01*
X12898018Y-1773732D01*
X12902488Y-1787550D01*
X12908686Y-1800707D01*
X12916458Y-1812950D01*
X12925704Y-1824126D01*
X12936321Y-1834083D01*
X12938353Y-1835556D01*
X12941147Y-1838706D01*
X12942468Y-1842719D01*
X12942011Y-1846935D01*
X12939928Y-1850593D01*
X12936474Y-1853082D01*
X12932359Y-1853946D01*
X11037671Y-1853946D01*
X11033506Y-1853082D01*
X11030102Y-1850593D01*
X11028019Y-1846935D01*
X11027562Y-1842719D01*
X11028883Y-1838706D01*
X11031677Y-1835556D01*
X11033709Y-1834083D01*
X11044326Y-1824126D01*
X11053572Y-1812950D01*
X11061344Y-1800707D01*
X11067542Y-1787550D01*
X11072012Y-1773732D01*
X11074755Y-1759508D01*
X11075670Y-1744980D01*
X11074755Y-1730502D01*
X11072012Y-1716227D01*
X11067542Y-1702409D01*
X11061344Y-1689303D01*
X11053572Y-1677009D01*
X11044326Y-1665833D01*
X11033709Y-1655876D01*
X11021974Y-1647342D01*
X11009223Y-1640382D01*
X10995761Y-1634998D01*
X10981690Y-1631391D01*
X10967262Y-1629562D01*
X10952734Y-1629562D01*
X10938357Y-1631391D01*
X10924286Y-1634998D01*
X10910773Y-1640382D01*
X10898073Y-1647342D01*
X10886287Y-1655876D01*
X10875721Y-1665833D01*
X10866475Y-1677009D01*
X10858703Y-1689303D01*
X10852505Y-1702409D01*
X10848035Y-1716227D01*
X10845292Y-1730502D01*
X10844377Y-1744980D01*
X10845292Y-1759508D01*
X10848035Y-1773732D01*
X10852505Y-1787550D01*
X10858703Y-1800707D01*
X10866475Y-1812950D01*
X10875721Y-1824126D01*
X10886287Y-1834083D01*
X10888319Y-1835556D01*
X10891164Y-1838706D01*
X10892485Y-1842719D01*
X10892028Y-1846935D01*
X10889894Y-1850593D01*
X10886490Y-1853082D01*
X10882376Y-1853946D01*
X10787634Y-1853946D01*
X10783519Y-1853082D01*
X10780115Y-1850593D01*
X10777982Y-1846935D01*
X10777524Y-1842719D01*
X10778845Y-1838706D01*
X10781690Y-1835556D01*
X10783722Y-1834083D01*
X10794288Y-1824126D01*
X10803534Y-1812950D01*
X10811306Y-1800707D01*
X10813389Y-1796338D01*
X10761370Y-1796338D01*
X10761370Y-1843786D01*
X10760557Y-1847697D01*
X10758373Y-1850948D01*
X10755071Y-1853184D01*
X10751210Y-1853946D01*
X10668812Y-1853946D01*
X10664901Y-1853184D01*
X10661650Y-1850948D01*
X10659414Y-1847697D01*
X10658652Y-1843786D01*
X10658652Y-1796338D01*
X10606633Y-1796338D01*
X10608665Y-1800707D01*
X10616438Y-1812950D01*
X10625683Y-1824126D01*
X10636300Y-1834083D01*
X10638332Y-1835556D01*
X10641126Y-1838706D01*
X10642447Y-1842719D01*
X10641990Y-1846935D01*
X10639907Y-1850593D01*
X10636504Y-1853082D01*
X10632338Y-1853946D01*
X10537647Y-1853946D01*
X10533532Y-1853082D01*
X10530128Y-1850593D01*
X10527995Y-1846935D01*
X10527538Y-1842719D01*
X10528858Y-1838706D01*
X10531703Y-1835556D01*
X10533735Y-1834083D01*
X10544302Y-1824126D01*
X10553547Y-1812950D01*
X10561320Y-1800707D01*
X10567517Y-1787550D01*
X10571988Y-1773732D01*
X10574731Y-1759508D01*
X10575645Y-1744980D01*
X10574731Y-1730502D01*
X10571988Y-1716227D01*
X10567517Y-1702409D01*
X10561320Y-1689303D01*
X10553547Y-1677009D01*
X10544302Y-1665833D01*
X10533735Y-1655876D01*
X10521950Y-1647342D01*
X10509250Y-1640382D01*
X10495737Y-1634998D01*
X10481665Y-1631391D01*
X10467289Y-1629562D01*
X10452760Y-1629562D01*
X10438333Y-1631391D01*
X10424261Y-1634998D01*
X10410799Y-1640382D01*
X10398048Y-1647342D01*
X10386314Y-1655876D01*
X10375696Y-1665833D01*
X10366451Y-1677009D01*
X10358678Y-1689303D01*
X10352481Y-1702409D01*
X10348010Y-1716227D01*
X10345267Y-1730502D01*
X10344353Y-1744980D01*
X10345267Y-1759508D01*
X10348010Y-1773732D01*
X10352481Y-1787550D01*
X10358678Y-1800707D01*
X10366451Y-1812950D01*
X10375696Y-1824126D01*
X10386314Y-1834083D01*
X10388346Y-1835556D01*
X10391140Y-1838706D01*
X10392460Y-1842719D01*
X10392003Y-1846935D01*
X10389920Y-1850593D01*
X10386517Y-1853082D01*
X10382351Y-1853946D01*
X8487664Y-1853946D01*
X8483549Y-1853082D01*
X8480094Y-1850593D01*
X8478012Y-1846935D01*
X8477554Y-1842719D01*
X8478875Y-1838706D01*
X8481669Y-1835556D01*
X8483701Y-1834083D01*
X8494318Y-1824126D01*
X8503564Y-1812950D01*
X8511336Y-1800707D01*
X8517534Y-1787550D01*
X8522004Y-1773732D01*
X8524748Y-1759508D01*
X8525662Y-1744980D01*
X8524748Y-1730502D01*
X8522004Y-1716227D01*
X8517534Y-1702409D01*
X8511336Y-1689303D01*
X8503564Y-1677009D01*
X8494318Y-1665833D01*
X8483701Y-1655876D01*
X8471966Y-1647342D01*
X8459266Y-1640382D01*
X8445754Y-1634998D01*
X8431682Y-1631391D01*
X8417255Y-1629562D01*
X8402777Y-1629562D01*
X8388350Y-1631391D01*
X8374278Y-1634998D01*
X8360765Y-1640382D01*
X8348065Y-1647342D01*
X8336330Y-1655876D01*
X8325713Y-1665833D01*
X8316468Y-1677009D01*
X8308695Y-1689303D01*
X8302498Y-1702409D01*
X8298027Y-1716227D01*
X8295284Y-1730502D01*
X8294370Y-1744980D01*
X8295284Y-1759508D01*
X8298027Y-1773732D01*
X8302498Y-1787550D01*
X8308695Y-1800707D01*
X8316468Y-1812950D01*
X8325713Y-1824126D01*
X8336330Y-1834083D01*
X8338362Y-1835556D01*
X8341156Y-1838706D01*
X8342477Y-1842719D01*
X8342020Y-1846935D01*
X8339937Y-1850593D01*
X8336483Y-1853082D01*
X8332368Y-1853946D01*
X8237626Y-1853946D01*
X8233511Y-1853082D01*
X8230108Y-1850593D01*
X8227974Y-1846935D01*
X8227568Y-1842719D01*
X8228838Y-1838706D01*
X8231682Y-1835556D01*
X8233714Y-1834083D01*
X8244281Y-1824126D01*
X8253526Y-1812950D01*
X8261350Y-1800707D01*
X8263381Y-1796338D01*
X8211362Y-1796338D01*
X8211362Y-1843786D01*
X8210600Y-1847697D01*
X8208365Y-1850948D01*
X8205063Y-1853184D01*
X8201202Y-1853946D01*
X8118805Y-1853946D01*
X8114944Y-1853184D01*
X8111642Y-1850948D01*
X8109407Y-1847697D01*
X8108645Y-1843786D01*
X8108645Y-1796338D01*
X8056625Y-1796338D01*
X8058658Y-1800707D01*
X8066430Y-1812950D01*
X8075726Y-1824126D01*
X8086293Y-1834083D01*
X8088325Y-1835556D01*
X8091170Y-1838706D01*
X8092440Y-1842719D01*
X8092033Y-1846935D01*
X8089900Y-1850593D01*
X8086496Y-1853082D01*
X8082330Y-1853946D01*
X7987639Y-1853946D01*
X7983524Y-1853082D01*
X7980121Y-1850593D01*
X7977987Y-1846935D01*
X7977581Y-1842719D01*
X7978851Y-1838706D01*
X7981696Y-1835556D01*
X7983728Y-1834083D01*
X7994294Y-1824126D01*
X8003540Y-1812950D01*
X8011363Y-1800707D01*
X8017509Y-1787550D01*
X8022031Y-1773732D01*
X8024723Y-1759508D01*
X8025638Y-1744980D01*
X8024723Y-1730502D01*
X8022031Y-1716227D01*
X8017509Y-1702409D01*
X8011363Y-1689303D01*
X8003540Y-1677009D01*
X7994294Y-1665833D01*
X7983728Y-1655876D01*
X7971993Y-1647342D01*
X7959242Y-1640382D01*
X7945729Y-1634998D01*
X7931658Y-1631391D01*
X7917281Y-1629562D01*
X7902752Y-1629562D01*
X7888325Y-1631391D01*
X7874304Y-1634998D01*
X7860792Y-1640382D01*
X7848041Y-1647342D01*
X7836306Y-1655876D01*
X7825740Y-1665833D01*
X7816443Y-1677009D01*
X7808671Y-1689303D01*
X7802524Y-1702409D01*
X7798003Y-1716227D01*
X7795310Y-1730502D01*
X7794396Y-1744980D01*
X7795310Y-1759508D01*
X7798003Y-1773732D01*
X7802524Y-1787550D01*
X7808671Y-1800707D01*
X7816443Y-1812950D01*
X7825740Y-1824126D01*
X7836306Y-1834083D01*
X7838338Y-1835556D01*
X7841183Y-1838706D01*
X7842453Y-1842719D01*
X7842046Y-1846935D01*
X7839913Y-1850593D01*
X7836509Y-1853082D01*
X7832344Y-1853946D01*
X5935573Y-1853946D01*
X5931408Y-1853082D01*
X5928004Y-1850593D01*
X5925870Y-1846935D01*
X5925464Y-1842719D01*
X5926734Y-1838706D01*
X5929579Y-1835556D01*
X5937097Y-1830070D01*
X5947714Y-1820164D01*
X5956960Y-1808937D01*
X5964732Y-1796694D01*
X5970930Y-1783537D01*
X5975400Y-1769770D01*
X5978144Y-1755495D01*
X5979058Y-1741017D01*
X5978144Y-1726488D01*
X5975400Y-1712214D01*
X5970930Y-1698447D01*
X5964732Y-1685289D01*
X5956960Y-1673047D01*
X5947714Y-1661820D01*
X5937097Y-1651914D01*
X5925362Y-1643380D01*
X5912662Y-1636369D01*
X5899150Y-1631035D01*
X5885078Y-1627428D01*
X5870651Y-1625600D01*
X5856173Y-1625600D01*
X5841746Y-1627428D01*
X5827674Y-1631035D01*
X5814161Y-1636369D01*
X5801461Y-1643380D01*
X5789726Y-1651914D01*
X5779109Y-1661820D01*
X5769864Y-1673047D01*
X5762091Y-1685289D01*
X5755894Y-1698447D01*
X5751423Y-1712214D01*
X5748680Y-1726488D01*
X5747766Y-1741017D01*
X5748680Y-1755495D01*
X5751423Y-1769770D01*
X5755894Y-1783537D01*
X5762091Y-1796694D01*
X5769864Y-1808937D01*
X5779109Y-1820164D01*
X5789726Y-1830070D01*
X5797245Y-1835556D01*
X5800090Y-1838706D01*
X5801360Y-1842719D01*
X5800953Y-1846935D01*
X5798820Y-1850593D01*
X5795416Y-1853082D01*
X5791250Y-1853946D01*
X5685536Y-1853946D01*
X5681421Y-1853082D01*
X5677966Y-1850593D01*
X5675884Y-1846935D01*
X5675426Y-1842719D01*
X5676747Y-1838706D01*
X5679592Y-1835556D01*
X5687110Y-1830070D01*
X5697677Y-1820164D01*
X5706973Y-1808937D01*
X5714746Y-1796694D01*
X5716778Y-1792325D01*
X5664758Y-1792325D01*
X5664758Y-1843786D01*
X5663996Y-1847697D01*
X5661761Y-1850948D01*
X5658459Y-1853184D01*
X5654598Y-1853946D01*
X5572201Y-1853946D01*
X5568340Y-1853184D01*
X5565038Y-1850948D01*
X5562803Y-1847697D01*
X5562041Y-1843786D01*
X5562041Y-1792325D01*
X5510022Y-1792325D01*
X5512054Y-1796694D01*
X5519826Y-1808937D01*
X5529122Y-1820164D01*
X5539689Y-1830070D01*
X5547207Y-1835556D01*
X5550052Y-1838706D01*
X5551373Y-1842719D01*
X5550916Y-1846935D01*
X5548833Y-1850593D01*
X5545378Y-1853082D01*
X5541264Y-1853946D01*
X5435549Y-1853946D01*
X5431434Y-1853082D01*
X5427980Y-1850593D01*
X5425897Y-1846935D01*
X5425440Y-1842719D01*
X5426760Y-1838706D01*
X5429605Y-1835556D01*
X5437124Y-1830070D01*
X5447690Y-1820164D01*
X5456986Y-1808937D01*
X5464759Y-1796694D01*
X5470906Y-1783537D01*
X5475427Y-1769770D01*
X5478119Y-1755495D01*
X5479034Y-1741017D01*
X5478119Y-1726488D01*
X5475427Y-1712214D01*
X5470906Y-1698447D01*
X5464759Y-1685289D01*
X5456986Y-1673047D01*
X5447690Y-1661820D01*
X5437124Y-1651914D01*
X5425389Y-1643380D01*
X5412638Y-1636369D01*
X5399125Y-1631035D01*
X5385104Y-1627428D01*
X5370677Y-1625600D01*
X5356148Y-1625600D01*
X5341721Y-1627428D01*
X5327700Y-1631035D01*
X5314188Y-1636369D01*
X5301437Y-1643380D01*
X5289702Y-1651914D01*
X5279136Y-1661820D01*
X5269839Y-1673047D01*
X5262067Y-1685289D01*
X5255920Y-1698447D01*
X5251399Y-1712214D01*
X5248706Y-1726488D01*
X5247792Y-1741017D01*
X5248706Y-1755495D01*
X5251399Y-1769770D01*
X5255920Y-1783537D01*
X5262067Y-1796694D01*
X5269839Y-1808937D01*
X5279136Y-1820164D01*
X5289702Y-1830070D01*
X5297220Y-1835556D01*
X5300065Y-1838706D01*
X5301386Y-1842719D01*
X5300929Y-1846935D01*
X5298846Y-1850593D01*
X5295392Y-1853082D01*
X5291277Y-1853946D01*
X2874873Y-1853946D01*
X2870708Y-1853082D01*
X2867304Y-1850593D01*
X2865170Y-1846935D01*
X2864764Y-1842719D01*
X2866034Y-1838706D01*
X2868879Y-1835556D01*
X2876397Y-1830070D01*
X2887014Y-1820164D01*
X2896260Y-1808937D01*
X2904032Y-1796694D01*
X2910230Y-1783537D01*
X2914700Y-1769770D01*
X2917444Y-1755495D01*
X2918358Y-1741017D01*
X2917444Y-1726488D01*
X2914700Y-1712214D01*
X2910230Y-1698447D01*
X2904032Y-1685289D01*
X2896260Y-1673047D01*
X2887014Y-1661820D01*
X2876397Y-1651914D01*
X2864662Y-1643380D01*
X2851962Y-1636369D01*
X2838450Y-1631035D01*
X2824378Y-1627428D01*
X2809951Y-1625600D01*
X2795473Y-1625600D01*
X2781046Y-1627428D01*
X2766974Y-1631035D01*
X2753461Y-1636369D01*
X2740761Y-1643380D01*
X2729026Y-1651914D01*
X2718409Y-1661820D01*
X2709164Y-1673047D01*
X2701391Y-1685289D01*
X2695194Y-1698447D01*
X2690723Y-1712214D01*
X2687980Y-1726488D01*
X2687066Y-1741017D01*
X2687980Y-1755495D01*
X2690723Y-1769770D01*
X2695194Y-1783537D01*
X2701391Y-1796694D01*
X2709164Y-1808937D01*
X2718409Y-1820164D01*
X2729026Y-1830070D01*
X2736545Y-1835556D01*
X2739390Y-1838706D01*
X2740660Y-1842719D01*
X2740253Y-1846935D01*
X2738120Y-1850593D01*
X2734716Y-1853082D01*
X2730550Y-1853946D01*
X2624836Y-1853946D01*
X2620721Y-1853082D01*
X2617266Y-1850593D01*
X2615184Y-1846935D01*
X2614726Y-1842719D01*
X2616047Y-1838706D01*
X2618892Y-1835556D01*
X2626410Y-1830070D01*
X2636977Y-1820164D01*
X2646273Y-1808937D01*
X2654046Y-1796694D01*
X2656078Y-1792325D01*
X2604058Y-1792325D01*
X2604058Y-1843786D01*
X2603296Y-1847697D01*
X2601061Y-1850948D01*
X2597759Y-1853184D01*
X2593898Y-1853946D01*
X2511501Y-1853946D01*
X2507640Y-1853184D01*
X2504338Y-1850948D01*
X2502103Y-1847697D01*
X2501341Y-1843786D01*
X2501341Y-1792325D01*
X2449322Y-1792325D01*
X2451354Y-1796694D01*
X2459126Y-1808937D01*
X2468422Y-1820164D01*
X2478989Y-1830070D01*
X2486507Y-1835556D01*
X2489352Y-1838706D01*
X2490673Y-1842719D01*
X2490216Y-1846935D01*
X2488133Y-1850593D01*
X2484678Y-1853082D01*
X2480564Y-1853946D01*
X2374849Y-1853946D01*
X2370734Y-1853082D01*
X2367280Y-1850593D01*
X2365197Y-1846935D01*
X2364740Y-1842719D01*
X2366060Y-1838706D01*
X2368905Y-1835556D01*
X2376424Y-1830070D01*
X2386990Y-1820164D01*
X2396286Y-1808937D01*
X2404059Y-1796694D01*
X2410206Y-1783537D01*
X2414727Y-1769770D01*
X2417419Y-1755495D01*
X2418334Y-1741017D01*
X2417419Y-1726488D01*
X2414727Y-1712214D01*
X2410206Y-1698447D01*
X2404059Y-1685289D01*
X2396286Y-1673047D01*
X2386990Y-1661820D01*
X2376424Y-1651914D01*
X2364689Y-1643380D01*
X2351938Y-1636369D01*
X2338425Y-1631035D01*
X2324404Y-1627428D01*
X2309977Y-1625600D01*
X2295448Y-1625600D01*
X2281021Y-1627428D01*
X2267000Y-1631035D01*
X2253488Y-1636369D01*
X2240737Y-1643380D01*
X2229002Y-1651914D01*
X2218436Y-1661820D01*
X2209139Y-1673047D01*
X2201367Y-1685289D01*
X2195220Y-1698447D01*
X2190699Y-1712214D01*
X2188006Y-1726488D01*
X2187092Y-1741017D01*
X2188006Y-1755495D01*
X2190699Y-1769770D01*
X2195220Y-1783537D01*
X2201367Y-1796694D01*
X2209139Y-1808937D01*
X2218436Y-1820164D01*
X2229002Y-1830070D01*
X2236520Y-1835556D01*
X2239365Y-1838706D01*
X2240686Y-1842719D01*
X2240229Y-1846935D01*
X2238146Y-1850593D01*
X2234692Y-1853082D01*
X2230577Y-1853946D01*
X362407Y-1853946D01*
X358495Y-1853184D01*
X355193Y-1850948D01*
X353568Y-1849323D01*
X345541Y-1843735D01*
X336702Y-1839569D01*
X327253Y-1837080D01*
X317500Y-1836216D01*
X307746Y-1837080D01*
X298297Y-1839569D01*
X289458Y-1843735D01*
X281432Y-1849323D01*
X274523Y-1856232D01*
X268935Y-1864258D01*
X264769Y-1873097D01*
X262280Y-1882546D01*
X261416Y-1892300D01*
X262280Y-1902053D01*
X264769Y-1911502D01*
X268935Y-1920341D01*
X274523Y-1928368D01*
X281432Y-1935276D01*
X289458Y-1940864D01*
X298297Y-1945030D01*
X307746Y-1947519D01*
G37*
G36*
X10761370Y-1693621D02*
G01*
X10813389Y-1693621D01*
X10811306Y-1689303D01*
X10803534Y-1677009D01*
X10794288Y-1665833D01*
X10783722Y-1655876D01*
X10771936Y-1647342D01*
X10761370Y-1641551D01*
G37*
G36*
X8211362Y-1693621D02*
G01*
X8263381Y-1693621D01*
X8261350Y-1689303D01*
X8253526Y-1677009D01*
X8244281Y-1665833D01*
X8233714Y-1655876D01*
X8221980Y-1647342D01*
X8211362Y-1641551D01*
G37*
G36*
X10606633Y-1693621D02*
G01*
X10658652Y-1693621D01*
X10658652Y-1641551D01*
X10648035Y-1647342D01*
X10636300Y-1655876D01*
X10625683Y-1665833D01*
X10616438Y-1677009D01*
X10608665Y-1689303D01*
G37*
G36*
X8056625Y-1693621D02*
G01*
X8108645Y-1693621D01*
X8108645Y-1641551D01*
X8098028Y-1647342D01*
X8086293Y-1655876D01*
X8075726Y-1665833D01*
X8066430Y-1677009D01*
X8058658Y-1689303D01*
G37*
G36*
X2604058Y-1689658D02*
G01*
X2656078Y-1689658D01*
X2654046Y-1685289D01*
X2646273Y-1673047D01*
X2636977Y-1661820D01*
X2626410Y-1651914D01*
X2614676Y-1643380D01*
X2604058Y-1637538D01*
G37*
G36*
X5664758Y-1689658D02*
G01*
X5716778Y-1689658D01*
X5714746Y-1685289D01*
X5706973Y-1673047D01*
X5697677Y-1661820D01*
X5687110Y-1651914D01*
X5675376Y-1643380D01*
X5664758Y-1637538D01*
G37*
G36*
X5510022Y-1689658D02*
G01*
X5562041Y-1689658D01*
X5562041Y-1637538D01*
X5551424Y-1643380D01*
X5539689Y-1651914D01*
X5529122Y-1661820D01*
X5519826Y-1673047D01*
X5512054Y-1685289D01*
G37*
G36*
X2449322Y-1689658D02*
G01*
X2501341Y-1689658D01*
X2501341Y-1637538D01*
X2490724Y-1643380D01*
X2478989Y-1651914D01*
X2468422Y-1661820D01*
X2459126Y-1673047D01*
X2451354Y-1685289D01*
G37*
G36*
X3314700Y-1465783D02*
G01*
X3324453Y-1464919D01*
X3333902Y-1462430D01*
X3342741Y-1458264D01*
X3350768Y-1452676D01*
X3357676Y-1445768D01*
X3363264Y-1437741D01*
X3367430Y-1428902D01*
X3369919Y-1419453D01*
X3370783Y-1409700D01*
X3369919Y-1399946D01*
X3367430Y-1390497D01*
X3363264Y-1381658D01*
X3357676Y-1373632D01*
X3356051Y-1372006D01*
X3353815Y-1368704D01*
X3353054Y-1364792D01*
X3353054Y-972616D01*
X3353815Y-968705D01*
X3356051Y-965403D01*
X3454603Y-866851D01*
X3457905Y-864616D01*
X3461816Y-863853D01*
X3796792Y-863853D01*
X3804767Y-863092D01*
X3811981Y-860907D01*
X3818585Y-857351D01*
X3824782Y-852271D01*
X3975303Y-701751D01*
X3978605Y-699516D01*
X3982516Y-698754D01*
X4670755Y-698754D01*
X4674666Y-699516D01*
X4677968Y-701751D01*
X4680153Y-705002D01*
X4680915Y-708914D01*
X4680153Y-712825D01*
X4677968Y-716076D01*
X4608728Y-785317D01*
X4603648Y-791514D01*
X4600092Y-798118D01*
X4597908Y-805332D01*
X4597146Y-813308D01*
X4597146Y-971092D01*
X4596384Y-975004D01*
X4594148Y-978306D01*
X4592523Y-979932D01*
X4586935Y-987958D01*
X4582769Y-996797D01*
X4580280Y-1006246D01*
X4579416Y-1016000D01*
X4580280Y-1025753D01*
X4582769Y-1035202D01*
X4586935Y-1044041D01*
X4592523Y-1052068D01*
X4599432Y-1058976D01*
X4607458Y-1064564D01*
X4616297Y-1068730D01*
X4625746Y-1071219D01*
X4635500Y-1072083D01*
X4645253Y-1071219D01*
X4654702Y-1068730D01*
X4663541Y-1064564D01*
X4671568Y-1058976D01*
X4678476Y-1052068D01*
X4684064Y-1044041D01*
X4688230Y-1035202D01*
X4690719Y-1025753D01*
X4691583Y-1016000D01*
X4690719Y-1006246D01*
X4688230Y-996797D01*
X4684064Y-987958D01*
X4678476Y-979932D01*
X4676851Y-978306D01*
X4674616Y-975004D01*
X4673854Y-971092D01*
X4673854Y-832916D01*
X4674616Y-829005D01*
X4676851Y-825703D01*
X4750003Y-752551D01*
X4753305Y-750316D01*
X4757216Y-749554D01*
X6804355Y-749554D01*
X6808266Y-750316D01*
X6811568Y-752551D01*
X6813753Y-755802D01*
X6814515Y-759714D01*
X6813753Y-763625D01*
X6811568Y-766876D01*
X6729628Y-848817D01*
X6724548Y-855014D01*
X6720992Y-861618D01*
X6718808Y-868832D01*
X6718046Y-876808D01*
X6718046Y-1072692D01*
X6717284Y-1076604D01*
X6715048Y-1079906D01*
X6713423Y-1081532D01*
X6707835Y-1089558D01*
X6703669Y-1098397D01*
X6701180Y-1107846D01*
X6700316Y-1117600D01*
X6701180Y-1127353D01*
X6703669Y-1136802D01*
X6707835Y-1145641D01*
X6713423Y-1153668D01*
X6720331Y-1160576D01*
X6728358Y-1166164D01*
X6737197Y-1170330D01*
X6746646Y-1172819D01*
X6756400Y-1173683D01*
X6766153Y-1172819D01*
X6775602Y-1170330D01*
X6784441Y-1166164D01*
X6792468Y-1160576D01*
X6799376Y-1153668D01*
X6804964Y-1145641D01*
X6809130Y-1136802D01*
X6811619Y-1127353D01*
X6812483Y-1117600D01*
X6811619Y-1107846D01*
X6809130Y-1098397D01*
X6804964Y-1089558D01*
X6799376Y-1081532D01*
X6797751Y-1079906D01*
X6795516Y-1076604D01*
X6794753Y-1072692D01*
X6794753Y-896416D01*
X6795516Y-892505D01*
X6797751Y-889203D01*
X6883603Y-803351D01*
X6886905Y-801116D01*
X6890816Y-800354D01*
X7484668Y-800354D01*
X7488631Y-801166D01*
X7491984Y-803452D01*
X7494117Y-806907D01*
X7494778Y-810869D01*
X7493863Y-814832D01*
X7491425Y-818083D01*
X7487005Y-822045D01*
X7476134Y-834186D01*
X7466685Y-847547D01*
X7458760Y-861821D01*
X7452512Y-876909D01*
X7447991Y-892606D01*
X7447838Y-893673D01*
X7523632Y-893673D01*
X7523632Y-810514D01*
X7524445Y-806602D01*
X7526629Y-803351D01*
X7529931Y-801116D01*
X7533792Y-800354D01*
X7646212Y-800354D01*
X7650073Y-801116D01*
X7653375Y-803351D01*
X7655559Y-806602D01*
X7656372Y-810514D01*
X7656372Y-893673D01*
X7732166Y-893673D01*
X7727442Y-876909D01*
X7721193Y-861821D01*
X7713319Y-847547D01*
X7703870Y-834186D01*
X7692999Y-822045D01*
X7688580Y-818083D01*
X7686141Y-814832D01*
X7685176Y-810869D01*
X7685836Y-806907D01*
X7688021Y-803452D01*
X7691374Y-801166D01*
X7695336Y-800354D01*
X8624671Y-800354D01*
X8628634Y-801166D01*
X8631986Y-803452D01*
X8634120Y-806907D01*
X8634780Y-810869D01*
X8633866Y-814832D01*
X8631428Y-818083D01*
X8627008Y-822045D01*
X8616137Y-834186D01*
X8606688Y-847547D01*
X8598763Y-861821D01*
X8592515Y-876909D01*
X8587994Y-892606D01*
X8587841Y-893673D01*
X8663635Y-893673D01*
X8663635Y-810514D01*
X8664448Y-806602D01*
X8666632Y-803351D01*
X8669934Y-801116D01*
X8673795Y-800354D01*
X8786215Y-800354D01*
X8790076Y-801116D01*
X8793378Y-803351D01*
X8795562Y-806602D01*
X8796375Y-810514D01*
X8796375Y-893673D01*
X8872169Y-893673D01*
X8867444Y-876909D01*
X8861196Y-861821D01*
X8853322Y-847547D01*
X8843873Y-834186D01*
X8833002Y-822045D01*
X8828582Y-818083D01*
X8826144Y-814832D01*
X8825179Y-810869D01*
X8825839Y-806907D01*
X8828024Y-803452D01*
X8831376Y-801166D01*
X8835339Y-800354D01*
X10034625Y-800354D01*
X10038638Y-801166D01*
X10041991Y-803452D01*
X10044125Y-806907D01*
X10044785Y-810869D01*
X10043820Y-814832D01*
X10041432Y-818083D01*
X10037013Y-822045D01*
X10026142Y-834186D01*
X10016693Y-847547D01*
X10008768Y-861821D01*
X10002520Y-876909D01*
X9997998Y-892606D01*
X9997846Y-893673D01*
X10073640Y-893673D01*
X10073640Y-810514D01*
X10074402Y-806602D01*
X10076637Y-803351D01*
X10079939Y-801116D01*
X10083800Y-800354D01*
X10196169Y-800354D01*
X10200081Y-801116D01*
X10203383Y-803351D01*
X10205567Y-806602D01*
X10206329Y-810514D01*
X10206329Y-893673D01*
X10282174Y-893673D01*
X10277449Y-876909D01*
X10271201Y-861821D01*
X10263327Y-847547D01*
X10253878Y-834186D01*
X10242956Y-822045D01*
X10238587Y-818083D01*
X10236149Y-814832D01*
X10235184Y-810869D01*
X10235844Y-806907D01*
X10238028Y-803452D01*
X10241381Y-801166D01*
X10245344Y-800354D01*
X11174628Y-800354D01*
X11178641Y-801166D01*
X11181994Y-803452D01*
X11184128Y-806907D01*
X11184788Y-810869D01*
X11183823Y-814832D01*
X11181435Y-818083D01*
X11177016Y-822045D01*
X11166144Y-834186D01*
X11156696Y-847547D01*
X11148771Y-861821D01*
X11142522Y-876909D01*
X11138001Y-892606D01*
X11137849Y-893673D01*
X11213642Y-893673D01*
X11213642Y-810514D01*
X11214404Y-806602D01*
X11216640Y-803351D01*
X11219942Y-801116D01*
X11223802Y-800354D01*
X11336172Y-800354D01*
X11340084Y-801116D01*
X11343386Y-803351D01*
X11345570Y-806602D01*
X11346332Y-810514D01*
X11346332Y-893673D01*
X11422176Y-893673D01*
X11417452Y-876909D01*
X11411204Y-861821D01*
X11403330Y-847547D01*
X11393881Y-834186D01*
X11382959Y-822045D01*
X11378590Y-818083D01*
X11376152Y-814832D01*
X11375186Y-810869D01*
X11375847Y-806907D01*
X11378031Y-803452D01*
X11381384Y-801166D01*
X11385346Y-800354D01*
X12584633Y-800354D01*
X12588646Y-801166D01*
X12591948Y-803452D01*
X12594132Y-806907D01*
X12594793Y-810869D01*
X12593828Y-814832D01*
X12591440Y-818083D01*
X12587020Y-822045D01*
X12576149Y-834186D01*
X12566700Y-847547D01*
X12558776Y-861821D01*
X12552527Y-876909D01*
X12548006Y-892606D01*
X12547854Y-893673D01*
X12623647Y-893673D01*
X12623647Y-810514D01*
X12624409Y-806602D01*
X12626644Y-803351D01*
X12629896Y-801116D01*
X12633807Y-800354D01*
X12746177Y-800354D01*
X12750088Y-801116D01*
X12753390Y-803351D01*
X12755575Y-806602D01*
X12756337Y-810514D01*
X12756337Y-893673D01*
X12832181Y-893673D01*
X12827457Y-876909D01*
X12821208Y-861821D01*
X12813334Y-847547D01*
X12803886Y-834186D01*
X12792964Y-822045D01*
X12788595Y-818083D01*
X12786156Y-814832D01*
X12785191Y-810869D01*
X12785852Y-806907D01*
X12788036Y-803452D01*
X12791389Y-801166D01*
X12795351Y-800354D01*
X13724636Y-800354D01*
X13728649Y-801166D01*
X13731951Y-803452D01*
X13734135Y-806907D01*
X13734796Y-810869D01*
X13733830Y-814832D01*
X13731443Y-818083D01*
X13727023Y-822045D01*
X13716152Y-834186D01*
X13706703Y-847547D01*
X13698778Y-861821D01*
X13692530Y-876909D01*
X13688009Y-892606D01*
X13687856Y-893673D01*
X13763650Y-893673D01*
X13763650Y-810514D01*
X13764412Y-806602D01*
X13766647Y-803351D01*
X13769898Y-801116D01*
X13773810Y-800354D01*
X13886180Y-800354D01*
X13890091Y-801116D01*
X13893393Y-803351D01*
X13895578Y-806602D01*
X13896340Y-810514D01*
X13896340Y-893673D01*
X13972184Y-893673D01*
X13967460Y-876909D01*
X13961211Y-861821D01*
X13953337Y-847547D01*
X13943888Y-834186D01*
X13932966Y-822045D01*
X13928598Y-818083D01*
X13926159Y-814832D01*
X13925194Y-810869D01*
X13925854Y-806907D01*
X13928039Y-803452D01*
X13931392Y-801166D01*
X13935354Y-800354D01*
X14488820Y-800354D01*
X14492478Y-801065D01*
X14495678Y-803046D01*
X14497913Y-806043D01*
X14501469Y-819302D01*
X14505635Y-828141D01*
X14511223Y-836168D01*
X14518132Y-843076D01*
X14526158Y-848664D01*
X14534997Y-852830D01*
X14544446Y-855319D01*
X14554200Y-856183D01*
X14563953Y-855319D01*
X14573402Y-852830D01*
X14582241Y-848664D01*
X14590268Y-843076D01*
X14597176Y-836168D01*
X14603425Y-827176D01*
X14605914Y-824636D01*
X14609114Y-823163D01*
X14612619Y-822807D01*
X14616023Y-823721D01*
X14623897Y-827430D01*
X14633346Y-829919D01*
X14643100Y-830783D01*
X14652853Y-829919D01*
X14662302Y-827430D01*
X14671141Y-823264D01*
X14679168Y-817676D01*
X14686076Y-810768D01*
X14691664Y-802741D01*
X14695830Y-793902D01*
X14698319Y-784453D01*
X14699030Y-776376D01*
X14699945Y-772972D01*
X14701977Y-770077D01*
X14704872Y-768045D01*
X14708276Y-767130D01*
X14716353Y-766419D01*
X14725802Y-763930D01*
X14734641Y-759764D01*
X14742668Y-754176D01*
X14749576Y-747268D01*
X14755164Y-739241D01*
X14759330Y-730402D01*
X14761819Y-720953D01*
X14762530Y-712876D01*
X14763445Y-709472D01*
X14765477Y-706577D01*
X14768372Y-704545D01*
X14771776Y-703630D01*
X14779853Y-702919D01*
X14789302Y-700430D01*
X14798141Y-696264D01*
X14806168Y-690676D01*
X14813076Y-683768D01*
X14818664Y-675741D01*
X14822830Y-666902D01*
X14825319Y-657453D01*
X14826030Y-649376D01*
X14826945Y-645972D01*
X14828977Y-643077D01*
X14831872Y-641045D01*
X14835276Y-640130D01*
X14843353Y-639419D01*
X14852802Y-636930D01*
X14861641Y-632764D01*
X14869668Y-627176D01*
X14876576Y-620268D01*
X14882164Y-612241D01*
X14886330Y-603402D01*
X14888819Y-593953D01*
X14889683Y-584200D01*
X14888819Y-574446D01*
X14886330Y-564997D01*
X14882164Y-556158D01*
X14876576Y-548132D01*
X14869668Y-541223D01*
X14861641Y-535635D01*
X14852802Y-531469D01*
X14843353Y-528980D01*
X14833346Y-528066D01*
X14829434Y-526897D01*
X14822881Y-523392D01*
X14815667Y-521208D01*
X14807692Y-520446D01*
X1676907Y-520446D01*
X1668932Y-521208D01*
X1661718Y-523392D01*
X1655114Y-526948D01*
X1648917Y-532028D01*
X1579422Y-601522D01*
X1576578Y-603554D01*
X1573123Y-604469D01*
X1565046Y-605180D01*
X1555597Y-607669D01*
X1546758Y-611835D01*
X1538732Y-617423D01*
X1531823Y-624332D01*
X1526235Y-632358D01*
X1522069Y-641197D01*
X1519580Y-650646D01*
X1518716Y-660400D01*
X1519580Y-670153D01*
X1522069Y-679602D01*
X1526235Y-688441D01*
X1531823Y-696468D01*
X1538732Y-703376D01*
X1546758Y-708964D01*
X1555597Y-713130D01*
X1565046Y-715619D01*
X1574800Y-716483D01*
X1584553Y-715619D01*
X1594002Y-713130D01*
X1602841Y-708964D01*
X1610868Y-703376D01*
X1617776Y-696468D01*
X1623364Y-688441D01*
X1627530Y-679602D01*
X1630019Y-670153D01*
X1630730Y-662076D01*
X1631645Y-658622D01*
X1633677Y-655777D01*
X1689303Y-600151D01*
X1692605Y-597916D01*
X1696516Y-597154D01*
X3845255Y-597154D01*
X3849166Y-597916D01*
X3852468Y-600151D01*
X3854653Y-603402D01*
X3855415Y-607314D01*
X3854653Y-611225D01*
X3852468Y-614476D01*
X3789222Y-677722D01*
X3786378Y-679754D01*
X3782923Y-680669D01*
X3774846Y-681380D01*
X3765397Y-683869D01*
X3756558Y-688035D01*
X3748532Y-693623D01*
X3741623Y-700532D01*
X3736035Y-708558D01*
X3731869Y-717397D01*
X3729380Y-726846D01*
X3728516Y-736600D01*
X3729380Y-746353D01*
X3731869Y-755802D01*
X3736035Y-764641D01*
X3740556Y-771144D01*
X3742283Y-775208D01*
X3742080Y-779627D01*
X3740048Y-783539D01*
X3736543Y-786180D01*
X3732276Y-787146D01*
X3442208Y-787146D01*
X3434232Y-787908D01*
X3427018Y-790092D01*
X3420414Y-793648D01*
X3414217Y-798728D01*
X3287928Y-925017D01*
X3282848Y-931214D01*
X3279292Y-937818D01*
X3277108Y-945032D01*
X3276346Y-953008D01*
X3276346Y-1082192D01*
X3275584Y-1086104D01*
X3273348Y-1089355D01*
X3270097Y-1091590D01*
X3266186Y-1092352D01*
X3189071Y-1092352D01*
X3189071Y-1190498D01*
X3200196Y-1184300D01*
X3213506Y-1174851D01*
X3225698Y-1163980D01*
X3236569Y-1151788D01*
X3246018Y-1138478D01*
X3253892Y-1124204D01*
X3256788Y-1117244D01*
X3259023Y-1113942D01*
X3262274Y-1111758D01*
X3266186Y-1110945D01*
X3270097Y-1111758D01*
X3273348Y-1113942D01*
X3275584Y-1117244D01*
X3276346Y-1121105D01*
X3276346Y-1364792D01*
X3275584Y-1368704D01*
X3273348Y-1372006D01*
X3271723Y-1373632D01*
X3266135Y-1381658D01*
X3261969Y-1390497D01*
X3259480Y-1399946D01*
X3258616Y-1409700D01*
X3259480Y-1419453D01*
X3261969Y-1428902D01*
X3266135Y-1437741D01*
X3271723Y-1445768D01*
X3278632Y-1452676D01*
X3286658Y-1458264D01*
X3295497Y-1462430D01*
X3304946Y-1464919D01*
G37*
G36*
X16196056Y-1456791D02*
G01*
X16210178Y-1455420D01*
X16223996Y-1452270D01*
X16237305Y-1447342D01*
X16249853Y-1440789D01*
X16261486Y-1432712D01*
X16271951Y-1423162D01*
X16281146Y-1412392D01*
X16288918Y-1400505D01*
X16295065Y-1387703D01*
X16299535Y-1374241D01*
X16302228Y-1360322D01*
X16303142Y-1346200D01*
X16302228Y-1332077D01*
X16299535Y-1318158D01*
X16295065Y-1304696D01*
X16288918Y-1291894D01*
X16281146Y-1280007D01*
X16271951Y-1269238D01*
X16261486Y-1259687D01*
X16249853Y-1251610D01*
X16237305Y-1245057D01*
X16223996Y-1240129D01*
X16210178Y-1236980D01*
X16196056Y-1235608D01*
X16181882Y-1236065D01*
X16167862Y-1238351D01*
X16154298Y-1242364D01*
X16141344Y-1248105D01*
X16129203Y-1255471D01*
X16118128Y-1264310D01*
X16108273Y-1274470D01*
X16099790Y-1285849D01*
X16092830Y-1298194D01*
X16087496Y-1311351D01*
X16083889Y-1325067D01*
X16082111Y-1339088D01*
X16082111Y-1353312D01*
X16083889Y-1367332D01*
X16087496Y-1381048D01*
X16092830Y-1394206D01*
X16099790Y-1406550D01*
X16108273Y-1417929D01*
X16118128Y-1428089D01*
X16129203Y-1436928D01*
X16141344Y-1444294D01*
X16154298Y-1450035D01*
X16167862Y-1454048D01*
X16181882Y-1456334D01*
G37*
G36*
X16704056Y-1456791D02*
G01*
X16718178Y-1455420D01*
X16731996Y-1452270D01*
X16745305Y-1447342D01*
X16757853Y-1440789D01*
X16769486Y-1432712D01*
X16779951Y-1423162D01*
X16789146Y-1412392D01*
X16796918Y-1400505D01*
X16803065Y-1387703D01*
X16807535Y-1374241D01*
X16810228Y-1360322D01*
X16811142Y-1346200D01*
X16810228Y-1332077D01*
X16807535Y-1318158D01*
X16803065Y-1304696D01*
X16796918Y-1291894D01*
X16789146Y-1280007D01*
X16779951Y-1269238D01*
X16769486Y-1259687D01*
X16757853Y-1251610D01*
X16745305Y-1245057D01*
X16731996Y-1240129D01*
X16718178Y-1236980D01*
X16704056Y-1235608D01*
X16689882Y-1236065D01*
X16675862Y-1238351D01*
X16662298Y-1242364D01*
X16649344Y-1248105D01*
X16637203Y-1255471D01*
X16626128Y-1264310D01*
X16616273Y-1274470D01*
X16607790Y-1285849D01*
X16600830Y-1298194D01*
X16595496Y-1311351D01*
X16591889Y-1325067D01*
X16590111Y-1339088D01*
X16590111Y-1353312D01*
X16591889Y-1367332D01*
X16595496Y-1381048D01*
X16600830Y-1394206D01*
X16607790Y-1406550D01*
X16616273Y-1417929D01*
X16626128Y-1428089D01*
X16637203Y-1436928D01*
X16649344Y-1444294D01*
X16662298Y-1450035D01*
X16675862Y-1454048D01*
X16689882Y-1456334D01*
G37*
G36*
X16450056Y-1456791D02*
G01*
X16464178Y-1455420D01*
X16477996Y-1452270D01*
X16491305Y-1447342D01*
X16503853Y-1440789D01*
X16515486Y-1432712D01*
X16525951Y-1423162D01*
X16535146Y-1412392D01*
X16542918Y-1400505D01*
X16549065Y-1387703D01*
X16553535Y-1374241D01*
X16556228Y-1360322D01*
X16557142Y-1346200D01*
X16556228Y-1332077D01*
X16553535Y-1318158D01*
X16549065Y-1304696D01*
X16542918Y-1291894D01*
X16535146Y-1280007D01*
X16525951Y-1269238D01*
X16515486Y-1259687D01*
X16503853Y-1251610D01*
X16491305Y-1245057D01*
X16477996Y-1240129D01*
X16464178Y-1236980D01*
X16450056Y-1235608D01*
X16435882Y-1236065D01*
X16421862Y-1238351D01*
X16408298Y-1242364D01*
X16395344Y-1248105D01*
X16383203Y-1255471D01*
X16372128Y-1264310D01*
X16362273Y-1274470D01*
X16353790Y-1285849D01*
X16346830Y-1298194D01*
X16341496Y-1311351D01*
X16337889Y-1325067D01*
X16336111Y-1339088D01*
X16336111Y-1353312D01*
X16337889Y-1367332D01*
X16341496Y-1381048D01*
X16346830Y-1394206D01*
X16353790Y-1406550D01*
X16362273Y-1417929D01*
X16372128Y-1428089D01*
X16383203Y-1436928D01*
X16395344Y-1444294D01*
X16408298Y-1450035D01*
X16421862Y-1454048D01*
X16435882Y-1456334D01*
G37*
G36*
X15942056Y-1456791D02*
G01*
X15956178Y-1455420D01*
X15969996Y-1452270D01*
X15983305Y-1447342D01*
X15995853Y-1440789D01*
X16007486Y-1432712D01*
X16017951Y-1423162D01*
X16027146Y-1412392D01*
X16034918Y-1400505D01*
X16041065Y-1387703D01*
X16045535Y-1374241D01*
X16048228Y-1360322D01*
X16049142Y-1346200D01*
X16048228Y-1332077D01*
X16045535Y-1318158D01*
X16041065Y-1304696D01*
X16034918Y-1291894D01*
X16027146Y-1280007D01*
X16017951Y-1269238D01*
X16007486Y-1259687D01*
X15995853Y-1251610D01*
X15983305Y-1245057D01*
X15969996Y-1240129D01*
X15956178Y-1236980D01*
X15942056Y-1235608D01*
X15927882Y-1236065D01*
X15913862Y-1238351D01*
X15900298Y-1242364D01*
X15887344Y-1248105D01*
X15875203Y-1255471D01*
X15864128Y-1264310D01*
X15854273Y-1274470D01*
X15845790Y-1285849D01*
X15838830Y-1298194D01*
X15833496Y-1311351D01*
X15829889Y-1325067D01*
X15828111Y-1339088D01*
X15828111Y-1353312D01*
X15829889Y-1367332D01*
X15833496Y-1381048D01*
X15838830Y-1394206D01*
X15845790Y-1406550D01*
X15854273Y-1417929D01*
X15864128Y-1428089D01*
X15875203Y-1436928D01*
X15887344Y-1444294D01*
X15900298Y-1450035D01*
X15913862Y-1454048D01*
X15927882Y-1456334D01*
G37*
G36*
X16870070Y-1450594D02*
G01*
X16905630Y-1450594D01*
X16905630Y-1391920D01*
X16843857Y-1391920D01*
X16843857Y-1424381D01*
X16844568Y-1430629D01*
X16846448Y-1436065D01*
X16849496Y-1440891D01*
X16853560Y-1444955D01*
X16858386Y-1448003D01*
X16863822Y-1449882D01*
G37*
G36*
X16843857Y-1300480D02*
G01*
X16905630Y-1300480D01*
X16905630Y-1241806D01*
X16870070Y-1241806D01*
X16863822Y-1242517D01*
X16858386Y-1244396D01*
X16853560Y-1247444D01*
X16849496Y-1251508D01*
X16846448Y-1256334D01*
X16844568Y-1261770D01*
X16843857Y-1268018D01*
G37*
G36*
X15942056Y-1202791D02*
G01*
X15956178Y-1201420D01*
X15969996Y-1198270D01*
X15983305Y-1193342D01*
X15995853Y-1186789D01*
X16007486Y-1178712D01*
X16017951Y-1169162D01*
X16027146Y-1158392D01*
X16034918Y-1146505D01*
X16041065Y-1133703D01*
X16045535Y-1120241D01*
X16048228Y-1106322D01*
X16049142Y-1092200D01*
X16048228Y-1078077D01*
X16045535Y-1064158D01*
X16041065Y-1050696D01*
X16034918Y-1037894D01*
X16027146Y-1026007D01*
X16017951Y-1015237D01*
X16007486Y-1005687D01*
X15995853Y-997610D01*
X15983305Y-991057D01*
X15969996Y-986129D01*
X15956178Y-982980D01*
X15942056Y-981608D01*
X15927882Y-982065D01*
X15913862Y-984351D01*
X15900298Y-988364D01*
X15887344Y-994105D01*
X15875203Y-1001471D01*
X15864128Y-1010310D01*
X15854273Y-1020470D01*
X15845790Y-1031849D01*
X15838830Y-1044194D01*
X15833496Y-1057351D01*
X15829889Y-1071067D01*
X15828111Y-1085088D01*
X15828111Y-1099312D01*
X15829889Y-1113332D01*
X15833496Y-1127048D01*
X15838830Y-1140206D01*
X15845790Y-1152550D01*
X15854273Y-1163929D01*
X15864128Y-1174089D01*
X15875203Y-1182928D01*
X15887344Y-1190294D01*
X15900298Y-1196035D01*
X15913862Y-1200048D01*
X15927882Y-1202334D01*
G37*
G36*
X16196056Y-1202791D02*
G01*
X16210178Y-1201420D01*
X16223996Y-1198270D01*
X16237305Y-1193342D01*
X16249853Y-1186789D01*
X16261486Y-1178712D01*
X16271951Y-1169162D01*
X16281146Y-1158392D01*
X16288918Y-1146505D01*
X16295065Y-1133703D01*
X16299535Y-1120241D01*
X16302228Y-1106322D01*
X16303142Y-1092200D01*
X16302228Y-1078077D01*
X16299535Y-1064158D01*
X16295065Y-1050696D01*
X16292830Y-1046124D01*
X16291864Y-1042212D01*
X16292474Y-1038199D01*
X16294607Y-1034745D01*
X16297910Y-1032408D01*
X16301821Y-1031544D01*
X16305834Y-1032306D01*
X16309187Y-1034542D01*
X16335400Y-1060754D01*
X16337432Y-1063599D01*
X16338346Y-1067003D01*
X16336111Y-1085088D01*
X16336111Y-1099312D01*
X16337889Y-1113332D01*
X16341496Y-1127048D01*
X16346830Y-1140206D01*
X16353790Y-1152550D01*
X16362273Y-1163929D01*
X16372128Y-1174089D01*
X16383203Y-1182928D01*
X16395344Y-1190294D01*
X16408298Y-1196035D01*
X16421862Y-1200048D01*
X16435882Y-1202334D01*
X16450056Y-1202791D01*
X16464178Y-1201420D01*
X16477996Y-1198270D01*
X16491305Y-1193342D01*
X16503853Y-1186789D01*
X16515486Y-1178712D01*
X16525951Y-1169162D01*
X16535146Y-1158392D01*
X16542918Y-1146505D01*
X16549065Y-1133703D01*
X16553535Y-1120241D01*
X16556228Y-1106322D01*
X16557142Y-1092200D01*
X16556228Y-1078077D01*
X16553535Y-1064158D01*
X16549065Y-1050696D01*
X16542918Y-1037894D01*
X16535146Y-1026007D01*
X16525951Y-1015237D01*
X16515486Y-1005687D01*
X16503853Y-997610D01*
X16491305Y-991057D01*
X16477996Y-986129D01*
X16464178Y-982980D01*
X16450056Y-981608D01*
X16435882Y-982065D01*
X16421862Y-984351D01*
X16408298Y-988364D01*
X16395344Y-994105D01*
X16390874Y-996797D01*
X16386657Y-998219D01*
X16382238Y-997661D01*
X16378428Y-995273D01*
X16270782Y-887628D01*
X16264585Y-882548D01*
X16257981Y-878992D01*
X16250767Y-876808D01*
X16242792Y-876046D01*
X15729407Y-876046D01*
X15725495Y-875284D01*
X15722193Y-873048D01*
X15720568Y-871423D01*
X15712541Y-865835D01*
X15703702Y-861669D01*
X15694253Y-859180D01*
X15684500Y-858316D01*
X15674746Y-859180D01*
X15665297Y-861669D01*
X15656458Y-865835D01*
X15648432Y-871423D01*
X15641523Y-878332D01*
X15635935Y-886358D01*
X15631769Y-895197D01*
X15629280Y-904646D01*
X15628416Y-914400D01*
X15629280Y-924153D01*
X15631769Y-933602D01*
X15635935Y-942441D01*
X15641523Y-950468D01*
X15648432Y-957376D01*
X15656458Y-962964D01*
X15665297Y-967130D01*
X15674746Y-969619D01*
X15684500Y-970483D01*
X15694253Y-969619D01*
X15703702Y-967130D01*
X15712541Y-962964D01*
X15720568Y-957376D01*
X15722193Y-955751D01*
X15725495Y-953516D01*
X15729407Y-952753D01*
X16223183Y-952753D01*
X16227094Y-953516D01*
X16230396Y-955751D01*
X16249853Y-975207D01*
X16252139Y-978611D01*
X16252850Y-982675D01*
X16251936Y-986637D01*
X16249497Y-989939D01*
X16245992Y-992022D01*
X16241928Y-992530D01*
X16237305Y-991057D01*
X16223996Y-986129D01*
X16210178Y-982980D01*
X16196056Y-981608D01*
X16181882Y-982065D01*
X16167862Y-984351D01*
X16154298Y-988364D01*
X16141344Y-994105D01*
X16129203Y-1001471D01*
X16118128Y-1010310D01*
X16108273Y-1020470D01*
X16099790Y-1031849D01*
X16092830Y-1044194D01*
X16087496Y-1057351D01*
X16083889Y-1071067D01*
X16082111Y-1085088D01*
X16082111Y-1099312D01*
X16083889Y-1113332D01*
X16087496Y-1127048D01*
X16092830Y-1140206D01*
X16099790Y-1152550D01*
X16108273Y-1163929D01*
X16118128Y-1174089D01*
X16129203Y-1182928D01*
X16141344Y-1190294D01*
X16154298Y-1196035D01*
X16167862Y-1200048D01*
X16181882Y-1202334D01*
G37*
G36*
X16704056Y-1202791D02*
G01*
X16718178Y-1201420D01*
X16731996Y-1198270D01*
X16745305Y-1193342D01*
X16757853Y-1186789D01*
X16769486Y-1178712D01*
X16779951Y-1169162D01*
X16789146Y-1158392D01*
X16796918Y-1146505D01*
X16803065Y-1133703D01*
X16807535Y-1120241D01*
X16810228Y-1106322D01*
X16811142Y-1092200D01*
X16810228Y-1078077D01*
X16807535Y-1064158D01*
X16803065Y-1050696D01*
X16796918Y-1037894D01*
X16789146Y-1026007D01*
X16779951Y-1015237D01*
X16769486Y-1005687D01*
X16757853Y-997610D01*
X16745305Y-991057D01*
X16731996Y-986129D01*
X16718178Y-982980D01*
X16704056Y-981608D01*
X16689882Y-982065D01*
X16675862Y-984351D01*
X16662298Y-988364D01*
X16660774Y-989025D01*
X16656812Y-989888D01*
X16652849Y-989177D01*
X16649496Y-986942D01*
X16423182Y-760628D01*
X16416985Y-755548D01*
X16410381Y-751992D01*
X16403167Y-749808D01*
X16395192Y-749046D01*
X15589707Y-749046D01*
X15585795Y-748284D01*
X15582493Y-746048D01*
X15580868Y-744423D01*
X15572841Y-738835D01*
X15564002Y-734669D01*
X15554553Y-732180D01*
X15544800Y-731316D01*
X15535046Y-732180D01*
X15525597Y-734669D01*
X15516758Y-738835D01*
X15508732Y-744423D01*
X15501823Y-751332D01*
X15496235Y-759358D01*
X15492069Y-768197D01*
X15489580Y-777646D01*
X15488716Y-787400D01*
X15489580Y-797153D01*
X15492069Y-806602D01*
X15496235Y-815441D01*
X15501823Y-823468D01*
X15508732Y-830376D01*
X15516758Y-835964D01*
X15525597Y-840130D01*
X15535046Y-842619D01*
X15544800Y-843483D01*
X15554553Y-842619D01*
X15564002Y-840130D01*
X15572841Y-835964D01*
X15580868Y-830376D01*
X15582493Y-828751D01*
X15585795Y-826516D01*
X15589707Y-825753D01*
X16375583Y-825753D01*
X16379494Y-826516D01*
X16382796Y-828751D01*
X16595344Y-1041247D01*
X16597528Y-1044549D01*
X16598290Y-1048410D01*
X16597579Y-1052271D01*
X16595496Y-1057351D01*
X16591889Y-1071067D01*
X16590111Y-1085088D01*
X16590111Y-1099312D01*
X16591889Y-1113332D01*
X16595496Y-1127048D01*
X16600830Y-1140206D01*
X16607790Y-1152550D01*
X16616273Y-1163929D01*
X16626128Y-1174089D01*
X16637203Y-1182928D01*
X16649344Y-1190294D01*
X16662298Y-1196035D01*
X16675862Y-1200048D01*
X16689882Y-1202334D01*
G37*
G36*
X1916328Y-1190498D02*
G01*
X1916328Y-1092352D01*
X1840534Y-1092352D01*
X1840687Y-1093419D01*
X1845208Y-1109116D01*
X1851507Y-1124204D01*
X1859381Y-1138478D01*
X1868830Y-1151788D01*
X1879701Y-1163980D01*
X1891893Y-1174851D01*
X1905203Y-1184300D01*
G37*
G36*
X2049068Y-1190498D02*
G01*
X2060193Y-1184300D01*
X2073503Y-1174851D01*
X2085695Y-1163980D01*
X2096566Y-1151788D01*
X2106015Y-1138478D01*
X2113889Y-1124204D01*
X2120188Y-1109116D01*
X2124710Y-1093419D01*
X2124862Y-1092352D01*
X2049068Y-1092352D01*
G37*
G36*
X6117031Y-1190498D02*
G01*
X6117031Y-1092352D01*
X6041237Y-1092352D01*
X6041390Y-1093419D01*
X6045911Y-1109116D01*
X6052210Y-1124204D01*
X6060084Y-1138478D01*
X6069533Y-1151788D01*
X6080404Y-1163980D01*
X6092596Y-1174851D01*
X6105906Y-1184300D01*
G37*
G36*
X5109768Y-1190498D02*
G01*
X5120894Y-1184300D01*
X5134203Y-1174851D01*
X5146395Y-1163980D01*
X5157266Y-1151788D01*
X5166715Y-1138478D01*
X5174589Y-1124204D01*
X5180888Y-1109116D01*
X5185410Y-1093419D01*
X5185562Y-1092352D01*
X5109768Y-1092352D01*
G37*
G36*
X3056331Y-1190498D02*
G01*
X3056331Y-1092352D01*
X2980537Y-1092352D01*
X2980690Y-1093419D01*
X2985211Y-1109116D01*
X2991510Y-1124204D01*
X2999384Y-1138478D01*
X3008833Y-1151788D01*
X3019704Y-1163980D01*
X3031896Y-1174851D01*
X3045206Y-1184300D01*
G37*
G36*
X6249771Y-1190498D02*
G01*
X6260896Y-1184300D01*
X6274206Y-1174851D01*
X6286398Y-1163980D01*
X6297269Y-1151788D01*
X6306718Y-1138478D01*
X6314592Y-1124204D01*
X6320891Y-1109116D01*
X6325412Y-1093419D01*
X6325565Y-1092352D01*
X6249771Y-1092352D01*
G37*
G36*
X4977028Y-1190498D02*
G01*
X4977028Y-1092352D01*
X4901234Y-1092352D01*
X4901387Y-1093419D01*
X4905908Y-1109116D01*
X4912207Y-1124204D01*
X4920081Y-1138478D01*
X4929530Y-1151788D01*
X4940401Y-1163980D01*
X4952593Y-1174851D01*
X4965903Y-1184300D01*
G37*
G36*
X1840534Y-889660D02*
G01*
X1916328Y-889660D01*
X1916328Y-791514D01*
X1905203Y-797712D01*
X1891893Y-807161D01*
X1879701Y-818032D01*
X1868830Y-830224D01*
X1859381Y-843534D01*
X1851507Y-857808D01*
X1845208Y-872896D01*
X1840687Y-888593D01*
G37*
G36*
X5109768Y-889660D02*
G01*
X5185562Y-889660D01*
X5185410Y-888593D01*
X5180888Y-872896D01*
X5174589Y-857808D01*
X5166715Y-843534D01*
X5157266Y-830224D01*
X5146395Y-818032D01*
X5134203Y-807161D01*
X5120894Y-797712D01*
X5109768Y-791514D01*
G37*
G36*
X6249771Y-889660D02*
G01*
X6325565Y-889660D01*
X6325412Y-888593D01*
X6320891Y-872896D01*
X6314592Y-857808D01*
X6306718Y-843534D01*
X6297269Y-830224D01*
X6286398Y-818032D01*
X6274206Y-807161D01*
X6260896Y-797712D01*
X6249771Y-791514D01*
G37*
G36*
X2980537Y-889660D02*
G01*
X3056331Y-889660D01*
X3056331Y-791514D01*
X3045206Y-797712D01*
X3031896Y-807161D01*
X3019704Y-818032D01*
X3008833Y-830224D01*
X2999384Y-843534D01*
X2991510Y-857808D01*
X2985211Y-872896D01*
X2980690Y-888593D01*
G37*
G36*
X4901234Y-889660D02*
G01*
X4977028Y-889660D01*
X4977028Y-791514D01*
X4965903Y-797712D01*
X4952593Y-807161D01*
X4940401Y-818032D01*
X4929530Y-830224D01*
X4920081Y-843534D01*
X4912207Y-857808D01*
X4905908Y-872896D01*
X4901387Y-888593D01*
G37*
G36*
X6041237Y-889660D02*
G01*
X6117031Y-889660D01*
X6117031Y-791514D01*
X6105906Y-797712D01*
X6092596Y-807161D01*
X6080404Y-818032D01*
X6069533Y-830224D01*
X6060084Y-843534D01*
X6052210Y-857808D01*
X6045911Y-872896D01*
X6041390Y-888593D01*
G37*
G36*
X3189071Y-889660D02*
G01*
X3264865Y-889660D01*
X3264712Y-888593D01*
X3260191Y-872896D01*
X3253892Y-857808D01*
X3246018Y-843534D01*
X3236569Y-830224D01*
X3225698Y-818032D01*
X3213506Y-807161D01*
X3200196Y-797712D01*
X3189071Y-791514D01*
G37*
G36*
X2049068Y-889660D02*
G01*
X2124862Y-889660D01*
X2124710Y-888593D01*
X2120188Y-872896D01*
X2113889Y-857808D01*
X2106015Y-843534D01*
X2096566Y-830224D01*
X2085695Y-818032D01*
X2073503Y-807161D01*
X2060193Y-797712D01*
X2049068Y-791514D01*
G37*
G36*
X7902752Y-410413D02*
G01*
X7917281Y-410413D01*
X7931658Y-408584D01*
X7945729Y-404977D01*
X7959242Y-399643D01*
X7971993Y-392633D01*
X7983728Y-384098D01*
X7994294Y-374142D01*
X8003540Y-362966D01*
X8011363Y-350723D01*
X8017509Y-337566D01*
X8022031Y-323748D01*
X8024723Y-309524D01*
X8025638Y-294995D01*
X8024723Y-280517D01*
X8022031Y-266242D01*
X8017509Y-252425D01*
X8011363Y-239318D01*
X8003540Y-227025D01*
X7994294Y-215849D01*
X7983728Y-205892D01*
X7971993Y-197358D01*
X7959242Y-190398D01*
X7945729Y-185013D01*
X7931658Y-181406D01*
X7917281Y-179578D01*
X7902752Y-179578D01*
X7888325Y-181406D01*
X7874304Y-185013D01*
X7860792Y-190398D01*
X7848041Y-197358D01*
X7836306Y-205892D01*
X7825740Y-215849D01*
X7816443Y-227025D01*
X7808671Y-239318D01*
X7802524Y-252425D01*
X7798003Y-266242D01*
X7795310Y-280517D01*
X7794396Y-294995D01*
X7795310Y-309524D01*
X7798003Y-323748D01*
X7802524Y-337566D01*
X7808671Y-350723D01*
X7816443Y-362966D01*
X7825740Y-374142D01*
X7836306Y-384098D01*
X7848041Y-392633D01*
X7860792Y-399643D01*
X7874304Y-404977D01*
X7888325Y-408584D01*
G37*
G36*
X13002768Y-410413D02*
G01*
X13017296Y-410413D01*
X13031673Y-408584D01*
X13045744Y-404977D01*
X13059257Y-399643D01*
X13071957Y-392633D01*
X13083743Y-384098D01*
X13094309Y-374142D01*
X13103555Y-362966D01*
X13111327Y-350723D01*
X13117525Y-337566D01*
X13121995Y-323748D01*
X13124738Y-309524D01*
X13125653Y-294995D01*
X13124738Y-280517D01*
X13121995Y-266242D01*
X13117525Y-252425D01*
X13111327Y-239318D01*
X13103555Y-227025D01*
X13094309Y-215849D01*
X13083743Y-205892D01*
X13071957Y-197358D01*
X13059257Y-190398D01*
X13045744Y-185013D01*
X13031673Y-181406D01*
X13017296Y-179578D01*
X13002768Y-179578D01*
X12988340Y-181406D01*
X12974269Y-185013D01*
X12960756Y-190398D01*
X12948056Y-197358D01*
X12936321Y-205892D01*
X12925704Y-215849D01*
X12916458Y-227025D01*
X12908686Y-239318D01*
X12902488Y-252425D01*
X12898018Y-266242D01*
X12895275Y-280517D01*
X12894360Y-294995D01*
X12895275Y-309524D01*
X12898018Y-323748D01*
X12902488Y-337566D01*
X12908686Y-350723D01*
X12916458Y-362966D01*
X12925704Y-374142D01*
X12936321Y-384098D01*
X12948056Y-392633D01*
X12960756Y-399643D01*
X12974269Y-404977D01*
X12988340Y-408584D01*
G37*
G36*
X10452760Y-410413D02*
G01*
X10467289Y-410413D01*
X10481665Y-408584D01*
X10495737Y-404977D01*
X10509250Y-399643D01*
X10521950Y-392633D01*
X10533735Y-384098D01*
X10544302Y-374142D01*
X10553547Y-362966D01*
X10561320Y-350723D01*
X10567517Y-337566D01*
X10571988Y-323748D01*
X10574731Y-309524D01*
X10575645Y-294995D01*
X10574731Y-280517D01*
X10571988Y-266242D01*
X10567517Y-252425D01*
X10561320Y-239318D01*
X10553547Y-227025D01*
X10544302Y-215849D01*
X10533735Y-205892D01*
X10521950Y-197358D01*
X10509250Y-190398D01*
X10495737Y-185013D01*
X10481665Y-181406D01*
X10467289Y-179578D01*
X10452760Y-179578D01*
X10438333Y-181406D01*
X10424261Y-185013D01*
X10410799Y-190398D01*
X10398048Y-197358D01*
X10386314Y-205892D01*
X10375696Y-215849D01*
X10366451Y-227025D01*
X10358678Y-239318D01*
X10352481Y-252425D01*
X10348010Y-266242D01*
X10345267Y-280517D01*
X10344353Y-294995D01*
X10345267Y-309524D01*
X10348010Y-323748D01*
X10352481Y-337566D01*
X10358678Y-350723D01*
X10366451Y-362966D01*
X10375696Y-374142D01*
X10386314Y-384098D01*
X10398048Y-392633D01*
X10410799Y-399643D01*
X10424261Y-404977D01*
X10438333Y-408584D01*
G37*
G36*
X2295448Y-406400D02*
G01*
X2309977Y-406400D01*
X2324404Y-404571D01*
X2338425Y-400964D01*
X2351938Y-395630D01*
X2364689Y-388620D01*
X2376424Y-380085D01*
X2386990Y-370179D01*
X2396286Y-358952D01*
X2404059Y-346710D01*
X2410206Y-333552D01*
X2414727Y-319786D01*
X2417419Y-305511D01*
X2418334Y-291033D01*
X2417419Y-276504D01*
X2414727Y-262229D01*
X2410206Y-248462D01*
X2404059Y-235305D01*
X2396286Y-223062D01*
X2386990Y-211836D01*
X2376424Y-201930D01*
X2364689Y-193395D01*
X2351938Y-186385D01*
X2338425Y-181051D01*
X2324404Y-177444D01*
X2309977Y-175615D01*
X2295448Y-175615D01*
X2281021Y-177444D01*
X2267000Y-181051D01*
X2253488Y-186385D01*
X2240737Y-193395D01*
X2229002Y-201930D01*
X2218436Y-211836D01*
X2209139Y-223062D01*
X2201367Y-235305D01*
X2195220Y-248462D01*
X2190699Y-262229D01*
X2188006Y-276504D01*
X2187092Y-291033D01*
X2188006Y-305511D01*
X2190699Y-319786D01*
X2195220Y-333552D01*
X2201367Y-346710D01*
X2209139Y-358952D01*
X2218436Y-370179D01*
X2229002Y-380085D01*
X2240737Y-388620D01*
X2253488Y-395630D01*
X2267000Y-400964D01*
X2281021Y-404571D01*
G37*
G36*
X5356148Y-406400D02*
G01*
X5370677Y-406400D01*
X5385104Y-404571D01*
X5399125Y-400964D01*
X5412638Y-395630D01*
X5425389Y-388620D01*
X5437124Y-380085D01*
X5447690Y-370179D01*
X5456986Y-358952D01*
X5464759Y-346710D01*
X5470906Y-333552D01*
X5475427Y-319786D01*
X5478119Y-305511D01*
X5479034Y-291033D01*
X5478119Y-276504D01*
X5475427Y-262229D01*
X5470906Y-248462D01*
X5464759Y-235305D01*
X5456986Y-223062D01*
X5447690Y-211836D01*
X5437124Y-201930D01*
X5425389Y-193395D01*
X5412638Y-186385D01*
X5399125Y-181051D01*
X5385104Y-177444D01*
X5370677Y-175615D01*
X5356148Y-175615D01*
X5341721Y-177444D01*
X5327700Y-181051D01*
X5314188Y-186385D01*
X5301437Y-193395D01*
X5289702Y-201930D01*
X5279136Y-211836D01*
X5269839Y-223062D01*
X5262067Y-235305D01*
X5255920Y-248462D01*
X5251399Y-262229D01*
X5248706Y-276504D01*
X5247792Y-291033D01*
X5248706Y-305511D01*
X5251399Y-319786D01*
X5255920Y-333552D01*
X5262067Y-346710D01*
X5269839Y-358952D01*
X5279136Y-370179D01*
X5289702Y-380085D01*
X5301437Y-388620D01*
X5314188Y-395630D01*
X5327700Y-400964D01*
X5341721Y-404571D01*
G37*
G36*
X8358682Y-398475D02*
G01*
X8358682Y-346354D01*
X8306612Y-346354D01*
X8308695Y-350723D01*
X8316468Y-362966D01*
X8325713Y-374142D01*
X8336330Y-384098D01*
X8348065Y-392633D01*
G37*
G36*
X13458647Y-398475D02*
G01*
X13458647Y-346354D01*
X13406628Y-346354D01*
X13408660Y-350723D01*
X13416483Y-362966D01*
X13425728Y-374142D01*
X13436295Y-384098D01*
X13448030Y-392633D01*
G37*
G36*
X11011357Y-398475D02*
G01*
X11021974Y-392633D01*
X11033709Y-384098D01*
X11044326Y-374142D01*
X11053572Y-362966D01*
X11061344Y-350723D01*
X11063376Y-346354D01*
X11011357Y-346354D01*
G37*
G36*
X8461349Y-398475D02*
G01*
X8471966Y-392633D01*
X8483701Y-384098D01*
X8494318Y-374142D01*
X8503564Y-362966D01*
X8511336Y-350723D01*
X8513419Y-346354D01*
X8461349Y-346354D01*
G37*
G36*
X13561364Y-398475D02*
G01*
X13571982Y-392633D01*
X13583716Y-384098D01*
X13594283Y-374142D01*
X13603579Y-362966D01*
X13611351Y-350723D01*
X13613384Y-346354D01*
X13561364Y-346354D01*
G37*
G36*
X10908639Y-398475D02*
G01*
X10908639Y-346354D01*
X10856620Y-346354D01*
X10858703Y-350723D01*
X10866475Y-362966D01*
X10875721Y-374142D01*
X10886287Y-384098D01*
X10898073Y-392633D01*
G37*
G36*
X5914745Y-394462D02*
G01*
X5925362Y-388620D01*
X5937097Y-380085D01*
X5947714Y-370179D01*
X5956960Y-358952D01*
X5964732Y-346710D01*
X5966815Y-342341D01*
X5914745Y-342341D01*
G37*
G36*
X2854045Y-394462D02*
G01*
X2864662Y-388620D01*
X2876397Y-380085D01*
X2887014Y-370179D01*
X2896260Y-358952D01*
X2904032Y-346710D01*
X2906115Y-342341D01*
X2854045Y-342341D01*
G37*
G36*
X5812078Y-394462D02*
G01*
X5812078Y-342341D01*
X5760008Y-342341D01*
X5762091Y-346710D01*
X5769864Y-358952D01*
X5779109Y-370179D01*
X5789726Y-380085D01*
X5801461Y-388620D01*
G37*
G36*
X2751378Y-394462D02*
G01*
X2751378Y-342341D01*
X2699308Y-342341D01*
X2701391Y-346710D01*
X2709164Y-358952D01*
X2718409Y-370179D01*
X2729026Y-380085D01*
X2740761Y-388620D01*
G37*
G36*
X11011357Y-243636D02*
G01*
X11063376Y-243636D01*
X11061344Y-239318D01*
X11053572Y-227025D01*
X11044326Y-215849D01*
X11033709Y-205892D01*
X11021974Y-197358D01*
X11011357Y-191566D01*
G37*
G36*
X8461349Y-243636D02*
G01*
X8513419Y-243636D01*
X8511336Y-239318D01*
X8503564Y-227025D01*
X8494318Y-215849D01*
X8483701Y-205892D01*
X8471966Y-197358D01*
X8461349Y-191566D01*
G37*
G36*
X13561364Y-243636D02*
G01*
X13613384Y-243636D01*
X13611351Y-239318D01*
X13603579Y-227025D01*
X13594283Y-215849D01*
X13583716Y-205892D01*
X13571982Y-197358D01*
X13561364Y-191566D01*
G37*
G36*
X10856620Y-243636D02*
G01*
X10908639Y-243636D01*
X10908639Y-191566D01*
X10898073Y-197358D01*
X10886287Y-205892D01*
X10875721Y-215849D01*
X10866475Y-227025D01*
X10858703Y-239318D01*
G37*
G36*
X13406628Y-243636D02*
G01*
X13458647Y-243636D01*
X13458647Y-191566D01*
X13448030Y-197358D01*
X13436295Y-205892D01*
X13425728Y-215849D01*
X13416483Y-227025D01*
X13408660Y-239318D01*
G37*
G36*
X8306612Y-243636D02*
G01*
X8358682Y-243636D01*
X8358682Y-191566D01*
X8348065Y-197358D01*
X8336330Y-205892D01*
X8325713Y-215849D01*
X8316468Y-227025D01*
X8308695Y-239318D01*
G37*
G36*
X5914745Y-239674D02*
G01*
X5966815Y-239674D01*
X5964732Y-235305D01*
X5956960Y-223062D01*
X5947714Y-211836D01*
X5937097Y-201930D01*
X5925362Y-193395D01*
X5914745Y-187553D01*
G37*
G36*
X2854045Y-239674D02*
G01*
X2906115Y-239674D01*
X2904032Y-235305D01*
X2896260Y-223062D01*
X2887014Y-211836D01*
X2876397Y-201930D01*
X2864662Y-193395D01*
X2854045Y-187553D01*
G37*
G36*
X2699308Y-239674D02*
G01*
X2751378Y-239674D01*
X2751378Y-187553D01*
X2740761Y-193395D01*
X2729026Y-201930D01*
X2718409Y-211836D01*
X2709164Y-223062D01*
X2701391Y-235305D01*
G37*
G36*
X5760008Y-239674D02*
G01*
X5812078Y-239674D01*
X5812078Y-187553D01*
X5801461Y-193395D01*
X5789726Y-201930D01*
X5779109Y-211836D01*
X5769864Y-223062D01*
X5762091Y-235305D01*
G37*

%LPD*%
G36*
X13087654Y-1853946D02*
G01*
X13083540Y-1853082D01*
X13080085Y-1850593D01*
X13078002Y-1846935D01*
X13077545Y-1842719D01*
X13078866Y-1838706D01*
X13081711Y-1835556D01*
X13083743Y-1834083D01*
X13094309Y-1824126D01*
X13103555Y-1812950D01*
X13111327Y-1800707D01*
X13117525Y-1787550D01*
X13121995Y-1773732D01*
X13124738Y-1759508D01*
X13125653Y-1744980D01*
X13124738Y-1730502D01*
X13121995Y-1716227D01*
X13117525Y-1702409D01*
X13111327Y-1689303D01*
X13105180Y-1679549D01*
X13103707Y-1675536D01*
X13104012Y-1671218D01*
X13106095Y-1667459D01*
X13109549Y-1664868D01*
X13113766Y-1663954D01*
X13156285Y-1663954D01*
X13160451Y-1664868D01*
X13163905Y-1667459D01*
X13165988Y-1671218D01*
X13166344Y-1675536D01*
X13164819Y-1679549D01*
X13158673Y-1689303D01*
X13156641Y-1693621D01*
X13208660Y-1693621D01*
X13208660Y-1674114D01*
X13209422Y-1670202D01*
X13211606Y-1666951D01*
X13214908Y-1664716D01*
X13218820Y-1663954D01*
X13301167Y-1663954D01*
X13305078Y-1664716D01*
X13308380Y-1666951D01*
X13310565Y-1670202D01*
X13311327Y-1674114D01*
X13311327Y-1693621D01*
X13363397Y-1693621D01*
X13361314Y-1689303D01*
X13355167Y-1679549D01*
X13353694Y-1675536D01*
X13353999Y-1671218D01*
X13356082Y-1667459D01*
X13359536Y-1664868D01*
X13363752Y-1663954D01*
X13406272Y-1663954D01*
X13410488Y-1664868D01*
X13413943Y-1667459D01*
X13416026Y-1671218D01*
X13416330Y-1675536D01*
X13414857Y-1679549D01*
X13408660Y-1689303D01*
X13402513Y-1702409D01*
X13397992Y-1716227D01*
X13395299Y-1730502D01*
X13394385Y-1744980D01*
X13395299Y-1759508D01*
X13397992Y-1773732D01*
X13402513Y-1787550D01*
X13408660Y-1800707D01*
X13416483Y-1812950D01*
X13425728Y-1824126D01*
X13436295Y-1834083D01*
X13438327Y-1835556D01*
X13441172Y-1838706D01*
X13442492Y-1842719D01*
X13442035Y-1846935D01*
X13439901Y-1850593D01*
X13436498Y-1853082D01*
X13432383Y-1853946D01*
X13337641Y-1853946D01*
X13333526Y-1853082D01*
X13330072Y-1850593D01*
X13327989Y-1846935D01*
X13327532Y-1842719D01*
X13328853Y-1838706D01*
X13331698Y-1835556D01*
X13333730Y-1834083D01*
X13344296Y-1824126D01*
X13353542Y-1812950D01*
X13361314Y-1800707D01*
X13363397Y-1796338D01*
X13311327Y-1796338D01*
X13311327Y-1843786D01*
X13310565Y-1847697D01*
X13308380Y-1850948D01*
X13305078Y-1853184D01*
X13301167Y-1853946D01*
X13218820Y-1853946D01*
X13214908Y-1853184D01*
X13211606Y-1850948D01*
X13209422Y-1847697D01*
X13208660Y-1843786D01*
X13208660Y-1796338D01*
X13156641Y-1796338D01*
X13158673Y-1800707D01*
X13166445Y-1812950D01*
X13175691Y-1824126D01*
X13186308Y-1834083D01*
X13188340Y-1835556D01*
X13191134Y-1838706D01*
X13192455Y-1842719D01*
X13191998Y-1846935D01*
X13189915Y-1850593D01*
X13186460Y-1853082D01*
X13182346Y-1853946D01*
G37*

%LPD*%
D10*
X15074900Y-1651000D02*
G01*
X15074900Y-1663700D01*
X15049500Y-1689100D01*
X13919200Y-1689100D01*
X14947900Y-1549400D02*
G01*
X14871700Y-1625600D01*
X12141200Y-1625600D01*
X12115800Y-1651000D01*
X14744700Y-1460500D02*
G01*
X14681200Y-1524000D01*
X11887200Y-1524000D01*
X11887200Y-1536700D01*
X14528800Y-1270000D02*
G01*
X14427200Y-1371600D01*
X9398000Y-1371600D01*
X9359900Y-1409700D01*
X14655800Y-1397000D02*
G01*
X14579600Y-1473200D01*
X9563100Y-1473200D01*
X9550400Y-1485900D01*
X14478000Y-1206500D02*
G01*
X14363700Y-1320800D01*
X13665200Y-1320800D01*
X13220700Y-1320800D01*
X14592300Y-1333500D02*
G01*
X14503400Y-1422400D01*
X9525000Y-1422400D01*
X9474200Y-1473200D01*
X8915400Y-1473200D01*
X8851900Y-1409700D01*
X14478000Y-1206500D02*
G01*
X14363700Y-1320800D01*
X7137400Y-1320800D01*
X7086600Y-1371600D01*
X14782800Y-1536700D02*
G01*
X14744700Y-1574800D01*
X12026900Y-1574800D01*
X11950700Y-1651000D01*
X11391900Y-1651000D01*
X14541500Y-1130300D02*
G01*
X14439900Y-1130300D01*
X14325600Y-1244600D01*
X6477000Y-1244600D01*
X6311900Y-1409700D01*
X14554200Y-800100D02*
G01*
X14516100Y-762000D01*
X6870700Y-762000D01*
X6756400Y-876300D01*
X6756400Y-1117600D01*
X14643100Y-774700D02*
G01*
X14579600Y-711200D01*
X4737100Y-711200D01*
X4635500Y-812800D01*
X4635500Y-1016000D01*
X14833600Y-584200D02*
G01*
X14808200Y-558800D01*
X1676400Y-558800D01*
X1574800Y-660400D01*
X14770100Y-647700D02*
G01*
X14732000Y-609600D01*
X3911600Y-609600D01*
X3784600Y-736600D01*
X16446500Y-1092200D02*
G01*
X16421100Y-1092200D01*
X16243300Y-914400D01*
X15684500Y-914400D01*
X16700500Y-1092200D02*
G01*
X16471900Y-863600D01*
X16395700Y-787400D01*
X15544800Y-787400D01*
D11*
X15216124Y-1659582D02*
G01*
X17047463Y-1659636D01*
X17119600Y-1587500D01*
X17119600Y-1257300D01*
X16954500Y-1092200D01*
D10*
X14706600Y-711200D02*
G01*
X14655800Y-660400D01*
X3962400Y-660400D01*
X3797300Y-825500D01*
X3441700Y-825500D01*
X3314700Y-952500D01*
X3314700Y-1409700D01*
X317500Y-1892300D02*
G01*
X13551154Y-1892300D01*
X13690854Y-1752600D01*
X15113000Y-1752600D01*
X15151100Y-1714500D01*
D18*
G01*
X2302713Y-291007D03*
G01*
X2802712Y-291007D03*
G01*
X2302713Y-1740992D03*
G01*
X2552700Y-1740992D03*
G01*
X2802712Y-1740992D03*
G01*
X5363413Y-291007D03*
G01*
X5863412Y-291007D03*
G01*
X5363413Y-1740992D03*
G01*
X5613400Y-1740992D03*
G01*
X5863412Y-1740992D03*
G01*
X7910017Y-295020D03*
G01*
X8410016Y-295020D03*
G01*
X7910017Y-1745005D03*
G01*
X8160004Y-1745005D03*
G01*
X8410016Y-1745005D03*
G01*
X10460024Y-295020D03*
G01*
X10960023Y-295020D03*
G01*
X10460024Y-1745005D03*
G01*
X10710011Y-1745005D03*
G01*
X10960023Y-1745005D03*
G01*
X13010006Y-295020D03*
G01*
X13510006Y-295020D03*
G01*
X13010006Y-1745005D03*
G01*
X13259993Y-1745005D03*
G01*
X13510006Y-1745005D03*
D19*
G01*
X16446500Y-1092200D03*
G01*
X15938500Y-1092200D03*
G01*
X15938500Y-1346200D03*
G01*
X16192500Y-1092200D03*
G01*
X16192500Y-1346200D03*
G01*
X16446500Y-1346200D03*
G01*
X16700500Y-1092200D03*
G01*
X16700500Y-1346200D03*
G01*
X16954500Y-1092200D03*
G36*
X17039501Y-1267460D02*
G01*
X16869498Y-1267460D01*
X16869498Y-1424939D01*
X17039501Y-1424939D01*
G37*
D14*
G01*
X11887200Y-1536700D03*
G01*
X8851900Y-1409700D03*
G01*
X9550400Y-1485900D03*
G01*
X14592300Y-1333500D03*
G01*
X14655800Y-1397000D03*
G01*
X14744700Y-1460500D03*
G01*
X11391900Y-1651000D03*
G01*
X14782800Y-1536700D03*
G01*
X15216124Y-1659585D03*
G01*
X12115800Y-1651000D03*
G01*
X14947900Y-1549400D03*
G01*
X15074900Y-1651000D03*
G01*
X15151100Y-1714500D03*
G01*
X317500Y-1892300D03*
G01*
X14528800Y-1270000D03*
G01*
X14478000Y-1206500D03*
G01*
X9359900Y-1409700D03*
G01*
X13919200Y-1689100D03*
G01*
X7086600Y-1371600D03*
G01*
X14541500Y-1130300D03*
G01*
X6311900Y-1409700D03*
G01*
X14554200Y-800100D03*
G01*
X6756400Y-1117600D03*
G01*
X14643100Y-774700D03*
G01*
X4635500Y-1016000D03*
G01*
X14706600Y-711200D03*
G01*
X3314700Y-1409700D03*
G01*
X14770100Y-647700D03*
G01*
X3784600Y-736600D03*
G01*
X14833600Y-584200D03*
G01*
X1574800Y-660400D03*
G01*
X15684500Y-914400D03*
G01*
X15544800Y-787400D03*
D21*
X1982698Y-921006D02*
G01*
X1982698Y-1061006D01*
X3122701Y-921006D02*
G01*
X3122701Y-1061006D01*
X5043398Y-921006D02*
G01*
X5043398Y-1061006D01*
X6183401Y-921006D02*
G01*
X6183401Y-1061006D01*
X7590002Y-925019D02*
G01*
X7590002Y-1065019D01*
X8730005Y-925019D02*
G01*
X8730005Y-1065019D01*
X10140010Y-925019D02*
G01*
X10140010Y-1065019D01*
X11280013Y-925019D02*
G01*
X11280013Y-1065019D01*
X12689992Y-925019D02*
G01*
X12689992Y-1065019D01*
X13829995Y-925019D02*
G01*
X13829995Y-1065019D01*
M02*
