G04 Layer: TopLayer*
G04 EasyEDA v6.4.19.5, 2021-06-03T13:00:10+02:00*
G04 3a470d2b41ee429cb137c5c572919131,563db0ff5b334ec4995e7372edb549dc,10*
G04 Gerber Generator version 0.2*
G04 Scale: 100 percent, Rotated: No, Reflected: No *
G04 Dimensions in millimeters *
G04 leading zeros omitted , absolute positions ,4 integer and 5 decimal *
%FSLAX45Y45*%
%MOMM*%

%ADD10C,0.2540*%
%ADD11C,0.3050*%
%ADD12C,0.6000*%
%ADD13C,0.8000*%
%ADD14C,0.6110*%
%ADD17R,1.1000X1.0000*%
%ADD18R,1.4000X1.2000*%
%ADD19R,2.0000X2.0000*%
%ADD21R,0.5500X1.0000*%
%ADD22C,1.6000*%
%ADD23C,2.5000*%
%ADD24C,1.5240*%
%ADD25C,1.4000*%
%ADD26C,1.0000*%
%ADD27R,3.0000X2.0000*%
%ADD28R,1.8000X1.8000*%
%ADD29C,1.8000*%
%ADD30R,1.5748X1.5748*%
%ADD31C,1.5748*%

%LPD*%
G36*
X1686814Y8052053D02*
G01*
X1682902Y8052816D01*
X1679651Y8055051D01*
X1677416Y8058302D01*
X1676654Y8062214D01*
X1676654Y13222986D01*
X1677416Y13226897D01*
X1679651Y13230148D01*
X1682902Y13232384D01*
X1686814Y13233146D01*
X2683357Y13233146D01*
X2687116Y13232434D01*
X2690368Y13230351D01*
X2692603Y13227202D01*
X2693517Y13223443D01*
X2692958Y13219633D01*
X2691333Y13215112D01*
X2690622Y13208812D01*
X2690622Y13009981D01*
X2691333Y13003682D01*
X2693263Y12998297D01*
X2696311Y12993420D01*
X2700324Y12989407D01*
X2705201Y12986359D01*
X2710586Y12984429D01*
X2716885Y12983768D01*
X3015742Y12983768D01*
X3021990Y12984429D01*
X3027426Y12986359D01*
X3032252Y12989407D01*
X3036316Y12993420D01*
X3039364Y12998297D01*
X3041243Y13003682D01*
X3041954Y13009981D01*
X3041954Y13208812D01*
X3041243Y13215112D01*
X3039668Y13219633D01*
X3039110Y13223443D01*
X3040024Y13227202D01*
X3042208Y13230351D01*
X3045460Y13232434D01*
X3049270Y13233146D01*
X3683355Y13233146D01*
X3687114Y13232434D01*
X3690365Y13230351D01*
X3692601Y13227202D01*
X3693515Y13223443D01*
X3692956Y13219633D01*
X3691331Y13215112D01*
X3690670Y13208812D01*
X3690670Y13009981D01*
X3691331Y13003682D01*
X3693261Y12998297D01*
X3696309Y12993420D01*
X3700322Y12989407D01*
X3705199Y12986359D01*
X3710584Y12984429D01*
X3716883Y12983768D01*
X4015740Y12983768D01*
X4021988Y12984429D01*
X4027424Y12986359D01*
X4032250Y12989407D01*
X4036314Y12993420D01*
X4039362Y12998297D01*
X4041241Y13003682D01*
X4041952Y13009981D01*
X4041952Y13208812D01*
X4041241Y13215112D01*
X4039666Y13219633D01*
X4039108Y13223443D01*
X4040022Y13227202D01*
X4042206Y13230351D01*
X4045458Y13232434D01*
X4049268Y13233146D01*
X4850841Y13233146D01*
X4854651Y13232434D01*
X4857851Y13230351D01*
X4860086Y13227202D01*
X4861001Y13223443D01*
X4860442Y13219633D01*
X4858867Y13215112D01*
X4858156Y13208812D01*
X4858156Y13009981D01*
X4858867Y13003682D01*
X4860747Y12998297D01*
X4863795Y12993420D01*
X4867859Y12989407D01*
X4872685Y12986359D01*
X4878120Y12984429D01*
X4884369Y12983768D01*
X5183225Y12983768D01*
X5189474Y12984429D01*
X5194909Y12986359D01*
X5199735Y12989407D01*
X5203799Y12993420D01*
X5206847Y12998297D01*
X5208727Y13003682D01*
X5209438Y13009981D01*
X5209438Y13208812D01*
X5208727Y13215112D01*
X5207152Y13219633D01*
X5206593Y13223443D01*
X5207508Y13227202D01*
X5209743Y13230351D01*
X5212943Y13232434D01*
X5216753Y13233146D01*
X5850839Y13233146D01*
X5854649Y13232434D01*
X5857849Y13230351D01*
X5860084Y13227202D01*
X5860999Y13223443D01*
X5860440Y13219633D01*
X5858865Y13215112D01*
X5858154Y13208812D01*
X5858154Y13009981D01*
X5858865Y13003682D01*
X5860745Y12998297D01*
X5863793Y12993420D01*
X5867857Y12989407D01*
X5872683Y12986359D01*
X5878118Y12984429D01*
X5884367Y12983768D01*
X6183223Y12983768D01*
X6189472Y12984429D01*
X6194907Y12986359D01*
X6199733Y12989407D01*
X6203797Y12993420D01*
X6206845Y12998297D01*
X6208725Y13003682D01*
X6209436Y13009981D01*
X6209436Y13208812D01*
X6208725Y13215112D01*
X6207150Y13219633D01*
X6206591Y13223443D01*
X6207506Y13227202D01*
X6209741Y13230351D01*
X6212941Y13232434D01*
X6216751Y13233146D01*
X7018375Y13233146D01*
X7022134Y13232434D01*
X7025386Y13230351D01*
X7027621Y13227202D01*
X7028484Y13223443D01*
X7027925Y13219633D01*
X7026351Y13215112D01*
X7025640Y13208812D01*
X7025640Y13009981D01*
X7026351Y13003682D01*
X7028230Y12998297D01*
X7031278Y12993420D01*
X7035342Y12989407D01*
X7040219Y12986359D01*
X7045604Y12984429D01*
X7051852Y12983768D01*
X7350709Y12983768D01*
X7357008Y12984429D01*
X7362393Y12986359D01*
X7367270Y12989407D01*
X7371283Y12993420D01*
X7374381Y12998297D01*
X7376261Y13003682D01*
X7376972Y13009981D01*
X7376972Y13208812D01*
X7376261Y13215112D01*
X7374686Y13219633D01*
X7374077Y13223443D01*
X7374991Y13227202D01*
X7377226Y13230351D01*
X7380478Y13232434D01*
X7384237Y13233146D01*
X8018373Y13233146D01*
X8022132Y13232434D01*
X8025384Y13230351D01*
X8027619Y13227202D01*
X8028482Y13223443D01*
X8027924Y13219633D01*
X8026349Y13215112D01*
X8025638Y13208812D01*
X8025638Y13009981D01*
X8026349Y13003682D01*
X8028228Y12998297D01*
X8031276Y12993420D01*
X8035340Y12989407D01*
X8040217Y12986359D01*
X8045602Y12984429D01*
X8051850Y12983768D01*
X8350707Y12983768D01*
X8357006Y12984429D01*
X8362391Y12986359D01*
X8367268Y12989407D01*
X8371281Y12993420D01*
X8374380Y12998297D01*
X8376259Y13003682D01*
X8376970Y13009981D01*
X8376970Y13208812D01*
X8376259Y13215112D01*
X8374684Y13219633D01*
X8374075Y13223443D01*
X8374989Y13227202D01*
X8377224Y13230351D01*
X8380475Y13232434D01*
X8384235Y13233146D01*
X13222986Y13233146D01*
X13226846Y13232384D01*
X13230148Y13230148D01*
X13232384Y13226897D01*
X13233146Y13222986D01*
X13233146Y8062214D01*
X13232384Y8058302D01*
X13230148Y8055051D01*
X13226846Y8052816D01*
X13222986Y8052053D01*
G37*

%LPC*%
G36*
X12750241Y8107476D02*
G01*
X12751358Y8107476D01*
X12826238Y8117535D01*
X12871246Y8132673D01*
X12931140Y8167674D01*
X12961112Y8192770D01*
X13001040Y8242757D01*
X13025983Y8287918D01*
X13045846Y8352942D01*
X13050723Y8407857D01*
X13045643Y8462873D01*
X13025526Y8527897D01*
X12990525Y8587740D01*
X12960400Y8622741D01*
X12915442Y8657590D01*
X12870332Y8682532D01*
X12825323Y8697468D01*
X12751460Y8707272D01*
X12750139Y8707272D01*
X12675362Y8697264D01*
X12630404Y8682177D01*
X12585496Y8657132D01*
X12541250Y8622792D01*
X12501067Y8572754D01*
X12475616Y8526881D01*
X12455753Y8461857D01*
X12450876Y8406942D01*
X12455956Y8351926D01*
X12475616Y8287918D01*
X12501168Y8241995D01*
X12540996Y8197138D01*
X12586309Y8157108D01*
X12631318Y8132216D01*
X12696342Y8112353D01*
G37*
G36*
X2039416Y8115096D02*
G01*
X2040585Y8115096D01*
X2115464Y8125155D01*
X2160422Y8140242D01*
X2220315Y8175244D01*
X2250338Y8200390D01*
X2290216Y8250377D01*
X2314752Y8294522D01*
X2334818Y8359495D01*
X2339949Y8414562D01*
X2335022Y8469477D01*
X2314702Y8535517D01*
X2279700Y8595360D01*
X2249627Y8630310D01*
X2204669Y8665159D01*
X2159558Y8690152D01*
X2114550Y8705037D01*
X2040686Y8714892D01*
X2039315Y8714892D01*
X1964537Y8704834D01*
X1919579Y8689797D01*
X1874672Y8664752D01*
X1829612Y8629548D01*
X1789785Y8579612D01*
X1764842Y8534501D01*
X1744980Y8469477D01*
X1740052Y8414562D01*
X1745183Y8359495D01*
X1765249Y8294522D01*
X1789734Y8250478D01*
X1829765Y8205165D01*
X1874570Y8165338D01*
X1919528Y8140242D01*
X1984502Y8120176D01*
G37*
G36*
X6549796Y8191347D02*
G01*
X6563410Y8191804D01*
X6576822Y8194040D01*
X6589775Y8198053D01*
X6602120Y8203793D01*
X6613601Y8211108D01*
X6624015Y8219897D01*
X6633108Y8230006D01*
X6640830Y8241182D01*
X6646925Y8253323D01*
X6651396Y8266175D01*
X6654139Y8279536D01*
X6655053Y8293100D01*
X6654139Y8306663D01*
X6651396Y8320024D01*
X6646925Y8332876D01*
X6640830Y8345017D01*
X6633108Y8356193D01*
X6624015Y8366302D01*
X6613601Y8375091D01*
X6602120Y8382406D01*
X6589775Y8388146D01*
X6576822Y8392160D01*
X6563410Y8394395D01*
X6549796Y8394852D01*
X6536283Y8393531D01*
X6523024Y8390382D01*
X6510324Y8385454D01*
X6498386Y8378952D01*
X6487464Y8370874D01*
X6477660Y8361425D01*
X6469227Y8350707D01*
X6462318Y8339023D01*
X6456984Y8326526D01*
X6453428Y8313369D01*
X6451600Y8299907D01*
X6451600Y8286292D01*
X6453428Y8272830D01*
X6456984Y8259673D01*
X6462318Y8247176D01*
X6469227Y8235492D01*
X6477660Y8224774D01*
X6487464Y8215325D01*
X6498386Y8207248D01*
X6510324Y8200745D01*
X6523024Y8195818D01*
X6536283Y8192668D01*
G37*
G36*
X3247796Y8191347D02*
G01*
X3261410Y8191804D01*
X3274822Y8194040D01*
X3287776Y8198053D01*
X3300120Y8203793D01*
X3311601Y8211108D01*
X3322015Y8219897D01*
X3331108Y8230006D01*
X3338829Y8241182D01*
X3344926Y8253323D01*
X3349396Y8266175D01*
X3352139Y8279536D01*
X3353054Y8293100D01*
X3352139Y8306663D01*
X3349396Y8320024D01*
X3344926Y8332876D01*
X3338829Y8345017D01*
X3331108Y8356193D01*
X3322015Y8366302D01*
X3311601Y8375091D01*
X3300120Y8382406D01*
X3287776Y8388146D01*
X3274822Y8392160D01*
X3261410Y8394395D01*
X3247796Y8394852D01*
X3234283Y8393531D01*
X3221024Y8390382D01*
X3208324Y8385454D01*
X3196386Y8378952D01*
X3185464Y8370874D01*
X3175660Y8361425D01*
X3167227Y8350707D01*
X3160318Y8339023D01*
X3154984Y8326526D01*
X3151428Y8313369D01*
X3149600Y8299907D01*
X3149600Y8286292D01*
X3151428Y8272830D01*
X3154984Y8259673D01*
X3160318Y8247176D01*
X3167227Y8235492D01*
X3175660Y8224774D01*
X3185464Y8215325D01*
X3196386Y8207248D01*
X3208324Y8200745D01*
X3221024Y8195818D01*
X3234283Y8192668D01*
G37*
G36*
X4009796Y8191347D02*
G01*
X4023410Y8191804D01*
X4036822Y8194040D01*
X4049776Y8198053D01*
X4062120Y8203793D01*
X4073601Y8211108D01*
X4084015Y8219897D01*
X4093108Y8230006D01*
X4100829Y8241182D01*
X4106926Y8253323D01*
X4111396Y8266175D01*
X4114139Y8279536D01*
X4115054Y8293100D01*
X4114139Y8306663D01*
X4111396Y8320024D01*
X4106926Y8332876D01*
X4100829Y8345017D01*
X4093108Y8356193D01*
X4084015Y8366302D01*
X4073601Y8375091D01*
X4062120Y8382406D01*
X4049776Y8388146D01*
X4036822Y8392160D01*
X4023410Y8394395D01*
X4009796Y8394852D01*
X3996283Y8393531D01*
X3983024Y8390382D01*
X3970324Y8385454D01*
X3958386Y8378952D01*
X3947464Y8370874D01*
X3937660Y8361425D01*
X3929227Y8350707D01*
X3922318Y8339023D01*
X3916984Y8326526D01*
X3913428Y8313369D01*
X3911600Y8299907D01*
X3911600Y8286292D01*
X3913428Y8272830D01*
X3916984Y8259673D01*
X3922318Y8247176D01*
X3929227Y8235492D01*
X3937660Y8224774D01*
X3947464Y8215325D01*
X3958386Y8207248D01*
X3970324Y8200745D01*
X3983024Y8195818D01*
X3996283Y8192668D01*
G37*
G36*
X5787796Y8191347D02*
G01*
X5801410Y8191804D01*
X5814822Y8194040D01*
X5827776Y8198053D01*
X5840120Y8203793D01*
X5851601Y8211108D01*
X5862015Y8219897D01*
X5871108Y8230006D01*
X5878830Y8241182D01*
X5884926Y8253323D01*
X5889396Y8266175D01*
X5892139Y8279536D01*
X5893054Y8293100D01*
X5892139Y8306663D01*
X5889396Y8320024D01*
X5884926Y8332876D01*
X5878830Y8345017D01*
X5871108Y8356193D01*
X5862015Y8366302D01*
X5851601Y8375091D01*
X5840120Y8382406D01*
X5827776Y8388146D01*
X5814822Y8392160D01*
X5801410Y8394395D01*
X5787796Y8394852D01*
X5774283Y8393531D01*
X5761024Y8390382D01*
X5748324Y8385454D01*
X5736386Y8378952D01*
X5725464Y8370874D01*
X5715660Y8361425D01*
X5707227Y8350707D01*
X5700318Y8339023D01*
X5694984Y8326526D01*
X5691428Y8313369D01*
X5689600Y8299907D01*
X5689600Y8286292D01*
X5691428Y8272830D01*
X5694984Y8259673D01*
X5700318Y8247176D01*
X5707227Y8235492D01*
X5715660Y8224774D01*
X5725464Y8215325D01*
X5736386Y8207248D01*
X5748324Y8200745D01*
X5761024Y8195818D01*
X5774283Y8192668D01*
G37*
G36*
X4517796Y8191347D02*
G01*
X4531410Y8191804D01*
X4544822Y8194040D01*
X4557776Y8198053D01*
X4570120Y8203793D01*
X4581601Y8211108D01*
X4592015Y8219897D01*
X4601108Y8230006D01*
X4608830Y8241182D01*
X4614926Y8253323D01*
X4619396Y8266175D01*
X4622139Y8279536D01*
X4623054Y8293100D01*
X4622139Y8306663D01*
X4619396Y8320024D01*
X4614926Y8332876D01*
X4608830Y8345017D01*
X4601108Y8356193D01*
X4592015Y8366302D01*
X4581601Y8375091D01*
X4570120Y8382406D01*
X4557776Y8388146D01*
X4544822Y8392160D01*
X4531410Y8394395D01*
X4517796Y8394852D01*
X4504283Y8393531D01*
X4491024Y8390382D01*
X4478324Y8385454D01*
X4466386Y8378952D01*
X4455464Y8370874D01*
X4445660Y8361425D01*
X4437227Y8350707D01*
X4430318Y8339023D01*
X4424984Y8326526D01*
X4421428Y8313369D01*
X4419600Y8299907D01*
X4419600Y8286292D01*
X4421428Y8272830D01*
X4424984Y8259673D01*
X4430318Y8247176D01*
X4437227Y8235492D01*
X4445660Y8224774D01*
X4455464Y8215325D01*
X4466386Y8207248D01*
X4478324Y8200745D01*
X4491024Y8195818D01*
X4504283Y8192668D01*
G37*
G36*
X3501796Y8191347D02*
G01*
X3515410Y8191804D01*
X3528822Y8194040D01*
X3541776Y8198053D01*
X3554120Y8203793D01*
X3565601Y8211108D01*
X3576015Y8219897D01*
X3585108Y8230006D01*
X3592829Y8241182D01*
X3598926Y8253323D01*
X3603396Y8266175D01*
X3606139Y8279536D01*
X3607054Y8293100D01*
X3606139Y8306663D01*
X3603396Y8320024D01*
X3598926Y8332876D01*
X3592829Y8345017D01*
X3585108Y8356193D01*
X3576015Y8366302D01*
X3565601Y8375091D01*
X3554120Y8382406D01*
X3541776Y8388146D01*
X3528822Y8392160D01*
X3515410Y8394395D01*
X3501796Y8394852D01*
X3488283Y8393531D01*
X3475024Y8390382D01*
X3462324Y8385454D01*
X3450386Y8378952D01*
X3439464Y8370874D01*
X3429660Y8361425D01*
X3421227Y8350707D01*
X3414318Y8339023D01*
X3408984Y8326526D01*
X3405428Y8313369D01*
X3403600Y8299907D01*
X3403600Y8286292D01*
X3405428Y8272830D01*
X3408984Y8259673D01*
X3414318Y8247176D01*
X3421227Y8235492D01*
X3429660Y8224774D01*
X3439464Y8215325D01*
X3450386Y8207248D01*
X3462324Y8200745D01*
X3475024Y8195818D01*
X3488283Y8192668D01*
G37*
G36*
X6295796Y8191347D02*
G01*
X6309410Y8191804D01*
X6322822Y8194040D01*
X6335776Y8198053D01*
X6348120Y8203793D01*
X6359601Y8211108D01*
X6370015Y8219897D01*
X6379108Y8230006D01*
X6386830Y8241182D01*
X6392926Y8253323D01*
X6397396Y8266175D01*
X6400139Y8279536D01*
X6401054Y8293100D01*
X6400139Y8306663D01*
X6397396Y8320024D01*
X6392926Y8332876D01*
X6386830Y8345017D01*
X6379108Y8356193D01*
X6370015Y8366302D01*
X6359601Y8375091D01*
X6348120Y8382406D01*
X6335776Y8388146D01*
X6322822Y8392160D01*
X6309410Y8394395D01*
X6295796Y8394852D01*
X6282283Y8393531D01*
X6269024Y8390382D01*
X6256324Y8385454D01*
X6244386Y8378952D01*
X6233464Y8370874D01*
X6223660Y8361425D01*
X6215227Y8350707D01*
X6208318Y8339023D01*
X6202984Y8326526D01*
X6199428Y8313369D01*
X6197600Y8299907D01*
X6197600Y8286292D01*
X6199428Y8272830D01*
X6202984Y8259673D01*
X6208318Y8247176D01*
X6215227Y8235492D01*
X6223660Y8224774D01*
X6233464Y8215325D01*
X6244386Y8207248D01*
X6256324Y8200745D01*
X6269024Y8195818D01*
X6282283Y8192668D01*
G37*
G36*
X3755796Y8191347D02*
G01*
X3769410Y8191804D01*
X3782822Y8194040D01*
X3795776Y8198053D01*
X3808120Y8203793D01*
X3819601Y8211108D01*
X3830015Y8219897D01*
X3839108Y8230006D01*
X3846829Y8241182D01*
X3852926Y8253323D01*
X3857396Y8266175D01*
X3860139Y8279536D01*
X3861054Y8293100D01*
X3860139Y8306663D01*
X3857396Y8320024D01*
X3852926Y8332876D01*
X3846829Y8345017D01*
X3839108Y8356193D01*
X3830015Y8366302D01*
X3819601Y8375091D01*
X3808120Y8382406D01*
X3795776Y8388146D01*
X3782822Y8392160D01*
X3769410Y8394395D01*
X3755796Y8394852D01*
X3742283Y8393531D01*
X3729024Y8390382D01*
X3716324Y8385454D01*
X3704386Y8378952D01*
X3693464Y8370874D01*
X3683660Y8361425D01*
X3675227Y8350707D01*
X3668318Y8339023D01*
X3662984Y8326526D01*
X3659428Y8313369D01*
X3657600Y8299907D01*
X3657600Y8286292D01*
X3659428Y8272830D01*
X3662984Y8259673D01*
X3668318Y8247176D01*
X3675227Y8235492D01*
X3683660Y8224774D01*
X3693464Y8215325D01*
X3704386Y8207248D01*
X3716324Y8200745D01*
X3729024Y8195818D01*
X3742283Y8192668D01*
G37*
G36*
X2739796Y8191347D02*
G01*
X2753410Y8191804D01*
X2766822Y8194040D01*
X2779776Y8198053D01*
X2792120Y8203793D01*
X2803601Y8211108D01*
X2814015Y8219897D01*
X2823108Y8230006D01*
X2830830Y8241182D01*
X2836926Y8253323D01*
X2841396Y8266175D01*
X2844139Y8279536D01*
X2845054Y8293100D01*
X2844139Y8306663D01*
X2841396Y8320024D01*
X2836926Y8332876D01*
X2830830Y8345017D01*
X2823108Y8356193D01*
X2814015Y8366302D01*
X2803601Y8375091D01*
X2792120Y8382406D01*
X2779776Y8388146D01*
X2766822Y8392160D01*
X2753410Y8394395D01*
X2739796Y8394852D01*
X2726283Y8393531D01*
X2713024Y8390382D01*
X2700324Y8385454D01*
X2688386Y8378952D01*
X2677464Y8370874D01*
X2667660Y8361425D01*
X2659227Y8350707D01*
X2652318Y8339023D01*
X2646984Y8326526D01*
X2643428Y8313369D01*
X2641600Y8299907D01*
X2641600Y8286292D01*
X2643428Y8272830D01*
X2646984Y8259673D01*
X2652318Y8247176D01*
X2659227Y8235492D01*
X2667660Y8224774D01*
X2677464Y8215325D01*
X2688386Y8207248D01*
X2700324Y8200745D01*
X2713024Y8195818D01*
X2726283Y8192668D01*
G37*
G36*
X6041796Y8191347D02*
G01*
X6055410Y8191804D01*
X6068822Y8194040D01*
X6081776Y8198053D01*
X6094120Y8203793D01*
X6105601Y8211108D01*
X6116015Y8219897D01*
X6125108Y8230006D01*
X6132830Y8241182D01*
X6138926Y8253323D01*
X6143396Y8266175D01*
X6146139Y8279536D01*
X6147054Y8293100D01*
X6146139Y8306663D01*
X6143396Y8320024D01*
X6138926Y8332876D01*
X6132830Y8345017D01*
X6125108Y8356193D01*
X6116015Y8366302D01*
X6105601Y8375091D01*
X6094120Y8382406D01*
X6081776Y8388146D01*
X6068822Y8392160D01*
X6055410Y8394395D01*
X6041796Y8394852D01*
X6028283Y8393531D01*
X6015024Y8390382D01*
X6002324Y8385454D01*
X5990386Y8378952D01*
X5979464Y8370874D01*
X5969660Y8361425D01*
X5961227Y8350707D01*
X5954318Y8339023D01*
X5948984Y8326526D01*
X5945428Y8313369D01*
X5943600Y8299907D01*
X5943600Y8286292D01*
X5945428Y8272830D01*
X5948984Y8259673D01*
X5954318Y8247176D01*
X5961227Y8235492D01*
X5969660Y8224774D01*
X5979464Y8215325D01*
X5990386Y8207248D01*
X6002324Y8200745D01*
X6015024Y8195818D01*
X6028283Y8192668D01*
G37*
G36*
X5279796Y8191347D02*
G01*
X5293410Y8191804D01*
X5306822Y8194040D01*
X5319776Y8198053D01*
X5332120Y8203793D01*
X5343601Y8211108D01*
X5354015Y8219897D01*
X5363108Y8230006D01*
X5370830Y8241182D01*
X5376926Y8253323D01*
X5381396Y8266175D01*
X5384139Y8279536D01*
X5385054Y8293100D01*
X5384139Y8306663D01*
X5381396Y8320024D01*
X5376926Y8332876D01*
X5370830Y8345017D01*
X5363108Y8356193D01*
X5354015Y8366302D01*
X5343601Y8375091D01*
X5332120Y8382406D01*
X5319776Y8388146D01*
X5306822Y8392160D01*
X5293410Y8394395D01*
X5279796Y8394852D01*
X5266283Y8393531D01*
X5253024Y8390382D01*
X5240324Y8385454D01*
X5228386Y8378952D01*
X5217464Y8370874D01*
X5207660Y8361425D01*
X5199227Y8350707D01*
X5192318Y8339023D01*
X5186984Y8326526D01*
X5183428Y8313369D01*
X5181600Y8299907D01*
X5181600Y8286292D01*
X5183428Y8272830D01*
X5186984Y8259673D01*
X5192318Y8247176D01*
X5199227Y8235492D01*
X5207660Y8224774D01*
X5217464Y8215325D01*
X5228386Y8207248D01*
X5240324Y8200745D01*
X5253024Y8195818D01*
X5266283Y8192668D01*
G37*
G36*
X8581796Y8191347D02*
G01*
X8595410Y8191804D01*
X8608822Y8194040D01*
X8621776Y8198053D01*
X8634120Y8203793D01*
X8645601Y8211108D01*
X8656015Y8219897D01*
X8665108Y8230006D01*
X8672830Y8241182D01*
X8678926Y8253323D01*
X8683396Y8266175D01*
X8686139Y8279536D01*
X8687054Y8293100D01*
X8686139Y8306663D01*
X8683396Y8320024D01*
X8678926Y8332876D01*
X8672830Y8345017D01*
X8665108Y8356193D01*
X8656015Y8366302D01*
X8645601Y8375091D01*
X8634120Y8382406D01*
X8621776Y8388146D01*
X8608822Y8392160D01*
X8595410Y8394395D01*
X8581796Y8394852D01*
X8568283Y8393531D01*
X8555024Y8390382D01*
X8542324Y8385454D01*
X8530386Y8378952D01*
X8519464Y8370874D01*
X8509660Y8361425D01*
X8501227Y8350707D01*
X8494318Y8339023D01*
X8488984Y8326526D01*
X8485428Y8313369D01*
X8483600Y8299907D01*
X8483600Y8286292D01*
X8485428Y8272830D01*
X8488984Y8259673D01*
X8494318Y8247176D01*
X8501227Y8235492D01*
X8509660Y8224774D01*
X8519464Y8215325D01*
X8530386Y8207248D01*
X8542324Y8200745D01*
X8555024Y8195818D01*
X8568283Y8192668D01*
G37*
G36*
X4771796Y8191347D02*
G01*
X4785410Y8191804D01*
X4798822Y8194040D01*
X4811776Y8198053D01*
X4824120Y8203793D01*
X4835601Y8211108D01*
X4846015Y8219897D01*
X4855108Y8230006D01*
X4862830Y8241182D01*
X4868926Y8253323D01*
X4873396Y8266175D01*
X4876139Y8279536D01*
X4877054Y8293100D01*
X4876139Y8306663D01*
X4873396Y8320024D01*
X4868926Y8332876D01*
X4862830Y8345017D01*
X4855108Y8356193D01*
X4846015Y8366302D01*
X4835601Y8375091D01*
X4824120Y8382406D01*
X4811776Y8388146D01*
X4798822Y8392160D01*
X4785410Y8394395D01*
X4771796Y8394852D01*
X4758283Y8393531D01*
X4745024Y8390382D01*
X4732324Y8385454D01*
X4720386Y8378952D01*
X4709464Y8370874D01*
X4699660Y8361425D01*
X4691227Y8350707D01*
X4684318Y8339023D01*
X4678984Y8326526D01*
X4675428Y8313369D01*
X4673600Y8299907D01*
X4673600Y8286292D01*
X4675428Y8272830D01*
X4678984Y8259673D01*
X4684318Y8247176D01*
X4691227Y8235492D01*
X4699660Y8224774D01*
X4709464Y8215325D01*
X4720386Y8207248D01*
X4732324Y8200745D01*
X4745024Y8195818D01*
X4758283Y8192668D01*
G37*
G36*
X7565796Y8191347D02*
G01*
X7579410Y8191804D01*
X7592822Y8194040D01*
X7605775Y8198053D01*
X7618120Y8203793D01*
X7629601Y8211108D01*
X7640015Y8219897D01*
X7649108Y8230006D01*
X7656830Y8241182D01*
X7662925Y8253323D01*
X7667396Y8266175D01*
X7670139Y8279536D01*
X7671053Y8293100D01*
X7670139Y8306663D01*
X7667396Y8320024D01*
X7662925Y8332876D01*
X7656830Y8345017D01*
X7649108Y8356193D01*
X7640015Y8366302D01*
X7629601Y8375091D01*
X7618120Y8382406D01*
X7605775Y8388146D01*
X7592822Y8392160D01*
X7579410Y8394395D01*
X7565796Y8394852D01*
X7552283Y8393531D01*
X7539024Y8390382D01*
X7526324Y8385454D01*
X7514386Y8378952D01*
X7503464Y8370874D01*
X7493660Y8361425D01*
X7485227Y8350707D01*
X7478318Y8339023D01*
X7472984Y8326526D01*
X7469428Y8313369D01*
X7467600Y8299907D01*
X7467600Y8286292D01*
X7469428Y8272830D01*
X7472984Y8259673D01*
X7478318Y8247176D01*
X7485227Y8235492D01*
X7493660Y8224774D01*
X7503464Y8215325D01*
X7514386Y8207248D01*
X7526324Y8200745D01*
X7539024Y8195818D01*
X7552283Y8192668D01*
G37*
G36*
X7819796Y8191347D02*
G01*
X7833410Y8191804D01*
X7846822Y8194040D01*
X7859775Y8198053D01*
X7872120Y8203793D01*
X7883601Y8211108D01*
X7894015Y8219897D01*
X7903108Y8230006D01*
X7910830Y8241182D01*
X7916925Y8253323D01*
X7921396Y8266175D01*
X7924139Y8279536D01*
X7925053Y8293100D01*
X7924139Y8306663D01*
X7921396Y8320024D01*
X7916925Y8332876D01*
X7910830Y8345017D01*
X7903108Y8356193D01*
X7894015Y8366302D01*
X7883601Y8375091D01*
X7872120Y8382406D01*
X7859775Y8388146D01*
X7846822Y8392160D01*
X7833410Y8394395D01*
X7819796Y8394852D01*
X7806283Y8393531D01*
X7793024Y8390382D01*
X7780324Y8385454D01*
X7768386Y8378952D01*
X7757464Y8370874D01*
X7747660Y8361425D01*
X7739227Y8350707D01*
X7732318Y8339023D01*
X7726984Y8326526D01*
X7723428Y8313369D01*
X7721600Y8299907D01*
X7721600Y8286292D01*
X7723428Y8272830D01*
X7726984Y8259673D01*
X7732318Y8247176D01*
X7739227Y8235492D01*
X7747660Y8224774D01*
X7757464Y8215325D01*
X7768386Y8207248D01*
X7780324Y8200745D01*
X7793024Y8195818D01*
X7806283Y8192668D01*
G37*
G36*
X6803796Y8191347D02*
G01*
X6817410Y8191804D01*
X6830822Y8194040D01*
X6843775Y8198053D01*
X6856120Y8203793D01*
X6867601Y8211108D01*
X6878015Y8219897D01*
X6887108Y8230006D01*
X6894830Y8241182D01*
X6900925Y8253323D01*
X6905396Y8266175D01*
X6908139Y8279536D01*
X6909053Y8293100D01*
X6908139Y8306663D01*
X6905396Y8320024D01*
X6900925Y8332876D01*
X6894830Y8345017D01*
X6887108Y8356193D01*
X6878015Y8366302D01*
X6867601Y8375091D01*
X6856120Y8382406D01*
X6843775Y8388146D01*
X6830822Y8392160D01*
X6817410Y8394395D01*
X6803796Y8394852D01*
X6790283Y8393531D01*
X6777024Y8390382D01*
X6764324Y8385454D01*
X6752386Y8378952D01*
X6741464Y8370874D01*
X6731660Y8361425D01*
X6723227Y8350707D01*
X6716318Y8339023D01*
X6710984Y8326526D01*
X6707428Y8313369D01*
X6705600Y8299907D01*
X6705600Y8286292D01*
X6707428Y8272830D01*
X6710984Y8259673D01*
X6716318Y8247176D01*
X6723227Y8235492D01*
X6731660Y8224774D01*
X6741464Y8215325D01*
X6752386Y8207248D01*
X6764324Y8200745D01*
X6777024Y8195818D01*
X6790283Y8192668D01*
G37*
G36*
X2993796Y8191347D02*
G01*
X3007410Y8191804D01*
X3020822Y8194040D01*
X3033776Y8198053D01*
X3046120Y8203793D01*
X3057601Y8211108D01*
X3068015Y8219897D01*
X3077108Y8230006D01*
X3084830Y8241182D01*
X3090926Y8253323D01*
X3095396Y8266175D01*
X3098139Y8279536D01*
X3099054Y8293100D01*
X3098139Y8306663D01*
X3095396Y8320024D01*
X3090926Y8332876D01*
X3084830Y8345017D01*
X3077108Y8356193D01*
X3068015Y8366302D01*
X3057601Y8375091D01*
X3046120Y8382406D01*
X3033776Y8388146D01*
X3020822Y8392160D01*
X3007410Y8394395D01*
X2993796Y8394852D01*
X2980283Y8393531D01*
X2967024Y8390382D01*
X2954324Y8385454D01*
X2942386Y8378952D01*
X2931464Y8370874D01*
X2921660Y8361425D01*
X2913227Y8350707D01*
X2906318Y8339023D01*
X2900984Y8326526D01*
X2897428Y8313369D01*
X2895600Y8299907D01*
X2895600Y8286292D01*
X2897428Y8272830D01*
X2900984Y8259673D01*
X2906318Y8247176D01*
X2913227Y8235492D01*
X2921660Y8224774D01*
X2931464Y8215325D01*
X2942386Y8207248D01*
X2954324Y8200745D01*
X2967024Y8195818D01*
X2980283Y8192668D01*
G37*
G36*
X5533796Y8191347D02*
G01*
X5547410Y8191804D01*
X5560822Y8194040D01*
X5573776Y8198053D01*
X5586120Y8203793D01*
X5597601Y8211108D01*
X5608015Y8219897D01*
X5617108Y8230006D01*
X5624830Y8241182D01*
X5630926Y8253323D01*
X5635396Y8266175D01*
X5638139Y8279536D01*
X5639054Y8293100D01*
X5638139Y8306663D01*
X5635396Y8320024D01*
X5630926Y8332876D01*
X5624830Y8345017D01*
X5617108Y8356193D01*
X5608015Y8366302D01*
X5597601Y8375091D01*
X5586120Y8382406D01*
X5573776Y8388146D01*
X5560822Y8392160D01*
X5547410Y8394395D01*
X5533796Y8394852D01*
X5520283Y8393531D01*
X5507024Y8390382D01*
X5494324Y8385454D01*
X5482386Y8378952D01*
X5471464Y8370874D01*
X5461660Y8361425D01*
X5453227Y8350707D01*
X5446318Y8339023D01*
X5440984Y8326526D01*
X5437428Y8313369D01*
X5435600Y8299907D01*
X5435600Y8286292D01*
X5437428Y8272830D01*
X5440984Y8259673D01*
X5446318Y8247176D01*
X5453227Y8235492D01*
X5461660Y8224774D01*
X5471464Y8215325D01*
X5482386Y8207248D01*
X5494324Y8200745D01*
X5507024Y8195818D01*
X5520283Y8192668D01*
G37*
G36*
X7057796Y8191347D02*
G01*
X7071410Y8191804D01*
X7084822Y8194040D01*
X7097775Y8198053D01*
X7110120Y8203793D01*
X7121601Y8211108D01*
X7132015Y8219897D01*
X7141108Y8230006D01*
X7148830Y8241182D01*
X7154925Y8253323D01*
X7159396Y8266175D01*
X7162139Y8279536D01*
X7163053Y8293100D01*
X7162139Y8306663D01*
X7159396Y8320024D01*
X7154925Y8332876D01*
X7148830Y8345017D01*
X7141108Y8356193D01*
X7132015Y8366302D01*
X7121601Y8375091D01*
X7110120Y8382406D01*
X7097775Y8388146D01*
X7084822Y8392160D01*
X7071410Y8394395D01*
X7057796Y8394852D01*
X7044283Y8393531D01*
X7031024Y8390382D01*
X7018324Y8385454D01*
X7006386Y8378952D01*
X6995464Y8370874D01*
X6985660Y8361425D01*
X6977227Y8350707D01*
X6970318Y8339023D01*
X6964984Y8326526D01*
X6961428Y8313369D01*
X6959600Y8299907D01*
X6959600Y8286292D01*
X6961428Y8272830D01*
X6964984Y8259673D01*
X6970318Y8247176D01*
X6977227Y8235492D01*
X6985660Y8224774D01*
X6995464Y8215325D01*
X7006386Y8207248D01*
X7018324Y8200745D01*
X7031024Y8195818D01*
X7044283Y8192668D01*
G37*
G36*
X4263796Y8191347D02*
G01*
X4277410Y8191804D01*
X4290822Y8194040D01*
X4303776Y8198053D01*
X4316120Y8203793D01*
X4327601Y8211108D01*
X4338015Y8219897D01*
X4347108Y8230006D01*
X4354830Y8241182D01*
X4360926Y8253323D01*
X4365396Y8266175D01*
X4368139Y8279536D01*
X4369054Y8293100D01*
X4368139Y8306663D01*
X4365396Y8320024D01*
X4360926Y8332876D01*
X4354830Y8345017D01*
X4347108Y8356193D01*
X4338015Y8366302D01*
X4327601Y8375091D01*
X4316120Y8382406D01*
X4303776Y8388146D01*
X4290822Y8392160D01*
X4277410Y8394395D01*
X4263796Y8394852D01*
X4250283Y8393531D01*
X4237024Y8390382D01*
X4224324Y8385454D01*
X4212386Y8378952D01*
X4201464Y8370874D01*
X4191660Y8361425D01*
X4183227Y8350707D01*
X4176318Y8339023D01*
X4170984Y8326526D01*
X4167428Y8313369D01*
X4165600Y8299907D01*
X4165600Y8286292D01*
X4167428Y8272830D01*
X4170984Y8259673D01*
X4176318Y8247176D01*
X4183227Y8235492D01*
X4191660Y8224774D01*
X4201464Y8215325D01*
X4212386Y8207248D01*
X4224324Y8200745D01*
X4237024Y8195818D01*
X4250283Y8192668D01*
G37*
G36*
X8073796Y8191347D02*
G01*
X8087410Y8191804D01*
X8100822Y8194040D01*
X8113775Y8198053D01*
X8126120Y8203793D01*
X8137601Y8211108D01*
X8148015Y8219897D01*
X8157108Y8230006D01*
X8164830Y8241182D01*
X8170925Y8253323D01*
X8175396Y8266175D01*
X8178139Y8279536D01*
X8179053Y8293100D01*
X8178139Y8306663D01*
X8175396Y8320024D01*
X8170925Y8332876D01*
X8164830Y8345017D01*
X8157108Y8356193D01*
X8148015Y8366302D01*
X8137601Y8375091D01*
X8126120Y8382406D01*
X8113775Y8388146D01*
X8100822Y8392160D01*
X8087410Y8394395D01*
X8073796Y8394852D01*
X8060283Y8393531D01*
X8047024Y8390382D01*
X8034324Y8385454D01*
X8022386Y8378952D01*
X8011464Y8370874D01*
X8001660Y8361425D01*
X7993227Y8350707D01*
X7986318Y8339023D01*
X7980984Y8326526D01*
X7977428Y8313369D01*
X7975600Y8299907D01*
X7975600Y8286292D01*
X7977428Y8272830D01*
X7980984Y8259673D01*
X7986318Y8247176D01*
X7993227Y8235492D01*
X8001660Y8224774D01*
X8011464Y8215325D01*
X8022386Y8207248D01*
X8034324Y8200745D01*
X8047024Y8195818D01*
X8060283Y8192668D01*
G37*
G36*
X7311796Y8191347D02*
G01*
X7325410Y8191804D01*
X7338822Y8194040D01*
X7351775Y8198053D01*
X7364120Y8203793D01*
X7375601Y8211108D01*
X7386015Y8219897D01*
X7395108Y8230006D01*
X7402830Y8241182D01*
X7408925Y8253323D01*
X7413396Y8266175D01*
X7416139Y8279536D01*
X7417053Y8293100D01*
X7416139Y8306663D01*
X7413396Y8320024D01*
X7408925Y8332876D01*
X7402830Y8345017D01*
X7395108Y8356193D01*
X7386015Y8366302D01*
X7375601Y8375091D01*
X7363866Y8382508D01*
X7360716Y8384794D01*
X7358684Y8388096D01*
X7357973Y8391906D01*
X7358786Y8395716D01*
X7360970Y8398916D01*
X7404303Y8442248D01*
X7407605Y8444484D01*
X7411516Y8445246D01*
X8196783Y8445246D01*
X8200694Y8444484D01*
X8203996Y8442248D01*
X8252917Y8393328D01*
X8259114Y8388248D01*
X8262467Y8386470D01*
X8265464Y8384082D01*
X8267293Y8380780D01*
X8267852Y8376970D01*
X8266938Y8373313D01*
X8264753Y8370163D01*
X8255660Y8361425D01*
X8247227Y8350707D01*
X8240318Y8339023D01*
X8239709Y8337550D01*
X8286750Y8337550D01*
X8286750Y8371586D01*
X8287512Y8375497D01*
X8289747Y8378748D01*
X8292998Y8380984D01*
X8296909Y8381746D01*
X8365490Y8381746D01*
X8369401Y8380984D01*
X8372652Y8378748D01*
X8374888Y8375497D01*
X8375650Y8371586D01*
X8375650Y8337550D01*
X8422589Y8337550D01*
X8418830Y8345017D01*
X8411108Y8356193D01*
X8402015Y8366302D01*
X8398002Y8369655D01*
X8395563Y8372754D01*
X8394446Y8376513D01*
X8394852Y8380425D01*
X8396732Y8383879D01*
X8399780Y8386368D01*
X8403285Y8388248D01*
X8409482Y8393328D01*
X8458403Y8442248D01*
X8461705Y8444484D01*
X8465616Y8445246D01*
X9527032Y8445246D01*
X9535007Y8446008D01*
X9542221Y8448192D01*
X9548825Y8451748D01*
X9555022Y8456828D01*
X11215471Y10117277D01*
X11220551Y10123474D01*
X11224107Y10130078D01*
X11226292Y10137292D01*
X11227054Y10145268D01*
X11227054Y10238486D01*
X11227816Y10242397D01*
X11230051Y10245648D01*
X11233302Y10247884D01*
X11237214Y10248646D01*
X11569192Y10248646D01*
X11577167Y10249408D01*
X11584381Y10251592D01*
X11590985Y10255148D01*
X11597182Y10260228D01*
X11609171Y10272217D01*
X11614251Y10278414D01*
X11617807Y10285018D01*
X11619992Y10292232D01*
X11620754Y10300208D01*
X11620754Y10324592D01*
X11619992Y10332567D01*
X11617807Y10339781D01*
X11614251Y10346385D01*
X11609171Y10352582D01*
X11605717Y10356037D01*
X11603532Y10359288D01*
X11602770Y10363200D01*
X11603532Y10367111D01*
X11605717Y10370362D01*
X11609171Y10373817D01*
X11614251Y10380014D01*
X11617807Y10386618D01*
X11619992Y10393832D01*
X11620754Y10401808D01*
X11620754Y10426192D01*
X11619992Y10434167D01*
X11617807Y10441381D01*
X11614251Y10447985D01*
X11609171Y10454182D01*
X11597182Y10466171D01*
X11590985Y10471251D01*
X11584381Y10474807D01*
X11577167Y10476992D01*
X11569192Y10477754D01*
X11237214Y10477754D01*
X11233302Y10478516D01*
X11230051Y10480751D01*
X11227816Y10484002D01*
X11227054Y10487914D01*
X11227054Y10540492D01*
X11226292Y10548467D01*
X11224107Y10555681D01*
X11220551Y10562285D01*
X11215471Y10568482D01*
X11071555Y10712399D01*
X11069320Y10715701D01*
X11068558Y10719612D01*
X11068558Y11105184D01*
X11069269Y11108842D01*
X11071250Y11112042D01*
X11074247Y11114278D01*
X11083036Y11118646D01*
X11094567Y11126317D01*
X11104930Y11135461D01*
X11114024Y11145824D01*
X11121745Y11157305D01*
X11127841Y11169700D01*
X11132261Y11182807D01*
X11134953Y11196320D01*
X11135868Y11210137D01*
X11134953Y11223904D01*
X11132261Y11237468D01*
X11127841Y11250574D01*
X11121745Y11262969D01*
X11114024Y11274450D01*
X11104930Y11284813D01*
X11094567Y11293957D01*
X11083036Y11301628D01*
X11070691Y11307724D01*
X11057585Y11312144D01*
X11047780Y11314125D01*
X11043818Y11315852D01*
X11040922Y11319103D01*
X11039652Y11323269D01*
X11040262Y11327587D01*
X11042599Y11331244D01*
X11086236Y11374882D01*
X11089081Y11376914D01*
X11092434Y11377828D01*
X11095888Y11377574D01*
X11099038Y11376152D01*
X11104676Y11372392D01*
X11117072Y11366296D01*
X11130178Y11361826D01*
X11143691Y11359134D01*
X11157508Y11358219D01*
X11171275Y11359134D01*
X11184839Y11361826D01*
X11197945Y11366296D01*
X11210290Y11372392D01*
X11221821Y11380063D01*
X11232184Y11389207D01*
X11241278Y11399570D01*
X11248999Y11411051D01*
X11255095Y11423446D01*
X11259515Y11436553D01*
X11262207Y11450066D01*
X11263122Y11463883D01*
X11262207Y11477650D01*
X11259515Y11491214D01*
X11255095Y11504320D01*
X11248999Y11516715D01*
X11241278Y11528196D01*
X11232184Y11538559D01*
X11221821Y11547703D01*
X11217097Y11550853D01*
X11214100Y11553901D01*
X11212626Y11557965D01*
X11212982Y11562232D01*
X11215065Y11565991D01*
X11218519Y11568531D01*
X11222736Y11569446D01*
X11264392Y11569446D01*
X11272367Y11570208D01*
X11279581Y11572392D01*
X11286185Y11575948D01*
X11292382Y11581028D01*
X11317071Y11605717D01*
X11322151Y11611914D01*
X11325707Y11618518D01*
X11327892Y11625732D01*
X11328654Y11633708D01*
X11328654Y11648186D01*
X11329416Y11652097D01*
X11331651Y11655348D01*
X11334902Y11657584D01*
X11338814Y11658346D01*
X11356086Y11658346D01*
X11359997Y11657584D01*
X11363248Y11655348D01*
X11365484Y11652097D01*
X11366246Y11648186D01*
X11366246Y11621008D01*
X11367008Y11613032D01*
X11369192Y11605818D01*
X11372748Y11599214D01*
X11377828Y11593017D01*
X11389817Y11581028D01*
X11396014Y11575948D01*
X11402618Y11572392D01*
X11409832Y11570208D01*
X11417808Y11569446D01*
X11447678Y11569446D01*
X11451590Y11568684D01*
X11454892Y11566448D01*
X11457076Y11563197D01*
X11457838Y11559286D01*
X11457838Y11510213D01*
X11506149Y11510213D01*
X11502999Y11516715D01*
X11495278Y11528196D01*
X11486184Y11538559D01*
X11475821Y11547703D01*
X11471097Y11550853D01*
X11468100Y11553901D01*
X11466626Y11557965D01*
X11466982Y11562232D01*
X11469065Y11565991D01*
X11472519Y11568531D01*
X11476736Y11569446D01*
X11600281Y11569446D01*
X11604447Y11568531D01*
X11607901Y11565991D01*
X11609984Y11562232D01*
X11610340Y11557965D01*
X11608917Y11553901D01*
X11605920Y11550853D01*
X11601196Y11547703D01*
X11590782Y11538559D01*
X11581688Y11528196D01*
X11574018Y11516715D01*
X11567922Y11504320D01*
X11563451Y11491214D01*
X11560810Y11477752D01*
X11559794Y11474958D01*
X11558016Y11472570D01*
X11505946Y11420500D01*
X11502644Y11418316D01*
X11498783Y11417503D01*
X11457838Y11417503D01*
X11457838Y11376914D01*
X11457076Y11373002D01*
X11454892Y11369751D01*
X11451590Y11367516D01*
X11447678Y11366754D01*
X11403076Y11366754D01*
X11395100Y11365992D01*
X11387937Y11363807D01*
X11380165Y11359540D01*
X11376152Y11358372D01*
X11374170Y11358168D01*
X11373358Y11354409D01*
X11371173Y11351260D01*
X11331346Y11311432D01*
X11328247Y11309299D01*
X11324640Y11308486D01*
X11320932Y11308994D01*
X11311585Y11312144D01*
X11298021Y11314836D01*
X11284254Y11315750D01*
X11270437Y11314836D01*
X11256924Y11312144D01*
X11243818Y11307724D01*
X11231422Y11301628D01*
X11219942Y11293957D01*
X11209528Y11284813D01*
X11200434Y11274450D01*
X11192764Y11262969D01*
X11186668Y11250574D01*
X11182197Y11237468D01*
X11179505Y11223904D01*
X11178590Y11210137D01*
X11179505Y11196320D01*
X11182197Y11182807D01*
X11186668Y11169700D01*
X11192764Y11157305D01*
X11200434Y11145824D01*
X11209528Y11135461D01*
X11219942Y11126317D01*
X11231422Y11118646D01*
X11243818Y11112550D01*
X11256924Y11108080D01*
X11268049Y11105896D01*
X11271300Y11104626D01*
X11273942Y11102340D01*
X11275669Y11099342D01*
X11276228Y11095888D01*
X11276228Y10974730D01*
X11275466Y10970818D01*
X11273282Y10967516D01*
X11269980Y10965332D01*
X11258905Y10963859D01*
X11253520Y10961979D01*
X11248644Y10958931D01*
X11244580Y10954867D01*
X11241532Y10949990D01*
X11239652Y10944606D01*
X11238941Y10938306D01*
X11238941Y10829493D01*
X11239652Y10823194D01*
X11241532Y10817809D01*
X11244580Y10812932D01*
X11248644Y10808868D01*
X11253520Y10805820D01*
X11258905Y10803940D01*
X11265154Y10803229D01*
X11364010Y10803229D01*
X11370310Y10803940D01*
X11375694Y10805820D01*
X11380571Y10808868D01*
X11384584Y10812932D01*
X11387683Y10817809D01*
X11389563Y10823194D01*
X11390274Y10829493D01*
X11390274Y10938306D01*
X11389563Y10944606D01*
X11387683Y10949990D01*
X11384584Y10954867D01*
X11380571Y10958931D01*
X11375694Y10961979D01*
X11370310Y10963859D01*
X11363096Y10964570D01*
X11359235Y10965332D01*
X11355933Y10967516D01*
X11353698Y10970818D01*
X11352936Y10974730D01*
X11352936Y11125606D01*
X11353850Y11129772D01*
X11356390Y11133226D01*
X11358930Y11135461D01*
X11368024Y11145824D01*
X11375745Y11157305D01*
X11381841Y11169700D01*
X11386261Y11182807D01*
X11388953Y11196320D01*
X11389868Y11210137D01*
X11388953Y11223904D01*
X11386261Y11237468D01*
X11383162Y11246713D01*
X11382603Y11250422D01*
X11383467Y11254079D01*
X11385550Y11257178D01*
X11415471Y11287048D01*
X11418773Y11289284D01*
X11422684Y11290046D01*
X11445849Y11290046D01*
X11450116Y11289131D01*
X11453571Y11286490D01*
X11455654Y11282629D01*
X11455908Y11278311D01*
X11454333Y11274247D01*
X11446764Y11262969D01*
X11443563Y11256467D01*
X11491874Y11256467D01*
X11491874Y11293805D01*
X11492839Y11298123D01*
X11495582Y11301628D01*
X11579961Y11386058D01*
X11583111Y11388191D01*
X11586819Y11389004D01*
X11590578Y11388445D01*
X11593880Y11386515D01*
X11601196Y11380063D01*
X11612676Y11372392D01*
X11625072Y11366296D01*
X11638178Y11361826D01*
X11651691Y11359134D01*
X11665508Y11358219D01*
X11679275Y11359134D01*
X11692839Y11361826D01*
X11705945Y11366296D01*
X11718290Y11372392D01*
X11733733Y11382552D01*
X11737543Y11383111D01*
X11741302Y11382197D01*
X11744401Y11379962D01*
X11746534Y11376710D01*
X11747246Y11372951D01*
X11747246Y11311788D01*
X11746534Y11308080D01*
X11744553Y11304930D01*
X11741556Y11302695D01*
X11739422Y11301628D01*
X11727942Y11293957D01*
X11717528Y11284813D01*
X11708434Y11274450D01*
X11700764Y11262969D01*
X11694668Y11250574D01*
X11690197Y11237468D01*
X11687505Y11223904D01*
X11686590Y11210137D01*
X11687505Y11196320D01*
X11690197Y11182807D01*
X11694668Y11169700D01*
X11700764Y11157305D01*
X11708434Y11145824D01*
X11717528Y11135461D01*
X11727942Y11126317D01*
X11739422Y11118646D01*
X11751818Y11112550D01*
X11764924Y11108080D01*
X11778437Y11105388D01*
X11792254Y11104473D01*
X11806021Y11105388D01*
X11819585Y11108080D01*
X11832691Y11112550D01*
X11845036Y11118646D01*
X11856567Y11126317D01*
X11866930Y11135461D01*
X11876024Y11145824D01*
X11883745Y11157305D01*
X11889841Y11169700D01*
X11894261Y11182807D01*
X11896953Y11196320D01*
X11897868Y11210137D01*
X11896953Y11223904D01*
X11894261Y11237468D01*
X11889841Y11250574D01*
X11883745Y11262969D01*
X11876024Y11274450D01*
X11866930Y11284813D01*
X11856567Y11293957D01*
X11845036Y11301628D01*
X11832691Y11307724D01*
X11830862Y11308334D01*
X11827256Y11310467D01*
X11824817Y11313871D01*
X11823954Y11317935D01*
X11823954Y11385956D01*
X11824766Y11389969D01*
X11827103Y11393322D01*
X11830558Y11395456D01*
X11834571Y11396116D01*
X11838482Y11395100D01*
X11841734Y11392662D01*
X11844782Y11389207D01*
X11855196Y11380063D01*
X11866676Y11372392D01*
X11879072Y11366296D01*
X11892178Y11361826D01*
X11905691Y11359134D01*
X11919508Y11358219D01*
X11933275Y11359134D01*
X11946839Y11361826D01*
X11959945Y11366296D01*
X11972290Y11372392D01*
X11983821Y11380063D01*
X11994184Y11389207D01*
X12003278Y11399570D01*
X12010999Y11411051D01*
X12017095Y11423446D01*
X12021515Y11436553D01*
X12024207Y11450066D01*
X12025122Y11463883D01*
X12024207Y11477650D01*
X12021515Y11491214D01*
X12017095Y11504320D01*
X12010999Y11516715D01*
X12003278Y11528196D01*
X11994184Y11538559D01*
X11983821Y11547703D01*
X11972290Y11555374D01*
X11959945Y11561470D01*
X11946839Y11565890D01*
X11933275Y11568582D01*
X11919508Y11569496D01*
X11909094Y11568836D01*
X11904878Y11569446D01*
X11901271Y11571782D01*
X11698782Y11774271D01*
X11692585Y11779351D01*
X11685981Y11782907D01*
X11678767Y11785092D01*
X11670792Y11785854D01*
X11074908Y11785854D01*
X11066932Y11785092D01*
X11059718Y11782907D01*
X11053114Y11779351D01*
X11046917Y11774271D01*
X10755528Y11482882D01*
X10750448Y11476685D01*
X10746892Y11470081D01*
X10744708Y11462867D01*
X10743946Y11454892D01*
X10743946Y9989616D01*
X10743184Y9985705D01*
X10740948Y9982403D01*
X9448596Y8690051D01*
X9445294Y8687816D01*
X9441383Y8687054D01*
X8605316Y8687054D01*
X8601405Y8687816D01*
X8598103Y8690051D01*
X8485682Y8802471D01*
X8479485Y8807551D01*
X8472881Y8811107D01*
X8465667Y8813292D01*
X8457692Y8814054D01*
X8230108Y8814054D01*
X8222132Y8813292D01*
X8214918Y8811107D01*
X8208314Y8807551D01*
X8202117Y8802471D01*
X8102396Y8702751D01*
X8099094Y8700516D01*
X8095183Y8699754D01*
X7551216Y8699754D01*
X7547305Y8700516D01*
X7544003Y8702751D01*
X7520127Y8726627D01*
X7517892Y8729929D01*
X7517130Y8733840D01*
X7517130Y8891016D01*
X7516368Y8898991D01*
X7514183Y8906205D01*
X7510627Y8912809D01*
X7505547Y8919006D01*
X7355382Y9069171D01*
X7349185Y9074251D01*
X7342581Y9077807D01*
X7335367Y9079992D01*
X7327392Y9080754D01*
X7201408Y9080754D01*
X7193432Y9079992D01*
X7186218Y9077807D01*
X7179614Y9074251D01*
X7173417Y9069171D01*
X7130084Y9025839D01*
X7127138Y9023807D01*
X7123734Y9022892D01*
X7120178Y9023248D01*
X7107681Y9026753D01*
X7094728Y9028531D01*
X7081672Y9028531D01*
X7068769Y9026753D01*
X7056170Y9023197D01*
X7044181Y9018016D01*
X7033056Y9011208D01*
X7022947Y9002979D01*
X7014006Y8993428D01*
X7006488Y8982811D01*
X7000494Y8971178D01*
X6996125Y8958884D01*
X6993483Y8946134D01*
X6992569Y8933078D01*
X6993483Y8920073D01*
X6996125Y8907322D01*
X7000494Y8894978D01*
X7006488Y8883396D01*
X7014006Y8872728D01*
X7022947Y8863228D01*
X7033056Y8854998D01*
X7044181Y8848191D01*
X7056831Y8842705D01*
X7068769Y8839454D01*
X7081672Y8837676D01*
X7094728Y8837676D01*
X7107681Y8839454D01*
X7119569Y8842705D01*
X7132218Y8848191D01*
X7143343Y8854998D01*
X7153452Y8863228D01*
X7162393Y8872728D01*
X7169912Y8883396D01*
X7175906Y8894978D01*
X7178649Y8902649D01*
X7180783Y8906154D01*
X7184136Y8908542D01*
X7188200Y8909405D01*
X7192264Y8908542D01*
X7195616Y8906154D01*
X7197750Y8902649D01*
X7200493Y8894978D01*
X7206488Y8883396D01*
X7214006Y8872728D01*
X7222947Y8863228D01*
X7233056Y8854998D01*
X7244181Y8848191D01*
X7256830Y8842705D01*
X7260031Y8840520D01*
X7262164Y8837218D01*
X7262926Y8832799D01*
X7262164Y8828989D01*
X7260031Y8825687D01*
X7256830Y8823502D01*
X7244181Y8818016D01*
X7233056Y8811209D01*
X7222947Y8802979D01*
X7214006Y8793429D01*
X7206488Y8782812D01*
X7200493Y8771178D01*
X7196124Y8758885D01*
X7193483Y8746134D01*
X7192568Y8733078D01*
X7193483Y8720074D01*
X7196124Y8707323D01*
X7197039Y8703818D01*
X7197750Y8702649D01*
X7200493Y8694978D01*
X7206488Y8683396D01*
X7214006Y8672728D01*
X7222947Y8663228D01*
X7233056Y8654948D01*
X7244181Y8648192D01*
X7256830Y8642705D01*
X7260031Y8640521D01*
X7262164Y8637219D01*
X7262926Y8632799D01*
X7262164Y8628989D01*
X7260031Y8625687D01*
X7256830Y8623503D01*
X7244181Y8618016D01*
X7233056Y8611209D01*
X7222947Y8602980D01*
X7214006Y8593429D01*
X7206488Y8582812D01*
X7200493Y8571179D01*
X7197750Y8563559D01*
X7195616Y8560054D01*
X7192264Y8557666D01*
X7188200Y8556802D01*
X7184136Y8557666D01*
X7180783Y8560054D01*
X7178649Y8563559D01*
X7175906Y8571179D01*
X7169912Y8582812D01*
X7162393Y8593429D01*
X7153452Y8602980D01*
X7143343Y8611209D01*
X7132218Y8618016D01*
X7119569Y8623503D01*
X7107681Y8626754D01*
X7094728Y8628481D01*
X7081672Y8628481D01*
X7068769Y8626754D01*
X7056831Y8623503D01*
X7044181Y8618016D01*
X7033056Y8611209D01*
X7022947Y8602980D01*
X7014006Y8593429D01*
X7006488Y8582812D01*
X7000494Y8571179D01*
X6996125Y8558885D01*
X6993483Y8546134D01*
X6992569Y8533079D01*
X6993483Y8520074D01*
X6996125Y8507323D01*
X7000494Y8494979D01*
X7006488Y8483396D01*
X7014006Y8472728D01*
X7022947Y8463229D01*
X7033056Y8454948D01*
X7044181Y8448192D01*
X7056170Y8443010D01*
X7068769Y8439454D01*
X7081672Y8437676D01*
X7094728Y8437676D01*
X7107681Y8439454D01*
X7120229Y8443010D01*
X7132218Y8448192D01*
X7140600Y8453323D01*
X7144816Y8454745D01*
X7149287Y8454186D01*
X7153046Y8451799D01*
X7211517Y8393328D01*
X7217714Y8388248D01*
X7224318Y8384692D01*
X7231532Y8382508D01*
X7236917Y8382000D01*
X7240574Y8380933D01*
X7243572Y8378545D01*
X7245502Y8375243D01*
X7246061Y8371433D01*
X7245146Y8367725D01*
X7242962Y8364575D01*
X7239660Y8361425D01*
X7231227Y8350707D01*
X7224318Y8339023D01*
X7218984Y8326526D01*
X7215428Y8313369D01*
X7213600Y8299907D01*
X7213600Y8286292D01*
X7215428Y8272830D01*
X7218984Y8259673D01*
X7224318Y8247176D01*
X7231227Y8235492D01*
X7239660Y8224774D01*
X7249464Y8215325D01*
X7260386Y8207248D01*
X7272324Y8200745D01*
X7285024Y8195818D01*
X7298283Y8192668D01*
G37*
G36*
X8286750Y8201609D02*
G01*
X8286750Y8248650D01*
X8239709Y8248650D01*
X8240318Y8247176D01*
X8247227Y8235492D01*
X8255660Y8224774D01*
X8265464Y8215325D01*
X8276386Y8207248D01*
G37*
G36*
X4984750Y8201609D02*
G01*
X4984750Y8248650D01*
X4937709Y8248650D01*
X4938318Y8247176D01*
X4945227Y8235492D01*
X4953660Y8224774D01*
X4963464Y8215325D01*
X4974386Y8207248D01*
G37*
G36*
X5073650Y8201710D02*
G01*
X5078120Y8203793D01*
X5089601Y8211108D01*
X5100015Y8219897D01*
X5109108Y8230006D01*
X5116830Y8241182D01*
X5120589Y8248650D01*
X5073650Y8248650D01*
G37*
G36*
X8375650Y8201710D02*
G01*
X8380120Y8203793D01*
X8391601Y8211108D01*
X8402015Y8219897D01*
X8411108Y8230006D01*
X8418830Y8241182D01*
X8422589Y8248650D01*
X8375650Y8248650D01*
G37*
G36*
X5073650Y8337550D02*
G01*
X5120589Y8337550D01*
X5116830Y8345017D01*
X5109108Y8356193D01*
X5100015Y8366302D01*
X5089601Y8375091D01*
X5078120Y8382406D01*
X5073650Y8384489D01*
G37*
G36*
X4937709Y8337550D02*
G01*
X4984750Y8337550D01*
X4984750Y8384590D01*
X4974386Y8378952D01*
X4963464Y8370874D01*
X4953660Y8361425D01*
X4945227Y8350707D01*
X4938318Y8339023D01*
G37*
G36*
X4009796Y8445347D02*
G01*
X4023410Y8445804D01*
X4036822Y8448040D01*
X4049776Y8452053D01*
X4062120Y8457793D01*
X4073601Y8465108D01*
X4084015Y8473897D01*
X4093108Y8484006D01*
X4100829Y8495182D01*
X4106926Y8507323D01*
X4111396Y8520176D01*
X4114139Y8533536D01*
X4115054Y8547100D01*
X4114139Y8560663D01*
X4111396Y8574024D01*
X4106926Y8586876D01*
X4100829Y8599017D01*
X4093108Y8610193D01*
X4084015Y8620302D01*
X4073601Y8629091D01*
X4062120Y8636406D01*
X4049776Y8642146D01*
X4036822Y8646160D01*
X4023410Y8648395D01*
X4009796Y8648852D01*
X3996283Y8647531D01*
X3983024Y8644382D01*
X3970324Y8639454D01*
X3958386Y8632952D01*
X3947464Y8624874D01*
X3937660Y8615426D01*
X3929227Y8604707D01*
X3922318Y8593023D01*
X3916984Y8580526D01*
X3913428Y8567369D01*
X3911600Y8553907D01*
X3911600Y8540292D01*
X3913428Y8526830D01*
X3916984Y8513673D01*
X3922318Y8501176D01*
X3929227Y8489492D01*
X3937660Y8478774D01*
X3947464Y8469325D01*
X3958386Y8461248D01*
X3970324Y8454745D01*
X3983024Y8449818D01*
X3996283Y8446668D01*
G37*
G36*
X7046874Y8647023D02*
G01*
X7046874Y8691727D01*
X7002170Y8691727D01*
X7006488Y8683396D01*
X7014006Y8672728D01*
X7022947Y8663228D01*
X7033056Y8654948D01*
X7044181Y8648192D01*
G37*
G36*
X7129525Y8647023D02*
G01*
X7132218Y8648192D01*
X7143343Y8654948D01*
X7153452Y8663228D01*
X7162393Y8672728D01*
X7169912Y8683396D01*
X7174230Y8691727D01*
X7129525Y8691727D01*
G37*
G36*
X4009796Y8699347D02*
G01*
X4023410Y8699804D01*
X4036822Y8702040D01*
X4049776Y8706053D01*
X4062120Y8711793D01*
X4073601Y8719108D01*
X4084015Y8727897D01*
X4093108Y8738006D01*
X4100829Y8749182D01*
X4106926Y8761323D01*
X4111396Y8774176D01*
X4114139Y8787536D01*
X4115054Y8801100D01*
X4114139Y8814663D01*
X4111396Y8828024D01*
X4106926Y8840876D01*
X4100829Y8853017D01*
X4093108Y8864193D01*
X4084015Y8874302D01*
X4073601Y8883091D01*
X4062120Y8890406D01*
X4049776Y8896146D01*
X4036822Y8900160D01*
X4023410Y8902395D01*
X4009796Y8902852D01*
X3996283Y8901531D01*
X3983024Y8898382D01*
X3970324Y8893454D01*
X3958386Y8886952D01*
X3947464Y8878874D01*
X3937660Y8869426D01*
X3929227Y8858707D01*
X3922318Y8847023D01*
X3916984Y8834526D01*
X3913428Y8821369D01*
X3911600Y8807907D01*
X3911600Y8794292D01*
X3913428Y8780830D01*
X3916984Y8767673D01*
X3922318Y8755176D01*
X3929227Y8743492D01*
X3937660Y8732774D01*
X3947464Y8723325D01*
X3958386Y8715248D01*
X3970324Y8708745D01*
X3983024Y8703818D01*
X3996283Y8700668D01*
G37*
G36*
X8686800Y8744915D02*
G01*
X8696553Y8745778D01*
X8706002Y8748318D01*
X8714892Y8752433D01*
X8722918Y8758072D01*
X8724595Y8759748D01*
X8727897Y8761984D01*
X8731808Y8762746D01*
X9384792Y8762746D01*
X9392767Y8763508D01*
X9399981Y8765692D01*
X9406585Y8769248D01*
X9412782Y8774328D01*
X10605871Y9967417D01*
X10610951Y9973614D01*
X10614507Y9980218D01*
X10616692Y9987432D01*
X10617454Y9995408D01*
X10617454Y11371783D01*
X10618216Y11375694D01*
X10620451Y11378996D01*
X11061903Y11820448D01*
X11065205Y11822684D01*
X11069116Y11823446D01*
X11645392Y11823446D01*
X11653367Y11824208D01*
X11660581Y11826392D01*
X11667185Y11829948D01*
X11673382Y11835028D01*
X11748871Y11910517D01*
X11753951Y11916714D01*
X11757507Y11923318D01*
X11759692Y11930532D01*
X11760454Y11938508D01*
X11760454Y12209983D01*
X11761216Y12213894D01*
X11763451Y12217196D01*
X11849303Y12303048D01*
X11852605Y12305284D01*
X11856516Y12306046D01*
X11976862Y12306046D01*
X11984837Y12306808D01*
X11992051Y12308992D01*
X11998655Y12312548D01*
X12004852Y12317628D01*
X12090806Y12403582D01*
X12093905Y12405715D01*
X12097512Y12406528D01*
X12101220Y12406020D01*
X12110618Y12402820D01*
X12124131Y12400127D01*
X12137948Y12399213D01*
X12151715Y12400127D01*
X12165279Y12402820D01*
X12178385Y12407290D01*
X12190730Y12413386D01*
X12202261Y12421057D01*
X12212624Y12430201D01*
X12221718Y12440564D01*
X12229439Y12452045D01*
X12235535Y12464440D01*
X12239955Y12477546D01*
X12242647Y12491059D01*
X12243562Y12504877D01*
X12242647Y12518644D01*
X12239955Y12532207D01*
X12235535Y12545314D01*
X12229439Y12557709D01*
X12221718Y12569190D01*
X12212624Y12579553D01*
X12202261Y12588697D01*
X12190730Y12596368D01*
X12178385Y12602464D01*
X12165279Y12606883D01*
X12151715Y12609576D01*
X12137948Y12610490D01*
X12124131Y12609576D01*
X12110618Y12606883D01*
X12097512Y12602464D01*
X12085116Y12596368D01*
X12073636Y12588697D01*
X12063222Y12579553D01*
X12054128Y12569190D01*
X12046458Y12557709D01*
X12040362Y12545314D01*
X12035891Y12532207D01*
X12033199Y12518644D01*
X12032284Y12504877D01*
X12033199Y12491059D01*
X12035891Y12477546D01*
X12039041Y12468301D01*
X12039549Y12464592D01*
X12038736Y12460935D01*
X12036602Y12457887D01*
X11964466Y12385751D01*
X11961164Y12383516D01*
X11957253Y12382754D01*
X11836908Y12382754D01*
X11828932Y12381992D01*
X11821718Y12379807D01*
X11815114Y12376251D01*
X11808917Y12371171D01*
X11695328Y12257582D01*
X11690248Y12251385D01*
X11686692Y12244781D01*
X11684508Y12237567D01*
X11683746Y12229592D01*
X11683746Y11958116D01*
X11682984Y11954205D01*
X11680748Y11950903D01*
X11632996Y11903151D01*
X11629694Y11900916D01*
X11625783Y11900154D01*
X11049508Y11900154D01*
X11041532Y11899392D01*
X11034318Y11897207D01*
X11027714Y11893651D01*
X11021517Y11888571D01*
X10853724Y11720779D01*
X10850270Y11718493D01*
X10846155Y11717832D01*
X10842142Y11718798D01*
X10838840Y11721338D01*
X10836859Y11724995D01*
X10768888Y11724995D01*
X10768888Y11657025D01*
X10772546Y11654993D01*
X10775035Y11651742D01*
X10776051Y11647678D01*
X10775340Y11643614D01*
X10773105Y11640108D01*
X10552328Y11419382D01*
X10547248Y11413185D01*
X10543692Y11406581D01*
X10541508Y11399367D01*
X10540746Y11391392D01*
X10540746Y10015016D01*
X10539984Y10011105D01*
X10537748Y10007803D01*
X9372396Y8842451D01*
X9369094Y8840216D01*
X9365183Y8839454D01*
X8731808Y8839454D01*
X8727897Y8840216D01*
X8724595Y8842451D01*
X8722918Y8844127D01*
X8714892Y8849766D01*
X8706002Y8853881D01*
X8696553Y8856421D01*
X8686800Y8857284D01*
X8677046Y8856421D01*
X8667597Y8853881D01*
X8658707Y8849766D01*
X8650681Y8844127D01*
X8643772Y8837218D01*
X8638133Y8829192D01*
X8634018Y8820302D01*
X8631478Y8810853D01*
X8630615Y8801100D01*
X8631478Y8791346D01*
X8634018Y8781897D01*
X8638133Y8773007D01*
X8643772Y8764981D01*
X8650681Y8758072D01*
X8658707Y8752433D01*
X8667597Y8748318D01*
X8677046Y8745778D01*
G37*
G36*
X7129525Y8774430D02*
G01*
X7174230Y8774430D01*
X7169912Y8782812D01*
X7162393Y8793429D01*
X7153452Y8802979D01*
X7143343Y8811209D01*
X7132218Y8818016D01*
X7129525Y8819134D01*
G37*
G36*
X7002170Y8774430D02*
G01*
X7046874Y8774430D01*
X7046874Y8819134D01*
X7044181Y8818016D01*
X7033056Y8811209D01*
X7022947Y8802979D01*
X7014006Y8793429D01*
X7006488Y8782812D01*
G37*
G36*
X8520785Y8826347D02*
G01*
X8534400Y8826804D01*
X8547811Y8829040D01*
X8560816Y8833053D01*
X8573109Y8838793D01*
X8584590Y8846108D01*
X8595004Y8854897D01*
X8604097Y8865006D01*
X8611819Y8876182D01*
X8617966Y8888323D01*
X8622385Y8901176D01*
X8625128Y8914536D01*
X8626043Y8928100D01*
X8625128Y8941663D01*
X8622385Y8955024D01*
X8617966Y8967876D01*
X8611819Y8980017D01*
X8604097Y8991193D01*
X8595004Y9001302D01*
X8584590Y9010091D01*
X8573109Y9017406D01*
X8560816Y9023146D01*
X8547811Y9027160D01*
X8534400Y9029395D01*
X8520785Y9029852D01*
X8507272Y9028531D01*
X8494014Y9025382D01*
X8481263Y9020454D01*
X8477097Y9019184D01*
X8472830Y9019794D01*
X8469172Y9022130D01*
X8397951Y9093403D01*
X8395716Y9096705D01*
X8394954Y9100616D01*
X8394954Y9225483D01*
X8395716Y9229394D01*
X8397951Y9232696D01*
X8496503Y9331248D01*
X8499805Y9333484D01*
X8503716Y9334246D01*
X8634374Y9334246D01*
X8638082Y9333534D01*
X8641283Y9331502D01*
X8643518Y9328454D01*
X8644483Y9324797D01*
X8644026Y9321038D01*
X8638692Y9311081D01*
X8636508Y9303867D01*
X8635746Y9295892D01*
X8635746Y9258808D01*
X8636508Y9250832D01*
X8638692Y9243618D01*
X8644026Y9233662D01*
X8644483Y9229902D01*
X8643518Y9226245D01*
X8641283Y9223197D01*
X8638082Y9221165D01*
X8634374Y9220454D01*
X8624874Y9220454D01*
X8621268Y9221114D01*
X8618067Y9223095D01*
X8615832Y9226042D01*
X8611819Y9234017D01*
X8604097Y9245193D01*
X8595004Y9255302D01*
X8584590Y9264091D01*
X8573109Y9271406D01*
X8560816Y9277146D01*
X8547811Y9281160D01*
X8534400Y9283395D01*
X8520785Y9283852D01*
X8507272Y9282531D01*
X8494014Y9279382D01*
X8481314Y9274454D01*
X8469376Y9267952D01*
X8458454Y9259874D01*
X8448649Y9250426D01*
X8440216Y9239707D01*
X8433308Y9228023D01*
X8427974Y9215526D01*
X8424418Y9202369D01*
X8422589Y9188907D01*
X8422589Y9175292D01*
X8424418Y9161830D01*
X8427974Y9148673D01*
X8433308Y9136176D01*
X8440216Y9124492D01*
X8448649Y9113774D01*
X8458454Y9104325D01*
X8469376Y9096248D01*
X8481314Y9089745D01*
X8494014Y9084818D01*
X8507272Y9081668D01*
X8520785Y9080347D01*
X8534400Y9080804D01*
X8547811Y9083040D01*
X8560816Y9087053D01*
X8573109Y9092793D01*
X8584590Y9100108D01*
X8595004Y9108897D01*
X8604097Y9119006D01*
X8611819Y9130182D01*
X8615832Y9138158D01*
X8618067Y9141104D01*
X8621268Y9143085D01*
X8624874Y9143746D01*
X8876792Y9143746D01*
X8884767Y9144508D01*
X8891981Y9146692D01*
X8898585Y9150248D01*
X8904782Y9155328D01*
X8916771Y9167317D01*
X8921851Y9173514D01*
X8925407Y9180118D01*
X8927592Y9187332D01*
X8928354Y9195308D01*
X8928354Y9232392D01*
X8927592Y9240367D01*
X8925407Y9247581D01*
X8921851Y9254185D01*
X8916771Y9260382D01*
X8904782Y9272371D01*
X8898585Y9277451D01*
X8891981Y9281007D01*
X8887764Y9282277D01*
X8884107Y9284258D01*
X8881567Y9287560D01*
X8880551Y9291574D01*
X8881211Y9295688D01*
X8883497Y9299194D01*
X8954871Y9370517D01*
X8959951Y9376714D01*
X8963507Y9383318D01*
X8965692Y9390532D01*
X8966454Y9398508D01*
X8966454Y9974884D01*
X8967216Y9978745D01*
X8969400Y9982047D01*
X9106154Y10119461D01*
X9109456Y10121646D01*
X9113367Y10122458D01*
X10043312Y10122458D01*
X10051288Y10123220D01*
X10058450Y10125405D01*
X10065105Y10128961D01*
X10071252Y10134041D01*
X10222992Y10285730D01*
X10228072Y10291927D01*
X10231577Y10298531D01*
X10233761Y10305745D01*
X10234574Y10313720D01*
X10234574Y11495278D01*
X10235336Y11499189D01*
X10237978Y11502948D01*
X10241076Y11505082D01*
X10244734Y11505895D01*
X10248442Y11505387D01*
X10256977Y11502491D01*
X10270388Y11499799D01*
X10284002Y11498935D01*
X10297617Y11499799D01*
X10311028Y11502491D01*
X10323931Y11506860D01*
X10336174Y11512905D01*
X10347553Y11520474D01*
X10357815Y11529517D01*
X10366806Y11539778D01*
X10374376Y11551107D01*
X10380421Y11563350D01*
X10384840Y11576304D01*
X10387482Y11589664D01*
X10388396Y11603278D01*
X10387482Y11616944D01*
X10384840Y11630304D01*
X10380421Y11643258D01*
X10374376Y11655501D01*
X10366806Y11666829D01*
X10357815Y11677091D01*
X10347553Y11686082D01*
X10336174Y11693702D01*
X10323931Y11699748D01*
X10311028Y11704116D01*
X10297617Y11706758D01*
X10290962Y11707215D01*
X10287254Y11708180D01*
X10284206Y11710416D01*
X10282174Y11713616D01*
X10281462Y11717375D01*
X10281462Y12017349D01*
X10282275Y12021413D01*
X10284714Y12024766D01*
X10288270Y12026900D01*
X10290606Y12027763D01*
X10295483Y12030811D01*
X10299496Y12034824D01*
X10302544Y12039701D01*
X10304475Y12045086D01*
X10305186Y12051385D01*
X10305186Y12150242D01*
X10304475Y12156490D01*
X10302544Y12161875D01*
X10299496Y12166752D01*
X10295483Y12170816D01*
X10290606Y12173864D01*
X10285222Y12175744D01*
X10278922Y12176455D01*
X10225074Y12176455D01*
X10218826Y12175744D01*
X10213390Y12173864D01*
X10209936Y12171680D01*
X10206380Y12170257D01*
X10202621Y12170257D01*
X10199116Y12171680D01*
X10195610Y12173864D01*
X10190226Y12175744D01*
X10183926Y12176455D01*
X10177119Y12176455D01*
X10177119Y12132157D01*
X10188702Y12132157D01*
X10192562Y12131395D01*
X10195864Y12129160D01*
X10198100Y12125858D01*
X10198862Y12121997D01*
X10198862Y12079630D01*
X10198100Y12075718D01*
X10195864Y12072416D01*
X10192562Y12070232D01*
X10188702Y12069470D01*
X10177119Y12069470D01*
X10177119Y12025122D01*
X10183926Y12025122D01*
X10190226Y12025833D01*
X10195052Y12026747D01*
X10198760Y12025884D01*
X10201910Y12023648D01*
X10203992Y12020397D01*
X10204754Y12016587D01*
X10204754Y11674703D01*
X10204094Y11671147D01*
X10193629Y11655501D01*
X10187584Y11643258D01*
X10183164Y11630304D01*
X10180523Y11616944D01*
X10179608Y11603278D01*
X10180523Y11589664D01*
X10183164Y11576304D01*
X10186162Y11567566D01*
X10186670Y11563858D01*
X10185806Y11560200D01*
X10183723Y11557152D01*
X10169448Y11542877D01*
X10164368Y11536680D01*
X10160812Y11530025D01*
X10158628Y11522862D01*
X10158425Y11520881D01*
X10157358Y11517223D01*
X10155021Y11514226D01*
X10151770Y11512296D01*
X10148011Y11511737D01*
X10144302Y11512550D01*
X10141153Y11514683D01*
X10137394Y11518493D01*
X10135158Y11521744D01*
X10134396Y11525656D01*
X10134396Y11681460D01*
X10133685Y11687708D01*
X10131806Y11693144D01*
X10128758Y11697970D01*
X10124694Y11702034D01*
X10119868Y11705082D01*
X10114432Y11707012D01*
X10108184Y11707672D01*
X10037622Y11707672D01*
X10033711Y11708485D01*
X10030409Y11710670D01*
X10028224Y11713972D01*
X10027462Y11717832D01*
X10027462Y11811812D01*
X10028224Y11815673D01*
X10030409Y11818975D01*
X10079380Y11867946D01*
X10084460Y11874093D01*
X10087965Y11880748D01*
X10090150Y11887911D01*
X10090962Y11895886D01*
X10090962Y12017146D01*
X10091775Y12021210D01*
X10094214Y12024614D01*
X10097770Y12026747D01*
X10100614Y12027763D01*
X10104120Y12029948D01*
X10107625Y12031319D01*
X10111384Y12031319D01*
X10114940Y12029948D01*
X10118394Y12027763D01*
X10123830Y12025833D01*
X10130078Y12025122D01*
X10136936Y12025122D01*
X10136936Y12069470D01*
X10125354Y12069470D01*
X10121442Y12070232D01*
X10118140Y12072416D01*
X10115956Y12075718D01*
X10115194Y12079630D01*
X10115194Y12121997D01*
X10115956Y12125858D01*
X10118140Y12129160D01*
X10121442Y12131395D01*
X10125354Y12132157D01*
X10136936Y12132157D01*
X10136936Y12176455D01*
X10130078Y12176455D01*
X10123830Y12175744D01*
X10118394Y12173864D01*
X10114940Y12171680D01*
X10111384Y12170257D01*
X10107625Y12170257D01*
X10104120Y12171680D01*
X10100614Y12173864D01*
X10095230Y12175744D01*
X10088930Y12176455D01*
X10035082Y12176455D01*
X10028834Y12175744D01*
X10023398Y12173864D01*
X10018572Y12170816D01*
X10014508Y12166752D01*
X10011460Y12161875D01*
X10009581Y12156490D01*
X10008870Y12150242D01*
X10008870Y12051385D01*
X10009581Y12045086D01*
X10011460Y12039701D01*
X10013848Y12035180D01*
X10014254Y12032335D01*
X10014254Y11915495D01*
X10013442Y11911584D01*
X10011257Y11908332D01*
X9962337Y11859361D01*
X9957257Y11853164D01*
X9953701Y11846560D01*
X9951516Y11839397D01*
X9950754Y11831421D01*
X9950754Y11716004D01*
X9949891Y11711940D01*
X9947503Y11708536D01*
X9943947Y11706402D01*
X9940137Y11705082D01*
X9935311Y11702034D01*
X9931247Y11697970D01*
X9928199Y11693144D01*
X9926320Y11687708D01*
X9925608Y11681460D01*
X9925608Y11525148D01*
X9926320Y11518849D01*
X9928199Y11513464D01*
X9931247Y11508587D01*
X9935311Y11504574D01*
X9940137Y11501526D01*
X9945573Y11499596D01*
X9951821Y11498884D01*
X10044226Y11498884D01*
X10048138Y11498122D01*
X10051440Y11495938D01*
X10104069Y11443309D01*
X10106253Y11440007D01*
X10107066Y11436096D01*
X10107066Y10358678D01*
X10106253Y10354818D01*
X10104069Y10351516D01*
X10005466Y10252913D01*
X10002215Y10250728D01*
X9998303Y10249966D01*
X9068308Y10249966D01*
X9060332Y10249154D01*
X9053118Y10246969D01*
X9046514Y10243464D01*
X9040266Y10238282D01*
X8850477Y10047732D01*
X8845448Y10041585D01*
X8841892Y10034981D01*
X8839708Y10027767D01*
X8838946Y10019792D01*
X8838946Y9443516D01*
X8838184Y9439605D01*
X8835948Y9436303D01*
X8813596Y9413951D01*
X8810294Y9411716D01*
X8806383Y9410954D01*
X8484108Y9410954D01*
X8476132Y9410192D01*
X8468918Y9408007D01*
X8462314Y9404451D01*
X8456117Y9399371D01*
X8329828Y9273082D01*
X8324748Y9266885D01*
X8321192Y9260281D01*
X8319008Y9253067D01*
X8318246Y9245092D01*
X8318246Y9081008D01*
X8319008Y9073032D01*
X8321192Y9065818D01*
X8324748Y9059214D01*
X8329828Y9053017D01*
X8422386Y8960459D01*
X8424418Y8957564D01*
X8425332Y8954109D01*
X8425027Y8950604D01*
X8424418Y8948369D01*
X8422589Y8934907D01*
X8422589Y8921292D01*
X8424418Y8907830D01*
X8427974Y8894673D01*
X8433308Y8882176D01*
X8440216Y8870492D01*
X8448649Y8859774D01*
X8458454Y8850325D01*
X8469376Y8842248D01*
X8481314Y8835745D01*
X8494014Y8830818D01*
X8507272Y8827668D01*
G37*
G36*
X3968750Y8963609D02*
G01*
X3968750Y9010650D01*
X3921709Y9010650D01*
X3922318Y9009176D01*
X3929227Y8997492D01*
X3937660Y8986774D01*
X3947464Y8977325D01*
X3958386Y8969248D01*
G37*
G36*
X4057650Y8963710D02*
G01*
X4062120Y8965793D01*
X4073601Y8973108D01*
X4084015Y8981897D01*
X4093108Y8992006D01*
X4100829Y9003182D01*
X4104589Y9010650D01*
X4057650Y9010650D01*
G37*
G36*
X4057650Y9099550D02*
G01*
X4104589Y9099550D01*
X4100829Y9107017D01*
X4093108Y9118193D01*
X4084015Y9128302D01*
X4073601Y9137091D01*
X4062120Y9144406D01*
X4057650Y9146489D01*
G37*
G36*
X3921709Y9099550D02*
G01*
X3968750Y9099550D01*
X3968750Y9146590D01*
X3958386Y9140952D01*
X3947464Y9132874D01*
X3937660Y9123426D01*
X3929227Y9112707D01*
X3922318Y9101023D01*
G37*
G36*
X4009796Y9207347D02*
G01*
X4023410Y9207804D01*
X4036822Y9210040D01*
X4049776Y9214053D01*
X4062120Y9219793D01*
X4073601Y9227108D01*
X4084015Y9235897D01*
X4093108Y9246006D01*
X4100829Y9257182D01*
X4106926Y9269323D01*
X4111396Y9282176D01*
X4114139Y9295536D01*
X4115054Y9309100D01*
X4114139Y9322663D01*
X4111396Y9336024D01*
X4106926Y9348876D01*
X4100829Y9361017D01*
X4093108Y9372193D01*
X4084015Y9382302D01*
X4073601Y9391091D01*
X4062120Y9398406D01*
X4049776Y9404146D01*
X4036822Y9408160D01*
X4023410Y9410395D01*
X4009796Y9410852D01*
X3996283Y9409531D01*
X3983024Y9406382D01*
X3970324Y9401454D01*
X3958386Y9394952D01*
X3947464Y9386874D01*
X3937660Y9377426D01*
X3929227Y9366707D01*
X3922318Y9355023D01*
X3916984Y9342526D01*
X3913428Y9329369D01*
X3911600Y9315907D01*
X3911600Y9302292D01*
X3913428Y9288830D01*
X3916984Y9275673D01*
X3922318Y9263176D01*
X3929227Y9251492D01*
X3937660Y9240774D01*
X3947464Y9231325D01*
X3958386Y9223248D01*
X3970324Y9216745D01*
X3983024Y9211818D01*
X3996283Y9208668D01*
G37*
G36*
X7438796Y9415322D02*
G01*
X7452410Y9415780D01*
X7465822Y9418066D01*
X7478775Y9422079D01*
X7491120Y9427819D01*
X7502601Y9435134D01*
X7513015Y9443923D01*
X7522108Y9453981D01*
X7529830Y9465208D01*
X7535925Y9477349D01*
X7540396Y9490202D01*
X7543139Y9503562D01*
X7544053Y9517126D01*
X7543139Y9530689D01*
X7540396Y9543999D01*
X7535925Y9556851D01*
X7529830Y9568992D01*
X7527544Y9572345D01*
X7525867Y9576409D01*
X7526121Y9580778D01*
X7528153Y9584639D01*
X7531608Y9587280D01*
X7535925Y9588246D01*
X7602423Y9588246D01*
X7606588Y9587382D01*
X7609992Y9584842D01*
X7612125Y9581184D01*
X7612532Y9576917D01*
X7611160Y9572904D01*
X7605318Y9563049D01*
X7599984Y9550501D01*
X7596428Y9537395D01*
X7594600Y9523933D01*
X7594600Y9510318D01*
X7596428Y9496806D01*
X7599984Y9483699D01*
X7605318Y9471202D01*
X7612227Y9459468D01*
X7620660Y9448800D01*
X7630464Y9439351D01*
X7641386Y9431274D01*
X7653324Y9424720D01*
X7666024Y9419844D01*
X7679283Y9416694D01*
X7692796Y9415322D01*
X7706410Y9415780D01*
X7719822Y9418066D01*
X7732775Y9422079D01*
X7745120Y9427819D01*
X7756601Y9435134D01*
X7767015Y9443923D01*
X7776108Y9453981D01*
X7783830Y9465208D01*
X7789925Y9477349D01*
X7794396Y9490202D01*
X7797139Y9503562D01*
X7798053Y9517126D01*
X7797139Y9530689D01*
X7794396Y9543999D01*
X7789925Y9556851D01*
X7783830Y9568992D01*
X7781544Y9572345D01*
X7779867Y9576409D01*
X7780121Y9580778D01*
X7782153Y9584639D01*
X7785608Y9587280D01*
X7789925Y9588246D01*
X7856423Y9588246D01*
X7860588Y9587382D01*
X7863992Y9584842D01*
X7866125Y9581184D01*
X7866532Y9576917D01*
X7865160Y9572904D01*
X7859318Y9563049D01*
X7853984Y9550501D01*
X7850428Y9537395D01*
X7848600Y9523933D01*
X7848600Y9510318D01*
X7850428Y9496806D01*
X7853984Y9483699D01*
X7859318Y9471202D01*
X7866227Y9459468D01*
X7874660Y9448800D01*
X7884464Y9439351D01*
X7895386Y9431274D01*
X7907324Y9424720D01*
X7920024Y9419844D01*
X7933283Y9416694D01*
X7946796Y9415322D01*
X7960410Y9415780D01*
X7973822Y9418066D01*
X7986775Y9422079D01*
X7999120Y9427819D01*
X8010601Y9435134D01*
X8021015Y9443923D01*
X8030108Y9453981D01*
X8037830Y9465208D01*
X8043925Y9477349D01*
X8048396Y9490202D01*
X8051139Y9503562D01*
X8052053Y9517126D01*
X8051139Y9530689D01*
X8048396Y9543999D01*
X8043925Y9556851D01*
X8037830Y9568992D01*
X8030108Y9580219D01*
X8021015Y9590328D01*
X8010601Y9599117D01*
X7999120Y9606432D01*
X7986775Y9612122D01*
X7976209Y9615424D01*
X7972602Y9617405D01*
X7970062Y9620707D01*
X7969097Y9624771D01*
X7969758Y9628835D01*
X7972044Y9632289D01*
X8053374Y9713620D01*
X8057134Y9716008D01*
X8061553Y9716566D01*
X8073796Y9715347D01*
X8087410Y9715804D01*
X8100822Y9718040D01*
X8113775Y9722053D01*
X8126120Y9727793D01*
X8137601Y9735108D01*
X8148015Y9743897D01*
X8157108Y9754006D01*
X8164830Y9765182D01*
X8170925Y9777323D01*
X8175396Y9790176D01*
X8178139Y9803536D01*
X8179053Y9817100D01*
X8178139Y9830663D01*
X8175396Y9844024D01*
X8170925Y9856876D01*
X8164830Y9869017D01*
X8157108Y9880193D01*
X8148015Y9890302D01*
X8137601Y9899091D01*
X8126120Y9906406D01*
X8114588Y9911791D01*
X8111388Y9914077D01*
X8109356Y9917379D01*
X8108696Y9921240D01*
X8109508Y9925050D01*
X8111744Y9928250D01*
X8114995Y9930384D01*
X8118856Y9931146D01*
X8158683Y9931146D01*
X8162594Y9930384D01*
X8165896Y9928148D01*
X8232698Y9861346D01*
X8234730Y9858451D01*
X8235645Y9854996D01*
X8235289Y9851440D01*
X8231428Y9837369D01*
X8229600Y9823907D01*
X8229600Y9810292D01*
X8231428Y9796830D01*
X8234984Y9783673D01*
X8240318Y9771176D01*
X8247227Y9759492D01*
X8255660Y9748774D01*
X8265464Y9739325D01*
X8276386Y9731248D01*
X8288324Y9724745D01*
X8301024Y9719818D01*
X8314283Y9716668D01*
X8327796Y9715347D01*
X8341410Y9715804D01*
X8354822Y9718040D01*
X8367775Y9722053D01*
X8380120Y9727793D01*
X8391601Y9735108D01*
X8402015Y9743897D01*
X8411108Y9754006D01*
X8418830Y9765182D01*
X8424926Y9777323D01*
X8429396Y9790176D01*
X8432139Y9803536D01*
X8433054Y9817100D01*
X8432139Y9830663D01*
X8429396Y9844024D01*
X8424926Y9856876D01*
X8418830Y9869017D01*
X8411108Y9880193D01*
X8402015Y9890302D01*
X8391601Y9899091D01*
X8380120Y9906406D01*
X8367775Y9912146D01*
X8354822Y9916160D01*
X8341410Y9918395D01*
X8327796Y9918852D01*
X8314283Y9917531D01*
X8301024Y9914382D01*
X8297925Y9913162D01*
X8294116Y9912502D01*
X8290306Y9913264D01*
X8287105Y9915448D01*
X8206282Y9996271D01*
X8200085Y10001351D01*
X8193481Y10004907D01*
X8186267Y10007092D01*
X8178292Y10007854D01*
X8026908Y10007854D01*
X8018932Y10007092D01*
X8011718Y10004907D01*
X8005114Y10001351D01*
X7998917Y9996271D01*
X7936128Y9933482D01*
X7931048Y9927285D01*
X7927492Y9920681D01*
X7925308Y9913467D01*
X7924546Y9905492D01*
X7924546Y9881768D01*
X7923631Y9877552D01*
X7921091Y9874148D01*
X7917383Y9872065D01*
X7913166Y9871659D01*
X7909102Y9873081D01*
X7906003Y9875977D01*
X7903108Y9880193D01*
X7894015Y9890302D01*
X7883601Y9899091D01*
X7872120Y9906406D01*
X7859775Y9912146D01*
X7846822Y9916160D01*
X7833410Y9918395D01*
X7819796Y9918852D01*
X7806283Y9917531D01*
X7793024Y9914382D01*
X7780324Y9909454D01*
X7768386Y9902952D01*
X7757464Y9894874D01*
X7747660Y9885426D01*
X7739227Y9874707D01*
X7732318Y9863023D01*
X7726984Y9850526D01*
X7723428Y9837369D01*
X7721600Y9823907D01*
X7721600Y9810292D01*
X7723428Y9796830D01*
X7726984Y9783673D01*
X7732318Y9771176D01*
X7739227Y9759492D01*
X7747660Y9748774D01*
X7750657Y9745929D01*
X7752943Y9742627D01*
X7753756Y9738715D01*
X7752994Y9734804D01*
X7750809Y9731451D01*
X7747508Y9729216D01*
X7743596Y9728454D01*
X7648905Y9728454D01*
X7645095Y9729216D01*
X7641844Y9731298D01*
X7639608Y9734499D01*
X7638745Y9738258D01*
X7639354Y9742119D01*
X7641386Y9745421D01*
X7649108Y9754006D01*
X7656830Y9765182D01*
X7662925Y9777323D01*
X7667396Y9790176D01*
X7670139Y9803536D01*
X7671053Y9817100D01*
X7670139Y9830663D01*
X7667396Y9844024D01*
X7662925Y9856876D01*
X7656830Y9869017D01*
X7649108Y9880193D01*
X7640015Y9890302D01*
X7629601Y9899091D01*
X7618120Y9906406D01*
X7605775Y9912146D01*
X7592822Y9916160D01*
X7579410Y9918395D01*
X7565796Y9918852D01*
X7552283Y9917531D01*
X7539024Y9914382D01*
X7526324Y9909454D01*
X7514386Y9902952D01*
X7503464Y9894874D01*
X7493660Y9885426D01*
X7485227Y9874707D01*
X7478318Y9863023D01*
X7472984Y9850526D01*
X7469428Y9837369D01*
X7467600Y9823907D01*
X7467600Y9810292D01*
X7469428Y9796830D01*
X7472984Y9783673D01*
X7478318Y9771176D01*
X7485227Y9759492D01*
X7493660Y9748774D01*
X7496657Y9745929D01*
X7498943Y9742627D01*
X7499756Y9738715D01*
X7498994Y9734804D01*
X7496809Y9731451D01*
X7493508Y9729216D01*
X7489596Y9728454D01*
X7394905Y9728454D01*
X7391095Y9729216D01*
X7387844Y9731298D01*
X7385608Y9734499D01*
X7384745Y9738258D01*
X7385354Y9742119D01*
X7387386Y9745421D01*
X7395108Y9754006D01*
X7402830Y9765182D01*
X7408925Y9777323D01*
X7413396Y9790176D01*
X7416139Y9803536D01*
X7417053Y9817100D01*
X7416139Y9830663D01*
X7413396Y9844024D01*
X7408925Y9856876D01*
X7402830Y9869017D01*
X7395108Y9880193D01*
X7386015Y9890302D01*
X7375601Y9899091D01*
X7364120Y9906406D01*
X7351775Y9912146D01*
X7338822Y9916160D01*
X7325410Y9918395D01*
X7311796Y9918852D01*
X7298283Y9917531D01*
X7285024Y9914382D01*
X7272324Y9909454D01*
X7260386Y9902952D01*
X7249464Y9894874D01*
X7239660Y9885426D01*
X7231227Y9874707D01*
X7224318Y9863023D01*
X7218984Y9850526D01*
X7215428Y9837369D01*
X7213600Y9823907D01*
X7213600Y9810292D01*
X7215428Y9796830D01*
X7218984Y9783673D01*
X7224318Y9771176D01*
X7231227Y9759492D01*
X7239660Y9748774D01*
X7242657Y9745929D01*
X7244943Y9742627D01*
X7245756Y9738715D01*
X7244994Y9734804D01*
X7242809Y9731451D01*
X7239508Y9729216D01*
X7235596Y9728454D01*
X7140905Y9728454D01*
X7137095Y9729216D01*
X7133844Y9731298D01*
X7131608Y9734499D01*
X7130745Y9738258D01*
X7131354Y9742119D01*
X7133386Y9745421D01*
X7141108Y9754006D01*
X7148830Y9765182D01*
X7154925Y9777323D01*
X7159396Y9790176D01*
X7162139Y9803536D01*
X7163053Y9817100D01*
X7162139Y9830663D01*
X7159396Y9844024D01*
X7154925Y9856876D01*
X7148830Y9869017D01*
X7141108Y9880193D01*
X7132015Y9890302D01*
X7121601Y9899091D01*
X7110120Y9906406D01*
X7097775Y9912146D01*
X7084822Y9916160D01*
X7071410Y9918395D01*
X7057796Y9918852D01*
X7044283Y9917531D01*
X7031024Y9914382D01*
X7018324Y9909454D01*
X7006386Y9902952D01*
X6995464Y9894874D01*
X6985660Y9885426D01*
X6977227Y9874707D01*
X6970318Y9863023D01*
X6964984Y9850526D01*
X6961428Y9837369D01*
X6959600Y9823907D01*
X6959600Y9810292D01*
X6961428Y9796830D01*
X6964984Y9783673D01*
X6970318Y9771176D01*
X6977227Y9759492D01*
X6985660Y9748774D01*
X6988657Y9745929D01*
X6990943Y9742627D01*
X6991756Y9738715D01*
X6990994Y9734804D01*
X6988809Y9731451D01*
X6985508Y9729216D01*
X6981596Y9728454D01*
X6886905Y9728454D01*
X6883095Y9729216D01*
X6879844Y9731298D01*
X6877608Y9734499D01*
X6876745Y9738258D01*
X6877354Y9742119D01*
X6879386Y9745421D01*
X6887108Y9754006D01*
X6894830Y9765182D01*
X6900925Y9777323D01*
X6905396Y9790176D01*
X6908139Y9803536D01*
X6909053Y9817100D01*
X6908139Y9830663D01*
X6905396Y9844024D01*
X6900925Y9856876D01*
X6894830Y9869017D01*
X6887108Y9880193D01*
X6878015Y9890302D01*
X6867601Y9899091D01*
X6856120Y9906406D01*
X6843775Y9912146D01*
X6830822Y9916160D01*
X6817410Y9918395D01*
X6803796Y9918852D01*
X6790283Y9917531D01*
X6777024Y9914382D01*
X6764324Y9909454D01*
X6752386Y9902952D01*
X6741464Y9894874D01*
X6731660Y9885426D01*
X6723227Y9874707D01*
X6716318Y9863023D01*
X6710984Y9850526D01*
X6707428Y9837369D01*
X6705600Y9823907D01*
X6705600Y9810292D01*
X6707428Y9796830D01*
X6710984Y9783673D01*
X6716318Y9771176D01*
X6723227Y9759492D01*
X6731660Y9748774D01*
X6734657Y9745929D01*
X6736943Y9742627D01*
X6737756Y9738715D01*
X6736994Y9734804D01*
X6734809Y9731451D01*
X6731508Y9729216D01*
X6727596Y9728454D01*
X6632905Y9728454D01*
X6629095Y9729216D01*
X6625844Y9731298D01*
X6623608Y9734499D01*
X6622745Y9738258D01*
X6623354Y9742119D01*
X6625386Y9745421D01*
X6633108Y9754006D01*
X6640830Y9765182D01*
X6646925Y9777323D01*
X6651396Y9790176D01*
X6654139Y9803536D01*
X6655053Y9817100D01*
X6654139Y9830663D01*
X6651396Y9844024D01*
X6646925Y9856876D01*
X6640830Y9869017D01*
X6633108Y9880193D01*
X6624015Y9890302D01*
X6613601Y9899091D01*
X6602120Y9906406D01*
X6589775Y9912146D01*
X6576822Y9916160D01*
X6563410Y9918395D01*
X6549796Y9918852D01*
X6536283Y9917531D01*
X6523024Y9914382D01*
X6510324Y9909454D01*
X6498386Y9902952D01*
X6487464Y9894874D01*
X6477660Y9885426D01*
X6469227Y9874707D01*
X6462318Y9863023D01*
X6456984Y9850526D01*
X6453428Y9837369D01*
X6451600Y9823907D01*
X6451600Y9810292D01*
X6453428Y9796830D01*
X6456984Y9783673D01*
X6462318Y9771176D01*
X6469227Y9759492D01*
X6480911Y9744557D01*
X6481724Y9740646D01*
X6480962Y9736734D01*
X6478727Y9733381D01*
X6464096Y9718751D01*
X6460794Y9716516D01*
X6456883Y9715754D01*
X6364071Y9715754D01*
X6359855Y9716668D01*
X6356400Y9719259D01*
X6354318Y9723069D01*
X6354013Y9727387D01*
X6355537Y9731451D01*
X6370015Y9743897D01*
X6379108Y9754006D01*
X6386830Y9765182D01*
X6392926Y9777323D01*
X6397396Y9790176D01*
X6400139Y9803536D01*
X6401054Y9817100D01*
X6400139Y9830663D01*
X6397396Y9844024D01*
X6392926Y9856876D01*
X6386830Y9869017D01*
X6379108Y9880193D01*
X6370015Y9890302D01*
X6359601Y9899091D01*
X6348120Y9906406D01*
X6343446Y9908590D01*
X6340348Y9910826D01*
X6338265Y9914026D01*
X6337554Y9917785D01*
X6337554Y9956292D01*
X6336792Y9964267D01*
X6334607Y9971481D01*
X6331051Y9978085D01*
X6325971Y9984282D01*
X6059982Y10250271D01*
X6053785Y10255351D01*
X6047181Y10258907D01*
X6039967Y10261092D01*
X6031992Y10261854D01*
X5303316Y10261854D01*
X5299405Y10262616D01*
X5296103Y10264851D01*
X5291480Y10269474D01*
X5289194Y10272979D01*
X5288534Y10277195D01*
X5289600Y10281259D01*
X5292293Y10284561D01*
X5296052Y10286441D01*
X5300827Y10287762D01*
X5309616Y10291826D01*
X5317540Y10297414D01*
X5324398Y10304272D01*
X5329986Y10312196D01*
X5334050Y10320985D01*
X5335473Y10326319D01*
X5337505Y10330180D01*
X5341010Y10332872D01*
X5345277Y10333837D01*
X5349595Y10332872D01*
X5353100Y10330180D01*
X5355132Y10326319D01*
X5356555Y10320985D01*
X5360619Y10312196D01*
X5366207Y10304272D01*
X5373065Y10297414D01*
X5380990Y10291826D01*
X5389778Y10287762D01*
X5399125Y10285222D01*
X5408777Y10284409D01*
X5418480Y10285222D01*
X5427827Y10287762D01*
X5436616Y10291826D01*
X5444540Y10297414D01*
X5451398Y10304272D01*
X5456986Y10312196D01*
X5461050Y10320985D01*
X5462473Y10326319D01*
X5464505Y10330180D01*
X5468010Y10332872D01*
X5472277Y10333837D01*
X5476595Y10332872D01*
X5480100Y10330180D01*
X5482132Y10326319D01*
X5483555Y10320985D01*
X5487619Y10312196D01*
X5493207Y10304272D01*
X5500065Y10297414D01*
X5507990Y10291826D01*
X5516778Y10287762D01*
X5526125Y10285222D01*
X5535777Y10284409D01*
X5545480Y10285222D01*
X5554827Y10287762D01*
X5563616Y10291826D01*
X5571540Y10297414D01*
X5578398Y10304272D01*
X5583986Y10312196D01*
X5588050Y10320985D01*
X5590590Y10330332D01*
X5591454Y10340441D01*
X5591454Y10375646D01*
X5592216Y10379506D01*
X5594451Y10382808D01*
X5597702Y10385044D01*
X5601614Y10385806D01*
X5671769Y10385806D01*
X5675579Y10385044D01*
X5678830Y10382961D01*
X5686196Y10375849D01*
X5694883Y10369854D01*
X5704433Y10365333D01*
X5714593Y10362387D01*
X5725058Y10361117D01*
X5735624Y10361574D01*
X5745937Y10363657D01*
X5755843Y10367416D01*
X5764987Y10372699D01*
X5773166Y10379354D01*
X5780176Y10387279D01*
X5785815Y10396220D01*
X5789930Y10405922D01*
X5792470Y10416184D01*
X5793333Y10426700D01*
X5792470Y10437215D01*
X5789930Y10447477D01*
X5785815Y10457180D01*
X5780176Y10466120D01*
X5769610Y10478211D01*
X5768594Y10482580D01*
X5768594Y10534091D01*
X5769356Y10538002D01*
X5771591Y10541254D01*
X5774893Y10543489D01*
X5778754Y10544251D01*
X5846724Y10544251D01*
X5853023Y10544962D01*
X5858408Y10546842D01*
X5863285Y10549890D01*
X5867298Y10553954D01*
X5870346Y10558780D01*
X5872276Y10564215D01*
X5872937Y10570464D01*
X5872937Y10669320D01*
X5872276Y10675620D01*
X5870346Y10681004D01*
X5867298Y10685881D01*
X5863285Y10689894D01*
X5858408Y10692942D01*
X5853023Y10694873D01*
X5846724Y10695584D01*
X5737860Y10695584D01*
X5731611Y10694873D01*
X5726226Y10692942D01*
X5721350Y10689894D01*
X5717286Y10685881D01*
X5714238Y10681004D01*
X5712358Y10675620D01*
X5711647Y10669320D01*
X5711647Y10601401D01*
X5710885Y10597489D01*
X5708650Y10594238D01*
X5699150Y10584688D01*
X5693714Y10578084D01*
X5689955Y10571022D01*
X5687618Y10563352D01*
X5686806Y10554919D01*
X5686806Y10482427D01*
X5685993Y10478465D01*
X5683656Y10475112D01*
X5678830Y10470438D01*
X5675579Y10468356D01*
X5671769Y10467594D01*
X5598922Y10467594D01*
X5594604Y10468559D01*
X5591149Y10471251D01*
X5589117Y10475112D01*
X5588050Y10479024D01*
X5583986Y10487812D01*
X5578398Y10495737D01*
X5571540Y10502595D01*
X5563616Y10508183D01*
X5554827Y10512247D01*
X5545480Y10514787D01*
X5535777Y10515600D01*
X5526125Y10514787D01*
X5516778Y10512247D01*
X5507990Y10508183D01*
X5500065Y10502595D01*
X5493207Y10495737D01*
X5487619Y10487812D01*
X5483555Y10479024D01*
X5482132Y10473690D01*
X5480100Y10469778D01*
X5476595Y10467136D01*
X5472277Y10466171D01*
X5468010Y10467136D01*
X5464505Y10469778D01*
X5462473Y10473690D01*
X5461050Y10479024D01*
X5456986Y10487812D01*
X5451398Y10495737D01*
X5444540Y10502595D01*
X5436616Y10508183D01*
X5427827Y10512247D01*
X5418480Y10514787D01*
X5408777Y10515600D01*
X5399125Y10514787D01*
X5389778Y10512247D01*
X5380990Y10508183D01*
X5373065Y10502595D01*
X5366207Y10495737D01*
X5360619Y10487812D01*
X5356555Y10479024D01*
X5355132Y10473690D01*
X5353100Y10469778D01*
X5349595Y10467136D01*
X5345277Y10466171D01*
X5341010Y10467136D01*
X5337505Y10469778D01*
X5335473Y10473690D01*
X5334050Y10479024D01*
X5329986Y10487812D01*
X5324398Y10495737D01*
X5317540Y10502595D01*
X5309616Y10508183D01*
X5300827Y10512247D01*
X5291480Y10514787D01*
X5281777Y10515600D01*
X5272125Y10514787D01*
X5267147Y10514126D01*
X5263591Y10515193D01*
X5260644Y10517428D01*
X5258714Y10520578D01*
X5258054Y10524236D01*
X5258054Y10591292D01*
X5257292Y10599267D01*
X5255107Y10606481D01*
X5251551Y10613085D01*
X5246776Y10618876D01*
X5240985Y10623651D01*
X5234381Y10627207D01*
X5227167Y10629392D01*
X5219192Y10630154D01*
X4940808Y10630154D01*
X4932934Y10629392D01*
X4925771Y10627258D01*
X4919116Y10623702D01*
X4912918Y10618673D01*
X4894376Y10600232D01*
X4891074Y10598048D01*
X4887214Y10597286D01*
X4883302Y10598048D01*
X4880000Y10600283D01*
X4877816Y10603585D01*
X4877054Y10607446D01*
X4877054Y10629392D01*
X4876292Y10637367D01*
X4874107Y10644581D01*
X4870551Y10651185D01*
X4865471Y10657382D01*
X4788560Y10734294D01*
X4786325Y10737596D01*
X4785563Y10741507D01*
X4786325Y10745368D01*
X4788560Y10748670D01*
X4791862Y10750854D01*
X4795723Y10751616D01*
X4845913Y10751616D01*
X4853889Y10752429D01*
X4861052Y10754614D01*
X4867706Y10758170D01*
X4873853Y10763250D01*
X4927549Y10816945D01*
X4932629Y10823092D01*
X4936185Y10829747D01*
X4938369Y10836910D01*
X4939131Y10844885D01*
X4939131Y10915802D01*
X4939944Y10919663D01*
X4942128Y10922965D01*
X4943398Y10924235D01*
X4948986Y10932210D01*
X4953050Y10940999D01*
X4954473Y10946282D01*
X4956505Y10950194D01*
X4960010Y10952886D01*
X4964277Y10953800D01*
X4968595Y10952886D01*
X4972100Y10950194D01*
X4974132Y10946282D01*
X4975555Y10940999D01*
X4979619Y10932210D01*
X4985207Y10924235D01*
X4986477Y10922965D01*
X4988661Y10919663D01*
X4989423Y10915802D01*
X4989423Y10911179D01*
X4990236Y10903204D01*
X4992420Y10896041D01*
X4995926Y10889437D01*
X5001006Y10883239D01*
X5039817Y10844428D01*
X5046014Y10839348D01*
X5052618Y10835792D01*
X5059832Y10833608D01*
X5067808Y10832846D01*
X5244998Y10832846D01*
X5253939Y10833912D01*
X5261051Y10836351D01*
X5267553Y10840161D01*
X5273548Y10845444D01*
X5309616Y10884306D01*
X5313578Y10889335D01*
X5317185Y10896041D01*
X5319369Y10903204D01*
X5320131Y10911179D01*
X5320131Y10915802D01*
X5320944Y10919663D01*
X5323128Y10922965D01*
X5324398Y10924235D01*
X5329986Y10932210D01*
X5334050Y10940999D01*
X5335473Y10946282D01*
X5337505Y10950194D01*
X5341010Y10952886D01*
X5345277Y10953800D01*
X5349595Y10952886D01*
X5353100Y10950194D01*
X5355132Y10946282D01*
X5356555Y10940999D01*
X5360619Y10932210D01*
X5366207Y10924235D01*
X5373065Y10917377D01*
X5380990Y10911840D01*
X5389778Y10907725D01*
X5399125Y10905236D01*
X5408777Y10904372D01*
X5418480Y10905236D01*
X5427827Y10907725D01*
X5436616Y10911840D01*
X5444540Y10917377D01*
X5451398Y10924235D01*
X5456986Y10932210D01*
X5461050Y10940999D01*
X5462473Y10946282D01*
X5464505Y10950194D01*
X5468010Y10952886D01*
X5472277Y10953800D01*
X5476595Y10952886D01*
X5480100Y10950194D01*
X5482132Y10946282D01*
X5483555Y10940999D01*
X5487619Y10932210D01*
X5493207Y10924235D01*
X5500065Y10917377D01*
X5507990Y10911840D01*
X5516778Y10907725D01*
X5526125Y10905236D01*
X5535777Y10904372D01*
X5545480Y10905236D01*
X5554827Y10907725D01*
X5563616Y10911840D01*
X5571540Y10917377D01*
X5578398Y10924235D01*
X5583986Y10932210D01*
X5588050Y10940999D01*
X5590590Y10950346D01*
X5591454Y10960455D01*
X5591454Y10971530D01*
X5592216Y10975441D01*
X5594451Y10978692D01*
X5597702Y10980928D01*
X5601614Y10981690D01*
X5888939Y10981690D01*
X5892850Y10980928D01*
X5896152Y10978692D01*
X6080048Y10794796D01*
X6082284Y10791494D01*
X6083046Y10787583D01*
X6083046Y10376408D01*
X6083808Y10368432D01*
X6085992Y10361218D01*
X6089548Y10354614D01*
X6094628Y10348417D01*
X6284417Y10158628D01*
X6290614Y10153548D01*
X6297218Y10149992D01*
X6304432Y10147808D01*
X6312408Y10147046D01*
X7149592Y10147046D01*
X7157567Y10147808D01*
X7164781Y10149992D01*
X7171385Y10153548D01*
X7177582Y10158628D01*
X7228890Y10209936D01*
X7231735Y10211917D01*
X7235088Y10212882D01*
X7238593Y10212578D01*
X7242759Y10211511D01*
X7257135Y10209682D01*
X7271664Y10209682D01*
X7286091Y10211511D01*
X7300112Y10215118D01*
X7313625Y10220452D01*
X7326375Y10227462D01*
X7338110Y10235996D01*
X7348677Y10245953D01*
X7357973Y10257129D01*
X7365746Y10269423D01*
X7371892Y10282529D01*
X7376414Y10296347D01*
X7379106Y10310622D01*
X7380020Y10325100D01*
X7379106Y10339578D01*
X7376414Y10353852D01*
X7371892Y10367670D01*
X7370572Y10372496D01*
X7371283Y10376560D01*
X7373518Y10380014D01*
X7417003Y10423448D01*
X7420305Y10425684D01*
X7424216Y10426446D01*
X7432090Y10426446D01*
X7436002Y10425633D01*
X7439355Y10423398D01*
X7441539Y10420045D01*
X7442250Y10416082D01*
X7441336Y10412171D01*
X7439050Y10408869D01*
X7434122Y10404246D01*
X7424877Y10393070D01*
X7417053Y10380827D01*
X7410907Y10367670D01*
X7406386Y10353852D01*
X7403693Y10339578D01*
X7402779Y10325100D01*
X7403693Y10310622D01*
X7406386Y10296347D01*
X7410907Y10282529D01*
X7417053Y10269423D01*
X7424877Y10257129D01*
X7434122Y10245953D01*
X7444689Y10235996D01*
X7456424Y10227462D01*
X7469174Y10220452D01*
X7482687Y10215118D01*
X7496759Y10211511D01*
X7511135Y10209682D01*
X7525664Y10209682D01*
X7540091Y10211511D01*
X7554112Y10215118D01*
X7562240Y10218369D01*
X7566101Y10219080D01*
X7569911Y10218267D01*
X7573162Y10216083D01*
X7643317Y10145928D01*
X7649514Y10140848D01*
X7656118Y10137292D01*
X7663332Y10135108D01*
X7671308Y10134346D01*
X7822692Y10134346D01*
X7830667Y10135108D01*
X7837881Y10137292D01*
X7844485Y10140848D01*
X7850682Y10145928D01*
X7988503Y10283748D01*
X7991805Y10285984D01*
X7995716Y10286746D01*
X8343392Y10286746D01*
X8351367Y10287508D01*
X8358581Y10289692D01*
X8365185Y10293248D01*
X8371382Y10298328D01*
X8573871Y10500817D01*
X8578951Y10507014D01*
X8582507Y10513618D01*
X8584692Y10520832D01*
X8585454Y10528808D01*
X8585454Y10544200D01*
X8586216Y10548061D01*
X8588451Y10551363D01*
X8591702Y10553598D01*
X8603183Y10555071D01*
X8608618Y10556951D01*
X8613444Y10559999D01*
X8617508Y10564063D01*
X8620556Y10568889D01*
X8622436Y10574324D01*
X8623147Y10580573D01*
X8623147Y10679430D01*
X8622436Y10685678D01*
X8620556Y10691114D01*
X8617508Y10695940D01*
X8613444Y10700004D01*
X8611260Y10701375D01*
X8608314Y10704220D01*
X8606688Y10707979D01*
X8606688Y10712043D01*
X8608314Y10715802D01*
X8611260Y10718596D01*
X8613444Y10719968D01*
X8617508Y10724032D01*
X8620556Y10728909D01*
X8622436Y10734294D01*
X8623147Y10740542D01*
X8623147Y10758627D01*
X8576360Y10758627D01*
X8576360Y10715802D01*
X8575598Y10711942D01*
X8573363Y10708640D01*
X8570061Y10706455D01*
X8566200Y10705642D01*
X8518804Y10705642D01*
X8514943Y10706455D01*
X8511641Y10708640D01*
X8509406Y10711942D01*
X8508644Y10715802D01*
X8508644Y10758627D01*
X8461857Y10758627D01*
X8461857Y10740542D01*
X8462568Y10734294D01*
X8464448Y10728909D01*
X8467496Y10724032D01*
X8471560Y10719968D01*
X8473744Y10718596D01*
X8476691Y10715802D01*
X8478316Y10712043D01*
X8478316Y10707979D01*
X8476691Y10704220D01*
X8473744Y10701375D01*
X8471560Y10700004D01*
X8467496Y10695940D01*
X8464448Y10691114D01*
X8462568Y10685678D01*
X8461857Y10679430D01*
X8461857Y10580573D01*
X8462568Y10574324D01*
X8464448Y10568889D01*
X8467496Y10564063D01*
X8471560Y10559999D01*
X8476386Y10556951D01*
X8481822Y10555071D01*
X8488070Y10554360D01*
X8494369Y10554360D01*
X8498281Y10553598D01*
X8501583Y10551363D01*
X8503767Y10548061D01*
X8504529Y10544200D01*
X8503767Y10540288D01*
X8501583Y10536986D01*
X8330996Y10366451D01*
X8327694Y10364216D01*
X8323783Y10363454D01*
X7976108Y10363454D01*
X7968132Y10362692D01*
X7960918Y10360507D01*
X7954314Y10356951D01*
X7948117Y10351871D01*
X7904835Y10308539D01*
X7901431Y10306304D01*
X7897418Y10305592D01*
X7893456Y10306456D01*
X7890154Y10308844D01*
X7888071Y10312349D01*
X7887462Y10316362D01*
X7888020Y10325100D01*
X7887106Y10339578D01*
X7884414Y10353852D01*
X7880096Y10367111D01*
X7879638Y10370769D01*
X7880502Y10374376D01*
X7882585Y10377424D01*
X7988401Y10483291D01*
X7993837Y10489844D01*
X7997596Y10496905D01*
X7999933Y10504576D01*
X8000746Y10513060D01*
X8000746Y10544200D01*
X8001508Y10548061D01*
X8003743Y10551363D01*
X8007045Y10553598D01*
X8010906Y10554360D01*
X8086902Y10554360D01*
X8093202Y10555071D01*
X8098586Y10556951D01*
X8103463Y10559999D01*
X8107527Y10564063D01*
X8110575Y10568889D01*
X8112455Y10574324D01*
X8113115Y10580065D01*
X8114182Y10583621D01*
X8116417Y10586516D01*
X8119567Y10588447D01*
X8123174Y10589107D01*
X8196681Y10589107D01*
X8200593Y10588345D01*
X8203844Y10586110D01*
X8206079Y10582808D01*
X8206841Y10578947D01*
X8206841Y10570565D01*
X8207552Y10564317D01*
X8209432Y10558881D01*
X8212480Y10554055D01*
X8216544Y10549991D01*
X8221421Y10546943D01*
X8226806Y10545064D01*
X8233054Y10544352D01*
X8341918Y10544352D01*
X8348218Y10545064D01*
X8353602Y10546943D01*
X8358479Y10549991D01*
X8362492Y10554055D01*
X8365540Y10558881D01*
X8367471Y10564317D01*
X8368131Y10570565D01*
X8368131Y10669422D01*
X8367471Y10675670D01*
X8365540Y10681106D01*
X8362492Y10685932D01*
X8358479Y10689996D01*
X8353602Y10693044D01*
X8348218Y10694924D01*
X8341918Y10695635D01*
X8233054Y10695635D01*
X8226806Y10694924D01*
X8221421Y10693044D01*
X8216544Y10689996D01*
X8212480Y10685932D01*
X8209432Y10681106D01*
X8208264Y10677702D01*
X8206130Y10674146D01*
X8202726Y10671759D01*
X8198662Y10670895D01*
X8123174Y10670895D01*
X8119567Y10671556D01*
X8116417Y10673486D01*
X8114182Y10676432D01*
X8113115Y10679938D01*
X8112455Y10685678D01*
X8110575Y10691114D01*
X8107527Y10695940D01*
X8103463Y10700004D01*
X8101228Y10701375D01*
X8098281Y10704220D01*
X8096707Y10707979D01*
X8096707Y10712043D01*
X8098281Y10715802D01*
X8101228Y10718596D01*
X8103463Y10719968D01*
X8107527Y10724032D01*
X8110575Y10728909D01*
X8112455Y10734294D01*
X8113166Y10740542D01*
X8113166Y10839399D01*
X8112455Y10845698D01*
X8110575Y10851083D01*
X8107527Y10855960D01*
X8103463Y10860024D01*
X8098586Y10863072D01*
X8093202Y10864951D01*
X8086902Y10865662D01*
X7978089Y10865662D01*
X7971790Y10864951D01*
X7966405Y10863072D01*
X7961528Y10860024D01*
X7957515Y10855960D01*
X7954467Y10851083D01*
X7952587Y10845749D01*
X7951774Y10838027D01*
X7950657Y10834268D01*
X7948117Y10831220D01*
X7941259Y10825581D01*
X7933080Y10817402D01*
X7928000Y10811205D01*
X7924444Y10804601D01*
X7922259Y10797387D01*
X7921548Y10789920D01*
X7922259Y10782452D01*
X7924444Y10775238D01*
X7928000Y10768634D01*
X7930184Y10765993D01*
X7931962Y10762742D01*
X7932470Y10759033D01*
X7931607Y10755426D01*
X7929524Y10752328D01*
X7683296Y10506151D01*
X7679994Y10503916D01*
X7676083Y10503154D01*
X7404608Y10503154D01*
X7396632Y10502392D01*
X7389418Y10500207D01*
X7382814Y10496651D01*
X7376617Y10491571D01*
X7319162Y10434116D01*
X7315962Y10431932D01*
X7312101Y10431170D01*
X7308240Y10431881D01*
X7300112Y10435082D01*
X7286091Y10438688D01*
X7271664Y10440517D01*
X7257135Y10440517D01*
X7242759Y10438688D01*
X7228687Y10435082D01*
X7215174Y10429748D01*
X7202424Y10422737D01*
X7190689Y10414203D01*
X7180122Y10404246D01*
X7170877Y10393070D01*
X7163053Y10380827D01*
X7156907Y10367670D01*
X7152386Y10353852D01*
X7149693Y10339578D01*
X7148779Y10325100D01*
X7149693Y10310622D01*
X7152386Y10296347D01*
X7156907Y10282529D01*
X7163053Y10269423D01*
X7165238Y10266019D01*
X7166559Y10262870D01*
X7166762Y10259466D01*
X7165797Y10256164D01*
X7163816Y10253370D01*
X7137196Y10226751D01*
X7133894Y10224516D01*
X7129983Y10223754D01*
X7096709Y10223754D01*
X7092797Y10224566D01*
X7089444Y10226802D01*
X7087260Y10230154D01*
X7086549Y10234117D01*
X7087463Y10238028D01*
X7089749Y10241330D01*
X7094677Y10245953D01*
X7103973Y10257129D01*
X7111746Y10269423D01*
X7113778Y10273741D01*
X7061758Y10273741D01*
X7061758Y10233914D01*
X7060996Y10230002D01*
X7058761Y10226751D01*
X7055459Y10224516D01*
X7051598Y10223754D01*
X6969201Y10223754D01*
X6965340Y10224516D01*
X6962038Y10226751D01*
X6959803Y10230002D01*
X6959041Y10233914D01*
X6959041Y10273741D01*
X6907022Y10273741D01*
X6909053Y10269423D01*
X6916877Y10257129D01*
X6926122Y10245953D01*
X6931050Y10241330D01*
X6933387Y10238028D01*
X6934250Y10234117D01*
X6933539Y10230154D01*
X6931355Y10226802D01*
X6928002Y10224566D01*
X6924090Y10223754D01*
X6332016Y10223754D01*
X6328105Y10224516D01*
X6324803Y10226751D01*
X6162751Y10388803D01*
X6160516Y10392105D01*
X6159754Y10396016D01*
X6159754Y10807192D01*
X6158992Y10815167D01*
X6156807Y10822381D01*
X6153251Y10828985D01*
X6148171Y10835182D01*
X5936538Y11046815D01*
X5930341Y11051895D01*
X5923737Y11055451D01*
X5916523Y11057636D01*
X5908548Y11058398D01*
X5601614Y11058398D01*
X5597702Y11059160D01*
X5594451Y11061395D01*
X5592216Y11064646D01*
X5591454Y11068558D01*
X5591454Y11079530D01*
X5590590Y11089640D01*
X5588050Y11099038D01*
X5583986Y11107826D01*
X5578398Y11115751D01*
X5571540Y11122609D01*
X5563616Y11128146D01*
X5554827Y11132261D01*
X5545480Y11134750D01*
X5535777Y11135614D01*
X5526125Y11134750D01*
X5516778Y11132261D01*
X5507990Y11128146D01*
X5500065Y11122609D01*
X5493207Y11115751D01*
X5487619Y11107826D01*
X5483555Y11099038D01*
X5482132Y11093704D01*
X5480100Y11089792D01*
X5476595Y11087100D01*
X5472277Y11086185D01*
X5468010Y11087100D01*
X5464505Y11089792D01*
X5462473Y11093704D01*
X5461050Y11099038D01*
X5456986Y11107826D01*
X5451398Y11115751D01*
X5444540Y11122609D01*
X5436616Y11128146D01*
X5427827Y11132261D01*
X5418480Y11134750D01*
X5408777Y11135614D01*
X5399125Y11134750D01*
X5389778Y11132261D01*
X5380990Y11128146D01*
X5373065Y11122609D01*
X5366207Y11115751D01*
X5360619Y11107826D01*
X5356555Y11099038D01*
X5355132Y11093704D01*
X5353100Y11089792D01*
X5349595Y11087100D01*
X5345277Y11086185D01*
X5341010Y11087100D01*
X5337505Y11089792D01*
X5335473Y11093704D01*
X5334050Y11099038D01*
X5329986Y11107826D01*
X5324398Y11115751D01*
X5317540Y11122609D01*
X5309616Y11128146D01*
X5300827Y11132261D01*
X5292191Y11134598D01*
X5288381Y11136477D01*
X5285740Y11139779D01*
X5284673Y11143843D01*
X5285333Y11148009D01*
X5287619Y11151565D01*
X5313781Y11177727D01*
X5318861Y11183924D01*
X5322874Y11191443D01*
X5325059Y11194186D01*
X5328056Y11196066D01*
X5331510Y11196777D01*
X5336286Y11196929D01*
X5342686Y11197640D01*
X5348122Y11199520D01*
X5352948Y11202568D01*
X5357012Y11206632D01*
X5360060Y11211509D01*
X5361940Y11216894D01*
X5362651Y11223193D01*
X5362651Y11332006D01*
X5361940Y11338306D01*
X5360060Y11343690D01*
X5357012Y11348567D01*
X5352948Y11352631D01*
X5348122Y11355679D01*
X5342686Y11357559D01*
X5336438Y11358270D01*
X5237581Y11358270D01*
X5231282Y11357559D01*
X5225897Y11355679D01*
X5221020Y11352631D01*
X5217007Y11348567D01*
X5215585Y11346332D01*
X5212791Y11343386D01*
X5209032Y11341811D01*
X5204968Y11341811D01*
X5201208Y11343386D01*
X5198414Y11346332D01*
X5196992Y11348567D01*
X5192979Y11352631D01*
X5188102Y11355679D01*
X5182717Y11357559D01*
X5175504Y11358270D01*
X5171643Y11359032D01*
X5168341Y11361216D01*
X5166156Y11364518D01*
X5165344Y11368430D01*
X5165344Y11549583D01*
X5166156Y11553494D01*
X5168341Y11556796D01*
X5448706Y11837162D01*
X5452008Y11839346D01*
X5455869Y11840108D01*
X5847994Y11840108D01*
X5851855Y11839346D01*
X5855157Y11837162D01*
X5857392Y11833860D01*
X5858154Y11829948D01*
X5858154Y11789968D01*
X5858865Y11783669D01*
X5860745Y11778284D01*
X5863793Y11773408D01*
X5867857Y11769394D01*
X5872683Y11766346D01*
X5878118Y11764416D01*
X5884367Y11763756D01*
X6183223Y11763756D01*
X6189472Y11764416D01*
X6194907Y11766346D01*
X6199733Y11769394D01*
X6203797Y11773408D01*
X6206845Y11778284D01*
X6208725Y11783669D01*
X6209436Y11789968D01*
X6209436Y11988800D01*
X6208725Y11995099D01*
X6206947Y12000230D01*
X6206388Y12004040D01*
X6207302Y12007799D01*
X6209538Y12010948D01*
X6212738Y12013031D01*
X6216548Y12013742D01*
X6413246Y12013742D01*
X6419494Y12014454D01*
X6424879Y12016333D01*
X6429756Y12019381D01*
X6433820Y12023445D01*
X6436868Y12028271D01*
X6438747Y12033707D01*
X6439458Y12039955D01*
X6439458Y12238837D01*
X6438747Y12245086D01*
X6436868Y12250521D01*
X6433820Y12255347D01*
X6429756Y12259411D01*
X6424879Y12262459D01*
X6419494Y12264339D01*
X6413246Y12265050D01*
X6114389Y12265050D01*
X6108090Y12264339D01*
X6102705Y12262459D01*
X6097828Y12259411D01*
X6093764Y12255347D01*
X6090716Y12250521D01*
X6088837Y12245086D01*
X6088126Y12238837D01*
X6088126Y12039955D01*
X6088837Y12033707D01*
X6090666Y12028576D01*
X6091224Y12024766D01*
X6090310Y12021007D01*
X6088075Y12017857D01*
X6084824Y12015774D01*
X6081064Y12015063D01*
X5884367Y12015063D01*
X5878118Y12014352D01*
X5872683Y12012422D01*
X5867857Y12009374D01*
X5863793Y12005360D01*
X5860745Y12000484D01*
X5858865Y11995099D01*
X5858154Y11988800D01*
X5858154Y11926976D01*
X5857392Y11923115D01*
X5855157Y11919813D01*
X5851855Y11917629D01*
X5847994Y11916816D01*
X5436311Y11916816D01*
X5428335Y11916054D01*
X5421122Y11913870D01*
X5414518Y11910314D01*
X5408320Y11905234D01*
X5100218Y11597182D01*
X5095138Y11590985D01*
X5091633Y11584381D01*
X5089448Y11577167D01*
X5088636Y11569192D01*
X5088636Y11368430D01*
X5087874Y11364518D01*
X5085689Y11361216D01*
X5082387Y11359032D01*
X5071313Y11357559D01*
X5065928Y11355679D01*
X5061051Y11352631D01*
X5056987Y11348567D01*
X5053939Y11343690D01*
X5052060Y11338306D01*
X5051348Y11332006D01*
X5051348Y11223193D01*
X5052060Y11216894D01*
X5053939Y11211509D01*
X5056987Y11206632D01*
X5061051Y11202568D01*
X5065928Y11199520D01*
X5071313Y11197640D01*
X5077561Y11196929D01*
X5176418Y11196929D01*
X5182717Y11197640D01*
X5188102Y11199520D01*
X5192979Y11202568D01*
X5196992Y11206632D01*
X5198414Y11208867D01*
X5201208Y11211814D01*
X5204968Y11213388D01*
X5209032Y11213388D01*
X5212791Y11211814D01*
X5215585Y11208867D01*
X5220614Y11201908D01*
X5221376Y11198047D01*
X5220614Y11194135D01*
X5218430Y11190833D01*
X5165852Y11138306D01*
X5162143Y11135918D01*
X5157774Y11135360D01*
X5154777Y11135614D01*
X5145125Y11134750D01*
X5135778Y11132261D01*
X5126990Y11128146D01*
X5119065Y11122609D01*
X5112207Y11115751D01*
X5106619Y11107826D01*
X5102555Y11099038D01*
X5101132Y11093704D01*
X5099100Y11089792D01*
X5095595Y11087100D01*
X5091277Y11086185D01*
X5087010Y11087100D01*
X5083505Y11089792D01*
X5081473Y11093704D01*
X5080050Y11099038D01*
X5075986Y11107826D01*
X5070398Y11115751D01*
X5063540Y11122609D01*
X5055616Y11128146D01*
X5046827Y11132261D01*
X5037480Y11134750D01*
X5027777Y11135614D01*
X5018125Y11134750D01*
X5008778Y11132261D01*
X4999990Y11128146D01*
X4992065Y11122609D01*
X4985207Y11115751D01*
X4979619Y11107826D01*
X4975555Y11099038D01*
X4974132Y11093704D01*
X4972100Y11089792D01*
X4968595Y11087100D01*
X4964277Y11086185D01*
X4960010Y11087100D01*
X4956505Y11089792D01*
X4954473Y11093704D01*
X4953050Y11099038D01*
X4948986Y11107826D01*
X4943398Y11115751D01*
X4936540Y11122609D01*
X4928616Y11128146D01*
X4919827Y11132261D01*
X4910480Y11134750D01*
X4900777Y11135614D01*
X4891125Y11134750D01*
X4881778Y11132261D01*
X4872990Y11128146D01*
X4865065Y11122609D01*
X4858207Y11115751D01*
X4852619Y11107826D01*
X4848555Y11099038D01*
X4847132Y11093704D01*
X4845100Y11089792D01*
X4841595Y11087100D01*
X4837277Y11086185D01*
X4833010Y11087100D01*
X4829505Y11089792D01*
X4827473Y11093704D01*
X4826050Y11099038D01*
X4821986Y11107826D01*
X4816398Y11115751D01*
X4809540Y11122609D01*
X4801616Y11128146D01*
X4795164Y11131194D01*
X4795164Y11071352D01*
X4834991Y11071352D01*
X4838852Y11070590D01*
X4842154Y11068354D01*
X4844389Y11065052D01*
X4845151Y11061192D01*
X4845151Y10978794D01*
X4844389Y10974933D01*
X4842154Y10971631D01*
X4838852Y10969396D01*
X4834991Y10968634D01*
X4795164Y10968634D01*
X4795164Y10908842D01*
X4801616Y10911840D01*
X4809540Y10917377D01*
X4816398Y10924235D01*
X4821986Y10932210D01*
X4826050Y10940999D01*
X4827473Y10946282D01*
X4829505Y10950194D01*
X4833010Y10952886D01*
X4837277Y10953800D01*
X4841595Y10952886D01*
X4845100Y10950194D01*
X4847132Y10946282D01*
X4848555Y10940999D01*
X4852619Y10932210D01*
X4858207Y10924235D01*
X4859477Y10922965D01*
X4861661Y10919663D01*
X4862423Y10915802D01*
X4862423Y10864494D01*
X4861661Y10860582D01*
X4859477Y10857331D01*
X4833467Y10831322D01*
X4830216Y10829137D01*
X4826304Y10828324D01*
X4608118Y10828324D01*
X4604207Y10829137D01*
X4600905Y10831322D01*
X4598720Y10834624D01*
X4597247Y10845698D01*
X4595368Y10851083D01*
X4592320Y10855960D01*
X4588256Y10860024D01*
X4583379Y10863072D01*
X4577994Y10864951D01*
X4571746Y10865662D01*
X4462881Y10865662D01*
X4456582Y10864951D01*
X4451197Y10863072D01*
X4446320Y10860024D01*
X4442307Y10855960D01*
X4439259Y10851083D01*
X4437329Y10845698D01*
X4436668Y10839399D01*
X4436668Y10758525D01*
X4435856Y10754614D01*
X4433671Y10751312D01*
X4430369Y10749127D01*
X4426508Y10748365D01*
X4353102Y10748365D01*
X4349242Y10749127D01*
X4345940Y10751312D01*
X4343704Y10754614D01*
X4342942Y10758525D01*
X4342942Y10839399D01*
X4342231Y10845698D01*
X4340352Y10851083D01*
X4337304Y10855960D01*
X4333240Y10859973D01*
X4328414Y10863021D01*
X4322978Y10864951D01*
X4316730Y10865662D01*
X4310837Y10865662D01*
X4306925Y10866424D01*
X4303623Y10868609D01*
X4301439Y10871911D01*
X4300677Y10875822D01*
X4300677Y11646306D01*
X4301439Y11650218D01*
X4303623Y11653469D01*
X4487316Y11837162D01*
X4490618Y11839346D01*
X4494479Y11840108D01*
X4847996Y11840108D01*
X4851857Y11839346D01*
X4855159Y11837162D01*
X4857394Y11833860D01*
X4858156Y11829948D01*
X4858156Y11789968D01*
X4858867Y11783669D01*
X4860747Y11778284D01*
X4863795Y11773408D01*
X4867859Y11769394D01*
X4872685Y11766346D01*
X4878120Y11764416D01*
X4884369Y11763756D01*
X5183225Y11763756D01*
X5189474Y11764416D01*
X5194909Y11766346D01*
X5199735Y11769394D01*
X5203799Y11773408D01*
X5206847Y11778284D01*
X5208727Y11783669D01*
X5209438Y11789968D01*
X5209438Y11988800D01*
X5208727Y11995099D01*
X5206847Y12000484D01*
X5203799Y12005360D01*
X5199735Y12009374D01*
X5194909Y12012422D01*
X5189474Y12014352D01*
X5183225Y12015063D01*
X4986528Y12015063D01*
X4982768Y12015774D01*
X4979517Y12017857D01*
X4977282Y12021007D01*
X4976368Y12024766D01*
X4976926Y12028576D01*
X4978755Y12033707D01*
X4979466Y12039955D01*
X4979466Y12238837D01*
X4978755Y12245086D01*
X4976876Y12250521D01*
X4973828Y12255347D01*
X4969764Y12259411D01*
X4964887Y12262459D01*
X4959502Y12264339D01*
X4953254Y12265050D01*
X4654397Y12265050D01*
X4648098Y12264339D01*
X4642713Y12262459D01*
X4637836Y12259411D01*
X4633772Y12255347D01*
X4630724Y12250521D01*
X4628845Y12245086D01*
X4628134Y12238837D01*
X4628134Y12039955D01*
X4628845Y12033707D01*
X4630724Y12028271D01*
X4633772Y12023445D01*
X4637836Y12019381D01*
X4642713Y12016333D01*
X4648098Y12014454D01*
X4654397Y12013742D01*
X4851044Y12013742D01*
X4854854Y12013031D01*
X4858105Y12010948D01*
X4860290Y12007799D01*
X4861204Y12004040D01*
X4860645Y12000230D01*
X4858867Y11995099D01*
X4858156Y11988800D01*
X4858156Y11926976D01*
X4857394Y11923115D01*
X4855159Y11919813D01*
X4851857Y11917629D01*
X4847996Y11916816D01*
X4474870Y11916816D01*
X4466894Y11916054D01*
X4459732Y11913870D01*
X4453128Y11910314D01*
X4446930Y11905234D01*
X4235551Y11693855D01*
X4230471Y11687657D01*
X4226915Y11681053D01*
X4224731Y11673890D01*
X4223969Y11665915D01*
X4223969Y10875822D01*
X4223156Y10871911D01*
X4220972Y10868609D01*
X4217670Y10866424D01*
X4213809Y10865662D01*
X4207865Y10865662D01*
X4201617Y10864951D01*
X4196181Y10863021D01*
X4191355Y10859973D01*
X4187291Y10855960D01*
X4184243Y10851083D01*
X4182364Y10845698D01*
X4181652Y10839399D01*
X4181652Y10758525D01*
X4180890Y10754614D01*
X4178655Y10751312D01*
X4175353Y10749127D01*
X4171492Y10748365D01*
X4156405Y10748365D01*
X4152493Y10749127D01*
X4149191Y10751312D01*
X4073804Y10826699D01*
X4071620Y10830001D01*
X4070858Y10833912D01*
X4070858Y11129162D01*
X4071620Y11133074D01*
X4073804Y11136376D01*
X4077106Y11138560D01*
X4088180Y11140033D01*
X4093616Y11141964D01*
X4098442Y11145012D01*
X4102506Y11149025D01*
X4105554Y11153902D01*
X4107434Y11159286D01*
X4108145Y11165586D01*
X4108145Y11274450D01*
X4107434Y11280698D01*
X4105554Y11286083D01*
X4102506Y11290960D01*
X4098442Y11295024D01*
X4093616Y11298072D01*
X4088180Y11299952D01*
X4081932Y11300663D01*
X3983075Y11300663D01*
X3976827Y11299952D01*
X3971391Y11298072D01*
X3966565Y11295024D01*
X3962501Y11290960D01*
X3961079Y11288725D01*
X3958285Y11285829D01*
X3954526Y11284204D01*
X3950462Y11284204D01*
X3946702Y11285829D01*
X3943908Y11288725D01*
X3942537Y11290960D01*
X3938473Y11295024D01*
X3933596Y11298072D01*
X3928211Y11299952D01*
X3920998Y11300663D01*
X3917137Y11301425D01*
X3913835Y11303609D01*
X3911650Y11306911D01*
X3910837Y11310823D01*
X3910837Y11753596D01*
X3911650Y11757456D01*
X3913835Y11760758D01*
X3917137Y11762943D01*
X3920998Y11763756D01*
X4015740Y11763756D01*
X4021988Y11764416D01*
X4027424Y11766346D01*
X4032250Y11769394D01*
X4036314Y11773408D01*
X4039362Y11778284D01*
X4041241Y11783669D01*
X4041952Y11789968D01*
X4041952Y11988800D01*
X4041241Y11995099D01*
X4039463Y12000230D01*
X4038904Y12004040D01*
X4039768Y12007799D01*
X4042003Y12010948D01*
X4045254Y12013031D01*
X4049014Y12013742D01*
X4245711Y12013742D01*
X4252010Y12014454D01*
X4257395Y12016333D01*
X4262272Y12019381D01*
X4266285Y12023445D01*
X4269333Y12028271D01*
X4271264Y12033707D01*
X4271975Y12039955D01*
X4271975Y12238837D01*
X4271264Y12245086D01*
X4269333Y12250521D01*
X4266285Y12255347D01*
X4262272Y12259411D01*
X4257395Y12262459D01*
X4252010Y12264339D01*
X4245711Y12265050D01*
X3946855Y12265050D01*
X3940606Y12264339D01*
X3935171Y12262459D01*
X3930345Y12259411D01*
X3926281Y12255347D01*
X3923233Y12250521D01*
X3921353Y12245086D01*
X3920642Y12238837D01*
X3920642Y12039955D01*
X3921353Y12033707D01*
X3923131Y12028576D01*
X3923690Y12024766D01*
X3922826Y12021007D01*
X3920591Y12017857D01*
X3917340Y12015774D01*
X3913581Y12015063D01*
X3716883Y12015063D01*
X3710584Y12014352D01*
X3705199Y12012422D01*
X3700322Y12009374D01*
X3696309Y12005360D01*
X3693261Y12000484D01*
X3691331Y11995099D01*
X3690670Y11988800D01*
X3690670Y11789968D01*
X3691331Y11783669D01*
X3693261Y11778284D01*
X3696309Y11773408D01*
X3700322Y11769394D01*
X3705199Y11766346D01*
X3710584Y11764416D01*
X3716883Y11763756D01*
X3823970Y11763756D01*
X3827881Y11762943D01*
X3831183Y11760758D01*
X3833368Y11757456D01*
X3834129Y11753596D01*
X3834129Y11310823D01*
X3833368Y11306911D01*
X3831183Y11303609D01*
X3827881Y11301425D01*
X3816807Y11299952D01*
X3811422Y11298072D01*
X3806545Y11295024D01*
X3802481Y11290960D01*
X3799433Y11286083D01*
X3797554Y11280698D01*
X3796842Y11274450D01*
X3796842Y11165586D01*
X3797554Y11159286D01*
X3799433Y11153902D01*
X3802481Y11149025D01*
X3806545Y11145012D01*
X3811422Y11141964D01*
X3816807Y11140033D01*
X3823055Y11139322D01*
X3921912Y11139322D01*
X3928211Y11140033D01*
X3933596Y11141964D01*
X3938473Y11145012D01*
X3942537Y11149025D01*
X3943908Y11151260D01*
X3946702Y11154206D01*
X3950462Y11155781D01*
X3954526Y11155781D01*
X3958285Y11154206D01*
X3961079Y11151260D01*
X3962501Y11149025D01*
X3966565Y11145012D01*
X3971391Y11141964D01*
X3976827Y11140033D01*
X3983990Y11139322D01*
X3987850Y11138560D01*
X3991152Y11136376D01*
X3993387Y11133074D01*
X3994150Y11129162D01*
X3994150Y10814304D01*
X3994912Y10806328D01*
X3997096Y10799165D01*
X4000652Y10792510D01*
X4005732Y10786313D01*
X4087622Y10704423D01*
X4089806Y10701223D01*
X4090619Y10697464D01*
X4089958Y10693654D01*
X4087926Y10690352D01*
X4084828Y10688066D01*
X4081983Y10686745D01*
X4073296Y10680750D01*
X4065676Y10673435D01*
X4059326Y10664952D01*
X4054449Y10655604D01*
X4051096Y10645597D01*
X4049369Y10635183D01*
X4049369Y10624616D01*
X4051096Y10614202D01*
X4054449Y10604195D01*
X4059326Y10594848D01*
X4065676Y10586364D01*
X4073296Y10579049D01*
X4081983Y10573054D01*
X4091533Y10568533D01*
X4101693Y10565587D01*
X4112158Y10564317D01*
X4122724Y10564774D01*
X4133037Y10566857D01*
X4142943Y10570616D01*
X4152087Y10575899D01*
X4160265Y10582554D01*
X4162958Y10585602D01*
X4166362Y10588142D01*
X4171594Y10589056D01*
X4175251Y10588345D01*
X4178401Y10586466D01*
X4180636Y10583519D01*
X4181703Y10580014D01*
X4182364Y10574324D01*
X4184243Y10568889D01*
X4187291Y10564063D01*
X4191355Y10559999D01*
X4196181Y10556951D01*
X4201617Y10555071D01*
X4207865Y10554360D01*
X4316730Y10554360D01*
X4322978Y10555071D01*
X4328414Y10556951D01*
X4333240Y10559999D01*
X4337304Y10564063D01*
X4340352Y10568889D01*
X4342231Y10574324D01*
X4342942Y10580573D01*
X4342942Y10661497D01*
X4343704Y10665358D01*
X4345940Y10668660D01*
X4349242Y10670895D01*
X4353102Y10671657D01*
X4426508Y10671657D01*
X4430369Y10670895D01*
X4433671Y10668660D01*
X4435856Y10665358D01*
X4436668Y10661497D01*
X4436668Y10580573D01*
X4437329Y10574324D01*
X4439259Y10568889D01*
X4442307Y10564063D01*
X4446320Y10559999D01*
X4451197Y10556951D01*
X4456582Y10555071D01*
X4462881Y10554360D01*
X4468876Y10554360D01*
X4472787Y10553598D01*
X4476038Y10551363D01*
X4478274Y10548061D01*
X4479036Y10544200D01*
X4479036Y10456418D01*
X4479798Y10448442D01*
X4481982Y10441228D01*
X4485538Y10434624D01*
X4490618Y10428427D01*
X4773117Y10145928D01*
X4779314Y10140848D01*
X4785918Y10137292D01*
X4793132Y10135108D01*
X4801108Y10134346D01*
X5986983Y10134346D01*
X5990894Y10133584D01*
X5994196Y10131348D01*
X6130848Y9994696D01*
X6133084Y9991394D01*
X6133846Y9987483D01*
X6133846Y9896957D01*
X6133033Y9892995D01*
X6130747Y9889642D01*
X6127343Y9887458D01*
X6123330Y9886797D01*
X6119418Y9887712D01*
X6116015Y9890302D01*
X6105601Y9899091D01*
X6094120Y9906406D01*
X6081776Y9912146D01*
X6068822Y9916160D01*
X6055410Y9918395D01*
X6041796Y9918852D01*
X6028283Y9917531D01*
X6015024Y9914382D01*
X6002324Y9909454D01*
X5990386Y9902952D01*
X5979464Y9894874D01*
X5969660Y9885426D01*
X5961227Y9874707D01*
X5954318Y9863023D01*
X5948984Y9850526D01*
X5945428Y9837369D01*
X5943600Y9823907D01*
X5943600Y9810292D01*
X5945428Y9796830D01*
X5948984Y9783673D01*
X5954318Y9771176D01*
X5961227Y9759492D01*
X5969660Y9748774D01*
X5979464Y9739325D01*
X5990386Y9731248D01*
X6002324Y9724745D01*
X6015024Y9719818D01*
X6028283Y9716668D01*
X6041796Y9715347D01*
X6055410Y9715804D01*
X6068822Y9718040D01*
X6081776Y9722053D01*
X6094120Y9727793D01*
X6105601Y9735108D01*
X6116167Y9744100D01*
X6119418Y9746488D01*
X6123330Y9747402D01*
X6127343Y9746742D01*
X6130747Y9744557D01*
X6133033Y9741204D01*
X6133846Y9737242D01*
X6133846Y9728708D01*
X6134608Y9720732D01*
X6136792Y9713518D01*
X6140348Y9706914D01*
X6145428Y9700717D01*
X6163868Y9682276D01*
X6166053Y9679025D01*
X6166815Y9675114D01*
X6166053Y9671202D01*
X6163868Y9667951D01*
X6160566Y9665716D01*
X6156655Y9664954D01*
X4515916Y9664954D01*
X4512005Y9665716D01*
X4508703Y9667951D01*
X4469231Y9707372D01*
X4467047Y9710674D01*
X4466285Y9714484D01*
X4466996Y9718344D01*
X4469130Y9721646D01*
X4472381Y9723882D01*
X4476191Y9724745D01*
X4480102Y9724034D01*
X4491024Y9719818D01*
X4504283Y9716668D01*
X4517796Y9715347D01*
X4531410Y9715804D01*
X4544822Y9718040D01*
X4557776Y9722053D01*
X4570120Y9727793D01*
X4581601Y9735108D01*
X4592015Y9743897D01*
X4601108Y9754006D01*
X4608830Y9765182D01*
X4614926Y9777323D01*
X4619396Y9790176D01*
X4622139Y9803536D01*
X4623054Y9817100D01*
X4622139Y9830663D01*
X4619396Y9844024D01*
X4614926Y9856876D01*
X4608830Y9869017D01*
X4601108Y9880193D01*
X4592015Y9890302D01*
X4581601Y9899091D01*
X4570120Y9906406D01*
X4557776Y9912146D01*
X4544822Y9916160D01*
X4531410Y9918395D01*
X4517796Y9918852D01*
X4504283Y9917531D01*
X4491024Y9914382D01*
X4478324Y9909454D01*
X4466386Y9902952D01*
X4455464Y9894874D01*
X4447489Y9887153D01*
X4444034Y9884968D01*
X4439920Y9884308D01*
X4435957Y9885375D01*
X4432706Y9887915D01*
X4430725Y9891522D01*
X4429607Y9895281D01*
X4426051Y9901885D01*
X4420971Y9908082D01*
X4361942Y9967112D01*
X4359554Y9970871D01*
X4358995Y9975240D01*
X4360367Y9979456D01*
X4363415Y9982708D01*
X4367530Y9984333D01*
X4371949Y9984028D01*
X4381093Y9981387D01*
X4391558Y9980117D01*
X4402124Y9980574D01*
X4412437Y9982657D01*
X4422343Y9986416D01*
X4431487Y9991699D01*
X4439666Y9998354D01*
X4446676Y10006279D01*
X4452315Y10015220D01*
X4456430Y10024922D01*
X4458970Y10035184D01*
X4459833Y10045700D01*
X4458970Y10056215D01*
X4456430Y10066477D01*
X4452315Y10076180D01*
X4446676Y10085120D01*
X4439666Y10093045D01*
X4437938Y10094417D01*
X4435449Y10097465D01*
X4431944Y10108946D01*
X4428185Y10116007D01*
X4422749Y10122560D01*
X4366107Y10179202D01*
X4363923Y10182504D01*
X4363161Y10186416D01*
X4363161Y10254437D01*
X4362450Y10260685D01*
X4360570Y10266121D01*
X4357522Y10270947D01*
X4353458Y10275011D01*
X4348581Y10278059D01*
X4343196Y10279938D01*
X4336948Y10280650D01*
X4238091Y10280650D01*
X4231792Y10279938D01*
X4226407Y10278059D01*
X4221530Y10275011D01*
X4217517Y10270947D01*
X4216095Y10268762D01*
X4213301Y10265816D01*
X4209542Y10264190D01*
X4205478Y10264190D01*
X4201718Y10265816D01*
X4198924Y10268762D01*
X4197502Y10270947D01*
X4193489Y10275011D01*
X4188612Y10278059D01*
X4183227Y10279938D01*
X4176928Y10280650D01*
X4078071Y10280650D01*
X4071823Y10279938D01*
X4066387Y10278059D01*
X4061561Y10275011D01*
X4057497Y10270947D01*
X4054449Y10266121D01*
X4052570Y10260685D01*
X4051858Y10254437D01*
X4051858Y10248493D01*
X4051096Y10244632D01*
X4048861Y10241330D01*
X4045559Y10239146D01*
X4041698Y10238333D01*
X3940911Y10238333D01*
X3937152Y10239044D01*
X3933951Y10241076D01*
X3931716Y10244175D01*
X3930751Y10247833D01*
X3931208Y10251643D01*
X3933037Y10254945D01*
X3935069Y10257434D01*
X3938625Y10264089D01*
X3940810Y10271252D01*
X3941572Y10279227D01*
X3941572Y10446664D01*
X3942384Y10450576D01*
X3944569Y10453878D01*
X3947871Y10456062D01*
X3951732Y10456824D01*
X4002684Y10456824D01*
X4008932Y10457535D01*
X4014368Y10459466D01*
X4019194Y10462514D01*
X4023258Y10466527D01*
X4026306Y10471404D01*
X4028186Y10476788D01*
X4028897Y10483088D01*
X4028897Y10681919D01*
X4028186Y10688218D01*
X4026306Y10693603D01*
X4023258Y10698480D01*
X4019194Y10702493D01*
X4014368Y10705541D01*
X4008932Y10707471D01*
X4002684Y10708132D01*
X3803802Y10708132D01*
X3797554Y10707471D01*
X3792118Y10705541D01*
X3787292Y10702493D01*
X3783228Y10698480D01*
X3780180Y10693603D01*
X3778300Y10688218D01*
X3777589Y10681919D01*
X3777589Y10483088D01*
X3778300Y10476788D01*
X3780180Y10471404D01*
X3783228Y10466527D01*
X3787292Y10462514D01*
X3792118Y10459466D01*
X3797554Y10457535D01*
X3803802Y10456824D01*
X3854704Y10456824D01*
X3858615Y10456062D01*
X3861917Y10453878D01*
X3864101Y10450576D01*
X3864864Y10446664D01*
X3864864Y10321899D01*
X3864203Y10318242D01*
X3862324Y10315092D01*
X3859377Y10312857D01*
X3855872Y10311790D01*
X3852214Y10312044D01*
X3846169Y10313568D01*
X3831742Y10315397D01*
X3817213Y10315397D01*
X3802837Y10313568D01*
X3788765Y10309961D01*
X3775252Y10304627D01*
X3762552Y10297617D01*
X3750767Y10289082D01*
X3740200Y10279176D01*
X3730955Y10267950D01*
X3723182Y10255707D01*
X3716985Y10242550D01*
X3712514Y10228732D01*
X3709771Y10214508D01*
X3708857Y10199979D01*
X3709771Y10185501D01*
X3712514Y10171226D01*
X3716985Y10157409D01*
X3723182Y10144302D01*
X3730955Y10132009D01*
X3740200Y10120833D01*
X3750767Y10110927D01*
X3762552Y10102342D01*
X3775252Y10095382D01*
X3788765Y10090048D01*
X3802837Y10086390D01*
X3817213Y10084612D01*
X3831742Y10084612D01*
X3846169Y10086390D01*
X3860241Y10090048D01*
X3873754Y10095382D01*
X3886454Y10102342D01*
X3898188Y10110927D01*
X3908806Y10120833D01*
X3918051Y10132009D01*
X3925824Y10144302D01*
X3931259Y10155834D01*
X3933494Y10158882D01*
X3936695Y10160914D01*
X3940454Y10161625D01*
X4041698Y10161625D01*
X4045559Y10160863D01*
X4048861Y10158679D01*
X4051096Y10155377D01*
X4051858Y10151465D01*
X4051858Y10145572D01*
X4052570Y10139324D01*
X4054449Y10133888D01*
X4057497Y10129062D01*
X4061561Y10124998D01*
X4066387Y10121950D01*
X4071823Y10120071D01*
X4078071Y10119360D01*
X4097020Y10119360D01*
X4100880Y10118547D01*
X4104182Y10116362D01*
X4284776Y9935768D01*
X4287012Y9932416D01*
X4287774Y9928453D01*
X4286910Y9924542D01*
X4284624Y9921240D01*
X4281220Y9919106D01*
X4277258Y9918446D01*
X4263796Y9918852D01*
X4250283Y9917531D01*
X4237024Y9914382D01*
X4224324Y9909454D01*
X4212386Y9902952D01*
X4201464Y9894874D01*
X4195775Y9889388D01*
X4192473Y9887254D01*
X4188612Y9886492D01*
X4184751Y9887305D01*
X4181500Y9889540D01*
X4179315Y9892792D01*
X4178554Y9896652D01*
X4178554Y9905492D01*
X4177792Y9913467D01*
X4175607Y9920681D01*
X4172051Y9927285D01*
X4166971Y9933482D01*
X4091482Y10008971D01*
X4085285Y10014051D01*
X4078681Y10017607D01*
X4071467Y10019792D01*
X4063492Y10020554D01*
X3372916Y10020554D01*
X3369005Y10021316D01*
X3365703Y10023551D01*
X3279851Y10109403D01*
X3277615Y10112705D01*
X3276854Y10116616D01*
X3276854Y10489590D01*
X3277615Y10493502D01*
X3279851Y10496804D01*
X3324250Y10541101D01*
X3327552Y10543286D01*
X3331464Y10544048D01*
X3355949Y10544048D01*
X3359810Y10543286D01*
X3363112Y10541050D01*
X3365347Y10537799D01*
X3366109Y10533888D01*
X3366109Y10483088D01*
X3366820Y10476788D01*
X3368700Y10471404D01*
X3371748Y10466527D01*
X3375812Y10462514D01*
X3380638Y10459466D01*
X3386074Y10457535D01*
X3392322Y10456824D01*
X3591204Y10456824D01*
X3597452Y10457535D01*
X3602888Y10459466D01*
X3607714Y10462514D01*
X3611778Y10466527D01*
X3614826Y10471404D01*
X3616706Y10476788D01*
X3617417Y10483088D01*
X3617417Y10681919D01*
X3616706Y10688218D01*
X3614826Y10693603D01*
X3611778Y10698480D01*
X3607714Y10702493D01*
X3602888Y10705541D01*
X3597452Y10707471D01*
X3591204Y10708132D01*
X3392322Y10708132D01*
X3386074Y10707471D01*
X3380638Y10705541D01*
X3375812Y10702493D01*
X3371748Y10698480D01*
X3368700Y10693603D01*
X3366820Y10688218D01*
X3366109Y10681919D01*
X3366109Y10630916D01*
X3365347Y10627004D01*
X3363112Y10623753D01*
X3359810Y10621518D01*
X3355949Y10620756D01*
X3311906Y10620756D01*
X3303981Y10619994D01*
X3296818Y10617809D01*
X3290163Y10614304D01*
X3283965Y10609224D01*
X3211779Y10537291D01*
X3206699Y10531094D01*
X3203143Y10524490D01*
X3200958Y10517276D01*
X3200146Y10509250D01*
X3200146Y10097008D01*
X3200908Y10089032D01*
X3203092Y10081818D01*
X3206648Y10075214D01*
X3211728Y10069017D01*
X3325317Y9955428D01*
X3331514Y9950348D01*
X3338118Y9946792D01*
X3345332Y9944608D01*
X3353308Y9943846D01*
X4043883Y9943846D01*
X4047794Y9943084D01*
X4051096Y9940848D01*
X4065320Y9926624D01*
X4067556Y9923272D01*
X4068267Y9919360D01*
X4067454Y9915398D01*
X4065117Y9912096D01*
X4061714Y9909962D01*
X4057751Y9909302D01*
X4053840Y9910267D01*
X4049776Y9912146D01*
X4036822Y9916160D01*
X4023410Y9918395D01*
X4009796Y9918852D01*
X3996283Y9917531D01*
X3983024Y9914382D01*
X3970324Y9909454D01*
X3958386Y9902952D01*
X3947464Y9894874D01*
X3937660Y9885426D01*
X3929227Y9874707D01*
X3922318Y9863023D01*
X3916984Y9850526D01*
X3913428Y9837369D01*
X3911600Y9823907D01*
X3911600Y9810292D01*
X3913428Y9796830D01*
X3916984Y9783673D01*
X3922318Y9771176D01*
X3929227Y9759492D01*
X3937660Y9748774D01*
X3947464Y9739325D01*
X3958386Y9731248D01*
X3970324Y9724745D01*
X3983024Y9719818D01*
X3996283Y9716668D01*
X4009796Y9715347D01*
X4023410Y9715804D01*
X4036822Y9718040D01*
X4049776Y9722053D01*
X4062120Y9727793D01*
X4073601Y9735108D01*
X4084167Y9744100D01*
X4087418Y9746488D01*
X4091330Y9747402D01*
X4095343Y9746742D01*
X4098747Y9744557D01*
X4101033Y9741204D01*
X4101846Y9737242D01*
X4101846Y9703308D01*
X4102608Y9695332D01*
X4104792Y9688118D01*
X4108348Y9681514D01*
X4113428Y9675317D01*
X4239717Y9549028D01*
X4245914Y9543948D01*
X4252518Y9540392D01*
X4259732Y9538208D01*
X4267708Y9537446D01*
X6552692Y9537446D01*
X6560667Y9538208D01*
X6567881Y9540392D01*
X6574485Y9543948D01*
X6580682Y9549028D01*
X6616903Y9585248D01*
X6620205Y9587484D01*
X6624116Y9588246D01*
X6840423Y9588246D01*
X6844588Y9587382D01*
X6847992Y9584842D01*
X6850125Y9581184D01*
X6850532Y9576917D01*
X6849160Y9572904D01*
X6843318Y9563049D01*
X6842709Y9561576D01*
X6889750Y9561576D01*
X6889750Y9578086D01*
X6890512Y9581997D01*
X6892747Y9585248D01*
X6895998Y9587484D01*
X6899909Y9588246D01*
X6968490Y9588246D01*
X6972401Y9587484D01*
X6975652Y9585248D01*
X6977888Y9581997D01*
X6978650Y9578086D01*
X6978650Y9561576D01*
X7025589Y9561576D01*
X7021830Y9568992D01*
X7019544Y9572345D01*
X7017867Y9576409D01*
X7018121Y9580778D01*
X7020153Y9584639D01*
X7023608Y9587280D01*
X7027925Y9588246D01*
X7094423Y9588246D01*
X7098588Y9587382D01*
X7101992Y9584842D01*
X7104125Y9581184D01*
X7104532Y9576917D01*
X7103160Y9572904D01*
X7097318Y9563049D01*
X7096709Y9561576D01*
X7143750Y9561576D01*
X7143750Y9578086D01*
X7144512Y9581997D01*
X7146747Y9585248D01*
X7149998Y9587484D01*
X7153909Y9588246D01*
X7222490Y9588246D01*
X7226401Y9587484D01*
X7229652Y9585248D01*
X7231888Y9581997D01*
X7232650Y9578086D01*
X7232650Y9561576D01*
X7279589Y9561576D01*
X7275830Y9568992D01*
X7273544Y9572345D01*
X7271867Y9576409D01*
X7272121Y9580778D01*
X7274153Y9584639D01*
X7277608Y9587280D01*
X7281925Y9588246D01*
X7348423Y9588246D01*
X7352588Y9587382D01*
X7355992Y9584842D01*
X7358125Y9581184D01*
X7358532Y9576917D01*
X7357160Y9572904D01*
X7351318Y9563049D01*
X7345984Y9550501D01*
X7342428Y9537395D01*
X7340600Y9523933D01*
X7340600Y9510318D01*
X7342428Y9496806D01*
X7345984Y9483699D01*
X7351318Y9471202D01*
X7358227Y9459468D01*
X7366660Y9448800D01*
X7376464Y9439351D01*
X7387386Y9431274D01*
X7399324Y9424720D01*
X7412024Y9419844D01*
X7425283Y9416694D01*
G37*
G36*
X7143750Y9425584D02*
G01*
X7143750Y9472676D01*
X7096709Y9472676D01*
X7097318Y9471202D01*
X7104227Y9459468D01*
X7112660Y9448800D01*
X7122464Y9439351D01*
X7133386Y9431274D01*
G37*
G36*
X6889750Y9425584D02*
G01*
X6889750Y9472676D01*
X6842709Y9472676D01*
X6843318Y9471202D01*
X6850227Y9459468D01*
X6858660Y9448800D01*
X6868464Y9439351D01*
X6879386Y9431274D01*
G37*
G36*
X7232650Y9425736D02*
G01*
X7237120Y9427819D01*
X7248601Y9435134D01*
X7259015Y9443923D01*
X7268108Y9453981D01*
X7275830Y9465208D01*
X7279589Y9472676D01*
X7232650Y9472676D01*
G37*
G36*
X6978650Y9425736D02*
G01*
X6983120Y9427819D01*
X6994601Y9435134D01*
X7005015Y9443923D01*
X7014108Y9453981D01*
X7021830Y9465208D01*
X7025589Y9472676D01*
X6978650Y9472676D01*
G37*
G36*
X9090558Y9447326D02*
G01*
X9128658Y9447326D01*
X9128658Y9511639D01*
X9064345Y9511639D01*
X9064345Y9473590D01*
X9065056Y9467291D01*
X9066936Y9461906D01*
X9069984Y9457029D01*
X9074048Y9453016D01*
X9078874Y9449968D01*
X9084310Y9448038D01*
G37*
G36*
X9231325Y9447326D02*
G01*
X9269425Y9447326D01*
X9275673Y9448038D01*
X9281109Y9449968D01*
X9285935Y9453016D01*
X9289999Y9457029D01*
X9293047Y9461906D01*
X9294926Y9467291D01*
X9295638Y9473590D01*
X9295638Y9511639D01*
X9231325Y9511639D01*
G37*
G36*
X4009796Y9461347D02*
G01*
X4023410Y9461804D01*
X4036822Y9464040D01*
X4049776Y9468053D01*
X4062120Y9473793D01*
X4073601Y9481108D01*
X4084015Y9489897D01*
X4093108Y9500006D01*
X4100829Y9511182D01*
X4106926Y9523323D01*
X4111396Y9536176D01*
X4114139Y9549536D01*
X4115054Y9563100D01*
X4114139Y9576663D01*
X4111396Y9590024D01*
X4106926Y9602876D01*
X4100829Y9615017D01*
X4093108Y9626193D01*
X4084015Y9636302D01*
X4073601Y9645091D01*
X4062120Y9652406D01*
X4049776Y9658146D01*
X4036822Y9662160D01*
X4023410Y9664395D01*
X4009796Y9664852D01*
X3996283Y9663531D01*
X3983024Y9660382D01*
X3970324Y9655454D01*
X3958386Y9648952D01*
X3947464Y9640874D01*
X3937660Y9631426D01*
X3929227Y9620707D01*
X3922318Y9609023D01*
X3916984Y9596526D01*
X3913428Y9583369D01*
X3911600Y9569907D01*
X3911600Y9556292D01*
X3913428Y9542830D01*
X3916984Y9529673D01*
X3922318Y9517176D01*
X3929227Y9505492D01*
X3937660Y9494774D01*
X3947464Y9485325D01*
X3958386Y9477248D01*
X3970324Y9470745D01*
X3983024Y9465818D01*
X3996283Y9462668D01*
G37*
G36*
X9064345Y9614357D02*
G01*
X9128658Y9614357D01*
X9128658Y9678670D01*
X9090558Y9678670D01*
X9084310Y9677958D01*
X9078874Y9676079D01*
X9074048Y9673031D01*
X9069984Y9668967D01*
X9066936Y9664090D01*
X9065056Y9658705D01*
X9064345Y9652406D01*
G37*
G36*
X9231325Y9614357D02*
G01*
X9295638Y9614357D01*
X9295638Y9652406D01*
X9294926Y9658705D01*
X9293047Y9664090D01*
X9289999Y9668967D01*
X9285935Y9673031D01*
X9281109Y9676079D01*
X9275673Y9677958D01*
X9269425Y9678670D01*
X9231325Y9678670D01*
G37*
G36*
X9180017Y9701377D02*
G01*
X9194495Y9702292D01*
X9208770Y9704984D01*
X9222587Y9709505D01*
X9235694Y9715652D01*
X9247987Y9723475D01*
X9259163Y9732721D01*
X9269120Y9743287D01*
X9277654Y9755022D01*
X9284614Y9767773D01*
X9289948Y9781286D01*
X9293606Y9795357D01*
X9295384Y9809734D01*
X9295384Y9824262D01*
X9293606Y9838690D01*
X9289948Y9852710D01*
X9284614Y9866223D01*
X9277654Y9878974D01*
X9269120Y9890709D01*
X9259163Y9901275D01*
X9247987Y9910572D01*
X9235694Y9918344D01*
X9222587Y9924491D01*
X9208770Y9929012D01*
X9194495Y9931704D01*
X9180017Y9932619D01*
X9165488Y9931704D01*
X9151264Y9929012D01*
X9137446Y9924491D01*
X9124289Y9918344D01*
X9112046Y9910572D01*
X9100820Y9901275D01*
X9090914Y9890709D01*
X9082379Y9878974D01*
X9075369Y9866223D01*
X9070035Y9852710D01*
X9066428Y9838690D01*
X9064599Y9824262D01*
X9064599Y9809734D01*
X9066428Y9795357D01*
X9070035Y9781286D01*
X9075369Y9767773D01*
X9082379Y9755022D01*
X9090914Y9743287D01*
X9100820Y9732721D01*
X9112046Y9723475D01*
X9124289Y9715652D01*
X9137446Y9709505D01*
X9151264Y9704984D01*
X9165488Y9702292D01*
G37*
G36*
X5279796Y9715347D02*
G01*
X5293410Y9715804D01*
X5306822Y9718040D01*
X5319776Y9722053D01*
X5332120Y9727793D01*
X5343601Y9735108D01*
X5354015Y9743897D01*
X5363108Y9754006D01*
X5370830Y9765182D01*
X5376926Y9777323D01*
X5381396Y9790176D01*
X5384139Y9803536D01*
X5385054Y9817100D01*
X5384139Y9830663D01*
X5381396Y9844024D01*
X5376926Y9856876D01*
X5370830Y9869017D01*
X5363108Y9880193D01*
X5354015Y9890302D01*
X5343601Y9899091D01*
X5332120Y9906406D01*
X5319776Y9912146D01*
X5306822Y9916160D01*
X5293410Y9918395D01*
X5279796Y9918852D01*
X5266283Y9917531D01*
X5253024Y9914382D01*
X5240324Y9909454D01*
X5228386Y9902952D01*
X5217464Y9894874D01*
X5207660Y9885426D01*
X5199227Y9874707D01*
X5192318Y9863023D01*
X5186984Y9850526D01*
X5183428Y9837369D01*
X5181600Y9823907D01*
X5181600Y9810292D01*
X5183428Y9796830D01*
X5186984Y9783673D01*
X5192318Y9771176D01*
X5199227Y9759492D01*
X5207660Y9748774D01*
X5217464Y9739325D01*
X5228386Y9731248D01*
X5240324Y9724745D01*
X5253024Y9719818D01*
X5266283Y9716668D01*
G37*
G36*
X3247796Y9715347D02*
G01*
X3261410Y9715804D01*
X3274822Y9718040D01*
X3287776Y9722053D01*
X3300120Y9727793D01*
X3311601Y9735108D01*
X3322015Y9743897D01*
X3331108Y9754006D01*
X3338829Y9765182D01*
X3344926Y9777323D01*
X3349396Y9790176D01*
X3352139Y9803536D01*
X3353054Y9817100D01*
X3352139Y9830663D01*
X3349396Y9844024D01*
X3344926Y9856876D01*
X3338829Y9869017D01*
X3331108Y9880193D01*
X3322015Y9890302D01*
X3311601Y9899091D01*
X3300120Y9906406D01*
X3287776Y9912146D01*
X3274822Y9916160D01*
X3261410Y9918395D01*
X3247796Y9918852D01*
X3234283Y9917531D01*
X3221024Y9914382D01*
X3208324Y9909454D01*
X3196386Y9902952D01*
X3185464Y9894874D01*
X3175660Y9885426D01*
X3167227Y9874707D01*
X3160318Y9863023D01*
X3154984Y9850526D01*
X3151428Y9837369D01*
X3149600Y9823907D01*
X3149600Y9810292D01*
X3151428Y9796830D01*
X3154984Y9783673D01*
X3160318Y9771176D01*
X3167227Y9759492D01*
X3175660Y9748774D01*
X3185464Y9739325D01*
X3196386Y9731248D01*
X3208324Y9724745D01*
X3221024Y9719818D01*
X3234283Y9716668D01*
G37*
G36*
X5533796Y9715347D02*
G01*
X5547410Y9715804D01*
X5560822Y9718040D01*
X5573776Y9722053D01*
X5586120Y9727793D01*
X5597601Y9735108D01*
X5608015Y9743897D01*
X5617108Y9754006D01*
X5624830Y9765182D01*
X5630926Y9777323D01*
X5635396Y9790176D01*
X5638139Y9803536D01*
X5639054Y9817100D01*
X5638139Y9830663D01*
X5635396Y9844024D01*
X5630926Y9856876D01*
X5624830Y9869017D01*
X5617108Y9880193D01*
X5608015Y9890302D01*
X5597601Y9899091D01*
X5586120Y9906406D01*
X5573776Y9912146D01*
X5560822Y9916160D01*
X5547410Y9918395D01*
X5533796Y9918852D01*
X5520283Y9917531D01*
X5507024Y9914382D01*
X5494324Y9909454D01*
X5482386Y9902952D01*
X5471464Y9894874D01*
X5461660Y9885426D01*
X5453227Y9874707D01*
X5446318Y9863023D01*
X5440984Y9850526D01*
X5437428Y9837369D01*
X5435600Y9823907D01*
X5435600Y9810292D01*
X5437428Y9796830D01*
X5440984Y9783673D01*
X5446318Y9771176D01*
X5453227Y9759492D01*
X5461660Y9748774D01*
X5471464Y9739325D01*
X5482386Y9731248D01*
X5494324Y9724745D01*
X5507024Y9719818D01*
X5520283Y9716668D01*
G37*
G36*
X3501796Y9715347D02*
G01*
X3515410Y9715804D01*
X3528822Y9718040D01*
X3541776Y9722053D01*
X3554120Y9727793D01*
X3565601Y9735108D01*
X3576015Y9743897D01*
X3585108Y9754006D01*
X3592829Y9765182D01*
X3598926Y9777323D01*
X3603396Y9790176D01*
X3606139Y9803536D01*
X3607054Y9817100D01*
X3606139Y9830663D01*
X3603396Y9844024D01*
X3598926Y9856876D01*
X3592829Y9869017D01*
X3585108Y9880193D01*
X3576015Y9890302D01*
X3565601Y9899091D01*
X3554120Y9906406D01*
X3541776Y9912146D01*
X3528822Y9916160D01*
X3515410Y9918395D01*
X3501796Y9918852D01*
X3488283Y9917531D01*
X3475024Y9914382D01*
X3462324Y9909454D01*
X3450386Y9902952D01*
X3439464Y9894874D01*
X3429660Y9885426D01*
X3421227Y9874707D01*
X3414318Y9863023D01*
X3408984Y9850526D01*
X3405428Y9837369D01*
X3403600Y9823907D01*
X3403600Y9810292D01*
X3405428Y9796830D01*
X3408984Y9783673D01*
X3414318Y9771176D01*
X3421227Y9759492D01*
X3429660Y9748774D01*
X3439464Y9739325D01*
X3450386Y9731248D01*
X3462324Y9724745D01*
X3475024Y9719818D01*
X3488283Y9716668D01*
G37*
G36*
X5025796Y9715347D02*
G01*
X5039410Y9715804D01*
X5052822Y9718040D01*
X5065776Y9722053D01*
X5078120Y9727793D01*
X5089601Y9735108D01*
X5100015Y9743897D01*
X5109108Y9754006D01*
X5116830Y9765182D01*
X5122926Y9777323D01*
X5127396Y9790176D01*
X5130139Y9803536D01*
X5131054Y9817100D01*
X5130139Y9830663D01*
X5127396Y9844024D01*
X5122926Y9856876D01*
X5116830Y9869017D01*
X5109108Y9880193D01*
X5100015Y9890302D01*
X5089601Y9899091D01*
X5078120Y9906406D01*
X5065776Y9912146D01*
X5052822Y9916160D01*
X5039410Y9918395D01*
X5025796Y9918852D01*
X5012283Y9917531D01*
X4999024Y9914382D01*
X4986324Y9909454D01*
X4974386Y9902952D01*
X4963464Y9894874D01*
X4953660Y9885426D01*
X4945227Y9874707D01*
X4938318Y9863023D01*
X4932984Y9850526D01*
X4929428Y9837369D01*
X4927600Y9823907D01*
X4927600Y9810292D01*
X4929428Y9796830D01*
X4932984Y9783673D01*
X4938318Y9771176D01*
X4945227Y9759492D01*
X4953660Y9748774D01*
X4963464Y9739325D01*
X4974386Y9731248D01*
X4986324Y9724745D01*
X4999024Y9719818D01*
X5012283Y9716668D01*
G37*
G36*
X4771796Y9715347D02*
G01*
X4785410Y9715804D01*
X4798822Y9718040D01*
X4811776Y9722053D01*
X4824120Y9727793D01*
X4835601Y9735108D01*
X4846015Y9743897D01*
X4855108Y9754006D01*
X4862830Y9765182D01*
X4868926Y9777323D01*
X4873396Y9790176D01*
X4876139Y9803536D01*
X4877054Y9817100D01*
X4876139Y9830663D01*
X4873396Y9844024D01*
X4868926Y9856876D01*
X4862830Y9869017D01*
X4855108Y9880193D01*
X4846015Y9890302D01*
X4835601Y9899091D01*
X4824120Y9906406D01*
X4811776Y9912146D01*
X4798822Y9916160D01*
X4785410Y9918395D01*
X4771796Y9918852D01*
X4758283Y9917531D01*
X4745024Y9914382D01*
X4732324Y9909454D01*
X4720386Y9902952D01*
X4709464Y9894874D01*
X4699660Y9885426D01*
X4691227Y9874707D01*
X4684318Y9863023D01*
X4678984Y9850526D01*
X4675428Y9837369D01*
X4673600Y9823907D01*
X4673600Y9810292D01*
X4675428Y9796830D01*
X4678984Y9783673D01*
X4684318Y9771176D01*
X4691227Y9759492D01*
X4699660Y9748774D01*
X4709464Y9739325D01*
X4720386Y9731248D01*
X4732324Y9724745D01*
X4745024Y9719818D01*
X4758283Y9716668D01*
G37*
G36*
X2993796Y9715347D02*
G01*
X3007410Y9715804D01*
X3020822Y9718040D01*
X3033776Y9722053D01*
X3046120Y9727793D01*
X3057601Y9735108D01*
X3068015Y9743897D01*
X3077108Y9754006D01*
X3084830Y9765182D01*
X3090926Y9777323D01*
X3095396Y9790176D01*
X3098139Y9803536D01*
X3099054Y9817100D01*
X3098139Y9830663D01*
X3095396Y9844024D01*
X3090926Y9856876D01*
X3084830Y9869017D01*
X3077108Y9880193D01*
X3068015Y9890302D01*
X3057601Y9899091D01*
X3046120Y9906406D01*
X3033776Y9912146D01*
X3020822Y9916160D01*
X3007410Y9918395D01*
X2993796Y9918852D01*
X2980283Y9917531D01*
X2967024Y9914382D01*
X2954324Y9909454D01*
X2942386Y9902952D01*
X2931464Y9894874D01*
X2921660Y9885426D01*
X2913227Y9874707D01*
X2906318Y9863023D01*
X2900984Y9850526D01*
X2897428Y9837369D01*
X2895600Y9823907D01*
X2895600Y9810292D01*
X2897428Y9796830D01*
X2900984Y9783673D01*
X2906318Y9771176D01*
X2913227Y9759492D01*
X2921660Y9748774D01*
X2931464Y9739325D01*
X2942386Y9731248D01*
X2954324Y9724745D01*
X2967024Y9719818D01*
X2980283Y9716668D01*
G37*
G36*
X3755796Y9715347D02*
G01*
X3769410Y9715804D01*
X3782822Y9718040D01*
X3795776Y9722053D01*
X3808120Y9727793D01*
X3819601Y9735108D01*
X3830015Y9743897D01*
X3839108Y9754006D01*
X3846829Y9765182D01*
X3852926Y9777323D01*
X3857396Y9790176D01*
X3860139Y9803536D01*
X3861054Y9817100D01*
X3860139Y9830663D01*
X3857396Y9844024D01*
X3852926Y9856876D01*
X3846829Y9869017D01*
X3839108Y9880193D01*
X3830015Y9890302D01*
X3819601Y9899091D01*
X3808120Y9906406D01*
X3795776Y9912146D01*
X3782822Y9916160D01*
X3769410Y9918395D01*
X3755796Y9918852D01*
X3742283Y9917531D01*
X3729024Y9914382D01*
X3716324Y9909454D01*
X3704386Y9902952D01*
X3693464Y9894874D01*
X3683660Y9885426D01*
X3675227Y9874707D01*
X3668318Y9863023D01*
X3662984Y9850526D01*
X3659428Y9837369D01*
X3657600Y9823907D01*
X3657600Y9810292D01*
X3659428Y9796830D01*
X3662984Y9783673D01*
X3668318Y9771176D01*
X3675227Y9759492D01*
X3683660Y9748774D01*
X3693464Y9739325D01*
X3704386Y9731248D01*
X3716324Y9724745D01*
X3729024Y9719818D01*
X3742283Y9716668D01*
G37*
G36*
X5787796Y9715347D02*
G01*
X5801410Y9715804D01*
X5814822Y9718040D01*
X5827776Y9722053D01*
X5840120Y9727793D01*
X5851601Y9735108D01*
X5862015Y9743897D01*
X5871108Y9754006D01*
X5878830Y9765182D01*
X5884926Y9777323D01*
X5889396Y9790176D01*
X5892139Y9803536D01*
X5893054Y9817100D01*
X5892139Y9830663D01*
X5889396Y9844024D01*
X5884926Y9856876D01*
X5878830Y9869017D01*
X5871108Y9880193D01*
X5862015Y9890302D01*
X5851601Y9899091D01*
X5840120Y9906406D01*
X5827776Y9912146D01*
X5814822Y9916160D01*
X5801410Y9918395D01*
X5787796Y9918852D01*
X5774283Y9917531D01*
X5761024Y9914382D01*
X5748324Y9909454D01*
X5736386Y9902952D01*
X5725464Y9894874D01*
X5715660Y9885426D01*
X5707227Y9874707D01*
X5700318Y9863023D01*
X5694984Y9850526D01*
X5691428Y9837369D01*
X5689600Y9823907D01*
X5689600Y9810292D01*
X5691428Y9796830D01*
X5694984Y9783673D01*
X5700318Y9771176D01*
X5707227Y9759492D01*
X5715660Y9748774D01*
X5725464Y9739325D01*
X5736386Y9731248D01*
X5748324Y9724745D01*
X5761024Y9719818D01*
X5774283Y9716668D01*
G37*
G36*
X2739796Y9715347D02*
G01*
X2753410Y9715804D01*
X2766822Y9718040D01*
X2779776Y9722053D01*
X2792120Y9727793D01*
X2803601Y9735108D01*
X2814015Y9743897D01*
X2823108Y9754006D01*
X2830830Y9765182D01*
X2836926Y9777323D01*
X2841396Y9790176D01*
X2844139Y9803536D01*
X2845054Y9817100D01*
X2844139Y9830663D01*
X2841396Y9844024D01*
X2836926Y9856876D01*
X2830830Y9869017D01*
X2823108Y9880193D01*
X2814015Y9890302D01*
X2803601Y9899091D01*
X2800502Y9901072D01*
X2798013Y9903307D01*
X2796387Y9906304D01*
X2795828Y9909606D01*
X2795828Y10121290D01*
X2796489Y10124948D01*
X2798368Y10128046D01*
X2801315Y10130332D01*
X2804820Y10131399D01*
X2810611Y10132060D01*
X2815996Y10133939D01*
X2820873Y10136987D01*
X2824886Y10141051D01*
X2827934Y10145877D01*
X2829864Y10151313D01*
X2830576Y10157561D01*
X2830576Y10246410D01*
X2829864Y10252659D01*
X2827934Y10258094D01*
X2824886Y10262920D01*
X2820873Y10266984D01*
X2815996Y10270032D01*
X2810611Y10271912D01*
X2804312Y10272623D01*
X2705455Y10272623D01*
X2699207Y10271912D01*
X2693771Y10270032D01*
X2688945Y10266984D01*
X2684881Y10262920D01*
X2681833Y10258094D01*
X2679954Y10252659D01*
X2679242Y10246410D01*
X2679242Y10157561D01*
X2679954Y10151313D01*
X2681833Y10145877D01*
X2684881Y10141051D01*
X2688945Y10136987D01*
X2693771Y10133939D01*
X2699207Y10132060D01*
X2704947Y10131399D01*
X2708503Y10130332D01*
X2711399Y10128046D01*
X2713329Y10124948D01*
X2713990Y10121290D01*
X2713990Y9921697D01*
X2713177Y9917734D01*
X2710891Y9914382D01*
X2707487Y9912248D01*
X2700324Y9909454D01*
X2688386Y9902952D01*
X2677464Y9894874D01*
X2667660Y9885426D01*
X2659227Y9874707D01*
X2652318Y9863023D01*
X2646984Y9850526D01*
X2643428Y9837369D01*
X2641600Y9823907D01*
X2641600Y9810292D01*
X2643428Y9796830D01*
X2646984Y9783673D01*
X2652318Y9771176D01*
X2659227Y9759492D01*
X2667660Y9748774D01*
X2677464Y9739325D01*
X2688386Y9731248D01*
X2700324Y9724745D01*
X2713024Y9719818D01*
X2726283Y9716668D01*
G37*
G36*
X8540750Y9725609D02*
G01*
X8540750Y9772650D01*
X8493709Y9772650D01*
X8494318Y9771176D01*
X8501227Y9759492D01*
X8509660Y9748774D01*
X8519464Y9739325D01*
X8530386Y9731248D01*
G37*
G36*
X8629650Y9725710D02*
G01*
X8634120Y9727793D01*
X8645601Y9735108D01*
X8656015Y9743897D01*
X8665108Y9754006D01*
X8672830Y9765182D01*
X8676589Y9772650D01*
X8629650Y9772650D01*
G37*
G36*
X8629650Y9861550D02*
G01*
X8676589Y9861550D01*
X8672830Y9869017D01*
X8665108Y9880193D01*
X8656015Y9890302D01*
X8645601Y9899091D01*
X8634120Y9906406D01*
X8629650Y9908489D01*
G37*
G36*
X8493709Y9861550D02*
G01*
X8540750Y9861550D01*
X8540750Y9908590D01*
X8530386Y9902952D01*
X8519464Y9894874D01*
X8509660Y9885426D01*
X8501227Y9874707D01*
X8494318Y9863023D01*
G37*
G36*
X3621836Y10084358D02*
G01*
X3659936Y10084358D01*
X3666185Y10085070D01*
X3671620Y10086949D01*
X3676446Y10089997D01*
X3680510Y10094061D01*
X3683558Y10098887D01*
X3685438Y10104323D01*
X3686149Y10110571D01*
X3686149Y10148671D01*
X3621836Y10148671D01*
G37*
G36*
X3481070Y10084358D02*
G01*
X3519170Y10084358D01*
X3519170Y10148671D01*
X3454857Y10148671D01*
X3454857Y10110571D01*
X3455568Y10104323D01*
X3457448Y10098887D01*
X3460496Y10094061D01*
X3464560Y10089997D01*
X3469386Y10086949D01*
X3474821Y10085070D01*
G37*
G36*
X2955493Y10131348D02*
G01*
X2976067Y10131348D01*
X2976067Y10175646D01*
X2929229Y10175646D01*
X2929229Y10157561D01*
X2929940Y10151313D01*
X2931820Y10145928D01*
X2934868Y10141051D01*
X2938932Y10136987D01*
X2943809Y10133939D01*
X2949194Y10132060D01*
G37*
G36*
X3043732Y10131348D02*
G01*
X3064306Y10131348D01*
X3070606Y10132060D01*
X3075990Y10133939D01*
X3080867Y10136987D01*
X3084931Y10141051D01*
X3087979Y10145928D01*
X3089859Y10151313D01*
X3090570Y10157561D01*
X3090570Y10175646D01*
X3043732Y10175646D01*
G37*
G36*
X2929229Y10238333D02*
G01*
X2976067Y10238333D01*
X2976067Y10281158D01*
X2976829Y10285069D01*
X2979013Y10288371D01*
X2982315Y10290556D01*
X2986227Y10291318D01*
X3033572Y10291318D01*
X3037484Y10290556D01*
X3040786Y10288371D01*
X3042970Y10285069D01*
X3043732Y10281158D01*
X3043732Y10238333D01*
X3090570Y10238333D01*
X3090570Y10256418D01*
X3089859Y10262717D01*
X3087979Y10268102D01*
X3084931Y10272979D01*
X3080867Y10276992D01*
X3078632Y10278414D01*
X3075686Y10281208D01*
X3074111Y10284968D01*
X3074111Y10289032D01*
X3075686Y10292791D01*
X3078632Y10295585D01*
X3080867Y10297007D01*
X3084931Y10301020D01*
X3087979Y10305897D01*
X3089859Y10311282D01*
X3090570Y10317581D01*
X3090570Y10416438D01*
X3089859Y10422686D01*
X3087979Y10428122D01*
X3084931Y10432948D01*
X3080867Y10437012D01*
X3075990Y10440060D01*
X3070606Y10441940D01*
X3064306Y10442651D01*
X2955493Y10442651D01*
X2949194Y10441940D01*
X2943809Y10440060D01*
X2938932Y10437012D01*
X2934868Y10432948D01*
X2931820Y10428122D01*
X2929940Y10422686D01*
X2929280Y10416946D01*
X2928213Y10413390D01*
X2925978Y10410494D01*
X2922828Y10408564D01*
X2919222Y10407904D01*
X2840583Y10407904D01*
X2836976Y10408564D01*
X2833827Y10410494D01*
X2831541Y10413390D01*
X2830474Y10416946D01*
X2829864Y10422686D01*
X2827934Y10428071D01*
X2824886Y10432948D01*
X2820873Y10437012D01*
X2815996Y10440060D01*
X2810611Y10441940D01*
X2804312Y10442651D01*
X2705455Y10442651D01*
X2699207Y10441940D01*
X2693771Y10440060D01*
X2688945Y10437012D01*
X2684881Y10432948D01*
X2681833Y10428071D01*
X2679954Y10422686D01*
X2679242Y10416438D01*
X2679242Y10327589D01*
X2679954Y10321290D01*
X2681833Y10315905D01*
X2684881Y10311028D01*
X2688945Y10306964D01*
X2693771Y10303916D01*
X2699207Y10302036D01*
X2705455Y10301325D01*
X2804312Y10301325D01*
X2810611Y10302036D01*
X2815996Y10303916D01*
X2820873Y10306964D01*
X2824886Y10311028D01*
X2827934Y10315905D01*
X2829153Y10319308D01*
X2831287Y10322864D01*
X2834690Y10325252D01*
X2838754Y10326065D01*
X2919222Y10326065D01*
X2922828Y10325404D01*
X2925978Y10323525D01*
X2928213Y10320578D01*
X2929280Y10317073D01*
X2929940Y10311282D01*
X2931820Y10305897D01*
X2934868Y10301020D01*
X2938932Y10297007D01*
X2941167Y10295585D01*
X2944114Y10292791D01*
X2945688Y10289032D01*
X2945688Y10284968D01*
X2944114Y10281208D01*
X2941167Y10278414D01*
X2938932Y10276992D01*
X2934868Y10272979D01*
X2931820Y10268102D01*
X2929940Y10262717D01*
X2929229Y10256418D01*
G37*
G36*
X3454857Y10251338D02*
G01*
X3519170Y10251338D01*
X3519170Y10315651D01*
X3481070Y10315651D01*
X3474821Y10314940D01*
X3469386Y10313060D01*
X3464560Y10310012D01*
X3460496Y10305948D01*
X3457448Y10301122D01*
X3455568Y10295686D01*
X3454857Y10289438D01*
G37*
G36*
X3621836Y10251338D02*
G01*
X3686149Y10251338D01*
X3686149Y10289438D01*
X3685438Y10295686D01*
X3683558Y10301122D01*
X3680510Y10305948D01*
X3676446Y10310012D01*
X3671620Y10313060D01*
X3666185Y10314940D01*
X3659936Y10315651D01*
X3621836Y10315651D01*
G37*
G36*
X7061758Y10376458D02*
G01*
X7113778Y10376458D01*
X7111746Y10380827D01*
X7103973Y10393070D01*
X7094677Y10404246D01*
X7084110Y10414203D01*
X7072375Y10422737D01*
X7061758Y10428579D01*
G37*
G36*
X6907022Y10376458D02*
G01*
X6959041Y10376458D01*
X6959041Y10428579D01*
X6948424Y10422737D01*
X6936689Y10414203D01*
X6926122Y10404246D01*
X6916877Y10393070D01*
X6909053Y10380827D01*
G37*
G36*
X6615379Y10454335D02*
G01*
X6754215Y10454335D01*
X6760514Y10455046D01*
X6765899Y10456926D01*
X6770776Y10459974D01*
X6774789Y10464038D01*
X6777837Y10468914D01*
X6779768Y10474299D01*
X6780479Y10480548D01*
X6780479Y10517886D01*
X6781241Y10521797D01*
X6783425Y10525048D01*
X6786727Y10527284D01*
X6790639Y10528046D01*
X7111492Y10528046D01*
X7119467Y10528808D01*
X7126681Y10530992D01*
X7133285Y10534548D01*
X7139482Y10539628D01*
X7545171Y10945317D01*
X7550251Y10951514D01*
X7553807Y10958118D01*
X7555992Y10965332D01*
X7556652Y10972190D01*
X7557668Y10975746D01*
X7559903Y10978692D01*
X7563002Y10980623D01*
X7567625Y10982452D01*
X7580375Y10989462D01*
X7592110Y10997996D01*
X7602677Y11007953D01*
X7611973Y11019129D01*
X7619746Y11031423D01*
X7625892Y11044529D01*
X7630414Y11058347D01*
X7633106Y11072622D01*
X7634020Y11087100D01*
X7633106Y11101578D01*
X7630414Y11115852D01*
X7625892Y11129670D01*
X7619746Y11142827D01*
X7611973Y11155070D01*
X7602677Y11166246D01*
X7592110Y11176203D01*
X7580375Y11184737D01*
X7567625Y11191748D01*
X7554112Y11197082D01*
X7540091Y11200688D01*
X7525664Y11202517D01*
X7511135Y11202517D01*
X7496759Y11200688D01*
X7482687Y11197082D01*
X7469174Y11191748D01*
X7456424Y11184737D01*
X7444689Y11176203D01*
X7434122Y11166246D01*
X7424877Y11155070D01*
X7417053Y11142827D01*
X7410907Y11129670D01*
X7406386Y11115852D01*
X7403693Y11101578D01*
X7402779Y11087100D01*
X7403693Y11072622D01*
X7406386Y11058347D01*
X7410907Y11044529D01*
X7417053Y11031423D01*
X7424877Y11019129D01*
X7434122Y11007953D01*
X7444689Y10997996D01*
X7456424Y10989462D01*
X7460335Y10987328D01*
X7463231Y10984941D01*
X7465059Y10981690D01*
X7465568Y10977981D01*
X7464704Y10974324D01*
X7462621Y10971276D01*
X7099096Y10607751D01*
X7095794Y10605516D01*
X7091883Y10604754D01*
X6787286Y10604754D01*
X6783882Y10605363D01*
X6780885Y10607040D01*
X6778599Y10609630D01*
X6774738Y10616031D01*
X6770776Y10619994D01*
X6765899Y10623042D01*
X6760514Y10624972D01*
X6754215Y10625632D01*
X6615379Y10625632D01*
X6609130Y10624972D01*
X6603695Y10623042D01*
X6598869Y10619994D01*
X6594805Y10615980D01*
X6591757Y10611104D01*
X6589826Y10605719D01*
X6589166Y10599420D01*
X6589166Y10591038D01*
X6588353Y10587177D01*
X6586169Y10583875D01*
X6582867Y10581690D01*
X6579006Y10580878D01*
X6540957Y10580878D01*
X6537045Y10581690D01*
X6533794Y10583875D01*
X6513423Y10604195D01*
X6511239Y10607497D01*
X6510477Y10611408D01*
X6510477Y10679430D01*
X6509766Y10685678D01*
X6507835Y10691114D01*
X6504787Y10695940D01*
X6500774Y10700004D01*
X6498539Y10701375D01*
X6495592Y10704220D01*
X6494018Y10707979D01*
X6494018Y10712043D01*
X6495592Y10715802D01*
X6498539Y10718596D01*
X6500774Y10719968D01*
X6504787Y10724032D01*
X6507835Y10728909D01*
X6509766Y10734294D01*
X6510477Y10740542D01*
X6510477Y10839399D01*
X6509766Y10845698D01*
X6507835Y10851083D01*
X6504787Y10855960D01*
X6500774Y10860024D01*
X6495897Y10863072D01*
X6490512Y10864951D01*
X6484213Y10865662D01*
X6478320Y10865662D01*
X6474409Y10866424D01*
X6471107Y10868609D01*
X6468922Y10871911D01*
X6468160Y10875822D01*
X6468160Y11070590D01*
X6468922Y11074501D01*
X6471107Y11077803D01*
X6667703Y11274348D01*
X6671005Y11276584D01*
X6674916Y11277346D01*
X7035292Y11277346D01*
X7043267Y11278108D01*
X7050481Y11280292D01*
X7057085Y11283848D01*
X7063282Y11288928D01*
X7227671Y11453317D01*
X7232751Y11459514D01*
X7236307Y11466118D01*
X7238492Y11473332D01*
X7239253Y11481308D01*
X7239253Y11753596D01*
X7240016Y11757456D01*
X7242251Y11760758D01*
X7245502Y11762943D01*
X7249414Y11763756D01*
X7350709Y11763756D01*
X7357008Y11764416D01*
X7362393Y11766346D01*
X7367270Y11769394D01*
X7371283Y11773408D01*
X7374381Y11778284D01*
X7376261Y11783669D01*
X7376972Y11789968D01*
X7376972Y11988800D01*
X7376261Y11995099D01*
X7374381Y12000484D01*
X7371283Y12005360D01*
X7367270Y12009374D01*
X7362393Y12012422D01*
X7357008Y12014352D01*
X7350709Y12015063D01*
X7154062Y12015063D01*
X7150252Y12015774D01*
X7147001Y12017857D01*
X7144766Y12021007D01*
X7143902Y12024766D01*
X7144461Y12028576D01*
X7146239Y12033707D01*
X7146950Y12039955D01*
X7146950Y12238837D01*
X7146239Y12245086D01*
X7144359Y12250521D01*
X7141311Y12255347D01*
X7137247Y12259411D01*
X7132421Y12262459D01*
X7126986Y12264339D01*
X7120737Y12265050D01*
X6821881Y12265050D01*
X6815632Y12264339D01*
X6810197Y12262459D01*
X6805371Y12259411D01*
X6801307Y12255347D01*
X6798259Y12250521D01*
X6796379Y12245086D01*
X6795668Y12238837D01*
X6795668Y12039955D01*
X6796379Y12033707D01*
X6798259Y12028271D01*
X6801307Y12023445D01*
X6805371Y12019381D01*
X6810197Y12016333D01*
X6815632Y12014454D01*
X6821881Y12013742D01*
X7018578Y12013742D01*
X7022338Y12013031D01*
X7025589Y12010948D01*
X7027824Y12007799D01*
X7028738Y12004040D01*
X7028180Y12000230D01*
X7026351Y11995099D01*
X7025640Y11988800D01*
X7025640Y11789968D01*
X7026351Y11783669D01*
X7028230Y11778284D01*
X7031278Y11773408D01*
X7035342Y11769394D01*
X7040219Y11766346D01*
X7045604Y11764416D01*
X7051852Y11763756D01*
X7152386Y11763756D01*
X7156297Y11762943D01*
X7159548Y11760758D01*
X7161784Y11757456D01*
X7162546Y11753596D01*
X7162546Y11500916D01*
X7161784Y11497005D01*
X7159548Y11493703D01*
X7022896Y11357051D01*
X7019594Y11354816D01*
X7015683Y11354054D01*
X6655308Y11354054D01*
X6647332Y11353292D01*
X6640118Y11351107D01*
X6633514Y11347551D01*
X6627317Y11342471D01*
X6403035Y11118189D01*
X6397955Y11111992D01*
X6394399Y11105337D01*
X6392214Y11098174D01*
X6391452Y11090198D01*
X6391452Y10875822D01*
X6390690Y10871911D01*
X6388455Y10868609D01*
X6385153Y10866424D01*
X6381292Y10865662D01*
X6375349Y10865662D01*
X6369100Y10864951D01*
X6363716Y10863072D01*
X6358839Y10860024D01*
X6354775Y10855960D01*
X6351727Y10851083D01*
X6349847Y10845698D01*
X6349136Y10839399D01*
X6349136Y10740542D01*
X6349847Y10734294D01*
X6351727Y10728909D01*
X6354775Y10724032D01*
X6358839Y10719968D01*
X6361074Y10718596D01*
X6363970Y10715802D01*
X6365595Y10712043D01*
X6365595Y10707979D01*
X6363970Y10704220D01*
X6361074Y10701375D01*
X6358839Y10700004D01*
X6354775Y10695940D01*
X6351727Y10691114D01*
X6349847Y10685678D01*
X6349136Y10679430D01*
X6349136Y10580573D01*
X6349847Y10574324D01*
X6351727Y10568889D01*
X6354775Y10564063D01*
X6358839Y10559999D01*
X6363716Y10556951D01*
X6369100Y10555071D01*
X6375349Y10554360D01*
X6443370Y10554360D01*
X6447282Y10553598D01*
X6450584Y10551363D01*
X6490512Y10511434D01*
X6497116Y10506049D01*
X6504178Y10502239D01*
X6511848Y10499902D01*
X6520281Y10499090D01*
X6579006Y10499090D01*
X6582867Y10498328D01*
X6586169Y10496092D01*
X6588353Y10492841D01*
X6589166Y10488930D01*
X6589166Y10480548D01*
X6589826Y10474299D01*
X6591757Y10468914D01*
X6594805Y10464038D01*
X6598869Y10459974D01*
X6603695Y10456926D01*
X6609130Y10455046D01*
G37*
G36*
X5826150Y10724235D02*
G01*
X5846724Y10724235D01*
X5853023Y10724946D01*
X5858408Y10726826D01*
X5863285Y10729925D01*
X5867298Y10733938D01*
X5870346Y10738815D01*
X5872276Y10744200D01*
X5872937Y10750499D01*
X5872937Y10768533D01*
X5826150Y10768533D01*
G37*
G36*
X5737860Y10724235D02*
G01*
X5758434Y10724235D01*
X5758434Y10768533D01*
X5711647Y10768533D01*
X5711647Y10750499D01*
X5712358Y10744200D01*
X5714238Y10738815D01*
X5717286Y10733938D01*
X5721350Y10729925D01*
X5726226Y10726826D01*
X5731611Y10724946D01*
G37*
G36*
X8233054Y10724337D02*
G01*
X8253628Y10724337D01*
X8253628Y10768634D01*
X8206841Y10768634D01*
X8206841Y10750550D01*
X8207552Y10744301D01*
X8209432Y10738916D01*
X8212480Y10734040D01*
X8216544Y10729976D01*
X8221421Y10726928D01*
X8226806Y10725048D01*
G37*
G36*
X8321344Y10724337D02*
G01*
X8341918Y10724337D01*
X8348218Y10725048D01*
X8353602Y10726928D01*
X8358479Y10729976D01*
X8362492Y10734040D01*
X8365540Y10738916D01*
X8367471Y10744301D01*
X8368131Y10750550D01*
X8368131Y10768634D01*
X8321344Y10768634D01*
G37*
G36*
X6615379Y10794339D02*
G01*
X6754215Y10794339D01*
X6760514Y10795050D01*
X6765899Y10796930D01*
X6770776Y10799978D01*
X6774789Y10804042D01*
X6777837Y10808919D01*
X6779768Y10814304D01*
X6780479Y10820552D01*
X6780479Y10835386D01*
X6781241Y10839297D01*
X6783425Y10842548D01*
X6786727Y10844784D01*
X6790639Y10845546D01*
X7060692Y10845546D01*
X7068667Y10846308D01*
X7075881Y10848492D01*
X7082485Y10852048D01*
X7088682Y10857128D01*
X7209637Y10978083D01*
X7212888Y10980267D01*
X7216698Y10981080D01*
X7220559Y10980369D01*
X7228687Y10977118D01*
X7242759Y10973511D01*
X7257135Y10971682D01*
X7271664Y10971682D01*
X7286091Y10973511D01*
X7300112Y10977118D01*
X7313625Y10982452D01*
X7326375Y10989462D01*
X7338110Y10997996D01*
X7348677Y11007953D01*
X7357973Y11019129D01*
X7365746Y11031423D01*
X7371892Y11044529D01*
X7376414Y11058347D01*
X7379106Y11072622D01*
X7380020Y11087100D01*
X7379106Y11101578D01*
X7376414Y11115852D01*
X7371892Y11129670D01*
X7370572Y11134496D01*
X7371283Y11138560D01*
X7373518Y11142014D01*
X7620203Y11388648D01*
X7623505Y11390884D01*
X7627416Y11391646D01*
X8114792Y11391646D01*
X8122767Y11392408D01*
X8129981Y11394592D01*
X8136585Y11398148D01*
X8142782Y11403228D01*
X8282787Y11543233D01*
X8287867Y11549430D01*
X8291423Y11556034D01*
X8293608Y11563248D01*
X8294370Y11571224D01*
X8294370Y11753596D01*
X8295131Y11757456D01*
X8297367Y11760758D01*
X8300618Y11762943D01*
X8304530Y11763756D01*
X8350707Y11763756D01*
X8357006Y11764416D01*
X8362391Y11766346D01*
X8367268Y11769394D01*
X8371281Y11773408D01*
X8374380Y11778284D01*
X8376259Y11783669D01*
X8376970Y11789968D01*
X8376970Y11988800D01*
X8376259Y11995099D01*
X8374430Y12000230D01*
X8373872Y12004040D01*
X8374786Y12007799D01*
X8377021Y12010948D01*
X8380272Y12013031D01*
X8384031Y12013742D01*
X8580729Y12013742D01*
X8586978Y12014454D01*
X8592413Y12016333D01*
X8597239Y12019381D01*
X8601303Y12023445D01*
X8604351Y12028271D01*
X8606231Y12033707D01*
X8606942Y12039955D01*
X8606942Y12238837D01*
X8606231Y12245086D01*
X8604351Y12250521D01*
X8601303Y12255347D01*
X8597239Y12259411D01*
X8592413Y12262459D01*
X8586978Y12264339D01*
X8580729Y12265050D01*
X8281873Y12265050D01*
X8275624Y12264339D01*
X8270189Y12262459D01*
X8265363Y12259411D01*
X8261299Y12255347D01*
X8258251Y12250521D01*
X8256371Y12245086D01*
X8255660Y12238837D01*
X8255660Y12039955D01*
X8256371Y12033707D01*
X8258149Y12028576D01*
X8258708Y12024766D01*
X8257794Y12021007D01*
X8255558Y12017857D01*
X8252358Y12015774D01*
X8248548Y12015063D01*
X8051850Y12015063D01*
X8045602Y12014352D01*
X8040217Y12012422D01*
X8035340Y12009374D01*
X8031276Y12005360D01*
X8028228Y12000484D01*
X8026349Y11995099D01*
X8025638Y11988800D01*
X8025638Y11789968D01*
X8026349Y11783669D01*
X8028228Y11778284D01*
X8031276Y11773408D01*
X8035340Y11769394D01*
X8040217Y11766346D01*
X8045602Y11764416D01*
X8051850Y11763756D01*
X8207502Y11763756D01*
X8211413Y11762943D01*
X8214664Y11760758D01*
X8216900Y11757456D01*
X8217662Y11753596D01*
X8217662Y11590832D01*
X8216900Y11586921D01*
X8214664Y11583619D01*
X8102396Y11471351D01*
X8099094Y11469116D01*
X8095183Y11468354D01*
X7607808Y11468354D01*
X7599832Y11467592D01*
X7592618Y11465407D01*
X7586014Y11461851D01*
X7579817Y11456771D01*
X7319162Y11196116D01*
X7315962Y11193932D01*
X7312101Y11193170D01*
X7308240Y11193881D01*
X7300112Y11197082D01*
X7286091Y11200688D01*
X7271664Y11202517D01*
X7257135Y11202517D01*
X7242759Y11200688D01*
X7228687Y11197082D01*
X7215174Y11191748D01*
X7202424Y11184737D01*
X7190689Y11176203D01*
X7180122Y11166246D01*
X7170877Y11155070D01*
X7163053Y11142827D01*
X7156907Y11129670D01*
X7152386Y11115852D01*
X7149693Y11101578D01*
X7148779Y11087100D01*
X7149693Y11072622D01*
X7152386Y11058347D01*
X7156907Y11044529D01*
X7158228Y11039703D01*
X7157516Y11035639D01*
X7155281Y11032185D01*
X7048296Y10925251D01*
X7044994Y10923016D01*
X7041083Y10922254D01*
X6790639Y10922254D01*
X6786727Y10923016D01*
X6783425Y10925251D01*
X6781241Y10928502D01*
X6780479Y10932414D01*
X6780479Y10939424D01*
X6779768Y10945672D01*
X6777837Y10951108D01*
X6774789Y10955934D01*
X6770776Y10959998D01*
X6765899Y10963046D01*
X6760514Y10964926D01*
X6754215Y10965637D01*
X6615379Y10965637D01*
X6609130Y10964926D01*
X6603695Y10963046D01*
X6598869Y10959998D01*
X6594805Y10955934D01*
X6591757Y10951108D01*
X6589826Y10945672D01*
X6589166Y10939424D01*
X6589166Y10820552D01*
X6589826Y10814304D01*
X6591757Y10808919D01*
X6594805Y10804042D01*
X6598869Y10799978D01*
X6603695Y10796930D01*
X6609130Y10795050D01*
G37*
G36*
X11445189Y10803229D02*
G01*
X11463274Y10803229D01*
X11463274Y10850067D01*
X11418925Y10850067D01*
X11418925Y10829493D01*
X11419636Y10823194D01*
X11421567Y10817809D01*
X11424615Y10812932D01*
X11428628Y10808868D01*
X11433505Y10805820D01*
X11438890Y10803940D01*
G37*
G36*
X11525961Y10803229D02*
G01*
X11544046Y10803229D01*
X11550294Y10803940D01*
X11555730Y10805820D01*
X11560556Y10808868D01*
X11564620Y10812932D01*
X11567668Y10817809D01*
X11569547Y10823194D01*
X11570258Y10829493D01*
X11570258Y10850067D01*
X11525961Y10850067D01*
G37*
G36*
X8461857Y10821365D02*
G01*
X8508644Y10821365D01*
X8508644Y10865662D01*
X8488070Y10865662D01*
X8481822Y10864951D01*
X8476386Y10863072D01*
X8471560Y10860024D01*
X8467496Y10855960D01*
X8464448Y10851083D01*
X8462568Y10845698D01*
X8461857Y10839399D01*
G37*
G36*
X8576360Y10821365D02*
G01*
X8623147Y10821365D01*
X8623147Y10839399D01*
X8622436Y10845698D01*
X8620556Y10851083D01*
X8617508Y10855960D01*
X8613444Y10860024D01*
X8608618Y10863072D01*
X8603183Y10864951D01*
X8596934Y10865662D01*
X8576360Y10865662D01*
G37*
G36*
X5826150Y10831271D02*
G01*
X5872937Y10831271D01*
X5872937Y10849356D01*
X5872276Y10855604D01*
X5870346Y10860989D01*
X5867298Y10865866D01*
X5863285Y10869930D01*
X5858408Y10872978D01*
X5853023Y10874857D01*
X5846724Y10875568D01*
X5826150Y10875568D01*
G37*
G36*
X5711647Y10831271D02*
G01*
X5758434Y10831271D01*
X5758434Y10875568D01*
X5737860Y10875568D01*
X5731611Y10874857D01*
X5726226Y10872978D01*
X5721350Y10869930D01*
X5717286Y10865866D01*
X5714238Y10860989D01*
X5712358Y10855604D01*
X5711647Y10849356D01*
G37*
G36*
X8206841Y10831322D02*
G01*
X8253628Y10831322D01*
X8253628Y10875670D01*
X8233054Y10875670D01*
X8226806Y10874959D01*
X8221421Y10873028D01*
X8216544Y10869980D01*
X8212480Y10865967D01*
X8209432Y10861090D01*
X8207552Y10855706D01*
X8206841Y10849406D01*
G37*
G36*
X8321344Y10831322D02*
G01*
X8368131Y10831322D01*
X8368131Y10849406D01*
X8367471Y10855706D01*
X8365540Y10861090D01*
X8362492Y10865967D01*
X8358479Y10869980D01*
X8353602Y10873028D01*
X8348218Y10874959D01*
X8341918Y10875670D01*
X8321344Y10875670D01*
G37*
G36*
X4752441Y10908842D02*
G01*
X4752441Y10968634D01*
X4718151Y10968634D01*
X4718151Y10960455D01*
X4719015Y10950346D01*
X4721555Y10940999D01*
X4725619Y10932210D01*
X4731207Y10924235D01*
X4738065Y10917377D01*
X4745990Y10911840D01*
G37*
G36*
X11418925Y10917732D02*
G01*
X11463274Y10917732D01*
X11463274Y10964570D01*
X11445189Y10964570D01*
X11438890Y10963859D01*
X11433505Y10961979D01*
X11428628Y10958931D01*
X11424615Y10954867D01*
X11421567Y10949990D01*
X11419636Y10944606D01*
X11418925Y10938306D01*
G37*
G36*
X11525961Y10917732D02*
G01*
X11570258Y10917732D01*
X11570258Y10938306D01*
X11569547Y10944606D01*
X11567668Y10949990D01*
X11564620Y10954867D01*
X11560556Y10958931D01*
X11555730Y10961979D01*
X11550294Y10963859D01*
X11544046Y10964570D01*
X11525961Y10964570D01*
G37*
G36*
X7682992Y10971428D02*
G01*
X7861808Y10971428D01*
X7868107Y10972139D01*
X7873492Y10974070D01*
X7878368Y10977118D01*
X7882432Y10981131D01*
X7885480Y10986008D01*
X7887360Y10991392D01*
X7888071Y10997692D01*
X7888071Y11176558D01*
X7887360Y11182807D01*
X7885480Y11188192D01*
X7882432Y11193068D01*
X7878368Y11197132D01*
X7873492Y11200180D01*
X7868107Y11202060D01*
X7861808Y11202771D01*
X7682992Y11202771D01*
X7676692Y11202060D01*
X7671308Y11200180D01*
X7666431Y11197132D01*
X7662418Y11193068D01*
X7659370Y11188192D01*
X7657439Y11182807D01*
X7656728Y11176558D01*
X7656728Y10997692D01*
X7657439Y10991392D01*
X7659370Y10986008D01*
X7662418Y10981131D01*
X7666431Y10977118D01*
X7671308Y10974070D01*
X7676692Y10972139D01*
G37*
G36*
X7003135Y10971682D02*
G01*
X7017664Y10971682D01*
X7032091Y10973511D01*
X7046112Y10977118D01*
X7059625Y10982452D01*
X7072375Y10989462D01*
X7084110Y10997996D01*
X7094677Y11007953D01*
X7103973Y11019129D01*
X7111746Y11031423D01*
X7117892Y11044529D01*
X7122414Y11058347D01*
X7125106Y11072622D01*
X7126020Y11087100D01*
X7125106Y11101578D01*
X7122414Y11115852D01*
X7117892Y11129670D01*
X7111746Y11142827D01*
X7103973Y11155070D01*
X7094677Y11166246D01*
X7084110Y11176203D01*
X7072375Y11184737D01*
X7059625Y11191748D01*
X7046112Y11197082D01*
X7032091Y11200688D01*
X7017664Y11202517D01*
X7003135Y11202517D01*
X6988759Y11200688D01*
X6974687Y11197082D01*
X6961174Y11191748D01*
X6948424Y11184737D01*
X6936689Y11176203D01*
X6926122Y11166246D01*
X6916877Y11155070D01*
X6909053Y11142827D01*
X6902907Y11129670D01*
X6898386Y11115852D01*
X6895693Y11101578D01*
X6894779Y11087100D01*
X6895693Y11072622D01*
X6898386Y11058347D01*
X6902907Y11044529D01*
X6909053Y11031423D01*
X6916877Y11019129D01*
X6926122Y11007953D01*
X6936689Y10997996D01*
X6948424Y10989462D01*
X6961174Y10982452D01*
X6974687Y10977118D01*
X6988759Y10973511D01*
G37*
G36*
X3146958Y11059617D02*
G01*
X3157524Y11060074D01*
X3167837Y11062157D01*
X3177743Y11065916D01*
X3186887Y11071199D01*
X3195066Y11077854D01*
X3202076Y11085779D01*
X3207715Y11094720D01*
X3211830Y11104422D01*
X3214370Y11114684D01*
X3215233Y11125200D01*
X3214370Y11135715D01*
X3211830Y11145977D01*
X3207715Y11155680D01*
X3202076Y11164620D01*
X3195066Y11172545D01*
X3186887Y11179200D01*
X3177743Y11184483D01*
X3167837Y11188242D01*
X3157372Y11190376D01*
X3154578Y11191392D01*
X3152190Y11193119D01*
X3091129Y11254232D01*
X3088944Y11257534D01*
X3088132Y11261394D01*
X3088132Y11274450D01*
X3087471Y11280698D01*
X3085541Y11286083D01*
X3082493Y11290960D01*
X3078429Y11295024D01*
X3073603Y11298072D01*
X3068167Y11299952D01*
X3061919Y11300663D01*
X2963062Y11300663D01*
X2956814Y11299952D01*
X2951378Y11298072D01*
X2946552Y11295024D01*
X2942488Y11290960D01*
X2941116Y11288725D01*
X2938272Y11285829D01*
X2934563Y11284204D01*
X2930448Y11284204D01*
X2926740Y11285829D01*
X2923895Y11288725D01*
X2922524Y11290960D01*
X2918460Y11295024D01*
X2913634Y11298072D01*
X2911449Y11298783D01*
X2907893Y11300968D01*
X2905506Y11304320D01*
X2904642Y11308384D01*
X2904642Y11753596D01*
X2905404Y11757456D01*
X2907639Y11760758D01*
X2910941Y11762943D01*
X2914802Y11763756D01*
X3015742Y11763756D01*
X3021990Y11764416D01*
X3027426Y11766346D01*
X3032252Y11769394D01*
X3036316Y11773408D01*
X3039364Y11778284D01*
X3041243Y11783669D01*
X3041954Y11789968D01*
X3041954Y11988800D01*
X3041243Y11995099D01*
X3039364Y12000484D01*
X3036316Y12005360D01*
X3032252Y12009374D01*
X3027426Y12012422D01*
X3021990Y12014352D01*
X3015742Y12015063D01*
X2819044Y12015063D01*
X2815234Y12015774D01*
X2812034Y12017857D01*
X2809798Y12021007D01*
X2808884Y12024766D01*
X2809443Y12028576D01*
X2811272Y12033707D01*
X2811983Y12039955D01*
X2811983Y12238837D01*
X2811272Y12245086D01*
X2809341Y12250521D01*
X2806293Y12255347D01*
X2802280Y12259411D01*
X2797403Y12262459D01*
X2792018Y12264339D01*
X2785719Y12265050D01*
X2486863Y12265050D01*
X2480614Y12264339D01*
X2475179Y12262459D01*
X2470353Y12259411D01*
X2466289Y12255347D01*
X2463241Y12250521D01*
X2461361Y12245086D01*
X2460650Y12238837D01*
X2460650Y12039955D01*
X2461361Y12033707D01*
X2463241Y12028271D01*
X2466289Y12023445D01*
X2470353Y12019381D01*
X2475179Y12016333D01*
X2480614Y12014454D01*
X2486863Y12013742D01*
X2683560Y12013742D01*
X2687370Y12013031D01*
X2690571Y12010948D01*
X2692806Y12007799D01*
X2693720Y12004040D01*
X2693162Y12000230D01*
X2691333Y11995099D01*
X2690622Y11988800D01*
X2690622Y11789968D01*
X2691333Y11783669D01*
X2693263Y11778284D01*
X2696311Y11773408D01*
X2700324Y11769394D01*
X2705201Y11766346D01*
X2710586Y11764416D01*
X2716885Y11763756D01*
X2817774Y11763756D01*
X2821686Y11762943D01*
X2824988Y11760758D01*
X2827172Y11757456D01*
X2827934Y11753596D01*
X2827934Y11310823D01*
X2827172Y11306911D01*
X2824988Y11303609D01*
X2821686Y11301425D01*
X2817774Y11300663D01*
X2803093Y11300663D01*
X2796794Y11299952D01*
X2791409Y11298072D01*
X2786532Y11295024D01*
X2782519Y11290960D01*
X2779471Y11286083D01*
X2777540Y11280698D01*
X2776880Y11274450D01*
X2776880Y11165586D01*
X2777540Y11159286D01*
X2779471Y11153902D01*
X2782519Y11149025D01*
X2786532Y11145012D01*
X2791409Y11141964D01*
X2796794Y11140033D01*
X2803093Y11139322D01*
X2901950Y11139322D01*
X2908198Y11140033D01*
X2913634Y11141964D01*
X2918460Y11145012D01*
X2922524Y11149025D01*
X2923895Y11151260D01*
X2926740Y11154206D01*
X2930448Y11155781D01*
X2934563Y11155781D01*
X2938272Y11154206D01*
X2941116Y11151260D01*
X2942488Y11149025D01*
X2946552Y11145012D01*
X2951378Y11141964D01*
X2956814Y11140033D01*
X2963062Y11139322D01*
X3061919Y11139322D01*
X3068167Y11140033D01*
X3070656Y11140948D01*
X3074517Y11141506D01*
X3078226Y11140592D01*
X3081375Y11138357D01*
X3083458Y11135106D01*
X3084220Y11131346D01*
X3084169Y11119916D01*
X3085896Y11109502D01*
X3089249Y11099495D01*
X3094126Y11090148D01*
X3100476Y11081664D01*
X3108096Y11074349D01*
X3116783Y11068354D01*
X3126333Y11063833D01*
X3136493Y11060887D01*
G37*
G36*
X4718151Y11071352D02*
G01*
X4752441Y11071352D01*
X4752441Y11131194D01*
X4745990Y11128146D01*
X4738065Y11122609D01*
X4731207Y11115751D01*
X4725619Y11107826D01*
X4721555Y11099038D01*
X4719015Y11089640D01*
X4718151Y11079530D01*
G37*
G36*
X11584584Y11115446D02*
G01*
X11591036Y11118646D01*
X11602567Y11126317D01*
X11612930Y11135461D01*
X11622024Y11145824D01*
X11629745Y11157305D01*
X11632895Y11163757D01*
X11584584Y11163757D01*
G37*
G36*
X11491874Y11115446D02*
G01*
X11491874Y11163757D01*
X11443563Y11163757D01*
X11446764Y11157305D01*
X11454434Y11145824D01*
X11463528Y11135461D01*
X11473942Y11126317D01*
X11485422Y11118646D01*
G37*
G36*
X11584584Y11256467D02*
G01*
X11632895Y11256467D01*
X11629745Y11262969D01*
X11622024Y11274450D01*
X11612930Y11284813D01*
X11602567Y11293957D01*
X11591036Y11301628D01*
X11584584Y11304778D01*
G37*
G36*
X11365128Y11369192D02*
G01*
X11365128Y11417503D01*
X11316817Y11417503D01*
X11320018Y11411051D01*
X11327688Y11399570D01*
X11336782Y11389207D01*
X11347196Y11380063D01*
X11358676Y11372392D01*
G37*
G36*
X11316817Y11510213D02*
G01*
X11365128Y11510213D01*
X11365128Y11558524D01*
X11358676Y11555374D01*
X11347196Y11547703D01*
X11336782Y11538559D01*
X11327688Y11528196D01*
X11320018Y11516715D01*
G37*
G36*
X10631170Y11660022D02*
G01*
X10631170Y11724995D01*
X10566247Y11724995D01*
X10572496Y11713667D01*
X10582249Y11699900D01*
X10593527Y11687302D01*
X10606125Y11676024D01*
X10619892Y11666270D01*
G37*
G36*
X12181078Y11660022D02*
G01*
X12181078Y11724995D01*
X12116155Y11724995D01*
X12122404Y11713667D01*
X12132157Y11699900D01*
X12143435Y11687302D01*
X12156033Y11676024D01*
X12169800Y11666270D01*
G37*
G36*
X12318796Y11660022D02*
G01*
X12330074Y11666270D01*
X12343892Y11676024D01*
X12356490Y11687302D01*
X12367717Y11699900D01*
X12377521Y11713667D01*
X12383719Y11724995D01*
X12318796Y11724995D01*
G37*
G36*
X10768888Y11862663D02*
G01*
X10833811Y11862663D01*
X10827613Y11873941D01*
X10817809Y11887758D01*
X10806582Y11900357D01*
X10793984Y11911584D01*
X10780166Y11921388D01*
X10768888Y11927636D01*
G37*
G36*
X12318796Y11862663D02*
G01*
X12383719Y11862663D01*
X12377521Y11873941D01*
X12367717Y11887758D01*
X12356490Y11900357D01*
X12343892Y11911584D01*
X12330074Y11921388D01*
X12318796Y11927636D01*
G37*
G36*
X12116155Y11862663D02*
G01*
X12181078Y11862663D01*
X12181078Y11927636D01*
X12169800Y11921388D01*
X12156033Y11911584D01*
X12143435Y11900357D01*
X12132157Y11887758D01*
X12122404Y11873941D01*
G37*
G36*
X10566247Y11862663D02*
G01*
X10631170Y11862663D01*
X10631170Y11927636D01*
X10619892Y11921388D01*
X10606125Y11911584D01*
X10593527Y11900357D01*
X10582249Y11887758D01*
X10572496Y11873941D01*
G37*
G36*
X10898225Y11908282D02*
G01*
X10917224Y11908790D01*
X10936122Y11911126D01*
X10954613Y11915394D01*
X10972647Y11921439D01*
X10989970Y11929262D01*
X11006429Y11938762D01*
X11021872Y11949836D01*
X11036096Y11962434D01*
X11049050Y11976354D01*
X11060531Y11991492D01*
X11070437Y12007697D01*
X11078667Y12024817D01*
X11085169Y12042698D01*
X11089843Y12061088D01*
X11092688Y12079884D01*
X11093653Y12098883D01*
X11092688Y12117882D01*
X11089843Y12136678D01*
X11085169Y12155068D01*
X11078667Y12172950D01*
X11070437Y12190069D01*
X11060531Y12206274D01*
X11049050Y12221413D01*
X11036096Y12235332D01*
X11021872Y12247930D01*
X11006429Y12259005D01*
X10989970Y12268504D01*
X10972647Y12276328D01*
X10954613Y12282373D01*
X10936122Y12286640D01*
X10917224Y12288977D01*
X10898225Y12289485D01*
X10879277Y12288062D01*
X10860582Y12284760D01*
X10842294Y12279579D01*
X10824616Y12272670D01*
X10807700Y12263983D01*
X10791698Y12253671D01*
X10776864Y12241834D01*
X10763250Y12228576D01*
X10751058Y12213996D01*
X10740339Y12198299D01*
X10731246Y12181586D01*
X10723880Y12164110D01*
X10718241Y12145924D01*
X10714482Y12127280D01*
X10712602Y12108383D01*
X10712602Y12089384D01*
X10714482Y12070486D01*
X10718241Y12051842D01*
X10723880Y12033656D01*
X10731246Y12016181D01*
X10740339Y11999468D01*
X10751058Y11983770D01*
X10763250Y11969191D01*
X10776864Y11955932D01*
X10791698Y11944096D01*
X10807700Y11933783D01*
X10824616Y11925096D01*
X10842294Y11918188D01*
X10860582Y11913006D01*
X10879277Y11909704D01*
G37*
G36*
X12041225Y11908282D02*
G01*
X12060224Y11908790D01*
X12079122Y11911126D01*
X12097613Y11915394D01*
X12115647Y11921439D01*
X12132970Y11929262D01*
X12149429Y11938762D01*
X12164872Y11949836D01*
X12179096Y11962434D01*
X12192050Y11976354D01*
X12203531Y11991492D01*
X12213437Y12007697D01*
X12221667Y12024817D01*
X12228169Y12042698D01*
X12232843Y12061088D01*
X12235688Y12079884D01*
X12236653Y12098883D01*
X12235688Y12117882D01*
X12232843Y12136678D01*
X12228169Y12155068D01*
X12221667Y12172950D01*
X12213437Y12190069D01*
X12203531Y12206274D01*
X12192050Y12221413D01*
X12179096Y12235332D01*
X12164872Y12247930D01*
X12149429Y12259005D01*
X12132970Y12268504D01*
X12115647Y12276328D01*
X12097613Y12282373D01*
X12079122Y12286640D01*
X12060224Y12288977D01*
X12041225Y12289485D01*
X12022277Y12288062D01*
X12003582Y12284760D01*
X11985294Y12279579D01*
X11967616Y12272670D01*
X11950700Y12263983D01*
X11934698Y12253671D01*
X11919864Y12241834D01*
X11906250Y12228576D01*
X11894058Y12213996D01*
X11883339Y12198299D01*
X11874246Y12181586D01*
X11866880Y12164110D01*
X11861241Y12145924D01*
X11857482Y12127280D01*
X11855602Y12108383D01*
X11855602Y12089384D01*
X11857482Y12070486D01*
X11861241Y12051842D01*
X11866880Y12033656D01*
X11874246Y12016181D01*
X11883339Y11999468D01*
X11894058Y11983770D01*
X11906250Y11969191D01*
X11919864Y11955932D01*
X11934698Y11944096D01*
X11950700Y11933783D01*
X11967616Y11925096D01*
X11985294Y11918188D01*
X12003582Y11913006D01*
X12022277Y11909704D01*
G37*
G36*
X5384393Y12013742D02*
G01*
X5452465Y12013742D01*
X5452465Y12083034D01*
X5358130Y12083034D01*
X5358130Y12039955D01*
X5358841Y12033707D01*
X5360720Y12028271D01*
X5363768Y12023445D01*
X5367832Y12019381D01*
X5372709Y12016333D01*
X5378094Y12014454D01*
G37*
G36*
X5615127Y12013742D02*
G01*
X5683250Y12013742D01*
X5689498Y12014454D01*
X5694883Y12016333D01*
X5699760Y12019381D01*
X5703824Y12023445D01*
X5706872Y12028271D01*
X5708751Y12033707D01*
X5709462Y12039955D01*
X5709462Y12083034D01*
X5615127Y12083034D01*
G37*
G36*
X3447643Y12013742D02*
G01*
X3515715Y12013742D01*
X3522014Y12014454D01*
X3527399Y12016333D01*
X3532276Y12019381D01*
X3536289Y12023445D01*
X3539337Y12028271D01*
X3541268Y12033707D01*
X3541979Y12039955D01*
X3541979Y12083034D01*
X3447643Y12083034D01*
G37*
G36*
X3216859Y12013742D02*
G01*
X3284931Y12013742D01*
X3284931Y12083034D01*
X3190646Y12083034D01*
X3190646Y12039955D01*
X3191357Y12033707D01*
X3193237Y12028271D01*
X3196285Y12023445D01*
X3200349Y12019381D01*
X3205175Y12016333D01*
X3210610Y12014454D01*
G37*
G36*
X7551877Y12013742D02*
G01*
X7850733Y12013742D01*
X7856981Y12014454D01*
X7862417Y12016333D01*
X7867243Y12019381D01*
X7871307Y12023445D01*
X7874355Y12028271D01*
X7876235Y12033707D01*
X7876946Y12039955D01*
X7876946Y12238837D01*
X7876235Y12245086D01*
X7874355Y12250521D01*
X7871307Y12255347D01*
X7867243Y12259411D01*
X7862417Y12262459D01*
X7856981Y12264339D01*
X7850733Y12265050D01*
X7551877Y12265050D01*
X7545628Y12264339D01*
X7540193Y12262459D01*
X7535367Y12259411D01*
X7531303Y12255347D01*
X7528255Y12250521D01*
X7526375Y12245086D01*
X7525664Y12238837D01*
X7525664Y12039955D01*
X7526375Y12033707D01*
X7528255Y12028271D01*
X7531303Y12023445D01*
X7535367Y12019381D01*
X7540193Y12016333D01*
X7545628Y12014454D01*
G37*
G36*
X10445851Y12075160D02*
G01*
X10466425Y12075160D01*
X10472674Y12075871D01*
X10478109Y12077750D01*
X10482935Y12080798D01*
X10486999Y12084862D01*
X10490047Y12089688D01*
X10491927Y12095124D01*
X10492638Y12101372D01*
X10492638Y12119457D01*
X10445851Y12119457D01*
G37*
G36*
X10357561Y12075160D02*
G01*
X10378135Y12075160D01*
X10378135Y12119457D01*
X10331348Y12119457D01*
X10331348Y12101372D01*
X10332059Y12095124D01*
X10333939Y12089688D01*
X10336987Y12084862D01*
X10341051Y12080798D01*
X10345877Y12077750D01*
X10351312Y12075871D01*
G37*
G36*
X10331348Y12182144D02*
G01*
X10378135Y12182144D01*
X10378135Y12226442D01*
X10357561Y12226442D01*
X10351312Y12225731D01*
X10345877Y12223851D01*
X10341051Y12220803D01*
X10336987Y12216739D01*
X10333939Y12211913D01*
X10332059Y12206478D01*
X10331348Y12200229D01*
G37*
G36*
X10445851Y12182144D02*
G01*
X10492638Y12182144D01*
X10492638Y12200229D01*
X10491927Y12206478D01*
X10490047Y12211913D01*
X10486999Y12216739D01*
X10482935Y12220803D01*
X10478109Y12223851D01*
X10472674Y12225731D01*
X10466425Y12226442D01*
X10445851Y12226442D01*
G37*
G36*
X5615127Y12195759D02*
G01*
X5709462Y12195759D01*
X5709462Y12238837D01*
X5708751Y12245086D01*
X5706872Y12250521D01*
X5703824Y12255347D01*
X5699760Y12259411D01*
X5694883Y12262459D01*
X5689498Y12264339D01*
X5683250Y12265050D01*
X5615127Y12265050D01*
G37*
G36*
X5358130Y12195759D02*
G01*
X5452465Y12195759D01*
X5452465Y12265050D01*
X5384393Y12265050D01*
X5378094Y12264339D01*
X5372709Y12262459D01*
X5367832Y12259411D01*
X5363768Y12255347D01*
X5360720Y12250521D01*
X5358841Y12245086D01*
X5358130Y12238837D01*
G37*
G36*
X3447643Y12195759D02*
G01*
X3541979Y12195759D01*
X3541979Y12238837D01*
X3541268Y12245086D01*
X3539337Y12250521D01*
X3536289Y12255347D01*
X3532276Y12259411D01*
X3527399Y12262459D01*
X3522014Y12264339D01*
X3515715Y12265050D01*
X3447643Y12265050D01*
G37*
G36*
X3190646Y12195759D02*
G01*
X3284931Y12195759D01*
X3284931Y12265050D01*
X3216859Y12265050D01*
X3210610Y12264339D01*
X3205175Y12262459D01*
X3200349Y12259411D01*
X3196285Y12255347D01*
X3193237Y12250521D01*
X3191357Y12245086D01*
X3190646Y12238837D01*
G37*
G36*
X10018877Y12228118D02*
G01*
X10119512Y12228118D01*
X10127996Y12228931D01*
X10135616Y12231268D01*
X10142677Y12235027D01*
X10145318Y12237161D01*
X10148316Y12238888D01*
X10151770Y12239498D01*
X10155174Y12238888D01*
X10158171Y12237161D01*
X10160812Y12235027D01*
X10167874Y12231268D01*
X10175544Y12228931D01*
X10183977Y12228118D01*
X10271912Y12228118D01*
X10280345Y12228931D01*
X10288016Y12231268D01*
X10295077Y12235027D01*
X10301681Y12240412D01*
X10324338Y12263120D01*
X10327640Y12265304D01*
X10331551Y12266066D01*
X10335412Y12265304D01*
X10338714Y12263120D01*
X10341051Y12260783D01*
X10345877Y12257735D01*
X10351312Y12255855D01*
X10357561Y12255144D01*
X10466425Y12255144D01*
X10472674Y12255855D01*
X10478109Y12257735D01*
X10482935Y12260783D01*
X10486999Y12264847D01*
X10490047Y12269724D01*
X10491927Y12275108D01*
X10492638Y12281357D01*
X10492638Y12380214D01*
X10491927Y12386513D01*
X10490047Y12391898D01*
X10486999Y12396774D01*
X10482935Y12400788D01*
X10478109Y12403836D01*
X10472674Y12405766D01*
X10466425Y12406477D01*
X10357561Y12406477D01*
X10351312Y12405766D01*
X10345877Y12403836D01*
X10341051Y12400788D01*
X10336987Y12396774D01*
X10333939Y12391898D01*
X10332059Y12386564D01*
X10331297Y12378893D01*
X10330129Y12375083D01*
X10327640Y12372035D01*
X10324134Y12370155D01*
X10318292Y12368377D01*
X10314533Y12367971D01*
X10310876Y12368987D01*
X10307878Y12371222D01*
X10305846Y12374422D01*
X10305186Y12378131D01*
X10305186Y12430252D01*
X10304475Y12436500D01*
X10302544Y12441936D01*
X10299496Y12446762D01*
X10295940Y12450318D01*
X10293756Y12453620D01*
X10292994Y12457480D01*
X10292994Y12479324D01*
X10292130Y12487808D01*
X10289844Y12495479D01*
X10286034Y12502540D01*
X10280650Y12509093D01*
X10200944Y12588798D01*
X10198760Y12592100D01*
X10197998Y12595961D01*
X10197998Y12623749D01*
X10198760Y12627610D01*
X10200944Y12630912D01*
X10204246Y12633147D01*
X10208158Y12633909D01*
X10241432Y12633909D01*
X10247680Y12634620D01*
X10251135Y12635788D01*
X10254488Y12636398D01*
X10257840Y12635788D01*
X10261295Y12634620D01*
X10267594Y12633909D01*
X10270642Y12633909D01*
X10270642Y12696139D01*
X10268458Y12699441D01*
X10267645Y12703352D01*
X10267645Y12775742D01*
X10268458Y12779654D01*
X10270642Y12782956D01*
X10270642Y12845186D01*
X10267594Y12845186D01*
X10261295Y12844475D01*
X10257840Y12843306D01*
X10254488Y12842697D01*
X10251135Y12843306D01*
X10247680Y12844475D01*
X10241432Y12845186D01*
X10202570Y12845186D01*
X10196322Y12844475D01*
X10192867Y12843306D01*
X10189514Y12842697D01*
X10186162Y12843306D01*
X10182707Y12844475D01*
X10176408Y12845186D01*
X10137546Y12845186D01*
X10131298Y12844475D01*
X10127843Y12843306D01*
X10124490Y12842697D01*
X10121138Y12843306D01*
X10117683Y12844475D01*
X10111435Y12845186D01*
X10072573Y12845186D01*
X10066324Y12844475D01*
X10062870Y12843306D01*
X10059517Y12842697D01*
X10056164Y12843306D01*
X10052710Y12844475D01*
X10046411Y12845186D01*
X10007549Y12845186D01*
X10001300Y12844475D01*
X9995916Y12842595D01*
X9991039Y12839547D01*
X9986975Y12835483D01*
X9983927Y12830657D01*
X9982047Y12825222D01*
X9981336Y12818973D01*
X9981336Y12816128D01*
X9980625Y12812369D01*
X9978491Y12809118D01*
X9975342Y12806883D01*
X9971582Y12805968D01*
X9967772Y12806578D01*
X9964420Y12808559D01*
X9960356Y12812217D01*
X9950653Y12818465D01*
X9945827Y12820650D01*
X9945827Y12783413D01*
X9971176Y12783413D01*
X9975088Y12782651D01*
X9978390Y12780416D01*
X9980574Y12777114D01*
X9981336Y12773253D01*
X9981336Y12730886D01*
X9980574Y12726974D01*
X9978390Y12723672D01*
X9975088Y12721488D01*
X9971176Y12720726D01*
X9945827Y12720726D01*
X9945827Y12683490D01*
X9950653Y12685623D01*
X9960356Y12691922D01*
X9964420Y12695529D01*
X9967772Y12697510D01*
X9971582Y12698120D01*
X9975342Y12697206D01*
X9978491Y12695021D01*
X9980625Y12691770D01*
X9981336Y12687960D01*
X9981336Y12660122D01*
X9982047Y12653873D01*
X9983927Y12648438D01*
X9985705Y12644882D01*
X9986111Y12642037D01*
X9986111Y12605969D01*
X9985451Y12602362D01*
X9983520Y12599212D01*
X9962743Y12575895D01*
X9957866Y12569342D01*
X9954463Y12562078D01*
X9952532Y12554305D01*
X9952075Y12548057D01*
X9952075Y12294920D01*
X9952939Y12286437D01*
X9955276Y12278766D01*
X9959035Y12271705D01*
X9964420Y12265101D01*
X9989108Y12240412D01*
X9995712Y12235027D01*
X10002774Y12231268D01*
X10010444Y12228931D01*
G37*
G36*
X10812068Y12399213D02*
G01*
X10825835Y12400127D01*
X10839399Y12402820D01*
X10852505Y12407290D01*
X10864850Y12413386D01*
X10876381Y12421057D01*
X10886744Y12430201D01*
X10895838Y12440564D01*
X10903559Y12452045D01*
X10909655Y12464440D01*
X10914075Y12477546D01*
X10916767Y12491059D01*
X10917682Y12504877D01*
X10916767Y12518644D01*
X10914075Y12532207D01*
X10909655Y12545314D01*
X10903559Y12557709D01*
X10895838Y12569190D01*
X10886744Y12579553D01*
X10876381Y12588697D01*
X10864850Y12596368D01*
X10852505Y12602464D01*
X10839399Y12606883D01*
X10825835Y12609576D01*
X10812068Y12610490D01*
X10798251Y12609576D01*
X10784738Y12606883D01*
X10771632Y12602464D01*
X10759236Y12596368D01*
X10747756Y12588697D01*
X10737342Y12579553D01*
X10728248Y12569190D01*
X10720578Y12557709D01*
X10714482Y12545314D01*
X10710011Y12532207D01*
X10707319Y12518644D01*
X10706404Y12504877D01*
X10707319Y12491059D01*
X10710011Y12477546D01*
X10714482Y12464440D01*
X10720578Y12452045D01*
X10728248Y12440564D01*
X10737342Y12430201D01*
X10747756Y12421057D01*
X10759236Y12413386D01*
X10771632Y12407290D01*
X10784738Y12402820D01*
X10798251Y12400127D01*
G37*
G36*
X11066068Y12399213D02*
G01*
X11079835Y12400127D01*
X11093399Y12402820D01*
X11106505Y12407290D01*
X11118850Y12413386D01*
X11130381Y12421057D01*
X11140744Y12430201D01*
X11149838Y12440564D01*
X11157559Y12452045D01*
X11163655Y12464440D01*
X11168075Y12477546D01*
X11170767Y12491059D01*
X11171682Y12504877D01*
X11170767Y12518644D01*
X11168075Y12532207D01*
X11163655Y12545314D01*
X11157559Y12557709D01*
X11149838Y12569190D01*
X11140744Y12579553D01*
X11130381Y12588697D01*
X11118850Y12596368D01*
X11106505Y12602464D01*
X11093399Y12606883D01*
X11079835Y12609576D01*
X11066068Y12610490D01*
X11052251Y12609576D01*
X11038738Y12606883D01*
X11025632Y12602464D01*
X11013236Y12596368D01*
X11001756Y12588697D01*
X10991342Y12579553D01*
X10982248Y12569190D01*
X10974578Y12557709D01*
X10968482Y12545314D01*
X10964011Y12532207D01*
X10961319Y12518644D01*
X10960404Y12504877D01*
X10961319Y12491059D01*
X10964011Y12477546D01*
X10968482Y12464440D01*
X10974578Y12452045D01*
X10982248Y12440564D01*
X10991342Y12430201D01*
X11001756Y12421057D01*
X11013236Y12413386D01*
X11025632Y12407290D01*
X11038738Y12402820D01*
X11052251Y12400127D01*
G37*
G36*
X11930278Y12410186D02*
G01*
X11936730Y12413386D01*
X11948261Y12421057D01*
X11958624Y12430201D01*
X11967718Y12440564D01*
X11975439Y12452045D01*
X11978589Y12458496D01*
X11930278Y12458496D01*
G37*
G36*
X11837568Y12410186D02*
G01*
X11837568Y12458496D01*
X11789257Y12458496D01*
X11792458Y12452045D01*
X11800128Y12440564D01*
X11809222Y12430201D01*
X11819636Y12421057D01*
X11831116Y12413386D01*
G37*
G36*
X2039416Y12450064D02*
G01*
X2114550Y12459919D01*
X2159508Y12474803D01*
X2219655Y12509804D01*
X2249627Y12534646D01*
X2289759Y12584684D01*
X2314752Y12629540D01*
X2334818Y12694513D01*
X2339949Y12749530D01*
X2335022Y12804444D01*
X2314702Y12870484D01*
X2279700Y12930378D01*
X2249627Y12965328D01*
X2204669Y13000177D01*
X2159558Y13025170D01*
X2114550Y13040055D01*
X2040686Y13049859D01*
X2039315Y13049859D01*
X1964537Y13039852D01*
X1919579Y13024764D01*
X1874672Y12999770D01*
X1829612Y12964566D01*
X1789785Y12914630D01*
X1764842Y12869468D01*
X1744980Y12804444D01*
X1740052Y12749530D01*
X1745183Y12694513D01*
X1765249Y12629540D01*
X1789734Y12585496D01*
X1829765Y12540183D01*
X1875485Y12499695D01*
X1920493Y12474854D01*
X1985518Y12454940D01*
G37*
G36*
X12750241Y12450876D02*
G01*
X12751358Y12450876D01*
X12826238Y12460935D01*
X12871246Y12476073D01*
X12931140Y12511074D01*
X12961112Y12536170D01*
X13001040Y12586157D01*
X13025983Y12631318D01*
X13045846Y12696342D01*
X13050723Y12751257D01*
X13045643Y12806273D01*
X13025526Y12871297D01*
X12990525Y12931140D01*
X12960400Y12966141D01*
X12915442Y13000990D01*
X12870332Y13025932D01*
X12825323Y13040868D01*
X12751460Y13050672D01*
X12750139Y13050672D01*
X12675362Y13040664D01*
X12630404Y13025577D01*
X12585496Y13000532D01*
X12541250Y12966192D01*
X12501067Y12916154D01*
X12475616Y12870281D01*
X12455753Y12805257D01*
X12450876Y12750342D01*
X12455956Y12695326D01*
X12475616Y12631318D01*
X12501168Y12585395D01*
X12540996Y12540538D01*
X12586309Y12500508D01*
X12631318Y12475616D01*
X12696342Y12455753D01*
G37*
G36*
X9181541Y12450876D02*
G01*
X9182658Y12450876D01*
X9257538Y12460935D01*
X9302546Y12476073D01*
X9362440Y12511074D01*
X9392412Y12536170D01*
X9432340Y12586157D01*
X9457283Y12631318D01*
X9477146Y12696342D01*
X9482023Y12751257D01*
X9476943Y12806273D01*
X9456826Y12871297D01*
X9421825Y12931140D01*
X9391700Y12966141D01*
X9346742Y13000990D01*
X9301632Y13025932D01*
X9256623Y13040868D01*
X9182760Y13050672D01*
X9181439Y13050672D01*
X9106662Y13040664D01*
X9061704Y13025577D01*
X9016796Y13000532D01*
X8972550Y12966192D01*
X8932367Y12916154D01*
X8906916Y12870281D01*
X8887053Y12805257D01*
X8882176Y12750342D01*
X8887256Y12695326D01*
X8906916Y12631318D01*
X8932468Y12585395D01*
X8972296Y12540538D01*
X9017609Y12500508D01*
X9062618Y12475616D01*
X9127642Y12455753D01*
G37*
G36*
X11789257Y12551206D02*
G01*
X11837568Y12551206D01*
X11837568Y12599517D01*
X11831116Y12596368D01*
X11819636Y12588697D01*
X11809222Y12579553D01*
X11800128Y12569190D01*
X11792458Y12557709D01*
G37*
G36*
X11930278Y12551206D02*
G01*
X11978589Y12551206D01*
X11975439Y12557709D01*
X11967718Y12569190D01*
X11958624Y12579553D01*
X11948261Y12588697D01*
X11936730Y12596368D01*
X11930278Y12599517D01*
G37*
G36*
X10303357Y12633909D02*
G01*
X10306405Y12633909D01*
X10312704Y12634620D01*
X10318089Y12636500D01*
X10322966Y12639548D01*
X10327030Y12643612D01*
X10330078Y12648438D01*
X10331958Y12653873D01*
X10332669Y12660122D01*
X10332669Y12687655D01*
X10333634Y12692024D01*
X10334548Y12693192D01*
X10303357Y12693192D01*
G37*
G36*
X10368127Y12683286D02*
G01*
X10368127Y12720726D01*
X10352989Y12720726D01*
X10352989Y12703352D01*
X10352176Y12699492D01*
X10349992Y12696190D01*
X10349179Y12695631D01*
X10358374Y12688570D01*
G37*
G36*
X9883140Y12683286D02*
G01*
X9883140Y12720726D01*
X9845903Y12720726D01*
X9849510Y12713411D01*
X9856165Y12703911D01*
X9864191Y12695580D01*
X9873386Y12688570D01*
G37*
G36*
X10430865Y12683490D02*
G01*
X10435640Y12685623D01*
X10445343Y12691922D01*
X10453979Y12699593D01*
X10461345Y12708534D01*
X10467289Y12718491D01*
X10468152Y12720726D01*
X10430865Y12720726D01*
G37*
G36*
X10430865Y12783413D02*
G01*
X10468152Y12783413D01*
X10467289Y12785598D01*
X10461345Y12795554D01*
X10453979Y12804495D01*
X10445343Y12812217D01*
X10435640Y12818465D01*
X10430865Y12820650D01*
G37*
G36*
X9845903Y12783413D02*
G01*
X9883140Y12783413D01*
X9883140Y12820853D01*
X9873386Y12815519D01*
X9864191Y12808508D01*
X9856165Y12800177D01*
X9849510Y12790678D01*
G37*
G36*
X10349484Y12783413D02*
G01*
X10368127Y12783413D01*
X10368127Y12820853D01*
X10358374Y12815519D01*
X10348976Y12808356D01*
X10344912Y12806476D01*
X10340441Y12806578D01*
X10336428Y12808559D01*
X10333634Y12812064D01*
X10332669Y12816433D01*
X10332669Y12818973D01*
X10331958Y12825222D01*
X10330078Y12830657D01*
X10327030Y12835483D01*
X10322966Y12839547D01*
X10318089Y12842595D01*
X10312704Y12844475D01*
X10306405Y12845186D01*
X10303357Y12845186D01*
X10303357Y12785902D01*
X10342829Y12785902D01*
X10346385Y12785242D01*
G37*
G36*
X10488168Y12918440D02*
G01*
X10488168Y12970713D01*
X10445902Y12970713D01*
X10447223Y12964769D01*
X10451388Y12954254D01*
X10457027Y12944449D01*
X10464088Y12935610D01*
X10472369Y12927939D01*
X10481665Y12921538D01*
G37*
G36*
X9763150Y12918440D02*
G01*
X9763150Y12970713D01*
X9720884Y12970713D01*
X9722256Y12964769D01*
X9726371Y12954254D01*
X9732010Y12944449D01*
X9739071Y12935610D01*
X9747351Y12927939D01*
X9756698Y12921538D01*
G37*
G36*
X9825837Y12918440D02*
G01*
X9832289Y12921538D01*
X9841636Y12927939D01*
X9849916Y12935610D01*
X9856978Y12944449D01*
X9862616Y12954254D01*
X9866782Y12964769D01*
X9868103Y12970713D01*
X9825837Y12970713D01*
G37*
G36*
X10550855Y12918440D02*
G01*
X10557306Y12921538D01*
X10566654Y12927939D01*
X10574934Y12935610D01*
X10581995Y12944449D01*
X10587634Y12954254D01*
X10591749Y12964769D01*
X10593120Y12970713D01*
X10550855Y12970713D01*
G37*
G36*
X9825837Y13063423D02*
G01*
X9868103Y13063423D01*
X9866782Y13069366D01*
X9862616Y13079882D01*
X9856978Y13089636D01*
X9849916Y13098475D01*
X9841636Y13106196D01*
X9832289Y13112546D01*
X9825837Y13115645D01*
G37*
G36*
X10445902Y13063423D02*
G01*
X10488168Y13063423D01*
X10488168Y13115645D01*
X10481665Y13112546D01*
X10472369Y13106196D01*
X10464088Y13098475D01*
X10457027Y13089636D01*
X10451388Y13079882D01*
X10447223Y13069366D01*
G37*
G36*
X9720884Y13063423D02*
G01*
X9763150Y13063423D01*
X9763150Y13115645D01*
X9756698Y13112546D01*
X9747351Y13106196D01*
X9739071Y13098475D01*
X9732010Y13089636D01*
X9726371Y13079882D01*
X9722256Y13069366D01*
G37*
G36*
X10550855Y13063423D02*
G01*
X10593120Y13063423D01*
X10591749Y13069366D01*
X10587634Y13079882D01*
X10581995Y13089636D01*
X10574934Y13098475D01*
X10566654Y13106196D01*
X10557306Y13112546D01*
X10550855Y13115645D01*
G37*

%LPD*%
D10*
X6553200Y9817100D02*
G01*
X6553200Y9753600D01*
X6477000Y9677400D01*
X6223000Y9677400D01*
X6172200Y9728200D01*
X6172200Y10007600D01*
X6007100Y10172700D01*
X4800600Y10172700D01*
X4517390Y10455910D01*
X4517390Y10629900D01*
X6299200Y9817100D02*
G01*
X6299200Y9956800D01*
X6032500Y10223500D01*
X5283200Y10223500D01*
X5219700Y10287000D01*
X5219700Y10591800D01*
X4940300Y10591800D01*
X4900675Y10552429D01*
X4900675Y10400029D01*
X7264400Y10325100D02*
G01*
X7264400Y10299700D01*
X7150100Y10185400D01*
X6311900Y10185400D01*
X6121400Y10375900D01*
X6121400Y10807700D01*
X5909056Y11020044D01*
X5535675Y11020044D01*
X7959852Y10789920D02*
G01*
X7968741Y10798810D01*
X8030209Y10798810D01*
X7696200Y10464800D01*
X7404100Y10464800D01*
X7264400Y10325100D01*
X7251700Y10337800D01*
X7213600Y10337800D01*
X7518400Y10325100D02*
G01*
X7670800Y10172700D01*
X7823200Y10172700D01*
X7975600Y10325100D01*
X8343900Y10325100D01*
X8547100Y10528300D01*
X8547100Y10638792D01*
X8572500Y10638792D01*
X8077200Y9817100D02*
G01*
X8077200Y9791700D01*
X7912100Y9626600D01*
X6604000Y9626600D01*
X6553200Y9575800D01*
X4267200Y9575800D01*
X4140200Y9702800D01*
X4140200Y9906000D01*
X4064000Y9982200D01*
X3352800Y9982200D01*
X3238500Y10096500D01*
X3238500Y10509758D01*
X3311397Y10582402D01*
X3491738Y10582402D01*
X8331200Y9817100D02*
G01*
X8178800Y9969500D01*
X8026400Y9969500D01*
X7962900Y9906000D01*
X7962900Y9753600D01*
X7899400Y9690100D01*
X6591300Y9690100D01*
X6527800Y9626600D01*
X4495800Y9626600D01*
X4394200Y9728200D01*
X4394200Y9880600D01*
X4127500Y10147300D01*
X4127500Y10199878D01*
X10284084Y11603266D02*
G01*
X10196200Y11515384D01*
X10196200Y10313200D01*
X10043800Y10160800D01*
X9093200Y10160800D01*
X8928100Y9994900D01*
X8928100Y9398000D01*
X8839200Y9309100D01*
X8686800Y9309100D01*
X8674100Y9296400D01*
X8674100Y9258300D01*
X8686800Y9245600D01*
X8877300Y9245600D01*
X8890000Y9232900D01*
X8890000Y9194800D01*
X8877300Y9182100D01*
X8524242Y9182100D01*
X10030084Y11603266D02*
G01*
X10030084Y11571516D01*
X10145400Y11456200D01*
X10145400Y10338600D01*
X10018400Y10211600D01*
X9067800Y10211600D01*
X8877300Y10020300D01*
X8877300Y9423400D01*
X8826500Y9372600D01*
X8483600Y9372600D01*
X8356600Y9245600D01*
X8356600Y9080500D01*
X8509000Y8928100D01*
X8524242Y8928100D01*
D11*
X10157084Y12739662D02*
G01*
X10157084Y12574816D01*
X10252085Y12479820D01*
X10252085Y12380757D01*
X10092057Y12739662D02*
G01*
X10092057Y12560084D01*
X10062093Y12530112D01*
X10062093Y12380757D01*
X10027031Y12739662D02*
G01*
X10027031Y12586500D01*
X9993000Y12548400D01*
X9993000Y12294400D01*
X10018400Y12269000D01*
X10120000Y12269000D01*
X10157084Y12306084D01*
X10157084Y12380757D01*
X10157084Y12318784D02*
G01*
X10157084Y12295416D01*
X10183500Y12269000D01*
X10272400Y12269000D01*
X10334127Y12330719D01*
X10412100Y12330719D01*
D10*
X10249194Y12071896D02*
G01*
X10243093Y12065795D01*
X10243093Y11589600D01*
X10059202Y12136394D02*
G01*
X10052593Y12129782D01*
X10052593Y11895399D01*
X9989093Y11831899D01*
X9989093Y11654099D01*
X11665458Y11463781D02*
G01*
X11603481Y11463781D01*
X11468100Y11328400D01*
X11402568Y11328400D01*
X11284204Y11210036D01*
X11284242Y11210129D02*
G01*
X11314595Y11179776D01*
X11314595Y10883900D01*
X7264400Y11087100D02*
G01*
X7607300Y11430000D01*
X8115300Y11430000D01*
X8256015Y11570715D01*
X8256015Y11889488D01*
X6684777Y10880092D02*
G01*
X6688584Y10883900D01*
X7061200Y10883900D01*
X7264400Y11087100D01*
X6684802Y10539994D02*
G01*
X6711205Y10566400D01*
X7112000Y10566400D01*
X7518400Y10972800D01*
X7518400Y11087100D01*
D11*
X7959849Y10629900D02*
G01*
X7959849Y10512549D01*
X7772400Y10325100D01*
D10*
X2852501Y11220000D02*
G01*
X2866301Y11233800D01*
X2866301Y11889386D01*
X3866299Y11889386D02*
G01*
X3872499Y11883186D01*
X3872499Y11220000D01*
X5027797Y10399991D02*
G01*
X5027797Y10310997D01*
X4991100Y10274300D01*
X4871031Y10274300D01*
X4838700Y10306631D01*
X4838700Y10629900D01*
X4758606Y10710001D01*
X4144101Y10710001D01*
X4140200Y10706100D01*
X4032493Y10813806D01*
X4032493Y11220000D01*
X3898900Y10274300D02*
G01*
X3820157Y10195557D01*
D11*
X2972394Y11220002D02*
G01*
X2979191Y11226800D01*
X3060700Y11226800D01*
X3149600Y11137900D01*
X3149600Y11125200D01*
D10*
X4262300Y10789996D02*
G01*
X4262300Y11666400D01*
X4474387Y11878487D01*
X5024500Y11878487D01*
D11*
X6429796Y10630006D02*
G01*
X6519801Y10539994D01*
X6684802Y10539994D01*
X4114800Y10629900D02*
G01*
X4262300Y10630006D01*
X5792304Y10619996D02*
G01*
X5727700Y10555394D01*
X5727700Y10426700D01*
X5535797Y10399991D02*
G01*
X5562513Y10426700D01*
X5727700Y10426700D01*
X8293125Y10628782D02*
G01*
X8291901Y10630006D01*
X7959798Y10630006D01*
D10*
X7256101Y11889389D02*
G01*
X7200900Y11834185D01*
X7200900Y11480800D01*
X7035800Y11315700D01*
X6654800Y11315700D01*
X6429796Y11090696D01*
X6429796Y10789996D01*
X4773797Y10399991D02*
G01*
X4773797Y10301102D01*
X4851400Y10223500D01*
X5067300Y10223500D01*
X5154797Y10310997D01*
X5154797Y10399991D01*
X5127005Y11277600D02*
G01*
X5127005Y11569700D01*
X5435793Y11878487D01*
X6024499Y11878487D01*
X4900797Y11020003D02*
G01*
X4900797Y10844397D01*
X4846401Y10789996D01*
X4517306Y10789996D01*
X5154797Y11020003D02*
G01*
X5154797Y11072997D01*
X5286994Y11205194D01*
X5286994Y11277600D01*
X5408797Y11020003D02*
G01*
X5281797Y11020003D01*
X5027797Y11020003D02*
G01*
X5027797Y10910702D01*
X5067300Y10871200D01*
X5245100Y10871200D01*
X5281797Y10910702D01*
X5281797Y11020003D01*
X3903240Y10582498D02*
G01*
X3903240Y10278739D01*
D11*
X2754899Y10371996D02*
G01*
X2759900Y10366994D01*
X3009900Y10366994D01*
X2746987Y9816015D02*
G01*
X2754899Y9823927D01*
X2754899Y10201993D01*
X4287494Y10199999D02*
G01*
X4394200Y10093294D01*
X4394200Y10045700D01*
D10*
X4127500Y10199999D02*
G01*
X3824500Y10199999D01*
X11798300Y11216131D02*
G01*
X11792204Y11210036D01*
X7086600Y8915400D02*
G01*
X7086600Y8928100D01*
X7200900Y9042400D01*
X7327900Y9042400D01*
X7478775Y8891524D01*
X7478775Y8713724D01*
X7531100Y8661400D01*
X8115300Y8661400D01*
X8229600Y8775700D01*
X8458200Y8775700D01*
X8585200Y8648700D01*
X9461500Y8648700D01*
X10782300Y9969500D01*
X10782300Y11455400D01*
X11074400Y11747500D01*
X11671300Y11747500D01*
X11923775Y11495024D01*
X11923775Y11451844D01*
X11917934Y11446002D01*
X7288275Y8933179D02*
G01*
X7360920Y8933179D01*
X7404100Y8890000D01*
X7404100Y8648700D01*
X7442200Y8610600D01*
X8128000Y8610600D01*
X8242300Y8724900D01*
X8445500Y8724900D01*
X8572500Y8597900D01*
X9474200Y8597900D01*
X10833100Y9956800D01*
X10833100Y11430000D01*
X11020806Y11617705D01*
X11099800Y11696700D01*
X11150600Y11696700D01*
X11176000Y11671300D01*
X11176000Y11633200D01*
X11201400Y11607800D01*
X11264900Y11607800D01*
X11290300Y11633200D01*
X11290300Y11671300D01*
X11315700Y11696700D01*
X11379200Y11696700D01*
X11404600Y11671300D01*
X11404600Y11620500D01*
X11417300Y11607800D01*
X11722100Y11607800D01*
X11785600Y11544300D01*
X11785600Y11216894D01*
X11792204Y11210036D01*
X7288275Y8533129D02*
G01*
X8152129Y8533129D01*
X8280400Y8661400D01*
X8394700Y8661400D01*
X8521700Y8534400D01*
X9512300Y8534400D01*
X10922000Y9944100D01*
X10922000Y10147300D01*
X10947400Y10172700D01*
X11125200Y10172700D01*
X11137900Y10185400D01*
X11137900Y10210800D01*
X11125200Y10223500D01*
X10934700Y10223500D01*
X10922000Y10236200D01*
X10922000Y10261600D01*
X10934700Y10274300D01*
X11125200Y10274300D01*
X11137900Y10287000D01*
X11137900Y10312400D01*
X11125200Y10325100D01*
X10934700Y10325100D01*
X10922000Y10337800D01*
X10922000Y10363200D01*
X10934700Y10375900D01*
X11125200Y10375900D01*
X11137900Y10388600D01*
X11137900Y10414000D01*
X11125200Y10426700D01*
X10934700Y10426700D01*
X10922000Y10439400D01*
X10922000Y10464800D01*
X10934700Y10477500D01*
X11125200Y10477500D01*
X11137900Y10490200D01*
X11137900Y10515600D01*
X11125200Y10528300D01*
X10934700Y10528300D01*
X10922000Y10541000D01*
X10922000Y11264900D01*
X11112500Y11455400D01*
X11149075Y11455400D01*
X11157458Y11463781D01*
X11030204Y11210036D02*
G01*
X11030204Y10699495D01*
X11188700Y10541000D01*
X11188700Y10452100D01*
X11201400Y10439400D01*
X11569700Y10439400D01*
X11582400Y10426700D01*
X11582400Y10401300D01*
X11569700Y10388600D01*
X11201400Y10388600D01*
X11188700Y10375900D01*
X11188700Y10350500D01*
X11201400Y10337800D01*
X11569700Y10337800D01*
X11582400Y10325100D01*
X11582400Y10299700D01*
X11569700Y10287000D01*
X11201400Y10287000D01*
X11188700Y10274300D01*
X11188700Y10144760D01*
X9527540Y8483600D01*
X8445500Y8483600D01*
X8382000Y8420100D01*
X8280400Y8420100D01*
X8216900Y8483600D01*
X7391400Y8483600D01*
X7327900Y8420100D01*
X7239000Y8420100D01*
X7125970Y8533129D01*
X7088124Y8533129D01*
X8686800Y8801100D02*
G01*
X9385300Y8801100D01*
X10579100Y9994900D01*
X10579100Y11391900D01*
X11049000Y11861800D01*
X11645900Y11861800D01*
X11722100Y11938000D01*
X11722100Y12230100D01*
X11836400Y12344400D01*
X11977370Y12344400D01*
X12137897Y12504928D01*
D12*
X4773802Y10459979D02*
G01*
X4773802Y10339979D01*
X4900802Y10459979D02*
G01*
X4900802Y10339979D01*
X5027802Y10459979D02*
G01*
X5027802Y10339979D01*
X5154802Y10459979D02*
G01*
X5154802Y10339979D01*
X5281802Y10459979D02*
G01*
X5281802Y10339979D01*
X5408802Y10459979D02*
G01*
X5408802Y10339979D01*
X5535802Y10459979D02*
G01*
X5535802Y10339979D01*
X4773802Y11079993D02*
G01*
X4773802Y10959993D01*
X4900802Y11079993D02*
G01*
X4900802Y10959993D01*
X5027802Y11079993D02*
G01*
X5027802Y10959993D01*
X5154802Y11079993D02*
G01*
X5154802Y10959993D01*
X5281802Y11079993D02*
G01*
X5281802Y10959993D01*
X5408802Y11079993D02*
G01*
X5408802Y10959993D01*
X5535802Y11079993D02*
G01*
X5535802Y10959993D01*
G36*
X11264602Y10938901D02*
G01*
X11364602Y10938901D01*
X11364602Y10828898D01*
X11264602Y10828898D01*
G37*
G36*
X11444612Y10938901D02*
G01*
X11544612Y10938901D01*
X11544612Y10828898D01*
X11444612Y10828898D01*
G37*
G36*
X10007000Y12819552D02*
G01*
X10047000Y12819552D01*
X10047000Y12659553D01*
X10007000Y12659553D01*
G37*
G36*
X10072001Y12819552D02*
G01*
X10112001Y12819552D01*
X10112001Y12659553D01*
X10072001Y12659553D01*
G37*
G36*
X10137000Y12819552D02*
G01*
X10177000Y12819552D01*
X10177000Y12659553D01*
X10137000Y12659553D01*
G37*
G36*
X10202001Y12819552D02*
G01*
X10242001Y12819552D01*
X10242001Y12659553D01*
X10202001Y12659553D01*
G37*
G36*
X10267000Y12819552D02*
G01*
X10306999Y12819552D01*
X10306999Y12659553D01*
X10267000Y12659553D01*
G37*
D17*
G01*
X6429806Y10630001D03*
G01*
X6429806Y10789996D03*
G36*
X5237007Y11332601D02*
G01*
X5337007Y11332601D01*
X5337007Y11222598D01*
X5237007Y11222598D01*
G37*
G36*
X5077007Y11332601D02*
G01*
X5177007Y11332601D01*
X5177007Y11222598D01*
X5077007Y11222598D01*
G37*
G01*
X4262297Y10630001D03*
G01*
X4262297Y10789996D03*
G01*
X4517313Y10630001D03*
G01*
X4517313Y10789996D03*
G01*
X8032501Y10630001D03*
G01*
X8032501Y10789996D03*
G01*
X8542507Y10630001D03*
G01*
X8542507Y10789996D03*
G36*
X2962508Y11275001D02*
G01*
X3062508Y11275001D01*
X3062508Y11164999D01*
X2962508Y11164999D01*
G37*
G36*
X2802509Y11275001D02*
G01*
X2902508Y11275001D01*
X2902508Y11164999D01*
X2802509Y11164999D01*
G37*
G36*
X3982506Y11275001D02*
G01*
X4082506Y11275001D01*
X4082506Y11164999D01*
X3982506Y11164999D01*
G37*
G36*
X3822506Y11275001D02*
G01*
X3922506Y11275001D01*
X3922506Y11164999D01*
X3822506Y11164999D01*
G37*
G36*
X4237507Y10255001D02*
G01*
X4337507Y10255001D01*
X4337507Y10144998D01*
X4237507Y10144998D01*
G37*
G36*
X4077507Y10255001D02*
G01*
X4177507Y10255001D01*
X4177507Y10144998D01*
X4077507Y10144998D01*
G37*
D18*
G01*
X6684797Y10540009D03*
G01*
X6684797Y10879988D03*
D19*
G01*
X3903243Y10582503D03*
G01*
X3491763Y10582503D03*
G36*
X2704899Y10416987D02*
G01*
X2804899Y10416987D01*
X2804899Y10326994D01*
X2704899Y10326994D01*
G37*
G36*
X2704899Y10246987D02*
G01*
X2804899Y10246987D01*
X2804899Y10156995D01*
X2704899Y10156995D01*
G37*
D17*
G01*
X3009900Y10367010D03*
G01*
X3009900Y10207015D03*
G01*
X5792317Y10799902D03*
G01*
X5792317Y10619892D03*
G01*
X8287511Y10799991D03*
G01*
X8287511Y10619981D03*
G01*
X10411998Y12150813D03*
G01*
X10411998Y12330823D03*
D21*
G01*
X10252003Y12100801D03*
G01*
X10157007Y12100801D03*
G01*
X10062011Y12100801D03*
G01*
X10062011Y12380810D03*
G01*
X10157007Y12380810D03*
G01*
X10252003Y12380810D03*
D22*
G01*
X11919508Y11463883D03*
G01*
X11792254Y11210137D03*
G01*
X11665508Y11463883D03*
G01*
X11538254Y11210137D03*
G01*
X11411508Y11463883D03*
G01*
X11284254Y11210137D03*
G01*
X11157508Y11463883D03*
G01*
X11030254Y11210137D03*
G01*
X12137948Y12504877D03*
G01*
X11883948Y12504877D03*
G01*
X11066068Y12504877D03*
G01*
X10812068Y12504877D03*
D23*
G01*
X12249962Y11793829D03*
G01*
X10700054Y11793829D03*
D24*
G01*
X2743200Y9817100D03*
G01*
X3251200Y9817100D03*
G01*
X3505200Y9817100D03*
G01*
X2997200Y9817100D03*
G01*
X3759200Y9817100D03*
G01*
X2997200Y8293100D03*
G01*
X2743200Y8293100D03*
G01*
X4013200Y9817100D03*
G01*
X4013200Y9563100D03*
G01*
X4013200Y9309100D03*
G01*
X4013200Y9055100D03*
G01*
X4013200Y8801100D03*
G01*
X4013200Y8547100D03*
G01*
X4013200Y8293100D03*
G01*
X3759200Y8293100D03*
G01*
X3505200Y8293100D03*
G01*
X3251200Y8293100D03*
G01*
X4267200Y9817100D03*
G01*
X4775200Y9817100D03*
G01*
X5029200Y9817100D03*
G01*
X5283200Y9817100D03*
G01*
X5537200Y9817100D03*
G01*
X5791200Y9817100D03*
G01*
X6045200Y9817100D03*
G01*
X6299200Y9817100D03*
G01*
X6553200Y9817100D03*
G01*
X6807200Y9817100D03*
G01*
X7061200Y9817100D03*
G01*
X7315200Y9817100D03*
G01*
X7569200Y9817100D03*
G01*
X7823200Y9817100D03*
G01*
X8077200Y9817100D03*
G01*
X8331200Y9817100D03*
G01*
X8585200Y9817100D03*
G01*
X8585200Y8293100D03*
G01*
X8331200Y8293100D03*
G01*
X8077200Y8293100D03*
G01*
X7823200Y8293100D03*
G01*
X7569200Y8293100D03*
G01*
X7315200Y8293100D03*
G01*
X7061200Y8293100D03*
G01*
X6807200Y8293100D03*
G01*
X6553200Y8293100D03*
G01*
X6299200Y8293100D03*
G01*
X6045200Y8293100D03*
G01*
X5791200Y8293100D03*
G01*
X5537200Y8293100D03*
G01*
X5283200Y8293100D03*
G01*
X5029200Y8293100D03*
G01*
X4775200Y8293100D03*
G01*
X4267200Y8293100D03*
G01*
X8331200Y8547100D03*
D25*
G01*
X7288199Y8733104D03*
G01*
X7088200Y8533104D03*
G01*
X7288199Y8533104D03*
D24*
G01*
X4521200Y8293100D03*
G01*
X4521200Y9817100D03*
G01*
X8524189Y9182100D03*
G01*
X8524189Y8928100D03*
G01*
X7950200Y9517100D03*
G01*
X7696200Y9517100D03*
G01*
X7442200Y9517100D03*
G01*
X7188200Y9517100D03*
G01*
X6934200Y9517100D03*
D25*
G01*
X7288199Y8933103D03*
G01*
X7088200Y8733104D03*
G01*
X7088200Y8933103D03*
D26*
G01*
X10399501Y12752057D03*
G01*
X9914514Y12752057D03*
D27*
G01*
X7701305Y12139396D03*
G01*
X6971309Y12139396D03*
G01*
X8431301Y12139396D03*
G01*
X8201304Y11889384D03*
G01*
X7201306Y11889384D03*
G01*
X8201304Y13109397D03*
G01*
X7201306Y13109397D03*
G01*
X5533796Y12139396D03*
G01*
X4803800Y12139396D03*
G01*
X6263792Y12139396D03*
G01*
X6033795Y11889384D03*
G01*
X5033797Y11889384D03*
G01*
X6033795Y13109397D03*
G01*
X5033797Y13109397D03*
G01*
X3366312Y12139396D03*
G01*
X2636316Y12139396D03*
G01*
X4096308Y12139396D03*
G01*
X3866311Y11889384D03*
G01*
X2866288Y11889384D03*
G01*
X3866311Y13109397D03*
G01*
X2866288Y13109397D03*
D28*
G01*
X7772400Y11087100D03*
D29*
G01*
X7518400Y11087100D03*
G01*
X7264400Y11087100D03*
G01*
X7010400Y11087100D03*
G01*
X7010400Y10325100D03*
G01*
X7264400Y10325100D03*
G01*
X7518400Y10325100D03*
G01*
X7772400Y10325100D03*
G01*
X3824503Y10200004D03*
G36*
X3480501Y10289999D02*
G01*
X3660500Y10289999D01*
X3660500Y10110000D01*
X3480501Y10110000D01*
G37*
G01*
X9179991Y9816998D03*
D28*
G01*
X9179991Y9562998D03*
D30*
G01*
X10030007Y11603291D03*
D31*
G01*
X10284007Y11603291D03*
D13*
G01*
X4114800Y10629900D03*
G01*
X3149600Y11125200D03*
G01*
X5727700Y10426700D03*
G01*
X4394200Y10045700D03*
D14*
G01*
X8686800Y8801100D03*
D26*
X9794499Y13047055D02*
G01*
X9794499Y12987055D01*
X10519516Y13047055D02*
G01*
X10519516Y12987055D01*
M02*
