M48
METRIC,LZ,000.000
;FILE_FORMAT=3:3
;TYPE=PLATED
;Layer: Drill PTH
;EasyEDA v6.4.19.5, 2021-06-03T13:00:10+02:00
;3a470d2b41ee429cb137c5c572919131,563db0ff5b334ec4995e7372edb549dc,10
;Gerber Generator version 0.2
;Holesize 1 = 0.305 mm
T01C0.305
;Holesize 2 = 0.400 mm
T02C0.400
;Holesize 3 = 0.701 mm
T03C0.701
;Holesize 4 = 0.850 mm
T04C0.850
;Holesize 5 = 0.889 mm
T05C0.889
;Holesize 6 = 0.951 mm
T06C0.951
;Holesize 7 = 1.000 mm
T07C1.000
;Holesize 8 = 1.200 mm
T08C1.200
;Holesize 9 = 1.401 mm
T09C1.401
;Holesize 10 = 1.701 mm
T10C1.701
%
G05
G90
T01
X086868Y088011
T02
X041148Y106299
X031496Y111252
X057277Y104267
X043942Y100457
T03
X103995Y127521
X099145Y127521
X097945Y129971G85X097945Y130371
X105195Y129971G85X105195Y130371
T04
X072882Y087331
X070882Y085331
X072882Y085331
X072882Y089331
X070882Y087331
X070882Y089331
T05
X100300Y116033
X102840Y116033
T06
X027432Y098171
X032512Y098171
X035052Y098171
X029972Y098171
X037592Y098171
X029972Y082931
X027432Y082931
X040132Y098171
X040132Y095631
X040132Y093091
X040132Y090551
X040132Y088011
X040132Y085471
X040132Y082931
X037592Y082931
X035052Y082931
X032512Y082931
X042672Y098171
X047752Y098171
X050292Y098171
X052832Y098171
X055372Y098171
X057912Y098171
X060452Y098171
X062992Y098171
X065532Y098171
X068072Y098171
X070612Y098171
X073152Y098171
X075692Y098171
X078232Y098171
X080772Y098171
X083312Y098171
X085852Y098171
X085852Y082931
X083312Y082931
X080772Y082931
X078232Y082931
X075692Y082931
X073152Y082931
X070612Y082931
X068072Y082931
X065532Y082931
X062992Y082931
X060452Y082931
X057912Y082931
X055372Y082931
X052832Y082931
X050292Y082931
X047752Y082931
X042672Y082931
X083312Y085471
X045212Y082931
X045212Y098171
X085242Y091821
X085242Y089281
X079502Y095171
X076962Y095171
X074422Y095171
X071882Y095171
X069342Y095171
T07
X119195Y114639
X117922Y112101
X116655Y114639
X115382Y112101
X114115Y114639
X112842Y112101
X111575Y114639
X110302Y112101
X121379Y125049
X118839Y125049
X110661Y125049
X108121Y125049
X077724Y110871
X075184Y110871
X072644Y110871
X070104Y110871
X070104Y103251
X072644Y103251
X075184Y103251
X077724Y103251
T08
X038245Y102000
X035705Y102000
X091800Y098170
X091800Y095630
T09
X077016Y121394G85X077010Y121394
X069716Y121394G85X069711Y121394
X084316Y121394G85X084310Y121394
X082016Y118894G85X082010Y118894
X072016Y118894G85X072010Y118894
X082016Y131094G85X082010Y131094
X072016Y131094G85X072010Y131094
X055341Y121394G85X055335Y121394
X048041Y121394G85X048035Y121394
X062640Y121394G85X062635Y121394
X060341Y118894G85X060335Y118894
X050341Y118894G85X050335Y118894
X060341Y131094G85X060335Y131094
X050341Y131094G85X050335Y131094
X033666Y121394G85X033660Y121394
X026366Y121394G85X026361Y121394
X040966Y121394G85X040960Y121394
X038666Y118894G85X038660Y118894
X028666Y118894G85X028660Y118894
X038666Y131094G85X038660Y131094
X028666Y131094G85X028660Y131094
T10
X122500Y117938
X107000Y117938
M30
