G04 Layer: BottomSolderMaskLayer*
G04 EasyEDA v6.4.19.5, 2021-06-03T13:00:10+02:00*
G04 3a470d2b41ee429cb137c5c572919131,563db0ff5b334ec4995e7372edb549dc,10*
G04 Gerber Generator version 0.2*
G04 Scale: 100 percent, Rotated: No, Reflected: No *
G04 Dimensions in millimeters *
G04 leading zeros omitted , absolute positions ,4 integer and 5 decimal *
%FSLAX45Y45*%
%MOMM*%

%ADD37C,1.1016*%
%ADD40C,1.7016*%
%ADD41C,2.6016*%
%ADD42C,1.7272*%
%ADD43C,1.6032*%
%ADD47C,1.9000*%
%ADD51C,1.9016*%
%ADD58C,1.6764*%

%LPD*%
D37*
X9794499Y13047055D02*
G01*
X9794499Y12987055D01*
X10519516Y13047055D02*
G01*
X10519516Y12987055D01*
D40*
G01*
X11919508Y11463883D03*
G01*
X11792254Y11210137D03*
G01*
X11665508Y11463883D03*
G01*
X11538254Y11210137D03*
G01*
X11411508Y11463883D03*
G01*
X11284254Y11210137D03*
G01*
X11157508Y11463883D03*
G01*
X11030254Y11210137D03*
G01*
X12137948Y12504877D03*
G01*
X11883948Y12504877D03*
G01*
X11066068Y12504877D03*
G01*
X10812068Y12504877D03*
D41*
G01*
X12249962Y11793829D03*
G01*
X10700054Y11793829D03*
D42*
G01*
X2743200Y9817100D03*
G01*
X3251200Y9817100D03*
G01*
X3505200Y9817100D03*
G01*
X2997200Y9817100D03*
G01*
X3759200Y9817100D03*
G01*
X2997200Y8293100D03*
G01*
X2743200Y8293100D03*
G01*
X4013200Y9817100D03*
G01*
X4013200Y9563100D03*
G01*
X4013200Y9309100D03*
G01*
X4013200Y9055100D03*
G01*
X4013200Y8801100D03*
G01*
X4013200Y8547100D03*
G01*
X4013200Y8293100D03*
G01*
X3759200Y8293100D03*
G01*
X3505200Y8293100D03*
G01*
X3251200Y8293100D03*
G01*
X4267200Y9817100D03*
G01*
X4775200Y9817100D03*
G01*
X5029200Y9817100D03*
G01*
X5283200Y9817100D03*
G01*
X5537200Y9817100D03*
G01*
X5791200Y9817100D03*
G01*
X6045200Y9817100D03*
G01*
X6299200Y9817100D03*
G01*
X6553200Y9817100D03*
G01*
X6807200Y9817100D03*
G01*
X7061200Y9817100D03*
G01*
X7315200Y9817100D03*
G01*
X7569200Y9817100D03*
G01*
X7823200Y9817100D03*
G01*
X8077200Y9817100D03*
G01*
X8331200Y9817100D03*
G01*
X8585200Y9817100D03*
G01*
X8585200Y8293100D03*
G01*
X8331200Y8293100D03*
G01*
X8077200Y8293100D03*
G01*
X7823200Y8293100D03*
G01*
X7569200Y8293100D03*
G01*
X7315200Y8293100D03*
G01*
X7061200Y8293100D03*
G01*
X6807200Y8293100D03*
G01*
X6553200Y8293100D03*
G01*
X6299200Y8293100D03*
G01*
X6045200Y8293100D03*
G01*
X5791200Y8293100D03*
G01*
X5537200Y8293100D03*
G01*
X5283200Y8293100D03*
G01*
X5029200Y8293100D03*
G01*
X4775200Y8293100D03*
G01*
X4267200Y8293100D03*
G01*
X8331200Y8547100D03*
D43*
G01*
X7288199Y8733104D03*
G01*
X7088200Y8533104D03*
G01*
X7288199Y8533104D03*
D42*
G01*
X4521200Y8293100D03*
G01*
X4521200Y9817100D03*
G01*
X8524189Y9182100D03*
G01*
X8524189Y8928100D03*
G01*
X7950200Y9517100D03*
G01*
X7696200Y9517100D03*
G01*
X7442200Y9517100D03*
G01*
X7188200Y9517100D03*
G01*
X6934200Y9517100D03*
D43*
G01*
X7288199Y8933103D03*
G01*
X7088200Y8733104D03*
G01*
X7088200Y8933103D03*
D37*
G01*
X10399501Y12752057D03*
G01*
X9914514Y12752057D03*
G36*
X7541259Y12029186D02*
G01*
X7541259Y12249658D01*
X7861554Y12249658D01*
X7861554Y12029186D01*
G37*
G36*
X6811263Y12029186D02*
G01*
X6811263Y12249658D01*
X7131558Y12249658D01*
X7131558Y12029186D01*
G37*
G36*
X8271256Y12029186D02*
G01*
X8271256Y12249658D01*
X8591550Y12249658D01*
X8591550Y12029186D01*
G37*
G36*
X8041131Y11779250D02*
G01*
X8041131Y11999468D01*
X8361425Y11999468D01*
X8361425Y11779250D01*
G37*
G36*
X7041134Y11779250D02*
G01*
X7041134Y11999468D01*
X7361427Y11999468D01*
X7361427Y11779250D01*
G37*
G36*
X8041131Y12999212D02*
G01*
X8041131Y13219684D01*
X8361425Y13219684D01*
X8361425Y12999212D01*
G37*
G36*
X7041134Y12999212D02*
G01*
X7041134Y13219684D01*
X7361427Y13219684D01*
X7361427Y12999212D01*
G37*
G36*
X5373624Y12029186D02*
G01*
X5373624Y12249658D01*
X5693918Y12249658D01*
X5693918Y12029186D01*
G37*
G36*
X4643627Y12029186D02*
G01*
X4643627Y12249658D01*
X4963922Y12249658D01*
X4963922Y12029186D01*
G37*
G36*
X6103620Y12029186D02*
G01*
X6103620Y12249658D01*
X6423913Y12249658D01*
X6423913Y12029186D01*
G37*
G36*
X5873750Y11779250D02*
G01*
X5873750Y11999468D01*
X6194043Y11999468D01*
X6194043Y11779250D01*
G37*
G36*
X4873752Y11779250D02*
G01*
X4873752Y11999468D01*
X5194045Y11999468D01*
X5194045Y11779250D01*
G37*
G36*
X5873750Y12999212D02*
G01*
X5873750Y13219684D01*
X6194043Y13219684D01*
X6194043Y12999212D01*
G37*
G36*
X4873752Y12999212D02*
G01*
X4873752Y13219684D01*
X5194045Y13219684D01*
X5194045Y12999212D01*
G37*
G36*
X3206241Y12029186D02*
G01*
X3206241Y12249658D01*
X3526536Y12249658D01*
X3526536Y12029186D01*
G37*
G36*
X2476245Y12029186D02*
G01*
X2476245Y12249658D01*
X2796540Y12249658D01*
X2796540Y12029186D01*
G37*
G36*
X3936238Y12029186D02*
G01*
X3936238Y12249658D01*
X4256531Y12249658D01*
X4256531Y12029186D01*
G37*
G36*
X3706113Y11779250D02*
G01*
X3706113Y11999468D01*
X4026408Y11999468D01*
X4026408Y11779250D01*
G37*
G36*
X2706115Y11779250D02*
G01*
X2706115Y11999468D01*
X3026409Y11999468D01*
X3026409Y11779250D01*
G37*
G36*
X3706113Y12999212D02*
G01*
X3706113Y13219684D01*
X4026408Y13219684D01*
X4026408Y12999212D01*
G37*
G36*
X2706115Y12999212D02*
G01*
X2706115Y13219684D01*
X3026409Y13219684D01*
X3026409Y12999212D01*
G37*
G36*
X7677404Y10992104D02*
G01*
X7677404Y11182095D01*
X7867395Y11182095D01*
X7867395Y10992104D01*
G37*
D47*
G01*
X7518400Y11087100D03*
G01*
X7264400Y11087100D03*
G01*
X7010400Y11087100D03*
G01*
X7010400Y10325100D03*
G01*
X7264400Y10325100D03*
G01*
X7518400Y10325100D03*
G01*
X7772400Y10325100D03*
D51*
G01*
X3824503Y10200004D03*
G36*
X3475481Y10104881D02*
G01*
X3475481Y10295128D01*
X3665474Y10295128D01*
X3665474Y10104881D01*
G37*
G01*
X9179991Y9816998D03*
G36*
X9084818Y9467850D02*
G01*
X9084818Y9658095D01*
X9275063Y9658095D01*
X9275063Y9467850D01*
G37*
G36*
X9946131Y11519408D02*
G01*
X9946131Y11687047D01*
X10113772Y11687047D01*
X10113772Y11519408D01*
G37*
D58*
G01*
X10284007Y11603291D03*
M02*
