G04 Layer: TopSilkLayer*
G04 EasyEDA v6.4.19.5, 2021-06-03T13:00:10+02:00*
G04 3a470d2b41ee429cb137c5c572919131,563db0ff5b334ec4995e7372edb549dc,10*
G04 Gerber Generator version 0.2*
G04 Scale: 100 percent, Rotated: No, Reflected: No *
G04 Dimensions in millimeters *
G04 leading zeros omitted , absolute positions ,4 integer and 5 decimal *
%FSLAX45Y45*%
%MOMM*%

%ADD10C,0.2540*%
%ADD26C,1.0000*%
%ADD32C,0.2032*%
%ADD33C,0.1270*%
%ADD34C,0.1500*%
%ADD35C,0.1524*%
%ADD36C,0.2515*%

%LPD*%
G36*
X11852910Y9902698D02*
G01*
X11851335Y9902240D01*
X11848795Y9901021D01*
X11840921Y9896195D01*
X11830050Y9888728D01*
X11816740Y9879126D01*
X11801703Y9867798D01*
X11771833Y9844176D01*
X11759234Y9833864D01*
X11747855Y9824212D01*
X11737594Y9815118D01*
X11728450Y9806482D01*
X11720423Y9798253D01*
X11713464Y9790277D01*
X11707469Y9782556D01*
X11702542Y9774885D01*
X11698528Y9767265D01*
X11695480Y9759543D01*
X11693347Y9751669D01*
X11692026Y9743541D01*
X11691620Y9735108D01*
X11692026Y9726168D01*
X11693194Y9716770D01*
X11695125Y9706711D01*
X11697766Y9695942D01*
X11701119Y9684410D01*
X11705132Y9672015D01*
X11709755Y9658604D01*
X11722963Y9622129D01*
X11729212Y9603790D01*
X11733784Y9588601D01*
X11735409Y9582048D01*
X11736578Y9576155D01*
X11737390Y9570770D01*
X11737746Y9565944D01*
X11737746Y9561525D01*
X11737289Y9557512D01*
X11736425Y9553803D01*
X11735155Y9550400D01*
X11733479Y9547199D01*
X11731396Y9544151D01*
X11728907Y9541256D01*
X11726011Y9538309D01*
X11713616Y9527946D01*
X11709095Y9523831D01*
X11705488Y9519869D01*
X11702745Y9516059D01*
X11700916Y9512300D01*
X11700002Y9508439D01*
X11699900Y9504375D01*
X11700662Y9500057D01*
X11702237Y9495383D01*
X11704675Y9490252D01*
X11707876Y9484563D01*
X11711889Y9478162D01*
X11715394Y9473285D01*
X11718848Y9469120D01*
X11722404Y9465716D01*
X11726011Y9463024D01*
X11729720Y9461093D01*
X11733530Y9459925D01*
X11737492Y9459518D01*
X11741607Y9459874D01*
X11745874Y9460941D01*
X11750344Y9462820D01*
X11755069Y9465462D01*
X11759996Y9468916D01*
X11765178Y9473082D01*
X11770664Y9478060D01*
X11776456Y9483852D01*
X11786971Y9495332D01*
X11794896Y9504680D01*
X11801602Y9513417D01*
X11807088Y9521748D01*
X11811304Y9529927D01*
X11813032Y9534042D01*
X11814403Y9538208D01*
X11815521Y9542424D01*
X11816334Y9546793D01*
X11816892Y9551263D01*
X11817096Y9560712D01*
X11816791Y9565741D01*
X11815318Y9576562D01*
X11812828Y9588601D01*
X11809222Y9602114D01*
X11804599Y9617252D01*
X11798960Y9634321D01*
X11765940Y9729470D01*
X11765940Y9730638D01*
X11766651Y9732314D01*
X11769902Y9737090D01*
X11775389Y9743541D01*
X11782907Y9751466D01*
X11792153Y9760559D01*
X11802922Y9770618D01*
X11814911Y9781286D01*
X11847118Y9809022D01*
X11858752Y9819690D01*
X11869115Y9829596D01*
X11877903Y9838588D01*
X11884914Y9846360D01*
X11889892Y9852609D01*
X11891467Y9855047D01*
X11892483Y9857079D01*
X11892788Y9858552D01*
X11892229Y9862159D01*
X11890654Y9866376D01*
X11888216Y9870998D01*
X11885117Y9875824D01*
X11881408Y9880752D01*
X11877294Y9885527D01*
X11872976Y9890099D01*
X11868505Y9894163D01*
X11864136Y9897668D01*
X11859971Y9900361D01*
X11856212Y9902088D01*
G37*
G36*
X11416030Y9806482D02*
G01*
X11416131Y9466630D01*
X11416690Y9389364D01*
X11417655Y9323679D01*
X11418976Y9273235D01*
X11419738Y9254845D01*
X11420551Y9241637D01*
X11421414Y9234068D01*
X11422075Y9232290D01*
X11423294Y9233154D01*
X11425682Y9235541D01*
X11433454Y9244584D01*
X11444884Y9258655D01*
X11476228Y9298736D01*
X11515090Y9349638D01*
X11567058Y9418929D01*
X11605666Y9471304D01*
X11636552Y9514230D01*
X11647627Y9530181D01*
X11655044Y9541459D01*
X11657177Y9545116D01*
X11658701Y9548317D01*
X11660022Y9551822D01*
X11661089Y9555530D01*
X11661902Y9559442D01*
X11662816Y9567926D01*
X11662968Y9572498D01*
X11662562Y9582048D01*
X11661292Y9592208D01*
X11659209Y9602876D01*
X11656314Y9613950D01*
X11652707Y9625330D01*
X11648440Y9636912D01*
X11643410Y9648596D01*
X11637822Y9660280D01*
X11631625Y9671913D01*
X11624818Y9683292D01*
X11617553Y9694468D01*
X11609730Y9705238D01*
X11601500Y9715500D01*
X11592864Y9725202D01*
X11584228Y9733788D01*
X11575084Y9741712D01*
X11564924Y9749485D01*
X11553850Y9757003D01*
X11542115Y9764268D01*
X11529822Y9771126D01*
X11517071Y9777526D01*
X11504066Y9783368D01*
X11490960Y9788652D01*
X11477904Y9793224D01*
X11465001Y9797034D01*
X11452453Y9800031D01*
G37*
G36*
X11661089Y9431985D02*
G01*
X11660327Y9431934D01*
X11657838Y9430359D01*
X11654028Y9427006D01*
X11642902Y9415322D01*
X11627662Y9397644D01*
X11609019Y9374936D01*
X11587683Y9347962D01*
X11564315Y9317583D01*
X11440261Y9151213D01*
X11440261Y8930538D01*
X11471503Y8874760D01*
X11481917Y8857284D01*
X11493855Y8838844D01*
X11507063Y8819540D01*
X11521490Y8799474D01*
X11536984Y8778798D01*
X11553393Y8757716D01*
X11575084Y8730894D01*
X11593169Y8709253D01*
X11611813Y8687612D01*
X11630863Y8666073D01*
X11650167Y8644788D01*
X11684304Y8608568D01*
X11703812Y8588705D01*
X11727891Y8564930D01*
X11746788Y8546947D01*
X11765229Y8530082D01*
X11787428Y8510625D01*
X11804396Y8496655D01*
X11820448Y8484158D01*
X11835536Y8473338D01*
X11849506Y8464245D01*
X11859869Y8458200D01*
X11873687Y8450529D01*
X11886438Y8443823D01*
X11897563Y8438337D01*
X11906504Y8434374D01*
X11912600Y8432292D01*
X11914378Y8431987D01*
X11919864Y8433409D01*
X11927484Y8437321D01*
X11936323Y8443112D01*
X11945264Y8450173D01*
X11949226Y8453831D01*
X11952732Y8457590D01*
X11955932Y8461603D01*
X11958777Y8465921D01*
X11961317Y8470646D01*
X11963603Y8475878D01*
X11965686Y8481771D01*
X11967565Y8488375D01*
X11970969Y8504123D01*
X11974068Y8523884D01*
X11975947Y8539937D01*
X11977116Y8556853D01*
X11977624Y8579053D01*
X11977268Y8597646D01*
X11975846Y8621979D01*
X11973966Y8642248D01*
X11970664Y8668562D01*
X11966346Y8695994D01*
X11962130Y8718702D01*
X11957304Y8742019D01*
X11951766Y8765997D01*
X11945620Y8790584D01*
X11938863Y8815781D01*
X11931446Y8841587D01*
X11923369Y8867902D01*
X11914733Y8894826D01*
X11905437Y8922258D01*
X11892940Y8957310D01*
X11879478Y8993124D01*
X11865102Y9029700D01*
X11852910Y9059519D01*
X11840108Y9089745D01*
X11823293Y9128099D01*
X11805259Y9167774D01*
X11781434Y9218168D01*
X11765534Y9250730D01*
X11749836Y9281972D01*
X11734698Y9311386D01*
X11720271Y9338614D01*
X11706809Y9363252D01*
X11694515Y9384741D01*
X11683644Y9402775D01*
X11674449Y9416897D01*
X11667185Y9426600D01*
X11664289Y9429699D01*
X11662003Y9431528D01*
G37*
G36*
X11842546Y9299905D02*
G01*
X11837670Y9299854D01*
X11833453Y9299397D01*
X11829948Y9298584D01*
X11826849Y9297060D01*
X11824411Y9294723D01*
X11822684Y9291828D01*
X11821566Y9288272D01*
X11821058Y9284258D01*
X11821109Y9279890D01*
X11821718Y9275114D01*
X11822785Y9270136D01*
X11824309Y9265005D01*
X11826290Y9259773D01*
X11828678Y9254540D01*
X11831421Y9249410D01*
X11834469Y9244431D01*
X11837822Y9239707D01*
X11841429Y9235287D01*
X11845290Y9231325D01*
X11849303Y9227820D01*
X11853519Y9224873D01*
X11857786Y9222587D01*
X11864746Y9220200D01*
X11867388Y9218879D01*
X11870080Y9217050D01*
X11872874Y9214764D01*
X11875770Y9211919D01*
X11881967Y9204553D01*
X11888774Y9194850D01*
X11896394Y9182658D01*
X11904827Y9167723D01*
X11914276Y9149943D01*
X11958116Y9063532D01*
X12057227Y9022384D01*
X12098426Y9005925D01*
X12115901Y8999321D01*
X12131446Y8993733D01*
X12145213Y8989161D01*
X12157303Y8985554D01*
X12167870Y8982964D01*
X12176963Y8981287D01*
X12184735Y8980576D01*
X12188139Y8980525D01*
X12194133Y8981135D01*
X12196775Y8981744D01*
X12201296Y8983675D01*
X12203226Y8984945D01*
X12206528Y8988094D01*
X12209119Y8992006D01*
X12211202Y8996781D01*
X12212878Y9002268D01*
X12214301Y9008922D01*
X12215063Y9015069D01*
X12215215Y9020708D01*
X12214707Y9025940D01*
X12213590Y9030766D01*
X12211761Y9035186D01*
X12209221Y9039250D01*
X12206020Y9042908D01*
X12202058Y9046260D01*
X12197435Y9049308D01*
X12192050Y9052102D01*
X12013438Y9120327D01*
X11973509Y9199626D01*
X11965635Y9214307D01*
X11957608Y9228226D01*
X11949684Y9241078D01*
X11942064Y9252610D01*
X11934952Y9262364D01*
X11928551Y9270187D01*
X11923064Y9275622D01*
X11920778Y9277400D01*
X11916308Y9280042D01*
X11911228Y9282633D01*
X11905640Y9285173D01*
X11893296Y9289796D01*
X11879986Y9293758D01*
X11866575Y9296857D01*
X11860072Y9298076D01*
X11847982Y9299600D01*
G37*
G36*
X11422430Y8831884D02*
G01*
X11421719Y8831173D01*
X11421008Y8829446D01*
X11420297Y8826754D01*
X11419078Y8818575D01*
X11418062Y8806942D01*
X11417198Y8792159D01*
X11416538Y8774430D01*
X11416030Y8731453D01*
X11416030Y8623655D01*
X11469979Y8629396D01*
X11478615Y8630818D01*
X11486946Y8632545D01*
X11494922Y8634526D01*
X11502542Y8636762D01*
X11509654Y8639200D01*
X11516207Y8641791D01*
X11522252Y8644585D01*
X11527637Y8647480D01*
X11532311Y8650478D01*
X11536273Y8653576D01*
X11539423Y8656675D01*
X11541760Y8659774D01*
X11543131Y8662924D01*
X11543538Y8666022D01*
X11542928Y8669020D01*
X11541150Y8672169D01*
X11531854Y8686038D01*
X11516664Y8707526D01*
X11497665Y8733739D01*
X11471859Y8768689D01*
X11452250Y8794800D01*
X11435892Y8816136D01*
X11423243Y8831580D01*
G37*
D35*
X12750800Y8852915D02*
G01*
X12750800Y8743950D01*
X12823443Y8852915D02*
G01*
X12823443Y8743950D01*
X12750800Y8801100D02*
G01*
X12823443Y8801100D01*
X12888975Y8852915D02*
G01*
X12878561Y8847836D01*
X12868147Y8837421D01*
X12863068Y8827008D01*
X12857734Y8811260D01*
X12857734Y8785352D01*
X12863068Y8769858D01*
X12868147Y8759444D01*
X12878561Y8749029D01*
X12888975Y8743950D01*
X12909804Y8743950D01*
X12920218Y8749029D01*
X12930631Y8759444D01*
X12935711Y8769858D01*
X12941045Y8785352D01*
X12941045Y8811260D01*
X12935711Y8827008D01*
X12930631Y8837421D01*
X12920218Y8847836D01*
X12909804Y8852915D01*
X12888975Y8852915D01*
X12975336Y8852915D02*
G01*
X12975336Y8743950D01*
X12975336Y8743950D02*
G01*
X13037565Y8743950D01*
X13134340Y8852915D02*
G01*
X13082270Y8852915D01*
X13077190Y8806179D01*
X13082270Y8811260D01*
X13097763Y8816594D01*
X13113511Y8816594D01*
X13129006Y8811260D01*
X13139420Y8801100D01*
X13144500Y8785352D01*
X13144500Y8774937D01*
X13139420Y8759444D01*
X13129006Y8749029D01*
X13113511Y8743950D01*
X13097763Y8743950D01*
X13082270Y8749029D01*
X13077190Y8754110D01*
X13071856Y8764524D01*
X12750800Y13196316D02*
G01*
X12750800Y13087350D01*
X12823443Y13196316D02*
G01*
X12823443Y13087350D01*
X12750800Y13144500D02*
G01*
X12823443Y13144500D01*
X12888975Y13196316D02*
G01*
X12878561Y13191236D01*
X12868147Y13180821D01*
X12863068Y13170407D01*
X12857734Y13154660D01*
X12857734Y13128752D01*
X12863068Y13113257D01*
X12868147Y13102844D01*
X12878561Y13092429D01*
X12888975Y13087350D01*
X12909804Y13087350D01*
X12920218Y13092429D01*
X12930631Y13102844D01*
X12935711Y13113257D01*
X12941045Y13128752D01*
X12941045Y13154660D01*
X12935711Y13170407D01*
X12930631Y13180821D01*
X12920218Y13191236D01*
X12909804Y13196316D01*
X12888975Y13196316D01*
X12975336Y13196316D02*
G01*
X12975336Y13087350D01*
X12975336Y13087350D02*
G01*
X13037565Y13087350D01*
X13134340Y13180821D02*
G01*
X13129006Y13191236D01*
X13113511Y13196316D01*
X13103097Y13196316D01*
X13087350Y13191236D01*
X13077190Y13175487D01*
X13071856Y13149579D01*
X13071856Y13123671D01*
X13077190Y13102844D01*
X13087350Y13092429D01*
X13103097Y13087350D01*
X13108177Y13087350D01*
X13123925Y13092429D01*
X13134340Y13102844D01*
X13139420Y13118337D01*
X13139420Y13123671D01*
X13134340Y13139166D01*
X13123925Y13149579D01*
X13108177Y13154660D01*
X13103097Y13154660D01*
X13087350Y13149579D01*
X13077190Y13139166D01*
X13071856Y13123671D01*
X11393665Y10744708D02*
G01*
X11388331Y10755121D01*
X11377917Y10765536D01*
X11367757Y10770615D01*
X11346929Y10770615D01*
X11336515Y10765536D01*
X11326101Y10755121D01*
X11320767Y10744708D01*
X11315687Y10728960D01*
X11315687Y10703052D01*
X11320767Y10687558D01*
X11326101Y10677144D01*
X11336515Y10666729D01*
X11346929Y10661650D01*
X11367757Y10661650D01*
X11377917Y10666729D01*
X11388331Y10677144D01*
X11393665Y10687558D01*
X11479771Y10770615D02*
G01*
X11427955Y10697971D01*
X11505933Y10697971D01*
X11479771Y10770615D02*
G01*
X11479771Y10661650D01*
X12344412Y11177023D02*
G01*
X12344412Y11068057D01*
X12344412Y11177023D02*
G01*
X12391146Y11177023D01*
X12406642Y11171943D01*
X12411976Y11166609D01*
X12417056Y11156195D01*
X12417056Y11145781D01*
X12411976Y11135367D01*
X12406642Y11130287D01*
X12391146Y11125207D01*
X12344412Y11125207D01*
X12380729Y11125207D02*
G01*
X12417056Y11068057D01*
X12503414Y11177023D02*
G01*
X12503414Y11093965D01*
X12498080Y11078217D01*
X12492997Y11073137D01*
X12482583Y11068057D01*
X12472174Y11068057D01*
X12461760Y11073137D01*
X12456678Y11078217D01*
X12451344Y11093965D01*
X12451344Y11104379D01*
X12537706Y11156195D02*
G01*
X12548115Y11161529D01*
X12563612Y11177023D01*
X12563612Y11068057D01*
X8865615Y9055100D02*
G01*
X8787638Y9055100D01*
X8772143Y9050020D01*
X8761729Y9039605D01*
X8756650Y9023858D01*
X8756650Y9013444D01*
X8761729Y8997950D01*
X8772143Y8987536D01*
X8787638Y8982455D01*
X8865615Y8982455D01*
X8865615Y8937752D02*
G01*
X8865615Y8880602D01*
X8823959Y8911589D01*
X8823959Y8896095D01*
X8818879Y8885681D01*
X8813800Y8880602D01*
X8798052Y8875268D01*
X8787638Y8875268D01*
X8772143Y8880602D01*
X8761729Y8891015D01*
X8756650Y8906510D01*
X8756650Y8922004D01*
X8761729Y8937752D01*
X8766809Y8942831D01*
X8777224Y8948165D01*
X10154000Y13426168D02*
G01*
X10154000Y13348190D01*
X10159080Y13332696D01*
X10169494Y13322282D01*
X10185242Y13317202D01*
X10195656Y13317202D01*
X10211150Y13322282D01*
X10221564Y13332696D01*
X10226644Y13348190D01*
X10226644Y13426168D01*
X10333832Y13410674D02*
G01*
X10323418Y13421088D01*
X10307670Y13426168D01*
X10287096Y13426168D01*
X10271348Y13421088D01*
X10260934Y13410674D01*
X10260934Y13400260D01*
X10266268Y13389846D01*
X10271348Y13384512D01*
X10281762Y13379432D01*
X10313004Y13369018D01*
X10323418Y13363938D01*
X10328498Y13358604D01*
X10333832Y13348190D01*
X10333832Y13332696D01*
X10323418Y13322282D01*
X10307670Y13317202D01*
X10287096Y13317202D01*
X10271348Y13322282D01*
X10260934Y13332696D01*
X10368122Y13426168D02*
G01*
X10368122Y13317202D01*
X10368122Y13426168D02*
G01*
X10414858Y13426168D01*
X10430352Y13421088D01*
X10435686Y13415754D01*
X10440766Y13405340D01*
X10440766Y13394926D01*
X10435686Y13384512D01*
X10430352Y13379432D01*
X10414858Y13374352D01*
X10368122Y13374352D02*
G01*
X10414858Y13374352D01*
X10430352Y13369018D01*
X10435686Y13363938D01*
X10440766Y13353524D01*
X10440766Y13337776D01*
X10435686Y13327362D01*
X10430352Y13322282D01*
X10414858Y13317202D01*
X10368122Y13317202D01*
X10475056Y13405340D02*
G01*
X10485470Y13410674D01*
X10500964Y13426168D01*
X10500964Y13317202D01*
D32*
X7498097Y12979123D02*
G01*
X7498097Y12785321D01*
X7498097Y12979123D02*
G01*
X7572011Y12785321D01*
X7645925Y12979123D02*
G01*
X7572011Y12785321D01*
X7645925Y12979123D02*
G01*
X7645925Y12785321D01*
X7706885Y12979123D02*
G01*
X7706885Y12785321D01*
X7767845Y12979123D02*
G01*
X7767845Y12785321D01*
X7767845Y12979123D02*
G01*
X7832361Y12979123D01*
X7860047Y12969979D01*
X7878589Y12951437D01*
X7887987Y12933149D01*
X7897131Y12905209D01*
X7897131Y12859235D01*
X7887987Y12831549D01*
X7878589Y12813007D01*
X7860047Y12794465D01*
X7832361Y12785321D01*
X7767845Y12785321D01*
X7958091Y12979123D02*
G01*
X7958091Y12785321D01*
D36*
X6701599Y11434063D02*
G01*
X6701599Y11274044D01*
X6751891Y11434063D02*
G01*
X6751891Y11274044D01*
X6751891Y11434063D02*
G01*
X6858571Y11274044D01*
X6858571Y11434063D02*
G01*
X6858571Y11274044D01*
D32*
X8367539Y12490175D02*
G01*
X8469139Y12490175D01*
X8413767Y12416261D01*
X8441453Y12416261D01*
X8459741Y12407117D01*
X8469139Y12397973D01*
X8478283Y12370287D01*
X8478283Y12351745D01*
X8469139Y12324059D01*
X8450597Y12305517D01*
X8422911Y12296373D01*
X8395225Y12296373D01*
X8367539Y12305517D01*
X8358141Y12314661D01*
X8348997Y12333203D01*
X6939297Y12453345D02*
G01*
X6957839Y12462489D01*
X6985525Y12490175D01*
X6985525Y12296373D01*
X8510541Y11886925D02*
G01*
X8418339Y11886925D01*
X8408941Y11803867D01*
X8418339Y11813011D01*
X8446025Y11822409D01*
X8473711Y11822409D01*
X8501397Y11813011D01*
X8519939Y11794723D01*
X8529083Y11767037D01*
X8529083Y11748495D01*
X8519939Y11720809D01*
X8501397Y11702267D01*
X8473711Y11693123D01*
X8446025Y11693123D01*
X8418339Y11702267D01*
X8408941Y11711411D01*
X8399797Y11729953D01*
X7664216Y11840951D02*
G01*
X7664216Y11850095D01*
X7673614Y11868637D01*
X7682758Y11877781D01*
X7701300Y11886925D01*
X7738130Y11886925D01*
X7756672Y11877781D01*
X7765816Y11868637D01*
X7775214Y11850095D01*
X7775214Y11831553D01*
X7765816Y11813011D01*
X7747528Y11785325D01*
X7655072Y11693123D01*
X7784358Y11693123D01*
X6993653Y11886925D02*
G01*
X6901197Y11757639D01*
X7039627Y11757639D01*
X6993653Y11886925D02*
G01*
X6993653Y11693123D01*
D35*
X7675900Y13550115D02*
G01*
X7675900Y13472137D01*
X7680980Y13456643D01*
X7691394Y13446229D01*
X7707139Y13441149D01*
X7717556Y13441149D01*
X7733050Y13446229D01*
X7743464Y13456643D01*
X7748544Y13472137D01*
X7748544Y13550115D01*
X7845318Y13534621D02*
G01*
X7839984Y13545035D01*
X7824490Y13550115D01*
X7814076Y13550115D01*
X7798582Y13545035D01*
X7788168Y13529287D01*
X7782834Y13503379D01*
X7782834Y13477471D01*
X7788168Y13456643D01*
X7798582Y13446229D01*
X7814076Y13441149D01*
X7819410Y13441149D01*
X7834904Y13446229D01*
X7845318Y13456643D01*
X7850398Y13472137D01*
X7850398Y13477471D01*
X7845318Y13492965D01*
X7834904Y13503379D01*
X7819410Y13508459D01*
X7814076Y13508459D01*
X7798582Y13503379D01*
X7788168Y13492965D01*
X7782834Y13477471D01*
D32*
X5330596Y12979123D02*
G01*
X5330596Y12785321D01*
X5330596Y12979123D02*
G01*
X5404510Y12785321D01*
X5478424Y12979123D02*
G01*
X5404510Y12785321D01*
X5478424Y12979123D02*
G01*
X5478424Y12785321D01*
X5539384Y12979123D02*
G01*
X5539384Y12785321D01*
X5600344Y12979123D02*
G01*
X5600344Y12785321D01*
X5600344Y12979123D02*
G01*
X5664860Y12979123D01*
X5692546Y12969979D01*
X5711088Y12951437D01*
X5720486Y12933149D01*
X5729630Y12905209D01*
X5729630Y12859235D01*
X5720486Y12831549D01*
X5711088Y12813007D01*
X5692546Y12794465D01*
X5664860Y12785321D01*
X5600344Y12785321D01*
X5790590Y12979123D02*
G01*
X5790590Y12785321D01*
D36*
X4395688Y11421409D02*
G01*
X4395688Y11261389D01*
X4342348Y11421409D02*
G01*
X4449028Y11421409D01*
X4499320Y11421409D02*
G01*
X4499320Y11261389D01*
X4606000Y11421409D02*
G01*
X4606000Y11261389D01*
X4499320Y11345209D02*
G01*
X4606000Y11345209D01*
X4656292Y11421409D02*
G01*
X4656292Y11261389D01*
X4656292Y11421409D02*
G01*
X4724872Y11421409D01*
X4747732Y11413789D01*
X4755352Y11406169D01*
X4762972Y11390929D01*
X4762972Y11375689D01*
X4755352Y11360449D01*
X4747732Y11352829D01*
X4724872Y11345209D01*
X4656292Y11345209D01*
X4709632Y11345209D02*
G01*
X4762972Y11261389D01*
X4813264Y11421409D02*
G01*
X4813264Y11307109D01*
X4820884Y11284249D01*
X4836124Y11269009D01*
X4858984Y11261389D01*
X4874224Y11261389D01*
X4897084Y11269009D01*
X4912324Y11284249D01*
X4919944Y11307109D01*
X4919944Y11421409D01*
D32*
X6200038Y12490175D02*
G01*
X6301638Y12490175D01*
X6246266Y12416261D01*
X6273952Y12416261D01*
X6292240Y12407117D01*
X6301638Y12397973D01*
X6310782Y12370287D01*
X6310782Y12351745D01*
X6301638Y12324059D01*
X6283096Y12305517D01*
X6255410Y12296373D01*
X6227724Y12296373D01*
X6200038Y12305517D01*
X6190640Y12314661D01*
X6181496Y12333203D01*
X4771796Y12453345D02*
G01*
X4790338Y12462489D01*
X4818024Y12490175D01*
X4818024Y12296373D01*
X6343040Y11886925D02*
G01*
X6250838Y11886925D01*
X6241440Y11803867D01*
X6250838Y11813011D01*
X6278524Y11822409D01*
X6306210Y11822409D01*
X6333896Y11813011D01*
X6352438Y11794723D01*
X6361582Y11767037D01*
X6361582Y11748495D01*
X6352438Y11720809D01*
X6333896Y11702267D01*
X6306210Y11693123D01*
X6278524Y11693123D01*
X6250838Y11702267D01*
X6241440Y11711411D01*
X6232296Y11729953D01*
X5496714Y11840951D02*
G01*
X5496714Y11850095D01*
X5506112Y11868637D01*
X5515256Y11877781D01*
X5533798Y11886925D01*
X5570628Y11886925D01*
X5589170Y11877781D01*
X5598314Y11868637D01*
X5607712Y11850095D01*
X5607712Y11831553D01*
X5598314Y11813011D01*
X5580026Y11785325D01*
X5487570Y11693123D01*
X5616856Y11693123D01*
X4826152Y11886925D02*
G01*
X4733696Y11757639D01*
X4872126Y11757639D01*
X4826152Y11886925D02*
G01*
X4826152Y11693123D01*
D35*
X5508398Y13550115D02*
G01*
X5508398Y13472137D01*
X5513478Y13456643D01*
X5523892Y13446229D01*
X5539640Y13441149D01*
X5550054Y13441149D01*
X5565548Y13446229D01*
X5575962Y13456643D01*
X5581042Y13472137D01*
X5581042Y13550115D01*
X5688230Y13550115D02*
G01*
X5636160Y13441149D01*
X5615332Y13550115D02*
G01*
X5688230Y13550115D01*
D32*
X3113996Y12955524D02*
G01*
X3113996Y12761721D01*
X3113996Y12955524D02*
G01*
X3187910Y12761721D01*
X3261824Y12955524D02*
G01*
X3187910Y12761721D01*
X3261824Y12955524D02*
G01*
X3261824Y12761721D01*
X3322784Y12955524D02*
G01*
X3322784Y12761721D01*
X3383744Y12955524D02*
G01*
X3383744Y12761721D01*
X3383744Y12955524D02*
G01*
X3448260Y12955524D01*
X3475946Y12946379D01*
X3494488Y12927837D01*
X3503886Y12909550D01*
X3513030Y12881610D01*
X3513030Y12835636D01*
X3503886Y12807950D01*
X3494488Y12789408D01*
X3475946Y12770865D01*
X3448260Y12761721D01*
X3383744Y12761721D01*
X3573990Y12955524D02*
G01*
X3573990Y12761721D01*
D36*
X2295547Y11421386D02*
G01*
X2280307Y11413766D01*
X2265067Y11398526D01*
X2257447Y11383286D01*
X2249827Y11360426D01*
X2249827Y11322326D01*
X2257447Y11299466D01*
X2265067Y11284226D01*
X2280307Y11268986D01*
X2295547Y11261366D01*
X2326027Y11261366D01*
X2341267Y11268986D01*
X2356507Y11284226D01*
X2364127Y11299466D01*
X2371747Y11322326D01*
X2371747Y11360426D01*
X2364127Y11383286D01*
X2356507Y11398526D01*
X2341267Y11413766D01*
X2326027Y11421386D01*
X2295547Y11421386D01*
X2422039Y11421386D02*
G01*
X2422039Y11307086D01*
X2429659Y11284226D01*
X2444899Y11268986D01*
X2467759Y11261366D01*
X2482999Y11261366D01*
X2505859Y11268986D01*
X2521099Y11284226D01*
X2528719Y11307086D01*
X2528719Y11421386D01*
X2632351Y11421386D02*
G01*
X2632351Y11261366D01*
X2579011Y11421386D02*
G01*
X2685691Y11421386D01*
D32*
X4032539Y12490175D02*
G01*
X4134139Y12490175D01*
X4078767Y12416261D01*
X4106453Y12416261D01*
X4124741Y12407117D01*
X4134139Y12397973D01*
X4143283Y12370287D01*
X4143283Y12351745D01*
X4134139Y12324059D01*
X4115597Y12305517D01*
X4087911Y12296373D01*
X4060225Y12296373D01*
X4032539Y12305517D01*
X4023141Y12314661D01*
X4013997Y12333203D01*
X2604297Y12453345D02*
G01*
X2622839Y12462489D01*
X2650525Y12490175D01*
X2650525Y12296373D01*
X4175541Y11886925D02*
G01*
X4083339Y11886925D01*
X4073941Y11803867D01*
X4083339Y11813011D01*
X4111025Y11822409D01*
X4138711Y11822409D01*
X4166397Y11813011D01*
X4184939Y11794723D01*
X4194083Y11767037D01*
X4194083Y11748495D01*
X4184939Y11720809D01*
X4166397Y11702267D01*
X4138711Y11693123D01*
X4111025Y11693123D01*
X4083339Y11702267D01*
X4073941Y11711411D01*
X4064797Y11729953D01*
X3329216Y11840951D02*
G01*
X3329216Y11850095D01*
X3338614Y11868637D01*
X3347758Y11877781D01*
X3366300Y11886925D01*
X3403130Y11886925D01*
X3421672Y11877781D01*
X3430816Y11868637D01*
X3440214Y11850095D01*
X3440214Y11831553D01*
X3430816Y11813011D01*
X3412528Y11785325D01*
X3320072Y11693123D01*
X3449358Y11693123D01*
X2658653Y11886925D02*
G01*
X2566197Y11757639D01*
X2704627Y11757639D01*
X2658653Y11886925D02*
G01*
X2658653Y11693123D01*
D35*
X3340900Y13550115D02*
G01*
X3340900Y13472137D01*
X3345980Y13456643D01*
X3356394Y13446229D01*
X3372142Y13441149D01*
X3382556Y13441149D01*
X3398050Y13446229D01*
X3408464Y13456643D01*
X3413544Y13472137D01*
X3413544Y13550115D01*
X3453168Y13524207D02*
G01*
X3453168Y13529287D01*
X3458248Y13539701D01*
X3463582Y13545035D01*
X3473996Y13550115D01*
X3494570Y13550115D01*
X3504984Y13545035D01*
X3510318Y13539701D01*
X3515398Y13529287D01*
X3515398Y13518873D01*
X3510318Y13508459D01*
X3499904Y13492965D01*
X3447834Y13441149D01*
X3520732Y13441149D01*
X7951299Y11147717D02*
G01*
X7951299Y11069739D01*
X7956379Y11054245D01*
X7966793Y11043831D01*
X7982541Y11038751D01*
X7992955Y11038751D01*
X8008449Y11043831D01*
X8018863Y11054245D01*
X8023943Y11069739D01*
X8023943Y11147717D01*
X8120717Y11147717D02*
G01*
X8068647Y11147717D01*
X8063567Y11100981D01*
X8068647Y11106061D01*
X8084395Y11111395D01*
X8099889Y11111395D01*
X8115383Y11106061D01*
X8125797Y11095901D01*
X8131131Y11080153D01*
X8131131Y11069739D01*
X8125797Y11054245D01*
X8115383Y11043831D01*
X8099889Y11038751D01*
X8084395Y11038751D01*
X8068647Y11043831D01*
X8063567Y11048911D01*
X8058233Y11059325D01*
X1857900Y12370815D02*
G01*
X1857900Y12261850D01*
X1930544Y12370815D02*
G01*
X1930544Y12261850D01*
X1857900Y12319000D02*
G01*
X1930544Y12319000D01*
X1996076Y12370815D02*
G01*
X1985662Y12365736D01*
X1975248Y12355321D01*
X1970168Y12344908D01*
X1964834Y12329160D01*
X1964834Y12303252D01*
X1970168Y12287758D01*
X1975248Y12277344D01*
X1985662Y12266929D01*
X1996076Y12261850D01*
X2016904Y12261850D01*
X2027318Y12266929D01*
X2037732Y12277344D01*
X2042812Y12287758D01*
X2048146Y12303252D01*
X2048146Y12329160D01*
X2042812Y12344908D01*
X2037732Y12355321D01*
X2027318Y12365736D01*
X2016904Y12370815D01*
X1996076Y12370815D01*
X2082436Y12370815D02*
G01*
X2082436Y12261850D01*
X2082436Y12261850D02*
G01*
X2144666Y12261850D01*
X2178956Y12349987D02*
G01*
X2189370Y12355321D01*
X2204864Y12370815D01*
X2204864Y12261850D01*
X8963101Y12333516D02*
G01*
X8963101Y12224550D01*
X9035745Y12333516D02*
G01*
X9035745Y12224550D01*
X8963101Y12281700D02*
G01*
X9035745Y12281700D01*
X9101277Y12333516D02*
G01*
X9090863Y12328436D01*
X9080449Y12318022D01*
X9075369Y12307608D01*
X9070035Y12291860D01*
X9070035Y12265952D01*
X9075369Y12250458D01*
X9080449Y12240044D01*
X9090863Y12229630D01*
X9101277Y12224550D01*
X9122105Y12224550D01*
X9132519Y12229630D01*
X9142933Y12240044D01*
X9148013Y12250458D01*
X9153347Y12265952D01*
X9153347Y12291860D01*
X9148013Y12307608D01*
X9142933Y12318022D01*
X9132519Y12328436D01*
X9122105Y12333516D01*
X9101277Y12333516D01*
X9187637Y12333516D02*
G01*
X9187637Y12224550D01*
X9187637Y12224550D02*
G01*
X9249867Y12224550D01*
X9289491Y12307608D02*
G01*
X9289491Y12312688D01*
X9294571Y12323102D01*
X9299651Y12328436D01*
X9310065Y12333516D01*
X9330893Y12333516D01*
X9341307Y12328436D01*
X9346641Y12323102D01*
X9351721Y12312688D01*
X9351721Y12302274D01*
X9346641Y12291860D01*
X9336227Y12276366D01*
X9284157Y12224550D01*
X9356801Y12224550D01*
X1828800Y8878315D02*
G01*
X1828800Y8769350D01*
X1901444Y8878315D02*
G01*
X1901444Y8769350D01*
X1828800Y8826500D02*
G01*
X1901444Y8826500D01*
X1966975Y8878315D02*
G01*
X1956561Y8873236D01*
X1946147Y8862821D01*
X1941068Y8852408D01*
X1935734Y8836660D01*
X1935734Y8810752D01*
X1941068Y8795258D01*
X1946147Y8784844D01*
X1956561Y8774429D01*
X1966975Y8769350D01*
X1987804Y8769350D01*
X1998218Y8774429D01*
X2008631Y8784844D01*
X2013711Y8795258D01*
X2019045Y8810752D01*
X2019045Y8836660D01*
X2013711Y8852408D01*
X2008631Y8862821D01*
X1998218Y8873236D01*
X1987804Y8878315D01*
X1966975Y8878315D01*
X2053336Y8878315D02*
G01*
X2053336Y8769350D01*
X2053336Y8769350D02*
G01*
X2115565Y8769350D01*
X2160270Y8878315D02*
G01*
X2217420Y8878315D01*
X2186177Y8836660D01*
X2201925Y8836660D01*
X2212340Y8831579D01*
X2217420Y8826500D01*
X2222500Y8810752D01*
X2222500Y8800337D01*
X2217420Y8784844D01*
X2207006Y8774429D01*
X2191511Y8769350D01*
X2175763Y8769350D01*
X2160270Y8774429D01*
X2155190Y8779510D01*
X2149856Y8789924D01*
X4508500Y11202415D02*
G01*
X4508500Y11124437D01*
X4513579Y11108944D01*
X4523993Y11098529D01*
X4539741Y11093450D01*
X4550156Y11093450D01*
X4565650Y11098529D01*
X4576063Y11108944D01*
X4581143Y11124437D01*
X4581143Y11202415D01*
X4667504Y11202415D02*
G01*
X4615434Y11129771D01*
X4693411Y11129771D01*
X4667504Y11202415D02*
G01*
X4667504Y11093450D01*
X6358199Y10415015D02*
G01*
X6358199Y10306050D01*
X6358199Y10415015D02*
G01*
X6404935Y10415015D01*
X6420429Y10409936D01*
X6425763Y10404602D01*
X6430843Y10394187D01*
X6430843Y10383774D01*
X6425763Y10373360D01*
X6420429Y10368279D01*
X6404935Y10363200D01*
X6358199Y10363200D01*
X6394521Y10363200D02*
G01*
X6430843Y10306050D01*
X6465133Y10394187D02*
G01*
X6475547Y10399521D01*
X6491295Y10415015D01*
X6491295Y10306050D01*
X5410200Y11342115D02*
G01*
X5410200Y11233150D01*
X5410200Y11342115D02*
G01*
X5456936Y11342115D01*
X5472429Y11337036D01*
X5477763Y11331702D01*
X5482843Y11321287D01*
X5482843Y11310874D01*
X5477763Y11300460D01*
X5472429Y11295379D01*
X5456936Y11290300D01*
X5410200Y11290300D01*
X5446522Y11290300D02*
G01*
X5482843Y11233150D01*
X5522468Y11316208D02*
G01*
X5522468Y11321287D01*
X5527547Y11331702D01*
X5532881Y11337036D01*
X5543295Y11342115D01*
X5563870Y11342115D01*
X5574284Y11337036D01*
X5579618Y11331702D01*
X5584697Y11321287D01*
X5584697Y11310874D01*
X5579618Y11300460D01*
X5569204Y11284965D01*
X5517134Y11233150D01*
X5590031Y11233150D01*
X4178300Y10516615D02*
G01*
X4178300Y10407650D01*
X4178300Y10516615D02*
G01*
X4225036Y10516615D01*
X4240529Y10511536D01*
X4245863Y10506202D01*
X4250943Y10495787D01*
X4250943Y10485374D01*
X4245863Y10474960D01*
X4240529Y10469879D01*
X4225036Y10464800D01*
X4178300Y10464800D01*
X4214622Y10464800D02*
G01*
X4250943Y10407650D01*
X4295647Y10516615D02*
G01*
X4352797Y10516615D01*
X4321809Y10474960D01*
X4337304Y10474960D01*
X4347718Y10469879D01*
X4352797Y10464800D01*
X4358131Y10449052D01*
X4358131Y10438637D01*
X4352797Y10423144D01*
X4342384Y10412729D01*
X4326890Y10407650D01*
X4311395Y10407650D01*
X4295647Y10412729D01*
X4290568Y10417810D01*
X4285234Y10428224D01*
X4432300Y10516615D02*
G01*
X4432300Y10407650D01*
X4432300Y10516615D02*
G01*
X4479036Y10516615D01*
X4494529Y10511536D01*
X4499863Y10506202D01*
X4504943Y10495787D01*
X4504943Y10485374D01*
X4499863Y10474960D01*
X4494529Y10469879D01*
X4479036Y10464800D01*
X4432300Y10464800D01*
X4468622Y10464800D02*
G01*
X4504943Y10407650D01*
X4591304Y10516615D02*
G01*
X4539234Y10443971D01*
X4617211Y10443971D01*
X4591304Y10516615D02*
G01*
X4591304Y10407650D01*
X7956301Y10507814D02*
G01*
X7956301Y10398848D01*
X7956301Y10507814D02*
G01*
X8003037Y10507814D01*
X8018531Y10502734D01*
X8023865Y10497400D01*
X8028945Y10486986D01*
X8028945Y10476572D01*
X8023865Y10466158D01*
X8018531Y10461078D01*
X8003037Y10455998D01*
X7956301Y10455998D01*
X7992623Y10455998D02*
G01*
X8028945Y10398848D01*
X8125719Y10507814D02*
G01*
X8073649Y10507814D01*
X8068569Y10461078D01*
X8073649Y10466158D01*
X8089397Y10471492D01*
X8104891Y10471492D01*
X8120385Y10466158D01*
X8130799Y10455998D01*
X8136133Y10440250D01*
X8136133Y10429836D01*
X8130799Y10414342D01*
X8120385Y10403928D01*
X8104891Y10398848D01*
X8089397Y10398848D01*
X8073649Y10403928D01*
X8068569Y10409008D01*
X8063235Y10419422D01*
X8466300Y10520514D02*
G01*
X8466300Y10411548D01*
X8466300Y10520514D02*
G01*
X8513036Y10520514D01*
X8528530Y10515434D01*
X8533864Y10510100D01*
X8538944Y10499686D01*
X8538944Y10489272D01*
X8533864Y10478858D01*
X8528530Y10473778D01*
X8513036Y10468698D01*
X8466300Y10468698D01*
X8502622Y10468698D02*
G01*
X8538944Y10411548D01*
X8635718Y10505020D02*
G01*
X8630384Y10515434D01*
X8614890Y10520514D01*
X8604476Y10520514D01*
X8588982Y10515434D01*
X8578568Y10499686D01*
X8573234Y10473778D01*
X8573234Y10447870D01*
X8578568Y10427042D01*
X8588982Y10416628D01*
X8604476Y10411548D01*
X8609810Y10411548D01*
X8625304Y10416628D01*
X8635718Y10427042D01*
X8640798Y10442536D01*
X8640798Y10447870D01*
X8635718Y10463364D01*
X8625304Y10473778D01*
X8609810Y10478858D01*
X8604476Y10478858D01*
X8588982Y10473778D01*
X8578568Y10463364D01*
X8573234Y10447870D01*
X3126201Y11278615D02*
G01*
X3126201Y11169650D01*
X3126201Y11278615D02*
G01*
X3172937Y11278615D01*
X3188431Y11273536D01*
X3193765Y11268202D01*
X3198845Y11257787D01*
X3198845Y11247374D01*
X3193765Y11236960D01*
X3188431Y11231879D01*
X3172937Y11226800D01*
X3126201Y11226800D01*
X3162523Y11226800D02*
G01*
X3198845Y11169650D01*
X3306033Y11278615D02*
G01*
X3253963Y11169650D01*
X3233135Y11278615D02*
G01*
X3306033Y11278615D01*
X4142198Y11278615D02*
G01*
X4142198Y11169650D01*
X4142198Y11278615D02*
G01*
X4188934Y11278615D01*
X4204428Y11273536D01*
X4209762Y11268202D01*
X4214842Y11257787D01*
X4214842Y11247374D01*
X4209762Y11236960D01*
X4204428Y11231879D01*
X4188934Y11226800D01*
X4142198Y11226800D01*
X4178520Y11226800D02*
G01*
X4214842Y11169650D01*
X4275294Y11278615D02*
G01*
X4259546Y11273536D01*
X4254466Y11263121D01*
X4254466Y11252708D01*
X4259546Y11242294D01*
X4269960Y11236960D01*
X4290788Y11231879D01*
X4306282Y11226800D01*
X4316696Y11216386D01*
X4322030Y11205971D01*
X4322030Y11190224D01*
X4316696Y11179810D01*
X4311616Y11174729D01*
X4295868Y11169650D01*
X4275294Y11169650D01*
X4259546Y11174729D01*
X4254466Y11179810D01*
X4249132Y11190224D01*
X4249132Y11205971D01*
X4254466Y11216386D01*
X4264880Y11226800D01*
X4280374Y11231879D01*
X4301202Y11236960D01*
X4311616Y11242294D01*
X4316696Y11252708D01*
X4316696Y11263121D01*
X4311616Y11273536D01*
X4295868Y11278615D01*
X4275294Y11278615D01*
X4406900Y10249915D02*
G01*
X4406900Y10140950D01*
X4406900Y10249915D02*
G01*
X4453636Y10249915D01*
X4469129Y10244836D01*
X4474463Y10239502D01*
X4479543Y10229087D01*
X4479543Y10218674D01*
X4474463Y10208260D01*
X4469129Y10203179D01*
X4453636Y10198100D01*
X4406900Y10198100D01*
X4443222Y10198100D02*
G01*
X4479543Y10140950D01*
X4581397Y10213594D02*
G01*
X4576318Y10198100D01*
X4565904Y10187686D01*
X4550409Y10182352D01*
X4545075Y10182352D01*
X4529581Y10187686D01*
X4519168Y10198100D01*
X4513834Y10213594D01*
X4513834Y10218674D01*
X4519168Y10234421D01*
X4529581Y10244836D01*
X4545075Y10249915D01*
X4550409Y10249915D01*
X4565904Y10244836D01*
X4576318Y10234421D01*
X4581397Y10213594D01*
X4581397Y10187686D01*
X4576318Y10161524D01*
X4565904Y10146029D01*
X4550409Y10140950D01*
X4539995Y10140950D01*
X4524247Y10146029D01*
X4519168Y10156444D01*
X6624899Y10415015D02*
G01*
X6624899Y10306050D01*
X6624899Y10415015D02*
G01*
X6661221Y10415015D01*
X6676969Y10409936D01*
X6687129Y10399521D01*
X6692463Y10389108D01*
X6697543Y10373360D01*
X6697543Y10347452D01*
X6692463Y10331958D01*
X6687129Y10321544D01*
X6676969Y10311129D01*
X6661221Y10306050D01*
X6624899Y10306050D01*
X6731833Y10394187D02*
G01*
X6742247Y10399521D01*
X6757995Y10415015D01*
X6757995Y10306050D01*
X3303270Y10249915D02*
G01*
X3303270Y10166858D01*
X3297936Y10151110D01*
X3292856Y10146029D01*
X3282441Y10140950D01*
X3272027Y10140950D01*
X3261613Y10146029D01*
X3256279Y10151110D01*
X3251200Y10166858D01*
X3251200Y10177271D01*
X3337559Y10229087D02*
G01*
X3347720Y10234421D01*
X3363468Y10249915D01*
X3363468Y10140950D01*
X9143169Y9373516D02*
G01*
X9143169Y9290458D01*
X9137835Y9274710D01*
X9132755Y9269630D01*
X9122341Y9264550D01*
X9111927Y9264550D01*
X9101513Y9269630D01*
X9096179Y9274710D01*
X9091099Y9290458D01*
X9091099Y9300872D01*
X9182539Y9347608D02*
G01*
X9182539Y9352688D01*
X9187619Y9363102D01*
X9192953Y9368436D01*
X9203367Y9373516D01*
X9224195Y9373516D01*
X9234609Y9368436D01*
X9239689Y9363102D01*
X9244769Y9352688D01*
X9244769Y9342274D01*
X9239689Y9331860D01*
X9229275Y9316366D01*
X9177459Y9264550D01*
X9250103Y9264550D01*
X3687340Y10875617D02*
G01*
X3687340Y10766651D01*
X3687340Y10875617D02*
G01*
X3723662Y10875617D01*
X3739410Y10870537D01*
X3749570Y10860123D01*
X3754904Y10849709D01*
X3759984Y10833961D01*
X3759984Y10808053D01*
X3754904Y10792559D01*
X3749570Y10782145D01*
X3739410Y10771731D01*
X3723662Y10766651D01*
X3687340Y10766651D01*
X3804688Y10875617D02*
G01*
X3861838Y10875617D01*
X3830850Y10833961D01*
X3846344Y10833961D01*
X3856758Y10828881D01*
X3861838Y10823801D01*
X3867172Y10808053D01*
X3867172Y10797639D01*
X3861838Y10782145D01*
X3851424Y10771731D01*
X3835930Y10766651D01*
X3820436Y10766651D01*
X3804688Y10771731D01*
X3799608Y10776811D01*
X3794274Y10787225D01*
X2520381Y10277025D02*
G01*
X2629347Y10277025D01*
X2629347Y10277025D02*
G01*
X2629347Y10339255D01*
X2520381Y10373545D02*
G01*
X2629347Y10373545D01*
X2520381Y10373545D02*
G01*
X2520381Y10441109D01*
X2572197Y10373545D02*
G01*
X2572197Y10415201D01*
X2629347Y10373545D02*
G01*
X2629347Y10441109D01*
X2520381Y10475399D02*
G01*
X2629347Y10475399D01*
X2520381Y10475399D02*
G01*
X2520381Y10511975D01*
X2525461Y10527469D01*
X2535875Y10537883D01*
X2546289Y10542963D01*
X2562037Y10548297D01*
X2587945Y10548297D01*
X2603439Y10542963D01*
X2613853Y10537883D01*
X2624267Y10527469D01*
X2629347Y10511975D01*
X2629347Y10475399D01*
X2541209Y10582587D02*
G01*
X2535875Y10593001D01*
X2520381Y10608495D01*
X2629347Y10608495D01*
X2908310Y10580115D02*
G01*
X2908310Y10471150D01*
X2908310Y10580115D02*
G01*
X2955046Y10580115D01*
X2970540Y10575036D01*
X2975874Y10569702D01*
X2980954Y10559287D01*
X2980954Y10548874D01*
X2975874Y10538460D01*
X2970540Y10533379D01*
X2955046Y10528300D01*
X2908310Y10528300D01*
X2944632Y10528300D02*
G01*
X2980954Y10471150D01*
X3015244Y10559287D02*
G01*
X3025658Y10564621D01*
X3041406Y10580115D01*
X3041406Y10471150D01*
X3106684Y10580115D02*
G01*
X3091190Y10575036D01*
X3080776Y10559287D01*
X3075696Y10533379D01*
X3075696Y10517886D01*
X3080776Y10491724D01*
X3091190Y10476229D01*
X3106684Y10471150D01*
X3117098Y10471150D01*
X3132846Y10476229D01*
X3143260Y10491724D01*
X3148340Y10517886D01*
X3148340Y10533379D01*
X3143260Y10559287D01*
X3132846Y10575036D01*
X3117098Y10580115D01*
X3106684Y10580115D01*
X5792977Y10478008D02*
G01*
X5787643Y10488421D01*
X5777229Y10498836D01*
X5767070Y10503915D01*
X5746241Y10503915D01*
X5735827Y10498836D01*
X5725413Y10488421D01*
X5720079Y10478008D01*
X5715000Y10462260D01*
X5715000Y10436352D01*
X5720079Y10420858D01*
X5725413Y10410444D01*
X5735827Y10400029D01*
X5746241Y10394950D01*
X5767070Y10394950D01*
X5777229Y10400029D01*
X5787643Y10410444D01*
X5792977Y10420858D01*
X5827268Y10483087D02*
G01*
X5837681Y10488421D01*
X5853175Y10503915D01*
X5853175Y10394950D01*
X8274202Y10490796D02*
G01*
X8269122Y10501210D01*
X8258708Y10511624D01*
X8248294Y10516704D01*
X8227466Y10516704D01*
X8217052Y10511624D01*
X8206638Y10501210D01*
X8201558Y10490796D01*
X8196224Y10475048D01*
X8196224Y10449140D01*
X8201558Y10433646D01*
X8206638Y10423232D01*
X8217052Y10412818D01*
X8227466Y10407738D01*
X8248294Y10407738D01*
X8258708Y10412818D01*
X8269122Y10423232D01*
X8274202Y10433646D01*
X8313826Y10490796D02*
G01*
X8313826Y10495876D01*
X8318906Y10506290D01*
X8323986Y10511624D01*
X8334400Y10516704D01*
X8355228Y10516704D01*
X8365642Y10511624D01*
X8370976Y10506290D01*
X8376056Y10495876D01*
X8376056Y10485462D01*
X8370976Y10475048D01*
X8360562Y10459554D01*
X8308492Y10407738D01*
X8381136Y10407738D01*
X10401079Y12000009D02*
G01*
X10395745Y12010423D01*
X10385331Y12020837D01*
X10375171Y12025917D01*
X10354343Y12025917D01*
X10343929Y12020837D01*
X10333515Y12010423D01*
X10328181Y12000009D01*
X10323101Y11984261D01*
X10323101Y11958353D01*
X10328181Y11942859D01*
X10333515Y11932445D01*
X10343929Y11922031D01*
X10354343Y11916951D01*
X10375171Y11916951D01*
X10385331Y11922031D01*
X10395745Y11932445D01*
X10401079Y11942859D01*
X10445783Y12025917D02*
G01*
X10502933Y12025917D01*
X10471691Y11984261D01*
X10487185Y11984261D01*
X10497599Y11979181D01*
X10502933Y11974101D01*
X10508013Y11958353D01*
X10508013Y11947939D01*
X10502933Y11932445D01*
X10492519Y11922031D01*
X10476771Y11916951D01*
X10461277Y11916951D01*
X10445783Y11922031D01*
X10440449Y11927111D01*
X10435369Y11937525D01*
X9838484Y12151901D02*
G01*
X9947450Y12151901D01*
X9838484Y12151901D02*
G01*
X9838484Y12188223D01*
X9843564Y12203971D01*
X9853978Y12214131D01*
X9864392Y12219465D01*
X9880140Y12224545D01*
X9906048Y12224545D01*
X9921542Y12219465D01*
X9931956Y12214131D01*
X9942370Y12203971D01*
X9947450Y12188223D01*
X9947450Y12151901D01*
X9864392Y12264169D02*
G01*
X9859312Y12264169D01*
X9848898Y12269249D01*
X9843564Y12274583D01*
X9838484Y12284997D01*
X9838484Y12305571D01*
X9843564Y12315985D01*
X9848898Y12321319D01*
X9859312Y12326399D01*
X9869726Y12326399D01*
X9880140Y12321319D01*
X9895634Y12310905D01*
X9947450Y12258835D01*
X9947450Y12331733D01*
X9725200Y11667815D02*
G01*
X9725200Y11558849D01*
X9797844Y11667815D02*
G01*
X9797844Y11558849D01*
X9725200Y11615999D02*
G01*
X9797844Y11615999D01*
X9832134Y11646987D02*
G01*
X9842548Y11652321D01*
X9858296Y11667815D01*
X9858296Y11558849D01*
G36*
X2754884Y10300970D02*
G01*
X2718917Y10275976D01*
X2790901Y10275011D01*
G37*
D10*
X11569600Y10943902D02*
G01*
X11569600Y10823900D01*
X11364602Y10963902D02*
G01*
X11264600Y10963902D01*
X11364602Y10803897D02*
G01*
X11264600Y10803897D01*
X11444610Y10963902D02*
G01*
X11544599Y10963902D01*
X11444610Y10803897D02*
G01*
X11544599Y10803897D01*
X11239599Y10943902D02*
G01*
X11239599Y10823900D01*
X11259599Y10963902D02*
G01*
X11264600Y10963902D01*
X11259601Y10803897D02*
G01*
X11264600Y10803897D01*
X11549600Y10963902D02*
G01*
X11544599Y10963902D01*
X11549598Y10803897D02*
G01*
X11544599Y10803897D01*
X12288052Y13188789D02*
G01*
X10661942Y13188789D01*
X10661942Y13188789D02*
G01*
X10661942Y11029789D01*
X10661942Y11029789D02*
G01*
X12288052Y11029789D01*
X12288052Y11029789D02*
G01*
X12288052Y13188789D01*
X6299200Y9563100D02*
G01*
X6299200Y8547100D01*
X5283200Y8547100D01*
X5283200Y9563100D01*
X6299200Y9563100D01*
X4648200Y9182100D02*
G01*
X4648200Y8928100D01*
X4267200Y8928100D01*
X4267200Y9182100D01*
X4648200Y9182100D01*
X3759200Y9563100D02*
G01*
X3759200Y8547100D01*
X2616200Y8547100D01*
X2616200Y9563100D01*
X3759200Y9563100D01*
X8712200Y9436100D02*
G01*
X8712200Y8674100D01*
X8331200Y8674100D01*
X8331200Y9436100D01*
X8712200Y9436100D01*
X8712200Y9944100D02*
G01*
X8712200Y8166100D01*
X2616200Y8166100D01*
X2616200Y9944100D01*
X8712200Y9944100D01*
X10334086Y12719451D02*
G01*
X10330113Y12719451D01*
X10506999Y12915018D02*
G01*
X10506999Y12719451D01*
X10464911Y12719451D01*
X10506999Y13240151D02*
G01*
X10506999Y13119087D01*
X10330113Y12719451D02*
G01*
X10334086Y12719451D01*
X9979913Y12719451D02*
G01*
X9983886Y12719451D01*
X9807000Y12915018D02*
G01*
X9807000Y12719451D01*
X9849088Y12719451D01*
X9807000Y13240151D02*
G01*
X9807000Y13119087D01*
X10506999Y13240151D02*
G01*
X9807000Y13240151D01*
D32*
X8601295Y13189381D02*
G01*
X8601295Y13289381D01*
X8751282Y13289381D01*
X8751282Y13389381D01*
X6801299Y13389381D01*
X6801299Y13289381D01*
X6651312Y13289381D01*
X6651312Y13179399D01*
X6801299Y13179399D01*
X6801299Y11489385D01*
X7151309Y11489385D01*
X7151309Y11739397D01*
X7501298Y11739397D01*
X7501298Y11489385D01*
X7901297Y11489385D01*
X7901297Y11739397D01*
X8251283Y11739397D01*
X8251283Y11489385D01*
X8601295Y11489385D01*
X8601295Y13179399D01*
X6801299Y13179399D01*
X6433794Y13189381D02*
G01*
X6433794Y13289381D01*
X6583781Y13289381D01*
X6583781Y13389381D01*
X4633798Y13389381D01*
X4633798Y13289381D01*
X4483811Y13289381D01*
X4483811Y13179399D01*
X4633798Y13179399D01*
X4633798Y11489385D01*
X4983810Y11489385D01*
X4983810Y11739397D01*
X5333796Y11739397D01*
X5333796Y11489385D01*
X5733795Y11489385D01*
X5733795Y11739397D01*
X6083782Y11739397D01*
X6083782Y11489385D01*
X6433794Y11489385D01*
X6433794Y13179399D01*
X4633798Y13179399D01*
X4266295Y13189381D02*
G01*
X4266295Y13289381D01*
X4416282Y13289381D01*
X4416282Y13389381D01*
X2466299Y13389381D01*
X2466299Y13289381D01*
X2316312Y13289381D01*
X2316312Y13179399D01*
X2466299Y13179399D01*
X2466299Y11489385D01*
X2816311Y11489385D01*
X2816311Y11739397D01*
X3166297Y11739397D01*
X3166297Y11489385D01*
X3566297Y11489385D01*
X3566297Y11739397D01*
X3916283Y11739397D01*
X3916283Y11489385D01*
X4266295Y11489385D01*
X4266295Y13179399D01*
X2466299Y13179399D01*
D10*
X7899400Y10959162D02*
G01*
X6883400Y10959162D01*
X7899400Y10452737D02*
G01*
X6883400Y10452737D01*
X6883400Y10959162D02*
G01*
X6883400Y10452737D01*
X7899400Y10959162D02*
G01*
X7899400Y10782300D01*
X7899400Y10629900D02*
G01*
X7899400Y10452737D01*
X5589140Y10626178D02*
G01*
X5589140Y10519498D01*
X4714801Y10519498D01*
X4714801Y10519498D02*
G01*
X4714801Y10899650D01*
X4714801Y10899650D02*
G01*
X5586600Y10899650D01*
X5586600Y10791278D01*
X6509801Y10864994D02*
G01*
X6349796Y10864994D01*
X6350307Y10679932D02*
G01*
X6350307Y10554936D01*
X6510312Y10679932D02*
G01*
X6510312Y10554936D01*
X6349796Y10739991D02*
G01*
X6349796Y10864994D01*
X6509801Y10739991D02*
G01*
X6509801Y10864994D01*
X6510312Y10554936D02*
G01*
X6350307Y10554936D01*
X5052004Y11357602D02*
G01*
X5052004Y11197597D01*
X5237065Y11198108D02*
G01*
X5362061Y11198108D01*
X5237065Y11358112D02*
G01*
X5362061Y11358112D01*
X5177007Y11197597D02*
G01*
X5052004Y11197597D01*
X5177007Y11357602D02*
G01*
X5052004Y11357602D01*
X5362061Y11358112D02*
G01*
X5362061Y11198108D01*
X4342302Y10864994D02*
G01*
X4182297Y10864994D01*
X4182808Y10679932D02*
G01*
X4182808Y10554936D01*
X4342813Y10679932D02*
G01*
X4342813Y10554936D01*
X4182297Y10739991D02*
G01*
X4182297Y10864994D01*
X4342302Y10739991D02*
G01*
X4342302Y10864994D01*
X4342813Y10554936D02*
G01*
X4182808Y10554936D01*
X4597303Y10864994D02*
G01*
X4437298Y10864994D01*
X4437809Y10679932D02*
G01*
X4437809Y10554936D01*
X4597814Y10679932D02*
G01*
X4597814Y10554936D01*
X4437298Y10739991D02*
G01*
X4437298Y10864994D01*
X4597303Y10739991D02*
G01*
X4597303Y10864994D01*
X4597814Y10554936D02*
G01*
X4437809Y10554936D01*
X8112503Y10864994D02*
G01*
X7952498Y10864994D01*
X7953009Y10679932D02*
G01*
X7953009Y10554936D01*
X8113013Y10679932D02*
G01*
X8113013Y10554936D01*
X7952498Y10739991D02*
G01*
X7952498Y10864994D01*
X8112503Y10739991D02*
G01*
X8112503Y10864994D01*
X8113013Y10554936D02*
G01*
X7953009Y10554936D01*
X8622502Y10864994D02*
G01*
X8462497Y10864994D01*
X8463008Y10679932D02*
G01*
X8463008Y10554936D01*
X8623012Y10679932D02*
G01*
X8623012Y10554936D01*
X8462497Y10739991D02*
G01*
X8462497Y10864994D01*
X8622502Y10739991D02*
G01*
X8622502Y10864994D01*
X8623012Y10554936D02*
G01*
X8463008Y10554936D01*
X2777505Y11300002D02*
G01*
X2777505Y11139998D01*
X2962567Y11140508D02*
G01*
X3087563Y11140508D01*
X2962567Y11300513D02*
G01*
X3087563Y11300513D01*
X2902508Y11139998D02*
G01*
X2777505Y11139998D01*
X2902508Y11300002D02*
G01*
X2777505Y11300002D01*
X3087563Y11300513D02*
G01*
X3087563Y11140508D01*
X3797503Y11300002D02*
G01*
X3797503Y11139998D01*
X3982565Y11140508D02*
G01*
X4107561Y11140508D01*
X3982565Y11300513D02*
G01*
X4107561Y11300513D01*
X3922506Y11139998D02*
G01*
X3797503Y11139998D01*
X3922506Y11300002D02*
G01*
X3797503Y11300002D01*
X4107561Y11300513D02*
G01*
X4107561Y11140508D01*
X4052503Y10280002D02*
G01*
X4052503Y10119997D01*
X4237565Y10120508D02*
G01*
X4362561Y10120508D01*
X4237565Y10280512D02*
G01*
X4362561Y10280512D01*
X4177507Y10119997D02*
G01*
X4052503Y10119997D01*
X4177507Y10280002D02*
G01*
X4052503Y10280002D01*
X4362561Y10280512D02*
G01*
X4362561Y10120508D01*
X6684799Y10659198D02*
G01*
X6644159Y10760798D01*
X6644159Y10760798D02*
G01*
X6725439Y10760798D01*
X6725439Y10760798D02*
G01*
X6684799Y10659198D01*
X6584800Y10559999D02*
G01*
X6584800Y10859998D01*
X6784799Y10559999D02*
G01*
X6784799Y10859998D01*
X6633999Y10659198D02*
G01*
X6735599Y10659198D01*
X6684799Y10633798D02*
G01*
X6684799Y10786198D01*
X3443500Y10326999D02*
G01*
X3951500Y10326999D01*
X3951500Y10072999D01*
X3443500Y10072999D01*
X3443500Y10326999D01*
X9052999Y9436000D02*
G01*
X9052999Y9944000D01*
X9306999Y9944000D01*
X9306999Y9436000D01*
X9052999Y9436000D01*
X3894096Y10442801D02*
G01*
X3494300Y10442801D01*
X3494300Y10467769D02*
G01*
X3494300Y10442801D01*
X3496840Y10722201D02*
G01*
X3496840Y10697232D01*
X3496840Y10722201D02*
G01*
X3896636Y10722201D01*
X3893080Y10467769D02*
G01*
X3893080Y10442801D01*
X3898160Y10719229D02*
G01*
X3898160Y10694261D01*
D33*
X3658638Y10582501D02*
G01*
X3658638Y10544401D01*
X3734838Y10544401D02*
G01*
X3658638Y10582501D01*
X3734838Y10582501D02*
G01*
X3734838Y10544401D01*
X3658638Y10582501D02*
G01*
X3658638Y10620601D01*
X3734838Y10620601D02*
G01*
X3658638Y10582501D01*
X3734838Y10582501D02*
G01*
X3734838Y10620601D01*
X3760238Y10582501D02*
G01*
X3633238Y10582501D01*
D10*
X3611140Y10458041D02*
G01*
X3611140Y10706961D01*
D34*
X2681899Y10324000D02*
G01*
X2681899Y10438998D01*
X2826898Y10438998D01*
X2826898Y10318998D01*
X2827898Y10257000D02*
G01*
X2827898Y10132999D01*
X2682900Y10132999D01*
X2682900Y10257000D01*
X2681899Y10438998D02*
G01*
X2681899Y10442000D01*
X2701899Y10462000D01*
X2803898Y10462000D01*
X2806898Y10458998D01*
X2826898Y10438998D01*
D10*
X2929897Y10132004D02*
G01*
X3089902Y10132004D01*
X3089391Y10317065D02*
G01*
X3089391Y10442061D01*
X2929387Y10317065D02*
G01*
X2929387Y10442061D01*
X3089902Y10257007D02*
G01*
X3089902Y10132004D01*
X2929897Y10257007D02*
G01*
X2929897Y10132004D01*
X2929387Y10442061D02*
G01*
X3089391Y10442061D01*
X5852307Y10544909D02*
G01*
X5732305Y10544909D01*
X5872307Y10749907D02*
G01*
X5872307Y10849909D01*
X5712302Y10749907D02*
G01*
X5712302Y10849909D01*
X5872307Y10669899D02*
G01*
X5872307Y10569910D01*
X5712302Y10669899D02*
G01*
X5712302Y10569910D01*
X5852307Y10874910D02*
G01*
X5732305Y10874910D01*
X5872307Y10854910D02*
G01*
X5872307Y10849909D01*
X5712302Y10854908D02*
G01*
X5712302Y10849909D01*
X5872307Y10564909D02*
G01*
X5872307Y10569910D01*
X5712302Y10564911D02*
G01*
X5712302Y10569910D01*
X8347501Y10544997D02*
G01*
X8227499Y10544997D01*
X8367501Y10749996D02*
G01*
X8367501Y10849998D01*
X8207496Y10749996D02*
G01*
X8207496Y10849998D01*
X8367501Y10669988D02*
G01*
X8367501Y10569999D01*
X8207496Y10669988D02*
G01*
X8207496Y10569999D01*
X8347501Y10874999D02*
G01*
X8227499Y10874999D01*
X8367501Y10854999D02*
G01*
X8367501Y10849998D01*
X8207496Y10854997D02*
G01*
X8207496Y10849998D01*
X8367501Y10564997D02*
G01*
X8367501Y10569999D01*
X8207496Y10565000D02*
G01*
X8207496Y10569999D01*
X10351998Y12405801D02*
G01*
X10472000Y12405801D01*
X10331998Y12200803D02*
G01*
X10331998Y12100801D01*
X10492003Y12200803D02*
G01*
X10492003Y12100801D01*
X10331998Y12280811D02*
G01*
X10331998Y12380800D01*
X10492003Y12280811D02*
G01*
X10492003Y12380800D01*
X10351998Y12075800D02*
G01*
X10472000Y12075800D01*
X10331998Y12095800D02*
G01*
X10331998Y12100801D01*
X10492003Y12095802D02*
G01*
X10492003Y12100801D01*
X10331998Y12385802D02*
G01*
X10331998Y12380800D01*
X10492003Y12385799D02*
G01*
X10492003Y12380800D01*
X10311998Y12330803D02*
G01*
X10311998Y12150801D01*
X10001996Y12330803D02*
G01*
X10001996Y12150801D01*
D32*
X10411000Y11730299D02*
G01*
X10411000Y11478839D01*
X9903000Y11478839D01*
X9903000Y11730299D01*
X10411000Y11730299D01*
D10*
G75*
G01*
X11239599Y10943902D02*
G02*
X11259599Y10963902I20000J0D01*
G75*
G01*
X11239599Y10823900D02*
G03*
X11259602Y10803898I20003J0D01*
G75*
G01*
X11569601Y10943902D02*
G03*
X11549601Y10963902I-20000J0D01*
G75*
G01*
X11569601Y10823900D02*
G02*
X11549598Y10803898I-20003J0D01*
G75*
G01*
X7899400Y10629900D02*
G02*
X7899400Y10782300I0J76200D01*
G75*
G01*
X5589140Y10626179D02*
G02*
X5586600Y10786199I-3741J79971D01*
G75*
G01*
X5852307Y10874911D02*
G02*
X5872307Y10854911I0J-20000D01*
G75*
G01*
X5732305Y10874911D02*
G03*
X5712303Y10854908I0J-20003D01*
G75*
G01*
X5852307Y10544909D02*
G03*
X5872307Y10564909I0J20000D01*
G75*
G01*
X5732305Y10544909D02*
G02*
X5712303Y10564912I0J20003D01*
G75*
G01*
X8347502Y10875000D02*
G02*
X8367502Y10855000I0J-20000D01*
G75*
G01*
X8227499Y10875000D02*
G03*
X8207497Y10854997I0J-20003D01*
G75*
G01*
X8347502Y10544998D02*
G03*
X8367502Y10564998I0J20000D01*
G75*
G01*
X8227499Y10544998D02*
G02*
X8207497Y10565000I0J20002D01*
G75*
G01*
X10351999Y12075800D02*
G02*
X10331999Y12095800I0J20000D01*
G75*
G01*
X10472001Y12075800D02*
G03*
X10492003Y12095803I0J20003D01*
G75*
G01*
X10351999Y12405802D02*
G03*
X10331999Y12385802I0J-20000D01*
G75*
G01*
X10472001Y12405802D02*
G02*
X10492003Y12385799I0J-20003D01*
D26*
G75*
G01
X13000736Y8407400D02*
G03X13000736Y8407400I-249936J0D01*
G75*
G01
X13000736Y12750800D02*
G03X13000736Y12750800I-249936J0D01*
G75*
G01
X2289937Y12749987D02*
G03X2289937Y12749987I-249936J0D01*
G75*
G01
X9432041Y12750787D02*
G03X9432041Y12750787I-249936J0D01*
G75*
G01
X2289937Y8414995D02*
G03X2289937Y8414995I-249936J0D01*
D10*
G75*
G01
X5691200Y11002086D02*
G03X5691200Y11002086I-28397J0D01*
G75*
G01
X10004608Y12101106D02*
G03X10004608Y12101106I-12700J0D01*
M02*
