G04 Layer: TopSolderMaskLayer*
G04 EasyEDA v6.4.19.5, 2021-06-03T13:00:10+02:00*
G04 3a470d2b41ee429cb137c5c572919131,563db0ff5b334ec4995e7372edb549dc,10*
G04 Gerber Generator version 0.2*
G04 Scale: 100 percent, Rotated: No, Reflected: No *
G04 Dimensions in millimeters *
G04 leading zeros omitted , absolute positions ,4 integer and 5 decimal *
%FSLAX45Y45*%
%MOMM*%

%ADD37C,1.1016*%
%ADD38C,0.8032*%
%ADD40C,1.7016*%
%ADD41C,2.6016*%
%ADD42C,1.7272*%
%ADD43C,1.6032*%
%ADD47C,1.9000*%
%ADD51C,1.9016*%
%ADD58C,1.6764*%

%LPD*%
D37*
X9794499Y13047055D02*
G01*
X9794499Y12987055D01*
X10519516Y13047055D02*
G01*
X10519516Y12987055D01*
D38*
X4773802Y10459979D02*
G01*
X4773802Y10339979D01*
X4900802Y10459979D02*
G01*
X4900802Y10339979D01*
X5027802Y10459979D02*
G01*
X5027802Y10339979D01*
X5154802Y10459979D02*
G01*
X5154802Y10339979D01*
X5281802Y10459979D02*
G01*
X5281802Y10339979D01*
X5408802Y10459979D02*
G01*
X5408802Y10339979D01*
X5535802Y10459979D02*
G01*
X5535802Y10339979D01*
X4773802Y11079993D02*
G01*
X4773802Y10959993D01*
X4900802Y11079993D02*
G01*
X4900802Y10959993D01*
X5027802Y11079993D02*
G01*
X5027802Y10959993D01*
X5154802Y11079993D02*
G01*
X5154802Y10959993D01*
X5281802Y11079993D02*
G01*
X5281802Y10959993D01*
X5408802Y11079993D02*
G01*
X5408802Y10959993D01*
X5535802Y11079993D02*
G01*
X5535802Y10959993D01*
G36*
X11254486Y10818621D02*
G01*
X11254486Y10949178D01*
X11374881Y10949178D01*
X11374881Y10818621D01*
G37*
G36*
X11434572Y10818621D02*
G01*
X11434572Y10949178D01*
X11554713Y10949178D01*
X11554713Y10818621D01*
G37*
D40*
G01*
X11919508Y11463883D03*
G01*
X11792254Y11210137D03*
G01*
X11665508Y11463883D03*
G01*
X11538254Y11210137D03*
G01*
X11411508Y11463883D03*
G01*
X11284254Y11210137D03*
G01*
X11157508Y11463883D03*
G01*
X11030254Y11210137D03*
G01*
X12137948Y12504877D03*
G01*
X11883948Y12504877D03*
G01*
X11066068Y12504877D03*
G01*
X10812068Y12504877D03*
D41*
G01*
X12249962Y11793829D03*
G01*
X10700054Y11793829D03*
D42*
G01*
X2743200Y9817100D03*
G01*
X3251200Y9817100D03*
G01*
X3505200Y9817100D03*
G01*
X2997200Y9817100D03*
G01*
X3759200Y9817100D03*
G01*
X2997200Y8293100D03*
G01*
X2743200Y8293100D03*
G01*
X4013200Y9817100D03*
G01*
X4013200Y9563100D03*
G01*
X4013200Y9309100D03*
G01*
X4013200Y9055100D03*
G01*
X4013200Y8801100D03*
G01*
X4013200Y8547100D03*
G01*
X4013200Y8293100D03*
G01*
X3759200Y8293100D03*
G01*
X3505200Y8293100D03*
G01*
X3251200Y8293100D03*
G01*
X4267200Y9817100D03*
G01*
X4775200Y9817100D03*
G01*
X5029200Y9817100D03*
G01*
X5283200Y9817100D03*
G01*
X5537200Y9817100D03*
G01*
X5791200Y9817100D03*
G01*
X6045200Y9817100D03*
G01*
X6299200Y9817100D03*
G01*
X6553200Y9817100D03*
G01*
X6807200Y9817100D03*
G01*
X7061200Y9817100D03*
G01*
X7315200Y9817100D03*
G01*
X7569200Y9817100D03*
G01*
X7823200Y9817100D03*
G01*
X8077200Y9817100D03*
G01*
X8331200Y9817100D03*
G01*
X8585200Y9817100D03*
G01*
X8585200Y8293100D03*
G01*
X8331200Y8293100D03*
G01*
X8077200Y8293100D03*
G01*
X7823200Y8293100D03*
G01*
X7569200Y8293100D03*
G01*
X7315200Y8293100D03*
G01*
X7061200Y8293100D03*
G01*
X6807200Y8293100D03*
G01*
X6553200Y8293100D03*
G01*
X6299200Y8293100D03*
G01*
X6045200Y8293100D03*
G01*
X5791200Y8293100D03*
G01*
X5537200Y8293100D03*
G01*
X5283200Y8293100D03*
G01*
X5029200Y8293100D03*
G01*
X4775200Y8293100D03*
G01*
X4267200Y8293100D03*
G01*
X8331200Y8547100D03*
D43*
G01*
X7288199Y8733104D03*
G01*
X7088200Y8533104D03*
G01*
X7288199Y8533104D03*
D42*
G01*
X4521200Y8293100D03*
G01*
X4521200Y9817100D03*
G01*
X8524189Y9182100D03*
G01*
X8524189Y8928100D03*
G01*
X7950200Y9517100D03*
G01*
X7696200Y9517100D03*
G01*
X7442200Y9517100D03*
G01*
X7188200Y9517100D03*
G01*
X6934200Y9517100D03*
D43*
G01*
X7288199Y8933103D03*
G01*
X7088200Y8733104D03*
G01*
X7088200Y8933103D03*
G36*
X10002011Y12654534D02*
G01*
X10002011Y12824713D01*
X10052050Y12824713D01*
X10052050Y12654534D01*
G37*
G36*
X10067036Y12654534D02*
G01*
X10067036Y12824713D01*
X10117074Y12824713D01*
X10117074Y12654534D01*
G37*
G36*
X10131806Y12654534D02*
G01*
X10131806Y12824713D01*
X10182097Y12824713D01*
X10182097Y12654534D01*
G37*
G36*
X10196829Y12654534D02*
G01*
X10196829Y12824713D01*
X10247122Y12824713D01*
X10247122Y12654534D01*
G37*
G36*
X10261854Y12654534D02*
G01*
X10261854Y12824713D01*
X10312145Y12824713D01*
X10312145Y12654534D01*
G37*
D37*
G01*
X10399501Y12752057D03*
G01*
X9914514Y12752057D03*
G36*
X7541259Y12029186D02*
G01*
X7541259Y12249658D01*
X7861554Y12249658D01*
X7861554Y12029186D01*
G37*
G36*
X6811263Y12029186D02*
G01*
X6811263Y12249658D01*
X7131558Y12249658D01*
X7131558Y12029186D01*
G37*
G36*
X8271256Y12029186D02*
G01*
X8271256Y12249658D01*
X8591550Y12249658D01*
X8591550Y12029186D01*
G37*
G36*
X8041131Y11779250D02*
G01*
X8041131Y11999468D01*
X8361425Y11999468D01*
X8361425Y11779250D01*
G37*
G36*
X7041134Y11779250D02*
G01*
X7041134Y11999468D01*
X7361427Y11999468D01*
X7361427Y11779250D01*
G37*
G36*
X8041131Y12999212D02*
G01*
X8041131Y13219684D01*
X8361425Y13219684D01*
X8361425Y12999212D01*
G37*
G36*
X7041134Y12999212D02*
G01*
X7041134Y13219684D01*
X7361427Y13219684D01*
X7361427Y12999212D01*
G37*
G36*
X5373624Y12029186D02*
G01*
X5373624Y12249658D01*
X5693918Y12249658D01*
X5693918Y12029186D01*
G37*
G36*
X4643627Y12029186D02*
G01*
X4643627Y12249658D01*
X4963922Y12249658D01*
X4963922Y12029186D01*
G37*
G36*
X6103620Y12029186D02*
G01*
X6103620Y12249658D01*
X6423913Y12249658D01*
X6423913Y12029186D01*
G37*
G36*
X5873750Y11779250D02*
G01*
X5873750Y11999468D01*
X6194043Y11999468D01*
X6194043Y11779250D01*
G37*
G36*
X4873752Y11779250D02*
G01*
X4873752Y11999468D01*
X5194045Y11999468D01*
X5194045Y11779250D01*
G37*
G36*
X5873750Y12999212D02*
G01*
X5873750Y13219684D01*
X6194043Y13219684D01*
X6194043Y12999212D01*
G37*
G36*
X4873752Y12999212D02*
G01*
X4873752Y13219684D01*
X5194045Y13219684D01*
X5194045Y12999212D01*
G37*
G36*
X3206241Y12029186D02*
G01*
X3206241Y12249658D01*
X3526536Y12249658D01*
X3526536Y12029186D01*
G37*
G36*
X2476245Y12029186D02*
G01*
X2476245Y12249658D01*
X2796540Y12249658D01*
X2796540Y12029186D01*
G37*
G36*
X3936238Y12029186D02*
G01*
X3936238Y12249658D01*
X4256531Y12249658D01*
X4256531Y12029186D01*
G37*
G36*
X3706113Y11779250D02*
G01*
X3706113Y11999468D01*
X4026408Y11999468D01*
X4026408Y11779250D01*
G37*
G36*
X2706115Y11779250D02*
G01*
X2706115Y11999468D01*
X3026409Y11999468D01*
X3026409Y11779250D01*
G37*
G36*
X3706113Y12999212D02*
G01*
X3706113Y13219684D01*
X4026408Y13219684D01*
X4026408Y12999212D01*
G37*
G36*
X2706115Y12999212D02*
G01*
X2706115Y13219684D01*
X3026409Y13219684D01*
X3026409Y12999212D01*
G37*
G36*
X7677404Y10992104D02*
G01*
X7677404Y11182095D01*
X7867395Y11182095D01*
X7867395Y10992104D01*
G37*
D47*
G01*
X7518400Y11087100D03*
G01*
X7264400Y11087100D03*
G01*
X7010400Y11087100D03*
G01*
X7010400Y10325100D03*
G01*
X7264400Y10325100D03*
G01*
X7518400Y10325100D03*
G01*
X7772400Y10325100D03*
G36*
X6369811Y10575036D02*
G01*
X6369811Y10685018D01*
X6489954Y10685018D01*
X6489954Y10575036D01*
G37*
G36*
X6369811Y10734802D02*
G01*
X6369811Y10845037D01*
X6489954Y10845037D01*
X6489954Y10734802D01*
G37*
G36*
X5231891Y11217402D02*
G01*
X5231891Y11337797D01*
X5342127Y11337797D01*
X5342127Y11217402D01*
G37*
G36*
X5071872Y11217402D02*
G01*
X5071872Y11337797D01*
X5182108Y11337797D01*
X5182108Y11217402D01*
G37*
G36*
X4202175Y10575036D02*
G01*
X4202175Y10685018D01*
X4322318Y10685018D01*
X4322318Y10575036D01*
G37*
G36*
X4202175Y10734802D02*
G01*
X4202175Y10845037D01*
X4322318Y10845037D01*
X4322318Y10734802D01*
G37*
G36*
X4457191Y10575036D02*
G01*
X4457191Y10685018D01*
X4577334Y10685018D01*
X4577334Y10575036D01*
G37*
G36*
X4457191Y10734802D02*
G01*
X4457191Y10845037D01*
X4577334Y10845037D01*
X4577334Y10734802D01*
G37*
G36*
X7972297Y10575036D02*
G01*
X7972297Y10685018D01*
X8092693Y10685018D01*
X8092693Y10575036D01*
G37*
G36*
X7972297Y10734802D02*
G01*
X7972297Y10845037D01*
X8092693Y10845037D01*
X8092693Y10734802D01*
G37*
G36*
X8482329Y10575036D02*
G01*
X8482329Y10685018D01*
X8602472Y10685018D01*
X8602472Y10575036D01*
G37*
G36*
X8482329Y10734802D02*
G01*
X8482329Y10845037D01*
X8602472Y10845037D01*
X8602472Y10734802D01*
G37*
G36*
X2957322Y11159997D02*
G01*
X2957322Y11280139D01*
X3067558Y11280139D01*
X3067558Y11159997D01*
G37*
G36*
X2797556Y11159997D02*
G01*
X2797556Y11280139D01*
X2907538Y11280139D01*
X2907538Y11159997D01*
G37*
G36*
X3977386Y11159997D02*
G01*
X3977386Y11280139D01*
X4087622Y11280139D01*
X4087622Y11159997D01*
G37*
G36*
X3817365Y11159997D02*
G01*
X3817365Y11280139D01*
X3927602Y11280139D01*
X3927602Y11159997D01*
G37*
G36*
X4232402Y10139934D02*
G01*
X4232402Y10260076D01*
X4342638Y10260076D01*
X4342638Y10139934D01*
G37*
G36*
X4072381Y10139934D02*
G01*
X4072381Y10260076D01*
X4182618Y10260076D01*
X4182618Y10139934D01*
G37*
G36*
X6604761Y10469879D02*
G01*
X6604761Y10610087D01*
X6765036Y10610087D01*
X6765036Y10469879D01*
G37*
G36*
X6604761Y10809731D02*
G01*
X6604761Y10950194D01*
X6765036Y10950194D01*
X6765036Y10809731D01*
G37*
D51*
G01*
X3824503Y10200004D03*
G36*
X3475481Y10104881D02*
G01*
X3475481Y10295128D01*
X3665474Y10295128D01*
X3665474Y10104881D01*
G37*
G01*
X9179991Y9816998D03*
G36*
X9084818Y9467850D02*
G01*
X9084818Y9658095D01*
X9275063Y9658095D01*
X9275063Y9467850D01*
G37*
G36*
X3792981Y10472420D02*
G01*
X3792981Y10692637D01*
X4013454Y10692637D01*
X4013454Y10472420D01*
G37*
G36*
X3381502Y10472420D02*
G01*
X3381502Y10692637D01*
X3601974Y10692637D01*
X3601974Y10472420D01*
G37*
G36*
X2699765Y10321797D02*
G01*
X2699765Y10422128D01*
X2810002Y10422128D01*
X2810002Y10321797D01*
G37*
G36*
X2699765Y10151871D02*
G01*
X2699765Y10251947D01*
X2810002Y10251947D01*
X2810002Y10151871D01*
G37*
G36*
X2949702Y10311892D02*
G01*
X2949702Y10422128D01*
X3070097Y10422128D01*
X3070097Y10311892D01*
G37*
G36*
X2949702Y10151871D02*
G01*
X2949702Y10262108D01*
X3070097Y10262108D01*
X3070097Y10151871D01*
G37*
G36*
X5727191Y10739628D02*
G01*
X5727191Y10860024D01*
X5857493Y10860024D01*
X5857493Y10739628D01*
G37*
G36*
X5727191Y10559795D02*
G01*
X5727191Y10679937D01*
X5857493Y10679937D01*
X5857493Y10559795D01*
G37*
G36*
X8222234Y10739881D02*
G01*
X8222234Y10860278D01*
X8352536Y10860278D01*
X8352536Y10739881D01*
G37*
G36*
X8222234Y10559795D02*
G01*
X8222234Y10680192D01*
X8352536Y10680192D01*
X8352536Y10559795D01*
G37*
G36*
X10346943Y12090654D02*
G01*
X10346943Y12211050D01*
X10477245Y12211050D01*
X10477245Y12090654D01*
G37*
G36*
X10346943Y12270739D02*
G01*
X10346943Y12390881D01*
X10477245Y12390881D01*
X10477245Y12270739D01*
G37*
G36*
X10219436Y12045695D02*
G01*
X10219436Y12155931D01*
X10284713Y12155931D01*
X10284713Y12045695D01*
G37*
G36*
X10124440Y12045695D02*
G01*
X10124440Y12155931D01*
X10189718Y12155931D01*
X10189718Y12045695D01*
G37*
G36*
X10029443Y12045695D02*
G01*
X10029443Y12155931D01*
X10094722Y12155931D01*
X10094722Y12045695D01*
G37*
G36*
X10029443Y12325604D02*
G01*
X10029443Y12435839D01*
X10094722Y12435839D01*
X10094722Y12325604D01*
G37*
G36*
X10124440Y12325604D02*
G01*
X10124440Y12435839D01*
X10189718Y12435839D01*
X10189718Y12325604D01*
G37*
G36*
X10219436Y12325604D02*
G01*
X10219436Y12435839D01*
X10284713Y12435839D01*
X10284713Y12325604D01*
G37*
G36*
X9946131Y11519408D02*
G01*
X9946131Y11687047D01*
X10113772Y11687047D01*
X10113772Y11519408D01*
G37*
D58*
G01*
X10284007Y11603291D03*
M02*
