G04 Layer: TopSolderMaskLayer*
G04 EasyEDA v6.4.19.5, 2021-06-08T16:18:50+02:00*
G04 4e34ef463dd44b9695d7138247dbe7fd,563db0ff5b334ec4995e7372edb549dc,10*
G04 Gerber Generator version 0.2*
G04 Scale: 100 percent, Rotated: No, Reflected: No *
G04 Dimensions in millimeters *
G04 leading zeros omitted , absolute positions ,4 integer and 5 decimal *
%FSLAX45Y45*%
%MOMM*%

%ADD37C,1.6016*%
%ADD38C,0.8016*%
%ADD40C,2.1016*%
%ADD44C,1.9016*%
%ADD47C,1.7272*%
%ADD49C,1.7780*%
%ADD53C,1.9032*%

%LPD*%
D37*
X4652899Y9124200D02*
G01*
X4652899Y9054200D01*
X3652900Y9124200D02*
G01*
X3652900Y9054200D01*
X4402912Y9054200D02*
G01*
X4402912Y9124200D01*
X3902913Y9054200D02*
G01*
X3902913Y9124200D01*
X4117901Y8589200D02*
G01*
X4187901Y8589200D01*
X5922899Y9124200D02*
G01*
X5922899Y9054200D01*
X4922900Y9124200D02*
G01*
X4922900Y9054200D01*
X5672912Y9054200D02*
G01*
X5672912Y9124200D01*
X5172913Y9054200D02*
G01*
X5172913Y9124200D01*
X5387901Y8589200D02*
G01*
X5457901Y8589200D01*
D38*
X4878908Y10020297D02*
G01*
X4748908Y10020297D01*
X4878908Y10147297D02*
G01*
X4748908Y10147297D01*
X4878908Y10274297D02*
G01*
X4748908Y10274297D01*
X4878908Y10401297D02*
G01*
X4748908Y10401297D01*
X4318914Y10020297D02*
G01*
X4188914Y10020297D01*
X4318914Y10147297D02*
G01*
X4188914Y10147297D01*
X4318914Y10274297D02*
G01*
X4188914Y10274297D01*
X4318914Y10401297D02*
G01*
X4188914Y10401297D01*
G36*
X3704843Y12848844D02*
G01*
X3704843Y13059155D01*
X3915156Y13059155D01*
X3915156Y12848844D01*
G37*
D40*
G01*
X4064000Y12954000D03*
G36*
X5508243Y9638029D02*
G01*
X5508243Y9818370D01*
X5828538Y9818370D01*
X5828538Y9638029D01*
G37*
G36*
X5068061Y9638029D02*
G01*
X5068061Y9818370D01*
X5388356Y9818370D01*
X5388356Y9638029D01*
G37*
G36*
X3895343Y9638029D02*
G01*
X3895343Y9818370D01*
X4215638Y9818370D01*
X4215638Y9638029D01*
G37*
G36*
X3455161Y9638029D02*
G01*
X3455161Y9818370D01*
X3775456Y9818370D01*
X3775456Y9638029D01*
G37*
G36*
X3214877Y10086847D02*
G01*
X3214877Y10232897D01*
X3375152Y10232897D01*
X3375152Y10086847D01*
G37*
G36*
X2974847Y10086847D02*
G01*
X2974847Y10232897D01*
X3135122Y10232897D01*
X3135122Y10086847D01*
G37*
G36*
X8007604Y12818363D02*
G01*
X8007604Y13038836D01*
X8228075Y13038836D01*
X8228075Y12818363D01*
G37*
G36*
X7596124Y12818363D02*
G01*
X7596124Y13038836D01*
X7816595Y13038836D01*
X7816595Y12818363D01*
G37*
D44*
G01*
X7378700Y12941300D03*
G36*
X7029704Y12846304D02*
G01*
X7029704Y13036295D01*
X7219695Y13036295D01*
X7219695Y12846304D01*
G37*
G36*
X2942843Y10308844D02*
G01*
X2942843Y10519155D01*
X3153156Y10519155D01*
X3153156Y10308844D01*
G37*
D40*
G01*
X3302000Y10414000D03*
G36*
X6633972Y12881102D02*
G01*
X6633972Y13001497D01*
X6744208Y13001497D01*
X6744208Y12881102D01*
G37*
G36*
X6793991Y12881102D02*
G01*
X6793991Y13001497D01*
X6904227Y13001497D01*
X6904227Y12881102D01*
G37*
D47*
G01*
X8890000Y12446000D03*
G01*
X8636000Y12446000D03*
G01*
X8382000Y12446000D03*
G01*
X8128000Y12446000D03*
G01*
X7874000Y12446000D03*
G01*
X7620000Y12446000D03*
G01*
X7366000Y12446000D03*
G01*
X7112000Y12446000D03*
G01*
X6858000Y12446000D03*
G01*
X6604000Y12446000D03*
G01*
X6350000Y12446000D03*
G01*
X6096000Y12446000D03*
G01*
X5842000Y12446000D03*
G01*
X5588000Y12446000D03*
G01*
X5334000Y12446000D03*
G01*
X5080000Y12446000D03*
G01*
X4826000Y12446000D03*
G01*
X4572000Y12446000D03*
G01*
X4318000Y12446000D03*
G01*
X4064000Y12446000D03*
G01*
X3810000Y12446000D03*
G01*
X3556000Y12446000D03*
G01*
X3302000Y12446000D03*
G01*
X3048000Y12446000D03*
G01*
X3048000Y10922000D03*
G01*
X3302000Y10922000D03*
G01*
X3556000Y10922000D03*
G01*
X3810000Y10922000D03*
G01*
X4064000Y10922000D03*
G01*
X4318000Y10922000D03*
G01*
X4572000Y10922000D03*
G01*
X4826000Y10922000D03*
G01*
X5080000Y10922000D03*
G01*
X5334000Y10922000D03*
G01*
X5588000Y10922000D03*
G01*
X5842000Y10922000D03*
G01*
X6096000Y10922000D03*
G01*
X6350000Y10922000D03*
G01*
X6604000Y10922000D03*
G01*
X6858000Y10922000D03*
G01*
X7112000Y10922000D03*
G01*
X7366000Y10922000D03*
G01*
X7620000Y10922000D03*
G01*
X7874000Y10922000D03*
G01*
X8128000Y10922000D03*
G01*
X8382000Y10922000D03*
G01*
X8636000Y10922000D03*
G01*
X8890000Y10922000D03*
G01*
X4318000Y12192000D03*
G01*
X4318000Y11938000D03*
G01*
X4318000Y11684000D03*
G01*
X4318000Y11430000D03*
G01*
X4318000Y11176000D03*
G36*
X4613402Y9618471D02*
G01*
X4613402Y9728708D01*
X4733797Y9728708D01*
X4733797Y9618471D01*
G37*
G36*
X4613402Y9778492D02*
G01*
X4613402Y9888728D01*
X4733797Y9888728D01*
X4733797Y9778492D01*
G37*
G36*
X4981702Y9948671D02*
G01*
X4981702Y10058908D01*
X5102097Y10058908D01*
X5102097Y9948671D01*
G37*
G36*
X4981702Y10108692D02*
G01*
X4981702Y10218928D01*
X5102097Y10218928D01*
X5102097Y10108692D01*
G37*
G36*
X5008372Y10303002D02*
G01*
X5008372Y10423397D01*
X5118608Y10423397D01*
X5118608Y10303002D01*
G37*
G36*
X5168391Y10303002D02*
G01*
X5168391Y10423397D01*
X5278627Y10423397D01*
X5278627Y10303002D01*
G37*
G36*
X4816602Y9618471D02*
G01*
X4816602Y9728708D01*
X4936997Y9728708D01*
X4936997Y9618471D01*
G37*
G36*
X4816602Y9778492D02*
G01*
X4816602Y9888728D01*
X4936997Y9888728D01*
X4936997Y9778492D01*
G37*
G36*
X5574791Y10087102D02*
G01*
X5574791Y10207497D01*
X5685027Y10207497D01*
X5685027Y10087102D01*
G37*
G36*
X5414772Y10087102D02*
G01*
X5414772Y10207497D01*
X5525008Y10207497D01*
X5525008Y10087102D01*
G37*
G36*
X3889502Y10075671D02*
G01*
X3889502Y10185908D01*
X4009897Y10185908D01*
X4009897Y10075671D01*
G37*
G36*
X3889502Y10235692D02*
G01*
X3889502Y10345928D01*
X4009897Y10345928D01*
X4009897Y10235692D01*
G37*
D49*
G01*
X7366000Y8369300D03*
G01*
X7620000Y8369300D03*
G36*
X7785100Y8280400D02*
G01*
X7785100Y8458200D01*
X7962900Y8458200D01*
X7962900Y8280400D01*
G37*
G36*
X5883402Y10072878D02*
G01*
X5883402Y10233152D01*
X6029452Y10233152D01*
X6029452Y10072878D01*
G37*
G36*
X5883402Y9832847D02*
G01*
X5883402Y9993121D01*
X6029452Y9993121D01*
X6029452Y9832847D01*
G37*
G36*
X5349747Y10290047D02*
G01*
X5349747Y10436097D01*
X5510022Y10436097D01*
X5510022Y10290047D01*
G37*
G36*
X5589777Y10290047D02*
G01*
X5589777Y10436097D01*
X5750052Y10436097D01*
X5750052Y10290047D01*
G37*
G36*
X4334002Y9755378D02*
G01*
X4334002Y9915652D01*
X4480052Y9915652D01*
X4480052Y9755378D01*
G37*
G36*
X4334002Y9515347D02*
G01*
X4334002Y9675621D01*
X4480052Y9675621D01*
X4480052Y9515347D01*
G37*
G36*
X4561077Y10531347D02*
G01*
X4561077Y10677397D01*
X4721352Y10677397D01*
X4721352Y10531347D01*
G37*
G36*
X4321047Y10531347D02*
G01*
X4321047Y10677397D01*
X4481322Y10677397D01*
X4481322Y10531347D01*
G37*
G36*
X8794750Y10318750D02*
G01*
X8794750Y10509250D01*
X8985250Y10509250D01*
X8985250Y10318750D01*
G37*
D53*
G01*
X8636000Y10414000D03*
G01*
X8382000Y10414000D03*
G01*
X8128000Y10414000D03*
G01*
X7874000Y10414000D03*
G01*
X7620000Y10414000D03*
G01*
X7366000Y10414000D03*
G01*
X7112000Y10414000D03*
G01*
X6858000Y10414000D03*
G01*
X6604000Y10414000D03*
G01*
X6350000Y10414000D03*
M02*
