G04 Layer: BottomSilkLayer*
G04 EasyEDA v6.4.19.5, 2021-06-08T16:18:50+02:00*
G04 4e34ef463dd44b9695d7138247dbe7fd,563db0ff5b334ec4995e7372edb549dc,10*
G04 Gerber Generator version 0.2*
G04 Scale: 100 percent, Rotated: No, Reflected: No *
G04 Dimensions in millimeters *
G04 leading zeros omitted , absolute positions ,4 integer and 5 decimal *
%FSLAX45Y45*%
%MOMM*%

%ADD30C,0.2032*%

%LPD*%
G36*
X6615785Y9087408D02*
G01*
X6611010Y9086138D01*
X6606844Y9082786D01*
X6603898Y9078010D01*
X6602831Y9072575D01*
X6603695Y9067444D01*
X6607098Y9062059D01*
X6613956Y9055150D01*
X6635851Y9036558D01*
X6642455Y9030055D01*
X6645706Y9025382D01*
X6645960Y9022130D01*
X6641947Y9010497D01*
X6635140Y8989364D01*
X6631025Y8975242D01*
X6629704Y8969451D01*
X6628892Y8964269D01*
X6628587Y8959697D01*
X6628790Y8955481D01*
X6629603Y8951620D01*
X6630924Y8947962D01*
X6632854Y8944406D01*
X6635394Y8940800D01*
X6638544Y8936990D01*
X6642303Y8932976D01*
X6649923Y8926271D01*
X6656273Y8923680D01*
X6661708Y8925153D01*
X6666636Y8930589D01*
X6670294Y8937447D01*
X6671106Y8942933D01*
X6669024Y8947556D01*
X6663994Y8951874D01*
X6660896Y8954109D01*
X6658711Y8956497D01*
X6657441Y8959240D01*
X6657086Y8962796D01*
X6657746Y8967419D01*
X6659321Y8973515D01*
X6661912Y8981389D01*
X6668719Y9000642D01*
X6671157Y9008821D01*
X6672834Y9016034D01*
X6673799Y9022435D01*
X6674053Y9028074D01*
X6673596Y9033103D01*
X6672478Y9037574D01*
X6670598Y9041688D01*
X6667246Y9045752D01*
X6660743Y9052052D01*
X6652056Y9059672D01*
X6642100Y9067800D01*
X6624116Y9081668D01*
X6618325Y9085834D01*
G37*
G36*
X6778904Y9052102D02*
G01*
X6760921Y9049105D01*
X6755587Y9047734D01*
X6750253Y9045956D01*
X6744970Y9043873D01*
X6739737Y9041485D01*
X6734606Y9038793D01*
X6729577Y9035846D01*
X6724751Y9032646D01*
X6720078Y9029192D01*
X6715607Y9025534D01*
X6711442Y9021724D01*
X6707479Y9017711D01*
X6703872Y9013545D01*
X6700621Y9009278D01*
X6697725Y9004960D01*
X6695186Y9000490D01*
X6691884Y8993530D01*
X6689191Y8986723D01*
X6687108Y8980220D01*
X6685686Y8974074D01*
X6684975Y8968384D01*
X6684873Y8963355D01*
X6685534Y8958935D01*
X6686854Y8955379D01*
X6690004Y8950350D01*
X6703364Y8931503D01*
X6722668Y8905341D01*
X6743700Y8877452D01*
X6762292Y8853424D01*
X6774230Y8838742D01*
X6776415Y8836660D01*
X6776923Y8838844D01*
X6777837Y8855100D01*
X6778498Y8884259D01*
X6778853Y8922766D01*
G37*
G36*
X6685330Y8914282D02*
G01*
X6684365Y8913926D01*
X6683146Y8912860D01*
X6679895Y8908694D01*
X6675678Y8902192D01*
X6670700Y8893505D01*
X6658762Y8870950D01*
X6645148Y8843213D01*
X6627469Y8804706D01*
X6614058Y8773617D01*
X6602475Y8744661D01*
X6597700Y8731656D01*
X6592722Y8717076D01*
X6583070Y8686495D01*
X6579311Y8673134D01*
X6576212Y8660841D01*
X6573723Y8649309D01*
X6571792Y8638438D01*
X6570370Y8627973D01*
X6569405Y8617712D01*
X6568897Y8607501D01*
X6568795Y8593785D01*
X6569405Y8579256D01*
X6570065Y8573160D01*
X6570929Y8567826D01*
X6572097Y8563152D01*
X6573469Y8559139D01*
X6575145Y8555685D01*
X6577126Y8552840D01*
X6579412Y8550452D01*
X6582003Y8548573D01*
X6584950Y8547100D01*
X6590030Y8545423D01*
X6594602Y8545423D01*
X6600088Y8547455D01*
X6607962Y8551672D01*
X6615582Y8556447D01*
X6623710Y8562086D01*
X6632295Y8568588D01*
X6641134Y8575802D01*
X6650278Y8583726D01*
X6659575Y8592210D01*
X6668973Y8601202D01*
X6678371Y8610600D01*
X6696964Y8630361D01*
X6705955Y8640521D01*
X6714693Y8650782D01*
X6723024Y8661044D01*
X6730949Y8671255D01*
X6738315Y8681262D01*
X6745122Y8691067D01*
X6751218Y8700566D01*
X6756552Y8709660D01*
X6766966Y8728252D01*
X6766966Y8809634D01*
X6722770Y8869019D01*
X6712661Y8882278D01*
X6695795Y8903360D01*
X6689852Y8910167D01*
X6686194Y8913774D01*
G37*
G36*
X6616395Y8864600D02*
G01*
X6607048Y8863076D01*
X6597294Y8860180D01*
X6589471Y8856421D01*
X6587693Y8854846D01*
X6585458Y8852408D01*
X6580276Y8845245D01*
X6574434Y8835796D01*
X6568643Y8825077D01*
X6555384Y8798661D01*
X6492087Y8774074D01*
X6487718Y8771737D01*
X6484315Y8769400D01*
X6482283Y8767318D01*
X6480759Y8761628D01*
X6481673Y8755024D01*
X6484518Y8749131D01*
X6488734Y8745829D01*
X6490919Y8745880D01*
X6494932Y8746744D01*
X6507226Y8750452D01*
X6523278Y8756040D01*
X6540652Y8762644D01*
X6557009Y8769400D01*
X6569964Y8775496D01*
X6571894Y8776817D01*
X6574078Y8778900D01*
X6576415Y8781745D01*
X6578955Y8785301D01*
X6584543Y8794597D01*
X6597396Y8819489D01*
X6602730Y8828227D01*
X6607098Y8833408D01*
X6611061Y8835644D01*
X6615074Y8837523D01*
X6618782Y8840876D01*
X6621932Y8845143D01*
X6624370Y8849868D01*
X6625945Y8854643D01*
X6626352Y8858961D01*
X6625437Y8862314D01*
X6623050Y8864244D01*
G37*
G36*
X6776059Y8694978D02*
G01*
X6773672Y8692438D01*
X6769201Y8686952D01*
X6730238Y8634425D01*
X6728866Y8631326D01*
X6729272Y8628989D01*
X6731304Y8626551D01*
X6734098Y8624417D01*
X6737705Y8622436D01*
X6741972Y8620556D01*
X6746748Y8618982D01*
X6751828Y8617661D01*
X6757060Y8616645D01*
X6762343Y8615984D01*
X6767423Y8615781D01*
X6778904Y8615781D01*
X6778853Y8665057D01*
X6778498Y8679688D01*
X6777736Y8689746D01*
X6777278Y8692845D01*
X6776720Y8694623D01*
G37*
D30*
X8455913Y9793478D02*
G01*
X8585200Y9599676D01*
X8585200Y9793478D02*
G01*
X8455913Y9793478D01*
X8585200Y9599676D02*
G01*
X8455913Y9599676D01*
X8385809Y9728962D02*
G01*
X8330184Y9599676D01*
X8274811Y9728962D02*
G01*
X8330184Y9599676D01*
X8348725Y9562592D01*
X8367268Y9544050D01*
X8385809Y9534905D01*
X8394954Y9534905D01*
X8213852Y9728962D02*
G01*
X8213852Y9599676D01*
X8213852Y9691878D02*
G01*
X8186165Y9719563D01*
X8167624Y9728962D01*
X8139938Y9728962D01*
X8121650Y9719563D01*
X8112252Y9691878D01*
X8112252Y9599676D01*
X8023606Y9793478D02*
G01*
X8023606Y9636505D01*
X8014461Y9608820D01*
X7995920Y9599676D01*
X7977377Y9599676D01*
X8051291Y9728962D02*
G01*
X7986775Y9728962D01*
X7916418Y9793478D02*
G01*
X7916418Y9599676D01*
X7916418Y9691878D02*
G01*
X7888731Y9719563D01*
X7870190Y9728962D01*
X7842504Y9728962D01*
X7824215Y9719563D01*
X7814818Y9691878D01*
X7814818Y9599676D01*
X7753858Y9673589D02*
G01*
X7643113Y9673589D01*
X7643113Y9691878D01*
X7652258Y9710420D01*
X7661656Y9719563D01*
X7679943Y9728962D01*
X7707629Y9728962D01*
X7726172Y9719563D01*
X7744713Y9701276D01*
X7753858Y9673589D01*
X7753858Y9655047D01*
X7744713Y9627362D01*
X7726172Y9608820D01*
X7707629Y9599676D01*
X7679943Y9599676D01*
X7661656Y9608820D01*
X7643113Y9627362D01*
X7554468Y9793478D02*
G01*
X7554468Y9636505D01*
X7545070Y9608820D01*
X7526781Y9599676D01*
X7508240Y9599676D01*
X7582154Y9728962D02*
G01*
X7517384Y9728962D01*
X7447279Y9793478D02*
G01*
X7447279Y9599676D01*
X7447279Y9691878D02*
G01*
X7419593Y9719563D01*
X7401052Y9728962D01*
X7373365Y9728962D01*
X7354824Y9719563D01*
X7345679Y9691878D01*
X7345679Y9599676D01*
X7068565Y9793478D02*
G01*
X7142479Y9599676D01*
X7068565Y9793478D02*
G01*
X6994652Y9599676D01*
X7114793Y9664192D02*
G01*
X7022338Y9664192D01*
X6933691Y9728962D02*
G01*
X6933691Y9636505D01*
X6924547Y9608820D01*
X6906006Y9599676D01*
X6878320Y9599676D01*
X6859777Y9608820D01*
X6832091Y9636505D01*
X6832091Y9728962D02*
G01*
X6832091Y9599676D01*
X6660388Y9793478D02*
G01*
X6660388Y9599676D01*
X6660388Y9701276D02*
G01*
X6678929Y9719563D01*
X6697218Y9728962D01*
X6724904Y9728962D01*
X6743445Y9719563D01*
X6761988Y9701276D01*
X6771131Y9673589D01*
X6771131Y9655047D01*
X6761988Y9627362D01*
X6743445Y9608820D01*
X6724904Y9599676D01*
X6697218Y9599676D01*
X6678929Y9608820D01*
X6660388Y9627362D01*
X6599427Y9793478D02*
G01*
X6590029Y9784334D01*
X6580886Y9793478D01*
X6590029Y9802876D01*
X6599427Y9793478D01*
X6590029Y9728962D02*
G01*
X6590029Y9599676D01*
X6473697Y9728962D02*
G01*
X6492240Y9719563D01*
X6510781Y9701276D01*
X6519925Y9673589D01*
X6519925Y9655047D01*
X6510781Y9627362D01*
X6492240Y9608820D01*
X6473697Y9599676D01*
X6446011Y9599676D01*
X6427470Y9608820D01*
X6409181Y9627362D01*
X6399784Y9655047D01*
X6399784Y9673589D01*
X6409181Y9701276D01*
X6427470Y9719563D01*
X6446011Y9728962D01*
X6473697Y9728962D01*
X6196584Y9728962D02*
G01*
X6141211Y9599676D01*
X6085840Y9728962D02*
G01*
X6141211Y9599676D01*
X6024879Y9756647D02*
G01*
X6006338Y9765792D01*
X5978652Y9793478D01*
X5978652Y9599676D01*
X5908547Y9645650D02*
G01*
X5917691Y9636505D01*
X5908547Y9627362D01*
X5899150Y9636505D01*
X5908547Y9645650D01*
X5782818Y9793478D02*
G01*
X5810504Y9784334D01*
X5829045Y9756647D01*
X5838190Y9710420D01*
X5838190Y9682734D01*
X5829045Y9636505D01*
X5810504Y9608820D01*
X5782818Y9599676D01*
X5764529Y9599676D01*
X5736590Y9608820D01*
X5718302Y9636505D01*
X5708904Y9682734D01*
X5708904Y9710420D01*
X5718302Y9756647D01*
X5736590Y9784334D01*
X5764529Y9793478D01*
X5782818Y9793478D01*
M02*
