G04 Layer: BottomSolderMaskLayer*
G04 EasyEDA v6.4.19.5, 2021-06-08T16:18:50+02:00*
G04 4e34ef463dd44b9695d7138247dbe7fd,563db0ff5b334ec4995e7372edb549dc,10*
G04 Gerber Generator version 0.2*
G04 Scale: 100 percent, Rotated: No, Reflected: No *
G04 Dimensions in millimeters *
G04 leading zeros omitted , absolute positions ,4 integer and 5 decimal *
%FSLAX45Y45*%
%MOMM*%

%ADD37C,1.6016*%
%ADD40C,2.1016*%
%ADD44C,1.9016*%
%ADD47C,1.7272*%
%ADD49C,1.7780*%
%ADD53C,1.9032*%

%LPD*%
D37*
X4652899Y9124200D02*
G01*
X4652899Y9054200D01*
X3652900Y9124200D02*
G01*
X3652900Y9054200D01*
X4402912Y9054200D02*
G01*
X4402912Y9124200D01*
X3902913Y9054200D02*
G01*
X3902913Y9124200D01*
X4117901Y8589200D02*
G01*
X4187901Y8589200D01*
X5922899Y9124200D02*
G01*
X5922899Y9054200D01*
X4922900Y9124200D02*
G01*
X4922900Y9054200D01*
X5672912Y9054200D02*
G01*
X5672912Y9124200D01*
X5172913Y9054200D02*
G01*
X5172913Y9124200D01*
X5387901Y8589200D02*
G01*
X5457901Y8589200D01*
G36*
X3704843Y12848844D02*
G01*
X3704843Y13059155D01*
X3915156Y13059155D01*
X3915156Y12848844D01*
G37*
D40*
G01*
X4064000Y12954000D03*
D44*
G01*
X7378700Y12941300D03*
G36*
X7029704Y12846304D02*
G01*
X7029704Y13036295D01*
X7219695Y13036295D01*
X7219695Y12846304D01*
G37*
G36*
X2942843Y10308844D02*
G01*
X2942843Y10519155D01*
X3153156Y10519155D01*
X3153156Y10308844D01*
G37*
D40*
G01*
X3302000Y10414000D03*
D47*
G01*
X8890000Y12446000D03*
G01*
X8636000Y12446000D03*
G01*
X8382000Y12446000D03*
G01*
X8128000Y12446000D03*
G01*
X7874000Y12446000D03*
G01*
X7620000Y12446000D03*
G01*
X7366000Y12446000D03*
G01*
X7112000Y12446000D03*
G01*
X6858000Y12446000D03*
G01*
X6604000Y12446000D03*
G01*
X6350000Y12446000D03*
G01*
X6096000Y12446000D03*
G01*
X5842000Y12446000D03*
G01*
X5588000Y12446000D03*
G01*
X5334000Y12446000D03*
G01*
X5080000Y12446000D03*
G01*
X4826000Y12446000D03*
G01*
X4572000Y12446000D03*
G01*
X4318000Y12446000D03*
G01*
X4064000Y12446000D03*
G01*
X3810000Y12446000D03*
G01*
X3556000Y12446000D03*
G01*
X3302000Y12446000D03*
G01*
X3048000Y12446000D03*
G01*
X3048000Y10922000D03*
G01*
X3302000Y10922000D03*
G01*
X3556000Y10922000D03*
G01*
X3810000Y10922000D03*
G01*
X4064000Y10922000D03*
G01*
X4318000Y10922000D03*
G01*
X4572000Y10922000D03*
G01*
X4826000Y10922000D03*
G01*
X5080000Y10922000D03*
G01*
X5334000Y10922000D03*
G01*
X5588000Y10922000D03*
G01*
X5842000Y10922000D03*
G01*
X6096000Y10922000D03*
G01*
X6350000Y10922000D03*
G01*
X6604000Y10922000D03*
G01*
X6858000Y10922000D03*
G01*
X7112000Y10922000D03*
G01*
X7366000Y10922000D03*
G01*
X7620000Y10922000D03*
G01*
X7874000Y10922000D03*
G01*
X8128000Y10922000D03*
G01*
X8382000Y10922000D03*
G01*
X8636000Y10922000D03*
G01*
X8890000Y10922000D03*
G01*
X4318000Y12192000D03*
G01*
X4318000Y11938000D03*
G01*
X4318000Y11684000D03*
G01*
X4318000Y11430000D03*
G01*
X4318000Y11176000D03*
D49*
G01*
X7366000Y8369300D03*
G01*
X7620000Y8369300D03*
G36*
X7785100Y8280400D02*
G01*
X7785100Y8458200D01*
X7962900Y8458200D01*
X7962900Y8280400D01*
G37*
G36*
X8794750Y10318750D02*
G01*
X8794750Y10509250D01*
X8985250Y10509250D01*
X8985250Y10318750D01*
G37*
D53*
G01*
X8636000Y10414000D03*
G01*
X8382000Y10414000D03*
G01*
X8128000Y10414000D03*
G01*
X7874000Y10414000D03*
G01*
X7620000Y10414000D03*
G01*
X7366000Y10414000D03*
G01*
X7112000Y10414000D03*
G01*
X6858000Y10414000D03*
G01*
X6604000Y10414000D03*
G01*
X6350000Y10414000D03*
M02*
