M48
METRIC,LZ,000.000
;FILE_FORMAT=3:3
;TYPE=PLATED
;Layer: Drill PTH
;EasyEDA v6.4.19.5, 2021-06-08T16:18:50+02:00
;4e34ef463dd44b9695d7138247dbe7fd,563db0ff5b334ec4995e7372edb549dc,10
;Gerber Generator version 0.2
;Holesize 1 = 0.611 mm
T01C0.611
;Holesize 2 = 0.889 mm
T02C0.889
;Holesize 3 = 0.915 mm
T03C0.915
;Holesize 4 = 1.000 mm
T04C1.000
;Holesize 5 = 1.200 mm
T05C1.200
%
G05
G90
T01
X052832Y101473
X044196Y102108
X045339Y102997
T02
X073660Y083693
X076200Y083693
X078740Y083693
T03
X088900Y124460
X086360Y124460
X083820Y124460
X081280Y124460
X078740Y124460
X076200Y124460
X073660Y124460
X071120Y124460
X068580Y124460
X066040Y124460
X063500Y124460
X060960Y124460
X058420Y124460
X055880Y124460
X053340Y124460
X050800Y124460
X048260Y124460
X045720Y124460
X043180Y124460
X040640Y124460
X038100Y124460
X035560Y124460
X033020Y124460
X030480Y124460
X030480Y109220
X033020Y109220
X035560Y109220
X038100Y109220
X040640Y109220
X043180Y109220
X045720Y109220
X048260Y109220
X050800Y109220
X053340Y109220
X055880Y109220
X058420Y109220
X060960Y109220
X063500Y109220
X066040Y109220
X068580Y109220
X071120Y109220
X073660Y109220
X076200Y109220
X078740Y109220
X081280Y109220
X083820Y109220
X086360Y109220
X088900Y109220
X043180Y121920
X043180Y119380
X043180Y116840
X043180Y114300
X043180Y111760
T04
X046529Y091242G85X046529Y090542
X036529Y091242G85X036529Y090542
X044029Y090542G85X044029Y091242
X039029Y090542G85X039029Y091242
X041179Y085892G85X041879Y085892
X059229Y091242G85X059229Y090542
X049229Y091242G85X049229Y090542
X056729Y090542G85X056729Y091242
X051729Y090542G85X051729Y091242
X053879Y085892G85X054579Y085892
X088900Y104143G85X088900Y104137
X086360Y104143G85X086360Y104137
X083820Y104143G85X083820Y104137
X081280Y104143G85X081280Y104137
X078740Y104143G85X078740Y104137
X076200Y104143G85X076200Y104137
X073660Y104143G85X073660Y104137
X071120Y104143G85X071120Y104137
X068580Y104143G85X068580Y104137
X066040Y104143G85X066040Y104137
X063500Y104143G85X063500Y104137
T05
X038100Y129540
X040640Y129540
X073787Y129413
X071247Y129413
X030480Y104140
X033020Y104140
M30
