G04 Layer: TopPasteMaskLayer*
G04 EasyEDA v6.4.19.5, 2021-06-08T16:18:50+02:00*
G04 4e34ef463dd44b9695d7138247dbe7fd,563db0ff5b334ec4995e7372edb549dc,10*
G04 Gerber Generator version 0.2*
G04 Scale: 100 percent, Rotated: No, Reflected: No *
G04 Dimensions in millimeters *
G04 leading zeros omitted , absolute positions ,4 integer and 5 decimal *
%FSLAX45Y45*%
%MOMM*%

%ADD13C,0.7000*%
%ADD15R,3.0000X1.6000*%
%ADD16R,1.5000X1.3589*%
%ADD17R,2.0000X2.0000*%
%ADD18R,1.0000X1.1000*%
%ADD19R,1.1000X1.0000*%
%ADD20R,1.3589X1.5000*%

%LPD*%
D13*
X4878908Y10020297D02*
G01*
X4748908Y10020297D01*
X4878908Y10147297D02*
G01*
X4748908Y10147297D01*
X4878908Y10274297D02*
G01*
X4748908Y10274297D01*
X4878908Y10401297D02*
G01*
X4748908Y10401297D01*
X4318914Y10020297D02*
G01*
X4188914Y10020297D01*
X4318914Y10147297D02*
G01*
X4188914Y10147297D01*
X4318914Y10274297D02*
G01*
X4188914Y10274297D01*
X4318914Y10401297D02*
G01*
X4188914Y10401297D01*
D15*
G01*
X5668289Y9728200D03*
G01*
X5228310Y9728200D03*
G01*
X4055389Y9728200D03*
G01*
X3615410Y9728200D03*
D16*
G01*
X3294981Y10160000D03*
G01*
X3055002Y10160000D03*
D17*
G01*
X8117840Y12928600D03*
G01*
X7706359Y12928600D03*
D18*
G01*
X6689105Y12941300D03*
G01*
X6849099Y12941300D03*
D19*
G01*
X4673600Y9673605D03*
G01*
X4673600Y9833599D03*
G01*
X5041900Y10003805D03*
G01*
X5041900Y10163799D03*
D18*
G01*
X5063505Y10363200D03*
G01*
X5223499Y10363200D03*
D19*
G01*
X4876800Y9673605D03*
G01*
X4876800Y9833599D03*
G36*
X5579907Y10202301D02*
G01*
X5679907Y10202301D01*
X5679907Y10092298D01*
X5579907Y10092298D01*
G37*
G36*
X5419907Y10202301D02*
G01*
X5519907Y10202301D01*
X5519907Y10092298D01*
X5419907Y10092298D01*
G37*
G01*
X3949700Y10130805D03*
G01*
X3949700Y10290799D03*
D20*
G01*
X5956300Y10152981D03*
G01*
X5956300Y9913002D03*
G36*
X5354906Y10431145D02*
G01*
X5504908Y10431145D01*
X5504908Y10295254D01*
X5354906Y10295254D01*
G37*
G36*
X5594906Y10431145D02*
G01*
X5744905Y10431145D01*
X5744905Y10295254D01*
X5594906Y10295254D01*
G37*
G01*
X4406900Y9835481D03*
G01*
X4406900Y9595502D03*
D16*
G01*
X4641181Y10604500D03*
G01*
X4401202Y10604500D03*
M02*
