G04 Layer: BottomLayer*
G04 EasyEDA v6.4.19.5, 2021-06-08T16:18:50+02:00*
G04 4e34ef463dd44b9695d7138247dbe7fd,563db0ff5b334ec4995e7372edb549dc,10*
G04 Gerber Generator version 0.2*
G04 Scale: 100 percent, Rotated: No, Reflected: No *
G04 Dimensions in millimeters *
G04 leading zeros omitted , absolute positions ,4 integer and 5 decimal *
%FSLAX45Y45*%
%MOMM*%

%ADD11C,0.5080*%
%ADD14C,1.2200*%
%ADD21C,2.0000*%
%ADD22C,1.8000*%
%ADD24C,1.5240*%
%ADD25C,1.5748*%
%ADD26R,1.5748X1.5748*%
%ADD27R,1.7000X1.7000*%
%ADD28C,1.7000*%
%ADD29C,1.5000*%

%LPD*%
G36*
X2829814Y8153653D02*
G01*
X2825902Y8154416D01*
X2822651Y8156651D01*
X2820416Y8159902D01*
X2819654Y8163814D01*
X2819654Y10764164D01*
X2832100Y13295934D01*
X2831947Y13301675D01*
X2833928Y13305637D01*
X2837484Y13308380D01*
X2841802Y13309346D01*
X9108186Y13309346D01*
X9112097Y13308584D01*
X9115348Y13306348D01*
X9117584Y13303097D01*
X9118346Y13299186D01*
X9118346Y8163814D01*
X9117584Y8159902D01*
X9115348Y8156651D01*
X9112097Y8154416D01*
X9108186Y8153653D01*
G37*

%LPC*%
G36*
X8762441Y8209127D02*
G01*
X8763558Y8209127D01*
X8838438Y8219186D01*
X8883446Y8234273D01*
X8943340Y8269274D01*
X8973312Y8294420D01*
X9013240Y8344408D01*
X9038183Y8389518D01*
X9058046Y8454542D01*
X9062923Y8509457D01*
X9057843Y8564524D01*
X9038183Y8628481D01*
X9003233Y8688628D01*
X8973362Y8723630D01*
X8928303Y8758783D01*
X8883396Y8783777D01*
X8838438Y8798864D01*
X8763660Y8808923D01*
X8762339Y8808923D01*
X8687562Y8798864D01*
X8642604Y8783777D01*
X8597696Y8758783D01*
X8553450Y8724392D01*
X8513267Y8674354D01*
X8487816Y8628532D01*
X8467953Y8563508D01*
X8463076Y8508542D01*
X8468156Y8453526D01*
X8487816Y8389518D01*
X8513368Y8343595D01*
X8553196Y8298789D01*
X8597595Y8259368D01*
X8642553Y8234273D01*
X8707526Y8214207D01*
G37*
G36*
X3174441Y8209127D02*
G01*
X3175558Y8209127D01*
X3250438Y8219186D01*
X3295446Y8234273D01*
X3355340Y8269274D01*
X3385312Y8294420D01*
X3425240Y8344408D01*
X3450183Y8389518D01*
X3470046Y8454542D01*
X3474923Y8509457D01*
X3469843Y8564524D01*
X3450183Y8628481D01*
X3415233Y8688628D01*
X3385362Y8723630D01*
X3340303Y8758783D01*
X3295396Y8783777D01*
X3250438Y8798864D01*
X3175660Y8808923D01*
X3174339Y8808923D01*
X3099562Y8798864D01*
X3054604Y8783777D01*
X3009696Y8758783D01*
X2965450Y8724392D01*
X2925267Y8674354D01*
X2899816Y8628532D01*
X2879953Y8563508D01*
X2875076Y8508542D01*
X2880156Y8453526D01*
X2899816Y8389518D01*
X2925368Y8343595D01*
X2965145Y8298789D01*
X3009595Y8259368D01*
X3054553Y8234273D01*
X3119526Y8214207D01*
G37*
G36*
X3656076Y8248599D02*
G01*
X3668623Y8249920D01*
X3680917Y8253018D01*
X3692651Y8257743D01*
X3703574Y8264042D01*
X3713530Y8271814D01*
X3722319Y8280908D01*
X3729736Y8291169D01*
X3735679Y8302345D01*
X3739997Y8314181D01*
X3742639Y8326577D01*
X3743553Y8339175D01*
X3742639Y8351824D01*
X3739997Y8364169D01*
X3735679Y8376056D01*
X3729736Y8387232D01*
X3722319Y8397443D01*
X3713530Y8406536D01*
X3703574Y8414308D01*
X3692651Y8420658D01*
X3680917Y8425383D01*
X3668623Y8428431D01*
X3656076Y8429752D01*
X3643426Y8429345D01*
X3630980Y8427110D01*
X3618941Y8423198D01*
X3607562Y8417661D01*
X3597097Y8410600D01*
X3587699Y8402167D01*
X3579571Y8392464D01*
X3572865Y8381746D01*
X3567734Y8370163D01*
X3564229Y8358022D01*
X3562502Y8345525D01*
X3562502Y8332876D01*
X3564229Y8320328D01*
X3567734Y8308187D01*
X3572865Y8296656D01*
X3579571Y8285937D01*
X3587699Y8276234D01*
X3597097Y8267750D01*
X3607562Y8260689D01*
X3618941Y8255152D01*
X3630980Y8251240D01*
X3643426Y8249056D01*
G37*
G36*
X4656074Y8248599D02*
G01*
X4668621Y8249920D01*
X4680915Y8253018D01*
X4692650Y8257743D01*
X4703572Y8264042D01*
X4713528Y8271814D01*
X4722317Y8280908D01*
X4729734Y8291169D01*
X4735677Y8302345D01*
X4739995Y8314181D01*
X4742637Y8326577D01*
X4743551Y8339175D01*
X4742637Y8351824D01*
X4739995Y8364169D01*
X4735677Y8376056D01*
X4729734Y8387232D01*
X4722317Y8397443D01*
X4713528Y8406536D01*
X4703572Y8414308D01*
X4692650Y8420658D01*
X4680915Y8425383D01*
X4668621Y8428431D01*
X4656074Y8429752D01*
X4643424Y8429345D01*
X4630978Y8427110D01*
X4618939Y8423198D01*
X4607560Y8417661D01*
X4597095Y8410600D01*
X4587697Y8402167D01*
X4579569Y8392464D01*
X4572863Y8381746D01*
X4567732Y8370163D01*
X4564227Y8358022D01*
X4562500Y8345525D01*
X4562500Y8332876D01*
X4564227Y8320328D01*
X4567732Y8308187D01*
X4572863Y8296656D01*
X4579569Y8285937D01*
X4587697Y8276234D01*
X4597095Y8267750D01*
X4607560Y8260689D01*
X4618939Y8255152D01*
X4630978Y8251240D01*
X4643424Y8249056D01*
G37*
G36*
X4926076Y8248599D02*
G01*
X4938623Y8249920D01*
X4950917Y8253018D01*
X4962652Y8257743D01*
X4973574Y8264042D01*
X4983530Y8271814D01*
X4992319Y8280908D01*
X4999736Y8291169D01*
X5005679Y8302345D01*
X5009997Y8314181D01*
X5012639Y8326577D01*
X5013553Y8339175D01*
X5012639Y8351824D01*
X5009997Y8364169D01*
X5005679Y8376056D01*
X4999736Y8387232D01*
X4992319Y8397443D01*
X4983530Y8406536D01*
X4973574Y8414308D01*
X4962652Y8420658D01*
X4950917Y8425383D01*
X4938623Y8428431D01*
X4926076Y8429752D01*
X4913426Y8429345D01*
X4900980Y8427110D01*
X4888941Y8423198D01*
X4877562Y8417661D01*
X4867097Y8410600D01*
X4857699Y8402167D01*
X4849571Y8392464D01*
X4842865Y8381746D01*
X4837734Y8370163D01*
X4834229Y8358022D01*
X4832502Y8345525D01*
X4832502Y8332876D01*
X4834229Y8320328D01*
X4837734Y8308187D01*
X4842865Y8296656D01*
X4849571Y8285937D01*
X4857699Y8276234D01*
X4867097Y8267750D01*
X4877562Y8260689D01*
X4888941Y8255152D01*
X4900980Y8251240D01*
X4913426Y8249056D01*
G37*
G36*
X5926074Y8248599D02*
G01*
X5938621Y8249920D01*
X5950915Y8253018D01*
X5962650Y8257743D01*
X5973572Y8264042D01*
X5983528Y8271814D01*
X5992317Y8280908D01*
X5999734Y8291169D01*
X6005677Y8302345D01*
X6009995Y8314181D01*
X6012637Y8326577D01*
X6013551Y8339175D01*
X6012637Y8351824D01*
X6009995Y8364169D01*
X6005677Y8376056D01*
X5999734Y8387232D01*
X5992317Y8397443D01*
X5983528Y8406536D01*
X5973572Y8414308D01*
X5962650Y8420658D01*
X5950915Y8425383D01*
X5938621Y8428431D01*
X5926074Y8429752D01*
X5913424Y8429345D01*
X5900978Y8427110D01*
X5888939Y8423198D01*
X5877560Y8417661D01*
X5867095Y8410600D01*
X5857697Y8402167D01*
X5849569Y8392464D01*
X5842863Y8381746D01*
X5837732Y8370163D01*
X5834227Y8358022D01*
X5832500Y8345525D01*
X5832500Y8332876D01*
X5834227Y8320328D01*
X5837732Y8308187D01*
X5842863Y8296656D01*
X5849569Y8285937D01*
X5857697Y8276234D01*
X5867095Y8267750D01*
X5877560Y8260689D01*
X5888939Y8255152D01*
X5900978Y8251240D01*
X5913424Y8249056D01*
G37*
G36*
X7366000Y8264906D02*
G01*
X7379614Y8265820D01*
X7393025Y8268462D01*
X7405928Y8272881D01*
X7418171Y8278926D01*
X7429550Y8286496D01*
X7439812Y8295487D01*
X7448803Y8305749D01*
X7456373Y8317128D01*
X7462418Y8329371D01*
X7466838Y8342274D01*
X7469479Y8355685D01*
X7470394Y8369300D01*
X7469479Y8382914D01*
X7466838Y8396325D01*
X7462418Y8409228D01*
X7456373Y8421471D01*
X7448803Y8432850D01*
X7439812Y8443112D01*
X7429550Y8452104D01*
X7418171Y8459673D01*
X7405928Y8465718D01*
X7393025Y8470138D01*
X7379614Y8472779D01*
X7366000Y8473694D01*
X7352385Y8472779D01*
X7338974Y8470138D01*
X7326071Y8465718D01*
X7313828Y8459673D01*
X7302449Y8452104D01*
X7292187Y8443112D01*
X7283196Y8432850D01*
X7275626Y8421471D01*
X7269581Y8409228D01*
X7265162Y8396325D01*
X7262520Y8382914D01*
X7261606Y8369300D01*
X7262520Y8355685D01*
X7265162Y8342274D01*
X7269581Y8329371D01*
X7275626Y8317128D01*
X7283196Y8305749D01*
X7292187Y8295487D01*
X7302449Y8286496D01*
X7313828Y8278926D01*
X7326071Y8272881D01*
X7338974Y8268462D01*
X7352385Y8265820D01*
G37*
G36*
X7795818Y8264906D02*
G01*
X7952181Y8264906D01*
X7958429Y8265617D01*
X7963865Y8267496D01*
X7968691Y8270544D01*
X7972755Y8274608D01*
X7975803Y8279434D01*
X7977682Y8284870D01*
X7978394Y8291118D01*
X7978394Y8447481D01*
X7977682Y8453729D01*
X7975803Y8459165D01*
X7972755Y8463991D01*
X7968691Y8468055D01*
X7963865Y8471103D01*
X7958429Y8472982D01*
X7952181Y8473694D01*
X7795818Y8473694D01*
X7789570Y8472982D01*
X7784134Y8471103D01*
X7779308Y8468055D01*
X7775244Y8463991D01*
X7772196Y8459165D01*
X7770317Y8453729D01*
X7769606Y8447481D01*
X7769606Y8291118D01*
X7770317Y8284870D01*
X7772196Y8279434D01*
X7775244Y8274608D01*
X7779308Y8270544D01*
X7784134Y8267496D01*
X7789570Y8265617D01*
G37*
G36*
X7574280Y8275726D02*
G01*
X7574280Y8323580D01*
X7526426Y8323580D01*
X7529626Y8317128D01*
X7537196Y8305749D01*
X7546187Y8295487D01*
X7556449Y8286496D01*
X7567828Y8278926D01*
G37*
G36*
X7665720Y8275726D02*
G01*
X7672171Y8278926D01*
X7683550Y8286496D01*
X7693812Y8295487D01*
X7702803Y8305749D01*
X7710373Y8317128D01*
X7713573Y8323580D01*
X7665720Y8323580D01*
G37*
G36*
X7526426Y8415020D02*
G01*
X7574280Y8415020D01*
X7574280Y8462873D01*
X7567828Y8459673D01*
X7556449Y8452104D01*
X7546187Y8443112D01*
X7537196Y8432850D01*
X7529626Y8421471D01*
G37*
G36*
X7665720Y8415020D02*
G01*
X7713573Y8415020D01*
X7710373Y8421471D01*
X7702803Y8432850D01*
X7693812Y8443112D01*
X7683550Y8452104D01*
X7672171Y8459673D01*
X7665720Y8462873D01*
G37*
G36*
X5361533Y8492083D02*
G01*
X5361533Y8545322D01*
X5297576Y8545322D01*
X5300726Y8538870D01*
X5308041Y8527948D01*
X5316728Y8518042D01*
X5326634Y8509355D01*
X5337606Y8502040D01*
X5349392Y8496198D01*
G37*
G36*
X4091533Y8492083D02*
G01*
X4091533Y8545322D01*
X4027576Y8545322D01*
X4030726Y8538870D01*
X4038041Y8527948D01*
X4046728Y8518042D01*
X4056634Y8509355D01*
X4067606Y8502040D01*
X4079392Y8496198D01*
G37*
G36*
X4214266Y8492083D02*
G01*
X4226407Y8496198D01*
X4238193Y8502040D01*
X4249166Y8509355D01*
X4259072Y8518042D01*
X4267758Y8527948D01*
X4275074Y8538870D01*
X4278223Y8545322D01*
X4214266Y8545322D01*
G37*
G36*
X5484266Y8492083D02*
G01*
X5496407Y8496198D01*
X5508193Y8502040D01*
X5519166Y8509355D01*
X5529072Y8518042D01*
X5537758Y8527948D01*
X5545074Y8538870D01*
X5548223Y8545322D01*
X5484266Y8545322D01*
G37*
G36*
X5926074Y8498636D02*
G01*
X5938621Y8499957D01*
X5950915Y8503005D01*
X5962650Y8507730D01*
X5973572Y8514080D01*
X5983528Y8521852D01*
X5992317Y8530945D01*
X5999734Y8541156D01*
X6005677Y8552332D01*
X6009995Y8564219D01*
X6012637Y8576564D01*
X6013551Y8589213D01*
X6012637Y8601811D01*
X6009995Y8614206D01*
X6005677Y8626043D01*
X5999734Y8637219D01*
X5992317Y8647480D01*
X5983528Y8656574D01*
X5973572Y8664346D01*
X5962650Y8670645D01*
X5950915Y8675370D01*
X5938621Y8678468D01*
X5926074Y8679789D01*
X5913424Y8679332D01*
X5900978Y8677148D01*
X5888939Y8673236D01*
X5877560Y8667699D01*
X5867095Y8660638D01*
X5857697Y8652154D01*
X5849569Y8642451D01*
X5842863Y8631732D01*
X5837732Y8620201D01*
X5834227Y8608060D01*
X5832500Y8595512D01*
X5832500Y8582863D01*
X5834227Y8570366D01*
X5837732Y8558225D01*
X5842863Y8546642D01*
X5849569Y8535924D01*
X5857697Y8526221D01*
X5867095Y8517788D01*
X5877560Y8510727D01*
X5888939Y8505190D01*
X5900978Y8501278D01*
X5913424Y8499043D01*
G37*
G36*
X4656074Y8498636D02*
G01*
X4668621Y8499957D01*
X4680915Y8503005D01*
X4692650Y8507730D01*
X4703572Y8514080D01*
X4713528Y8521852D01*
X4722317Y8530945D01*
X4729734Y8541156D01*
X4735677Y8552332D01*
X4739995Y8564219D01*
X4742637Y8576564D01*
X4743551Y8589213D01*
X4742637Y8601811D01*
X4739995Y8614206D01*
X4735677Y8626043D01*
X4729734Y8637219D01*
X4722317Y8647480D01*
X4713528Y8656574D01*
X4703572Y8664346D01*
X4692650Y8670645D01*
X4680915Y8675370D01*
X4668621Y8678468D01*
X4656074Y8679789D01*
X4643424Y8679332D01*
X4630978Y8677148D01*
X4618939Y8673236D01*
X4607560Y8667699D01*
X4597095Y8660638D01*
X4587697Y8652154D01*
X4579569Y8642451D01*
X4572863Y8631732D01*
X4567732Y8620201D01*
X4564227Y8608060D01*
X4562500Y8595512D01*
X4562500Y8582863D01*
X4564227Y8570366D01*
X4567732Y8558225D01*
X4572863Y8546642D01*
X4579569Y8535924D01*
X4587697Y8526221D01*
X4597095Y8517788D01*
X4607560Y8510727D01*
X4618939Y8505190D01*
X4630978Y8501278D01*
X4643424Y8499043D01*
G37*
G36*
X4926076Y8498636D02*
G01*
X4938623Y8499957D01*
X4950917Y8503005D01*
X4962652Y8507730D01*
X4973574Y8514080D01*
X4983530Y8521852D01*
X4992319Y8530945D01*
X4999736Y8541156D01*
X5005679Y8552332D01*
X5009997Y8564219D01*
X5012639Y8576564D01*
X5013553Y8589213D01*
X5012639Y8601811D01*
X5009997Y8614206D01*
X5005679Y8626043D01*
X4999736Y8637219D01*
X4992319Y8647480D01*
X4983530Y8656574D01*
X4973574Y8664346D01*
X4962652Y8670645D01*
X4950917Y8675370D01*
X4938623Y8678468D01*
X4926076Y8679789D01*
X4913426Y8679332D01*
X4900980Y8677148D01*
X4888941Y8673236D01*
X4877562Y8667699D01*
X4867097Y8660638D01*
X4857699Y8652154D01*
X4849571Y8642451D01*
X4842865Y8631732D01*
X4837734Y8620201D01*
X4834229Y8608060D01*
X4832502Y8595512D01*
X4832502Y8582863D01*
X4834229Y8570366D01*
X4837734Y8558225D01*
X4842865Y8546642D01*
X4849571Y8535924D01*
X4857699Y8526221D01*
X4867097Y8517788D01*
X4877562Y8510727D01*
X4888941Y8505190D01*
X4900980Y8501278D01*
X4913426Y8499043D01*
G37*
G36*
X3656076Y8498636D02*
G01*
X3668623Y8499957D01*
X3680917Y8503005D01*
X3692651Y8507730D01*
X3703574Y8514080D01*
X3713530Y8521852D01*
X3722319Y8530945D01*
X3729736Y8541156D01*
X3735679Y8552332D01*
X3739997Y8564219D01*
X3742639Y8576564D01*
X3743553Y8589213D01*
X3742639Y8601811D01*
X3739997Y8614206D01*
X3735679Y8626043D01*
X3729736Y8637219D01*
X3722319Y8647480D01*
X3713530Y8656574D01*
X3703574Y8664346D01*
X3692651Y8670645D01*
X3680917Y8675370D01*
X3668623Y8678468D01*
X3656076Y8679789D01*
X3643426Y8679332D01*
X3630980Y8677148D01*
X3618941Y8673236D01*
X3607562Y8667699D01*
X3597097Y8660638D01*
X3587699Y8652154D01*
X3579571Y8642451D01*
X3572865Y8631732D01*
X3567734Y8620201D01*
X3564229Y8608060D01*
X3562502Y8595512D01*
X3562502Y8582863D01*
X3564229Y8570366D01*
X3567734Y8558225D01*
X3572865Y8546642D01*
X3579571Y8535924D01*
X3587699Y8526221D01*
X3597097Y8517788D01*
X3607562Y8510727D01*
X3618941Y8505190D01*
X3630980Y8501278D01*
X3643426Y8499043D01*
G37*
G36*
X4027576Y8633053D02*
G01*
X4091533Y8633053D01*
X4091533Y8686292D01*
X4079392Y8682177D01*
X4067606Y8676335D01*
X4056634Y8669020D01*
X4046728Y8660333D01*
X4038041Y8650427D01*
X4030726Y8639505D01*
G37*
G36*
X5297576Y8633053D02*
G01*
X5361533Y8633053D01*
X5361533Y8686292D01*
X5349392Y8682177D01*
X5337606Y8676335D01*
X5326634Y8669020D01*
X5316728Y8660333D01*
X5308041Y8650427D01*
X5300726Y8639505D01*
G37*
G36*
X4214266Y8633053D02*
G01*
X4278223Y8633053D01*
X4275074Y8639505D01*
X4267758Y8650427D01*
X4259072Y8660333D01*
X4249166Y8669020D01*
X4238193Y8676335D01*
X4226407Y8682177D01*
X4214266Y8686292D01*
G37*
G36*
X5484266Y8633053D02*
G01*
X5548223Y8633053D01*
X5545074Y8639505D01*
X5537758Y8650427D01*
X5529072Y8660333D01*
X5519166Y8669020D01*
X5508193Y8676335D01*
X5496407Y8682177D01*
X5484266Y8686292D01*
G37*
G36*
X4922926Y8953550D02*
G01*
X4936032Y8954414D01*
X4948936Y8957005D01*
X4961432Y8961221D01*
X4973218Y8967012D01*
X4984140Y8974328D01*
X4994046Y8983014D01*
X5002733Y8992920D01*
X5010048Y9003893D01*
X5015890Y9015679D01*
X5020106Y9028125D01*
X5022697Y9041028D01*
X5023561Y9054541D01*
X5023561Y9123832D01*
X5022697Y9137345D01*
X5020106Y9150248D01*
X5015890Y9162694D01*
X5010048Y9174480D01*
X5002733Y9185452D01*
X4994046Y9195358D01*
X4984140Y9204045D01*
X4973218Y9211360D01*
X4961432Y9217152D01*
X4948936Y9221368D01*
X4936032Y9223959D01*
X4922926Y9224822D01*
X4909769Y9223959D01*
X4896866Y9221368D01*
X4884369Y9217152D01*
X4872583Y9211360D01*
X4861661Y9204045D01*
X4851755Y9195358D01*
X4843068Y9185452D01*
X4835753Y9174480D01*
X4829911Y9162694D01*
X4825695Y9150248D01*
X4823155Y9137345D01*
X4822240Y9123832D01*
X4822240Y9054541D01*
X4823155Y9041028D01*
X4825695Y9028125D01*
X4829911Y9015679D01*
X4835753Y9003893D01*
X4843068Y8992920D01*
X4851755Y8983014D01*
X4861661Y8974328D01*
X4872583Y8967012D01*
X4884369Y8961221D01*
X4896866Y8957005D01*
X4909769Y8954414D01*
G37*
G36*
X3902913Y8953550D02*
G01*
X3916019Y8954414D01*
X3928922Y8957005D01*
X3941419Y8961221D01*
X3953205Y8967012D01*
X3964178Y8974328D01*
X3974033Y8983014D01*
X3982720Y8992920D01*
X3990035Y9003893D01*
X3995877Y9015679D01*
X4000093Y9028125D01*
X4002684Y9041028D01*
X4003548Y9054541D01*
X4003548Y9123832D01*
X4002684Y9137345D01*
X4000093Y9150248D01*
X3995877Y9162694D01*
X3990035Y9174480D01*
X3982720Y9185452D01*
X3974033Y9195358D01*
X3964178Y9204045D01*
X3953205Y9211360D01*
X3941419Y9217152D01*
X3928922Y9221368D01*
X3916019Y9223959D01*
X3902913Y9224822D01*
X3889756Y9223959D01*
X3876852Y9221368D01*
X3864406Y9217152D01*
X3852570Y9211360D01*
X3841648Y9204045D01*
X3831742Y9195358D01*
X3823055Y9185452D01*
X3815740Y9174480D01*
X3809949Y9162694D01*
X3805682Y9150248D01*
X3803142Y9137345D01*
X3802227Y9123832D01*
X3802227Y9054541D01*
X3803142Y9041028D01*
X3805682Y9028125D01*
X3809949Y9015679D01*
X3815740Y9003893D01*
X3823055Y8992920D01*
X3831742Y8983014D01*
X3841648Y8974328D01*
X3852570Y8967012D01*
X3864406Y8961221D01*
X3876852Y8957005D01*
X3889756Y8954414D01*
G37*
G36*
X4402886Y8953550D02*
G01*
X4416044Y8954414D01*
X4428947Y8957005D01*
X4441393Y8961221D01*
X4453229Y8967012D01*
X4464151Y8974328D01*
X4474057Y8983014D01*
X4482744Y8992920D01*
X4490059Y9003893D01*
X4495850Y9015679D01*
X4500118Y9028125D01*
X4502658Y9041028D01*
X4503572Y9054541D01*
X4503572Y9123832D01*
X4502658Y9137345D01*
X4500118Y9150248D01*
X4495850Y9162694D01*
X4490059Y9174480D01*
X4482744Y9185452D01*
X4474057Y9195358D01*
X4464151Y9204045D01*
X4453229Y9211360D01*
X4441393Y9217152D01*
X4428947Y9221368D01*
X4416044Y9223959D01*
X4402886Y9224822D01*
X4389780Y9223959D01*
X4376877Y9221368D01*
X4364380Y9217152D01*
X4352594Y9211360D01*
X4341622Y9204045D01*
X4331766Y9195358D01*
X4323080Y9185452D01*
X4315764Y9174480D01*
X4309922Y9162694D01*
X4305706Y9150248D01*
X4303115Y9137345D01*
X4302252Y9123832D01*
X4302252Y9054541D01*
X4303115Y9041028D01*
X4305706Y9028125D01*
X4309922Y9015679D01*
X4315764Y9003893D01*
X4323080Y8992920D01*
X4331766Y8983014D01*
X4341622Y8974328D01*
X4352594Y8967012D01*
X4364380Y8961221D01*
X4376877Y8957005D01*
X4389780Y8954414D01*
G37*
G36*
X5922924Y8953550D02*
G01*
X5936030Y8954414D01*
X5948934Y8957005D01*
X5961430Y8961221D01*
X5973216Y8967012D01*
X5984138Y8974328D01*
X5994044Y8983014D01*
X6002731Y8992920D01*
X6010046Y9003893D01*
X6015888Y9015679D01*
X6020104Y9028125D01*
X6022695Y9041028D01*
X6023559Y9054541D01*
X6023559Y9123832D01*
X6022695Y9137345D01*
X6020104Y9150248D01*
X6015888Y9162694D01*
X6010046Y9174480D01*
X6002731Y9185452D01*
X5994044Y9195358D01*
X5984138Y9204045D01*
X5973216Y9211360D01*
X5961430Y9217152D01*
X5948934Y9221368D01*
X5936030Y9223959D01*
X5922924Y9224822D01*
X5909767Y9223959D01*
X5896864Y9221368D01*
X5884367Y9217152D01*
X5872581Y9211360D01*
X5861659Y9204045D01*
X5851753Y9195358D01*
X5843066Y9185452D01*
X5835751Y9174480D01*
X5829909Y9162694D01*
X5825693Y9150248D01*
X5823153Y9137345D01*
X5822238Y9123832D01*
X5822238Y9054541D01*
X5823153Y9041028D01*
X5825693Y9028125D01*
X5829909Y9015679D01*
X5835751Y9003893D01*
X5843066Y8992920D01*
X5851753Y8983014D01*
X5861659Y8974328D01*
X5872581Y8967012D01*
X5884367Y8961221D01*
X5896864Y8957005D01*
X5909767Y8954414D01*
G37*
G36*
X5172913Y8953550D02*
G01*
X5186019Y8954414D01*
X5198922Y8957005D01*
X5211419Y8961221D01*
X5223205Y8967012D01*
X5234178Y8974328D01*
X5244033Y8983014D01*
X5252720Y8992920D01*
X5260035Y9003893D01*
X5265877Y9015679D01*
X5270093Y9028125D01*
X5272684Y9041028D01*
X5273548Y9054541D01*
X5273548Y9123832D01*
X5272684Y9137345D01*
X5270093Y9150248D01*
X5265877Y9162694D01*
X5260035Y9174480D01*
X5252720Y9185452D01*
X5244033Y9195358D01*
X5234178Y9204045D01*
X5223205Y9211360D01*
X5211419Y9217152D01*
X5198922Y9221368D01*
X5186019Y9223959D01*
X5172913Y9224822D01*
X5159756Y9223959D01*
X5146852Y9221368D01*
X5134406Y9217152D01*
X5122570Y9211360D01*
X5111648Y9204045D01*
X5101742Y9195358D01*
X5093055Y9185452D01*
X5085740Y9174480D01*
X5079949Y9162694D01*
X5075682Y9150248D01*
X5073142Y9137345D01*
X5072227Y9123832D01*
X5072227Y9054541D01*
X5073142Y9041028D01*
X5075682Y9028125D01*
X5079949Y9015679D01*
X5085740Y9003893D01*
X5093055Y8992920D01*
X5101742Y8983014D01*
X5111648Y8974328D01*
X5122570Y8967012D01*
X5134406Y8961221D01*
X5146852Y8957005D01*
X5159756Y8954414D01*
G37*
G36*
X5672886Y8953550D02*
G01*
X5686044Y8954414D01*
X5698947Y8957005D01*
X5711393Y8961221D01*
X5723229Y8967012D01*
X5734151Y8974328D01*
X5744057Y8983014D01*
X5752744Y8992920D01*
X5760059Y9003893D01*
X5765850Y9015679D01*
X5770118Y9028125D01*
X5772658Y9041028D01*
X5773572Y9054541D01*
X5773572Y9123832D01*
X5772658Y9137345D01*
X5770118Y9150248D01*
X5765850Y9162694D01*
X5760059Y9174480D01*
X5752744Y9185452D01*
X5744057Y9195358D01*
X5734151Y9204045D01*
X5723229Y9211360D01*
X5711393Y9217152D01*
X5698947Y9221368D01*
X5686044Y9223959D01*
X5672886Y9224822D01*
X5659780Y9223959D01*
X5646877Y9221368D01*
X5634380Y9217152D01*
X5622594Y9211360D01*
X5611622Y9204045D01*
X5601766Y9195358D01*
X5593080Y9185452D01*
X5585764Y9174480D01*
X5579922Y9162694D01*
X5575706Y9150248D01*
X5573115Y9137345D01*
X5572252Y9123832D01*
X5572252Y9054541D01*
X5573115Y9041028D01*
X5575706Y9028125D01*
X5579922Y9015679D01*
X5585764Y9003893D01*
X5593080Y8992920D01*
X5601766Y8983014D01*
X5611622Y8974328D01*
X5622594Y8967012D01*
X5634380Y8961221D01*
X5646877Y8957005D01*
X5659780Y8954414D01*
G37*
G36*
X4652924Y8953550D02*
G01*
X4666030Y8954414D01*
X4678934Y8957005D01*
X4691430Y8961221D01*
X4703216Y8967012D01*
X4714138Y8974328D01*
X4724044Y8983014D01*
X4732731Y8992920D01*
X4740046Y9003893D01*
X4745888Y9015679D01*
X4750104Y9028125D01*
X4752695Y9041028D01*
X4753559Y9054541D01*
X4753559Y9123832D01*
X4752695Y9137345D01*
X4750104Y9150248D01*
X4745888Y9162694D01*
X4740046Y9174480D01*
X4732731Y9185452D01*
X4724044Y9195358D01*
X4714138Y9204045D01*
X4703216Y9211360D01*
X4691430Y9217152D01*
X4678934Y9221368D01*
X4666030Y9223959D01*
X4652924Y9224822D01*
X4639767Y9223959D01*
X4626864Y9221368D01*
X4614367Y9217152D01*
X4602581Y9211360D01*
X4591659Y9204045D01*
X4581753Y9195358D01*
X4573066Y9185452D01*
X4565751Y9174480D01*
X4559909Y9162694D01*
X4555693Y9150248D01*
X4553153Y9137345D01*
X4552238Y9123832D01*
X4552238Y9054541D01*
X4553153Y9041028D01*
X4555693Y9028125D01*
X4559909Y9015679D01*
X4565751Y9003893D01*
X4573066Y8992920D01*
X4581753Y8983014D01*
X4591659Y8974328D01*
X4602581Y8967012D01*
X4614367Y8961221D01*
X4626864Y8957005D01*
X4639767Y8954414D01*
G37*
G36*
X3652875Y8953550D02*
G01*
X3666032Y8954414D01*
X3678936Y8957005D01*
X3691432Y8961221D01*
X3703218Y8967012D01*
X3714140Y8974328D01*
X3724046Y8983014D01*
X3732733Y8992920D01*
X3740048Y9003893D01*
X3745890Y9015679D01*
X3750106Y9028125D01*
X3752697Y9041028D01*
X3753561Y9054541D01*
X3753561Y9123832D01*
X3752697Y9137345D01*
X3750106Y9150248D01*
X3745890Y9162694D01*
X3740048Y9174480D01*
X3732733Y9185452D01*
X3724046Y9195358D01*
X3714140Y9204045D01*
X3703218Y9211360D01*
X3691432Y9217152D01*
X3678936Y9221368D01*
X3666032Y9223959D01*
X3652875Y9224822D01*
X3639769Y9223959D01*
X3626865Y9221368D01*
X3614369Y9217152D01*
X3602583Y9211360D01*
X3591661Y9204045D01*
X3581755Y9195358D01*
X3573068Y9185452D01*
X3565753Y9174480D01*
X3559911Y9162694D01*
X3555695Y9150248D01*
X3553104Y9137345D01*
X3552240Y9123832D01*
X3552240Y9054541D01*
X3553104Y9041028D01*
X3555695Y9028125D01*
X3559911Y9015679D01*
X3565753Y9003893D01*
X3573068Y8992920D01*
X3581755Y8983014D01*
X3591661Y8974328D01*
X3602583Y8967012D01*
X3614369Y8961221D01*
X3626865Y8957005D01*
X3639769Y8954414D01*
G37*
G36*
X5426049Y8998610D02*
G01*
X5438648Y8999931D01*
X5450890Y9003030D01*
X5462625Y9007754D01*
X5473598Y9014053D01*
X5483555Y9021826D01*
X5492343Y9030919D01*
X5499760Y9041180D01*
X5505704Y9052356D01*
X5510022Y9064193D01*
X5512663Y9076588D01*
X5513527Y9089186D01*
X5512663Y9101836D01*
X5510022Y9114180D01*
X5505704Y9126067D01*
X5499760Y9137243D01*
X5492343Y9147454D01*
X5483555Y9156547D01*
X5473598Y9164320D01*
X5462625Y9170670D01*
X5450890Y9175394D01*
X5438648Y9178442D01*
X5426049Y9179763D01*
X5413451Y9179356D01*
X5400954Y9177121D01*
X5388965Y9173210D01*
X5377586Y9167672D01*
X5367121Y9160611D01*
X5357723Y9152178D01*
X5349595Y9142476D01*
X5342890Y9131757D01*
X5337759Y9120174D01*
X5334254Y9108033D01*
X5332476Y9095536D01*
X5332476Y9082887D01*
X5334254Y9070340D01*
X5337759Y9058198D01*
X5342890Y9046667D01*
X5349595Y9035948D01*
X5357723Y9026245D01*
X5367121Y9017762D01*
X5377586Y9010700D01*
X5388965Y9005163D01*
X5400954Y9001252D01*
X5413451Y8999067D01*
G37*
G36*
X4156049Y8998610D02*
G01*
X4168648Y8999931D01*
X4180890Y9003030D01*
X4192625Y9007754D01*
X4203598Y9014053D01*
X4213555Y9021826D01*
X4222343Y9030919D01*
X4229760Y9041180D01*
X4235704Y9052356D01*
X4240022Y9064193D01*
X4242663Y9076588D01*
X4243527Y9089186D01*
X4242663Y9101836D01*
X4240022Y9114180D01*
X4235704Y9126067D01*
X4229760Y9137243D01*
X4222343Y9147454D01*
X4213555Y9156547D01*
X4203598Y9164320D01*
X4192625Y9170670D01*
X4180890Y9175394D01*
X4168648Y9178442D01*
X4156049Y9179763D01*
X4143451Y9179356D01*
X4130954Y9177121D01*
X4118965Y9173210D01*
X4107586Y9167672D01*
X4097121Y9160611D01*
X4087723Y9152178D01*
X4079595Y9142476D01*
X4072890Y9131757D01*
X4067759Y9120174D01*
X4064254Y9108033D01*
X4062476Y9095536D01*
X4062476Y9082887D01*
X4064254Y9070340D01*
X4067759Y9058198D01*
X4072890Y9046667D01*
X4079595Y9035948D01*
X4087723Y9026245D01*
X4097121Y9017762D01*
X4107586Y9010700D01*
X4118965Y9005163D01*
X4130954Y9001252D01*
X4143451Y8999067D01*
G37*
G36*
X5283200Y10060686D02*
G01*
X5295544Y10061549D01*
X5307584Y10064191D01*
X5319166Y10068509D01*
X5330037Y10074402D01*
X5339943Y10081818D01*
X5348681Y10090556D01*
X5356098Y10100462D01*
X5361990Y10111333D01*
X5366308Y10122916D01*
X5368950Y10134955D01*
X5369814Y10147300D01*
X5368950Y10159644D01*
X5366308Y10171684D01*
X5361990Y10183266D01*
X5356098Y10194137D01*
X5348681Y10204043D01*
X5339943Y10212781D01*
X5330037Y10220198D01*
X5319166Y10226090D01*
X5307584Y10230408D01*
X5295544Y10233050D01*
X5283200Y10233914D01*
X5270855Y10233050D01*
X5258816Y10230408D01*
X5247233Y10226090D01*
X5236362Y10220198D01*
X5226456Y10212781D01*
X5217718Y10204043D01*
X5214264Y10200233D01*
X5211470Y10198811D01*
X5208371Y10198354D01*
X4565751Y10198354D01*
X4561840Y10199166D01*
X4558487Y10201402D01*
X4556302Y10204754D01*
X4555591Y10208717D01*
X4556455Y10212628D01*
X4558792Y10215930D01*
X4562195Y10218013D01*
X4569866Y10220909D01*
X4580737Y10226802D01*
X4590643Y10234218D01*
X4599381Y10242956D01*
X4606798Y10252862D01*
X4612690Y10263733D01*
X4617008Y10275316D01*
X4619650Y10287355D01*
X4620514Y10299700D01*
X4619650Y10312044D01*
X4617008Y10324084D01*
X4612690Y10335666D01*
X4606798Y10346537D01*
X4599381Y10356443D01*
X4590643Y10365181D01*
X4586935Y10368534D01*
X4585512Y10371328D01*
X4585055Y10374426D01*
X4585309Y10595559D01*
X4586122Y10599420D01*
X4588306Y10602722D01*
X4624933Y10639348D01*
X4628235Y10641584D01*
X4632147Y10642346D01*
X5626150Y10642346D01*
X5630011Y10641584D01*
X5633313Y10639348D01*
X6161328Y10111333D01*
X6164783Y10108184D01*
X6168339Y10105491D01*
X6172098Y10103104D01*
X6176010Y10101021D01*
X6180124Y10099344D01*
X6184392Y10097973D01*
X6188760Y10097008D01*
X6193129Y10096449D01*
X6197803Y10096246D01*
X8788196Y10096246D01*
X8792870Y10096449D01*
X8797239Y10097008D01*
X8801608Y10097973D01*
X8805875Y10099344D01*
X8809990Y10101021D01*
X8813901Y10103104D01*
X8817660Y10105491D01*
X8821216Y10108184D01*
X8824671Y10111333D01*
X8925966Y10212628D01*
X8929116Y10216083D01*
X8931808Y10219639D01*
X8934196Y10223398D01*
X8936278Y10227310D01*
X8937955Y10231424D01*
X8939326Y10235692D01*
X8940292Y10240060D01*
X8940850Y10244429D01*
X8941054Y10249103D01*
X8941054Y10293197D01*
X8941816Y10297058D01*
X8944051Y10300360D01*
X8947302Y10302595D01*
X8951214Y10303357D01*
X8974429Y10303357D01*
X8980678Y10304068D01*
X8986113Y10305948D01*
X8990939Y10308996D01*
X8995003Y10313060D01*
X8998051Y10317886D01*
X8999931Y10323322D01*
X9000642Y10329570D01*
X9000642Y10498429D01*
X8999931Y10504678D01*
X8998051Y10510113D01*
X8995003Y10514939D01*
X8990939Y10519003D01*
X8986113Y10522051D01*
X8980678Y10523931D01*
X8974429Y10524642D01*
X8951214Y10524642D01*
X8947302Y10525404D01*
X8944051Y10527639D01*
X8941816Y10530941D01*
X8941054Y10534802D01*
X8941054Y10828477D01*
X8941562Y10831677D01*
X8943086Y10834573D01*
X8945473Y10836859D01*
X8953093Y10842091D01*
X8963202Y10851184D01*
X8971991Y10861598D01*
X8979306Y10873079D01*
X8985046Y10885424D01*
X8989060Y10898378D01*
X8991295Y10911789D01*
X8991752Y10925403D01*
X8990431Y10938916D01*
X8987282Y10952175D01*
X8982354Y10964875D01*
X8975852Y10976813D01*
X8967774Y10987735D01*
X8958326Y10997539D01*
X8947607Y11005972D01*
X8935923Y11012881D01*
X8923426Y11018215D01*
X8910269Y11021771D01*
X8896807Y11023600D01*
X8883192Y11023600D01*
X8869730Y11021771D01*
X8856573Y11018215D01*
X8844076Y11012881D01*
X8832392Y11005972D01*
X8821674Y10997539D01*
X8812225Y10987735D01*
X8804148Y10976813D01*
X8797645Y10964875D01*
X8792718Y10952175D01*
X8789568Y10938916D01*
X8788247Y10925403D01*
X8788704Y10911789D01*
X8790940Y10898378D01*
X8794953Y10885424D01*
X8800693Y10873079D01*
X8808008Y10861598D01*
X8816797Y10851184D01*
X8826906Y10842091D01*
X8834526Y10836859D01*
X8836914Y10834573D01*
X8838438Y10831677D01*
X8838946Y10828477D01*
X8838946Y10534802D01*
X8838184Y10530941D01*
X8835948Y10527639D01*
X8832697Y10525404D01*
X8828786Y10524642D01*
X8805570Y10524642D01*
X8799322Y10523931D01*
X8793886Y10522051D01*
X8789060Y10519003D01*
X8784996Y10514939D01*
X8781948Y10510113D01*
X8780068Y10504678D01*
X8779357Y10498429D01*
X8779357Y10329570D01*
X8780068Y10323322D01*
X8781948Y10317886D01*
X8784996Y10313060D01*
X8789060Y10308996D01*
X8793886Y10305948D01*
X8799322Y10304068D01*
X8805570Y10303357D01*
X8828786Y10303357D01*
X8832697Y10302595D01*
X8835948Y10300360D01*
X8838184Y10297058D01*
X8838946Y10293197D01*
X8838946Y10274249D01*
X8838184Y10270388D01*
X8835948Y10267086D01*
X8770213Y10201351D01*
X8766911Y10199116D01*
X8763050Y10198354D01*
X6222949Y10198354D01*
X6219088Y10199116D01*
X6215786Y10201351D01*
X5687771Y10729366D01*
X5684316Y10732516D01*
X5680760Y10735208D01*
X5677001Y10737596D01*
X5673090Y10739678D01*
X5668975Y10741355D01*
X5664708Y10742726D01*
X5660339Y10743692D01*
X5655970Y10744250D01*
X5651296Y10744454D01*
X3378403Y10744454D01*
X3373678Y10744250D01*
X3369360Y10743692D01*
X3364890Y10742676D01*
X3360724Y10741355D01*
X3356559Y10739628D01*
X3352698Y10737596D01*
X3348837Y10735157D01*
X3345383Y10732516D01*
X3341878Y10729264D01*
X3265982Y10653115D01*
X3262884Y10649762D01*
X3260140Y10646156D01*
X3257803Y10642498D01*
X3255721Y10638434D01*
X3254044Y10634421D01*
X3252673Y10630052D01*
X3251708Y10625836D01*
X3251149Y10621314D01*
X3250946Y10616742D01*
X3250946Y10535107D01*
X3250234Y10531297D01*
X3248101Y10528096D01*
X3230626Y10517378D01*
X3218688Y10508030D01*
X3207969Y10497312D01*
X3198622Y10485374D01*
X3192526Y10475264D01*
X3189478Y10472115D01*
X3185464Y10470489D01*
X3181096Y10470743D01*
X3177235Y10472826D01*
X3174593Y10476280D01*
X3173679Y10480548D01*
X3173679Y10513415D01*
X3172968Y10519714D01*
X3171037Y10525099D01*
X3167989Y10529976D01*
X3163976Y10533989D01*
X3159099Y10537037D01*
X3153714Y10538968D01*
X3147415Y10539628D01*
X3104337Y10539628D01*
X3104337Y10470337D01*
X3174390Y10470337D01*
X3178098Y10469626D01*
X3181299Y10467644D01*
X3183534Y10464596D01*
X3184550Y10460939D01*
X3184093Y10457180D01*
X3180029Y10444073D01*
X3177286Y10429138D01*
X3176371Y10414000D01*
X3177286Y10398861D01*
X3180029Y10383926D01*
X3184093Y10370820D01*
X3184550Y10367060D01*
X3183534Y10363403D01*
X3181299Y10360355D01*
X3178098Y10358374D01*
X3174390Y10357662D01*
X3104337Y10357662D01*
X3104337Y10288320D01*
X3147415Y10288320D01*
X3153714Y10289032D01*
X3159099Y10290962D01*
X3163976Y10294010D01*
X3167989Y10298023D01*
X3171037Y10302900D01*
X3172968Y10308285D01*
X3173679Y10314584D01*
X3173679Y10347452D01*
X3174593Y10351719D01*
X3177235Y10355173D01*
X3181096Y10357256D01*
X3185464Y10357510D01*
X3189478Y10355884D01*
X3192526Y10352735D01*
X3198622Y10342626D01*
X3207969Y10330688D01*
X3218688Y10319969D01*
X3230626Y10310622D01*
X3243630Y10302748D01*
X3257448Y10296550D01*
X3271926Y10292029D01*
X3286861Y10289286D01*
X3302000Y10288371D01*
X3317138Y10289286D01*
X3332073Y10292029D01*
X3346551Y10296550D01*
X3360369Y10302748D01*
X3373374Y10310622D01*
X3385312Y10319969D01*
X3396030Y10330688D01*
X3405378Y10342626D01*
X3413251Y10355630D01*
X3419449Y10369448D01*
X3423970Y10383926D01*
X3426714Y10398861D01*
X3427628Y10414000D01*
X3426714Y10429138D01*
X3423970Y10444073D01*
X3419449Y10458551D01*
X3413251Y10472369D01*
X3405378Y10485374D01*
X3396030Y10497312D01*
X3385312Y10508030D01*
X3373374Y10517378D01*
X3355898Y10528096D01*
X3353765Y10531297D01*
X3353054Y10535107D01*
X3353054Y10591647D01*
X3353815Y10595508D01*
X3356000Y10598810D01*
X3396437Y10639348D01*
X3399739Y10641584D01*
X3403600Y10642346D01*
X4437583Y10642346D01*
X4441494Y10641533D01*
X4444796Y10639298D01*
X4480306Y10603179D01*
X4482490Y10599877D01*
X4483201Y10596016D01*
X4482947Y10374579D01*
X4482439Y10371480D01*
X4481068Y10368686D01*
X4477156Y10365181D01*
X4468418Y10356443D01*
X4461002Y10346537D01*
X4455109Y10335666D01*
X4450791Y10324084D01*
X4448149Y10312044D01*
X4447641Y10304983D01*
X4446422Y10300868D01*
X4443628Y10297617D01*
X4439666Y10295788D01*
X4435348Y10295788D01*
X4431944Y10296550D01*
X4419600Y10297414D01*
X4407255Y10296550D01*
X4395216Y10293908D01*
X4383633Y10289590D01*
X4372762Y10283698D01*
X4362856Y10276281D01*
X4354118Y10267543D01*
X4346702Y10257637D01*
X4340809Y10246766D01*
X4336491Y10235184D01*
X4333849Y10223144D01*
X4332986Y10210800D01*
X4333849Y10198455D01*
X4336491Y10186416D01*
X4340809Y10174833D01*
X4346702Y10163962D01*
X4354118Y10154056D01*
X4362856Y10145318D01*
X4372762Y10137902D01*
X4383633Y10132009D01*
X4395216Y10127691D01*
X4407255Y10125049D01*
X4419600Y10124186D01*
X4428439Y10124795D01*
X4432706Y10124186D01*
X4436364Y10121849D01*
X4446828Y10111333D01*
X4450283Y10108184D01*
X4453839Y10105491D01*
X4457598Y10103104D01*
X4461510Y10101021D01*
X4465624Y10099344D01*
X4469892Y10097973D01*
X4474260Y10097008D01*
X4478629Y10096449D01*
X4483303Y10096246D01*
X5208371Y10096246D01*
X5211470Y10095788D01*
X5214264Y10094366D01*
X5217718Y10090556D01*
X5226456Y10081818D01*
X5236362Y10074402D01*
X5247233Y10068509D01*
X5258816Y10064191D01*
X5270855Y10061549D01*
G37*
G36*
X2948584Y10288320D02*
G01*
X2991662Y10288320D01*
X2991662Y10357662D01*
X2922371Y10357662D01*
X2922371Y10314584D01*
X2923032Y10308285D01*
X2924962Y10302900D01*
X2928010Y10298023D01*
X2932023Y10294010D01*
X2936900Y10290962D01*
X2942285Y10289032D01*
G37*
G36*
X7366000Y10303357D02*
G01*
X7380122Y10304272D01*
X7394041Y10306964D01*
X7407503Y10311434D01*
X7420305Y10317581D01*
X7432192Y10325354D01*
X7442962Y10334548D01*
X7452512Y10345013D01*
X7460589Y10356646D01*
X7467142Y10369194D01*
X7472070Y10382504D01*
X7475220Y10396321D01*
X7476591Y10410444D01*
X7476134Y10424617D01*
X7473848Y10438638D01*
X7469835Y10452201D01*
X7464094Y10465155D01*
X7456728Y10477296D01*
X7447889Y10488371D01*
X7437729Y10498226D01*
X7426350Y10506710D01*
X7414006Y10513669D01*
X7400848Y10519003D01*
X7387132Y10522610D01*
X7373112Y10524388D01*
X7358888Y10524388D01*
X7344867Y10522610D01*
X7331151Y10519003D01*
X7317994Y10513669D01*
X7305649Y10506710D01*
X7294270Y10498226D01*
X7284110Y10488371D01*
X7275271Y10477296D01*
X7267905Y10465155D01*
X7262164Y10452201D01*
X7258151Y10438638D01*
X7255865Y10424617D01*
X7255408Y10410444D01*
X7256780Y10396321D01*
X7259929Y10382504D01*
X7264857Y10369194D01*
X7271410Y10356646D01*
X7279487Y10345013D01*
X7289038Y10334548D01*
X7299807Y10325354D01*
X7311694Y10317581D01*
X7324496Y10311434D01*
X7337958Y10306964D01*
X7351877Y10304272D01*
G37*
G36*
X8636000Y10303357D02*
G01*
X8650122Y10304272D01*
X8664041Y10306964D01*
X8677503Y10311434D01*
X8690305Y10317581D01*
X8702192Y10325354D01*
X8712962Y10334548D01*
X8722512Y10345013D01*
X8730589Y10356646D01*
X8737142Y10369194D01*
X8742070Y10382504D01*
X8745220Y10396321D01*
X8746591Y10410444D01*
X8746134Y10424617D01*
X8743848Y10438638D01*
X8739835Y10452201D01*
X8734094Y10465155D01*
X8726728Y10477296D01*
X8717889Y10488371D01*
X8707729Y10498226D01*
X8696350Y10506710D01*
X8684006Y10513669D01*
X8670848Y10519003D01*
X8657132Y10522610D01*
X8643112Y10524388D01*
X8628888Y10524388D01*
X8614867Y10522610D01*
X8601151Y10519003D01*
X8587994Y10513669D01*
X8575649Y10506710D01*
X8564270Y10498226D01*
X8554110Y10488371D01*
X8545271Y10477296D01*
X8537905Y10465155D01*
X8532164Y10452201D01*
X8528151Y10438638D01*
X8525865Y10424617D01*
X8525408Y10410444D01*
X8526780Y10396321D01*
X8529929Y10382504D01*
X8534857Y10369194D01*
X8541410Y10356646D01*
X8549487Y10345013D01*
X8559038Y10334548D01*
X8569807Y10325354D01*
X8581694Y10317581D01*
X8594496Y10311434D01*
X8607958Y10306964D01*
X8621877Y10304272D01*
G37*
G36*
X6350000Y10303357D02*
G01*
X6364122Y10304272D01*
X6378041Y10306964D01*
X6391503Y10311434D01*
X6404305Y10317581D01*
X6416192Y10325354D01*
X6426962Y10334548D01*
X6436512Y10345013D01*
X6444589Y10356646D01*
X6451142Y10369194D01*
X6456070Y10382504D01*
X6459220Y10396321D01*
X6460591Y10410444D01*
X6460134Y10424617D01*
X6457848Y10438638D01*
X6453835Y10452201D01*
X6448094Y10465155D01*
X6440728Y10477296D01*
X6431889Y10488371D01*
X6421729Y10498226D01*
X6410350Y10506710D01*
X6398006Y10513669D01*
X6384848Y10519003D01*
X6371132Y10522610D01*
X6357112Y10524388D01*
X6342888Y10524388D01*
X6328867Y10522610D01*
X6315151Y10519003D01*
X6301994Y10513669D01*
X6289649Y10506710D01*
X6278270Y10498226D01*
X6268110Y10488371D01*
X6259271Y10477296D01*
X6251905Y10465155D01*
X6246164Y10452201D01*
X6242151Y10438638D01*
X6239865Y10424617D01*
X6239408Y10410444D01*
X6240780Y10396321D01*
X6243929Y10382504D01*
X6248857Y10369194D01*
X6255410Y10356646D01*
X6263487Y10345013D01*
X6273038Y10334548D01*
X6283807Y10325354D01*
X6295694Y10317581D01*
X6308496Y10311434D01*
X6321958Y10306964D01*
X6335877Y10304272D01*
G37*
G36*
X6858000Y10303357D02*
G01*
X6872122Y10304272D01*
X6886041Y10306964D01*
X6899503Y10311434D01*
X6912305Y10317581D01*
X6924192Y10325354D01*
X6934962Y10334548D01*
X6944512Y10345013D01*
X6952589Y10356646D01*
X6959142Y10369194D01*
X6964070Y10382504D01*
X6967220Y10396321D01*
X6968591Y10410444D01*
X6968134Y10424617D01*
X6965848Y10438638D01*
X6961835Y10452201D01*
X6956094Y10465155D01*
X6949592Y10475874D01*
X6948220Y10479836D01*
X6948525Y10484002D01*
X6950506Y10487660D01*
X6953808Y10490250D01*
X6957822Y10491317D01*
X6961987Y10490606D01*
X6965492Y10488320D01*
X7002373Y10451388D01*
X7004456Y10448442D01*
X7005320Y10444937D01*
X7004964Y10441330D01*
X7004151Y10438638D01*
X7001865Y10424617D01*
X7001408Y10410444D01*
X7002780Y10396321D01*
X7005929Y10382504D01*
X7010857Y10369194D01*
X7017410Y10356646D01*
X7025487Y10345013D01*
X7035038Y10334548D01*
X7045807Y10325354D01*
X7057694Y10317581D01*
X7070496Y10311434D01*
X7083958Y10306964D01*
X7097877Y10304272D01*
X7112000Y10303357D01*
X7126122Y10304272D01*
X7140041Y10306964D01*
X7153503Y10311434D01*
X7166305Y10317581D01*
X7178192Y10325354D01*
X7188962Y10334548D01*
X7198512Y10345013D01*
X7206589Y10356646D01*
X7213142Y10369194D01*
X7218070Y10382504D01*
X7221220Y10396321D01*
X7222591Y10410444D01*
X7222134Y10424617D01*
X7219848Y10438638D01*
X7215835Y10452201D01*
X7210094Y10465155D01*
X7202728Y10477296D01*
X7193889Y10488371D01*
X7183729Y10498226D01*
X7172350Y10506710D01*
X7160006Y10513669D01*
X7146848Y10519003D01*
X7133132Y10522610D01*
X7119112Y10524388D01*
X7104888Y10524388D01*
X7090867Y10522610D01*
X7084415Y10520883D01*
X7080910Y10520629D01*
X7077506Y10521543D01*
X7074662Y10523524D01*
X6785051Y10813186D01*
X6782816Y10816488D01*
X6782053Y10820349D01*
X6782053Y10831576D01*
X6783019Y10835894D01*
X6785660Y10839348D01*
X6789521Y10841380D01*
X6793890Y10841634D01*
X6797954Y10839958D01*
X6806082Y10834370D01*
X6818223Y10828274D01*
X6831075Y10823803D01*
X6844436Y10821060D01*
X6858000Y10820146D01*
X6871563Y10821060D01*
X6884924Y10823803D01*
X6897776Y10828274D01*
X6909917Y10834370D01*
X6921093Y10842091D01*
X6931202Y10851184D01*
X6939991Y10861598D01*
X6947306Y10873079D01*
X6953046Y10885424D01*
X6957059Y10898378D01*
X6959295Y10911789D01*
X6959752Y10925403D01*
X6958431Y10938916D01*
X6955281Y10952175D01*
X6950354Y10964875D01*
X6943852Y10976813D01*
X6935774Y10987735D01*
X6926325Y10997539D01*
X6915607Y11005972D01*
X6903923Y11012881D01*
X6891426Y11018215D01*
X6878269Y11021771D01*
X6864807Y11023600D01*
X6851192Y11023600D01*
X6837730Y11021771D01*
X6824573Y11018215D01*
X6812076Y11012881D01*
X6800392Y11005972D01*
X6798513Y11004499D01*
X6794449Y11002568D01*
X6789928Y11002568D01*
X6785864Y11004550D01*
X6783070Y11008055D01*
X6782053Y11012474D01*
X6782053Y12293650D01*
X6782816Y12297511D01*
X6785051Y12300813D01*
X6827977Y12343790D01*
X6830669Y12345720D01*
X6833870Y12346686D01*
X6837172Y12346533D01*
X6844436Y12345060D01*
X6858000Y12344146D01*
X6871563Y12345060D01*
X6884924Y12347803D01*
X6897776Y12352274D01*
X6909917Y12358370D01*
X6921093Y12366091D01*
X6931202Y12375184D01*
X6939991Y12385598D01*
X6947306Y12397079D01*
X6953046Y12409424D01*
X6957059Y12422378D01*
X6959295Y12435789D01*
X6959752Y12449403D01*
X6958431Y12462916D01*
X6955281Y12476175D01*
X6950354Y12488875D01*
X6943852Y12500813D01*
X6935774Y12511735D01*
X6926325Y12521539D01*
X6915607Y12529972D01*
X6903923Y12536881D01*
X6891426Y12542215D01*
X6878269Y12545771D01*
X6864807Y12547600D01*
X6851192Y12547600D01*
X6837730Y12545771D01*
X6824573Y12542215D01*
X6812076Y12536881D01*
X6800392Y12529972D01*
X6789674Y12521539D01*
X6780225Y12511735D01*
X6772148Y12500813D01*
X6765645Y12488875D01*
X6760718Y12476175D01*
X6757568Y12462916D01*
X6756247Y12449403D01*
X6756704Y12435789D01*
X6758533Y12424765D01*
X6758584Y12421565D01*
X6757568Y12418517D01*
X6755688Y12415926D01*
X6695033Y12355271D01*
X6691884Y12351816D01*
X6689191Y12348260D01*
X6686803Y12344501D01*
X6684721Y12340590D01*
X6683044Y12336475D01*
X6681673Y12332208D01*
X6680708Y12327839D01*
X6680149Y12323470D01*
X6679946Y12318796D01*
X6679946Y11012474D01*
X6678930Y11008055D01*
X6676136Y11004550D01*
X6672072Y11002568D01*
X6667550Y11002568D01*
X6663486Y11004499D01*
X6661607Y11005972D01*
X6649923Y11012881D01*
X6637426Y11018215D01*
X6624269Y11021771D01*
X6610807Y11023600D01*
X6597192Y11023600D01*
X6583730Y11021771D01*
X6570573Y11018215D01*
X6558076Y11012881D01*
X6546392Y11005972D01*
X6535674Y10997539D01*
X6526225Y10987735D01*
X6518148Y10976813D01*
X6511645Y10964875D01*
X6506718Y10952175D01*
X6503568Y10938916D01*
X6502247Y10925403D01*
X6502704Y10911789D01*
X6504940Y10898378D01*
X6508953Y10885424D01*
X6514693Y10873079D01*
X6522008Y10861598D01*
X6530797Y10851184D01*
X6540906Y10842091D01*
X6552082Y10834370D01*
X6564223Y10828274D01*
X6577075Y10823803D01*
X6590436Y10821060D01*
X6604000Y10820146D01*
X6617563Y10821060D01*
X6630924Y10823803D01*
X6643776Y10828274D01*
X6655917Y10834370D01*
X6664045Y10839958D01*
X6668109Y10841634D01*
X6672478Y10841380D01*
X6676339Y10839348D01*
X6678980Y10835894D01*
X6679946Y10831576D01*
X6679946Y10795203D01*
X6680149Y10790529D01*
X6680708Y10786160D01*
X6681673Y10781792D01*
X6683044Y10777524D01*
X6684721Y10773410D01*
X6686803Y10769498D01*
X6689191Y10765739D01*
X6691884Y10762183D01*
X6695033Y10758728D01*
X6932168Y10521645D01*
X6934504Y10517987D01*
X6935114Y10513720D01*
X6933895Y10509605D01*
X6931050Y10506354D01*
X6927138Y10504525D01*
X6922820Y10504525D01*
X6918350Y10506710D01*
X6906006Y10513669D01*
X6892848Y10519003D01*
X6879132Y10522610D01*
X6865112Y10524388D01*
X6850888Y10524388D01*
X6836867Y10522610D01*
X6823151Y10519003D01*
X6809994Y10513669D01*
X6797649Y10506710D01*
X6786270Y10498226D01*
X6776110Y10488371D01*
X6767271Y10477296D01*
X6759905Y10465155D01*
X6754164Y10452201D01*
X6750151Y10438638D01*
X6747865Y10424617D01*
X6747408Y10410444D01*
X6748780Y10396321D01*
X6751929Y10382504D01*
X6756857Y10369194D01*
X6763410Y10356646D01*
X6771487Y10345013D01*
X6781038Y10334548D01*
X6791807Y10325354D01*
X6803694Y10317581D01*
X6816496Y10311434D01*
X6829958Y10306964D01*
X6843877Y10304272D01*
G37*
G36*
X7668869Y10314990D02*
G01*
X7674305Y10317581D01*
X7686192Y10325354D01*
X7696962Y10334548D01*
X7706512Y10345013D01*
X7714589Y10356646D01*
X7719059Y10365130D01*
X7668869Y10365130D01*
G37*
G36*
X8176869Y10314990D02*
G01*
X8182305Y10317581D01*
X8194192Y10325354D01*
X8204962Y10334548D01*
X8214512Y10345013D01*
X8222589Y10356646D01*
X8227059Y10365130D01*
X8176869Y10365130D01*
G37*
G36*
X8430869Y10314990D02*
G01*
X8436305Y10317581D01*
X8448192Y10325354D01*
X8458962Y10334548D01*
X8468512Y10345013D01*
X8476589Y10356646D01*
X8481060Y10365130D01*
X8430869Y10365130D01*
G37*
G36*
X7825130Y10314990D02*
G01*
X7825130Y10365130D01*
X7774940Y10365130D01*
X7779410Y10356646D01*
X7787487Y10345013D01*
X7797038Y10334548D01*
X7807807Y10325354D01*
X7819694Y10317581D01*
G37*
G36*
X7571130Y10314990D02*
G01*
X7571130Y10365130D01*
X7520940Y10365130D01*
X7525410Y10356646D01*
X7533487Y10345013D01*
X7543038Y10334548D01*
X7553807Y10325354D01*
X7565694Y10317581D01*
G37*
G36*
X8079130Y10314990D02*
G01*
X8079130Y10365130D01*
X8028940Y10365130D01*
X8033410Y10356646D01*
X8041487Y10345013D01*
X8051038Y10334548D01*
X8061807Y10325354D01*
X8073694Y10317581D01*
G37*
G36*
X8333130Y10314990D02*
G01*
X8333130Y10365130D01*
X8282940Y10365130D01*
X8287410Y10356646D01*
X8295487Y10345013D01*
X8305038Y10334548D01*
X8315807Y10325354D01*
X8327694Y10317581D01*
G37*
G36*
X7922869Y10314990D02*
G01*
X7928305Y10317581D01*
X7940192Y10325354D01*
X7950962Y10334548D01*
X7960512Y10345013D01*
X7968589Y10356646D01*
X7973059Y10365130D01*
X7922869Y10365130D01*
G37*
G36*
X6555130Y10314990D02*
G01*
X6555130Y10365130D01*
X6504940Y10365130D01*
X6509410Y10356646D01*
X6517487Y10345013D01*
X6527038Y10334548D01*
X6537807Y10325354D01*
X6549694Y10317581D01*
G37*
G36*
X6652869Y10314990D02*
G01*
X6658305Y10317581D01*
X6670192Y10325354D01*
X6680962Y10334548D01*
X6690512Y10345013D01*
X6698589Y10356646D01*
X6703059Y10365130D01*
X6652869Y10365130D01*
G37*
G36*
X8430869Y10462869D02*
G01*
X8481110Y10462869D01*
X8480094Y10465155D01*
X8472728Y10477296D01*
X8463889Y10488371D01*
X8453729Y10498226D01*
X8442350Y10506710D01*
X8430869Y10513212D01*
G37*
G36*
X8176869Y10462869D02*
G01*
X8227110Y10462869D01*
X8226094Y10465155D01*
X8218728Y10477296D01*
X8209889Y10488371D01*
X8199729Y10498226D01*
X8188350Y10506710D01*
X8176869Y10513212D01*
G37*
G36*
X8282889Y10462869D02*
G01*
X8333130Y10462869D01*
X8333130Y10513212D01*
X8321649Y10506710D01*
X8310270Y10498226D01*
X8300110Y10488371D01*
X8291271Y10477296D01*
X8283905Y10465155D01*
G37*
G36*
X7774889Y10462869D02*
G01*
X7825130Y10462869D01*
X7825130Y10513212D01*
X7813649Y10506710D01*
X7802270Y10498226D01*
X7792110Y10488371D01*
X7783271Y10477296D01*
X7775905Y10465155D01*
G37*
G36*
X7668869Y10462869D02*
G01*
X7719110Y10462869D01*
X7718094Y10465155D01*
X7710728Y10477296D01*
X7701889Y10488371D01*
X7691729Y10498226D01*
X7680350Y10506710D01*
X7668869Y10513212D01*
G37*
G36*
X8028889Y10462869D02*
G01*
X8079130Y10462869D01*
X8079130Y10513212D01*
X8067649Y10506710D01*
X8056270Y10498226D01*
X8046110Y10488371D01*
X8037271Y10477296D01*
X8029905Y10465155D01*
G37*
G36*
X6504889Y10462869D02*
G01*
X6555130Y10462869D01*
X6555130Y10513212D01*
X6543649Y10506710D01*
X6532270Y10498226D01*
X6522110Y10488371D01*
X6513271Y10477296D01*
X6505905Y10465155D01*
G37*
G36*
X7922869Y10462869D02*
G01*
X7973110Y10462869D01*
X7972094Y10465155D01*
X7964728Y10477296D01*
X7955889Y10488371D01*
X7945729Y10498226D01*
X7934350Y10506710D01*
X7922869Y10513212D01*
G37*
G36*
X7520889Y10462869D02*
G01*
X7571130Y10462869D01*
X7571130Y10513212D01*
X7559649Y10506710D01*
X7548270Y10498226D01*
X7538110Y10488371D01*
X7529271Y10477296D01*
X7521905Y10465155D01*
G37*
G36*
X6652869Y10462869D02*
G01*
X6703110Y10462869D01*
X6702094Y10465155D01*
X6694728Y10477296D01*
X6685889Y10488371D01*
X6675729Y10498226D01*
X6664350Y10506710D01*
X6652869Y10513212D01*
G37*
G36*
X2922371Y10470337D02*
G01*
X2991662Y10470337D01*
X2991662Y10539628D01*
X2948584Y10539628D01*
X2942285Y10538968D01*
X2936900Y10537037D01*
X2932023Y10533989D01*
X2928010Y10529976D01*
X2924962Y10525099D01*
X2923032Y10519714D01*
X2922371Y10513415D01*
G37*
G36*
X5080000Y10820146D02*
G01*
X5093563Y10821060D01*
X5106924Y10823803D01*
X5119776Y10828274D01*
X5131917Y10834370D01*
X5143093Y10842091D01*
X5153202Y10851184D01*
X5161991Y10861598D01*
X5169306Y10873079D01*
X5175046Y10885424D01*
X5179060Y10898378D01*
X5181295Y10911789D01*
X5181752Y10925403D01*
X5180431Y10938916D01*
X5177282Y10952175D01*
X5172354Y10964875D01*
X5165852Y10976813D01*
X5157774Y10987735D01*
X5148326Y10997539D01*
X5137607Y11005972D01*
X5125923Y11012881D01*
X5113426Y11018215D01*
X5100269Y11021771D01*
X5086807Y11023600D01*
X5073192Y11023600D01*
X5059730Y11021771D01*
X5046573Y11018215D01*
X5034076Y11012881D01*
X5022392Y11005972D01*
X5011674Y10997539D01*
X5002225Y10987735D01*
X4994148Y10976813D01*
X4987645Y10964875D01*
X4982718Y10952175D01*
X4979568Y10938916D01*
X4978247Y10925403D01*
X4978704Y10911789D01*
X4980940Y10898378D01*
X4984953Y10885424D01*
X4990693Y10873079D01*
X4998008Y10861598D01*
X5006797Y10851184D01*
X5016906Y10842091D01*
X5028082Y10834370D01*
X5040223Y10828274D01*
X5053076Y10823803D01*
X5066436Y10821060D01*
G37*
G36*
X4826000Y10820146D02*
G01*
X4839563Y10821060D01*
X4852924Y10823803D01*
X4865776Y10828274D01*
X4877917Y10834370D01*
X4889093Y10842091D01*
X4899202Y10851184D01*
X4907991Y10861598D01*
X4915306Y10873079D01*
X4921046Y10885424D01*
X4925060Y10898378D01*
X4927295Y10911789D01*
X4927752Y10925403D01*
X4926431Y10938916D01*
X4923282Y10952175D01*
X4918354Y10964875D01*
X4911852Y10976813D01*
X4903774Y10987735D01*
X4894326Y10997539D01*
X4883607Y11005972D01*
X4871923Y11012881D01*
X4859426Y11018215D01*
X4846269Y11021771D01*
X4832807Y11023600D01*
X4819192Y11023600D01*
X4805730Y11021771D01*
X4792573Y11018215D01*
X4780076Y11012881D01*
X4768392Y11005972D01*
X4757674Y10997539D01*
X4748225Y10987735D01*
X4740148Y10976813D01*
X4733645Y10964875D01*
X4728718Y10952175D01*
X4725568Y10938916D01*
X4724247Y10925403D01*
X4724704Y10911789D01*
X4726940Y10898378D01*
X4730953Y10885424D01*
X4736693Y10873079D01*
X4744008Y10861598D01*
X4752797Y10851184D01*
X4762906Y10842091D01*
X4774082Y10834370D01*
X4786223Y10828274D01*
X4799076Y10823803D01*
X4812436Y10821060D01*
G37*
G36*
X4064000Y10820146D02*
G01*
X4077563Y10821060D01*
X4090924Y10823803D01*
X4103776Y10828274D01*
X4115917Y10834370D01*
X4127093Y10842091D01*
X4137202Y10851184D01*
X4145991Y10861598D01*
X4153306Y10873079D01*
X4159046Y10885424D01*
X4163060Y10898378D01*
X4165295Y10911789D01*
X4165752Y10925403D01*
X4164431Y10938916D01*
X4161282Y10952175D01*
X4156354Y10964875D01*
X4149851Y10976813D01*
X4141774Y10987735D01*
X4132326Y10997539D01*
X4121607Y11005972D01*
X4109923Y11012881D01*
X4097426Y11018215D01*
X4084269Y11021771D01*
X4070807Y11023600D01*
X4057192Y11023600D01*
X4043730Y11021771D01*
X4030573Y11018215D01*
X4018076Y11012881D01*
X4006392Y11005972D01*
X3995674Y10997539D01*
X3986225Y10987735D01*
X3978148Y10976813D01*
X3971645Y10964875D01*
X3966718Y10952175D01*
X3963568Y10938916D01*
X3962247Y10925403D01*
X3962704Y10911789D01*
X3964940Y10898378D01*
X3968953Y10885424D01*
X3974693Y10873079D01*
X3982008Y10861598D01*
X3990797Y10851184D01*
X4000906Y10842091D01*
X4012082Y10834370D01*
X4024223Y10828274D01*
X4037076Y10823803D01*
X4050436Y10821060D01*
G37*
G36*
X5588000Y10820146D02*
G01*
X5601563Y10821060D01*
X5614924Y10823803D01*
X5627776Y10828274D01*
X5639917Y10834370D01*
X5651093Y10842091D01*
X5661202Y10851184D01*
X5669991Y10861598D01*
X5677306Y10873079D01*
X5683046Y10885424D01*
X5687060Y10898378D01*
X5689295Y10911789D01*
X5689752Y10925403D01*
X5688431Y10938916D01*
X5685282Y10952175D01*
X5680354Y10964875D01*
X5673852Y10976813D01*
X5665774Y10987735D01*
X5656326Y10997539D01*
X5645607Y11005972D01*
X5633923Y11012881D01*
X5621426Y11018215D01*
X5608269Y11021771D01*
X5594807Y11023600D01*
X5581192Y11023600D01*
X5567730Y11021771D01*
X5554573Y11018215D01*
X5542076Y11012881D01*
X5530392Y11005972D01*
X5519674Y10997539D01*
X5510225Y10987735D01*
X5502148Y10976813D01*
X5495645Y10964875D01*
X5490718Y10952175D01*
X5487568Y10938916D01*
X5486247Y10925403D01*
X5486704Y10911789D01*
X5488940Y10898378D01*
X5492953Y10885424D01*
X5498693Y10873079D01*
X5506008Y10861598D01*
X5514797Y10851184D01*
X5524906Y10842091D01*
X5536082Y10834370D01*
X5548223Y10828274D01*
X5561076Y10823803D01*
X5574436Y10821060D01*
G37*
G36*
X4318000Y10820146D02*
G01*
X4331563Y10821060D01*
X4344924Y10823803D01*
X4357776Y10828274D01*
X4369917Y10834370D01*
X4381093Y10842091D01*
X4391202Y10851184D01*
X4399991Y10861598D01*
X4407306Y10873079D01*
X4413046Y10885424D01*
X4417060Y10898378D01*
X4419295Y10911789D01*
X4419752Y10925403D01*
X4418431Y10938916D01*
X4415282Y10952175D01*
X4410354Y10964875D01*
X4403852Y10976813D01*
X4395774Y10987735D01*
X4386326Y10997539D01*
X4375607Y11005972D01*
X4363923Y11012881D01*
X4351426Y11018215D01*
X4338269Y11021771D01*
X4324807Y11023600D01*
X4311192Y11023600D01*
X4297730Y11021771D01*
X4284573Y11018215D01*
X4272076Y11012881D01*
X4260392Y11005972D01*
X4249674Y10997539D01*
X4240225Y10987735D01*
X4232148Y10976813D01*
X4225645Y10964875D01*
X4220718Y10952175D01*
X4217568Y10938916D01*
X4216247Y10925403D01*
X4216704Y10911789D01*
X4218940Y10898378D01*
X4222953Y10885424D01*
X4228693Y10873079D01*
X4236008Y10861598D01*
X4244797Y10851184D01*
X4254906Y10842091D01*
X4266082Y10834370D01*
X4278223Y10828274D01*
X4291076Y10823803D01*
X4304436Y10821060D01*
G37*
G36*
X4572000Y10820146D02*
G01*
X4585563Y10821060D01*
X4598924Y10823803D01*
X4611776Y10828274D01*
X4623917Y10834370D01*
X4635093Y10842091D01*
X4645202Y10851184D01*
X4653991Y10861598D01*
X4661306Y10873079D01*
X4667046Y10885424D01*
X4671060Y10898378D01*
X4673295Y10911789D01*
X4673752Y10925403D01*
X4672431Y10938916D01*
X4669282Y10952175D01*
X4664354Y10964875D01*
X4657852Y10976813D01*
X4649774Y10987735D01*
X4640326Y10997539D01*
X4629607Y11005972D01*
X4617923Y11012881D01*
X4605426Y11018215D01*
X4592269Y11021771D01*
X4578807Y11023600D01*
X4565192Y11023600D01*
X4551730Y11021771D01*
X4538573Y11018215D01*
X4526076Y11012881D01*
X4514392Y11005972D01*
X4503674Y10997539D01*
X4494225Y10987735D01*
X4486148Y10976813D01*
X4479645Y10964875D01*
X4474718Y10952175D01*
X4471568Y10938916D01*
X4470247Y10925403D01*
X4470704Y10911789D01*
X4472940Y10898378D01*
X4476953Y10885424D01*
X4482693Y10873079D01*
X4490008Y10861598D01*
X4498797Y10851184D01*
X4508906Y10842091D01*
X4520082Y10834370D01*
X4532223Y10828274D01*
X4545076Y10823803D01*
X4558436Y10821060D01*
G37*
G36*
X3302000Y10820146D02*
G01*
X3315563Y10821060D01*
X3328924Y10823803D01*
X3341776Y10828274D01*
X3353917Y10834370D01*
X3365093Y10842091D01*
X3375202Y10851184D01*
X3383991Y10861598D01*
X3391306Y10873079D01*
X3397046Y10885424D01*
X3401060Y10898378D01*
X3403295Y10911789D01*
X3403752Y10925403D01*
X3402431Y10938916D01*
X3399282Y10952175D01*
X3394354Y10964875D01*
X3387851Y10976813D01*
X3379774Y10987735D01*
X3370326Y10997539D01*
X3359607Y11005972D01*
X3347923Y11012881D01*
X3335426Y11018215D01*
X3322269Y11021771D01*
X3308807Y11023600D01*
X3295192Y11023600D01*
X3281730Y11021771D01*
X3268573Y11018215D01*
X3256076Y11012881D01*
X3244392Y11005972D01*
X3233674Y10997539D01*
X3224225Y10987735D01*
X3216148Y10976813D01*
X3209645Y10964875D01*
X3204718Y10952175D01*
X3201568Y10938916D01*
X3200247Y10925403D01*
X3200704Y10911789D01*
X3202940Y10898378D01*
X3206953Y10885424D01*
X3212693Y10873079D01*
X3220008Y10861598D01*
X3228797Y10851184D01*
X3238906Y10842091D01*
X3250082Y10834370D01*
X3262223Y10828274D01*
X3275076Y10823803D01*
X3288436Y10821060D01*
G37*
G36*
X3556000Y10820146D02*
G01*
X3569563Y10821060D01*
X3582924Y10823803D01*
X3595776Y10828274D01*
X3607917Y10834370D01*
X3619093Y10842091D01*
X3629202Y10851184D01*
X3637991Y10861598D01*
X3645306Y10873079D01*
X3651046Y10885424D01*
X3655060Y10898378D01*
X3657295Y10911789D01*
X3657752Y10925403D01*
X3656431Y10938916D01*
X3653282Y10952175D01*
X3648354Y10964875D01*
X3641851Y10976813D01*
X3633774Y10987735D01*
X3624326Y10997539D01*
X3613607Y11005972D01*
X3601923Y11012881D01*
X3589426Y11018215D01*
X3576269Y11021771D01*
X3562807Y11023600D01*
X3549192Y11023600D01*
X3535730Y11021771D01*
X3522573Y11018215D01*
X3510076Y11012881D01*
X3498392Y11005972D01*
X3487674Y10997539D01*
X3478225Y10987735D01*
X3470148Y10976813D01*
X3463645Y10964875D01*
X3458718Y10952175D01*
X3455568Y10938916D01*
X3454247Y10925403D01*
X3454704Y10911789D01*
X3456940Y10898378D01*
X3460953Y10885424D01*
X3466693Y10873079D01*
X3474008Y10861598D01*
X3482797Y10851184D01*
X3492906Y10842091D01*
X3504082Y10834370D01*
X3516223Y10828274D01*
X3529076Y10823803D01*
X3542436Y10821060D01*
G37*
G36*
X3048000Y10820146D02*
G01*
X3061563Y10821060D01*
X3074924Y10823803D01*
X3087776Y10828274D01*
X3099917Y10834370D01*
X3111093Y10842091D01*
X3121202Y10851184D01*
X3129991Y10861598D01*
X3137306Y10873079D01*
X3143046Y10885424D01*
X3147060Y10898378D01*
X3149295Y10911789D01*
X3149752Y10925403D01*
X3148431Y10938916D01*
X3145282Y10952175D01*
X3140354Y10964875D01*
X3133852Y10976813D01*
X3125774Y10987735D01*
X3116326Y10997539D01*
X3105607Y11005972D01*
X3093923Y11012881D01*
X3081426Y11018215D01*
X3068269Y11021771D01*
X3054807Y11023600D01*
X3041192Y11023600D01*
X3027730Y11021771D01*
X3014573Y11018215D01*
X3002076Y11012881D01*
X2990392Y11005972D01*
X2979674Y10997539D01*
X2970225Y10987735D01*
X2962148Y10976813D01*
X2955645Y10964875D01*
X2950718Y10952175D01*
X2947568Y10938916D01*
X2946247Y10925403D01*
X2946704Y10911789D01*
X2948940Y10898378D01*
X2952953Y10885424D01*
X2958693Y10873079D01*
X2966008Y10861598D01*
X2974797Y10851184D01*
X2984906Y10842091D01*
X2996082Y10834370D01*
X3008223Y10828274D01*
X3021076Y10823803D01*
X3034436Y10821060D01*
G37*
G36*
X8128000Y10820146D02*
G01*
X8141563Y10821060D01*
X8154924Y10823803D01*
X8167776Y10828274D01*
X8179917Y10834370D01*
X8191093Y10842091D01*
X8201202Y10851184D01*
X8209991Y10861598D01*
X8217306Y10873079D01*
X8223046Y10885424D01*
X8227059Y10898378D01*
X8229295Y10911789D01*
X8229752Y10925403D01*
X8228431Y10938916D01*
X8225281Y10952175D01*
X8220354Y10964875D01*
X8213852Y10976813D01*
X8205774Y10987735D01*
X8196325Y10997539D01*
X8185607Y11005972D01*
X8173923Y11012881D01*
X8161426Y11018215D01*
X8148269Y11021771D01*
X8134807Y11023600D01*
X8121192Y11023600D01*
X8107730Y11021771D01*
X8094573Y11018215D01*
X8082076Y11012881D01*
X8070392Y11005972D01*
X8059674Y10997539D01*
X8050225Y10987735D01*
X8042148Y10976813D01*
X8035645Y10964875D01*
X8030718Y10952175D01*
X8027568Y10938916D01*
X8026247Y10925403D01*
X8026704Y10911789D01*
X8028940Y10898378D01*
X8032953Y10885424D01*
X8038693Y10873079D01*
X8046008Y10861598D01*
X8054797Y10851184D01*
X8064906Y10842091D01*
X8076082Y10834370D01*
X8088223Y10828274D01*
X8101075Y10823803D01*
X8114436Y10821060D01*
G37*
G36*
X7112000Y10820146D02*
G01*
X7125563Y10821060D01*
X7138924Y10823803D01*
X7151776Y10828274D01*
X7163917Y10834370D01*
X7175093Y10842091D01*
X7185202Y10851184D01*
X7193991Y10861598D01*
X7201306Y10873079D01*
X7207046Y10885424D01*
X7211059Y10898378D01*
X7213295Y10911789D01*
X7213752Y10925403D01*
X7212431Y10938916D01*
X7209281Y10952175D01*
X7204354Y10964875D01*
X7197852Y10976813D01*
X7189774Y10987735D01*
X7180325Y10997539D01*
X7169607Y11005972D01*
X7157923Y11012881D01*
X7145426Y11018215D01*
X7132269Y11021771D01*
X7118807Y11023600D01*
X7105192Y11023600D01*
X7091730Y11021771D01*
X7078573Y11018215D01*
X7066076Y11012881D01*
X7054392Y11005972D01*
X7043674Y10997539D01*
X7034225Y10987735D01*
X7026148Y10976813D01*
X7019645Y10964875D01*
X7014718Y10952175D01*
X7011568Y10938916D01*
X7010247Y10925403D01*
X7010704Y10911789D01*
X7012940Y10898378D01*
X7016953Y10885424D01*
X7022693Y10873079D01*
X7030008Y10861598D01*
X7038797Y10851184D01*
X7048906Y10842091D01*
X7060082Y10834370D01*
X7072223Y10828274D01*
X7085075Y10823803D01*
X7098436Y10821060D01*
G37*
G36*
X3810000Y10820146D02*
G01*
X3823563Y10821060D01*
X3836924Y10823803D01*
X3849776Y10828274D01*
X3861917Y10834370D01*
X3873093Y10842091D01*
X3883202Y10851184D01*
X3891991Y10861598D01*
X3899306Y10873079D01*
X3905046Y10885424D01*
X3909060Y10898378D01*
X3911295Y10911789D01*
X3911752Y10925403D01*
X3910431Y10938916D01*
X3907282Y10952175D01*
X3902354Y10964875D01*
X3895851Y10976813D01*
X3887774Y10987735D01*
X3878326Y10997539D01*
X3867607Y11005972D01*
X3855923Y11012881D01*
X3843426Y11018215D01*
X3830269Y11021771D01*
X3816807Y11023600D01*
X3803192Y11023600D01*
X3789730Y11021771D01*
X3776573Y11018215D01*
X3764076Y11012881D01*
X3752392Y11005972D01*
X3741674Y10997539D01*
X3732225Y10987735D01*
X3724148Y10976813D01*
X3717645Y10964875D01*
X3712718Y10952175D01*
X3709568Y10938916D01*
X3708247Y10925403D01*
X3708704Y10911789D01*
X3710940Y10898378D01*
X3714953Y10885424D01*
X3720693Y10873079D01*
X3728008Y10861598D01*
X3736797Y10851184D01*
X3746906Y10842091D01*
X3758082Y10834370D01*
X3770223Y10828274D01*
X3783076Y10823803D01*
X3796436Y10821060D01*
G37*
G36*
X6350000Y10820146D02*
G01*
X6363563Y10821060D01*
X6376924Y10823803D01*
X6389776Y10828274D01*
X6401917Y10834370D01*
X6413093Y10842091D01*
X6423202Y10851184D01*
X6431991Y10861598D01*
X6439306Y10873079D01*
X6445046Y10885424D01*
X6449060Y10898378D01*
X6451295Y10911789D01*
X6451752Y10925403D01*
X6450431Y10938916D01*
X6447282Y10952175D01*
X6442354Y10964875D01*
X6435852Y10976813D01*
X6427774Y10987735D01*
X6418326Y10997539D01*
X6407607Y11005972D01*
X6395923Y11012881D01*
X6383426Y11018215D01*
X6370269Y11021771D01*
X6356807Y11023600D01*
X6343192Y11023600D01*
X6329730Y11021771D01*
X6316573Y11018215D01*
X6304076Y11012881D01*
X6292392Y11005972D01*
X6281674Y10997539D01*
X6272225Y10987735D01*
X6264148Y10976813D01*
X6257645Y10964875D01*
X6252718Y10952175D01*
X6249568Y10938916D01*
X6248247Y10925403D01*
X6248704Y10911789D01*
X6250940Y10898378D01*
X6254953Y10885424D01*
X6260693Y10873079D01*
X6268008Y10861598D01*
X6276797Y10851184D01*
X6286906Y10842091D01*
X6298082Y10834370D01*
X6310223Y10828274D01*
X6323076Y10823803D01*
X6336436Y10821060D01*
G37*
G36*
X7366000Y10820146D02*
G01*
X7379563Y10821060D01*
X7392924Y10823803D01*
X7405776Y10828274D01*
X7417917Y10834370D01*
X7429093Y10842091D01*
X7439202Y10851184D01*
X7447991Y10861598D01*
X7455306Y10873079D01*
X7461046Y10885424D01*
X7465059Y10898378D01*
X7467295Y10911789D01*
X7467752Y10925403D01*
X7466431Y10938916D01*
X7463281Y10952175D01*
X7458354Y10964875D01*
X7451852Y10976813D01*
X7443774Y10987735D01*
X7434325Y10997539D01*
X7423607Y11005972D01*
X7411923Y11012881D01*
X7399426Y11018215D01*
X7386269Y11021771D01*
X7372807Y11023600D01*
X7359192Y11023600D01*
X7345730Y11021771D01*
X7332573Y11018215D01*
X7320076Y11012881D01*
X7308392Y11005972D01*
X7297674Y10997539D01*
X7288225Y10987735D01*
X7280148Y10976813D01*
X7273645Y10964875D01*
X7268718Y10952175D01*
X7265568Y10938916D01*
X7264247Y10925403D01*
X7264704Y10911789D01*
X7266940Y10898378D01*
X7270953Y10885424D01*
X7276693Y10873079D01*
X7284008Y10861598D01*
X7292797Y10851184D01*
X7302906Y10842091D01*
X7314082Y10834370D01*
X7326223Y10828274D01*
X7339075Y10823803D01*
X7352436Y10821060D01*
G37*
G36*
X6096000Y10820146D02*
G01*
X6109563Y10821060D01*
X6122924Y10823803D01*
X6135776Y10828274D01*
X6147917Y10834370D01*
X6159093Y10842091D01*
X6169202Y10851184D01*
X6177991Y10861598D01*
X6185306Y10873079D01*
X6191046Y10885424D01*
X6195060Y10898378D01*
X6197295Y10911789D01*
X6197752Y10925403D01*
X6196431Y10938916D01*
X6193282Y10952175D01*
X6188354Y10964875D01*
X6181852Y10976813D01*
X6173774Y10987735D01*
X6164326Y10997539D01*
X6153607Y11005972D01*
X6141923Y11012881D01*
X6129426Y11018215D01*
X6116269Y11021771D01*
X6102807Y11023600D01*
X6089192Y11023600D01*
X6075730Y11021771D01*
X6062573Y11018215D01*
X6050076Y11012881D01*
X6038392Y11005972D01*
X6027674Y10997539D01*
X6018225Y10987735D01*
X6010148Y10976813D01*
X6003645Y10964875D01*
X5998718Y10952175D01*
X5995568Y10938916D01*
X5994247Y10925403D01*
X5994704Y10911789D01*
X5996940Y10898378D01*
X6000953Y10885424D01*
X6006693Y10873079D01*
X6014008Y10861598D01*
X6022797Y10851184D01*
X6032906Y10842091D01*
X6044082Y10834370D01*
X6056223Y10828274D01*
X6069076Y10823803D01*
X6082436Y10821060D01*
G37*
G36*
X5842000Y10820146D02*
G01*
X5855563Y10821060D01*
X5868924Y10823803D01*
X5881776Y10828274D01*
X5893917Y10834370D01*
X5905093Y10842091D01*
X5915202Y10851184D01*
X5923991Y10861598D01*
X5931306Y10873079D01*
X5937046Y10885424D01*
X5941060Y10898378D01*
X5943295Y10911789D01*
X5943752Y10925403D01*
X5942431Y10938916D01*
X5939282Y10952175D01*
X5934354Y10964875D01*
X5927852Y10976813D01*
X5919774Y10987735D01*
X5910326Y10997539D01*
X5899607Y11005972D01*
X5887923Y11012881D01*
X5875426Y11018215D01*
X5862269Y11021771D01*
X5848807Y11023600D01*
X5835192Y11023600D01*
X5821730Y11021771D01*
X5808573Y11018215D01*
X5796076Y11012881D01*
X5784392Y11005972D01*
X5773674Y10997539D01*
X5764225Y10987735D01*
X5756148Y10976813D01*
X5749645Y10964875D01*
X5744718Y10952175D01*
X5741568Y10938916D01*
X5740247Y10925403D01*
X5740704Y10911789D01*
X5742940Y10898378D01*
X5746953Y10885424D01*
X5752693Y10873079D01*
X5760008Y10861598D01*
X5768797Y10851184D01*
X5778906Y10842091D01*
X5790082Y10834370D01*
X5802223Y10828274D01*
X5815076Y10823803D01*
X5828436Y10821060D01*
G37*
G36*
X7620000Y10820146D02*
G01*
X7633563Y10821060D01*
X7646924Y10823803D01*
X7659776Y10828274D01*
X7671917Y10834370D01*
X7683093Y10842091D01*
X7693202Y10851184D01*
X7701991Y10861598D01*
X7709306Y10873079D01*
X7715046Y10885424D01*
X7719059Y10898378D01*
X7721295Y10911789D01*
X7721752Y10925403D01*
X7720431Y10938916D01*
X7717281Y10952175D01*
X7712354Y10964875D01*
X7705852Y10976813D01*
X7697774Y10987735D01*
X7688325Y10997539D01*
X7677607Y11005972D01*
X7665923Y11012881D01*
X7653426Y11018215D01*
X7640269Y11021771D01*
X7626807Y11023600D01*
X7613192Y11023600D01*
X7599730Y11021771D01*
X7586573Y11018215D01*
X7574076Y11012881D01*
X7562392Y11005972D01*
X7551674Y10997539D01*
X7542225Y10987735D01*
X7534148Y10976813D01*
X7527645Y10964875D01*
X7522718Y10952175D01*
X7519568Y10938916D01*
X7518247Y10925403D01*
X7518704Y10911789D01*
X7520940Y10898378D01*
X7524953Y10885424D01*
X7530693Y10873079D01*
X7538008Y10861598D01*
X7546797Y10851184D01*
X7556906Y10842091D01*
X7568082Y10834370D01*
X7580223Y10828274D01*
X7593075Y10823803D01*
X7606436Y10821060D01*
G37*
G36*
X8382000Y10820146D02*
G01*
X8395563Y10821060D01*
X8408924Y10823803D01*
X8421776Y10828274D01*
X8433917Y10834370D01*
X8445093Y10842091D01*
X8455202Y10851184D01*
X8463991Y10861598D01*
X8471306Y10873079D01*
X8477046Y10885424D01*
X8481060Y10898378D01*
X8483295Y10911789D01*
X8483752Y10925403D01*
X8482431Y10938916D01*
X8479282Y10952175D01*
X8474354Y10964875D01*
X8467852Y10976813D01*
X8459774Y10987735D01*
X8450326Y10997539D01*
X8439607Y11005972D01*
X8427923Y11012881D01*
X8415426Y11018215D01*
X8402269Y11021771D01*
X8388807Y11023600D01*
X8375192Y11023600D01*
X8361730Y11021771D01*
X8348573Y11018215D01*
X8336076Y11012881D01*
X8324392Y11005972D01*
X8313674Y10997539D01*
X8304225Y10987735D01*
X8296148Y10976813D01*
X8289645Y10964875D01*
X8284718Y10952175D01*
X8281568Y10938916D01*
X8280247Y10925403D01*
X8280704Y10911789D01*
X8282940Y10898378D01*
X8286953Y10885424D01*
X8292693Y10873079D01*
X8300008Y10861598D01*
X8308797Y10851184D01*
X8318906Y10842091D01*
X8330082Y10834370D01*
X8342223Y10828274D01*
X8355075Y10823803D01*
X8368436Y10821060D01*
G37*
G36*
X7874000Y10820146D02*
G01*
X7887563Y10821060D01*
X7900924Y10823803D01*
X7913776Y10828274D01*
X7925917Y10834370D01*
X7937093Y10842091D01*
X7947202Y10851184D01*
X7955991Y10861598D01*
X7963306Y10873079D01*
X7969046Y10885424D01*
X7973059Y10898378D01*
X7975295Y10911789D01*
X7975752Y10925403D01*
X7974431Y10938916D01*
X7971281Y10952175D01*
X7966354Y10964875D01*
X7959852Y10976813D01*
X7951774Y10987735D01*
X7942325Y10997539D01*
X7931607Y11005972D01*
X7919923Y11012881D01*
X7907426Y11018215D01*
X7894269Y11021771D01*
X7880807Y11023600D01*
X7867192Y11023600D01*
X7853730Y11021771D01*
X7840573Y11018215D01*
X7828076Y11012881D01*
X7816392Y11005972D01*
X7805674Y10997539D01*
X7796225Y10987735D01*
X7788148Y10976813D01*
X7781645Y10964875D01*
X7776718Y10952175D01*
X7773568Y10938916D01*
X7772247Y10925403D01*
X7772704Y10911789D01*
X7774940Y10898378D01*
X7778953Y10885424D01*
X7784693Y10873079D01*
X7792008Y10861598D01*
X7800797Y10851184D01*
X7810906Y10842091D01*
X7822082Y10834370D01*
X7834223Y10828274D01*
X7847075Y10823803D01*
X7860436Y10821060D01*
G37*
G36*
X5289550Y10830610D02*
G01*
X5289550Y10877550D01*
X5242610Y10877550D01*
X5244693Y10873079D01*
X5252008Y10861598D01*
X5260797Y10851184D01*
X5270906Y10842091D01*
X5282082Y10834370D01*
G37*
G36*
X8591550Y10830610D02*
G01*
X8591550Y10877550D01*
X8544610Y10877550D01*
X8546693Y10873079D01*
X8554008Y10861598D01*
X8562797Y10851184D01*
X8572906Y10842091D01*
X8584082Y10834370D01*
G37*
G36*
X8680450Y10830610D02*
G01*
X8687917Y10834370D01*
X8699093Y10842091D01*
X8709202Y10851184D01*
X8717991Y10861598D01*
X8725306Y10873079D01*
X8727389Y10877550D01*
X8680450Y10877550D01*
G37*
G36*
X5378450Y10830610D02*
G01*
X5385917Y10834370D01*
X5397093Y10842091D01*
X5407202Y10851184D01*
X5415991Y10861598D01*
X5423306Y10873079D01*
X5425389Y10877550D01*
X5378450Y10877550D01*
G37*
G36*
X5378450Y10966450D02*
G01*
X5425490Y10966450D01*
X5419852Y10976813D01*
X5411774Y10987735D01*
X5402326Y10997539D01*
X5391607Y11005972D01*
X5379923Y11012881D01*
X5378450Y11013490D01*
G37*
G36*
X5242509Y10966450D02*
G01*
X5289550Y10966450D01*
X5289550Y11013490D01*
X5288076Y11012881D01*
X5276392Y11005972D01*
X5265674Y10997539D01*
X5256225Y10987735D01*
X5248148Y10976813D01*
G37*
G36*
X8680450Y10966450D02*
G01*
X8727490Y10966450D01*
X8721852Y10976813D01*
X8713774Y10987735D01*
X8704326Y10997539D01*
X8693607Y11005972D01*
X8681923Y11012881D01*
X8680450Y11013490D01*
G37*
G36*
X8544509Y10966450D02*
G01*
X8591550Y10966450D01*
X8591550Y11013490D01*
X8590076Y11012881D01*
X8578392Y11005972D01*
X8567674Y10997539D01*
X8558225Y10987735D01*
X8550148Y10976813D01*
G37*
G36*
X4318000Y11074146D02*
G01*
X4331563Y11075060D01*
X4344924Y11077803D01*
X4357776Y11082274D01*
X4369917Y11088370D01*
X4381093Y11096091D01*
X4391202Y11105184D01*
X4399991Y11115598D01*
X4407306Y11127079D01*
X4413046Y11139424D01*
X4417060Y11152378D01*
X4419295Y11165789D01*
X4419752Y11179403D01*
X4418431Y11192916D01*
X4415282Y11206175D01*
X4410354Y11218875D01*
X4403852Y11230813D01*
X4395774Y11241735D01*
X4386326Y11251539D01*
X4375607Y11259972D01*
X4363923Y11266881D01*
X4351426Y11272215D01*
X4338269Y11275771D01*
X4324807Y11277600D01*
X4311192Y11277600D01*
X4297730Y11275771D01*
X4284573Y11272215D01*
X4272076Y11266881D01*
X4260392Y11259972D01*
X4249674Y11251539D01*
X4240225Y11241735D01*
X4232148Y11230813D01*
X4225645Y11218875D01*
X4220718Y11206175D01*
X4217568Y11192916D01*
X4216247Y11179403D01*
X4216704Y11165789D01*
X4218940Y11152378D01*
X4222953Y11139424D01*
X4228693Y11127079D01*
X4236008Y11115598D01*
X4244797Y11105184D01*
X4254906Y11096091D01*
X4266082Y11088370D01*
X4278223Y11082274D01*
X4291076Y11077803D01*
X4304436Y11075060D01*
G37*
G36*
X4318000Y11328146D02*
G01*
X4331563Y11329060D01*
X4344924Y11331803D01*
X4357776Y11336274D01*
X4369917Y11342370D01*
X4381093Y11350091D01*
X4391202Y11359184D01*
X4399991Y11369598D01*
X4407306Y11381079D01*
X4413046Y11393424D01*
X4417060Y11406378D01*
X4419295Y11419789D01*
X4419752Y11433403D01*
X4418431Y11446916D01*
X4415282Y11460175D01*
X4410354Y11472875D01*
X4403852Y11484813D01*
X4395774Y11495735D01*
X4386326Y11505539D01*
X4375607Y11513972D01*
X4363923Y11520881D01*
X4351426Y11526215D01*
X4338269Y11529771D01*
X4324807Y11531600D01*
X4311192Y11531600D01*
X4297730Y11529771D01*
X4284573Y11526215D01*
X4272076Y11520881D01*
X4260392Y11513972D01*
X4249674Y11505539D01*
X4240225Y11495735D01*
X4232148Y11484813D01*
X4225645Y11472875D01*
X4220718Y11460175D01*
X4217568Y11446916D01*
X4216247Y11433403D01*
X4216704Y11419789D01*
X4218940Y11406378D01*
X4222953Y11393424D01*
X4228693Y11381079D01*
X4236008Y11369598D01*
X4244797Y11359184D01*
X4254906Y11350091D01*
X4266082Y11342370D01*
X4278223Y11336274D01*
X4291076Y11331803D01*
X4304436Y11329060D01*
G37*
G36*
X4318000Y11582146D02*
G01*
X4331563Y11583060D01*
X4344924Y11585803D01*
X4357776Y11590274D01*
X4369917Y11596370D01*
X4381093Y11604091D01*
X4391202Y11613184D01*
X4399991Y11623598D01*
X4407306Y11635079D01*
X4413046Y11647424D01*
X4417060Y11660378D01*
X4419295Y11673789D01*
X4419752Y11687403D01*
X4418431Y11700916D01*
X4415282Y11714175D01*
X4410354Y11726875D01*
X4403852Y11738813D01*
X4395774Y11749735D01*
X4386326Y11759539D01*
X4375607Y11767972D01*
X4363923Y11774881D01*
X4351426Y11780215D01*
X4338269Y11783771D01*
X4324807Y11785600D01*
X4311192Y11785600D01*
X4297730Y11783771D01*
X4284573Y11780215D01*
X4272076Y11774881D01*
X4260392Y11767972D01*
X4249674Y11759539D01*
X4240225Y11749735D01*
X4232148Y11738813D01*
X4225645Y11726875D01*
X4220718Y11714175D01*
X4217568Y11700916D01*
X4216247Y11687403D01*
X4216704Y11673789D01*
X4218940Y11660378D01*
X4222953Y11647424D01*
X4228693Y11635079D01*
X4236008Y11623598D01*
X4244797Y11613184D01*
X4254906Y11604091D01*
X4266082Y11596370D01*
X4278223Y11590274D01*
X4291076Y11585803D01*
X4304436Y11583060D01*
G37*
G36*
X4318000Y11836146D02*
G01*
X4331563Y11837060D01*
X4344924Y11839803D01*
X4357776Y11844274D01*
X4369917Y11850370D01*
X4381093Y11858091D01*
X4391202Y11867184D01*
X4399991Y11877598D01*
X4407306Y11889079D01*
X4413046Y11901424D01*
X4417060Y11914378D01*
X4419295Y11927789D01*
X4419752Y11941403D01*
X4418431Y11954916D01*
X4415282Y11968175D01*
X4410354Y11980875D01*
X4403852Y11992813D01*
X4395774Y12003735D01*
X4386326Y12013539D01*
X4375607Y12021972D01*
X4363923Y12028881D01*
X4351426Y12034215D01*
X4338269Y12037771D01*
X4324807Y12039600D01*
X4311192Y12039600D01*
X4297730Y12037771D01*
X4284573Y12034215D01*
X4272076Y12028881D01*
X4260392Y12021972D01*
X4249674Y12013539D01*
X4240225Y12003735D01*
X4232148Y11992813D01*
X4225645Y11980875D01*
X4220718Y11968175D01*
X4217568Y11954916D01*
X4216247Y11941403D01*
X4216704Y11927789D01*
X4218940Y11914378D01*
X4222953Y11901424D01*
X4228693Y11889079D01*
X4236008Y11877598D01*
X4244797Y11867184D01*
X4254906Y11858091D01*
X4266082Y11850370D01*
X4278223Y11844274D01*
X4291076Y11839803D01*
X4304436Y11837060D01*
G37*
G36*
X4318000Y12090146D02*
G01*
X4331563Y12091060D01*
X4344924Y12093803D01*
X4357776Y12098274D01*
X4369917Y12104370D01*
X4381093Y12112091D01*
X4391202Y12121184D01*
X4399991Y12131598D01*
X4407306Y12143079D01*
X4413046Y12155424D01*
X4417060Y12168378D01*
X4419295Y12181789D01*
X4419752Y12195403D01*
X4418431Y12208916D01*
X4415282Y12222175D01*
X4410354Y12234875D01*
X4403852Y12246813D01*
X4395774Y12257735D01*
X4386326Y12267539D01*
X4375607Y12275972D01*
X4363923Y12282881D01*
X4351426Y12288215D01*
X4338269Y12291771D01*
X4324807Y12293600D01*
X4311192Y12293600D01*
X4297730Y12291771D01*
X4284573Y12288215D01*
X4272076Y12282881D01*
X4260392Y12275972D01*
X4249674Y12267539D01*
X4240225Y12257735D01*
X4232148Y12246813D01*
X4225645Y12234875D01*
X4220718Y12222175D01*
X4217568Y12208916D01*
X4216247Y12195403D01*
X4216704Y12181789D01*
X4218940Y12168378D01*
X4222953Y12155424D01*
X4228693Y12143079D01*
X4236008Y12131598D01*
X4244797Y12121184D01*
X4254906Y12112091D01*
X4266082Y12104370D01*
X4278223Y12098274D01*
X4291076Y12093803D01*
X4304436Y12091060D01*
G37*
G36*
X5080000Y12344146D02*
G01*
X5093563Y12345060D01*
X5106924Y12347803D01*
X5119776Y12352274D01*
X5131917Y12358370D01*
X5143093Y12366091D01*
X5153202Y12375184D01*
X5161991Y12385598D01*
X5169306Y12397079D01*
X5175046Y12409424D01*
X5179060Y12422378D01*
X5181295Y12435789D01*
X5181752Y12449403D01*
X5180431Y12462916D01*
X5177282Y12476175D01*
X5172354Y12488875D01*
X5165852Y12500813D01*
X5157774Y12511735D01*
X5148326Y12521539D01*
X5137607Y12529972D01*
X5125923Y12536881D01*
X5113426Y12542215D01*
X5100269Y12545771D01*
X5086807Y12547600D01*
X5073192Y12547600D01*
X5059730Y12545771D01*
X5046573Y12542215D01*
X5034076Y12536881D01*
X5022392Y12529972D01*
X5011674Y12521539D01*
X5002225Y12511735D01*
X4994148Y12500813D01*
X4987645Y12488875D01*
X4982718Y12476175D01*
X4979568Y12462916D01*
X4978247Y12449403D01*
X4978704Y12435789D01*
X4980940Y12422378D01*
X4984953Y12409424D01*
X4990693Y12397079D01*
X4998008Y12385598D01*
X5006797Y12375184D01*
X5016906Y12366091D01*
X5028082Y12358370D01*
X5040223Y12352274D01*
X5053076Y12347803D01*
X5066436Y12345060D01*
G37*
G36*
X4572000Y12344146D02*
G01*
X4585563Y12345060D01*
X4598924Y12347803D01*
X4611776Y12352274D01*
X4623917Y12358370D01*
X4635093Y12366091D01*
X4645202Y12375184D01*
X4653991Y12385598D01*
X4661306Y12397079D01*
X4667046Y12409424D01*
X4671060Y12422378D01*
X4673295Y12435789D01*
X4673752Y12449403D01*
X4672431Y12462916D01*
X4669282Y12476175D01*
X4664354Y12488875D01*
X4657852Y12500813D01*
X4649774Y12511735D01*
X4640326Y12521539D01*
X4629607Y12529972D01*
X4617923Y12536881D01*
X4605426Y12542215D01*
X4592269Y12545771D01*
X4578807Y12547600D01*
X4565192Y12547600D01*
X4551730Y12545771D01*
X4538573Y12542215D01*
X4526076Y12536881D01*
X4514392Y12529972D01*
X4503674Y12521539D01*
X4494225Y12511735D01*
X4486148Y12500813D01*
X4479645Y12488875D01*
X4474718Y12476175D01*
X4471568Y12462916D01*
X4470247Y12449403D01*
X4470704Y12435789D01*
X4472940Y12422378D01*
X4476953Y12409424D01*
X4482693Y12397079D01*
X4490008Y12385598D01*
X4498797Y12375184D01*
X4508906Y12366091D01*
X4520082Y12358370D01*
X4532223Y12352274D01*
X4545076Y12347803D01*
X4558436Y12345060D01*
G37*
G36*
X4318000Y12344146D02*
G01*
X4331563Y12345060D01*
X4344924Y12347803D01*
X4357776Y12352274D01*
X4369917Y12358370D01*
X4381093Y12366091D01*
X4391202Y12375184D01*
X4399991Y12385598D01*
X4407306Y12397079D01*
X4413046Y12409424D01*
X4417060Y12422378D01*
X4419295Y12435789D01*
X4419752Y12449403D01*
X4418431Y12462916D01*
X4415282Y12476175D01*
X4410354Y12488875D01*
X4403852Y12500813D01*
X4395774Y12511735D01*
X4386326Y12521539D01*
X4375607Y12529972D01*
X4363923Y12536881D01*
X4351426Y12542215D01*
X4338269Y12545771D01*
X4324807Y12547600D01*
X4311192Y12547600D01*
X4297730Y12545771D01*
X4284573Y12542215D01*
X4272076Y12536881D01*
X4260392Y12529972D01*
X4249674Y12521539D01*
X4240225Y12511735D01*
X4232148Y12500813D01*
X4225645Y12488875D01*
X4220718Y12476175D01*
X4217568Y12462916D01*
X4216247Y12449403D01*
X4216704Y12435789D01*
X4218940Y12422378D01*
X4222953Y12409424D01*
X4228693Y12397079D01*
X4236008Y12385598D01*
X4244797Y12375184D01*
X4254906Y12366091D01*
X4266082Y12358370D01*
X4278223Y12352274D01*
X4291076Y12347803D01*
X4304436Y12345060D01*
G37*
G36*
X5588000Y12344146D02*
G01*
X5601563Y12345060D01*
X5614924Y12347803D01*
X5627776Y12352274D01*
X5639917Y12358370D01*
X5651093Y12366091D01*
X5661202Y12375184D01*
X5669991Y12385598D01*
X5677306Y12397079D01*
X5683046Y12409424D01*
X5687060Y12422378D01*
X5689295Y12435789D01*
X5689752Y12449403D01*
X5688431Y12462916D01*
X5685282Y12476175D01*
X5680354Y12488875D01*
X5673852Y12500813D01*
X5665774Y12511735D01*
X5656326Y12521539D01*
X5645607Y12529972D01*
X5633923Y12536881D01*
X5621426Y12542215D01*
X5608269Y12545771D01*
X5594807Y12547600D01*
X5581192Y12547600D01*
X5567730Y12545771D01*
X5554573Y12542215D01*
X5542076Y12536881D01*
X5530392Y12529972D01*
X5519674Y12521539D01*
X5510225Y12511735D01*
X5502148Y12500813D01*
X5495645Y12488875D01*
X5490718Y12476175D01*
X5487568Y12462916D01*
X5486247Y12449403D01*
X5486704Y12435789D01*
X5488940Y12422378D01*
X5492953Y12409424D01*
X5498693Y12397079D01*
X5506008Y12385598D01*
X5514797Y12375184D01*
X5524906Y12366091D01*
X5536082Y12358370D01*
X5548223Y12352274D01*
X5561076Y12347803D01*
X5574436Y12345060D01*
G37*
G36*
X4064000Y12344146D02*
G01*
X4077563Y12345060D01*
X4090924Y12347803D01*
X4103776Y12352274D01*
X4115917Y12358370D01*
X4127093Y12366091D01*
X4137202Y12375184D01*
X4145991Y12385598D01*
X4153306Y12397079D01*
X4159046Y12409424D01*
X4163060Y12422378D01*
X4165295Y12435789D01*
X4165752Y12449403D01*
X4164431Y12462916D01*
X4161282Y12476175D01*
X4156354Y12488875D01*
X4149851Y12500813D01*
X4141774Y12511735D01*
X4132326Y12521539D01*
X4121607Y12529972D01*
X4109923Y12536881D01*
X4097426Y12542215D01*
X4084269Y12545771D01*
X4070807Y12547600D01*
X4057192Y12547600D01*
X4043730Y12545771D01*
X4030573Y12542215D01*
X4018076Y12536881D01*
X4006392Y12529972D01*
X3995674Y12521539D01*
X3986225Y12511735D01*
X3978148Y12500813D01*
X3971645Y12488875D01*
X3966718Y12476175D01*
X3963568Y12462916D01*
X3962247Y12449403D01*
X3962704Y12435789D01*
X3964940Y12422378D01*
X3968953Y12409424D01*
X3974693Y12397079D01*
X3982008Y12385598D01*
X3990797Y12375184D01*
X4000906Y12366091D01*
X4012082Y12358370D01*
X4024223Y12352274D01*
X4037076Y12347803D01*
X4050436Y12345060D01*
G37*
G36*
X5842000Y12344146D02*
G01*
X5855563Y12345060D01*
X5868924Y12347803D01*
X5881776Y12352274D01*
X5893917Y12358370D01*
X5905093Y12366091D01*
X5915202Y12375184D01*
X5923991Y12385598D01*
X5931306Y12397079D01*
X5937046Y12409424D01*
X5941060Y12422378D01*
X5943295Y12435789D01*
X5943752Y12449403D01*
X5942431Y12462916D01*
X5939282Y12476175D01*
X5934354Y12488875D01*
X5927852Y12500813D01*
X5919774Y12511735D01*
X5910326Y12521539D01*
X5899607Y12529972D01*
X5887923Y12536881D01*
X5875426Y12542215D01*
X5862269Y12545771D01*
X5848807Y12547600D01*
X5835192Y12547600D01*
X5821730Y12545771D01*
X5808573Y12542215D01*
X5796076Y12536881D01*
X5784392Y12529972D01*
X5773674Y12521539D01*
X5764225Y12511735D01*
X5756148Y12500813D01*
X5749645Y12488875D01*
X5744718Y12476175D01*
X5741568Y12462916D01*
X5740247Y12449403D01*
X5740704Y12435789D01*
X5742940Y12422378D01*
X5746953Y12409424D01*
X5752693Y12397079D01*
X5760008Y12385598D01*
X5768797Y12375184D01*
X5778906Y12366091D01*
X5790082Y12358370D01*
X5802223Y12352274D01*
X5815076Y12347803D01*
X5828436Y12345060D01*
G37*
G36*
X6350000Y12344146D02*
G01*
X6363563Y12345060D01*
X6376924Y12347803D01*
X6389776Y12352274D01*
X6401917Y12358370D01*
X6413093Y12366091D01*
X6423202Y12375184D01*
X6431991Y12385598D01*
X6439306Y12397079D01*
X6445046Y12409424D01*
X6449060Y12422378D01*
X6451295Y12435789D01*
X6451752Y12449403D01*
X6450431Y12462916D01*
X6447282Y12476175D01*
X6442354Y12488875D01*
X6435852Y12500813D01*
X6427774Y12511735D01*
X6418326Y12521539D01*
X6407607Y12529972D01*
X6395923Y12536881D01*
X6383426Y12542215D01*
X6370269Y12545771D01*
X6356807Y12547600D01*
X6343192Y12547600D01*
X6329730Y12545771D01*
X6316573Y12542215D01*
X6304076Y12536881D01*
X6292392Y12529972D01*
X6281674Y12521539D01*
X6272225Y12511735D01*
X6264148Y12500813D01*
X6257645Y12488875D01*
X6252718Y12476175D01*
X6249568Y12462916D01*
X6248247Y12449403D01*
X6248704Y12435789D01*
X6250940Y12422378D01*
X6254953Y12409424D01*
X6260693Y12397079D01*
X6268008Y12385598D01*
X6276797Y12375184D01*
X6286906Y12366091D01*
X6298082Y12358370D01*
X6310223Y12352274D01*
X6323076Y12347803D01*
X6336436Y12345060D01*
G37*
G36*
X7366000Y12344146D02*
G01*
X7379563Y12345060D01*
X7392924Y12347803D01*
X7405776Y12352274D01*
X7417917Y12358370D01*
X7429093Y12366091D01*
X7439202Y12375184D01*
X7447991Y12385598D01*
X7455306Y12397079D01*
X7461046Y12409424D01*
X7465059Y12422378D01*
X7467295Y12435789D01*
X7467752Y12449403D01*
X7466431Y12462916D01*
X7463281Y12476175D01*
X7458354Y12488875D01*
X7451852Y12500813D01*
X7443774Y12511735D01*
X7434325Y12521539D01*
X7423607Y12529972D01*
X7411923Y12536881D01*
X7399426Y12542215D01*
X7386269Y12545771D01*
X7372807Y12547600D01*
X7359192Y12547600D01*
X7345730Y12545771D01*
X7332573Y12542215D01*
X7320076Y12536881D01*
X7308392Y12529972D01*
X7297674Y12521539D01*
X7288225Y12511735D01*
X7280148Y12500813D01*
X7273645Y12488875D01*
X7268718Y12476175D01*
X7265568Y12462916D01*
X7264247Y12449403D01*
X7264704Y12435789D01*
X7266940Y12422378D01*
X7270953Y12409424D01*
X7276693Y12397079D01*
X7284008Y12385598D01*
X7292797Y12375184D01*
X7302906Y12366091D01*
X7314082Y12358370D01*
X7326223Y12352274D01*
X7339075Y12347803D01*
X7352436Y12345060D01*
G37*
G36*
X5334000Y12344146D02*
G01*
X5347563Y12345060D01*
X5360924Y12347803D01*
X5373776Y12352274D01*
X5385917Y12358370D01*
X5397093Y12366091D01*
X5407202Y12375184D01*
X5415991Y12385598D01*
X5423306Y12397079D01*
X5429046Y12409424D01*
X5433060Y12422378D01*
X5435295Y12435789D01*
X5435752Y12449403D01*
X5434431Y12462916D01*
X5431282Y12476175D01*
X5426354Y12488875D01*
X5419852Y12500813D01*
X5411774Y12511735D01*
X5402326Y12521539D01*
X5391607Y12529972D01*
X5379923Y12536881D01*
X5367426Y12542215D01*
X5354269Y12545771D01*
X5340807Y12547600D01*
X5327192Y12547600D01*
X5313730Y12545771D01*
X5300573Y12542215D01*
X5288076Y12536881D01*
X5276392Y12529972D01*
X5265674Y12521539D01*
X5256225Y12511735D01*
X5248148Y12500813D01*
X5241645Y12488875D01*
X5236718Y12476175D01*
X5233568Y12462916D01*
X5232247Y12449403D01*
X5232704Y12435789D01*
X5234940Y12422378D01*
X5238953Y12409424D01*
X5244693Y12397079D01*
X5252008Y12385598D01*
X5260797Y12375184D01*
X5270906Y12366091D01*
X5282082Y12358370D01*
X5294223Y12352274D01*
X5307076Y12347803D01*
X5320436Y12345060D01*
G37*
G36*
X4826000Y12344146D02*
G01*
X4839563Y12345060D01*
X4852924Y12347803D01*
X4865776Y12352274D01*
X4877917Y12358370D01*
X4889093Y12366091D01*
X4899202Y12375184D01*
X4907991Y12385598D01*
X4915306Y12397079D01*
X4921046Y12409424D01*
X4925060Y12422378D01*
X4927295Y12435789D01*
X4927752Y12449403D01*
X4926431Y12462916D01*
X4923282Y12476175D01*
X4918354Y12488875D01*
X4911852Y12500813D01*
X4903774Y12511735D01*
X4894326Y12521539D01*
X4883607Y12529972D01*
X4871923Y12536881D01*
X4859426Y12542215D01*
X4846269Y12545771D01*
X4832807Y12547600D01*
X4819192Y12547600D01*
X4805730Y12545771D01*
X4792573Y12542215D01*
X4780076Y12536881D01*
X4768392Y12529972D01*
X4757674Y12521539D01*
X4748225Y12511735D01*
X4740148Y12500813D01*
X4733645Y12488875D01*
X4728718Y12476175D01*
X4725568Y12462916D01*
X4724247Y12449403D01*
X4724704Y12435789D01*
X4726940Y12422378D01*
X4730953Y12409424D01*
X4736693Y12397079D01*
X4744008Y12385598D01*
X4752797Y12375184D01*
X4762906Y12366091D01*
X4774082Y12358370D01*
X4786223Y12352274D01*
X4799076Y12347803D01*
X4812436Y12345060D01*
G37*
G36*
X7112000Y12344146D02*
G01*
X7125563Y12345060D01*
X7138924Y12347803D01*
X7151776Y12352274D01*
X7163917Y12358370D01*
X7175093Y12366091D01*
X7185202Y12375184D01*
X7193991Y12385598D01*
X7201306Y12397079D01*
X7207046Y12409424D01*
X7211059Y12422378D01*
X7213295Y12435789D01*
X7213752Y12449403D01*
X7212431Y12462916D01*
X7209281Y12476175D01*
X7204354Y12488875D01*
X7197852Y12500813D01*
X7189774Y12511735D01*
X7180325Y12521539D01*
X7169607Y12529972D01*
X7157923Y12536881D01*
X7145426Y12542215D01*
X7132269Y12545771D01*
X7118807Y12547600D01*
X7105192Y12547600D01*
X7091730Y12545771D01*
X7078573Y12542215D01*
X7066076Y12536881D01*
X7054392Y12529972D01*
X7043674Y12521539D01*
X7034225Y12511735D01*
X7026148Y12500813D01*
X7019645Y12488875D01*
X7014718Y12476175D01*
X7011568Y12462916D01*
X7010247Y12449403D01*
X7010704Y12435789D01*
X7012940Y12422378D01*
X7016953Y12409424D01*
X7022693Y12397079D01*
X7030008Y12385598D01*
X7038797Y12375184D01*
X7048906Y12366091D01*
X7060082Y12358370D01*
X7072223Y12352274D01*
X7085075Y12347803D01*
X7098436Y12345060D01*
G37*
G36*
X7874000Y12344146D02*
G01*
X7887563Y12345060D01*
X7900924Y12347803D01*
X7913776Y12352274D01*
X7925917Y12358370D01*
X7937093Y12366091D01*
X7947202Y12375184D01*
X7955991Y12385598D01*
X7963306Y12397079D01*
X7969046Y12409424D01*
X7973059Y12422378D01*
X7975295Y12435789D01*
X7975752Y12449403D01*
X7974431Y12462916D01*
X7971281Y12476175D01*
X7966354Y12488875D01*
X7959852Y12500813D01*
X7951774Y12511735D01*
X7942325Y12521539D01*
X7931607Y12529972D01*
X7919923Y12536881D01*
X7907426Y12542215D01*
X7894269Y12545771D01*
X7880807Y12547600D01*
X7867192Y12547600D01*
X7853730Y12545771D01*
X7840573Y12542215D01*
X7828076Y12536881D01*
X7816392Y12529972D01*
X7805674Y12521539D01*
X7796225Y12511735D01*
X7788148Y12500813D01*
X7781645Y12488875D01*
X7776718Y12476175D01*
X7773568Y12462916D01*
X7772247Y12449403D01*
X7772704Y12435789D01*
X7774940Y12422378D01*
X7778953Y12409424D01*
X7784693Y12397079D01*
X7792008Y12385598D01*
X7800797Y12375184D01*
X7810906Y12366091D01*
X7822082Y12358370D01*
X7834223Y12352274D01*
X7847075Y12347803D01*
X7860436Y12345060D01*
G37*
G36*
X6604000Y12344146D02*
G01*
X6617563Y12345060D01*
X6630924Y12347803D01*
X6643776Y12352274D01*
X6655917Y12358370D01*
X6667093Y12366091D01*
X6677202Y12375184D01*
X6685991Y12385598D01*
X6693306Y12397079D01*
X6699046Y12409424D01*
X6703059Y12422378D01*
X6705295Y12435789D01*
X6705752Y12449403D01*
X6704431Y12462916D01*
X6701281Y12476175D01*
X6696354Y12488875D01*
X6689852Y12500813D01*
X6681774Y12511735D01*
X6672325Y12521539D01*
X6661607Y12529972D01*
X6649923Y12536881D01*
X6637426Y12542215D01*
X6624269Y12545771D01*
X6610807Y12547600D01*
X6597192Y12547600D01*
X6583730Y12545771D01*
X6570573Y12542215D01*
X6558076Y12536881D01*
X6546392Y12529972D01*
X6535674Y12521539D01*
X6526225Y12511735D01*
X6518148Y12500813D01*
X6511645Y12488875D01*
X6506718Y12476175D01*
X6503568Y12462916D01*
X6502247Y12449403D01*
X6502704Y12435789D01*
X6504940Y12422378D01*
X6508953Y12409424D01*
X6514693Y12397079D01*
X6522008Y12385598D01*
X6530797Y12375184D01*
X6540906Y12366091D01*
X6552082Y12358370D01*
X6564223Y12352274D01*
X6577075Y12347803D01*
X6590436Y12345060D01*
G37*
G36*
X3556000Y12344146D02*
G01*
X3569563Y12345060D01*
X3582924Y12347803D01*
X3595776Y12352274D01*
X3607917Y12358370D01*
X3619093Y12366091D01*
X3629202Y12375184D01*
X3637991Y12385598D01*
X3645306Y12397079D01*
X3651046Y12409424D01*
X3655060Y12422378D01*
X3657295Y12435789D01*
X3657752Y12449403D01*
X3656431Y12462916D01*
X3653282Y12476175D01*
X3648354Y12488875D01*
X3641851Y12500813D01*
X3633774Y12511735D01*
X3624326Y12521539D01*
X3613607Y12529972D01*
X3601923Y12536881D01*
X3589426Y12542215D01*
X3576269Y12545771D01*
X3562807Y12547600D01*
X3549192Y12547600D01*
X3535730Y12545771D01*
X3522573Y12542215D01*
X3510076Y12536881D01*
X3498392Y12529972D01*
X3487674Y12521539D01*
X3478225Y12511735D01*
X3470148Y12500813D01*
X3463645Y12488875D01*
X3458718Y12476175D01*
X3455568Y12462916D01*
X3454247Y12449403D01*
X3454704Y12435789D01*
X3456940Y12422378D01*
X3460953Y12409424D01*
X3466693Y12397079D01*
X3474008Y12385598D01*
X3482797Y12375184D01*
X3492906Y12366091D01*
X3504082Y12358370D01*
X3516223Y12352274D01*
X3529076Y12347803D01*
X3542436Y12345060D01*
G37*
G36*
X3810000Y12344146D02*
G01*
X3823563Y12345060D01*
X3836924Y12347803D01*
X3849776Y12352274D01*
X3861917Y12358370D01*
X3873093Y12366091D01*
X3883202Y12375184D01*
X3891991Y12385598D01*
X3899306Y12397079D01*
X3905046Y12409424D01*
X3909060Y12422378D01*
X3911295Y12435789D01*
X3911752Y12449403D01*
X3910431Y12462916D01*
X3907282Y12476175D01*
X3902354Y12488875D01*
X3895851Y12500813D01*
X3887774Y12511735D01*
X3878326Y12521539D01*
X3867607Y12529972D01*
X3855923Y12536881D01*
X3843426Y12542215D01*
X3830269Y12545771D01*
X3816807Y12547600D01*
X3803192Y12547600D01*
X3789730Y12545771D01*
X3776573Y12542215D01*
X3764076Y12536881D01*
X3752392Y12529972D01*
X3741674Y12521539D01*
X3732225Y12511735D01*
X3724148Y12500813D01*
X3717645Y12488875D01*
X3712718Y12476175D01*
X3709568Y12462916D01*
X3708247Y12449403D01*
X3708704Y12435789D01*
X3710940Y12422378D01*
X3714953Y12409424D01*
X3720693Y12397079D01*
X3728008Y12385598D01*
X3736797Y12375184D01*
X3746906Y12366091D01*
X3758082Y12358370D01*
X3770223Y12352274D01*
X3783076Y12347803D01*
X3796436Y12345060D01*
G37*
G36*
X8128000Y12344146D02*
G01*
X8141563Y12345060D01*
X8154924Y12347803D01*
X8167776Y12352274D01*
X8179917Y12358370D01*
X8191093Y12366091D01*
X8201202Y12375184D01*
X8209991Y12385598D01*
X8217306Y12397079D01*
X8223046Y12409424D01*
X8227059Y12422378D01*
X8229295Y12435789D01*
X8229752Y12449403D01*
X8228431Y12462916D01*
X8225281Y12476175D01*
X8220354Y12488875D01*
X8213852Y12500813D01*
X8205774Y12511735D01*
X8196325Y12521539D01*
X8185607Y12529972D01*
X8173923Y12536881D01*
X8161426Y12542215D01*
X8148269Y12545771D01*
X8134807Y12547600D01*
X8121192Y12547600D01*
X8107730Y12545771D01*
X8094573Y12542215D01*
X8082076Y12536881D01*
X8070392Y12529972D01*
X8059674Y12521539D01*
X8050225Y12511735D01*
X8042148Y12500813D01*
X8035645Y12488875D01*
X8030718Y12476175D01*
X8027568Y12462916D01*
X8026247Y12449403D01*
X8026704Y12435789D01*
X8028940Y12422378D01*
X8032953Y12409424D01*
X8038693Y12397079D01*
X8046008Y12385598D01*
X8054797Y12375184D01*
X8064906Y12366091D01*
X8076082Y12358370D01*
X8088223Y12352274D01*
X8101075Y12347803D01*
X8114436Y12345060D01*
G37*
G36*
X8636000Y12344146D02*
G01*
X8649563Y12345060D01*
X8662924Y12347803D01*
X8675776Y12352274D01*
X8687917Y12358370D01*
X8699093Y12366091D01*
X8709202Y12375184D01*
X8717991Y12385598D01*
X8725306Y12397079D01*
X8731046Y12409424D01*
X8735060Y12422378D01*
X8737295Y12435789D01*
X8737752Y12449403D01*
X8736431Y12462916D01*
X8733282Y12476175D01*
X8728354Y12488875D01*
X8721852Y12500813D01*
X8713774Y12511735D01*
X8704326Y12521539D01*
X8693607Y12529972D01*
X8681923Y12536881D01*
X8669426Y12542215D01*
X8656269Y12545771D01*
X8642807Y12547600D01*
X8629192Y12547600D01*
X8615730Y12545771D01*
X8602573Y12542215D01*
X8590076Y12536881D01*
X8578392Y12529972D01*
X8567674Y12521539D01*
X8558225Y12511735D01*
X8550148Y12500813D01*
X8543645Y12488875D01*
X8538718Y12476175D01*
X8535568Y12462916D01*
X8534247Y12449403D01*
X8534704Y12435789D01*
X8536940Y12422378D01*
X8540953Y12409424D01*
X8546693Y12397079D01*
X8554008Y12385598D01*
X8562797Y12375184D01*
X8572906Y12366091D01*
X8584082Y12358370D01*
X8596223Y12352274D01*
X8609076Y12347803D01*
X8622436Y12345060D01*
G37*
G36*
X3048000Y12344146D02*
G01*
X3061563Y12345060D01*
X3074924Y12347803D01*
X3087776Y12352274D01*
X3099917Y12358370D01*
X3111093Y12366091D01*
X3121202Y12375184D01*
X3129991Y12385598D01*
X3137306Y12397079D01*
X3143046Y12409424D01*
X3147060Y12422378D01*
X3149295Y12435789D01*
X3149752Y12449403D01*
X3148431Y12462916D01*
X3145282Y12476175D01*
X3140354Y12488875D01*
X3133852Y12500813D01*
X3125774Y12511735D01*
X3116326Y12521539D01*
X3105607Y12529972D01*
X3093923Y12536881D01*
X3081426Y12542215D01*
X3068269Y12545771D01*
X3054807Y12547600D01*
X3041192Y12547600D01*
X3027730Y12545771D01*
X3014573Y12542215D01*
X3002076Y12536881D01*
X2990392Y12529972D01*
X2979674Y12521539D01*
X2970225Y12511735D01*
X2962148Y12500813D01*
X2955645Y12488875D01*
X2950718Y12476175D01*
X2947568Y12462916D01*
X2946247Y12449403D01*
X2946704Y12435789D01*
X2948940Y12422378D01*
X2952953Y12409424D01*
X2958693Y12397079D01*
X2966008Y12385598D01*
X2974797Y12375184D01*
X2984906Y12366091D01*
X2996082Y12358370D01*
X3008223Y12352274D01*
X3021076Y12347803D01*
X3034436Y12345060D01*
G37*
G36*
X7620000Y12344146D02*
G01*
X7633563Y12345060D01*
X7646924Y12347803D01*
X7659776Y12352274D01*
X7671917Y12358370D01*
X7683093Y12366091D01*
X7693202Y12375184D01*
X7701991Y12385598D01*
X7709306Y12397079D01*
X7715046Y12409424D01*
X7719059Y12422378D01*
X7721295Y12435789D01*
X7721752Y12449403D01*
X7720431Y12462916D01*
X7717281Y12476175D01*
X7712354Y12488875D01*
X7705852Y12500813D01*
X7697774Y12511735D01*
X7688325Y12521539D01*
X7677607Y12529972D01*
X7665923Y12536881D01*
X7653426Y12542215D01*
X7640269Y12545771D01*
X7626807Y12547600D01*
X7613192Y12547600D01*
X7599730Y12545771D01*
X7586573Y12542215D01*
X7574076Y12536881D01*
X7562392Y12529972D01*
X7551674Y12521539D01*
X7542225Y12511735D01*
X7534148Y12500813D01*
X7527645Y12488875D01*
X7522718Y12476175D01*
X7519568Y12462916D01*
X7518247Y12449403D01*
X7518704Y12435789D01*
X7520940Y12422378D01*
X7524953Y12409424D01*
X7530693Y12397079D01*
X7538008Y12385598D01*
X7546797Y12375184D01*
X7556906Y12366091D01*
X7568082Y12358370D01*
X7580223Y12352274D01*
X7593075Y12347803D01*
X7606436Y12345060D01*
G37*
G36*
X3302000Y12344146D02*
G01*
X3315563Y12345060D01*
X3328924Y12347803D01*
X3341776Y12352274D01*
X3353917Y12358370D01*
X3365093Y12366091D01*
X3375202Y12375184D01*
X3383991Y12385598D01*
X3391306Y12397079D01*
X3397046Y12409424D01*
X3401060Y12422378D01*
X3403295Y12435789D01*
X3403752Y12449403D01*
X3402431Y12462916D01*
X3399282Y12476175D01*
X3394354Y12488875D01*
X3387851Y12500813D01*
X3379774Y12511735D01*
X3370326Y12521539D01*
X3359607Y12529972D01*
X3347923Y12536881D01*
X3335426Y12542215D01*
X3322269Y12545771D01*
X3308807Y12547600D01*
X3295192Y12547600D01*
X3281730Y12545771D01*
X3268573Y12542215D01*
X3256076Y12536881D01*
X3244392Y12529972D01*
X3233674Y12521539D01*
X3224225Y12511735D01*
X3216148Y12500813D01*
X3209645Y12488875D01*
X3204718Y12476175D01*
X3201568Y12462916D01*
X3200247Y12449403D01*
X3200704Y12435789D01*
X3202940Y12422378D01*
X3206953Y12409424D01*
X3212693Y12397079D01*
X3220008Y12385598D01*
X3228797Y12375184D01*
X3238906Y12366091D01*
X3250082Y12358370D01*
X3262223Y12352274D01*
X3275076Y12347803D01*
X3288436Y12345060D01*
G37*
G36*
X6096000Y12344146D02*
G01*
X6109563Y12345060D01*
X6122924Y12347803D01*
X6135776Y12352274D01*
X6147917Y12358370D01*
X6159093Y12366091D01*
X6169202Y12375184D01*
X6177991Y12385598D01*
X6185306Y12397079D01*
X6191046Y12409424D01*
X6195060Y12422378D01*
X6197295Y12435789D01*
X6197752Y12449403D01*
X6196431Y12462916D01*
X6193282Y12476175D01*
X6188354Y12488875D01*
X6181852Y12500813D01*
X6173774Y12511735D01*
X6164326Y12521539D01*
X6153607Y12529972D01*
X6141923Y12536881D01*
X6129426Y12542215D01*
X6116269Y12545771D01*
X6102807Y12547600D01*
X6089192Y12547600D01*
X6075730Y12545771D01*
X6062573Y12542215D01*
X6050076Y12536881D01*
X6038392Y12529972D01*
X6027674Y12521539D01*
X6018225Y12511735D01*
X6010148Y12500813D01*
X6003645Y12488875D01*
X5998718Y12476175D01*
X5995568Y12462916D01*
X5994247Y12449403D01*
X5994704Y12435789D01*
X5996940Y12422378D01*
X6000953Y12409424D01*
X6006693Y12397079D01*
X6014008Y12385598D01*
X6022797Y12375184D01*
X6032906Y12366091D01*
X6044082Y12358370D01*
X6056223Y12352274D01*
X6069076Y12347803D01*
X6082436Y12345060D01*
G37*
G36*
X8382000Y12344146D02*
G01*
X8395563Y12345060D01*
X8408924Y12347803D01*
X8421776Y12352274D01*
X8433917Y12358370D01*
X8445093Y12366091D01*
X8455202Y12375184D01*
X8463991Y12385598D01*
X8471306Y12397079D01*
X8477046Y12409424D01*
X8481060Y12422378D01*
X8483295Y12435789D01*
X8483752Y12449403D01*
X8482431Y12462916D01*
X8479282Y12476175D01*
X8474354Y12488875D01*
X8467852Y12500813D01*
X8459774Y12511735D01*
X8450326Y12521539D01*
X8439607Y12529972D01*
X8427923Y12536881D01*
X8415426Y12542215D01*
X8402269Y12545771D01*
X8388807Y12547600D01*
X8375192Y12547600D01*
X8361730Y12545771D01*
X8348573Y12542215D01*
X8336076Y12536881D01*
X8324392Y12529972D01*
X8313674Y12521539D01*
X8304225Y12511735D01*
X8296148Y12500813D01*
X8289645Y12488875D01*
X8284718Y12476175D01*
X8281568Y12462916D01*
X8280247Y12449403D01*
X8280704Y12435789D01*
X8282940Y12422378D01*
X8286953Y12409424D01*
X8292693Y12397079D01*
X8300008Y12385598D01*
X8308797Y12375184D01*
X8318906Y12366091D01*
X8330082Y12358370D01*
X8342223Y12352274D01*
X8355075Y12347803D01*
X8368436Y12345060D01*
G37*
G36*
X8845550Y12354610D02*
G01*
X8845550Y12401550D01*
X8798610Y12401550D01*
X8800693Y12397079D01*
X8808008Y12385598D01*
X8816797Y12375184D01*
X8826906Y12366091D01*
X8838082Y12358370D01*
G37*
G36*
X8934450Y12354610D02*
G01*
X8941917Y12358370D01*
X8953093Y12366091D01*
X8963202Y12375184D01*
X8971991Y12385598D01*
X8979306Y12397079D01*
X8981389Y12401550D01*
X8934450Y12401550D01*
G37*
G36*
X8798509Y12490450D02*
G01*
X8845550Y12490450D01*
X8845550Y12537490D01*
X8844076Y12536881D01*
X8832392Y12529972D01*
X8821674Y12521539D01*
X8812225Y12511735D01*
X8804148Y12500813D01*
G37*
G36*
X8934450Y12490450D02*
G01*
X8981490Y12490450D01*
X8975852Y12500813D01*
X8967774Y12511735D01*
X8958326Y12521539D01*
X8947607Y12529972D01*
X8935923Y12536881D01*
X8934450Y12537490D01*
G37*
G36*
X8762441Y12654127D02*
G01*
X8763558Y12654127D01*
X8838438Y12664186D01*
X8883446Y12679273D01*
X8943340Y12714274D01*
X8973312Y12739420D01*
X9013240Y12789408D01*
X9038183Y12834518D01*
X9058046Y12899542D01*
X9062923Y12954457D01*
X9057843Y13009524D01*
X9038183Y13073481D01*
X9003233Y13133628D01*
X8973362Y13168630D01*
X8928303Y13203783D01*
X8883396Y13228777D01*
X8838438Y13243864D01*
X8763660Y13253923D01*
X8762339Y13253923D01*
X8687562Y13243864D01*
X8642604Y13228777D01*
X8597696Y13203783D01*
X8553450Y13169392D01*
X8513267Y13119354D01*
X8487816Y13073532D01*
X8467953Y13008508D01*
X8463076Y12953542D01*
X8468156Y12898526D01*
X8487816Y12834518D01*
X8513368Y12788595D01*
X8553196Y12743789D01*
X8597595Y12704368D01*
X8642553Y12679273D01*
X8707526Y12659207D01*
G37*
G36*
X3174441Y12654127D02*
G01*
X3175558Y12654127D01*
X3250438Y12664186D01*
X3295446Y12679273D01*
X3355340Y12714274D01*
X3385312Y12739420D01*
X3425240Y12789408D01*
X3450183Y12834518D01*
X3470046Y12899542D01*
X3474923Y12954457D01*
X3469843Y13009524D01*
X3450183Y13073481D01*
X3415233Y13133628D01*
X3385362Y13168630D01*
X3340303Y13203783D01*
X3295396Y13228777D01*
X3250438Y13243864D01*
X3175660Y13253923D01*
X3174339Y13253923D01*
X3099562Y13243864D01*
X3054604Y13228777D01*
X3009696Y13203783D01*
X2965450Y13169392D01*
X2925267Y13119354D01*
X2899816Y13073532D01*
X2879953Y13008508D01*
X2875076Y12953542D01*
X2880156Y12898526D01*
X2899816Y12834518D01*
X2925368Y12788595D01*
X2965145Y12743789D01*
X3009595Y12704368D01*
X3054553Y12679273D01*
X3119526Y12659207D01*
G37*
G36*
X7176058Y12825628D02*
G01*
X7214108Y12825628D01*
X7220407Y12826339D01*
X7225792Y12828219D01*
X7230668Y12831318D01*
X7234681Y12835331D01*
X7237780Y12840208D01*
X7239660Y12845592D01*
X7240371Y12851892D01*
X7240371Y12889941D01*
X7176058Y12889941D01*
G37*
G36*
X7035292Y12825628D02*
G01*
X7073341Y12825628D01*
X7073341Y12889941D01*
X7009028Y12889941D01*
X7009028Y12851892D01*
X7009739Y12845592D01*
X7011670Y12840208D01*
X7014718Y12835331D01*
X7018731Y12831318D01*
X7023608Y12828219D01*
X7028992Y12826339D01*
G37*
G36*
X7371435Y12825882D02*
G01*
X7385964Y12825882D01*
X7400391Y12827711D01*
X7414412Y12831318D01*
X7427925Y12836652D01*
X7440675Y12843662D01*
X7452410Y12852196D01*
X7462977Y12862153D01*
X7472273Y12873329D01*
X7480046Y12885572D01*
X7486192Y12898729D01*
X7490714Y12912547D01*
X7493406Y12926822D01*
X7494320Y12941300D01*
X7493406Y12955778D01*
X7490714Y12970052D01*
X7486192Y12983870D01*
X7480046Y12997027D01*
X7472273Y13009270D01*
X7462977Y13020446D01*
X7452410Y13030403D01*
X7440675Y13038937D01*
X7427925Y13045948D01*
X7414412Y13051282D01*
X7400391Y13054888D01*
X7385964Y13056717D01*
X7371435Y13056717D01*
X7357008Y13054888D01*
X7342987Y13051282D01*
X7329474Y13045948D01*
X7316724Y13038937D01*
X7304989Y13030403D01*
X7294422Y13020446D01*
X7285126Y13009270D01*
X7277353Y12997027D01*
X7271207Y12983870D01*
X7266686Y12970052D01*
X7263993Y12955778D01*
X7263079Y12941300D01*
X7263993Y12926822D01*
X7266686Y12912547D01*
X7271207Y12898729D01*
X7277353Y12885572D01*
X7285126Y12873329D01*
X7294422Y12862153D01*
X7304989Y12852196D01*
X7316724Y12843662D01*
X7329474Y12836652D01*
X7342987Y12831318D01*
X7357008Y12827711D01*
G37*
G36*
X3710584Y12828320D02*
G01*
X3909415Y12828320D01*
X3915714Y12829032D01*
X3921099Y12830962D01*
X3925976Y12834010D01*
X3929989Y12838023D01*
X3933037Y12842900D01*
X3934968Y12848285D01*
X3935679Y12854584D01*
X3935679Y12887452D01*
X3936593Y12891719D01*
X3939235Y12895173D01*
X3943096Y12897256D01*
X3947464Y12897510D01*
X3951478Y12895884D01*
X3954526Y12892735D01*
X3960622Y12882626D01*
X3969969Y12870688D01*
X3980687Y12859969D01*
X3992626Y12850622D01*
X4005630Y12842748D01*
X4019448Y12836550D01*
X4033926Y12832029D01*
X4048861Y12829286D01*
X4064000Y12828371D01*
X4079138Y12829286D01*
X4094073Y12832029D01*
X4108551Y12836550D01*
X4122369Y12842748D01*
X4135374Y12850622D01*
X4147312Y12859969D01*
X4158030Y12870688D01*
X4167378Y12882626D01*
X4175251Y12895630D01*
X4181449Y12909448D01*
X4185970Y12923926D01*
X4188714Y12938861D01*
X4189628Y12954000D01*
X4188714Y12969138D01*
X4185970Y12984073D01*
X4181449Y12998551D01*
X4175251Y13012369D01*
X4167378Y13025374D01*
X4158030Y13037312D01*
X4147312Y13048030D01*
X4135374Y13057378D01*
X4122369Y13065252D01*
X4108551Y13071449D01*
X4094073Y13075970D01*
X4079138Y13078713D01*
X4064000Y13079628D01*
X4048861Y13078713D01*
X4033926Y13075970D01*
X4019448Y13071449D01*
X4005630Y13065252D01*
X3992626Y13057378D01*
X3980687Y13048030D01*
X3969969Y13037312D01*
X3960622Y13025374D01*
X3954526Y13015264D01*
X3951478Y13012115D01*
X3947464Y13010489D01*
X3943096Y13010743D01*
X3939235Y13012826D01*
X3936593Y13016280D01*
X3935679Y13020548D01*
X3935679Y13053415D01*
X3934968Y13059714D01*
X3933037Y13065099D01*
X3929989Y13069976D01*
X3925976Y13073989D01*
X3921099Y13077037D01*
X3915714Y13078968D01*
X3909415Y13079628D01*
X3710584Y13079628D01*
X3704285Y13078968D01*
X3698900Y13077037D01*
X3694023Y13073989D01*
X3690010Y13069976D01*
X3686962Y13065099D01*
X3685032Y13059714D01*
X3684371Y13053415D01*
X3684371Y12854584D01*
X3685032Y12848285D01*
X3686962Y12842900D01*
X3690010Y12838023D01*
X3694023Y12834010D01*
X3698900Y12830962D01*
X3704285Y12829032D01*
G37*
G36*
X7009028Y12992658D02*
G01*
X7073341Y12992658D01*
X7073341Y13056971D01*
X7035292Y13056971D01*
X7028992Y13056260D01*
X7023608Y13054330D01*
X7018731Y13051282D01*
X7014718Y13047268D01*
X7011670Y13042392D01*
X7009739Y13037007D01*
X7009028Y13030708D01*
G37*
G36*
X7176058Y12992658D02*
G01*
X7240371Y12992658D01*
X7240371Y13030708D01*
X7239660Y13037007D01*
X7237780Y13042392D01*
X7234681Y13047268D01*
X7230668Y13051282D01*
X7225792Y13054330D01*
X7220407Y13056260D01*
X7214108Y13056971D01*
X7176058Y13056971D01*
G37*

%LPD*%
D11*
X3378200Y10693400D02*
G01*
X5651500Y10693400D01*
X6197600Y10147300D01*
X3302000Y10414000D02*
G01*
X3302000Y10616945D01*
X3378200Y10693400D01*
X4419600Y10210800D02*
G01*
X4483100Y10147300D01*
X5283200Y10147300D01*
X4540722Y10693400D02*
G01*
X4534408Y10687088D01*
X4534408Y10621007D01*
X4534408Y10621007D02*
G01*
X4606764Y10693400D01*
X4463244Y10693400D02*
G01*
X4534308Y10621037D01*
X4533900Y10299700D01*
X6197600Y10147300D02*
G01*
X8788400Y10147300D01*
X8890000Y10248900D01*
X8890000Y10922000D01*
X7112000Y10414000D02*
G01*
X6731000Y10795000D01*
X6731000Y12319000D01*
X6858000Y12446000D01*
G36*
X3710000Y13053999D02*
G01*
X3909999Y13053999D01*
X3909999Y12854000D01*
X3710000Y12854000D01*
G37*
D21*
G01*
X4064000Y12954000D03*
D22*
G01*
X7378700Y12941300D03*
G36*
X7034700Y13031299D02*
G01*
X7214699Y13031299D01*
X7214699Y12851300D01*
X7034700Y12851300D01*
G37*
G36*
X2948000Y10513999D02*
G01*
X3147999Y10513999D01*
X3147999Y10314000D01*
X2948000Y10314000D01*
G37*
D21*
G01*
X3302000Y10414000D03*
D24*
G01*
X8890000Y12446000D03*
G01*
X8636000Y12446000D03*
G01*
X8382000Y12446000D03*
G01*
X8128000Y12446000D03*
G01*
X7874000Y12446000D03*
G01*
X7620000Y12446000D03*
G01*
X7366000Y12446000D03*
G01*
X7112000Y12446000D03*
G01*
X6858000Y12446000D03*
G01*
X6604000Y12446000D03*
G01*
X6350000Y12446000D03*
G01*
X6096000Y12446000D03*
G01*
X5842000Y12446000D03*
G01*
X5588000Y12446000D03*
G01*
X5334000Y12446000D03*
G01*
X5080000Y12446000D03*
G01*
X4826000Y12446000D03*
G01*
X4572000Y12446000D03*
G01*
X4318000Y12446000D03*
G01*
X4064000Y12446000D03*
G01*
X3810000Y12446000D03*
G01*
X3556000Y12446000D03*
G01*
X3302000Y12446000D03*
G01*
X3048000Y12446000D03*
G01*
X3048000Y10922000D03*
G01*
X3302000Y10922000D03*
G01*
X3556000Y10922000D03*
G01*
X3810000Y10922000D03*
G01*
X4064000Y10922000D03*
G01*
X4318000Y10922000D03*
G01*
X4572000Y10922000D03*
G01*
X4826000Y10922000D03*
G01*
X5080000Y10922000D03*
G01*
X5334000Y10922000D03*
G01*
X5588000Y10922000D03*
G01*
X5842000Y10922000D03*
G01*
X6096000Y10922000D03*
G01*
X6350000Y10922000D03*
G01*
X6604000Y10922000D03*
G01*
X6858000Y10922000D03*
G01*
X7112000Y10922000D03*
G01*
X7366000Y10922000D03*
G01*
X7620000Y10922000D03*
G01*
X7874000Y10922000D03*
G01*
X8128000Y10922000D03*
G01*
X8382000Y10922000D03*
G01*
X8636000Y10922000D03*
G01*
X8890000Y10922000D03*
G01*
X4318000Y12192000D03*
G01*
X4318000Y11938000D03*
G01*
X4318000Y11684000D03*
G01*
X4318000Y11430000D03*
G01*
X4318000Y11176000D03*
D25*
G01*
X7366000Y8369300D03*
G01*
X7620000Y8369300D03*
D26*
G01*
X7874000Y8369300D03*
D27*
G01*
X8890000Y10414000D03*
D28*
G01*
X8636000Y10414000D03*
G01*
X8382000Y10414000D03*
G01*
X8128000Y10414000D03*
G01*
X7874000Y10414000D03*
G01*
X7620000Y10414000D03*
G01*
X7366000Y10414000D03*
G01*
X7112000Y10414000D03*
G01*
X6858000Y10414000D03*
G01*
X6604000Y10414000D03*
G01*
X6350000Y10414000D03*
D14*
G01*
X5283200Y10147300D03*
G01*
X4419600Y10210800D03*
G01*
X4533900Y10299700D03*
D29*
X4652899Y9124200D02*
G01*
X4652899Y9054200D01*
X3652900Y9124200D02*
G01*
X3652900Y9054200D01*
X4402912Y9054200D02*
G01*
X4402912Y9124200D01*
X3902913Y9054200D02*
G01*
X3902913Y9124200D01*
X4117901Y8589200D02*
G01*
X4187901Y8589200D01*
X5922899Y9124200D02*
G01*
X5922899Y9054200D01*
X4922900Y9124200D02*
G01*
X4922900Y9054200D01*
X5672912Y9054200D02*
G01*
X5672912Y9124200D01*
X5172913Y9054200D02*
G01*
X5172913Y9124200D01*
X5387901Y8589200D02*
G01*
X5457901Y8589200D01*
M02*
