M48
METRIC,LZ,000.000
;FILE_FORMAT=3:3
;TYPE=PLATED
;Layer: Drill PTH
;EasyEDA v6.4.19.5, 2021-06-07T17:49:31+02:00
;02fad353412f469a856546c9d14cec11,563db0ff5b334ec4995e7372edb549dc,10
;Gerber Generator version 0.2
;Holesize 1 = 0.701 mm
T01C0.701
;Holesize 2 = 0.889 mm
T02C0.889
;Holesize 3 = 0.915 mm
T03C0.915
%
G05
G90
T01
X014729Y077901G85X014729Y077200
X023369Y077901G85X023369Y077200
X014729Y081701G85X014729Y081000
X023369Y081701G85X023369Y081000
T02
X011430Y073660
X008890Y073660
X011430Y071120
X008890Y071120
X011430Y068580
X008890Y068580
X011430Y066040
X008890Y066040
X020320Y062230
X020320Y059690
X022860Y062230
X022860Y059690
T03
X015240Y062230
X017780Y062230
X015240Y059690
X017780Y059690
M30
