G04 Layer: TopSolderMaskLayer*
G04 EasyEDA v6.4.19.5, 2021-06-07T17:49:31+02:00*
G04 02fad353412f469a856546c9d14cec11,563db0ff5b334ec4995e7372edb549dc,10*
G04 Gerber Generator version 0.2*
G04 Scale: 100 percent, Rotated: No, Reflected: No *
G04 Dimensions in millimeters *
G04 leading zeros omitted , absolute positions ,4 integer and 5 decimal *
%FSLAX45Y45*%
%MOMM*%

%ADD28C,1.2016*%
%ADD36C,1.6256*%
%ADD37R,1.6764X1.6764*%
%ADD38C,1.6764*%

%LPD*%
D28*
X1472895Y7720050D02*
G01*
X1472895Y7790050D01*
X2336901Y7720050D02*
G01*
X2336901Y7790050D01*
X1472895Y8100034D02*
G01*
X1472895Y8170034D01*
X2336901Y8100034D02*
G01*
X2336901Y8170034D01*
G36*
X2017522Y7099045D02*
G01*
X2017522Y7343394D01*
X2125472Y7343394D01*
X2125472Y7099045D01*
G37*
G36*
X1787397Y7099045D02*
G01*
X1787397Y7343394D01*
X1895602Y7343394D01*
X1895602Y7099045D01*
G37*
G36*
X1557528Y7099045D02*
G01*
X1557528Y7343394D01*
X1665478Y7343394D01*
X1665478Y7099045D01*
G37*
G36*
X1656334Y6525005D02*
G01*
X1656334Y6769354D01*
X2026665Y6769354D01*
X2026665Y6525005D01*
G37*
G36*
X1584960Y7660131D02*
G01*
X1584960Y7820152D01*
X1675129Y7820152D01*
X1675129Y7660131D01*
G37*
G36*
X1709928Y7660131D02*
G01*
X1709928Y7820152D01*
X1796034Y7820152D01*
X1796034Y7660131D01*
G37*
G36*
X1814829Y7660131D02*
G01*
X1814829Y7820152D01*
X1895094Y7820152D01*
X1895094Y7660131D01*
G37*
G36*
X1914905Y7660131D02*
G01*
X1914905Y7820152D01*
X1995170Y7820152D01*
X1995170Y7660131D01*
G37*
G36*
X2013965Y7660131D02*
G01*
X2013965Y7820152D01*
X2100072Y7820152D01*
X2100072Y7660131D01*
G37*
G36*
X2134870Y7660131D02*
G01*
X2134870Y7820152D01*
X2225040Y7820152D01*
X2225040Y7660131D01*
G37*
G36*
X2325877Y6556247D02*
G01*
X2325877Y6702297D01*
X2486152Y6702297D01*
X2486152Y6556247D01*
G37*
G36*
X2085847Y6556247D02*
G01*
X2085847Y6702297D01*
X2246122Y6702297D01*
X2246122Y6556247D01*
G37*
G36*
X1577847Y7419847D02*
G01*
X1577847Y7565897D01*
X1738121Y7565897D01*
X1738121Y7419847D01*
G37*
G36*
X1817878Y7419847D02*
G01*
X1817878Y7565897D01*
X1978152Y7565897D01*
X1978152Y7419847D01*
G37*
G36*
X1442720Y6141720D02*
G01*
X1442720Y6304279D01*
X1605279Y6304279D01*
X1605279Y6141720D01*
G37*
D36*
G01*
X1778000Y6223000D03*
G01*
X1524000Y5969000D03*
G01*
X1778000Y5969000D03*
D37*
G01*
X1143000Y7366000D03*
D38*
G01*
X889000Y7366000D03*
D37*
G01*
X1143000Y7112000D03*
D38*
G01*
X889000Y7112000D03*
D37*
G01*
X1143000Y6858000D03*
D38*
G01*
X889000Y6858000D03*
D37*
G01*
X1143000Y6604000D03*
D38*
G01*
X889000Y6604000D03*
G36*
X1948179Y6139179D02*
G01*
X1948179Y6306820D01*
X2115820Y6306820D01*
X2115820Y6139179D01*
G37*
G01*
X2032000Y5969000D03*
G36*
X2202179Y6139179D02*
G01*
X2202179Y6306820D01*
X2369820Y6306820D01*
X2369820Y6139179D01*
G37*
G01*
X2286000Y5969000D03*
M02*
