G04 Layer: BottomSilkLayer*
G04 EasyEDA v6.4.19.5, 2021-06-04T13:03:27+02:00*
G04 efa6938f2177404b8bb2681d1be77202,563db0ff5b334ec4995e7372edb549dc,10*
G04 Gerber Generator version 0.2*
G04 Scale: 100 percent, Rotated: No, Reflected: No *
G04 Dimensions in millimeters *
G04 leading zeros omitted , absolute positions ,4 integer and 5 decimal *
%FSLAX45Y45*%
%MOMM*%

%ADD10C,0.2540*%
%ADD28C,0.1524*%
%ADD29C,0.1501*%
%ADD30C,0.1270*%
%ADD31C,0.2032*%
%ADD32C,0.2030*%
%ADD33C,1.0000*%

%LPD*%
D28*
X6273800Y-1624561D02*
G01*
X6273800Y-1702493D01*
X6268605Y-1718078D01*
X6258214Y-1728470D01*
X6242626Y-1733664D01*
X6232235Y-1733664D01*
X6216650Y-1728470D01*
X6206258Y-1718078D01*
X6201064Y-1702493D01*
X6201064Y-1624561D01*
X6166774Y-1645343D02*
G01*
X6156383Y-1640146D01*
X6140795Y-1624561D01*
X6140795Y-1733664D01*
D29*
X3790950Y-2595371D02*
G01*
X3790950Y-2662173D01*
X3790950Y-2595371D02*
G01*
X3765550Y-2662173D01*
X3740150Y-2595371D02*
G01*
X3765550Y-2662173D01*
X3740150Y-2595371D02*
G01*
X3740150Y-2662173D01*
X3719068Y-2595371D02*
G01*
X3719068Y-2662173D01*
X3674618Y-2595371D02*
G01*
X3719068Y-2639821D01*
X3703320Y-2624073D02*
G01*
X3674618Y-2662173D01*
X3615436Y-2604770D02*
G01*
X3618484Y-2598420D01*
X3628136Y-2595371D01*
X3634486Y-2595371D01*
X3644138Y-2598420D01*
X3650488Y-2608071D01*
X3653536Y-2624073D01*
X3653536Y-2639821D01*
X3650488Y-2652521D01*
X3644138Y-2658871D01*
X3634486Y-2662173D01*
X3631184Y-2662173D01*
X3621786Y-2658871D01*
X3615436Y-2652521D01*
X3612134Y-2643123D01*
X3612134Y-2639821D01*
X3615436Y-2630423D01*
X3621786Y-2624073D01*
X3631184Y-2620771D01*
X3634486Y-2620771D01*
X3644138Y-2624073D01*
X3650488Y-2630423D01*
X3653536Y-2639821D01*
X3552952Y-2604770D02*
G01*
X3556254Y-2598420D01*
X3565652Y-2595371D01*
X3572002Y-2595371D01*
X3581654Y-2598420D01*
X3588004Y-2608071D01*
X3591306Y-2624073D01*
X3591306Y-2639821D01*
X3588004Y-2652521D01*
X3581654Y-2658871D01*
X3572002Y-2662173D01*
X3568954Y-2662173D01*
X3559302Y-2658871D01*
X3552952Y-2652521D01*
X3549904Y-2643123D01*
X3549904Y-2639821D01*
X3552952Y-2630423D01*
X3559302Y-2624073D01*
X3568954Y-2620771D01*
X3572002Y-2620771D01*
X3581654Y-2624073D01*
X3588004Y-2630423D01*
X3591306Y-2639821D01*
X3528822Y-2595371D02*
G01*
X3528822Y-2662173D01*
X3528822Y-2595371D02*
G01*
X3487420Y-2595371D01*
X3528822Y-2627121D02*
G01*
X3503422Y-2627121D01*
X3466591Y-2595371D02*
G01*
X3421888Y-2662173D01*
X3421888Y-2595371D02*
G01*
X3466591Y-2662173D01*
X3400806Y-2608071D02*
G01*
X3394456Y-2604770D01*
X3385058Y-2595371D01*
X3385058Y-2662173D01*
X3363975Y-2595371D02*
G01*
X3363975Y-2662173D01*
X3363975Y-2595371D02*
G01*
X3338575Y-2662173D01*
X3313175Y-2595371D02*
G01*
X3338575Y-2662173D01*
X3313175Y-2595371D02*
G01*
X3313175Y-2662173D01*
X3292093Y-2595371D02*
G01*
X3292093Y-2662173D01*
X3292093Y-2595371D02*
G01*
X3263391Y-2595371D01*
X3253993Y-2598420D01*
X3250691Y-2601721D01*
X3247643Y-2608071D01*
X3247643Y-2614421D01*
X3250691Y-2620771D01*
X3253993Y-2624073D01*
X3263391Y-2627121D01*
X3292093Y-2627121D02*
G01*
X3263391Y-2627121D01*
X3253993Y-2630423D01*
X3250691Y-2633471D01*
X3247643Y-2639821D01*
X3247643Y-2649473D01*
X3250691Y-2655823D01*
X3253993Y-2658871D01*
X3263391Y-2662173D01*
X3292093Y-2662173D01*
X3226561Y-2595371D02*
G01*
X3201161Y-2662173D01*
X3175761Y-2595371D02*
G01*
X3201161Y-2662173D01*
X3154679Y-2595371D02*
G01*
X3154679Y-2662173D01*
X3154679Y-2595371D02*
G01*
X3129279Y-2662173D01*
X3103625Y-2595371D02*
G01*
X3129279Y-2662173D01*
X3103625Y-2595371D02*
G01*
X3103625Y-2662173D01*
X3082797Y-2595371D02*
G01*
X3082797Y-2662173D01*
X3082797Y-2595371D02*
G01*
X3060445Y-2595371D01*
X3050793Y-2598420D01*
X3044443Y-2604770D01*
X3041395Y-2611373D01*
X3038093Y-2620771D01*
X3038093Y-2636773D01*
X3041395Y-2646171D01*
X3044443Y-2652521D01*
X3050793Y-2658871D01*
X3060445Y-2662173D01*
X3082797Y-2662173D01*
X3017265Y-2608071D02*
G01*
X3010915Y-2604770D01*
X3001263Y-2595371D01*
X3001263Y-2662173D01*
X2964434Y-2595371D02*
G01*
X2973831Y-2598420D01*
X2977134Y-2604770D01*
X2977134Y-2611373D01*
X2973831Y-2617723D01*
X2967481Y-2620771D01*
X2954781Y-2624073D01*
X2945384Y-2627121D01*
X2938779Y-2633471D01*
X2935731Y-2639821D01*
X2935731Y-2649473D01*
X2938779Y-2655823D01*
X2942081Y-2658871D01*
X2951734Y-2662173D01*
X2964434Y-2662173D01*
X2973831Y-2658871D01*
X2977134Y-2655823D01*
X2980181Y-2649473D01*
X2980181Y-2639821D01*
X2977134Y-2633471D01*
X2970784Y-2627121D01*
X2961131Y-2624073D01*
X2948431Y-2620771D01*
X2942081Y-2617723D01*
X2938779Y-2611373D01*
X2938779Y-2604770D01*
X2942081Y-2598420D01*
X2951734Y-2595371D01*
X2964434Y-2595371D01*
X2857500Y-2582671D02*
G01*
X2914650Y-2684526D01*
X3763009Y-2481071D02*
G01*
X3763009Y-2547873D01*
X3763009Y-2481071D02*
G01*
X3737609Y-2547873D01*
X3712209Y-2481071D02*
G01*
X3737609Y-2547873D01*
X3712209Y-2481071D02*
G01*
X3712209Y-2547873D01*
X3691127Y-2481071D02*
G01*
X3691127Y-2547873D01*
X3646677Y-2481071D02*
G01*
X3691127Y-2525521D01*
X3675125Y-2509773D02*
G01*
X3646677Y-2547873D01*
X3587495Y-2490470D02*
G01*
X3590543Y-2484120D01*
X3600195Y-2481071D01*
X3606545Y-2481071D01*
X3615943Y-2484120D01*
X3622293Y-2493771D01*
X3625595Y-2509773D01*
X3625595Y-2525521D01*
X3622293Y-2538221D01*
X3615943Y-2544571D01*
X3606545Y-2547873D01*
X3603243Y-2547873D01*
X3593845Y-2544571D01*
X3587495Y-2538221D01*
X3584193Y-2528823D01*
X3584193Y-2525521D01*
X3587495Y-2516123D01*
X3593845Y-2509773D01*
X3603243Y-2506471D01*
X3606545Y-2506471D01*
X3615943Y-2509773D01*
X3622293Y-2516123D01*
X3625595Y-2525521D01*
X3531361Y-2481071D02*
G01*
X3563111Y-2525521D01*
X3515359Y-2525521D01*
X3531361Y-2481071D02*
G01*
X3531361Y-2547873D01*
X3494531Y-2481071D02*
G01*
X3494531Y-2547873D01*
X3494531Y-2481071D02*
G01*
X3453129Y-2481071D01*
X3494531Y-2512821D02*
G01*
X3469131Y-2512821D01*
X3432047Y-2481071D02*
G01*
X3387597Y-2547873D01*
X3387597Y-2481071D02*
G01*
X3432047Y-2547873D01*
X3328415Y-2481071D02*
G01*
X3360165Y-2481071D01*
X3363468Y-2509773D01*
X3360165Y-2506471D01*
X3350768Y-2503423D01*
X3341115Y-2503423D01*
X3331463Y-2506471D01*
X3325113Y-2512821D01*
X3322065Y-2522473D01*
X3322065Y-2528823D01*
X3325113Y-2538221D01*
X3331463Y-2544571D01*
X3341115Y-2547873D01*
X3350768Y-2547873D01*
X3360165Y-2544571D01*
X3363468Y-2541523D01*
X3366515Y-2535173D01*
X3300984Y-2493771D02*
G01*
X3294634Y-2490470D01*
X3285236Y-2481071D01*
X3285236Y-2547873D01*
X3260852Y-2497073D02*
G01*
X3260852Y-2493771D01*
X3257804Y-2487421D01*
X3254502Y-2484120D01*
X3248152Y-2481071D01*
X3235452Y-2481071D01*
X3229102Y-2484120D01*
X3225800Y-2487421D01*
X3222752Y-2493771D01*
X3222752Y-2500121D01*
X3225800Y-2506471D01*
X3232404Y-2516123D01*
X3264154Y-2547873D01*
X3219450Y-2547873D01*
X3198622Y-2481071D02*
G01*
X3173222Y-2547873D01*
X3147568Y-2481071D02*
G01*
X3173222Y-2547873D01*
X3126740Y-2481071D02*
G01*
X3126740Y-2547873D01*
X3126740Y-2481071D02*
G01*
X3101086Y-2547873D01*
X3075686Y-2481071D02*
G01*
X3101086Y-2547873D01*
X3075686Y-2481071D02*
G01*
X3075686Y-2547873D01*
X3054858Y-2481071D02*
G01*
X3054858Y-2547873D01*
X3054858Y-2481071D02*
G01*
X3032506Y-2481071D01*
X3022854Y-2484120D01*
X3016504Y-2490470D01*
X3013456Y-2497073D01*
X3010154Y-2506471D01*
X3010154Y-2522473D01*
X3013456Y-2531871D01*
X3016504Y-2538221D01*
X3022854Y-2544571D01*
X3032506Y-2547873D01*
X3054858Y-2547873D01*
X2989072Y-2493771D02*
G01*
X2982722Y-2490470D01*
X2973324Y-2481071D01*
X2973324Y-2547873D01*
X2949193Y-2497073D02*
G01*
X2949193Y-2493771D01*
X2945891Y-2487421D01*
X2942843Y-2484120D01*
X2936493Y-2481071D01*
X2923540Y-2481071D01*
X2917190Y-2484120D01*
X2914141Y-2487421D01*
X2910840Y-2493771D01*
X2910840Y-2500121D01*
X2914141Y-2506471D01*
X2920491Y-2516123D01*
X2952241Y-2547873D01*
X2907791Y-2547873D01*
D28*
X596900Y-1791738D02*
G01*
X596900Y-1682635D01*
X596900Y-1791738D02*
G01*
X633267Y-1791738D01*
X648855Y-1786544D01*
X659244Y-1776153D01*
X664441Y-1765762D01*
X669635Y-1750174D01*
X669635Y-1724197D01*
X664441Y-1708612D01*
X659244Y-1698221D01*
X648855Y-1687829D01*
X633267Y-1682635D01*
X596900Y-1682635D01*
X703925Y-1770956D02*
G01*
X714316Y-1776153D01*
X729904Y-1791738D01*
X729904Y-1682635D01*
X2489200Y-3720061D02*
G01*
X2489200Y-3829164D01*
X2416464Y-3720061D02*
G01*
X2416464Y-3829164D01*
X2489200Y-3772014D02*
G01*
X2416464Y-3772014D01*
X2376977Y-3746037D02*
G01*
X2376977Y-3740843D01*
X2371783Y-3730452D01*
X2366586Y-3725255D01*
X2356195Y-3720061D01*
X2335415Y-3720061D01*
X2325024Y-3725255D01*
X2319827Y-3730452D01*
X2314633Y-3740843D01*
X2314633Y-3751234D01*
X2319827Y-3761625D01*
X2330218Y-3777211D01*
X2382174Y-3829164D01*
X2309436Y-3829164D01*
X1206500Y-3720061D02*
G01*
X1206500Y-3829164D01*
X1133764Y-3720061D02*
G01*
X1133764Y-3829164D01*
X1206500Y-3772014D02*
G01*
X1133764Y-3772014D01*
X1089083Y-3720061D02*
G01*
X1031933Y-3720061D01*
X1063104Y-3761625D01*
X1047518Y-3761625D01*
X1037127Y-3766820D01*
X1031933Y-3772014D01*
X1026736Y-3787602D01*
X1026736Y-3797993D01*
X1031933Y-3813578D01*
X1042324Y-3823970D01*
X1057910Y-3829164D01*
X1073495Y-3829164D01*
X1089083Y-3823970D01*
X1094277Y-3818775D01*
X1099474Y-3808384D01*
X4458738Y-1625600D02*
G01*
X4349635Y-1625600D01*
X4458738Y-1552864D02*
G01*
X4349635Y-1552864D01*
X4406785Y-1625600D02*
G01*
X4406785Y-1552864D01*
X4458738Y-1466618D02*
G01*
X4386003Y-1518574D01*
X4386003Y-1440642D01*
X4458738Y-1466618D02*
G01*
X4349635Y-1466618D01*
X3251200Y-3732761D02*
G01*
X3251200Y-3841864D01*
X3178464Y-3732761D02*
G01*
X3178464Y-3841864D01*
X3251200Y-3784714D02*
G01*
X3178464Y-3784714D01*
X3081827Y-3732761D02*
G01*
X3133783Y-3732761D01*
X3138977Y-3779520D01*
X3133783Y-3774325D01*
X3118195Y-3769128D01*
X3102609Y-3769128D01*
X3087024Y-3774325D01*
X3076633Y-3784714D01*
X3071436Y-3800302D01*
X3071436Y-3810693D01*
X3076633Y-3826278D01*
X3087024Y-3836670D01*
X3102609Y-3841864D01*
X3118195Y-3841864D01*
X3133783Y-3836670D01*
X3138977Y-3831475D01*
X3144174Y-3821084D01*
X3746500Y-3796261D02*
G01*
X3746500Y-3905364D01*
X3746500Y-3796261D02*
G01*
X3699741Y-3796261D01*
X3684155Y-3801455D01*
X3678958Y-3806652D01*
X3673764Y-3817043D01*
X3673764Y-3827434D01*
X3678958Y-3837825D01*
X3684155Y-3843020D01*
X3699741Y-3848214D01*
X3746500Y-3848214D01*
X3710132Y-3848214D02*
G01*
X3673764Y-3905364D01*
X3639474Y-3817043D02*
G01*
X3629083Y-3811846D01*
X3613495Y-3796261D01*
X3613495Y-3905364D01*
X5663161Y-419100D02*
G01*
X5772264Y-419100D01*
X5663161Y-419100D02*
G01*
X5663161Y-465858D01*
X5668355Y-481444D01*
X5673552Y-486641D01*
X5683943Y-491835D01*
X5694334Y-491835D01*
X5704725Y-486641D01*
X5709920Y-481444D01*
X5715114Y-465858D01*
X5715114Y-419100D01*
X5715114Y-455467D02*
G01*
X5772264Y-491835D01*
X5689137Y-531322D02*
G01*
X5683943Y-531322D01*
X5673552Y-536516D01*
X5668355Y-541713D01*
X5663161Y-552104D01*
X5663161Y-572884D01*
X5668355Y-583275D01*
X5673552Y-588472D01*
X5683943Y-593666D01*
X5694334Y-593666D01*
X5704725Y-588472D01*
X5720311Y-578081D01*
X5772264Y-526125D01*
X5772264Y-598863D01*
X1143000Y-293115D02*
G01*
X1143000Y-184150D01*
X1143000Y-293115D02*
G01*
X1189736Y-293115D01*
X1205229Y-288036D01*
X1210563Y-282702D01*
X1215644Y-272287D01*
X1215644Y-261873D01*
X1210563Y-251460D01*
X1205229Y-246379D01*
X1189736Y-241300D01*
X1143000Y-241300D02*
G01*
X1189736Y-241300D01*
X1205229Y-235965D01*
X1210563Y-230886D01*
X1215644Y-220471D01*
X1215644Y-204723D01*
X1210563Y-194310D01*
X1205229Y-189229D01*
X1189736Y-184150D01*
X1143000Y-184150D01*
X1286510Y-293115D02*
G01*
X1286510Y-184150D01*
X1249934Y-293115D02*
G01*
X1322831Y-293115D01*
X1357121Y-272287D02*
G01*
X1367536Y-277621D01*
X1383029Y-293115D01*
X1383029Y-184150D01*
X5181600Y-824484D02*
G01*
X5181600Y-933450D01*
X5108956Y-824484D02*
G01*
X5108956Y-933450D01*
X5181600Y-876300D02*
G01*
X5108956Y-876300D01*
X5074665Y-845312D02*
G01*
X5064252Y-839978D01*
X5048504Y-824484D01*
X5048504Y-933450D01*
G36*
X3332886Y-3110484D02*
G01*
X3307486Y-3135884D01*
X3345586Y-3161284D01*
X3370986Y-3135884D01*
G37*
G36*
X3307486Y-2958084D02*
G01*
X3282086Y-2983484D01*
X3320186Y-3008884D01*
X3345586Y-2983484D01*
G37*
G36*
X3294786Y-2881884D02*
G01*
X3269386Y-2907284D01*
X3307486Y-2932684D01*
X3332886Y-2907284D01*
G37*
G36*
X3409086Y-3034284D02*
G01*
X3383686Y-3059684D01*
X3421786Y-3085084D01*
X3447186Y-3059684D01*
G37*
G36*
X3345586Y-2919984D02*
G01*
X3320186Y-2945384D01*
X3358286Y-2970784D01*
X3383686Y-2945384D01*
G37*
G36*
X3396386Y-2958084D02*
G01*
X3370986Y-2983484D01*
X3409086Y-3008884D01*
X3434486Y-2983484D01*
G37*
G36*
X3370986Y-3072384D02*
G01*
X3345586Y-3097784D01*
X3383686Y-3123184D01*
X3409086Y-3097784D01*
G37*
G36*
X3358286Y-2996184D02*
G01*
X3332886Y-3021584D01*
X3370986Y-3046984D01*
X3396386Y-3021584D01*
G37*
D29*
X1847037Y-3046984D02*
G01*
X1847037Y-2792984D01*
X2101037Y-2792984D01*
X2101037Y-3046984D01*
X1847037Y-3046984D01*
X2609037Y-2157984D02*
G01*
X2228037Y-2157984D01*
X2228037Y-2411984D01*
X2609037Y-2411984D01*
X2609037Y-2157984D01*
X2736037Y-2030984D02*
G01*
X4006011Y-2030984D01*
X4006011Y-3300984D01*
X2736037Y-3300984D01*
X2736037Y-2030984D01*
X6292011Y-3173984D02*
G01*
X6165011Y-3173984D01*
X6292011Y-3300984D01*
X5022011Y-3300984D01*
X5022011Y-2030984D01*
X6292011Y-2030984D01*
X6165011Y-2157984D01*
X6292011Y-2157984D01*
X6165011Y-2284984D02*
G01*
X6292011Y-2284984D01*
X6165011Y-2411984D02*
G01*
X6292011Y-2411984D01*
X6165011Y-2538984D02*
G01*
X6292011Y-2538984D01*
X6165011Y-2665984D02*
G01*
X6292011Y-2665984D01*
X6165011Y-2792984D02*
G01*
X6292011Y-2792984D01*
X6165011Y-2919984D02*
G01*
X6292011Y-2919984D01*
X6165011Y-3046984D02*
G01*
X6292011Y-3046984D01*
X6165011Y-2157984D02*
G01*
X6165011Y-3173984D01*
X6292011Y-1776984D02*
G01*
X6292011Y-3554984D01*
X196037Y-3554984D01*
X196037Y-1776984D01*
X6292011Y-1776984D01*
X704037Y-3046984D02*
G01*
X704037Y-2284984D01*
X196037Y-2284984D01*
X69037Y-2284984D01*
X69037Y-3046984D01*
X196037Y-3046984D01*
X704037Y-3046984D01*
X4641011Y-2919984D02*
G01*
X4641011Y-2411984D01*
X4387011Y-2411984D01*
X4387011Y-2919984D01*
X4641011Y-2919984D01*
D10*
X996695Y-1358900D02*
G01*
X596900Y-1358900D01*
X596900Y-1383868D02*
G01*
X596900Y-1358900D01*
X599439Y-1638300D02*
G01*
X599439Y-1613331D01*
X599439Y-1638300D02*
G01*
X999236Y-1638300D01*
X995679Y-1383868D02*
G01*
X995679Y-1358900D01*
X1000760Y-1635328D02*
G01*
X1000760Y-1610360D01*
D30*
X761237Y-1498600D02*
G01*
X761237Y-1460500D01*
X837437Y-1460500D02*
G01*
X761237Y-1498600D01*
X837437Y-1498600D02*
G01*
X837437Y-1460500D01*
X761237Y-1498600D02*
G01*
X761237Y-1536700D01*
X837437Y-1536700D02*
G01*
X761237Y-1498600D01*
X837437Y-1498600D02*
G01*
X837437Y-1536700D01*
X862837Y-1498600D02*
G01*
X735837Y-1498600D01*
D10*
X713739Y-1374139D02*
G01*
X713739Y-1623060D01*
D31*
X1473200Y-3873500D02*
G01*
X1473200Y-4127500D01*
X2489200Y-4127500D01*
X2489200Y-3873500D01*
X2298700Y-3873500D01*
D32*
X1473200Y-3873500D02*
G01*
X2298700Y-3873500D01*
D31*
X698500Y-3873500D02*
G01*
X698500Y-4127500D01*
X1206500Y-4127500D01*
X1206500Y-3873500D01*
X1016000Y-3873500D01*
D32*
X698500Y-3873500D02*
G01*
X1016000Y-3873500D01*
D31*
X5016500Y-1651000D02*
G01*
X5016500Y-1397000D01*
X4508500Y-1397000D01*
X4508500Y-1651000D01*
X4699000Y-1651000D01*
D32*
X5016500Y-1651000D02*
G01*
X4699000Y-1651000D01*
D10*
X3251200Y-3886200D02*
G01*
X2743200Y-3886200D01*
X2743200Y-4140200D01*
X3251200Y-4140200D01*
X3251200Y-3886200D01*
X3825295Y-3945897D02*
G01*
X3825295Y-4105902D01*
X3640234Y-4105391D02*
G01*
X3515238Y-4105391D01*
X3640234Y-3945387D02*
G01*
X3515238Y-3945387D01*
X3700292Y-4105902D02*
G01*
X3825295Y-4105902D01*
X3700292Y-3945897D02*
G01*
X3825295Y-3945897D01*
X3515238Y-3945387D02*
G01*
X3515238Y-4105391D01*
X5457197Y-327604D02*
G01*
X5617202Y-327604D01*
X5616691Y-512665D02*
G01*
X5616691Y-637661D01*
X5456687Y-512665D02*
G01*
X5456687Y-637661D01*
X5617202Y-452607D02*
G01*
X5617202Y-327604D01*
X5457197Y-452607D02*
G01*
X5457197Y-327604D01*
X5456687Y-637661D02*
G01*
X5616691Y-637661D01*
X1462001Y-663000D02*
G01*
X1462001Y-174000D01*
X1846000Y-174000D01*
X1846000Y-318381D01*
X1848190Y-318381D01*
X1462001Y-1118999D02*
G01*
X1462001Y-1605998D01*
X1735000Y-1605998D01*
X1839000Y-1605998D01*
X1839000Y-1483997D01*
D28*
X2567940Y-1143000D02*
G01*
X2720340Y-1143000D01*
X1894839Y-1041400D02*
G01*
X1894839Y-1244600D01*
X1793239Y-1143000D02*
G01*
X1996440Y-1143000D01*
D31*
X5207000Y-254000D02*
G01*
X3937000Y-254000D01*
X3937000Y-762000D01*
X5207000Y-762000D01*
X5207000Y-254000D01*
D10*
G75*
G01*
X1604457Y-659254D02*
G02*
X2961848Y-643009I681543J-229745D01*
G75*
G01*
X2966827Y-1136805D02*
G02*
X1594896Y-1106510I-680828J247803D01*
D33*
G75*
G01
X549935Y-299999D02*
G03X549935Y-299999I-249936J0D01*
G75*
G01
X7149922Y-299999D02*
G03X7149922Y-299999I-249936J0D01*
G75*
G01
X549935Y-3999992D02*
G03X549935Y-3999992I-249936J0D01*
G75*
G01
X7149922Y-3999992D02*
G03X7149922Y-3999992I-249936J0D01*
M02*
