G04 Layer: BottomLayer*
G04 EasyEDA v6.4.19.5, 2021-06-04T13:03:27+02:00*
G04 efa6938f2177404b8bb2681d1be77202,563db0ff5b334ec4995e7372edb549dc,10*
G04 Gerber Generator version 0.2*
G04 Scale: 100 percent, Rotated: No, Reflected: No *
G04 Dimensions in millimeters *
G04 leading zeros omitted , absolute positions ,4 integer and 5 decimal *
%FSLAX45Y45*%
%MOMM*%

%ADD10C,0.2540*%
%ADD11C,0.3050*%
%ADD12C,0.6110*%
%ADD13C,1.8796*%
%ADD14C,1.5999*%
%ADD17C,1.5748*%
%ADD19C,1.9000*%
%ADD20C,1.8000*%
%ADD22C,1.7000*%

%LPD*%
G36*
X427532Y-4292600D02*
G01*
X423214Y-4291634D01*
X419709Y-4288942D01*
X417677Y-4284980D01*
X417525Y-4280560D01*
X419303Y-4276496D01*
X422605Y-4273550D01*
X464515Y-4250283D01*
X509828Y-4210253D01*
X550265Y-4164533D01*
X575157Y-4119473D01*
X595020Y-4054449D01*
X599948Y-3999534D01*
X594817Y-3944518D01*
X574751Y-3879545D01*
X549706Y-3834688D01*
X510387Y-3785463D01*
X509524Y-3784600D01*
X464667Y-3749801D01*
X419557Y-3724859D01*
X374548Y-3709924D01*
X300685Y-3700119D01*
X299313Y-3700119D01*
X225450Y-3709924D01*
X180441Y-3724859D01*
X135331Y-3749801D01*
X90373Y-3784650D01*
X60299Y-3819651D01*
X31648Y-3868623D01*
X28651Y-3871823D01*
X24587Y-3873500D01*
X20218Y-3873296D01*
X16306Y-3871264D01*
X13665Y-3867810D01*
X12700Y-3863492D01*
X12700Y-437083D01*
X13665Y-432765D01*
X16357Y-429259D01*
X20320Y-427228D01*
X24739Y-427075D01*
X28803Y-428853D01*
X31750Y-432155D01*
X50241Y-465328D01*
X90373Y-515315D01*
X120345Y-540207D01*
X180492Y-575157D01*
X225450Y-590042D01*
X299415Y-599897D01*
X354482Y-595020D01*
X419506Y-575157D01*
X465429Y-549656D01*
X510235Y-509828D01*
X550265Y-464515D01*
X575157Y-419506D01*
X595020Y-354482D01*
X599948Y-299567D01*
X594817Y-244500D01*
X574751Y-179527D01*
X549706Y-134670D01*
X510387Y-85445D01*
X465328Y-50241D01*
X420420Y-25247D01*
X404418Y-19812D01*
X400862Y-17780D01*
X398424Y-14528D01*
X397459Y-10566D01*
X398119Y-6553D01*
X400304Y-3098D01*
X403606Y-812D01*
X407619Y0D01*
X6792366Y0D01*
X6796379Y-812D01*
X6799732Y-3098D01*
X6801866Y-6553D01*
X6802526Y-10566D01*
X6801561Y-14528D01*
X6799122Y-17780D01*
X6795617Y-19812D01*
X6779615Y-25247D01*
X6734708Y-50241D01*
X6689648Y-85394D01*
X6659778Y-120396D01*
X6624828Y-180543D01*
X6604965Y-245516D01*
X6600088Y-300482D01*
X6605168Y-355498D01*
X6625234Y-420471D01*
X6650228Y-465328D01*
X6690359Y-515315D01*
X6720331Y-540207D01*
X6779564Y-574751D01*
X6824522Y-589838D01*
X6899452Y-599897D01*
X6954469Y-595020D01*
X7019493Y-575157D01*
X7065416Y-549656D01*
X7110272Y-509828D01*
X7149642Y-465429D01*
X7174738Y-420471D01*
X7193737Y-359105D01*
X7195718Y-355498D01*
X7198918Y-353009D01*
X7202881Y-351942D01*
X7206945Y-352552D01*
X7210450Y-354736D01*
X7212787Y-358089D01*
X7213600Y-362102D01*
X7213600Y-3937914D01*
X7212787Y-3941927D01*
X7210450Y-3945280D01*
X7206945Y-3947464D01*
X7202881Y-3948074D01*
X7198918Y-3947007D01*
X7195718Y-3944467D01*
X7193737Y-3940911D01*
X7174738Y-3879545D01*
X7149744Y-3834688D01*
X7110374Y-3785463D01*
X7109510Y-3784600D01*
X7064654Y-3749801D01*
X7019544Y-3724859D01*
X6974535Y-3709924D01*
X6900672Y-3700119D01*
X6899351Y-3700119D01*
X6824522Y-3710178D01*
X6779615Y-3725214D01*
X6734708Y-3750259D01*
X6689648Y-3785362D01*
X6659778Y-3820363D01*
X6625285Y-3879494D01*
X6605168Y-3944518D01*
X6600088Y-3999534D01*
X6604965Y-4054449D01*
X6624828Y-4119473D01*
X6649770Y-4164634D01*
X6689648Y-4214622D01*
X6719671Y-4239717D01*
X6777685Y-4273651D01*
X6780936Y-4276648D01*
X6782612Y-4280712D01*
X6782409Y-4285081D01*
X6780377Y-4288993D01*
X6776872Y-4291634D01*
X6772605Y-4292600D01*
G37*

%LPC*%
G36*
X3035808Y-4216654D02*
G01*
X3695192Y-4216654D01*
X3703167Y-4215892D01*
X3710381Y-4213707D01*
X3716985Y-4210151D01*
X3723182Y-4205071D01*
X3777081Y-4151172D01*
X3782161Y-4144975D01*
X3785666Y-4138371D01*
X3787851Y-4131157D01*
X3788664Y-4123182D01*
X3788664Y-4116730D01*
X3789426Y-4112818D01*
X3791610Y-4109516D01*
X3794912Y-4107332D01*
X3805986Y-4105859D01*
X3811371Y-4103979D01*
X3816248Y-4100931D01*
X3820312Y-4096867D01*
X3823360Y-4091990D01*
X3825240Y-4086606D01*
X3825951Y-4080306D01*
X3825951Y-3971493D01*
X3825240Y-3965194D01*
X3823360Y-3959809D01*
X3820312Y-3954932D01*
X3816248Y-3950868D01*
X3811371Y-3947820D01*
X3805986Y-3945940D01*
X3799738Y-3945229D01*
X3700881Y-3945229D01*
X3694582Y-3945940D01*
X3689197Y-3947820D01*
X3684320Y-3950868D01*
X3680307Y-3954932D01*
X3678885Y-3957167D01*
X3676091Y-3960114D01*
X3672332Y-3961688D01*
X3668268Y-3961688D01*
X3664508Y-3960114D01*
X3661714Y-3957167D01*
X3660292Y-3954932D01*
X3656279Y-3950868D01*
X3651402Y-3947820D01*
X3646017Y-3945940D01*
X3640226Y-3945280D01*
X3636670Y-3944213D01*
X3633774Y-3941978D01*
X3631844Y-3938828D01*
X3631184Y-3935222D01*
X3631184Y-3878122D01*
X3631946Y-3874262D01*
X3634181Y-3870960D01*
X3787749Y-3717340D01*
X3793185Y-3710787D01*
X3796944Y-3703726D01*
X3799281Y-3696055D01*
X3800094Y-3687572D01*
X3800094Y-3521049D01*
X3801059Y-3516782D01*
X3803650Y-3513328D01*
X3807510Y-3511245D01*
X3811828Y-3510991D01*
X3815892Y-3512565D01*
X3826205Y-3519474D01*
X3832656Y-3522675D01*
X3832656Y-3474313D01*
X3810254Y-3474313D01*
X3806393Y-3473551D01*
X3803091Y-3471367D01*
X3800856Y-3468065D01*
X3800094Y-3464153D01*
X3800094Y-3391814D01*
X3800856Y-3387902D01*
X3803091Y-3384600D01*
X3806393Y-3382416D01*
X3810254Y-3381654D01*
X3832656Y-3381654D01*
X3832656Y-3333292D01*
X3826205Y-3336493D01*
X3815892Y-3343401D01*
X3811828Y-3344976D01*
X3807510Y-3344722D01*
X3803650Y-3342640D01*
X3801059Y-3339185D01*
X3800094Y-3334918D01*
X3800094Y-2662732D01*
X3800856Y-2658872D01*
X3803091Y-2655570D01*
X4001770Y-2456840D01*
X4005072Y-2454656D01*
X4008983Y-2453894D01*
X4791405Y-2452979D01*
X4795062Y-2453690D01*
X4798263Y-2455672D01*
X4800498Y-2458669D01*
X4803546Y-2464816D01*
X4811217Y-2476296D01*
X4820310Y-2486660D01*
X4830724Y-2495804D01*
X4842205Y-2503474D01*
X4854600Y-2509570D01*
X4867656Y-2513990D01*
X4881219Y-2516733D01*
X4895037Y-2517597D01*
X4908804Y-2516733D01*
X4922367Y-2513990D01*
X4935423Y-2509570D01*
X4947818Y-2503474D01*
X4959299Y-2495804D01*
X4969713Y-2486660D01*
X4978806Y-2476296D01*
X4986477Y-2464816D01*
X4992624Y-2452420D01*
X4997043Y-2439314D01*
X4999736Y-2425750D01*
X5000650Y-2411984D01*
X4999736Y-2398217D01*
X4997043Y-2384653D01*
X4992624Y-2371547D01*
X4986477Y-2359152D01*
X4978806Y-2347671D01*
X4969713Y-2337308D01*
X4959299Y-2328164D01*
X4947818Y-2320493D01*
X4935423Y-2314397D01*
X4922367Y-2309977D01*
X4908804Y-2307234D01*
X4895037Y-2306370D01*
X4881219Y-2307234D01*
X4867656Y-2309977D01*
X4854600Y-2314397D01*
X4842205Y-2320493D01*
X4830724Y-2328164D01*
X4820310Y-2337308D01*
X4811217Y-2347671D01*
X4803546Y-2359152D01*
X4800396Y-2365552D01*
X4798161Y-2368499D01*
X4794961Y-2370480D01*
X4791303Y-2371191D01*
X3988257Y-2372106D01*
X3979824Y-2372918D01*
X3972153Y-2375255D01*
X3965092Y-2379014D01*
X3958539Y-2384450D01*
X3730650Y-2612339D01*
X3725214Y-2618892D01*
X3721455Y-2625953D01*
X3719118Y-2633624D01*
X3718306Y-2642108D01*
X3718306Y-3347516D01*
X3717493Y-3351479D01*
X3715156Y-3354832D01*
X3711701Y-3357016D01*
X3707688Y-3357626D01*
X3703726Y-3356660D01*
X3689299Y-3344164D01*
X3677818Y-3336493D01*
X3665423Y-3330397D01*
X3652367Y-3325977D01*
X3638804Y-3323234D01*
X3624986Y-3322370D01*
X3611219Y-3323234D01*
X3597656Y-3325977D01*
X3584600Y-3330397D01*
X3572205Y-3336493D01*
X3560724Y-3344164D01*
X3550310Y-3353308D01*
X3541217Y-3363671D01*
X3533546Y-3375151D01*
X3527399Y-3387547D01*
X3522979Y-3400653D01*
X3520287Y-3414217D01*
X3519373Y-3427984D01*
X3520287Y-3441750D01*
X3522979Y-3455314D01*
X3527399Y-3468420D01*
X3533546Y-3480815D01*
X3541217Y-3492296D01*
X3550310Y-3502660D01*
X3560724Y-3511804D01*
X3572205Y-3519474D01*
X3584600Y-3525570D01*
X3597656Y-3529990D01*
X3611219Y-3532733D01*
X3624986Y-3533597D01*
X3638804Y-3532733D01*
X3652367Y-3529990D01*
X3665423Y-3525570D01*
X3677818Y-3519474D01*
X3689299Y-3511804D01*
X3703726Y-3499307D01*
X3707688Y-3498342D01*
X3711701Y-3498951D01*
X3715156Y-3501136D01*
X3717493Y-3504488D01*
X3718306Y-3508451D01*
X3718306Y-3666947D01*
X3717544Y-3670808D01*
X3715308Y-3674110D01*
X3600704Y-3788765D01*
X3597401Y-3790950D01*
X3593490Y-3791712D01*
X3587089Y-3791712D01*
X3583178Y-3790950D01*
X3579876Y-3788765D01*
X3534460Y-3743350D01*
X3527907Y-3737914D01*
X3520846Y-3734155D01*
X3513175Y-3731818D01*
X3504692Y-3731006D01*
X1689607Y-3731006D01*
X1681124Y-3731818D01*
X1673453Y-3734155D01*
X1666392Y-3737914D01*
X1659839Y-3743350D01*
X1571650Y-3831539D01*
X1566214Y-3838092D01*
X1562455Y-3845153D01*
X1560118Y-3852824D01*
X1559306Y-3861308D01*
X1559306Y-3898239D01*
X1558594Y-3901897D01*
X1556613Y-3905097D01*
X1553616Y-3907332D01*
X1548028Y-3910126D01*
X1536649Y-3917696D01*
X1526387Y-3926687D01*
X1517396Y-3936949D01*
X1509826Y-3948328D01*
X1503781Y-3960571D01*
X1499362Y-3973474D01*
X1496720Y-3986885D01*
X1495806Y-4000500D01*
X1496720Y-4014114D01*
X1499362Y-4027525D01*
X1503781Y-4040428D01*
X1509826Y-4052671D01*
X1517396Y-4064050D01*
X1526387Y-4074312D01*
X1536649Y-4083304D01*
X1548028Y-4090873D01*
X1560271Y-4096918D01*
X1573174Y-4101337D01*
X1586585Y-4103979D01*
X1600200Y-4104894D01*
X1613814Y-4103979D01*
X1627225Y-4101337D01*
X1640128Y-4096918D01*
X1652371Y-4090873D01*
X1663750Y-4083304D01*
X1674012Y-4074312D01*
X1683004Y-4064050D01*
X1690573Y-4052671D01*
X1696618Y-4040428D01*
X1701038Y-4027525D01*
X1703679Y-4014114D01*
X1704593Y-4000500D01*
X1703679Y-3986885D01*
X1701038Y-3973474D01*
X1696618Y-3960571D01*
X1690573Y-3948328D01*
X1683004Y-3936949D01*
X1674012Y-3926687D01*
X1663750Y-3917696D01*
X1652371Y-3910126D01*
X1646783Y-3907332D01*
X1643786Y-3905097D01*
X1641805Y-3901897D01*
X1641093Y-3898239D01*
X1641093Y-3881932D01*
X1641856Y-3878072D01*
X1644091Y-3874770D01*
X1703070Y-3815791D01*
X1706372Y-3813556D01*
X1710232Y-3812794D01*
X3484067Y-3812794D01*
X3487928Y-3813556D01*
X3491229Y-3815791D01*
X3546398Y-3870960D01*
X3548634Y-3874262D01*
X3549396Y-3878122D01*
X3549396Y-3935222D01*
X3548735Y-3938828D01*
X3546805Y-3941978D01*
X3543909Y-3944213D01*
X3540353Y-3945280D01*
X3534613Y-3945940D01*
X3529177Y-3947820D01*
X3524351Y-3950868D01*
X3520287Y-3954932D01*
X3517239Y-3959809D01*
X3515360Y-3965194D01*
X3514648Y-3971493D01*
X3514648Y-4080306D01*
X3515360Y-4086606D01*
X3517239Y-4091990D01*
X3520287Y-4096867D01*
X3524351Y-4100931D01*
X3529177Y-4103979D01*
X3534613Y-4105859D01*
X3540861Y-4106570D01*
X3639718Y-4106570D01*
X3646017Y-4105859D01*
X3651402Y-4103979D01*
X3656279Y-4100931D01*
X3660292Y-4096867D01*
X3661714Y-4094632D01*
X3664508Y-4091686D01*
X3668268Y-4090111D01*
X3672332Y-4090111D01*
X3676091Y-4091686D01*
X3678885Y-4094632D01*
X3680307Y-4096867D01*
X3684320Y-4100931D01*
X3689197Y-4103979D01*
X3693617Y-4105503D01*
X3697122Y-4107586D01*
X3699510Y-4110888D01*
X3700424Y-4114850D01*
X3699713Y-4118864D01*
X3697478Y-4122267D01*
X3682796Y-4136948D01*
X3679494Y-4139184D01*
X3675583Y-4139946D01*
X3237941Y-4139946D01*
X3234080Y-4139184D01*
X3230778Y-4136948D01*
X3228543Y-4133697D01*
X3227781Y-4129786D01*
X3228543Y-4125874D01*
X3230778Y-4122623D01*
X3234182Y-4119168D01*
X3237280Y-4114292D01*
X3239160Y-4108907D01*
X3239871Y-4102608D01*
X3239871Y-4064558D01*
X3175558Y-4064558D01*
X3175558Y-4129786D01*
X3174796Y-4133697D01*
X3172561Y-4136948D01*
X3169259Y-4139184D01*
X3165398Y-4139946D01*
X3083001Y-4139946D01*
X3079140Y-4139184D01*
X3075838Y-4136948D01*
X3073603Y-4133697D01*
X3072841Y-4129786D01*
X3072841Y-4064558D01*
X3008528Y-4064558D01*
X3008528Y-4072788D01*
X3007766Y-4076649D01*
X3005582Y-4079951D01*
X3002280Y-4082186D01*
X2998368Y-4082948D01*
X2994507Y-4082186D01*
X2991205Y-4079951D01*
X2979318Y-4068114D01*
X2977083Y-4064660D01*
X2976372Y-4060596D01*
X2977692Y-4055770D01*
X2982214Y-4041952D01*
X2984906Y-4027678D01*
X2985820Y-4013200D01*
X2984906Y-3998722D01*
X2982214Y-3984447D01*
X2977692Y-3970629D01*
X2971546Y-3957472D01*
X2963773Y-3945229D01*
X2954477Y-3934053D01*
X2943910Y-3924096D01*
X2932176Y-3915562D01*
X2919425Y-3908551D01*
X2905912Y-3903218D01*
X2891891Y-3899611D01*
X2877464Y-3897782D01*
X2862935Y-3897782D01*
X2848508Y-3899611D01*
X2834487Y-3903218D01*
X2820974Y-3908551D01*
X2808224Y-3915562D01*
X2796489Y-3924096D01*
X2785922Y-3934053D01*
X2776626Y-3945229D01*
X2768854Y-3957472D01*
X2762707Y-3970629D01*
X2758186Y-3984447D01*
X2755493Y-3998722D01*
X2754579Y-4013200D01*
X2755493Y-4027678D01*
X2758186Y-4041952D01*
X2762707Y-4055770D01*
X2768854Y-4068927D01*
X2776626Y-4081170D01*
X2785922Y-4092346D01*
X2796489Y-4102303D01*
X2808224Y-4110837D01*
X2820974Y-4117848D01*
X2834487Y-4123182D01*
X2848508Y-4126788D01*
X2862935Y-4128617D01*
X2877464Y-4128617D01*
X2891891Y-4126788D01*
X2905912Y-4123182D01*
X2914040Y-4119981D01*
X2917901Y-4119270D01*
X2921711Y-4120032D01*
X2924962Y-4122216D01*
X3007817Y-4205071D01*
X3014014Y-4210151D01*
X3020618Y-4213707D01*
X3027832Y-4215892D01*
G37*
G36*
X985062Y-4121150D02*
G01*
X1025652Y-4121150D01*
X1025652Y-4054348D01*
X958850Y-4054348D01*
X958850Y-4094937D01*
X959561Y-4101185D01*
X961440Y-4106621D01*
X964488Y-4111447D01*
X968552Y-4115511D01*
X973378Y-4118559D01*
X978814Y-4120438D01*
G37*
G36*
X1133348Y-4121150D02*
G01*
X1173937Y-4121150D01*
X1180185Y-4120438D01*
X1185621Y-4118559D01*
X1190447Y-4115511D01*
X1194511Y-4111447D01*
X1197559Y-4106621D01*
X1199438Y-4101185D01*
X1200150Y-4094937D01*
X1200150Y-4054348D01*
X1133348Y-4054348D01*
G37*
G36*
X821791Y-4121099D02*
G01*
X836625Y-4120642D01*
X851306Y-4118356D01*
X865581Y-4114292D01*
X879246Y-4108500D01*
X892149Y-4101084D01*
X903986Y-4092092D01*
X914653Y-4081779D01*
X923950Y-4070197D01*
X931773Y-4057548D01*
X937971Y-4044086D01*
X942492Y-4029913D01*
X945235Y-4015333D01*
X946150Y-4000500D01*
X945235Y-3985666D01*
X942492Y-3971086D01*
X937971Y-3956913D01*
X931773Y-3943451D01*
X923950Y-3930802D01*
X914653Y-3919220D01*
X903986Y-3908907D01*
X892149Y-3899915D01*
X879246Y-3892499D01*
X865581Y-3886708D01*
X851306Y-3882644D01*
X836625Y-3880358D01*
X821791Y-3879900D01*
X807008Y-3881272D01*
X792480Y-3884472D01*
X778459Y-3889400D01*
X765200Y-3896004D01*
X752805Y-3904234D01*
X741527Y-3913886D01*
X731520Y-3924858D01*
X722934Y-3937000D01*
X715924Y-3950055D01*
X710539Y-3963924D01*
X706932Y-3978351D01*
X705104Y-3993083D01*
X705104Y-4007916D01*
X706932Y-4022648D01*
X710539Y-4037076D01*
X715924Y-4050944D01*
X722934Y-4064000D01*
X731520Y-4076141D01*
X741527Y-4087114D01*
X752805Y-4096765D01*
X765200Y-4104995D01*
X778459Y-4111599D01*
X792480Y-4116527D01*
X807008Y-4119727D01*
G37*
G36*
X2284018Y-4104894D02*
G01*
X2316480Y-4104894D01*
X2316480Y-4046220D01*
X2257806Y-4046220D01*
X2257806Y-4078681D01*
X2258517Y-4084929D01*
X2260396Y-4090365D01*
X2263444Y-4095191D01*
X2267508Y-4099255D01*
X2272334Y-4102303D01*
X2277770Y-4104182D01*
G37*
G36*
X2407920Y-4104894D02*
G01*
X2440381Y-4104894D01*
X2446629Y-4104182D01*
X2452065Y-4102303D01*
X2456891Y-4099255D01*
X2460955Y-4095191D01*
X2464003Y-4090365D01*
X2465882Y-4084929D01*
X2466594Y-4078681D01*
X2466594Y-4046220D01*
X2407920Y-4046220D01*
G37*
G36*
X1854200Y-4104894D02*
G01*
X1867814Y-4103979D01*
X1881225Y-4101337D01*
X1894128Y-4096918D01*
X1906371Y-4090873D01*
X1917750Y-4083304D01*
X1928012Y-4074312D01*
X1937004Y-4064050D01*
X1944573Y-4052671D01*
X1950618Y-4040428D01*
X1955038Y-4027525D01*
X1957679Y-4014114D01*
X1958593Y-4000500D01*
X1957679Y-3986885D01*
X1955038Y-3973474D01*
X1950618Y-3960571D01*
X1944573Y-3948328D01*
X1937004Y-3936949D01*
X1928012Y-3926687D01*
X1917750Y-3917696D01*
X1906371Y-3910126D01*
X1894128Y-3904081D01*
X1881225Y-3899662D01*
X1867814Y-3897020D01*
X1854200Y-3896106D01*
X1840585Y-3897020D01*
X1827174Y-3899662D01*
X1814271Y-3904081D01*
X1802028Y-3910126D01*
X1790649Y-3917696D01*
X1780387Y-3926687D01*
X1771396Y-3936949D01*
X1763826Y-3948328D01*
X1757781Y-3960571D01*
X1753362Y-3973474D01*
X1750720Y-3986885D01*
X1749806Y-4000500D01*
X1750720Y-4014114D01*
X1753362Y-4027525D01*
X1757781Y-4040428D01*
X1763826Y-4052671D01*
X1771396Y-4064050D01*
X1780387Y-4074312D01*
X1790649Y-4083304D01*
X1802028Y-4090873D01*
X1814271Y-4096918D01*
X1827174Y-4101337D01*
X1840585Y-4103979D01*
G37*
G36*
X2108200Y-4104894D02*
G01*
X2121814Y-4103979D01*
X2135225Y-4101337D01*
X2148128Y-4096918D01*
X2160371Y-4090873D01*
X2171750Y-4083304D01*
X2182012Y-4074312D01*
X2191004Y-4064050D01*
X2198573Y-4052671D01*
X2204618Y-4040428D01*
X2209038Y-4027525D01*
X2211679Y-4014114D01*
X2212594Y-4000500D01*
X2211679Y-3986885D01*
X2209038Y-3973474D01*
X2204618Y-3960571D01*
X2198573Y-3948328D01*
X2191004Y-3936949D01*
X2182012Y-3926687D01*
X2171750Y-3917696D01*
X2160371Y-3910126D01*
X2148128Y-3904081D01*
X2135225Y-3899662D01*
X2121814Y-3897020D01*
X2108200Y-3896106D01*
X2094585Y-3897020D01*
X2081174Y-3899662D01*
X2068271Y-3904081D01*
X2056028Y-3910126D01*
X2044649Y-3917696D01*
X2034387Y-3926687D01*
X2025396Y-3936949D01*
X2017826Y-3948328D01*
X2011781Y-3960571D01*
X2007362Y-3973474D01*
X2004720Y-3986885D01*
X2003806Y-4000500D01*
X2004720Y-4014114D01*
X2007362Y-4027525D01*
X2011781Y-4040428D01*
X2017826Y-4052671D01*
X2025396Y-4064050D01*
X2034387Y-4074312D01*
X2044649Y-4083304D01*
X2056028Y-4090873D01*
X2068271Y-4096918D01*
X2081174Y-4101337D01*
X2094585Y-4103979D01*
G37*
G36*
X3175558Y-3961841D02*
G01*
X3239871Y-3961841D01*
X3239871Y-3923792D01*
X3239160Y-3917492D01*
X3237280Y-3912108D01*
X3234182Y-3907231D01*
X3230168Y-3903218D01*
X3225292Y-3900170D01*
X3219907Y-3898239D01*
X3213608Y-3897528D01*
X3175558Y-3897528D01*
G37*
G36*
X3008528Y-3961841D02*
G01*
X3072841Y-3961841D01*
X3072841Y-3897528D01*
X3034792Y-3897528D01*
X3028492Y-3898239D01*
X3023108Y-3900170D01*
X3018231Y-3903218D01*
X3014218Y-3907231D01*
X3011170Y-3912108D01*
X3009239Y-3917492D01*
X3008528Y-3923792D01*
G37*
G36*
X2257806Y-3954779D02*
G01*
X2316480Y-3954779D01*
X2316480Y-3896106D01*
X2284018Y-3896106D01*
X2277770Y-3896817D01*
X2272334Y-3898696D01*
X2267508Y-3901744D01*
X2263444Y-3905808D01*
X2260396Y-3910634D01*
X2258517Y-3916070D01*
X2257806Y-3922318D01*
G37*
G36*
X2407920Y-3954779D02*
G01*
X2466594Y-3954779D01*
X2466594Y-3922318D01*
X2465882Y-3916070D01*
X2464003Y-3910634D01*
X2460955Y-3905808D01*
X2456891Y-3901744D01*
X2452065Y-3898696D01*
X2446629Y-3896817D01*
X2440381Y-3896106D01*
X2407920Y-3896106D01*
G37*
G36*
X1133348Y-3946651D02*
G01*
X1200150Y-3946651D01*
X1200150Y-3906062D01*
X1199438Y-3899814D01*
X1197559Y-3894378D01*
X1194511Y-3889552D01*
X1190447Y-3885488D01*
X1185621Y-3882440D01*
X1180185Y-3880561D01*
X1173937Y-3879850D01*
X1133348Y-3879850D01*
G37*
G36*
X958850Y-3946651D02*
G01*
X1025652Y-3946651D01*
X1025652Y-3879850D01*
X985062Y-3879850D01*
X978814Y-3880561D01*
X973378Y-3882440D01*
X968552Y-3885488D01*
X964488Y-3889552D01*
X961440Y-3894378D01*
X959561Y-3899814D01*
X958850Y-3906062D01*
G37*
G36*
X6362700Y-3662984D02*
G01*
X6372453Y-3662121D01*
X6381902Y-3659581D01*
X6390792Y-3655466D01*
X6398818Y-3649827D01*
X6405727Y-3642918D01*
X6411366Y-3634892D01*
X6415481Y-3626002D01*
X6418021Y-3616553D01*
X6418884Y-3606800D01*
X6418122Y-3598062D01*
X6418681Y-3593693D01*
X6421018Y-3589985D01*
X6878523Y-3132531D01*
X6882180Y-3130194D01*
X6886549Y-3129584D01*
X6890715Y-3130854D01*
X6893966Y-3133801D01*
X6895693Y-3137814D01*
X6895541Y-3142183D01*
X6892798Y-3153003D01*
X6891020Y-3167634D01*
X6891020Y-3182366D01*
X6892798Y-3196996D01*
X6896404Y-3211271D01*
X6901738Y-3224987D01*
X6908698Y-3237992D01*
X6917232Y-3249980D01*
X6927138Y-3260852D01*
X6938314Y-3270453D01*
X6950608Y-3278581D01*
X6963765Y-3285134D01*
X6977684Y-3290062D01*
X6992061Y-3293211D01*
X7001205Y-3294024D01*
X7004964Y-3295142D01*
X7008012Y-3297580D01*
X7009942Y-3300984D01*
X7010400Y-3304895D01*
X7009384Y-3308654D01*
X7006996Y-3311753D01*
X7003643Y-3313734D01*
X6989165Y-3318865D01*
X6976008Y-3325418D01*
X6963714Y-3333546D01*
X6952538Y-3343148D01*
X6942632Y-3354019D01*
X6934098Y-3366008D01*
X6927138Y-3379012D01*
X6921804Y-3392728D01*
X6918198Y-3407003D01*
X6916420Y-3421634D01*
X6916420Y-3436365D01*
X6918198Y-3450996D01*
X6921804Y-3465271D01*
X6927138Y-3478987D01*
X6934098Y-3491992D01*
X6942632Y-3503980D01*
X6952538Y-3514851D01*
X6963714Y-3524453D01*
X6976008Y-3532581D01*
X6989165Y-3539134D01*
X7003084Y-3544062D01*
X7017461Y-3547211D01*
X7032091Y-3548583D01*
X7046823Y-3548126D01*
X7061403Y-3545840D01*
X7075576Y-3541826D01*
X7089140Y-3536086D01*
X7101890Y-3528720D01*
X7113625Y-3519830D01*
X7124192Y-3509568D01*
X7133437Y-3498087D01*
X7141159Y-3485591D01*
X7147356Y-3472230D01*
X7151827Y-3458159D01*
X7154519Y-3443681D01*
X7155434Y-3429000D01*
X7154519Y-3414318D01*
X7151827Y-3399840D01*
X7147356Y-3385769D01*
X7141159Y-3372408D01*
X7133437Y-3359912D01*
X7124192Y-3348431D01*
X7113625Y-3338169D01*
X7101890Y-3329279D01*
X7089140Y-3321913D01*
X7075576Y-3316173D01*
X7061403Y-3312160D01*
X7046823Y-3309874D01*
X7045248Y-3309823D01*
X7041235Y-3308908D01*
X7037984Y-3306470D01*
X7035901Y-3302965D01*
X7035393Y-3298901D01*
X7036562Y-3294938D01*
X7039152Y-3291789D01*
X7042759Y-3289909D01*
X7050176Y-3287826D01*
X7063740Y-3282086D01*
X7076490Y-3274720D01*
X7088225Y-3265830D01*
X7098792Y-3255568D01*
X7108037Y-3244088D01*
X7115759Y-3231591D01*
X7121956Y-3218230D01*
X7126427Y-3204159D01*
X7129119Y-3189681D01*
X7130034Y-3175000D01*
X7129119Y-3160318D01*
X7126427Y-3145840D01*
X7121956Y-3131769D01*
X7115759Y-3118408D01*
X7108037Y-3105912D01*
X7098792Y-3094431D01*
X7088225Y-3084169D01*
X7076490Y-3075279D01*
X7063740Y-3067913D01*
X7050176Y-3062173D01*
X7042759Y-3060090D01*
X7039152Y-3058210D01*
X7036562Y-3055061D01*
X7035393Y-3051098D01*
X7035901Y-3047034D01*
X7037984Y-3043529D01*
X7041235Y-3041091D01*
X7045248Y-3040176D01*
X7046823Y-3040126D01*
X7061403Y-3037840D01*
X7075576Y-3033826D01*
X7089140Y-3028086D01*
X7101890Y-3020720D01*
X7113625Y-3011830D01*
X7124192Y-3001568D01*
X7133437Y-2990088D01*
X7141159Y-2977591D01*
X7147356Y-2964230D01*
X7151827Y-2950159D01*
X7154519Y-2935681D01*
X7155434Y-2921000D01*
X7154519Y-2906318D01*
X7151827Y-2891840D01*
X7147356Y-2877769D01*
X7141159Y-2864408D01*
X7133437Y-2851912D01*
X7124192Y-2840431D01*
X7113625Y-2830169D01*
X7101890Y-2821279D01*
X7089140Y-2813913D01*
X7075576Y-2808173D01*
X7061403Y-2804160D01*
X7046823Y-2801874D01*
X7045248Y-2801823D01*
X7041235Y-2800908D01*
X7037984Y-2798470D01*
X7035901Y-2794965D01*
X7035393Y-2790901D01*
X7036562Y-2786938D01*
X7039152Y-2783789D01*
X7042759Y-2781909D01*
X7050176Y-2779826D01*
X7063740Y-2774086D01*
X7076490Y-2766720D01*
X7088225Y-2757830D01*
X7098792Y-2747568D01*
X7108037Y-2736088D01*
X7115759Y-2723591D01*
X7121956Y-2710230D01*
X7126427Y-2696159D01*
X7129119Y-2681681D01*
X7130034Y-2667000D01*
X7129119Y-2652318D01*
X7126427Y-2637840D01*
X7121956Y-2623769D01*
X7115759Y-2610408D01*
X7108037Y-2597912D01*
X7098792Y-2586431D01*
X7088225Y-2576169D01*
X7076490Y-2567279D01*
X7063740Y-2559913D01*
X7050176Y-2554173D01*
X7042759Y-2552090D01*
X7039152Y-2550210D01*
X7036562Y-2547061D01*
X7035393Y-2543098D01*
X7035901Y-2539034D01*
X7037984Y-2535529D01*
X7041235Y-2533091D01*
X7045248Y-2532176D01*
X7046823Y-2532126D01*
X7061403Y-2529840D01*
X7075576Y-2525826D01*
X7089140Y-2520086D01*
X7101890Y-2512720D01*
X7113625Y-2503830D01*
X7124192Y-2493568D01*
X7133437Y-2482088D01*
X7141159Y-2469591D01*
X7147356Y-2456230D01*
X7151827Y-2442159D01*
X7154519Y-2427681D01*
X7155434Y-2413000D01*
X7154519Y-2398318D01*
X7151827Y-2383840D01*
X7147356Y-2369769D01*
X7141159Y-2356408D01*
X7133437Y-2343912D01*
X7124192Y-2332431D01*
X7113625Y-2322169D01*
X7101890Y-2313279D01*
X7089140Y-2305913D01*
X7075576Y-2300173D01*
X7061403Y-2296160D01*
X7046823Y-2293874D01*
X7045248Y-2293823D01*
X7041235Y-2292908D01*
X7037984Y-2290470D01*
X7035901Y-2286965D01*
X7035393Y-2282901D01*
X7036562Y-2278938D01*
X7039152Y-2275789D01*
X7042759Y-2273909D01*
X7050176Y-2271826D01*
X7063740Y-2266086D01*
X7076490Y-2258720D01*
X7088225Y-2249830D01*
X7098792Y-2239568D01*
X7108037Y-2228088D01*
X7115759Y-2215591D01*
X7121956Y-2202230D01*
X7126427Y-2188159D01*
X7129119Y-2173681D01*
X7130034Y-2159000D01*
X7129119Y-2144318D01*
X7126427Y-2129840D01*
X7121956Y-2115769D01*
X7115759Y-2102408D01*
X7108037Y-2089912D01*
X7098792Y-2078431D01*
X7088225Y-2068169D01*
X7076490Y-2059279D01*
X7063740Y-2051913D01*
X7050176Y-2046173D01*
X7042759Y-2044090D01*
X7039152Y-2042210D01*
X7036562Y-2039061D01*
X7035393Y-2035098D01*
X7035901Y-2031034D01*
X7037984Y-2027529D01*
X7041235Y-2025091D01*
X7045248Y-2024176D01*
X7046823Y-2024125D01*
X7061403Y-2021839D01*
X7075576Y-2017826D01*
X7089140Y-2012086D01*
X7101890Y-2004720D01*
X7113625Y-1995830D01*
X7124192Y-1985568D01*
X7133437Y-1974088D01*
X7141159Y-1961591D01*
X7147356Y-1948230D01*
X7151827Y-1934159D01*
X7154519Y-1919681D01*
X7155434Y-1905000D01*
X7154519Y-1890318D01*
X7151827Y-1875840D01*
X7147356Y-1861769D01*
X7141159Y-1848408D01*
X7133437Y-1835912D01*
X7124192Y-1824431D01*
X7113625Y-1814169D01*
X7101890Y-1805279D01*
X7089140Y-1797913D01*
X7075576Y-1792173D01*
X7061403Y-1788160D01*
X7046823Y-1785874D01*
X7045248Y-1785823D01*
X7041235Y-1784908D01*
X7037984Y-1782470D01*
X7035901Y-1778965D01*
X7035393Y-1774901D01*
X7036562Y-1770938D01*
X7039152Y-1767789D01*
X7042759Y-1765909D01*
X7050176Y-1763826D01*
X7063740Y-1758086D01*
X7076490Y-1750720D01*
X7088225Y-1741830D01*
X7098792Y-1731568D01*
X7108037Y-1720088D01*
X7115759Y-1707591D01*
X7121956Y-1694230D01*
X7126427Y-1680159D01*
X7129119Y-1665681D01*
X7130034Y-1651000D01*
X7129119Y-1636318D01*
X7126427Y-1621840D01*
X7121956Y-1607769D01*
X7115759Y-1594408D01*
X7108037Y-1581912D01*
X7098792Y-1570431D01*
X7088225Y-1560169D01*
X7076490Y-1551279D01*
X7063740Y-1543913D01*
X7050176Y-1538173D01*
X7042759Y-1536090D01*
X7039152Y-1534210D01*
X7036562Y-1531061D01*
X7035393Y-1527098D01*
X7035901Y-1523034D01*
X7037984Y-1519529D01*
X7041235Y-1517091D01*
X7045248Y-1516176D01*
X7046823Y-1516126D01*
X7061403Y-1513840D01*
X7075576Y-1509826D01*
X7089140Y-1504086D01*
X7101890Y-1496720D01*
X7113625Y-1487830D01*
X7124192Y-1477568D01*
X7133437Y-1466088D01*
X7141159Y-1453591D01*
X7147356Y-1440230D01*
X7151827Y-1426159D01*
X7154519Y-1411681D01*
X7155434Y-1397000D01*
X7154519Y-1382318D01*
X7151827Y-1367840D01*
X7147356Y-1353769D01*
X7141159Y-1340408D01*
X7133437Y-1327912D01*
X7124192Y-1316431D01*
X7113625Y-1306169D01*
X7101890Y-1297279D01*
X7089140Y-1289913D01*
X7075576Y-1284173D01*
X7061403Y-1280160D01*
X7046823Y-1277874D01*
X7045248Y-1277823D01*
X7041235Y-1276908D01*
X7037984Y-1274470D01*
X7035901Y-1270965D01*
X7035393Y-1266901D01*
X7036562Y-1262938D01*
X7039152Y-1259789D01*
X7042759Y-1257909D01*
X7050176Y-1255826D01*
X7063740Y-1250086D01*
X7076490Y-1242720D01*
X7088225Y-1233830D01*
X7098792Y-1223568D01*
X7108037Y-1212088D01*
X7115759Y-1199591D01*
X7121956Y-1186230D01*
X7126427Y-1172159D01*
X7129119Y-1157681D01*
X7130034Y-1143000D01*
X7129119Y-1128318D01*
X7126427Y-1113840D01*
X7121956Y-1099769D01*
X7115759Y-1086408D01*
X7108037Y-1073912D01*
X7098792Y-1062431D01*
X7088225Y-1052169D01*
X7076490Y-1043279D01*
X7063740Y-1035913D01*
X7050176Y-1030173D01*
X7036003Y-1026160D01*
X7021423Y-1023874D01*
X7006691Y-1023416D01*
X6992061Y-1024788D01*
X6977684Y-1027937D01*
X6963765Y-1032865D01*
X6950608Y-1039418D01*
X6938314Y-1047546D01*
X6927138Y-1057148D01*
X6917232Y-1068019D01*
X6908698Y-1080008D01*
X6901738Y-1093012D01*
X6900722Y-1095603D01*
X6898538Y-1099007D01*
X6895236Y-1101293D01*
X6891274Y-1102106D01*
X6604508Y-1102106D01*
X6596024Y-1102918D01*
X6588353Y-1105255D01*
X6581292Y-1109014D01*
X6574739Y-1114450D01*
X6283350Y-1405839D01*
X6277914Y-1412392D01*
X6274155Y-1419453D01*
X6271818Y-1427124D01*
X6271006Y-1435608D01*
X6271006Y-1839366D01*
X6270091Y-1843582D01*
X6267551Y-1847037D01*
X6263792Y-1849120D01*
X6259525Y-1849475D01*
X6255461Y-1848002D01*
X6252413Y-1845056D01*
X6248806Y-1839671D01*
X6239713Y-1829307D01*
X6229299Y-1820164D01*
X6217818Y-1812493D01*
X6205423Y-1806397D01*
X6192367Y-1801977D01*
X6178804Y-1799234D01*
X6165037Y-1798370D01*
X6151219Y-1799234D01*
X6137656Y-1801977D01*
X6124600Y-1806397D01*
X6112205Y-1812493D01*
X6100724Y-1820164D01*
X6090310Y-1829307D01*
X6081217Y-1839671D01*
X6073546Y-1851152D01*
X6067399Y-1863547D01*
X6062980Y-1876653D01*
X6060287Y-1890217D01*
X6059373Y-1903984D01*
X6060287Y-1917750D01*
X6062980Y-1931314D01*
X6066129Y-1940661D01*
X6066688Y-1944370D01*
X6065824Y-1948027D01*
X6063691Y-1951126D01*
X6011468Y-2003348D01*
X6008166Y-2005584D01*
X6004255Y-2006346D01*
X5981039Y-2006346D01*
X5977026Y-2005533D01*
X5973673Y-2003196D01*
X5971489Y-1999742D01*
X5970879Y-1995728D01*
X5971895Y-1991766D01*
X5974384Y-1988515D01*
X5985713Y-1978660D01*
X5994806Y-1968296D01*
X6002477Y-1956816D01*
X6008624Y-1944420D01*
X6013043Y-1931314D01*
X6015736Y-1917750D01*
X6016650Y-1903984D01*
X6015736Y-1890217D01*
X6013043Y-1876653D01*
X6008624Y-1863547D01*
X6002477Y-1851152D01*
X5994806Y-1839671D01*
X5985713Y-1829307D01*
X5975299Y-1820164D01*
X5963818Y-1812493D01*
X5955131Y-1808225D01*
X5952134Y-1805939D01*
X5950153Y-1802790D01*
X5949442Y-1799082D01*
X5949442Y-1022096D01*
X5948680Y-1014120D01*
X5946495Y-1006906D01*
X5942939Y-1000302D01*
X5937859Y-994105D01*
X5742482Y-798728D01*
X5736285Y-793648D01*
X5729681Y-790092D01*
X5722467Y-787908D01*
X5714492Y-787146D01*
X5036616Y-787146D01*
X5032705Y-786384D01*
X5029403Y-784148D01*
X5001971Y-756716D01*
X4999786Y-753465D01*
X4999024Y-749554D01*
X4999786Y-745642D01*
X5001971Y-742391D01*
X5005273Y-740156D01*
X5009184Y-739394D01*
X5031130Y-739394D01*
X5031130Y-680720D01*
X4969357Y-680720D01*
X4969357Y-699566D01*
X4968595Y-703478D01*
X4966360Y-706780D01*
X4963058Y-708964D01*
X4959197Y-709726D01*
X4955286Y-708964D01*
X4951984Y-706780D01*
X4931308Y-686054D01*
X4929174Y-682955D01*
X4928311Y-679348D01*
X4928819Y-675640D01*
X4933035Y-663041D01*
X4935728Y-649122D01*
X4936642Y-635000D01*
X4935728Y-620877D01*
X4933035Y-606958D01*
X4928565Y-593496D01*
X4922418Y-580694D01*
X4914646Y-568807D01*
X4909769Y-563118D01*
X4907889Y-559765D01*
X4907381Y-555955D01*
X4908296Y-552246D01*
X4910531Y-549148D01*
X4913782Y-547065D01*
X4917541Y-546354D01*
X4959197Y-546354D01*
X4963058Y-547116D01*
X4966360Y-549351D01*
X4968595Y-552602D01*
X4969357Y-556514D01*
X4969357Y-589280D01*
X5031130Y-589280D01*
X5031130Y-556514D01*
X5031943Y-552602D01*
X5034127Y-549351D01*
X5037429Y-547116D01*
X5041290Y-546354D01*
X5118709Y-546354D01*
X5122570Y-547116D01*
X5125872Y-549351D01*
X5128056Y-552602D01*
X5128869Y-556514D01*
X5128869Y-589280D01*
X5190642Y-589280D01*
X5190642Y-556514D01*
X5191404Y-552602D01*
X5193639Y-549351D01*
X5196941Y-547116D01*
X5200802Y-546354D01*
X5212283Y-546354D01*
X5216194Y-547116D01*
X5219496Y-549351D01*
X5259527Y-589330D01*
X5265724Y-594410D01*
X5272328Y-597966D01*
X5279491Y-600151D01*
X5287467Y-600964D01*
X5446369Y-600964D01*
X5450281Y-601726D01*
X5453583Y-603910D01*
X5455767Y-607212D01*
X5457240Y-618286D01*
X5459120Y-623722D01*
X5462168Y-628548D01*
X5466232Y-632612D01*
X5471109Y-635660D01*
X5476494Y-637540D01*
X5482793Y-638251D01*
X5591606Y-638251D01*
X5597906Y-637540D01*
X5603290Y-635660D01*
X5608167Y-632612D01*
X5612231Y-628548D01*
X5615279Y-623722D01*
X5617159Y-618286D01*
X5617870Y-612038D01*
X5617870Y-513181D01*
X5617159Y-506882D01*
X5615279Y-501497D01*
X5612231Y-496620D01*
X5608167Y-492607D01*
X5605932Y-491185D01*
X5602986Y-488391D01*
X5601411Y-484632D01*
X5601411Y-480568D01*
X5602986Y-476808D01*
X5605932Y-474014D01*
X5608167Y-472592D01*
X5612231Y-468579D01*
X5615279Y-463702D01*
X5617159Y-458317D01*
X5617870Y-452018D01*
X5617870Y-353161D01*
X5617159Y-346913D01*
X5615279Y-341528D01*
X5612231Y-336651D01*
X5608167Y-332587D01*
X5603290Y-329539D01*
X5597906Y-327660D01*
X5591606Y-326948D01*
X5482793Y-326948D01*
X5476494Y-327660D01*
X5471109Y-329539D01*
X5466232Y-332587D01*
X5462168Y-336651D01*
X5459120Y-341528D01*
X5457240Y-346913D01*
X5456580Y-352653D01*
X5455513Y-356209D01*
X5453278Y-359105D01*
X5450128Y-361035D01*
X5446522Y-361696D01*
X5197094Y-361696D01*
X5193639Y-361086D01*
X5190642Y-359359D01*
X5188356Y-356717D01*
X5182565Y-339496D01*
X5176418Y-326694D01*
X5168646Y-314807D01*
X5159451Y-304038D01*
X5148986Y-294487D01*
X5137353Y-286410D01*
X5124805Y-279857D01*
X5111496Y-274929D01*
X5097678Y-271780D01*
X5083556Y-270408D01*
X5069382Y-270865D01*
X5055362Y-273151D01*
X5041798Y-277164D01*
X5028844Y-282905D01*
X5016703Y-290271D01*
X5005628Y-299110D01*
X4995773Y-309270D01*
X4987290Y-320649D01*
X4980330Y-332994D01*
X4974996Y-346151D01*
X4971389Y-359867D01*
X4969611Y-373888D01*
X4969611Y-388112D01*
X4971389Y-402132D01*
X4974996Y-415848D01*
X4980330Y-429006D01*
X4987290Y-441350D01*
X4996281Y-453390D01*
X4998110Y-457454D01*
X4998059Y-461924D01*
X4996027Y-465937D01*
X4992522Y-468680D01*
X4988153Y-469646D01*
X4917541Y-469646D01*
X4913782Y-468934D01*
X4910531Y-466851D01*
X4908296Y-463753D01*
X4907381Y-460044D01*
X4907889Y-456234D01*
X4909769Y-452882D01*
X4914646Y-447192D01*
X4922418Y-435305D01*
X4928565Y-422503D01*
X4933035Y-409041D01*
X4935728Y-395122D01*
X4936642Y-381000D01*
X4935728Y-366877D01*
X4933035Y-352958D01*
X4928565Y-339496D01*
X4922418Y-326694D01*
X4914646Y-314807D01*
X4905451Y-304038D01*
X4894986Y-294487D01*
X4883353Y-286410D01*
X4870805Y-279857D01*
X4857496Y-274929D01*
X4843678Y-271780D01*
X4829556Y-270408D01*
X4815382Y-270865D01*
X4801362Y-273151D01*
X4787798Y-277164D01*
X4774844Y-282905D01*
X4762703Y-290271D01*
X4751628Y-299110D01*
X4741773Y-309270D01*
X4733290Y-320649D01*
X4726330Y-332994D01*
X4720996Y-346151D01*
X4717389Y-359867D01*
X4715611Y-373888D01*
X4715611Y-388112D01*
X4717389Y-402132D01*
X4720996Y-415848D01*
X4726330Y-429006D01*
X4733290Y-441350D01*
X4742281Y-453390D01*
X4744110Y-457454D01*
X4744059Y-461924D01*
X4742027Y-465937D01*
X4738522Y-468680D01*
X4734153Y-469646D01*
X4663541Y-469646D01*
X4659782Y-468934D01*
X4656531Y-466851D01*
X4654296Y-463753D01*
X4653381Y-460044D01*
X4653889Y-456234D01*
X4655769Y-452882D01*
X4660646Y-447192D01*
X4668418Y-435305D01*
X4674565Y-422503D01*
X4679035Y-409041D01*
X4681728Y-395122D01*
X4682642Y-381000D01*
X4681728Y-366877D01*
X4679035Y-352958D01*
X4674565Y-339496D01*
X4668418Y-326694D01*
X4660646Y-314807D01*
X4651451Y-304038D01*
X4640986Y-294487D01*
X4629353Y-286410D01*
X4616805Y-279857D01*
X4603496Y-274929D01*
X4589678Y-271780D01*
X4575556Y-270408D01*
X4561382Y-270865D01*
X4547362Y-273151D01*
X4533798Y-277164D01*
X4520844Y-282905D01*
X4508703Y-290271D01*
X4497628Y-299110D01*
X4487773Y-309270D01*
X4479290Y-320649D01*
X4472330Y-332994D01*
X4466996Y-346151D01*
X4463389Y-359867D01*
X4461611Y-373888D01*
X4461611Y-388112D01*
X4463389Y-402132D01*
X4466996Y-415848D01*
X4472330Y-429006D01*
X4479290Y-441350D01*
X4488281Y-453390D01*
X4490110Y-457454D01*
X4490059Y-461924D01*
X4488027Y-465937D01*
X4484522Y-468680D01*
X4480153Y-469646D01*
X4465116Y-469646D01*
X4461205Y-468884D01*
X4457903Y-466648D01*
X4423308Y-432054D01*
X4421174Y-428955D01*
X4420311Y-425348D01*
X4420819Y-421640D01*
X4425035Y-409041D01*
X4427728Y-395122D01*
X4428642Y-381000D01*
X4427728Y-366877D01*
X4425035Y-352958D01*
X4420565Y-339496D01*
X4414418Y-326694D01*
X4406646Y-314807D01*
X4397451Y-304038D01*
X4386986Y-294487D01*
X4375353Y-286410D01*
X4362805Y-279857D01*
X4349496Y-274929D01*
X4335678Y-271780D01*
X4321556Y-270408D01*
X4307382Y-270865D01*
X4293362Y-273151D01*
X4279798Y-277164D01*
X4266844Y-282905D01*
X4254703Y-290271D01*
X4243628Y-299110D01*
X4233773Y-309270D01*
X4225290Y-320649D01*
X4218330Y-332994D01*
X4212996Y-346151D01*
X4209389Y-359867D01*
X4207611Y-373888D01*
X4207611Y-388112D01*
X4209389Y-402132D01*
X4212996Y-415848D01*
X4218330Y-429006D01*
X4225290Y-441350D01*
X4233773Y-452729D01*
X4243628Y-462889D01*
X4254703Y-471728D01*
X4266844Y-479094D01*
X4279798Y-484835D01*
X4293362Y-488848D01*
X4307382Y-491134D01*
X4321556Y-491591D01*
X4335678Y-490220D01*
X4349496Y-487070D01*
X4358233Y-483819D01*
X4362043Y-483209D01*
X4365752Y-484022D01*
X4368952Y-486206D01*
X4417517Y-534771D01*
X4423714Y-539851D01*
X4430318Y-543407D01*
X4437532Y-545592D01*
X4445508Y-546354D01*
X4480153Y-546354D01*
X4484522Y-547319D01*
X4488027Y-550062D01*
X4490059Y-554075D01*
X4490110Y-558546D01*
X4488281Y-562610D01*
X4479290Y-574649D01*
X4472330Y-586994D01*
X4466996Y-600151D01*
X4463389Y-613867D01*
X4461611Y-627888D01*
X4461611Y-642112D01*
X4463389Y-656132D01*
X4466996Y-669848D01*
X4472330Y-683006D01*
X4479290Y-695350D01*
X4487773Y-706729D01*
X4497628Y-716889D01*
X4508703Y-725728D01*
X4520844Y-733094D01*
X4533798Y-738835D01*
X4547362Y-742848D01*
X4561382Y-745134D01*
X4575556Y-745591D01*
X4589678Y-744220D01*
X4603496Y-741070D01*
X4612233Y-737819D01*
X4616043Y-737209D01*
X4619752Y-738022D01*
X4622952Y-740206D01*
X4785817Y-903071D01*
X4792014Y-908151D01*
X4798618Y-911707D01*
X4805832Y-913892D01*
X4813808Y-914653D01*
X5682183Y-914653D01*
X5686094Y-915416D01*
X5689396Y-917651D01*
X5724448Y-952703D01*
X5726684Y-956005D01*
X5727446Y-959916D01*
X5727446Y-1805279D01*
X5726531Y-1809546D01*
X5723890Y-1813001D01*
X5720029Y-1815033D01*
X5715711Y-1815287D01*
X5711647Y-1813712D01*
X5709818Y-1812493D01*
X5697423Y-1806397D01*
X5684367Y-1801977D01*
X5670804Y-1799234D01*
X5657037Y-1798370D01*
X5643219Y-1799234D01*
X5629656Y-1801977D01*
X5616600Y-1806397D01*
X5604205Y-1812493D01*
X5592724Y-1820164D01*
X5582310Y-1829307D01*
X5573217Y-1839671D01*
X5565546Y-1851152D01*
X5559399Y-1863547D01*
X5554980Y-1876653D01*
X5552287Y-1890217D01*
X5551373Y-1903984D01*
X5552287Y-1917750D01*
X5554980Y-1931314D01*
X5559399Y-1944420D01*
X5565546Y-1956816D01*
X5573217Y-1968296D01*
X5582310Y-1978660D01*
X5592724Y-1987804D01*
X5604205Y-1995474D01*
X5616600Y-2001570D01*
X5629656Y-2005990D01*
X5643219Y-2008733D01*
X5657037Y-2009597D01*
X5670804Y-2008733D01*
X5684367Y-2005990D01*
X5697423Y-2001570D01*
X5709818Y-1995474D01*
X5721299Y-1987804D01*
X5731764Y-1978609D01*
X5735066Y-1976120D01*
X5739079Y-1975154D01*
X5743143Y-1975866D01*
X5746597Y-1978101D01*
X5818428Y-2049932D01*
X5820613Y-2053234D01*
X5821375Y-2057146D01*
X5820613Y-2061006D01*
X5818428Y-2064308D01*
X5815126Y-2066543D01*
X5811215Y-2067306D01*
X5088432Y-2067306D01*
X5084572Y-2066543D01*
X5081270Y-2064308D01*
X5033060Y-2016150D01*
X5026507Y-2010714D01*
X5019446Y-2006955D01*
X5011775Y-2004618D01*
X5003292Y-2003806D01*
X4968036Y-2003806D01*
X4964074Y-2002993D01*
X4960721Y-2000656D01*
X4958537Y-1997202D01*
X4957927Y-1993188D01*
X4958892Y-1989226D01*
X4961331Y-1985975D01*
X4969713Y-1978660D01*
X4978806Y-1968296D01*
X4986477Y-1956816D01*
X4992624Y-1944420D01*
X4997043Y-1931314D01*
X4999736Y-1917750D01*
X5000650Y-1903984D01*
X4999736Y-1890217D01*
X4997043Y-1876653D01*
X4992624Y-1863547D01*
X4986477Y-1851152D01*
X4978806Y-1839671D01*
X4969713Y-1829307D01*
X4959299Y-1820164D01*
X4947818Y-1812493D01*
X4935423Y-1806397D01*
X4922367Y-1801977D01*
X4908804Y-1799234D01*
X4895037Y-1798370D01*
X4881219Y-1799234D01*
X4867656Y-1801977D01*
X4854600Y-1806397D01*
X4842205Y-1812493D01*
X4830724Y-1820164D01*
X4820310Y-1829307D01*
X4811217Y-1839671D01*
X4803546Y-1851152D01*
X4797399Y-1863547D01*
X4792980Y-1876653D01*
X4790287Y-1890217D01*
X4789373Y-1903984D01*
X4790287Y-1917750D01*
X4792980Y-1931314D01*
X4797399Y-1944420D01*
X4803546Y-1956816D01*
X4811217Y-1968296D01*
X4820310Y-1978660D01*
X4828692Y-1985975D01*
X4831130Y-1989226D01*
X4832096Y-1993188D01*
X4831486Y-1997202D01*
X4829302Y-2000656D01*
X4825949Y-2002993D01*
X4821986Y-2003806D01*
X4714036Y-2003806D01*
X4710074Y-2002993D01*
X4706721Y-2000656D01*
X4704537Y-1997202D01*
X4703927Y-1993188D01*
X4704892Y-1989226D01*
X4707331Y-1985975D01*
X4715713Y-1978660D01*
X4724806Y-1968296D01*
X4732477Y-1956816D01*
X4738624Y-1944420D01*
X4743043Y-1931314D01*
X4745736Y-1917750D01*
X4746650Y-1903984D01*
X4745736Y-1890217D01*
X4743043Y-1876653D01*
X4738624Y-1863547D01*
X4732477Y-1851152D01*
X4724806Y-1839671D01*
X4715713Y-1829307D01*
X4705299Y-1820164D01*
X4693818Y-1812493D01*
X4681423Y-1806397D01*
X4668367Y-1801977D01*
X4654804Y-1799234D01*
X4641037Y-1798370D01*
X4627219Y-1799234D01*
X4613656Y-1801977D01*
X4600600Y-1806397D01*
X4588205Y-1812493D01*
X4576724Y-1820164D01*
X4566310Y-1829307D01*
X4557217Y-1839671D01*
X4549546Y-1851152D01*
X4543399Y-1863547D01*
X4538980Y-1876653D01*
X4536287Y-1890217D01*
X4535373Y-1903984D01*
X4536287Y-1917750D01*
X4538980Y-1931314D01*
X4543399Y-1944420D01*
X4549546Y-1956816D01*
X4557217Y-1968296D01*
X4566310Y-1978660D01*
X4574692Y-1985975D01*
X4577130Y-1989226D01*
X4578096Y-1993188D01*
X4577486Y-1997202D01*
X4575302Y-2000656D01*
X4571949Y-2002993D01*
X4567986Y-2003806D01*
X4460036Y-2003806D01*
X4456074Y-2002993D01*
X4452721Y-2000656D01*
X4450537Y-1997202D01*
X4449927Y-1993188D01*
X4450892Y-1989226D01*
X4453331Y-1985975D01*
X4461713Y-1978660D01*
X4470806Y-1968296D01*
X4478477Y-1956816D01*
X4484624Y-1944420D01*
X4489043Y-1931314D01*
X4491736Y-1917750D01*
X4492650Y-1903984D01*
X4491736Y-1890217D01*
X4489043Y-1876653D01*
X4484624Y-1863547D01*
X4478477Y-1851152D01*
X4470806Y-1839671D01*
X4461713Y-1829307D01*
X4451299Y-1820164D01*
X4439818Y-1812493D01*
X4427423Y-1806397D01*
X4414367Y-1801977D01*
X4400804Y-1799234D01*
X4386986Y-1798370D01*
X4373219Y-1799234D01*
X4359656Y-1801977D01*
X4346600Y-1806397D01*
X4334205Y-1812493D01*
X4322724Y-1820164D01*
X4312310Y-1829307D01*
X4303217Y-1839671D01*
X4295546Y-1851152D01*
X4289399Y-1863547D01*
X4284980Y-1876653D01*
X4282287Y-1890217D01*
X4281373Y-1903984D01*
X4282287Y-1917750D01*
X4284980Y-1931314D01*
X4289399Y-1944420D01*
X4295546Y-1956816D01*
X4303217Y-1968296D01*
X4312310Y-1978660D01*
X4320692Y-1985975D01*
X4323130Y-1989226D01*
X4324096Y-1993188D01*
X4323486Y-1997202D01*
X4321302Y-2000656D01*
X4317949Y-2002993D01*
X4313986Y-2003806D01*
X4206036Y-2003806D01*
X4202074Y-2002993D01*
X4198721Y-2000656D01*
X4196537Y-1997202D01*
X4195927Y-1993188D01*
X4196892Y-1989226D01*
X4199331Y-1985975D01*
X4207713Y-1978660D01*
X4216806Y-1968296D01*
X4224477Y-1956816D01*
X4230624Y-1944420D01*
X4235043Y-1931314D01*
X4237736Y-1917750D01*
X4238650Y-1903984D01*
X4237736Y-1890217D01*
X4235043Y-1876653D01*
X4230624Y-1863547D01*
X4224477Y-1851152D01*
X4216806Y-1839671D01*
X4207713Y-1829307D01*
X4197299Y-1820164D01*
X4185818Y-1812493D01*
X4173423Y-1806397D01*
X4160367Y-1801977D01*
X4146804Y-1799234D01*
X4132986Y-1798370D01*
X4119219Y-1799234D01*
X4105656Y-1801977D01*
X4092600Y-1806397D01*
X4080205Y-1812493D01*
X4068724Y-1820164D01*
X4058310Y-1829307D01*
X4049217Y-1839671D01*
X4041546Y-1851152D01*
X4035399Y-1863547D01*
X4030979Y-1876653D01*
X4028287Y-1890217D01*
X4027373Y-1903984D01*
X4028287Y-1917750D01*
X4030979Y-1931314D01*
X4035399Y-1944420D01*
X4041546Y-1956816D01*
X4049217Y-1968296D01*
X4058310Y-1978660D01*
X4066692Y-1985975D01*
X4069130Y-1989226D01*
X4070096Y-1993188D01*
X4069486Y-1997202D01*
X4067301Y-2000656D01*
X4063949Y-2002993D01*
X4059986Y-2003806D01*
X4040936Y-2003806D01*
X4037076Y-2003043D01*
X4033774Y-2000808D01*
X3981246Y-1948332D01*
X3979164Y-1945233D01*
X3978300Y-1941575D01*
X3978808Y-1937867D01*
X3981043Y-1931314D01*
X3983736Y-1917750D01*
X3984650Y-1903984D01*
X3983736Y-1890217D01*
X3981043Y-1876653D01*
X3976624Y-1863547D01*
X3970477Y-1851152D01*
X3962806Y-1839671D01*
X3953713Y-1829307D01*
X3943299Y-1820164D01*
X3931818Y-1812493D01*
X3919423Y-1806397D01*
X3906367Y-1801977D01*
X3892804Y-1799234D01*
X3878986Y-1798370D01*
X3865219Y-1799234D01*
X3851656Y-1801977D01*
X3838600Y-1806397D01*
X3826205Y-1812493D01*
X3814724Y-1820164D01*
X3804310Y-1829307D01*
X3795217Y-1839671D01*
X3787546Y-1851152D01*
X3781399Y-1863547D01*
X3776979Y-1876653D01*
X3774287Y-1890217D01*
X3773373Y-1903984D01*
X3774287Y-1917750D01*
X3776979Y-1931314D01*
X3781399Y-1944420D01*
X3787546Y-1956816D01*
X3795217Y-1968296D01*
X3804310Y-1978660D01*
X3814724Y-1987804D01*
X3826205Y-1995474D01*
X3838600Y-2001570D01*
X3851656Y-2005990D01*
X3865219Y-2008733D01*
X3878986Y-2009597D01*
X3892804Y-2008733D01*
X3906367Y-2005990D01*
X3913022Y-2003755D01*
X3916730Y-2003247D01*
X3920337Y-2004060D01*
X3923436Y-2006193D01*
X3990543Y-2073249D01*
X3997096Y-2078685D01*
X4004157Y-2082444D01*
X4011828Y-2084781D01*
X4020312Y-2085593D01*
X4797602Y-2085593D01*
X4801870Y-2086559D01*
X4805324Y-2089150D01*
X4807356Y-2093010D01*
X4807610Y-2097328D01*
X4806035Y-2101392D01*
X4803546Y-2105152D01*
X4800447Y-2111400D01*
X4798212Y-2114397D01*
X4795012Y-2116378D01*
X4791354Y-2117090D01*
X3385616Y-2117090D01*
X3381756Y-2116328D01*
X3378454Y-2114092D01*
X3295091Y-2030730D01*
X3292856Y-2027428D01*
X3292094Y-2023567D01*
X3292094Y-1997049D01*
X3293059Y-1992782D01*
X3295650Y-1989328D01*
X3299510Y-1987245D01*
X3303828Y-1986991D01*
X3307892Y-1988566D01*
X3318205Y-1995474D01*
X3330600Y-2001570D01*
X3343656Y-2005990D01*
X3357219Y-2008733D01*
X3370986Y-2009597D01*
X3384804Y-2008733D01*
X3398367Y-2005990D01*
X3411423Y-2001570D01*
X3423818Y-1995474D01*
X3435299Y-1987804D01*
X3445713Y-1978660D01*
X3454806Y-1968296D01*
X3462477Y-1956816D01*
X3468624Y-1944420D01*
X3473043Y-1931314D01*
X3475736Y-1917750D01*
X3476650Y-1903984D01*
X3475736Y-1890217D01*
X3473043Y-1876653D01*
X3468624Y-1863547D01*
X3462477Y-1851152D01*
X3454806Y-1839671D01*
X3445713Y-1829307D01*
X3435299Y-1820164D01*
X3423818Y-1812493D01*
X3411423Y-1806397D01*
X3398367Y-1801977D01*
X3384804Y-1799234D01*
X3370986Y-1798370D01*
X3357219Y-1799234D01*
X3343656Y-1801977D01*
X3330600Y-1806397D01*
X3318205Y-1812493D01*
X3307892Y-1819402D01*
X3303828Y-1820976D01*
X3299510Y-1820722D01*
X3295650Y-1818639D01*
X3293059Y-1815185D01*
X3292094Y-1810918D01*
X3292094Y-1124813D01*
X3292856Y-1120902D01*
X3295091Y-1117650D01*
X3298393Y-1115415D01*
X3302254Y-1114653D01*
X3370427Y-1114653D01*
X3376676Y-1113942D01*
X3382111Y-1112062D01*
X3386937Y-1109014D01*
X3391001Y-1104950D01*
X3394049Y-1100124D01*
X3395929Y-1094689D01*
X3396640Y-1088440D01*
X3396640Y-689559D01*
X3395929Y-683310D01*
X3394049Y-677875D01*
X3391001Y-673049D01*
X3386937Y-668985D01*
X3382111Y-665937D01*
X3376676Y-664057D01*
X3370427Y-663346D01*
X2921558Y-663346D01*
X2915310Y-664057D01*
X2909874Y-665937D01*
X2905048Y-668985D01*
X2900984Y-673049D01*
X2897936Y-677875D01*
X2896057Y-683310D01*
X2895346Y-689559D01*
X2895346Y-1088440D01*
X2896057Y-1094689D01*
X2897936Y-1100124D01*
X2900984Y-1104950D01*
X2905048Y-1109014D01*
X2909874Y-1112062D01*
X2915310Y-1113942D01*
X2921558Y-1114653D01*
X3200146Y-1114653D01*
X3204006Y-1115415D01*
X3207308Y-1117650D01*
X3209544Y-1120902D01*
X3210306Y-1124813D01*
X3210306Y-1823466D01*
X3209493Y-1827479D01*
X3207156Y-1830832D01*
X3203702Y-1832965D01*
X3199688Y-1833625D01*
X3195726Y-1832610D01*
X3191713Y-1829307D01*
X3181350Y-1820164D01*
X3169869Y-1812493D01*
X3157474Y-1806397D01*
X3144367Y-1801977D01*
X3130804Y-1799234D01*
X3117037Y-1798370D01*
X3103270Y-1799234D01*
X3089706Y-1801977D01*
X3076600Y-1806397D01*
X3064205Y-1812493D01*
X3052724Y-1820164D01*
X3042361Y-1829307D01*
X3033217Y-1839671D01*
X3025546Y-1851152D01*
X3019450Y-1863547D01*
X3015030Y-1876653D01*
X3012287Y-1890217D01*
X3011424Y-1903984D01*
X3012287Y-1917750D01*
X3015030Y-1931314D01*
X3019450Y-1944420D01*
X3025546Y-1956816D01*
X3033217Y-1968296D01*
X3042361Y-1978660D01*
X3052724Y-1987804D01*
X3064205Y-1995474D01*
X3076600Y-2001570D01*
X3089706Y-2005990D01*
X3103270Y-2008733D01*
X3117037Y-2009597D01*
X3130804Y-2008733D01*
X3144367Y-2005990D01*
X3157474Y-2001570D01*
X3169869Y-1995474D01*
X3181350Y-1987804D01*
X3191713Y-1978660D01*
X3195726Y-1975357D01*
X3199688Y-1974342D01*
X3203702Y-1975002D01*
X3207156Y-1977136D01*
X3209493Y-1980488D01*
X3210306Y-1984502D01*
X3210306Y-2044192D01*
X3211118Y-2052675D01*
X3213455Y-2060346D01*
X3217214Y-2067407D01*
X3222650Y-2073960D01*
X3335223Y-2186533D01*
X3341776Y-2191969D01*
X3348837Y-2195728D01*
X3356508Y-2198065D01*
X3364992Y-2198878D01*
X4791354Y-2198878D01*
X4795012Y-2199589D01*
X4798212Y-2201570D01*
X4800447Y-2204567D01*
X4803546Y-2210816D01*
X4811217Y-2222296D01*
X4820310Y-2232660D01*
X4830724Y-2241804D01*
X4842205Y-2249474D01*
X4854600Y-2255570D01*
X4867656Y-2259990D01*
X4881219Y-2262733D01*
X4895037Y-2263597D01*
X4908804Y-2262733D01*
X4922367Y-2259990D01*
X4935423Y-2255570D01*
X4947818Y-2249474D01*
X4959299Y-2241804D01*
X4969713Y-2232660D01*
X4978806Y-2222296D01*
X4986477Y-2210816D01*
X4992624Y-2198420D01*
X4997043Y-2185314D01*
X4999736Y-2171750D01*
X5000650Y-2157984D01*
X4999736Y-2144217D01*
X4997043Y-2130653D01*
X4993132Y-2119122D01*
X4992674Y-2114651D01*
X4994198Y-2110435D01*
X4997399Y-2107234D01*
X5001666Y-2105761D01*
X5006136Y-2106269D01*
X5009946Y-2108708D01*
X5038039Y-2136749D01*
X5044592Y-2142185D01*
X5051653Y-2145944D01*
X5059324Y-2148281D01*
X5067808Y-2149094D01*
X6116015Y-2149094D01*
X6119926Y-2149856D01*
X6123228Y-2152091D01*
X6125413Y-2155393D01*
X6126175Y-2159254D01*
X6125413Y-2163165D01*
X6123228Y-2166467D01*
X5713628Y-2576017D01*
X5708548Y-2582214D01*
X5704992Y-2588818D01*
X5702808Y-2596032D01*
X5702046Y-2604008D01*
X5702046Y-3244342D01*
X5701284Y-3248202D01*
X5699048Y-3251504D01*
X5697372Y-3253181D01*
X5691733Y-3261207D01*
X5687618Y-3270097D01*
X5685078Y-3279546D01*
X5684215Y-3289300D01*
X5685078Y-3299053D01*
X5687618Y-3308502D01*
X5688431Y-3310280D01*
X5689396Y-3314598D01*
X5688431Y-3318967D01*
X5685688Y-3322421D01*
X5681675Y-3324453D01*
X5677255Y-3324555D01*
X5670804Y-3323234D01*
X5657037Y-3322370D01*
X5643219Y-3323234D01*
X5629656Y-3325977D01*
X5616600Y-3330397D01*
X5604205Y-3336493D01*
X5592724Y-3344164D01*
X5582310Y-3353308D01*
X5573217Y-3363671D01*
X5565546Y-3375151D01*
X5559399Y-3387547D01*
X5554980Y-3400653D01*
X5552287Y-3414217D01*
X5551373Y-3427984D01*
X5552287Y-3441750D01*
X5554980Y-3455314D01*
X5559399Y-3468420D01*
X5565546Y-3480815D01*
X5573217Y-3492296D01*
X5582310Y-3502660D01*
X5592724Y-3511804D01*
X5604205Y-3519474D01*
X5616600Y-3525570D01*
X5629656Y-3529990D01*
X5643219Y-3532733D01*
X5657037Y-3533597D01*
X5670804Y-3532733D01*
X5684367Y-3529990D01*
X5697423Y-3525570D01*
X5709818Y-3519474D01*
X5721299Y-3511804D01*
X5731713Y-3502660D01*
X5740806Y-3492296D01*
X5748477Y-3480815D01*
X5754624Y-3468420D01*
X5759043Y-3455314D01*
X5761736Y-3441750D01*
X5762650Y-3427984D01*
X5761736Y-3414217D01*
X5759043Y-3400653D01*
X5754624Y-3387547D01*
X5748477Y-3375151D01*
X5740806Y-3363671D01*
X5739180Y-3361791D01*
X5737047Y-3357879D01*
X5736793Y-3353460D01*
X5738418Y-3349345D01*
X5741670Y-3346348D01*
X5745937Y-3344976D01*
X5750153Y-3344621D01*
X5759602Y-3342081D01*
X5768492Y-3337966D01*
X5776518Y-3332327D01*
X5783427Y-3325418D01*
X5789066Y-3317392D01*
X5793181Y-3308502D01*
X5795721Y-3299053D01*
X5796584Y-3289300D01*
X5795721Y-3279546D01*
X5793181Y-3270097D01*
X5789066Y-3261207D01*
X5783427Y-3253181D01*
X5781751Y-3251504D01*
X5779516Y-3248202D01*
X5778754Y-3244342D01*
X5778754Y-2623616D01*
X5779516Y-2619705D01*
X5781751Y-2616403D01*
X5875223Y-2522931D01*
X5878474Y-2520746D01*
X5882386Y-2519984D01*
X5886297Y-2520746D01*
X5889548Y-2522931D01*
X5891784Y-2526233D01*
X5892546Y-2530144D01*
X5892546Y-3003042D01*
X5891784Y-3006902D01*
X5889548Y-3010204D01*
X5887872Y-3011881D01*
X5882233Y-3019907D01*
X5878118Y-3028797D01*
X5875578Y-3038246D01*
X5874715Y-3048000D01*
X5875578Y-3057753D01*
X5878118Y-3067202D01*
X5882233Y-3076092D01*
X5887872Y-3084118D01*
X5894781Y-3091027D01*
X5902807Y-3096666D01*
X5911697Y-3100781D01*
X5921146Y-3103321D01*
X5930900Y-3104184D01*
X5940653Y-3103321D01*
X5950102Y-3100781D01*
X5958992Y-3096666D01*
X5967018Y-3091027D01*
X5973927Y-3084118D01*
X5979566Y-3076092D01*
X5983681Y-3067202D01*
X5986221Y-3057753D01*
X5987084Y-3048000D01*
X5986221Y-3038246D01*
X5983681Y-3028797D01*
X5979566Y-3019907D01*
X5973927Y-3011881D01*
X5972251Y-3010204D01*
X5970016Y-3006902D01*
X5969254Y-3003042D01*
X5969254Y-2522016D01*
X5970016Y-2518105D01*
X5972251Y-2514803D01*
X6540703Y-1946351D01*
X6544005Y-1944116D01*
X6547916Y-1943354D01*
X6915658Y-1943354D01*
X6919620Y-1944166D01*
X6922973Y-1946452D01*
X6925157Y-1949856D01*
X6927138Y-1954987D01*
X6934098Y-1967992D01*
X6942632Y-1979980D01*
X6952538Y-1990852D01*
X6963714Y-2000453D01*
X6976008Y-2008581D01*
X6989165Y-2015134D01*
X7003643Y-2020265D01*
X7006996Y-2022246D01*
X7009384Y-2025345D01*
X7010400Y-2029104D01*
X7009942Y-2033016D01*
X7008012Y-2036419D01*
X7004964Y-2038857D01*
X7001205Y-2039975D01*
X6992061Y-2040788D01*
X6977684Y-2043938D01*
X6963765Y-2048865D01*
X6950608Y-2055418D01*
X6938314Y-2063546D01*
X6927138Y-2073148D01*
X6917232Y-2084019D01*
X6908698Y-2096007D01*
X6901738Y-2109012D01*
X6896404Y-2122728D01*
X6892798Y-2137003D01*
X6891020Y-2151634D01*
X6891020Y-2166366D01*
X6892798Y-2180996D01*
X6896404Y-2195271D01*
X6901738Y-2208987D01*
X6908698Y-2221992D01*
X6917232Y-2233980D01*
X6927138Y-2244852D01*
X6938314Y-2254453D01*
X6950608Y-2262581D01*
X6963765Y-2269134D01*
X6977684Y-2274062D01*
X6992061Y-2277211D01*
X7001205Y-2278024D01*
X7004964Y-2279142D01*
X7008012Y-2281580D01*
X7009942Y-2284984D01*
X7010400Y-2288895D01*
X7009384Y-2292654D01*
X7006996Y-2295753D01*
X7003643Y-2297734D01*
X6989165Y-2302865D01*
X6976008Y-2309418D01*
X6963714Y-2317546D01*
X6952538Y-2327148D01*
X6942632Y-2338019D01*
X6934098Y-2350008D01*
X6927138Y-2363012D01*
X6921804Y-2376728D01*
X6918198Y-2391003D01*
X6916420Y-2405634D01*
X6916420Y-2420366D01*
X6918198Y-2434996D01*
X6921804Y-2449271D01*
X6927138Y-2462987D01*
X6934098Y-2475992D01*
X6942632Y-2487980D01*
X6952538Y-2498852D01*
X6963714Y-2508453D01*
X6976008Y-2516581D01*
X6989165Y-2523134D01*
X7003643Y-2528265D01*
X7006996Y-2530246D01*
X7009384Y-2533345D01*
X7010400Y-2537104D01*
X7009942Y-2541016D01*
X7008012Y-2544419D01*
X7004964Y-2546858D01*
X7001205Y-2547975D01*
X6992061Y-2548788D01*
X6977684Y-2551938D01*
X6963765Y-2556865D01*
X6950608Y-2563418D01*
X6938314Y-2571546D01*
X6927138Y-2581148D01*
X6917232Y-2592019D01*
X6908698Y-2604008D01*
X6901738Y-2617012D01*
X6896404Y-2630728D01*
X6892798Y-2645003D01*
X6891020Y-2659634D01*
X6891020Y-2674366D01*
X6892798Y-2688996D01*
X6896404Y-2703271D01*
X6901738Y-2716987D01*
X6908698Y-2729992D01*
X6917232Y-2741980D01*
X6927138Y-2752852D01*
X6938314Y-2762453D01*
X6950608Y-2770581D01*
X6963765Y-2777134D01*
X6977684Y-2782062D01*
X6992061Y-2785211D01*
X7001205Y-2786024D01*
X7004964Y-2787142D01*
X7008012Y-2789580D01*
X7009942Y-2792984D01*
X7010400Y-2796895D01*
X7009384Y-2800654D01*
X7006996Y-2803753D01*
X7003643Y-2805734D01*
X6989165Y-2810865D01*
X6976008Y-2817418D01*
X6963714Y-2825546D01*
X6952538Y-2835148D01*
X6942632Y-2846019D01*
X6934098Y-2858008D01*
X6927138Y-2871012D01*
X6921804Y-2884728D01*
X6918198Y-2899003D01*
X6916420Y-2913634D01*
X6916420Y-2928366D01*
X6918198Y-2942996D01*
X6921804Y-2957271D01*
X6925970Y-2967990D01*
X6926681Y-2971850D01*
X6925868Y-2975660D01*
X6923684Y-2978861D01*
X6352286Y-3550259D01*
X6350203Y-3551885D01*
X6347764Y-3552901D01*
X6343497Y-3554018D01*
X6334607Y-3558133D01*
X6326581Y-3563772D01*
X6319672Y-3570681D01*
X6314033Y-3578707D01*
X6309918Y-3587597D01*
X6307378Y-3597046D01*
X6306515Y-3606800D01*
X6307378Y-3616553D01*
X6309918Y-3626002D01*
X6314033Y-3634892D01*
X6319672Y-3642918D01*
X6326581Y-3649827D01*
X6334607Y-3655466D01*
X6343497Y-3659581D01*
X6352946Y-3662121D01*
G37*
G36*
X1593037Y-3533597D02*
G01*
X1606804Y-3532733D01*
X1620367Y-3529990D01*
X1633474Y-3525570D01*
X1645869Y-3519474D01*
X1657350Y-3511804D01*
X1667713Y-3502660D01*
X1676857Y-3492296D01*
X1684528Y-3480815D01*
X1690624Y-3468420D01*
X1695043Y-3455314D01*
X1697786Y-3441750D01*
X1698650Y-3427984D01*
X1697786Y-3414217D01*
X1695043Y-3400653D01*
X1690624Y-3387547D01*
X1684528Y-3375151D01*
X1676857Y-3363671D01*
X1667713Y-3353308D01*
X1657350Y-3344164D01*
X1645869Y-3336493D01*
X1633474Y-3330397D01*
X1620367Y-3325977D01*
X1606804Y-3323234D01*
X1593037Y-3322370D01*
X1579270Y-3323234D01*
X1565706Y-3325977D01*
X1552600Y-3330397D01*
X1540205Y-3336493D01*
X1528724Y-3344164D01*
X1518361Y-3353308D01*
X1509217Y-3363671D01*
X1501546Y-3375151D01*
X1495450Y-3387547D01*
X1491030Y-3400653D01*
X1488287Y-3414217D01*
X1487424Y-3427984D01*
X1488287Y-3441750D01*
X1491030Y-3455314D01*
X1495450Y-3468420D01*
X1501546Y-3480815D01*
X1509217Y-3492296D01*
X1518361Y-3502660D01*
X1528724Y-3511804D01*
X1540205Y-3519474D01*
X1552600Y-3525570D01*
X1565706Y-3529990D01*
X1579270Y-3532733D01*
G37*
G36*
X1085037Y-3533597D02*
G01*
X1098804Y-3532733D01*
X1112367Y-3529990D01*
X1125474Y-3525570D01*
X1137869Y-3519474D01*
X1149350Y-3511804D01*
X1159713Y-3502660D01*
X1168857Y-3492296D01*
X1176528Y-3480815D01*
X1182624Y-3468420D01*
X1187043Y-3455314D01*
X1189786Y-3441750D01*
X1190650Y-3427984D01*
X1189786Y-3414217D01*
X1187043Y-3400653D01*
X1182624Y-3387547D01*
X1176528Y-3375151D01*
X1168857Y-3363671D01*
X1159713Y-3353308D01*
X1149350Y-3344164D01*
X1137869Y-3336493D01*
X1125474Y-3330397D01*
X1112367Y-3325977D01*
X1098804Y-3323234D01*
X1085037Y-3322370D01*
X1071270Y-3323234D01*
X1057706Y-3325977D01*
X1044600Y-3330397D01*
X1032205Y-3336493D01*
X1020724Y-3344164D01*
X1010361Y-3353308D01*
X1001217Y-3363671D01*
X993546Y-3375151D01*
X987450Y-3387547D01*
X983030Y-3400653D01*
X980287Y-3414217D01*
X979424Y-3427984D01*
X980287Y-3441750D01*
X983030Y-3455314D01*
X987450Y-3468420D01*
X993546Y-3480815D01*
X1001217Y-3492296D01*
X1010361Y-3502660D01*
X1020724Y-3511804D01*
X1032205Y-3519474D01*
X1044600Y-3525570D01*
X1057706Y-3529990D01*
X1071270Y-3532733D01*
G37*
G36*
X1339037Y-3533597D02*
G01*
X1352804Y-3532733D01*
X1366367Y-3529990D01*
X1379474Y-3525570D01*
X1391869Y-3519474D01*
X1403350Y-3511804D01*
X1413713Y-3502660D01*
X1422857Y-3492296D01*
X1430528Y-3480815D01*
X1436624Y-3468420D01*
X1441043Y-3455314D01*
X1443786Y-3441750D01*
X1444650Y-3427984D01*
X1443786Y-3414217D01*
X1441043Y-3400653D01*
X1436624Y-3387547D01*
X1430528Y-3375151D01*
X1422857Y-3363671D01*
X1413713Y-3353308D01*
X1403350Y-3344164D01*
X1391869Y-3336493D01*
X1379474Y-3330397D01*
X1366367Y-3325977D01*
X1352804Y-3323234D01*
X1339037Y-3322370D01*
X1325270Y-3323234D01*
X1311706Y-3325977D01*
X1298600Y-3330397D01*
X1286205Y-3336493D01*
X1274724Y-3344164D01*
X1264361Y-3353308D01*
X1255217Y-3363671D01*
X1247546Y-3375151D01*
X1241450Y-3387547D01*
X1237030Y-3400653D01*
X1234287Y-3414217D01*
X1233424Y-3427984D01*
X1234287Y-3441750D01*
X1237030Y-3455314D01*
X1241450Y-3468420D01*
X1247546Y-3480815D01*
X1255217Y-3492296D01*
X1264361Y-3502660D01*
X1274724Y-3511804D01*
X1286205Y-3519474D01*
X1298600Y-3525570D01*
X1311706Y-3529990D01*
X1325270Y-3532733D01*
G37*
G36*
X831037Y-3533597D02*
G01*
X844803Y-3532733D01*
X858367Y-3529990D01*
X871474Y-3525570D01*
X883869Y-3519474D01*
X895350Y-3511804D01*
X905713Y-3502660D01*
X914857Y-3492296D01*
X922528Y-3480815D01*
X928624Y-3468420D01*
X933043Y-3455314D01*
X935786Y-3441750D01*
X936650Y-3427984D01*
X935786Y-3414217D01*
X933043Y-3400653D01*
X928624Y-3387547D01*
X922528Y-3375151D01*
X914857Y-3363671D01*
X905713Y-3353308D01*
X895350Y-3344164D01*
X883869Y-3336493D01*
X871474Y-3330397D01*
X858367Y-3325977D01*
X844803Y-3323234D01*
X831037Y-3322370D01*
X817270Y-3323234D01*
X803706Y-3325977D01*
X790600Y-3330397D01*
X778205Y-3336493D01*
X766724Y-3344164D01*
X756361Y-3353308D01*
X747217Y-3363671D01*
X739546Y-3375151D01*
X733450Y-3387547D01*
X729030Y-3400653D01*
X726287Y-3414217D01*
X725424Y-3427984D01*
X726287Y-3441750D01*
X729030Y-3455314D01*
X733450Y-3468420D01*
X739546Y-3480815D01*
X747217Y-3492296D01*
X756361Y-3502660D01*
X766724Y-3511804D01*
X778205Y-3519474D01*
X790600Y-3525570D01*
X803706Y-3529990D01*
X817270Y-3532733D01*
G37*
G36*
X323037Y-3533597D02*
G01*
X336804Y-3532733D01*
X350367Y-3529990D01*
X363474Y-3525570D01*
X375869Y-3519474D01*
X387350Y-3511804D01*
X397713Y-3502660D01*
X406857Y-3492296D01*
X414528Y-3480815D01*
X420624Y-3468420D01*
X425043Y-3455314D01*
X427786Y-3441750D01*
X428650Y-3427984D01*
X427786Y-3414217D01*
X425043Y-3400653D01*
X420624Y-3387547D01*
X414528Y-3375151D01*
X406857Y-3363671D01*
X397713Y-3353308D01*
X387350Y-3344164D01*
X375869Y-3336493D01*
X363474Y-3330397D01*
X350367Y-3325977D01*
X336804Y-3323234D01*
X323037Y-3322370D01*
X309270Y-3323234D01*
X295706Y-3325977D01*
X282600Y-3330397D01*
X270205Y-3336493D01*
X258724Y-3344164D01*
X248361Y-3353308D01*
X239217Y-3363671D01*
X231546Y-3375151D01*
X225450Y-3387547D01*
X221030Y-3400653D01*
X218287Y-3414217D01*
X217424Y-3427984D01*
X218287Y-3441750D01*
X221030Y-3455314D01*
X225450Y-3468420D01*
X231546Y-3480815D01*
X239217Y-3492296D01*
X248361Y-3502660D01*
X258724Y-3511804D01*
X270205Y-3519474D01*
X282600Y-3525570D01*
X295706Y-3529990D01*
X309270Y-3532733D01*
G37*
G36*
X1847037Y-3533597D02*
G01*
X1860804Y-3532733D01*
X1874367Y-3529990D01*
X1887474Y-3525570D01*
X1899869Y-3519474D01*
X1911350Y-3511804D01*
X1921713Y-3502660D01*
X1930857Y-3492296D01*
X1938528Y-3480815D01*
X1944624Y-3468420D01*
X1949043Y-3455314D01*
X1951786Y-3441750D01*
X1952650Y-3427984D01*
X1951786Y-3414217D01*
X1949043Y-3400653D01*
X1944624Y-3387547D01*
X1938528Y-3375151D01*
X1930857Y-3363671D01*
X1921713Y-3353308D01*
X1911350Y-3344164D01*
X1899869Y-3336493D01*
X1887474Y-3330397D01*
X1874367Y-3325977D01*
X1860804Y-3323234D01*
X1847037Y-3322370D01*
X1833270Y-3323234D01*
X1819706Y-3325977D01*
X1806600Y-3330397D01*
X1794205Y-3336493D01*
X1782724Y-3344164D01*
X1772361Y-3353308D01*
X1763217Y-3363671D01*
X1755546Y-3375151D01*
X1749450Y-3387547D01*
X1745030Y-3400653D01*
X1742287Y-3414217D01*
X1741424Y-3427984D01*
X1742287Y-3441750D01*
X1745030Y-3455314D01*
X1749450Y-3468420D01*
X1755546Y-3480815D01*
X1763217Y-3492296D01*
X1772361Y-3502660D01*
X1782724Y-3511804D01*
X1794205Y-3519474D01*
X1806600Y-3525570D01*
X1819706Y-3529990D01*
X1833270Y-3532733D01*
G37*
G36*
X2609037Y-3533597D02*
G01*
X2622804Y-3532733D01*
X2636367Y-3529990D01*
X2649474Y-3525570D01*
X2661869Y-3519474D01*
X2673350Y-3511804D01*
X2683713Y-3502660D01*
X2692857Y-3492296D01*
X2700528Y-3480815D01*
X2706624Y-3468420D01*
X2711043Y-3455314D01*
X2713786Y-3441750D01*
X2714650Y-3427984D01*
X2713786Y-3414217D01*
X2711043Y-3400653D01*
X2706624Y-3387547D01*
X2700528Y-3375151D01*
X2692857Y-3363671D01*
X2683713Y-3353308D01*
X2673350Y-3344164D01*
X2661869Y-3336493D01*
X2649474Y-3330397D01*
X2636367Y-3325977D01*
X2622804Y-3323234D01*
X2609037Y-3322370D01*
X2595270Y-3323234D01*
X2581706Y-3325977D01*
X2568600Y-3330397D01*
X2556205Y-3336493D01*
X2544724Y-3344164D01*
X2534361Y-3353308D01*
X2525217Y-3363671D01*
X2517546Y-3375151D01*
X2511450Y-3387547D01*
X2507030Y-3400653D01*
X2504287Y-3414217D01*
X2503424Y-3427984D01*
X2504287Y-3441750D01*
X2507030Y-3455314D01*
X2511450Y-3468420D01*
X2517546Y-3480815D01*
X2525217Y-3492296D01*
X2534361Y-3502660D01*
X2544724Y-3511804D01*
X2556205Y-3519474D01*
X2568600Y-3525570D01*
X2581706Y-3529990D01*
X2595270Y-3532733D01*
G37*
G36*
X4641037Y-3533597D02*
G01*
X4654804Y-3532733D01*
X4668367Y-3529990D01*
X4681423Y-3525570D01*
X4693818Y-3519474D01*
X4705299Y-3511804D01*
X4715713Y-3502660D01*
X4724806Y-3492296D01*
X4732477Y-3480815D01*
X4738624Y-3468420D01*
X4743043Y-3455314D01*
X4745736Y-3441750D01*
X4746650Y-3427984D01*
X4745736Y-3414217D01*
X4743043Y-3400653D01*
X4738624Y-3387547D01*
X4732477Y-3375151D01*
X4724806Y-3363671D01*
X4715713Y-3353308D01*
X4705299Y-3344164D01*
X4693818Y-3336493D01*
X4681423Y-3330397D01*
X4668367Y-3325977D01*
X4654804Y-3323234D01*
X4641037Y-3322370D01*
X4627219Y-3323234D01*
X4613656Y-3325977D01*
X4600600Y-3330397D01*
X4588205Y-3336493D01*
X4576724Y-3344164D01*
X4566310Y-3353308D01*
X4557217Y-3363671D01*
X4549546Y-3375151D01*
X4543399Y-3387547D01*
X4538980Y-3400653D01*
X4536287Y-3414217D01*
X4535373Y-3427984D01*
X4536287Y-3441750D01*
X4538980Y-3455314D01*
X4543399Y-3468420D01*
X4549546Y-3480815D01*
X4557217Y-3492296D01*
X4566310Y-3502660D01*
X4576724Y-3511804D01*
X4588205Y-3519474D01*
X4600600Y-3525570D01*
X4613656Y-3529990D01*
X4627219Y-3532733D01*
G37*
G36*
X3117037Y-3533597D02*
G01*
X3130804Y-3532733D01*
X3144367Y-3529990D01*
X3157474Y-3525570D01*
X3169869Y-3519474D01*
X3181350Y-3511804D01*
X3191713Y-3502660D01*
X3200857Y-3492296D01*
X3208528Y-3480815D01*
X3214624Y-3468420D01*
X3219043Y-3455314D01*
X3221786Y-3441750D01*
X3222650Y-3427984D01*
X3221786Y-3414217D01*
X3219043Y-3400653D01*
X3214624Y-3387547D01*
X3208528Y-3375151D01*
X3200857Y-3363671D01*
X3191713Y-3353308D01*
X3181350Y-3344164D01*
X3169869Y-3336493D01*
X3157474Y-3330397D01*
X3144367Y-3325977D01*
X3130804Y-3323234D01*
X3117037Y-3322370D01*
X3103270Y-3323234D01*
X3089706Y-3325977D01*
X3076600Y-3330397D01*
X3064205Y-3336493D01*
X3052724Y-3344164D01*
X3042361Y-3353308D01*
X3033217Y-3363671D01*
X3025546Y-3375151D01*
X3019450Y-3387547D01*
X3015030Y-3400653D01*
X3012287Y-3414217D01*
X3011424Y-3427984D01*
X3012287Y-3441750D01*
X3015030Y-3455314D01*
X3019450Y-3468420D01*
X3025546Y-3480815D01*
X3033217Y-3492296D01*
X3042361Y-3502660D01*
X3052724Y-3511804D01*
X3064205Y-3519474D01*
X3076600Y-3525570D01*
X3089706Y-3529990D01*
X3103270Y-3532733D01*
G37*
G36*
X4386986Y-3533597D02*
G01*
X4400804Y-3532733D01*
X4414367Y-3529990D01*
X4427423Y-3525570D01*
X4439818Y-3519474D01*
X4451299Y-3511804D01*
X4461713Y-3502660D01*
X4470806Y-3492296D01*
X4478477Y-3480815D01*
X4484624Y-3468420D01*
X4489043Y-3455314D01*
X4491736Y-3441750D01*
X4492650Y-3427984D01*
X4491736Y-3414217D01*
X4489043Y-3400653D01*
X4484624Y-3387547D01*
X4478477Y-3375151D01*
X4470806Y-3363671D01*
X4461713Y-3353308D01*
X4451299Y-3344164D01*
X4439818Y-3336493D01*
X4427423Y-3330397D01*
X4414367Y-3325977D01*
X4400804Y-3323234D01*
X4386986Y-3322370D01*
X4373219Y-3323234D01*
X4359656Y-3325977D01*
X4346600Y-3330397D01*
X4334205Y-3336493D01*
X4322724Y-3344164D01*
X4312310Y-3353308D01*
X4303217Y-3363671D01*
X4295546Y-3375151D01*
X4289399Y-3387547D01*
X4284980Y-3400653D01*
X4282287Y-3414217D01*
X4281373Y-3427984D01*
X4282287Y-3441750D01*
X4284980Y-3455314D01*
X4289399Y-3468420D01*
X4295546Y-3480815D01*
X4303217Y-3492296D01*
X4312310Y-3502660D01*
X4322724Y-3511804D01*
X4334205Y-3519474D01*
X4346600Y-3525570D01*
X4359656Y-3529990D01*
X4373219Y-3532733D01*
G37*
G36*
X2355037Y-3533597D02*
G01*
X2368804Y-3532733D01*
X2382367Y-3529990D01*
X2395474Y-3525570D01*
X2407869Y-3519474D01*
X2419350Y-3511804D01*
X2429713Y-3502660D01*
X2438857Y-3492296D01*
X2446528Y-3480815D01*
X2452624Y-3468420D01*
X2457043Y-3455314D01*
X2459786Y-3441750D01*
X2460650Y-3427984D01*
X2459786Y-3414217D01*
X2457043Y-3400653D01*
X2452624Y-3387547D01*
X2446528Y-3375151D01*
X2438857Y-3363671D01*
X2429713Y-3353308D01*
X2419350Y-3344164D01*
X2407869Y-3336493D01*
X2395474Y-3330397D01*
X2382367Y-3325977D01*
X2368804Y-3323234D01*
X2355037Y-3322370D01*
X2341270Y-3323234D01*
X2327706Y-3325977D01*
X2314600Y-3330397D01*
X2302205Y-3336493D01*
X2290724Y-3344164D01*
X2280361Y-3353308D01*
X2271217Y-3363671D01*
X2263546Y-3375151D01*
X2257450Y-3387547D01*
X2253030Y-3400653D01*
X2250287Y-3414217D01*
X2249424Y-3427984D01*
X2250287Y-3441750D01*
X2253030Y-3455314D01*
X2257450Y-3468420D01*
X2263546Y-3480815D01*
X2271217Y-3492296D01*
X2280361Y-3502660D01*
X2290724Y-3511804D01*
X2302205Y-3519474D01*
X2314600Y-3525570D01*
X2327706Y-3529990D01*
X2341270Y-3532733D01*
G37*
G36*
X2863037Y-3533597D02*
G01*
X2876804Y-3532733D01*
X2890367Y-3529990D01*
X2903474Y-3525570D01*
X2915869Y-3519474D01*
X2927350Y-3511804D01*
X2937713Y-3502660D01*
X2946857Y-3492296D01*
X2954528Y-3480815D01*
X2960624Y-3468420D01*
X2965043Y-3455314D01*
X2967786Y-3441750D01*
X2968650Y-3427984D01*
X2967786Y-3414217D01*
X2965043Y-3400653D01*
X2960624Y-3387547D01*
X2954528Y-3375151D01*
X2946857Y-3363671D01*
X2937713Y-3353308D01*
X2927350Y-3344164D01*
X2915869Y-3336493D01*
X2903474Y-3330397D01*
X2890367Y-3325977D01*
X2876804Y-3323234D01*
X2863037Y-3322370D01*
X2849270Y-3323234D01*
X2835706Y-3325977D01*
X2822600Y-3330397D01*
X2810205Y-3336493D01*
X2798724Y-3344164D01*
X2788361Y-3353308D01*
X2779217Y-3363671D01*
X2771546Y-3375151D01*
X2765450Y-3387547D01*
X2761030Y-3400653D01*
X2758287Y-3414217D01*
X2757424Y-3427984D01*
X2758287Y-3441750D01*
X2761030Y-3455314D01*
X2765450Y-3468420D01*
X2771546Y-3480815D01*
X2779217Y-3492296D01*
X2788361Y-3502660D01*
X2798724Y-3511804D01*
X2810205Y-3519474D01*
X2822600Y-3525570D01*
X2835706Y-3529990D01*
X2849270Y-3532733D01*
G37*
G36*
X5149037Y-3533597D02*
G01*
X5162804Y-3532733D01*
X5176367Y-3529990D01*
X5189423Y-3525570D01*
X5201818Y-3519474D01*
X5213299Y-3511804D01*
X5223713Y-3502660D01*
X5232806Y-3492296D01*
X5240477Y-3480815D01*
X5246624Y-3468420D01*
X5251043Y-3455314D01*
X5253736Y-3441750D01*
X5254650Y-3427984D01*
X5253736Y-3414217D01*
X5251043Y-3400653D01*
X5246624Y-3387547D01*
X5240477Y-3375151D01*
X5232806Y-3363671D01*
X5223713Y-3353308D01*
X5213299Y-3344164D01*
X5201818Y-3336493D01*
X5189423Y-3330397D01*
X5176367Y-3325977D01*
X5162804Y-3323234D01*
X5149037Y-3322370D01*
X5135219Y-3323234D01*
X5121656Y-3325977D01*
X5108600Y-3330397D01*
X5096205Y-3336493D01*
X5084724Y-3344164D01*
X5074310Y-3353308D01*
X5065217Y-3363671D01*
X5057546Y-3375151D01*
X5051399Y-3387547D01*
X5046980Y-3400653D01*
X5044287Y-3414217D01*
X5043373Y-3427984D01*
X5044287Y-3441750D01*
X5046980Y-3455314D01*
X5051399Y-3468420D01*
X5057546Y-3480815D01*
X5065217Y-3492296D01*
X5074310Y-3502660D01*
X5084724Y-3511804D01*
X5096205Y-3519474D01*
X5108600Y-3525570D01*
X5121656Y-3529990D01*
X5135219Y-3532733D01*
G37*
G36*
X4895037Y-3533597D02*
G01*
X4908804Y-3532733D01*
X4922367Y-3529990D01*
X4935423Y-3525570D01*
X4947818Y-3519474D01*
X4959299Y-3511804D01*
X4969713Y-3502660D01*
X4978806Y-3492296D01*
X4986477Y-3480815D01*
X4992624Y-3468420D01*
X4997043Y-3455314D01*
X4999736Y-3441750D01*
X5000650Y-3427984D01*
X4999736Y-3414217D01*
X4997043Y-3400653D01*
X4992624Y-3387547D01*
X4986477Y-3375151D01*
X4978806Y-3363671D01*
X4969713Y-3353308D01*
X4959299Y-3344164D01*
X4947818Y-3336493D01*
X4935423Y-3330397D01*
X4922367Y-3325977D01*
X4908804Y-3323234D01*
X4895037Y-3322370D01*
X4881219Y-3323234D01*
X4867656Y-3325977D01*
X4854600Y-3330397D01*
X4842205Y-3336493D01*
X4830724Y-3344164D01*
X4820310Y-3353308D01*
X4811217Y-3363671D01*
X4803546Y-3375151D01*
X4797399Y-3387547D01*
X4792980Y-3400653D01*
X4790287Y-3414217D01*
X4789373Y-3427984D01*
X4790287Y-3441750D01*
X4792980Y-3455314D01*
X4797399Y-3468420D01*
X4803546Y-3480815D01*
X4811217Y-3492296D01*
X4820310Y-3502660D01*
X4830724Y-3511804D01*
X4842205Y-3519474D01*
X4854600Y-3525570D01*
X4867656Y-3529990D01*
X4881219Y-3532733D01*
G37*
G36*
X2101037Y-3533597D02*
G01*
X2114804Y-3532733D01*
X2128367Y-3529990D01*
X2141474Y-3525570D01*
X2153869Y-3519474D01*
X2165350Y-3511804D01*
X2175713Y-3502660D01*
X2184857Y-3492296D01*
X2192528Y-3480815D01*
X2198624Y-3468420D01*
X2203043Y-3455314D01*
X2205786Y-3441750D01*
X2206650Y-3427984D01*
X2205786Y-3414217D01*
X2203043Y-3400653D01*
X2198624Y-3387547D01*
X2192528Y-3375151D01*
X2184857Y-3363671D01*
X2175713Y-3353308D01*
X2165350Y-3344164D01*
X2153869Y-3336493D01*
X2141474Y-3330397D01*
X2128367Y-3325977D01*
X2114804Y-3323234D01*
X2101037Y-3322370D01*
X2087270Y-3323234D01*
X2073706Y-3325977D01*
X2060600Y-3330397D01*
X2048205Y-3336493D01*
X2036724Y-3344164D01*
X2026361Y-3353308D01*
X2017217Y-3363671D01*
X2009546Y-3375151D01*
X2003450Y-3387547D01*
X1999030Y-3400653D01*
X1996287Y-3414217D01*
X1995424Y-3427984D01*
X1996287Y-3441750D01*
X1999030Y-3455314D01*
X2003450Y-3468420D01*
X2009546Y-3480815D01*
X2017217Y-3492296D01*
X2026361Y-3502660D01*
X2036724Y-3511804D01*
X2048205Y-3519474D01*
X2060600Y-3525570D01*
X2073706Y-3529990D01*
X2087270Y-3532733D01*
G37*
G36*
X4132986Y-3533597D02*
G01*
X4146804Y-3532733D01*
X4160367Y-3529990D01*
X4173423Y-3525570D01*
X4185818Y-3519474D01*
X4197299Y-3511804D01*
X4207713Y-3502660D01*
X4216806Y-3492296D01*
X4224477Y-3480815D01*
X4230624Y-3468420D01*
X4235043Y-3455314D01*
X4237736Y-3441750D01*
X4238650Y-3427984D01*
X4237736Y-3414217D01*
X4235043Y-3400653D01*
X4230624Y-3387547D01*
X4224477Y-3375151D01*
X4216806Y-3363671D01*
X4207713Y-3353308D01*
X4197299Y-3344164D01*
X4185818Y-3336493D01*
X4173423Y-3330397D01*
X4160367Y-3325977D01*
X4146804Y-3323234D01*
X4132986Y-3322370D01*
X4119219Y-3323234D01*
X4105656Y-3325977D01*
X4092600Y-3330397D01*
X4080205Y-3336493D01*
X4068724Y-3344164D01*
X4058310Y-3353308D01*
X4049217Y-3363671D01*
X4041546Y-3375151D01*
X4035399Y-3387547D01*
X4030979Y-3400653D01*
X4028287Y-3414217D01*
X4027373Y-3427984D01*
X4028287Y-3441750D01*
X4030979Y-3455314D01*
X4035399Y-3468420D01*
X4041546Y-3480815D01*
X4049217Y-3492296D01*
X4058310Y-3502660D01*
X4068724Y-3511804D01*
X4080205Y-3519474D01*
X4092600Y-3525570D01*
X4105656Y-3529990D01*
X4119219Y-3532733D01*
G37*
G36*
X5403037Y-3533597D02*
G01*
X5416804Y-3532733D01*
X5430367Y-3529990D01*
X5443423Y-3525570D01*
X5455818Y-3519474D01*
X5467299Y-3511804D01*
X5477713Y-3502660D01*
X5486806Y-3492296D01*
X5494477Y-3480815D01*
X5500624Y-3468420D01*
X5505043Y-3455314D01*
X5507736Y-3441750D01*
X5508650Y-3427984D01*
X5507736Y-3414217D01*
X5505043Y-3400653D01*
X5500624Y-3387547D01*
X5494477Y-3375151D01*
X5486806Y-3363671D01*
X5477713Y-3353308D01*
X5467299Y-3344164D01*
X5455818Y-3336493D01*
X5443423Y-3330397D01*
X5430367Y-3325977D01*
X5416804Y-3323234D01*
X5403037Y-3322370D01*
X5389219Y-3323234D01*
X5375656Y-3325977D01*
X5362600Y-3330397D01*
X5350205Y-3336493D01*
X5338724Y-3344164D01*
X5328310Y-3353308D01*
X5319217Y-3363671D01*
X5311546Y-3375151D01*
X5305399Y-3387547D01*
X5300980Y-3400653D01*
X5298287Y-3414217D01*
X5297373Y-3427984D01*
X5298287Y-3441750D01*
X5300980Y-3455314D01*
X5305399Y-3468420D01*
X5311546Y-3480815D01*
X5319217Y-3492296D01*
X5328310Y-3502660D01*
X5338724Y-3511804D01*
X5350205Y-3519474D01*
X5362600Y-3525570D01*
X5375656Y-3529990D01*
X5389219Y-3532733D01*
G37*
G36*
X3370986Y-3533597D02*
G01*
X3384804Y-3532733D01*
X3398367Y-3529990D01*
X3411423Y-3525570D01*
X3423818Y-3519474D01*
X3435299Y-3511804D01*
X3445713Y-3502660D01*
X3454806Y-3492296D01*
X3462477Y-3480815D01*
X3468624Y-3468420D01*
X3473043Y-3455314D01*
X3475736Y-3441750D01*
X3476650Y-3427984D01*
X3475736Y-3414217D01*
X3473043Y-3400653D01*
X3468624Y-3387547D01*
X3462477Y-3375151D01*
X3454806Y-3363671D01*
X3445713Y-3353308D01*
X3435299Y-3344164D01*
X3423818Y-3336493D01*
X3411423Y-3330397D01*
X3398367Y-3325977D01*
X3384804Y-3323234D01*
X3370986Y-3322370D01*
X3357219Y-3323234D01*
X3343656Y-3325977D01*
X3330600Y-3330397D01*
X3318205Y-3336493D01*
X3306724Y-3344164D01*
X3296310Y-3353308D01*
X3287217Y-3363671D01*
X3279546Y-3375151D01*
X3273399Y-3387547D01*
X3268979Y-3400653D01*
X3266287Y-3414217D01*
X3265373Y-3427984D01*
X3266287Y-3441750D01*
X3268979Y-3455314D01*
X3273399Y-3468420D01*
X3279546Y-3480815D01*
X3287217Y-3492296D01*
X3296310Y-3502660D01*
X3306724Y-3511804D01*
X3318205Y-3519474D01*
X3330600Y-3525570D01*
X3343656Y-3529990D01*
X3357219Y-3532733D01*
G37*
G36*
X5911037Y-3533597D02*
G01*
X5924804Y-3532733D01*
X5938367Y-3529990D01*
X5951423Y-3525570D01*
X5963818Y-3519474D01*
X5975299Y-3511804D01*
X5985713Y-3502660D01*
X5994806Y-3492296D01*
X6002477Y-3480815D01*
X6008624Y-3468420D01*
X6013043Y-3455314D01*
X6015736Y-3441750D01*
X6016650Y-3427984D01*
X6015736Y-3414217D01*
X6013043Y-3400653D01*
X6008624Y-3387547D01*
X6002477Y-3375151D01*
X5994806Y-3363671D01*
X5985713Y-3353308D01*
X5975299Y-3344164D01*
X5963818Y-3336493D01*
X5951423Y-3330397D01*
X5938367Y-3325977D01*
X5924804Y-3323234D01*
X5911037Y-3322370D01*
X5897219Y-3323234D01*
X5883656Y-3325977D01*
X5870600Y-3330397D01*
X5858205Y-3336493D01*
X5846724Y-3344164D01*
X5836310Y-3353308D01*
X5827217Y-3363671D01*
X5819546Y-3375151D01*
X5813399Y-3387547D01*
X5808980Y-3400653D01*
X5806287Y-3414217D01*
X5805373Y-3427984D01*
X5806287Y-3441750D01*
X5808980Y-3455314D01*
X5813399Y-3468420D01*
X5819546Y-3480815D01*
X5827217Y-3492296D01*
X5836310Y-3502660D01*
X5846724Y-3511804D01*
X5858205Y-3519474D01*
X5870600Y-3525570D01*
X5883656Y-3529990D01*
X5897219Y-3532733D01*
G37*
G36*
X6165037Y-3533597D02*
G01*
X6178804Y-3532733D01*
X6192367Y-3529990D01*
X6205423Y-3525570D01*
X6217818Y-3519474D01*
X6229299Y-3511804D01*
X6239713Y-3502660D01*
X6248806Y-3492296D01*
X6256477Y-3480815D01*
X6262624Y-3468420D01*
X6267043Y-3455314D01*
X6269736Y-3441750D01*
X6270650Y-3427984D01*
X6269736Y-3414217D01*
X6267043Y-3400653D01*
X6262624Y-3387547D01*
X6256477Y-3375151D01*
X6248806Y-3363671D01*
X6239713Y-3353308D01*
X6229299Y-3344164D01*
X6217818Y-3336493D01*
X6205423Y-3330397D01*
X6192367Y-3325977D01*
X6178804Y-3323234D01*
X6165037Y-3322370D01*
X6151219Y-3323234D01*
X6137656Y-3325977D01*
X6124600Y-3330397D01*
X6112205Y-3336493D01*
X6100724Y-3344164D01*
X6090310Y-3353308D01*
X6081217Y-3363671D01*
X6073546Y-3375151D01*
X6067399Y-3387547D01*
X6062980Y-3400653D01*
X6060287Y-3414217D01*
X6059373Y-3427984D01*
X6060287Y-3441750D01*
X6062980Y-3455314D01*
X6067399Y-3468420D01*
X6073546Y-3480815D01*
X6081217Y-3492296D01*
X6090310Y-3502660D01*
X6100724Y-3511804D01*
X6112205Y-3519474D01*
X6124600Y-3525570D01*
X6137656Y-3529990D01*
X6151219Y-3532733D01*
G37*
G36*
X530707Y-3522675D02*
G01*
X530707Y-3474313D01*
X482346Y-3474313D01*
X485546Y-3480815D01*
X493217Y-3492296D01*
X502361Y-3502660D01*
X512724Y-3511804D01*
X524205Y-3519474D01*
G37*
G36*
X623366Y-3522675D02*
G01*
X629869Y-3519474D01*
X641350Y-3511804D01*
X651713Y-3502660D01*
X660857Y-3492296D01*
X668528Y-3480815D01*
X671728Y-3474313D01*
X623366Y-3474313D01*
G37*
G36*
X3925366Y-3522675D02*
G01*
X3931818Y-3519474D01*
X3943299Y-3511804D01*
X3953713Y-3502660D01*
X3962806Y-3492296D01*
X3970477Y-3480815D01*
X3973677Y-3474313D01*
X3925366Y-3474313D01*
G37*
G36*
X482346Y-3381654D02*
G01*
X530707Y-3381654D01*
X530707Y-3333292D01*
X524205Y-3336493D01*
X512724Y-3344164D01*
X502361Y-3353308D01*
X493217Y-3363671D01*
X485546Y-3375151D01*
G37*
G36*
X623366Y-3381654D02*
G01*
X671728Y-3381654D01*
X668528Y-3375151D01*
X660857Y-3363671D01*
X651713Y-3353308D01*
X641350Y-3344164D01*
X629869Y-3336493D01*
X623366Y-3333292D01*
G37*
G36*
X3925366Y-3381654D02*
G01*
X3973677Y-3381654D01*
X3970477Y-3375151D01*
X3962806Y-3363671D01*
X3953713Y-3353308D01*
X3943299Y-3344164D01*
X3931818Y-3336493D01*
X3925366Y-3333292D01*
G37*
G36*
X1085037Y-3279597D02*
G01*
X1098804Y-3278733D01*
X1112367Y-3275990D01*
X1125474Y-3271570D01*
X1137869Y-3265474D01*
X1149350Y-3257803D01*
X1159713Y-3248660D01*
X1168857Y-3238296D01*
X1176528Y-3226816D01*
X1182624Y-3214420D01*
X1187043Y-3201314D01*
X1189786Y-3187750D01*
X1190650Y-3173984D01*
X1189786Y-3160217D01*
X1187043Y-3146653D01*
X1182624Y-3133547D01*
X1176528Y-3121152D01*
X1168857Y-3109671D01*
X1159713Y-3099308D01*
X1149350Y-3090164D01*
X1137869Y-3082493D01*
X1125474Y-3076397D01*
X1112367Y-3071977D01*
X1098804Y-3069234D01*
X1085037Y-3068370D01*
X1071270Y-3069234D01*
X1057706Y-3071977D01*
X1044600Y-3076397D01*
X1032205Y-3082493D01*
X1020724Y-3090164D01*
X1010361Y-3099308D01*
X1001217Y-3109671D01*
X993546Y-3121152D01*
X987450Y-3133547D01*
X983030Y-3146653D01*
X980287Y-3160217D01*
X979424Y-3173984D01*
X980287Y-3187750D01*
X983030Y-3201314D01*
X987450Y-3214420D01*
X993546Y-3226816D01*
X1001217Y-3238296D01*
X1010361Y-3248660D01*
X1020724Y-3257803D01*
X1032205Y-3265474D01*
X1044600Y-3271570D01*
X1057706Y-3275990D01*
X1071270Y-3278733D01*
G37*
G36*
X1339037Y-3279597D02*
G01*
X1352804Y-3278733D01*
X1366367Y-3275990D01*
X1379474Y-3271570D01*
X1391869Y-3265474D01*
X1403350Y-3257803D01*
X1413713Y-3248660D01*
X1422857Y-3238296D01*
X1430528Y-3226816D01*
X1436624Y-3214420D01*
X1441043Y-3201314D01*
X1443786Y-3187750D01*
X1444650Y-3173984D01*
X1443786Y-3160217D01*
X1441043Y-3146653D01*
X1436624Y-3133547D01*
X1430528Y-3121152D01*
X1422857Y-3109671D01*
X1413713Y-3099308D01*
X1403350Y-3090164D01*
X1391869Y-3082493D01*
X1379474Y-3076397D01*
X1366367Y-3071977D01*
X1352804Y-3069234D01*
X1339037Y-3068370D01*
X1325270Y-3069234D01*
X1311706Y-3071977D01*
X1298600Y-3076397D01*
X1286205Y-3082493D01*
X1274724Y-3090164D01*
X1264361Y-3099308D01*
X1255217Y-3109671D01*
X1247546Y-3121152D01*
X1241450Y-3133547D01*
X1237030Y-3146653D01*
X1234287Y-3160217D01*
X1233424Y-3173984D01*
X1234287Y-3187750D01*
X1237030Y-3201314D01*
X1241450Y-3214420D01*
X1247546Y-3226816D01*
X1255217Y-3238296D01*
X1264361Y-3248660D01*
X1274724Y-3257803D01*
X1286205Y-3265474D01*
X1298600Y-3271570D01*
X1311706Y-3275990D01*
X1325270Y-3278733D01*
G37*
G36*
X1593037Y-3279597D02*
G01*
X1606804Y-3278733D01*
X1620367Y-3275990D01*
X1633474Y-3271570D01*
X1645869Y-3265474D01*
X1657350Y-3257803D01*
X1667713Y-3248660D01*
X1676857Y-3238296D01*
X1684528Y-3226816D01*
X1690624Y-3214420D01*
X1695043Y-3201314D01*
X1697786Y-3187750D01*
X1698650Y-3173984D01*
X1697786Y-3160217D01*
X1695043Y-3146653D01*
X1690624Y-3133547D01*
X1684528Y-3121152D01*
X1676857Y-3109671D01*
X1667713Y-3099308D01*
X1657350Y-3090164D01*
X1645869Y-3082493D01*
X1633474Y-3076397D01*
X1620367Y-3071977D01*
X1606804Y-3069234D01*
X1593037Y-3068370D01*
X1579270Y-3069234D01*
X1565706Y-3071977D01*
X1552600Y-3076397D01*
X1540205Y-3082493D01*
X1528724Y-3090164D01*
X1518361Y-3099308D01*
X1509217Y-3109671D01*
X1501546Y-3121152D01*
X1495450Y-3133547D01*
X1491030Y-3146653D01*
X1488287Y-3160217D01*
X1487424Y-3173984D01*
X1488287Y-3187750D01*
X1491030Y-3201314D01*
X1495450Y-3214420D01*
X1501546Y-3226816D01*
X1509217Y-3238296D01*
X1518361Y-3248660D01*
X1528724Y-3257803D01*
X1540205Y-3265474D01*
X1552600Y-3271570D01*
X1565706Y-3275990D01*
X1579270Y-3278733D01*
G37*
G36*
X577037Y-3279597D02*
G01*
X590804Y-3278733D01*
X604367Y-3275990D01*
X617474Y-3271570D01*
X629869Y-3265474D01*
X641350Y-3257803D01*
X651713Y-3248660D01*
X660857Y-3238296D01*
X668528Y-3226816D01*
X674624Y-3214420D01*
X679043Y-3201314D01*
X681786Y-3187750D01*
X682650Y-3173984D01*
X681786Y-3160217D01*
X679043Y-3146653D01*
X674624Y-3133547D01*
X668528Y-3121152D01*
X660857Y-3109671D01*
X651713Y-3099308D01*
X641350Y-3090164D01*
X629869Y-3082493D01*
X617474Y-3076397D01*
X604367Y-3071977D01*
X590804Y-3069234D01*
X577037Y-3068370D01*
X563270Y-3069234D01*
X549706Y-3071977D01*
X536600Y-3076397D01*
X524205Y-3082493D01*
X512724Y-3090164D01*
X502361Y-3099308D01*
X493217Y-3109671D01*
X485546Y-3121152D01*
X479450Y-3133547D01*
X475030Y-3146653D01*
X472287Y-3160217D01*
X471424Y-3173984D01*
X472287Y-3187750D01*
X475030Y-3201314D01*
X479450Y-3214420D01*
X485546Y-3226816D01*
X493217Y-3238296D01*
X502361Y-3248660D01*
X512724Y-3257803D01*
X524205Y-3265474D01*
X536600Y-3271570D01*
X549706Y-3275990D01*
X563270Y-3278733D01*
G37*
G36*
X4895037Y-3279597D02*
G01*
X4908804Y-3278733D01*
X4922367Y-3275990D01*
X4935423Y-3271570D01*
X4947818Y-3265474D01*
X4959299Y-3257803D01*
X4969713Y-3248660D01*
X4978806Y-3238296D01*
X4986477Y-3226816D01*
X4992624Y-3214420D01*
X4997043Y-3201314D01*
X4999736Y-3187750D01*
X5000650Y-3173984D01*
X4999736Y-3160217D01*
X4997043Y-3146653D01*
X4992624Y-3133547D01*
X4986477Y-3121152D01*
X4978806Y-3109671D01*
X4969713Y-3099308D01*
X4959299Y-3090164D01*
X4947818Y-3082493D01*
X4935423Y-3076397D01*
X4922367Y-3071977D01*
X4908804Y-3069234D01*
X4895037Y-3068370D01*
X4881219Y-3069234D01*
X4867656Y-3071977D01*
X4854600Y-3076397D01*
X4842205Y-3082493D01*
X4830724Y-3090164D01*
X4820310Y-3099308D01*
X4811217Y-3109671D01*
X4803546Y-3121152D01*
X4797399Y-3133547D01*
X4792980Y-3146653D01*
X4790287Y-3160217D01*
X4789373Y-3173984D01*
X4790287Y-3187750D01*
X4792980Y-3201314D01*
X4797399Y-3214420D01*
X4803546Y-3226816D01*
X4811217Y-3238296D01*
X4820310Y-3248660D01*
X4830724Y-3257803D01*
X4842205Y-3265474D01*
X4854600Y-3271570D01*
X4867656Y-3275990D01*
X4881219Y-3278733D01*
G37*
G36*
X4895037Y-3025597D02*
G01*
X4908804Y-3024733D01*
X4922367Y-3021990D01*
X4935423Y-3017570D01*
X4947818Y-3011474D01*
X4959299Y-3003804D01*
X4969713Y-2994660D01*
X4978806Y-2984296D01*
X4986477Y-2972816D01*
X4992624Y-2960420D01*
X4997043Y-2947314D01*
X4999736Y-2933750D01*
X5000650Y-2919984D01*
X4999736Y-2906217D01*
X4997043Y-2892653D01*
X4992624Y-2879547D01*
X4986477Y-2867152D01*
X4978806Y-2855671D01*
X4969713Y-2845308D01*
X4959299Y-2836164D01*
X4947818Y-2828493D01*
X4935423Y-2822397D01*
X4922367Y-2817977D01*
X4908804Y-2815234D01*
X4895037Y-2814370D01*
X4881219Y-2815234D01*
X4867656Y-2817977D01*
X4854600Y-2822397D01*
X4842205Y-2828493D01*
X4830724Y-2836164D01*
X4820310Y-2845308D01*
X4811217Y-2855671D01*
X4803546Y-2867152D01*
X4797399Y-2879547D01*
X4792980Y-2892653D01*
X4790287Y-2906217D01*
X4789373Y-2919984D01*
X4790287Y-2933750D01*
X4792980Y-2947314D01*
X4797399Y-2960420D01*
X4803546Y-2972816D01*
X4811217Y-2984296D01*
X4820310Y-2994660D01*
X4830724Y-3003804D01*
X4842205Y-3011474D01*
X4854600Y-3017570D01*
X4867656Y-3021990D01*
X4881219Y-3024733D01*
G37*
G36*
X4941366Y-2760675D02*
G01*
X4947818Y-2757474D01*
X4959299Y-2749804D01*
X4969713Y-2740660D01*
X4978806Y-2730296D01*
X4986477Y-2718816D01*
X4989677Y-2712313D01*
X4941366Y-2712313D01*
G37*
G36*
X4848656Y-2760675D02*
G01*
X4848656Y-2712313D01*
X4800346Y-2712313D01*
X4803546Y-2718816D01*
X4811217Y-2730296D01*
X4820310Y-2740660D01*
X4830724Y-2749804D01*
X4842205Y-2757474D01*
G37*
G36*
X4800346Y-2619654D02*
G01*
X4848656Y-2619654D01*
X4848656Y-2571292D01*
X4842205Y-2574493D01*
X4830724Y-2582164D01*
X4820310Y-2591308D01*
X4811217Y-2601671D01*
X4803546Y-2613152D01*
G37*
G36*
X4941366Y-2619654D02*
G01*
X4989677Y-2619654D01*
X4986477Y-2613152D01*
X4978806Y-2601671D01*
X4969713Y-2591308D01*
X4959299Y-2582164D01*
X4947818Y-2574493D01*
X4941366Y-2571292D01*
G37*
G36*
X1720037Y-2309622D02*
G01*
X1733804Y-2308707D01*
X1747367Y-2306015D01*
X1760474Y-2301595D01*
X1772869Y-2295448D01*
X1784350Y-2287778D01*
X1794713Y-2278684D01*
X1803857Y-2268270D01*
X1811528Y-2256790D01*
X1817624Y-2244394D01*
X1822043Y-2231339D01*
X1824786Y-2217775D01*
X1825650Y-2204008D01*
X1824786Y-2190191D01*
X1822043Y-2176627D01*
X1817624Y-2163572D01*
X1811528Y-2151176D01*
X1803857Y-2139696D01*
X1794713Y-2129282D01*
X1784350Y-2120188D01*
X1772869Y-2112518D01*
X1760474Y-2106371D01*
X1747367Y-2101951D01*
X1733804Y-2099259D01*
X1720037Y-2098344D01*
X1706270Y-2099259D01*
X1692706Y-2101951D01*
X1679600Y-2106371D01*
X1667205Y-2112518D01*
X1655724Y-2120188D01*
X1645361Y-2129282D01*
X1636217Y-2139696D01*
X1628546Y-2151176D01*
X1622450Y-2163572D01*
X1618030Y-2176627D01*
X1615287Y-2190191D01*
X1614424Y-2204008D01*
X1615287Y-2217775D01*
X1618030Y-2231339D01*
X1622450Y-2244394D01*
X1628546Y-2256790D01*
X1636217Y-2268270D01*
X1645361Y-2278684D01*
X1655724Y-2287778D01*
X1667205Y-2295448D01*
X1679600Y-2301595D01*
X1692706Y-2306015D01*
X1706270Y-2308707D01*
G37*
G36*
X1212037Y-2309622D02*
G01*
X1225804Y-2308707D01*
X1239367Y-2306015D01*
X1252474Y-2301595D01*
X1264869Y-2295448D01*
X1276350Y-2287778D01*
X1286713Y-2278684D01*
X1295857Y-2268270D01*
X1303528Y-2256790D01*
X1309624Y-2244394D01*
X1314043Y-2231339D01*
X1316786Y-2217775D01*
X1317650Y-2204008D01*
X1316786Y-2190191D01*
X1314043Y-2176627D01*
X1309624Y-2163572D01*
X1303528Y-2151176D01*
X1295857Y-2139696D01*
X1286713Y-2129282D01*
X1276350Y-2120188D01*
X1264869Y-2112518D01*
X1252474Y-2106371D01*
X1239367Y-2101951D01*
X1225804Y-2099259D01*
X1212037Y-2098344D01*
X1198270Y-2099259D01*
X1184706Y-2101951D01*
X1171600Y-2106371D01*
X1159205Y-2112518D01*
X1147724Y-2120188D01*
X1137361Y-2129282D01*
X1128217Y-2139696D01*
X1120546Y-2151176D01*
X1114450Y-2163572D01*
X1110030Y-2176627D01*
X1107287Y-2190191D01*
X1106424Y-2204008D01*
X1107287Y-2217775D01*
X1110030Y-2231339D01*
X1114450Y-2244394D01*
X1120546Y-2256790D01*
X1128217Y-2268270D01*
X1137361Y-2278684D01*
X1147724Y-2287778D01*
X1159205Y-2295448D01*
X1171600Y-2301595D01*
X1184706Y-2306015D01*
X1198270Y-2308707D01*
G37*
G36*
X958037Y-2309622D02*
G01*
X971803Y-2308707D01*
X985367Y-2306015D01*
X998474Y-2301595D01*
X1010869Y-2295448D01*
X1022350Y-2287778D01*
X1032713Y-2278684D01*
X1041857Y-2268270D01*
X1049528Y-2256790D01*
X1055624Y-2244394D01*
X1060043Y-2231339D01*
X1062786Y-2217775D01*
X1063650Y-2204008D01*
X1062786Y-2190191D01*
X1060043Y-2176627D01*
X1055624Y-2163572D01*
X1049528Y-2151176D01*
X1041857Y-2139696D01*
X1032713Y-2129282D01*
X1022350Y-2120188D01*
X1010869Y-2112518D01*
X998474Y-2106371D01*
X985367Y-2101951D01*
X971803Y-2099259D01*
X958037Y-2098344D01*
X944270Y-2099259D01*
X930706Y-2101951D01*
X917600Y-2106371D01*
X905205Y-2112518D01*
X893724Y-2120188D01*
X883361Y-2129282D01*
X874217Y-2139696D01*
X866546Y-2151176D01*
X860450Y-2163572D01*
X856030Y-2176627D01*
X853287Y-2190191D01*
X852424Y-2204008D01*
X853287Y-2217775D01*
X856030Y-2231339D01*
X860450Y-2244394D01*
X866546Y-2256790D01*
X874217Y-2268270D01*
X883361Y-2278684D01*
X893724Y-2287778D01*
X905205Y-2295448D01*
X917600Y-2301595D01*
X930706Y-2306015D01*
X944270Y-2308707D01*
G37*
G36*
X1466037Y-2309622D02*
G01*
X1479804Y-2308707D01*
X1493367Y-2306015D01*
X1506474Y-2301595D01*
X1518869Y-2295448D01*
X1530350Y-2287778D01*
X1540713Y-2278684D01*
X1549857Y-2268270D01*
X1557528Y-2256790D01*
X1563624Y-2244394D01*
X1568043Y-2231339D01*
X1570786Y-2217775D01*
X1571650Y-2204008D01*
X1570786Y-2190191D01*
X1568043Y-2176627D01*
X1563624Y-2163572D01*
X1557528Y-2151176D01*
X1549857Y-2139696D01*
X1540713Y-2129282D01*
X1530350Y-2120188D01*
X1518869Y-2112518D01*
X1506474Y-2106371D01*
X1493367Y-2101951D01*
X1479804Y-2099259D01*
X1466037Y-2098344D01*
X1452270Y-2099259D01*
X1438706Y-2101951D01*
X1425600Y-2106371D01*
X1413205Y-2112518D01*
X1401724Y-2120188D01*
X1391361Y-2129282D01*
X1382217Y-2139696D01*
X1374546Y-2151176D01*
X1368450Y-2163572D01*
X1364030Y-2176627D01*
X1361287Y-2190191D01*
X1360424Y-2204008D01*
X1361287Y-2217775D01*
X1364030Y-2231339D01*
X1368450Y-2244394D01*
X1374546Y-2256790D01*
X1382217Y-2268270D01*
X1391361Y-2278684D01*
X1401724Y-2287778D01*
X1413205Y-2295448D01*
X1425600Y-2301595D01*
X1438706Y-2306015D01*
X1452270Y-2308707D01*
G37*
G36*
X1974037Y-2309622D02*
G01*
X1987804Y-2308707D01*
X2001367Y-2306015D01*
X2014474Y-2301595D01*
X2026869Y-2295448D01*
X2038350Y-2287778D01*
X2048713Y-2278684D01*
X2057857Y-2268270D01*
X2065528Y-2256790D01*
X2071624Y-2244394D01*
X2076043Y-2231339D01*
X2078786Y-2217775D01*
X2079650Y-2204008D01*
X2078786Y-2190191D01*
X2076043Y-2176627D01*
X2071624Y-2163572D01*
X2065528Y-2151176D01*
X2057857Y-2139696D01*
X2048713Y-2129282D01*
X2038350Y-2120188D01*
X2026869Y-2112518D01*
X2014474Y-2106371D01*
X2001367Y-2101951D01*
X1987804Y-2099259D01*
X1974037Y-2098344D01*
X1960270Y-2099259D01*
X1946706Y-2101951D01*
X1933600Y-2106371D01*
X1921205Y-2112518D01*
X1909724Y-2120188D01*
X1899361Y-2129282D01*
X1890217Y-2139696D01*
X1882546Y-2151176D01*
X1876450Y-2163572D01*
X1872030Y-2176627D01*
X1869287Y-2190191D01*
X1868424Y-2204008D01*
X1869287Y-2217775D01*
X1872030Y-2231339D01*
X1876450Y-2244394D01*
X1882546Y-2256790D01*
X1890217Y-2268270D01*
X1899361Y-2278684D01*
X1909724Y-2287778D01*
X1921205Y-2295448D01*
X1933600Y-2301595D01*
X1946706Y-2306015D01*
X1960270Y-2308707D01*
G37*
G36*
X369366Y-2009648D02*
G01*
X402488Y-2009648D01*
X408736Y-2008936D01*
X414121Y-2007057D01*
X418998Y-2004009D01*
X423062Y-1999945D01*
X426110Y-1995068D01*
X427990Y-1989683D01*
X428701Y-1983435D01*
X428701Y-1950313D01*
X369366Y-1950313D01*
G37*
G36*
X243586Y-2009648D02*
G01*
X276707Y-2009648D01*
X276707Y-1950313D01*
X217373Y-1950313D01*
X217373Y-1983435D01*
X218084Y-1989683D01*
X219964Y-1995068D01*
X223012Y-1999945D01*
X227075Y-2004009D01*
X231952Y-2007057D01*
X237337Y-2008936D01*
G37*
G36*
X831037Y-2009597D02*
G01*
X844803Y-2008733D01*
X858367Y-2005990D01*
X871474Y-2001570D01*
X883869Y-1995474D01*
X895350Y-1987804D01*
X905713Y-1978660D01*
X914857Y-1968296D01*
X922528Y-1956816D01*
X928624Y-1944420D01*
X933043Y-1931314D01*
X935786Y-1917750D01*
X936650Y-1903984D01*
X935786Y-1890217D01*
X933043Y-1876653D01*
X928624Y-1863547D01*
X922528Y-1851152D01*
X914857Y-1839671D01*
X905713Y-1829307D01*
X895350Y-1820164D01*
X883869Y-1812493D01*
X871474Y-1806397D01*
X858367Y-1801977D01*
X844803Y-1799234D01*
X831037Y-1798370D01*
X817270Y-1799234D01*
X803706Y-1801977D01*
X790600Y-1806397D01*
X778205Y-1812493D01*
X766724Y-1820164D01*
X756361Y-1829307D01*
X747217Y-1839671D01*
X739546Y-1851152D01*
X733450Y-1863547D01*
X729030Y-1876653D01*
X726287Y-1890217D01*
X725424Y-1903984D01*
X726287Y-1917750D01*
X729030Y-1931314D01*
X733450Y-1944420D01*
X739546Y-1956816D01*
X747217Y-1968296D01*
X756361Y-1978660D01*
X766724Y-1987804D01*
X778205Y-1995474D01*
X790600Y-2001570D01*
X803706Y-2005990D01*
X817270Y-2008733D01*
G37*
G36*
X1085037Y-2009597D02*
G01*
X1098804Y-2008733D01*
X1112367Y-2005990D01*
X1125474Y-2001570D01*
X1137869Y-1995474D01*
X1149350Y-1987804D01*
X1159713Y-1978660D01*
X1168857Y-1968296D01*
X1176528Y-1956816D01*
X1182624Y-1944420D01*
X1187043Y-1931314D01*
X1189786Y-1917750D01*
X1190650Y-1903984D01*
X1189786Y-1890217D01*
X1187043Y-1876653D01*
X1182624Y-1863547D01*
X1176528Y-1851152D01*
X1168857Y-1839671D01*
X1159713Y-1829307D01*
X1149350Y-1820164D01*
X1137869Y-1812493D01*
X1125474Y-1806397D01*
X1112367Y-1801977D01*
X1098804Y-1799234D01*
X1085037Y-1798370D01*
X1071270Y-1799234D01*
X1057706Y-1801977D01*
X1044600Y-1806397D01*
X1032205Y-1812493D01*
X1020724Y-1820164D01*
X1010361Y-1829307D01*
X1001217Y-1839671D01*
X993546Y-1851152D01*
X987450Y-1863547D01*
X983030Y-1876653D01*
X980287Y-1890217D01*
X979424Y-1903984D01*
X980287Y-1917750D01*
X983030Y-1931314D01*
X987450Y-1944420D01*
X993546Y-1956816D01*
X1001217Y-1968296D01*
X1010361Y-1978660D01*
X1020724Y-1987804D01*
X1032205Y-1995474D01*
X1044600Y-2001570D01*
X1057706Y-2005990D01*
X1071270Y-2008733D01*
G37*
G36*
X577037Y-2009597D02*
G01*
X590804Y-2008733D01*
X604367Y-2005990D01*
X617474Y-2001570D01*
X629869Y-1995474D01*
X641350Y-1987804D01*
X651713Y-1978660D01*
X660857Y-1968296D01*
X668528Y-1956816D01*
X674624Y-1944420D01*
X679043Y-1931314D01*
X681786Y-1917750D01*
X682650Y-1903984D01*
X681786Y-1890217D01*
X679043Y-1876653D01*
X674624Y-1863547D01*
X668528Y-1851152D01*
X660857Y-1839671D01*
X651713Y-1829307D01*
X641350Y-1820164D01*
X629869Y-1812493D01*
X617474Y-1806397D01*
X604367Y-1801977D01*
X590804Y-1799234D01*
X577037Y-1798370D01*
X563270Y-1799234D01*
X549706Y-1801977D01*
X536600Y-1806397D01*
X524205Y-1812493D01*
X512724Y-1820164D01*
X502361Y-1829307D01*
X493217Y-1839671D01*
X485546Y-1851152D01*
X479450Y-1863547D01*
X475030Y-1876653D01*
X472287Y-1890217D01*
X471424Y-1903984D01*
X472287Y-1917750D01*
X475030Y-1931314D01*
X479450Y-1944420D01*
X485546Y-1956816D01*
X493217Y-1968296D01*
X502361Y-1978660D01*
X512724Y-1987804D01*
X524205Y-1995474D01*
X536600Y-2001570D01*
X549706Y-2005990D01*
X563270Y-2008733D01*
G37*
G36*
X1847037Y-2009597D02*
G01*
X1860804Y-2008733D01*
X1874367Y-2005990D01*
X1887474Y-2001570D01*
X1899869Y-1995474D01*
X1911350Y-1987804D01*
X1921713Y-1978660D01*
X1930857Y-1968296D01*
X1938528Y-1956816D01*
X1944624Y-1944420D01*
X1949043Y-1931314D01*
X1951786Y-1917750D01*
X1952650Y-1903984D01*
X1951786Y-1890217D01*
X1949043Y-1876653D01*
X1944624Y-1863547D01*
X1938528Y-1851152D01*
X1930857Y-1839671D01*
X1921713Y-1829307D01*
X1911350Y-1820164D01*
X1899869Y-1812493D01*
X1887474Y-1806397D01*
X1874367Y-1801977D01*
X1860804Y-1799234D01*
X1847037Y-1798370D01*
X1833270Y-1799234D01*
X1819706Y-1801977D01*
X1806600Y-1806397D01*
X1794205Y-1812493D01*
X1782724Y-1820164D01*
X1772361Y-1829307D01*
X1763217Y-1839671D01*
X1755546Y-1851152D01*
X1749450Y-1863547D01*
X1745030Y-1876653D01*
X1742287Y-1890217D01*
X1741424Y-1903984D01*
X1742287Y-1917750D01*
X1745030Y-1931314D01*
X1749450Y-1944420D01*
X1755546Y-1956816D01*
X1763217Y-1968296D01*
X1772361Y-1978660D01*
X1782724Y-1987804D01*
X1794205Y-1995474D01*
X1806600Y-2001570D01*
X1819706Y-2005990D01*
X1833270Y-2008733D01*
G37*
G36*
X2355037Y-2009597D02*
G01*
X2368804Y-2008733D01*
X2382367Y-2005990D01*
X2395474Y-2001570D01*
X2407869Y-1995474D01*
X2419350Y-1987804D01*
X2429713Y-1978660D01*
X2438857Y-1968296D01*
X2446528Y-1956816D01*
X2452624Y-1944420D01*
X2457043Y-1931314D01*
X2459786Y-1917750D01*
X2460650Y-1903984D01*
X2459786Y-1890217D01*
X2457043Y-1876653D01*
X2452624Y-1863547D01*
X2446528Y-1851152D01*
X2438857Y-1839671D01*
X2429713Y-1829307D01*
X2419350Y-1820164D01*
X2407869Y-1812493D01*
X2395474Y-1806397D01*
X2382367Y-1801977D01*
X2368804Y-1799234D01*
X2355037Y-1798370D01*
X2341270Y-1799234D01*
X2327706Y-1801977D01*
X2314600Y-1806397D01*
X2302205Y-1812493D01*
X2290724Y-1820164D01*
X2280361Y-1829307D01*
X2271217Y-1839671D01*
X2263546Y-1851152D01*
X2257450Y-1863547D01*
X2253030Y-1876653D01*
X2250287Y-1890217D01*
X2249424Y-1903984D01*
X2250287Y-1917750D01*
X2253030Y-1931314D01*
X2257450Y-1944420D01*
X2263546Y-1956816D01*
X2271217Y-1968296D01*
X2280361Y-1978660D01*
X2290724Y-1987804D01*
X2302205Y-1995474D01*
X2314600Y-2001570D01*
X2327706Y-2005990D01*
X2341270Y-2008733D01*
G37*
G36*
X2101037Y-2009597D02*
G01*
X2114804Y-2008733D01*
X2128367Y-2005990D01*
X2141474Y-2001570D01*
X2153869Y-1995474D01*
X2165350Y-1987804D01*
X2175713Y-1978660D01*
X2184857Y-1968296D01*
X2192528Y-1956816D01*
X2198624Y-1944420D01*
X2203043Y-1931314D01*
X2205786Y-1917750D01*
X2206650Y-1903984D01*
X2205786Y-1890217D01*
X2203043Y-1876653D01*
X2198624Y-1863547D01*
X2192528Y-1851152D01*
X2184857Y-1839671D01*
X2175713Y-1829307D01*
X2165350Y-1820164D01*
X2153869Y-1812493D01*
X2141474Y-1806397D01*
X2128367Y-1801977D01*
X2114804Y-1799234D01*
X2101037Y-1798370D01*
X2087270Y-1799234D01*
X2073706Y-1801977D01*
X2060600Y-1806397D01*
X2048205Y-1812493D01*
X2036724Y-1820164D01*
X2026361Y-1829307D01*
X2017217Y-1839671D01*
X2009546Y-1851152D01*
X2003450Y-1863547D01*
X1999030Y-1876653D01*
X1996287Y-1890217D01*
X1995424Y-1903984D01*
X1996287Y-1917750D01*
X1999030Y-1931314D01*
X2003450Y-1944420D01*
X2009546Y-1956816D01*
X2017217Y-1968296D01*
X2026361Y-1978660D01*
X2036724Y-1987804D01*
X2048205Y-1995474D01*
X2060600Y-2001570D01*
X2073706Y-2005990D01*
X2087270Y-2008733D01*
G37*
G36*
X2609037Y-2009597D02*
G01*
X2622804Y-2008733D01*
X2636367Y-2005990D01*
X2649474Y-2001570D01*
X2661869Y-1995474D01*
X2673350Y-1987804D01*
X2683713Y-1978660D01*
X2692857Y-1968296D01*
X2700528Y-1956816D01*
X2706624Y-1944420D01*
X2711043Y-1931314D01*
X2713786Y-1917750D01*
X2714650Y-1903984D01*
X2713786Y-1890217D01*
X2711043Y-1876653D01*
X2706624Y-1863547D01*
X2700528Y-1851152D01*
X2692857Y-1839671D01*
X2683713Y-1829307D01*
X2673350Y-1820164D01*
X2661869Y-1812493D01*
X2649474Y-1806397D01*
X2636367Y-1801977D01*
X2622804Y-1799234D01*
X2609037Y-1798370D01*
X2595270Y-1799234D01*
X2581706Y-1801977D01*
X2568600Y-1806397D01*
X2556205Y-1812493D01*
X2544724Y-1820164D01*
X2534361Y-1829307D01*
X2525217Y-1839671D01*
X2517546Y-1851152D01*
X2511450Y-1863547D01*
X2507030Y-1876653D01*
X2504287Y-1890217D01*
X2503424Y-1903984D01*
X2504287Y-1917750D01*
X2507030Y-1931314D01*
X2511450Y-1944420D01*
X2517546Y-1956816D01*
X2525217Y-1968296D01*
X2534361Y-1978660D01*
X2544724Y-1987804D01*
X2556205Y-1995474D01*
X2568600Y-2001570D01*
X2581706Y-2005990D01*
X2595270Y-2008733D01*
G37*
G36*
X2863037Y-2009597D02*
G01*
X2876804Y-2008733D01*
X2890367Y-2005990D01*
X2903474Y-2001570D01*
X2915869Y-1995474D01*
X2927350Y-1987804D01*
X2937713Y-1978660D01*
X2946857Y-1968296D01*
X2954528Y-1956816D01*
X2960624Y-1944420D01*
X2965043Y-1931314D01*
X2967786Y-1917750D01*
X2968650Y-1903984D01*
X2967786Y-1890217D01*
X2965043Y-1876653D01*
X2960624Y-1863547D01*
X2954528Y-1851152D01*
X2946857Y-1839671D01*
X2937713Y-1829307D01*
X2927350Y-1820164D01*
X2915869Y-1812493D01*
X2903474Y-1806397D01*
X2890367Y-1801977D01*
X2876804Y-1799234D01*
X2863037Y-1798370D01*
X2849270Y-1799234D01*
X2835706Y-1801977D01*
X2822600Y-1806397D01*
X2810205Y-1812493D01*
X2798724Y-1820164D01*
X2788361Y-1829307D01*
X2779217Y-1839671D01*
X2771546Y-1851152D01*
X2765450Y-1863547D01*
X2761030Y-1876653D01*
X2758287Y-1890217D01*
X2757424Y-1903984D01*
X2758287Y-1917750D01*
X2761030Y-1931314D01*
X2765450Y-1944420D01*
X2771546Y-1956816D01*
X2779217Y-1968296D01*
X2788361Y-1978660D01*
X2798724Y-1987804D01*
X2810205Y-1995474D01*
X2822600Y-2001570D01*
X2835706Y-2005990D01*
X2849270Y-2008733D01*
G37*
G36*
X5149037Y-2009597D02*
G01*
X5162804Y-2008733D01*
X5176367Y-2005990D01*
X5189423Y-2001570D01*
X5201818Y-1995474D01*
X5213299Y-1987804D01*
X5223713Y-1978660D01*
X5232806Y-1968296D01*
X5240477Y-1956816D01*
X5246624Y-1944420D01*
X5251043Y-1931314D01*
X5253736Y-1917750D01*
X5254650Y-1903984D01*
X5253736Y-1890217D01*
X5251043Y-1876653D01*
X5246624Y-1863547D01*
X5240477Y-1851152D01*
X5232806Y-1839671D01*
X5223713Y-1829307D01*
X5213299Y-1820164D01*
X5201818Y-1812493D01*
X5189423Y-1806397D01*
X5176367Y-1801977D01*
X5162804Y-1799234D01*
X5149037Y-1798370D01*
X5135219Y-1799234D01*
X5121656Y-1801977D01*
X5108600Y-1806397D01*
X5096205Y-1812493D01*
X5084724Y-1820164D01*
X5074310Y-1829307D01*
X5065217Y-1839671D01*
X5057546Y-1851152D01*
X5051399Y-1863547D01*
X5046980Y-1876653D01*
X5044287Y-1890217D01*
X5043373Y-1903984D01*
X5044287Y-1917750D01*
X5046980Y-1931314D01*
X5051399Y-1944420D01*
X5057546Y-1956816D01*
X5065217Y-1968296D01*
X5074310Y-1978660D01*
X5084724Y-1987804D01*
X5096205Y-1995474D01*
X5108600Y-2001570D01*
X5121656Y-2005990D01*
X5135219Y-2008733D01*
G37*
G36*
X5403037Y-2009597D02*
G01*
X5416804Y-2008733D01*
X5430367Y-2005990D01*
X5443423Y-2001570D01*
X5455818Y-1995474D01*
X5467299Y-1987804D01*
X5477713Y-1978660D01*
X5486806Y-1968296D01*
X5494477Y-1956816D01*
X5500624Y-1944420D01*
X5505043Y-1931314D01*
X5507736Y-1917750D01*
X5508650Y-1903984D01*
X5507736Y-1890217D01*
X5505043Y-1876653D01*
X5500624Y-1863547D01*
X5494477Y-1851152D01*
X5486806Y-1839671D01*
X5477713Y-1829307D01*
X5467299Y-1820164D01*
X5455818Y-1812493D01*
X5443423Y-1806397D01*
X5430367Y-1801977D01*
X5416804Y-1799234D01*
X5403037Y-1798370D01*
X5389219Y-1799234D01*
X5375656Y-1801977D01*
X5362600Y-1806397D01*
X5350205Y-1812493D01*
X5338724Y-1820164D01*
X5328310Y-1829307D01*
X5319217Y-1839671D01*
X5311546Y-1851152D01*
X5305399Y-1863547D01*
X5300980Y-1876653D01*
X5298287Y-1890217D01*
X5297373Y-1903984D01*
X5298287Y-1917750D01*
X5300980Y-1931314D01*
X5305399Y-1944420D01*
X5311546Y-1956816D01*
X5319217Y-1968296D01*
X5328310Y-1978660D01*
X5338724Y-1987804D01*
X5350205Y-1995474D01*
X5362600Y-2001570D01*
X5375656Y-2005990D01*
X5389219Y-2008733D01*
G37*
G36*
X3624986Y-2009597D02*
G01*
X3638804Y-2008733D01*
X3652367Y-2005990D01*
X3665423Y-2001570D01*
X3677818Y-1995474D01*
X3689299Y-1987804D01*
X3699713Y-1978660D01*
X3708806Y-1968296D01*
X3716477Y-1956816D01*
X3722624Y-1944420D01*
X3727043Y-1931314D01*
X3729736Y-1917750D01*
X3730650Y-1903984D01*
X3729736Y-1890217D01*
X3727043Y-1876653D01*
X3722624Y-1863547D01*
X3716477Y-1851152D01*
X3708806Y-1839671D01*
X3699713Y-1829307D01*
X3689299Y-1820164D01*
X3677818Y-1812493D01*
X3665423Y-1806397D01*
X3652367Y-1801977D01*
X3638804Y-1799234D01*
X3624986Y-1798370D01*
X3611219Y-1799234D01*
X3597656Y-1801977D01*
X3584600Y-1806397D01*
X3572205Y-1812493D01*
X3560724Y-1820164D01*
X3550310Y-1829307D01*
X3541217Y-1839671D01*
X3533546Y-1851152D01*
X3527399Y-1863547D01*
X3522979Y-1876653D01*
X3520287Y-1890217D01*
X3519373Y-1903984D01*
X3520287Y-1917750D01*
X3522979Y-1931314D01*
X3527399Y-1944420D01*
X3533546Y-1956816D01*
X3541217Y-1968296D01*
X3550310Y-1978660D01*
X3560724Y-1987804D01*
X3572205Y-1995474D01*
X3584600Y-2001570D01*
X3597656Y-2005990D01*
X3611219Y-2008733D01*
G37*
G36*
X1593037Y-2009597D02*
G01*
X1606804Y-2008733D01*
X1620367Y-2005990D01*
X1633474Y-2001570D01*
X1645869Y-1995474D01*
X1657350Y-1987804D01*
X1667713Y-1978660D01*
X1676857Y-1968296D01*
X1684528Y-1956816D01*
X1690624Y-1944420D01*
X1695043Y-1931314D01*
X1697786Y-1917750D01*
X1698650Y-1903984D01*
X1697786Y-1890217D01*
X1695043Y-1876653D01*
X1690624Y-1863547D01*
X1684528Y-1851152D01*
X1676857Y-1839671D01*
X1667713Y-1829307D01*
X1657350Y-1820164D01*
X1645869Y-1812493D01*
X1637080Y-1808175D01*
X1634083Y-1805939D01*
X1632102Y-1802739D01*
X1631391Y-1799082D01*
X1631391Y-1644345D01*
X1630629Y-1636369D01*
X1628444Y-1629156D01*
X1624888Y-1622552D01*
X1619808Y-1616354D01*
X1475282Y-1471828D01*
X1469085Y-1466748D01*
X1462481Y-1463192D01*
X1455267Y-1461008D01*
X1447292Y-1460246D01*
X1141679Y-1460246D01*
X1137767Y-1459484D01*
X1134465Y-1457248D01*
X1132281Y-1453997D01*
X1131519Y-1450086D01*
X1131519Y-1399184D01*
X1130808Y-1392885D01*
X1128877Y-1387500D01*
X1125829Y-1382623D01*
X1121816Y-1378610D01*
X1116939Y-1375562D01*
X1111554Y-1373632D01*
X1105255Y-1372971D01*
X906424Y-1372971D01*
X900125Y-1373632D01*
X894740Y-1375562D01*
X889863Y-1378610D01*
X885850Y-1382623D01*
X882802Y-1387500D01*
X880871Y-1392885D01*
X880211Y-1399184D01*
X880211Y-1598015D01*
X880871Y-1604314D01*
X882802Y-1609699D01*
X885850Y-1614576D01*
X889863Y-1618589D01*
X894740Y-1621637D01*
X900125Y-1623568D01*
X906424Y-1624279D01*
X1105255Y-1624279D01*
X1111554Y-1623568D01*
X1116939Y-1621637D01*
X1121816Y-1618589D01*
X1125829Y-1614576D01*
X1128877Y-1609699D01*
X1130808Y-1604314D01*
X1131519Y-1598015D01*
X1131519Y-1547114D01*
X1132281Y-1543202D01*
X1134465Y-1539951D01*
X1137767Y-1537716D01*
X1141679Y-1536954D01*
X1427683Y-1536954D01*
X1431594Y-1537716D01*
X1434896Y-1539951D01*
X1551686Y-1656740D01*
X1553921Y-1660042D01*
X1554683Y-1663954D01*
X1554683Y-1799082D01*
X1553972Y-1802739D01*
X1551990Y-1805939D01*
X1548993Y-1808175D01*
X1540205Y-1812493D01*
X1528724Y-1820164D01*
X1518361Y-1829307D01*
X1509217Y-1839671D01*
X1501546Y-1851152D01*
X1495450Y-1863547D01*
X1491030Y-1876653D01*
X1488287Y-1890217D01*
X1487424Y-1903984D01*
X1488287Y-1917750D01*
X1491030Y-1931314D01*
X1495450Y-1944420D01*
X1501546Y-1956816D01*
X1509217Y-1968296D01*
X1518361Y-1978660D01*
X1528724Y-1987804D01*
X1540205Y-1995474D01*
X1552600Y-2001570D01*
X1565706Y-2005990D01*
X1579270Y-2008733D01*
G37*
G36*
X1339037Y-2009597D02*
G01*
X1352804Y-2008733D01*
X1366367Y-2005990D01*
X1379474Y-2001570D01*
X1391869Y-1995474D01*
X1403350Y-1987804D01*
X1413713Y-1978660D01*
X1422857Y-1968296D01*
X1430528Y-1956816D01*
X1436624Y-1944420D01*
X1441043Y-1931314D01*
X1443786Y-1917750D01*
X1444650Y-1903984D01*
X1443786Y-1890217D01*
X1441043Y-1876653D01*
X1436624Y-1863547D01*
X1430528Y-1851152D01*
X1422857Y-1839671D01*
X1413713Y-1829307D01*
X1403350Y-1820164D01*
X1391869Y-1812493D01*
X1379474Y-1806397D01*
X1366367Y-1801977D01*
X1352804Y-1799234D01*
X1339037Y-1798370D01*
X1325270Y-1799234D01*
X1311706Y-1801977D01*
X1309674Y-1802638D01*
X1305966Y-1803146D01*
X1302359Y-1802333D01*
X1299260Y-1800199D01*
X1172260Y-1673250D01*
X1165707Y-1667814D01*
X1158646Y-1664055D01*
X1150975Y-1661718D01*
X1142492Y-1660906D01*
X818692Y-1660906D01*
X814832Y-1660143D01*
X811530Y-1657908D01*
X722985Y-1569364D01*
X720801Y-1566062D01*
X720039Y-1562201D01*
X720039Y-1399184D01*
X719328Y-1392885D01*
X717397Y-1387500D01*
X714349Y-1382623D01*
X710336Y-1378610D01*
X705459Y-1375562D01*
X700074Y-1373632D01*
X693775Y-1372971D01*
X494944Y-1372971D01*
X488645Y-1373632D01*
X483260Y-1375562D01*
X478383Y-1378610D01*
X474370Y-1382623D01*
X471322Y-1387500D01*
X469392Y-1392885D01*
X468731Y-1399184D01*
X468731Y-1598015D01*
X469392Y-1604314D01*
X471322Y-1609699D01*
X474370Y-1614576D01*
X478383Y-1618589D01*
X483260Y-1621637D01*
X488645Y-1623568D01*
X494944Y-1624279D01*
X657961Y-1624279D01*
X661822Y-1625041D01*
X665124Y-1627225D01*
X768299Y-1730349D01*
X774852Y-1735785D01*
X781913Y-1739544D01*
X789584Y-1741881D01*
X798068Y-1742693D01*
X1121867Y-1742693D01*
X1125728Y-1743456D01*
X1129030Y-1745691D01*
X1238351Y-1855012D01*
X1240485Y-1858111D01*
X1241348Y-1861769D01*
X1240790Y-1865477D01*
X1237030Y-1876653D01*
X1234287Y-1890217D01*
X1233424Y-1903984D01*
X1234287Y-1917750D01*
X1237030Y-1931314D01*
X1241450Y-1944420D01*
X1247546Y-1956816D01*
X1255217Y-1968296D01*
X1264361Y-1978660D01*
X1274724Y-1987804D01*
X1286205Y-1995474D01*
X1298600Y-2001570D01*
X1311706Y-2005990D01*
X1325270Y-2008733D01*
G37*
G36*
X217373Y-1857654D02*
G01*
X276707Y-1857654D01*
X276707Y-1798320D01*
X243586Y-1798320D01*
X237337Y-1799031D01*
X231952Y-1800910D01*
X227075Y-1803958D01*
X223012Y-1808022D01*
X219964Y-1812899D01*
X218084Y-1818284D01*
X217373Y-1824532D01*
G37*
G36*
X369366Y-1857654D02*
G01*
X428701Y-1857654D01*
X428701Y-1824532D01*
X427990Y-1818284D01*
X426110Y-1812899D01*
X423062Y-1808022D01*
X418998Y-1803958D01*
X414121Y-1800910D01*
X408736Y-1799031D01*
X402488Y-1798320D01*
X369366Y-1798320D01*
G37*
G36*
X4541062Y-1644650D02*
G01*
X4729937Y-1644650D01*
X4736185Y-1643938D01*
X4741621Y-1642059D01*
X4746447Y-1639011D01*
X4750511Y-1634947D01*
X4753559Y-1630121D01*
X4755438Y-1624685D01*
X4756150Y-1618437D01*
X4756150Y-1567484D01*
X4756962Y-1563471D01*
X4759299Y-1560118D01*
X4762754Y-1557934D01*
X4766818Y-1557324D01*
X4770780Y-1558340D01*
X4773980Y-1560830D01*
X4776012Y-1564386D01*
X4777028Y-1567586D01*
X4783226Y-1581048D01*
X4791049Y-1593697D01*
X4800346Y-1605280D01*
X4811014Y-1615592D01*
X4822850Y-1624584D01*
X4835753Y-1632000D01*
X4849418Y-1637792D01*
X4863693Y-1641856D01*
X4878374Y-1644142D01*
X4893208Y-1644599D01*
X4907991Y-1643227D01*
X4922520Y-1640027D01*
X4936540Y-1635099D01*
X4949799Y-1628495D01*
X4962194Y-1620266D01*
X4973472Y-1610614D01*
X4983480Y-1599641D01*
X4992065Y-1587500D01*
X4999075Y-1574444D01*
X5004460Y-1560576D01*
X5008067Y-1546148D01*
X5009896Y-1531416D01*
X5009896Y-1516583D01*
X5008067Y-1501851D01*
X5004460Y-1487424D01*
X4999075Y-1473555D01*
X4992065Y-1460500D01*
X4983480Y-1448358D01*
X4973472Y-1437386D01*
X4962194Y-1427734D01*
X4949799Y-1419504D01*
X4936540Y-1412900D01*
X4922520Y-1407972D01*
X4907991Y-1404772D01*
X4893208Y-1403400D01*
X4878374Y-1403858D01*
X4863693Y-1406144D01*
X4849418Y-1410208D01*
X4835753Y-1415999D01*
X4822850Y-1423416D01*
X4811014Y-1432407D01*
X4800346Y-1442720D01*
X4791049Y-1454302D01*
X4783226Y-1466951D01*
X4777028Y-1480413D01*
X4776012Y-1483614D01*
X4773980Y-1487170D01*
X4770780Y-1489659D01*
X4766818Y-1490675D01*
X4762754Y-1490065D01*
X4759299Y-1487881D01*
X4756962Y-1484528D01*
X4756150Y-1480515D01*
X4756150Y-1429562D01*
X4755438Y-1423314D01*
X4753559Y-1417878D01*
X4750511Y-1413052D01*
X4746447Y-1408988D01*
X4741621Y-1405940D01*
X4736185Y-1404061D01*
X4729937Y-1403350D01*
X4541062Y-1403350D01*
X4534814Y-1404061D01*
X4529378Y-1405940D01*
X4524552Y-1408988D01*
X4520488Y-1413052D01*
X4517440Y-1417878D01*
X4515561Y-1423314D01*
X4514850Y-1429562D01*
X4514850Y-1618437D01*
X4515561Y-1624685D01*
X4517440Y-1630121D01*
X4520488Y-1634947D01*
X4524552Y-1639011D01*
X4529378Y-1642059D01*
X4534814Y-1643938D01*
G37*
G36*
X1544828Y-1114653D02*
G01*
X1650441Y-1114653D01*
X1656689Y-1113942D01*
X1662125Y-1112062D01*
X1666951Y-1109014D01*
X1671015Y-1104950D01*
X1674063Y-1100124D01*
X1675942Y-1094689D01*
X1676654Y-1088440D01*
X1676654Y-995375D01*
X1544828Y-995375D01*
G37*
G36*
X1201572Y-1114653D02*
G01*
X1307134Y-1114653D01*
X1307134Y-995375D01*
X1175359Y-995375D01*
X1175359Y-1088440D01*
X1176070Y-1094689D01*
X1177950Y-1100124D01*
X1180998Y-1104950D01*
X1185062Y-1109014D01*
X1189888Y-1112062D01*
X1195324Y-1113942D01*
G37*
G36*
X7089140Y-996086D02*
G01*
X7101890Y-988720D01*
X7113625Y-979830D01*
X7124192Y-969568D01*
X7133437Y-958087D01*
X7141159Y-945591D01*
X7142683Y-942340D01*
X7089140Y-942340D01*
G37*
G36*
X6982459Y-995832D02*
G01*
X6982459Y-942340D01*
X6928916Y-942340D01*
X6934098Y-951992D01*
X6942632Y-963980D01*
X6952538Y-974852D01*
X6963714Y-984453D01*
X6976008Y-992581D01*
G37*
G36*
X2657652Y-989584D02*
G01*
X2671064Y-989126D01*
X2684322Y-986891D01*
X2697175Y-982929D01*
X2709367Y-977239D01*
X2720695Y-970026D01*
X2730957Y-961339D01*
X2739999Y-951382D01*
X2747568Y-940308D01*
X2753664Y-928268D01*
X2758084Y-915568D01*
X2760726Y-902411D01*
X2761640Y-889000D01*
X2760726Y-875588D01*
X2758084Y-862431D01*
X2753664Y-849731D01*
X2747568Y-837692D01*
X2739999Y-826617D01*
X2730957Y-816660D01*
X2720695Y-807974D01*
X2709367Y-800760D01*
X2697175Y-795070D01*
X2684322Y-791108D01*
X2671064Y-788873D01*
X2657652Y-788416D01*
X2644292Y-789787D01*
X2631186Y-792886D01*
X2618638Y-797712D01*
X2606852Y-804164D01*
X2596032Y-812139D01*
X2586380Y-821486D01*
X2578049Y-832053D01*
X2571191Y-843635D01*
X2565958Y-855980D01*
X2562402Y-868934D01*
X2560574Y-882294D01*
X2560574Y-895705D01*
X2562402Y-909066D01*
X2565958Y-922019D01*
X2571191Y-934364D01*
X2578049Y-945946D01*
X2586380Y-956513D01*
X2596032Y-965860D01*
X2606852Y-973836D01*
X2618638Y-980287D01*
X2631186Y-985113D01*
X2644292Y-988212D01*
G37*
G36*
X1907641Y-989584D02*
G01*
X1921052Y-989126D01*
X1934311Y-986891D01*
X1947164Y-982929D01*
X1959356Y-977239D01*
X1970684Y-970026D01*
X1980946Y-961339D01*
X1989988Y-951382D01*
X1997557Y-940308D01*
X2003653Y-928268D01*
X2008073Y-915568D01*
X2010714Y-902411D01*
X2011629Y-889000D01*
X2010714Y-875588D01*
X2008073Y-862431D01*
X2003653Y-849731D01*
X1997557Y-837692D01*
X1989988Y-826617D01*
X1980946Y-816660D01*
X1970684Y-807974D01*
X1959356Y-800760D01*
X1947164Y-795070D01*
X1934311Y-791108D01*
X1921052Y-788873D01*
X1907641Y-788416D01*
X1894281Y-789787D01*
X1881174Y-792886D01*
X1868627Y-797712D01*
X1856841Y-804164D01*
X1846021Y-812139D01*
X1836369Y-821486D01*
X1828038Y-832053D01*
X1821180Y-843635D01*
X1815947Y-855980D01*
X1812391Y-868934D01*
X1810562Y-882294D01*
X1810562Y-895705D01*
X1812391Y-909066D01*
X1815947Y-922019D01*
X1821180Y-934364D01*
X1828038Y-945946D01*
X1836369Y-956513D01*
X1846021Y-965860D01*
X1856841Y-973836D01*
X1868627Y-980287D01*
X1881174Y-985113D01*
X1894281Y-988212D01*
G37*
G36*
X6928916Y-835660D02*
G01*
X6982459Y-835660D01*
X6982459Y-782167D01*
X6976008Y-785418D01*
X6963714Y-793546D01*
X6952538Y-803148D01*
X6942632Y-814019D01*
X6934098Y-826008D01*
G37*
G36*
X7089140Y-835660D02*
G01*
X7142683Y-835660D01*
X7141159Y-832408D01*
X7133437Y-819912D01*
X7124192Y-808431D01*
X7113625Y-798169D01*
X7101890Y-789279D01*
X7089140Y-781913D01*
G37*
G36*
X1175359Y-782675D02*
G01*
X1307134Y-782675D01*
X1307134Y-663346D01*
X1201572Y-663346D01*
X1195324Y-664057D01*
X1189888Y-665937D01*
X1185062Y-668985D01*
X1180998Y-673049D01*
X1177950Y-677875D01*
X1176070Y-683310D01*
X1175359Y-689559D01*
G37*
G36*
X1544828Y-782675D02*
G01*
X1676654Y-782675D01*
X1676654Y-689559D01*
X1675942Y-683310D01*
X1674063Y-677875D01*
X1671015Y-673049D01*
X1666951Y-668985D01*
X1662125Y-665937D01*
X1656689Y-664057D01*
X1650441Y-663346D01*
X1544828Y-663346D01*
G37*
G36*
X4321556Y-745591D02*
G01*
X4335678Y-744220D01*
X4349496Y-741070D01*
X4362805Y-736142D01*
X4375353Y-729589D01*
X4386986Y-721512D01*
X4397451Y-711962D01*
X4406646Y-701192D01*
X4414418Y-689305D01*
X4420565Y-676503D01*
X4425035Y-663041D01*
X4427728Y-649122D01*
X4428642Y-635000D01*
X4427728Y-620877D01*
X4425035Y-606958D01*
X4420565Y-593496D01*
X4414418Y-580694D01*
X4406646Y-568807D01*
X4397451Y-558038D01*
X4386986Y-548487D01*
X4375353Y-540410D01*
X4362805Y-533857D01*
X4349496Y-528929D01*
X4335678Y-525780D01*
X4321556Y-524408D01*
X4307382Y-524865D01*
X4293362Y-527151D01*
X4279798Y-531164D01*
X4266844Y-536905D01*
X4254703Y-544271D01*
X4243628Y-553110D01*
X4233773Y-563270D01*
X4225290Y-574649D01*
X4218330Y-586994D01*
X4212996Y-600151D01*
X4209389Y-613867D01*
X4207611Y-627888D01*
X4207611Y-642112D01*
X4209389Y-656132D01*
X4212996Y-669848D01*
X4218330Y-683006D01*
X4225290Y-695350D01*
X4233773Y-706729D01*
X4243628Y-716889D01*
X4254703Y-725728D01*
X4266844Y-733094D01*
X4279798Y-738835D01*
X4293362Y-742848D01*
X4307382Y-745134D01*
G37*
G36*
X4067556Y-745591D02*
G01*
X4081678Y-744220D01*
X4095496Y-741070D01*
X4108805Y-736142D01*
X4121353Y-729589D01*
X4132986Y-721512D01*
X4143451Y-711962D01*
X4152646Y-701192D01*
X4160418Y-689305D01*
X4166565Y-676503D01*
X4171035Y-663041D01*
X4173728Y-649122D01*
X4174642Y-635000D01*
X4173728Y-620877D01*
X4171035Y-606958D01*
X4166565Y-593496D01*
X4160418Y-580694D01*
X4152646Y-568807D01*
X4143451Y-558038D01*
X4132986Y-548487D01*
X4121353Y-540410D01*
X4108805Y-533857D01*
X4095496Y-528929D01*
X4081678Y-525780D01*
X4067556Y-524408D01*
X4053382Y-524865D01*
X4039362Y-527151D01*
X4025798Y-531164D01*
X4012844Y-536905D01*
X4000703Y-544271D01*
X3989628Y-553110D01*
X3979773Y-563270D01*
X3971290Y-574649D01*
X3964330Y-586994D01*
X3958996Y-600151D01*
X3955389Y-613867D01*
X3953611Y-627888D01*
X3953611Y-642112D01*
X3955389Y-656132D01*
X3958996Y-669848D01*
X3964330Y-683006D01*
X3971290Y-695350D01*
X3979773Y-706729D01*
X3989628Y-716889D01*
X4000703Y-725728D01*
X4012844Y-733094D01*
X4025798Y-738835D01*
X4039362Y-742848D01*
X4053382Y-745134D01*
G37*
G36*
X5128869Y-739394D02*
G01*
X5164429Y-739394D01*
X5170678Y-738682D01*
X5176113Y-736803D01*
X5180939Y-733755D01*
X5185003Y-729691D01*
X5188051Y-724865D01*
X5189931Y-719429D01*
X5190642Y-713181D01*
X5190642Y-680720D01*
X5128869Y-680720D01*
G37*
G36*
X4067556Y-491591D02*
G01*
X4081678Y-490220D01*
X4095496Y-487070D01*
X4108805Y-482142D01*
X4121353Y-475589D01*
X4132986Y-467512D01*
X4143451Y-457962D01*
X4152646Y-447192D01*
X4160418Y-435305D01*
X4166565Y-422503D01*
X4171035Y-409041D01*
X4173728Y-395122D01*
X4174642Y-381000D01*
X4173728Y-366877D01*
X4171035Y-352958D01*
X4166565Y-339496D01*
X4160418Y-326694D01*
X4152646Y-314807D01*
X4143451Y-304038D01*
X4132986Y-294487D01*
X4121353Y-286410D01*
X4108805Y-279857D01*
X4095496Y-274929D01*
X4081678Y-271780D01*
X4067556Y-270408D01*
X4053382Y-270865D01*
X4039362Y-273151D01*
X4025798Y-277164D01*
X4012844Y-282905D01*
X4000703Y-290271D01*
X3989628Y-299110D01*
X3979773Y-309270D01*
X3971290Y-320649D01*
X3964330Y-332994D01*
X3958996Y-346151D01*
X3955389Y-359867D01*
X3953611Y-373888D01*
X3953611Y-388112D01*
X3955389Y-402132D01*
X3958996Y-415848D01*
X3964330Y-429006D01*
X3971290Y-441350D01*
X3979773Y-452729D01*
X3989628Y-462889D01*
X4000703Y-471728D01*
X4012844Y-479094D01*
X4025798Y-484835D01*
X4039362Y-488848D01*
X4053382Y-491134D01*
G37*

%LPD*%
D11*
X3879088Y-1903984D02*
G01*
X4019804Y-2044700D01*
X5003800Y-2044700D01*
X5067300Y-2108200D01*
X6146800Y-2108200D01*
X6311900Y-1943100D01*
X6311900Y-1435100D01*
X6604000Y-1143000D01*
X7010400Y-1143000D01*
D10*
X5740400Y-3289300D02*
G01*
X5740400Y-2603500D01*
X6375400Y-1968500D01*
X6375400Y-1447800D01*
X6426200Y-1397000D01*
X7035800Y-1397000D01*
X4826000Y-635000D02*
G01*
X5016500Y-825500D01*
X5715000Y-825500D01*
X5911088Y-1021587D01*
X5911088Y-1903984D01*
X6165088Y-1903984D02*
G01*
X6024372Y-2044700D01*
X5867400Y-2044700D01*
X5765800Y-1943100D01*
X5765800Y-939800D01*
X5702300Y-876300D01*
X4813300Y-876300D01*
X4572000Y-635000D01*
X3750294Y-4025900D02*
G01*
X3750294Y-4123697D01*
X3695700Y-4178300D01*
X3035300Y-4178300D01*
X2870200Y-4013200D01*
X1593037Y-1903984D02*
G01*
X1593037Y-1643837D01*
X1447800Y-1498600D01*
X1005839Y-1498600D01*
X4318000Y-381000D02*
G01*
X4445000Y-508000D01*
X5232400Y-508000D01*
X5286984Y-562584D01*
X5537200Y-562584D01*
X7035800Y-2921000D02*
G01*
X6350000Y-3606800D01*
D11*
X5080000Y-381000D02*
G01*
X5101590Y-402589D01*
X5537200Y-402589D01*
X4895011Y-2157984D02*
G01*
X3364484Y-2157984D01*
X3251200Y-2044700D01*
X3251200Y-994206D01*
X3145993Y-889000D01*
X1600200Y-4000500D02*
G01*
X1600200Y-3860800D01*
X1689100Y-3771900D01*
X3505200Y-3771900D01*
X3590290Y-3856989D01*
X3590290Y-4025900D01*
X4895088Y-2411984D02*
G01*
X3987800Y-2413000D01*
X3759200Y-2641600D01*
X3759200Y-3688079D01*
X3590290Y-3856989D01*
X3569124Y-3835824D02*
G01*
X3572316Y-3832631D01*
X3614648Y-3832631D01*
D10*
X5930900Y-3048000D02*
G01*
X5930900Y-2501900D01*
X6527800Y-1905000D01*
X7035800Y-1905000D01*
D11*
X594360Y-1498600D02*
G01*
X797560Y-1701800D01*
X1143000Y-1701800D01*
X1339037Y-1897837D01*
X1339037Y-1903984D01*
G36*
X1105839Y-1398600D02*
G01*
X905840Y-1398600D01*
X905840Y-1598599D01*
X1105839Y-1598599D01*
G37*
G36*
X694359Y-1398600D02*
G01*
X494360Y-1398600D01*
X494360Y-1598599D01*
X694359Y-1598599D01*
G37*
G36*
X3640292Y-3970898D02*
G01*
X3540292Y-3970898D01*
X3540292Y-4080901D01*
X3640292Y-4080901D01*
G37*
G36*
X3800292Y-3970898D02*
G01*
X3700292Y-3970898D01*
X3700292Y-4080901D01*
X3800292Y-4080901D01*
G37*
G36*
X5482198Y-512607D02*
G01*
X5482198Y-612607D01*
X5592201Y-612607D01*
X5592201Y-512607D01*
G37*
G36*
X5482198Y-352607D02*
G01*
X5482198Y-452607D01*
X5592201Y-452607D01*
X5592201Y-352607D01*
G37*
G36*
X3371001Y-689000D02*
G01*
X2921002Y-689000D01*
X2921002Y-1088999D01*
X3371001Y-1088999D01*
G37*
G36*
X1651000Y-689000D02*
G01*
X1201000Y-689000D01*
X1201000Y-1088999D01*
X1651000Y-1088999D01*
G37*
D13*
G01*
X7035800Y-889000D03*
G01*
X7010400Y-1143000D03*
G01*
X7035800Y-1397000D03*
G01*
X7010400Y-1651000D03*
G01*
X7035800Y-1905000D03*
G01*
X7010400Y-2159000D03*
G01*
X7035800Y-2413000D03*
G01*
X7010400Y-2667000D03*
G01*
X7035800Y-2921000D03*
G01*
X7010400Y-3175000D03*
G01*
X7035800Y-3429000D03*
D14*
G01*
X4387011Y-1903984D03*
G01*
X4641011Y-1903984D03*
G01*
X4895011Y-1903984D03*
G01*
X5149011Y-1903984D03*
G01*
X4133011Y-1903984D03*
G01*
X3879011Y-1903984D03*
G01*
X3625011Y-1903984D03*
G01*
X5403011Y-1903984D03*
G01*
X5657011Y-1903984D03*
G01*
X5911011Y-1903984D03*
G01*
X6165011Y-1903984D03*
G01*
X4895011Y-2157984D03*
G01*
X4895011Y-2411984D03*
G01*
X4895011Y-2665984D03*
G01*
X4895011Y-2919984D03*
G01*
X4895011Y-3173984D03*
G01*
X6165011Y-3427984D03*
G01*
X5911011Y-3427984D03*
G01*
X5657011Y-3427984D03*
G01*
X5403011Y-3427984D03*
G01*
X5149011Y-3427984D03*
G01*
X4895011Y-3427984D03*
G01*
X4641011Y-3427984D03*
G01*
X4387011Y-3427984D03*
G01*
X3371011Y-1903984D03*
G01*
X3117037Y-1903984D03*
G01*
X2863037Y-1903984D03*
G01*
X2609037Y-1903984D03*
G01*
X2355037Y-1903984D03*
G01*
X2101037Y-1903984D03*
G01*
X1847037Y-1903984D03*
G01*
X1593037Y-1903984D03*
G01*
X1339037Y-1903984D03*
G01*
X1085037Y-1903984D03*
G01*
X831037Y-1903984D03*
G01*
X577037Y-1903984D03*
G36*
X243039Y-1983981D02*
G01*
X403034Y-1983981D01*
X403034Y-1823986D01*
X243039Y-1823986D01*
G37*
G01*
X4133011Y-3427984D03*
G01*
X3879011Y-3427984D03*
G01*
X3625011Y-3427984D03*
G01*
X3371011Y-3427984D03*
G01*
X3117037Y-3427984D03*
G01*
X2863037Y-3427984D03*
G01*
X2609037Y-3427984D03*
G01*
X2355037Y-3427984D03*
G01*
X2101037Y-3427984D03*
G01*
X1847037Y-3427984D03*
G01*
X1593037Y-3427984D03*
G01*
X1339037Y-3427984D03*
G01*
X1085037Y-3427984D03*
G01*
X831037Y-3427984D03*
G01*
X577037Y-3427984D03*
G01*
X323037Y-3427984D03*
G01*
X577037Y-3173984D03*
G01*
X1085037Y-3173984D03*
G01*
X1339037Y-3173984D03*
G01*
X1593037Y-3173984D03*
G01*
X958037Y-2203983D03*
G01*
X1212037Y-2203983D03*
G01*
X1466037Y-2203983D03*
G01*
X1720037Y-2203983D03*
G01*
X1974037Y-2203983D03*
G36*
X2440940Y-3921760D02*
G01*
X2283459Y-3921760D01*
X2283459Y-4079239D01*
X2440940Y-4079239D01*
G37*
D17*
G01*
X2108200Y-4000500D03*
G01*
X1854200Y-4000500D03*
G01*
X1600200Y-4000500D03*
G36*
X1174501Y-3905498D02*
G01*
X984501Y-3905498D01*
X984501Y-4095498D01*
X1174501Y-4095498D01*
G37*
D19*
G01*
X825500Y-4000500D03*
G36*
X4540498Y-1619001D02*
G01*
X4730498Y-1619001D01*
X4730498Y-1429001D01*
X4540498Y-1429001D01*
G37*
G01*
X4889500Y-1524000D03*
D20*
G01*
X2870200Y-4013200D03*
G36*
X3214199Y-3923200D02*
G01*
X3034200Y-3923200D01*
X3034200Y-4103199D01*
X3214199Y-4103199D01*
G37*
D22*
G01*
X4826000Y-381000D03*
G01*
X4572000Y-381000D03*
G01*
X4064000Y-381000D03*
G01*
X4064000Y-635000D03*
G01*
X4318000Y-381000D03*
G01*
X4318000Y-635000D03*
G01*
X4572000Y-635000D03*
G01*
X4826000Y-635000D03*
G01*
X5080000Y-381000D03*
G36*
X5165001Y-556260D02*
G01*
X4994998Y-556260D01*
X4994998Y-713739D01*
X5165001Y-713739D01*
G37*
D12*
G01*
X5930900Y-3048000D03*
G01*
X5740400Y-3289300D03*
G01*
X6362700Y-3606800D03*
M02*
