M48
METRIC,LZ,000.000
;FILE_FORMAT=3:3
;TYPE=PLATED
;Layer: Drill PTH
;EasyEDA v6.4.19.5, 2021-06-04T13:03:27+02:00
;efa6938f2177404b8bb2681d1be77202,563db0ff5b334ec4995e7372edb549dc,10
;Gerber Generator version 0.2
;Holesize 1 = 0.305 mm
T01C0.305
;Holesize 2 = 0.889 mm
T02C0.889
;Holesize 3 = 1.016 mm
T03C1.016
;Holesize 4 = 1.100 mm
T04C1.100
;Holesize 5 = 1.101 mm
T05C1.101
;Holesize 6 = 1.200 mm
T06C1.200
;Holesize 7 = 1.301 mm
T07C1.301
%
G05
G90
T01
X059309Y-030480
X057404Y-032893
X063627Y-036068
T02
X023622Y-040005
X021082Y-040005
X018542Y-040005
X016002Y-040005
T03
X070358Y-008890
X070104Y-011430
X070358Y-013970
X070104Y-016510
X070358Y-019050
X070104Y-021590
X070358Y-024130
X070104Y-026670
X070358Y-029210
X070104Y-031750
X070358Y-034290
T04
X043870Y-019040G85X043870Y-019040
X046410Y-019040G85X046410Y-019040
X048950Y-019040G85X048950Y-019040
X051490Y-019040G85X051490Y-019040
X041330Y-019040G85X041330Y-019040
X038790Y-019040G85X038790Y-019040
X036250Y-019040G85X036250Y-019040
X054030Y-019040G85X054030Y-019040
X056570Y-019040G85X056570Y-019040
X059110Y-019040G85X059110Y-019040
X061650Y-019040G85X061650Y-019040
X048950Y-021580G85X048950Y-021580
X048950Y-024120G85X048950Y-024120
X048950Y-026660G85X048950Y-026660
X048950Y-029200G85X048950Y-029200
X048950Y-031740G85X048950Y-031740
X061650Y-034280G85X061650Y-034280
X059110Y-034280G85X059110Y-034280
X056570Y-034280G85X056570Y-034280
X054030Y-034280G85X054030Y-034280
X051490Y-034280G85X051490Y-034280
X048950Y-034280G85X048950Y-034280
X046410Y-034280G85X046410Y-034280
X043870Y-034280G85X043870Y-034280
X033710Y-019040G85X033710Y-019040
X031170Y-019040G85X031170Y-019040
X028630Y-019040G85X028630Y-019040
X026090Y-019040G85X026090Y-019040
X023550Y-019040G85X023550Y-019040
X021010Y-019040G85X021010Y-019040
X018470Y-019040G85X018470Y-019040
X015930Y-019040G85X015930Y-019040
X013390Y-019040G85X013390Y-019040
X010850Y-019040G85X010850Y-019040
X008310Y-019040G85X008310Y-019040
X005770Y-019040G85X005770Y-019040
X003230Y-019040G85X003230Y-019040
X041330Y-034280G85X041330Y-034280
X038790Y-034280G85X038790Y-034280
X036250Y-034280G85X036250Y-034280
X033710Y-034280G85X033710Y-034280
X031170Y-034280G85X031170Y-034280
X028630Y-034280G85X028630Y-034280
X026090Y-034280G85X026090Y-034280
X023550Y-034280G85X023550Y-034280
X021010Y-034280G85X021010Y-034280
X018470Y-034280G85X018470Y-034280
X015930Y-034280G85X015930Y-034280
X013390Y-034280G85X013390Y-034280
X010850Y-034280G85X010850Y-034280
X008310Y-034280G85X008310Y-034280
X005770Y-034280G85X005770Y-034280
X003230Y-034280G85X003230Y-034280
X005770Y-031740G85X005770Y-031740
X010850Y-031740G85X010850Y-031740
X013390Y-031740G85X013390Y-031740
X015930Y-031740G85X015930Y-031740
X009580Y-022040G85X009580Y-022040
X012120Y-022040G85X012120Y-022040
X014660Y-022040G85X014660Y-022040
X017200Y-022040G85X017200Y-022040
X019740Y-022040G85X019740Y-022040
T05
X048260Y-003810
X045720Y-003810
X040640Y-003810
X040640Y-006350
X043180Y-003810
X043180Y-006350
X045720Y-006350
X048260Y-006350
X050800Y-003810
X050800Y-006350
T06
X028702Y-040132
X031242Y-040132
T07
X010795Y-040005
X008255Y-040005
X046355Y-015240
X048895Y-015240
M30
